<?xml version="1.0" standalone="no"?>
<!DOCTYPE svg PUBLIC "-//W3C//DTD SVG 1.1//EN" "http://www.w3.org/Graphics/SVG/1.1/DTD/svg11.dtd" >
<svg xmlns="http://www.w3.org/2000/svg">
<metadata>Generated by IcoMoon</metadata>
<defs>
<font id="CTM" horiz-adv-x="512">
<font-face units-per-em="512" ascent="480" descent="-32" />
<missing-glyph horiz-adv-x="512" />
<glyph unicode="&#x20;" d="" horiz-adv-x="256" />
<glyph unicode="&#xe600;" d="M493.284 401.206l-0.962 0.962c-26.291 26.291-68.903 26.323-95.226 0.032l-220.847-200.263-60.021 60.182c-26.291 26.356-68.966 26.387-95.29 0.064l-1.218-1.219c-26.323-26.323-26.323-68.966 0-95.258l108.532-108.371c0 0 0 0 0 0l0.481-0.481c26.323-26.291 68.966-26.291 95.258 0l269.262 249.063c26.324 26.323 26.324 68.966 0.032 95.29z" />
<glyph unicode="&#xe601;" d="M342.284 229.511l116.483 116.484c23.454 23.454 23.454 61.48 0 84.934l-0.849 0.85c-23.454 23.454-61.48 23.454-84.934 0l-116.483-116.484-116.483 116.484c-23.454 23.454-61.48 23.454-84.934 0l-0.849-0.85c-23.454-23.454-23.454-61.48 0-84.934l116.484-116.483-116.484-116.483c-23.454-23.454-23.454-61.48 0-84.934l0.849-0.849c23.454-23.454 61.48-23.454 84.934 0l116.483 116.483 116.483-116.483c23.454-23.454 61.48-23.454 84.934 0l0.849 0.849c23.454 23.454 23.454 61.48 0 84.934l-116.483 116.483z" />
<glyph unicode="&#xe602;" d="M256.726-27.311c-141.556 0-256.726 115.137-256.726 256.661s115.169 256.661 256.726 256.661c141.557 0 256.726-115.137 256.726-256.661s-115.169-256.661-256.726-256.661zM256.726 427.401c-109.238 0-198.115-88.846-198.115-198.051s88.877-198.083 198.115-198.083c109.238 0 198.115 88.846 198.115 198.083 0 109.206-88.846 198.051-198.115 198.051zM224.439 293.636h64.125v-224.438h-64.125v224.438zM224.439 389.824h64.125v-64.125h-64.125v64.125z" />
<glyph unicode="&#xe603;" d="M376.671 455.584c-36.007 19.398-77.175 30.428-120.844 30.428-141.076 0-255.827-114.912-255.827-256.149s114.752-256.149 255.827-256.149c141.043 0 255.796 114.912 255.796 256.149 0 18.115-1.892 35.782-5.483 52.839l-54.282-29.465c0.898-7.663 1.378-15.454 1.378-23.374 0-108.981-88.557-197.666-197.41-197.666s-197.41 88.685-197.41 197.666c0 108.981 88.557 197.666 197.41 197.666 29.53 0 57.585-6.541 82.785-18.212l38.058 46.267z" />
<glyph unicode="&#xe604;" d="M365.658 412.733h-73.279v-73.279h73.279v73.279zM365.658 266.159h-73.279v-73.279h73.279v73.279zM365.658 119.584h-73.279v-73.279h73.279v73.279zM293.149 192.863h-73.279v-73.279h73.279v73.279zM219.853 266.159h-73.279v-73.279h73.279v73.279zM293.149 339.438h-73.279v-73.279h73.279v73.279z" />
<glyph unicode="&#xe605;" d="M147.344 412.733h73.279v-73.279h-73.279v73.279zM147.344 266.159h73.279v-73.279h-73.279v73.279zM147.344 119.584h73.279v-73.279h-73.279v73.279zM219.853 192.863h73.279v-73.279h-73.279v73.279zM293.149 266.159h73.279v-73.279h-73.279v73.279zM219.853 339.438h73.279v-73.279h-73.279v73.279z" />
<glyph unicode="&#xe606;" d="M439.723 338.668v-73.279h-73.279v73.279h73.279zM293.149 338.668v-73.279h-73.279v73.279h73.279zM146.575 338.668v-73.279h-73.279v73.279h73.279zM219.853 266.159v-73.279h-73.279v73.279h73.279zM293.149 192.863v-73.279h-73.279v73.279h73.279zM366.428 266.159v-73.279h-73.279v73.279h73.279z" />
<glyph unicode="&#xe607;" d="M439.723 120.353v73.279h-73.279v-73.279h73.279zM293.149 120.353v73.279h-73.279v-73.279h73.279zM146.575 120.353v73.279h-73.279v-73.279h73.279zM219.853 192.863v73.279h-73.279v-73.279h73.279zM293.149 266.159v73.279h-73.279v-73.279h73.279zM366.428 192.863v73.279h-73.279v-73.279h73.279z" />
<glyph unicode="&#xe608;" d="M430.264 103.536c0 0-44.519 29.129-64.269 42.178-7.55 5.018-15.246 7.55-22.829 7.55-10.485 0-16.897-4.986-18.436-6.332-0.032-0.032-3.671-4.024-11.911-10.805-7.92-6.557-19.574-5.306-28.76 3.046-11.767 10.773-76.838 89.599-97.214 116.419-4.072 5.418-5.643 10.292-4.874 14.989 1.651 9.635 13.306 17.554 19.607 21.803l2.196 1.507c12.681 8.865 14.028 24.256 9.923 34.804-2.709 7.005-29.017 62.217-32.175 68.341-3.736 7.326-9.923 15.726-24.592 15.726-8.385 0-30.187-3.19-44.198-12.97l-3.11-2.132c-12.713-8.577-36.343-24.544-36.343-58.002 0-42.467 32.319-105.598 98.785-193.001 71.083-93.447 155.696-136.971 190.548-136.971 31.918 0 62.762 38.331 72.734 56.911 9.57 17.923 1.315 31.662-5.098 36.968z" />
<glyph unicode="&#xe609;" d="M487.352 320.536c-4.665 2.325-9.33 4.665-13.995 4.665h-39.645c0 0 0 0-2.325 0-6.99 11.655-13.995 20.985-20.985 27.974-4.665 4.665-9.33 9.33-11.655 13.995-6.99 6.989-18.661 11.655-32.639 16.32-27.974 6.99-74.626 11.655-123.585 11.655-25.65 0-107.266-4.665-132.916-27.974-2.341-4.665-6.989-9.33-11.655-13.995-4.665-6.989-11.655-16.32-20.985-27.974 0 0 0 0 0 0h-39.645c-9.33 0-16.32-6.99-16.32-16.32v-16.32c0-9.33 6.989-18.661 16.32-18.661l11.655-2.325c0-2.325-2.34-4.665-2.34-4.665l-2.34-9.33c-13.995-39.645-23.326-88.605-4.665-142.246v-32.639c0-16.32 4.665-25.65 13.995-25.65h44.31c9.33 0 13.995 9.33 13.995 25.65v16.32c37.305-2.325 90.946-6.99 142.246-6.99 53.625 0 104.925 4.665 142.246 6.99v-16.32c0-16.32 4.665-25.65 13.995-25.65h44.31c9.33 0 13.995 9.33 13.995 25.65v32.639c16.32 53.641 9.33 102.601-4.665 142.246v0l-4.665 9.33c0 0 0 2.325 0 2.325l11.655 2.325c9.33 2.325 16.32 9.33 16.32 18.661v18.661c4.665 4.665 2.325 9.33 0 11.655zM95.611 143.31c-20.985 0-37.305 16.32-37.305 34.981s16.32 34.981 34.98 34.981 34.981-16.32 34.981-34.981c2.325-18.661-13.995-34.981-32.639-34.981zM401.072 143.31c-18.661 0-34.981 16.32-34.981 34.981s16.32 34.981 34.981 34.981 34.981-16.32 34.981-34.981c0-18.661-13.995-34.981-34.981-34.981zM354.437 276.226c-32.639 2.325-67.62 4.665-100.276 4.665s-65.296-2.324-97.935-4.665c-32.639 0-62.955-2.325-83.94-2.325 4.665 11.655 11.655 23.31 16.32 32.639l2.341 2.325c11.655 16.32 23.326 32.639 32.639 44.31 11.655 11.655 60.63 20.985 118.921 23.31 46.635 0 90.945-2.325 118.921-11.655 16.32-4.665 23.31-9.33 25.65-11.655 11.655-11.655 23.31-27.974 34.981-44.31l2.325-2.325c4.665-9.33 11.655-20.985 16.32-32.639-20.985 0-53.641 2.325-86.281 2.325z" />
<glyph unicode="&#xe60a;" d="M459.377 57.046h-44.31c-9.33 0-13.995 9.33-13.995 25.65v16.32c-37.305-2.325-90.945-6.99-142.246-6.99-53.625 0-104.941 4.665-142.246 6.99v-16.32c0-16.32-4.665-25.65-13.995-25.65h-48.975c-9.33 0-13.995 9.33-13.995 25.65v32.639c-18.66 53.641-9.33 102.601 4.665 142.246v0l2.34 4.665c0 2.325 2.34 4.665 2.34 4.665l-13.995 4.665c-6.989 0-13.995 9.33-13.995 18.661v18.661c0 9.33 6.989 16.32 16.32 16.32h39.646c0 0 0 0 0 0 6.989 11.655 13.995 20.985 20.985 27.975 4.665 4.665 6.99 9.33 11.655 13.995 25.65 23.309 107.266 27.974 132.916 27.974 48.976 0 95.611-4.665 125.926-11.655 16.32-4.665 25.65-9.33 32.639-16.32 4.665-4.665 6.99-9.33 11.655-13.995 6.99-6.99 13.995-16.32 20.985-27.975 0 0 0 0 2.325 0h39.645c4.665 0 9.33-2.325 11.655-4.665s4.665-6.99 4.665-11.655v-16.32c0-9.33-6.99-18.661-16.32-18.661l-11.655-2.325c0 0 0-2.325 0-2.325l4.665-9.33c13.995-39.646 23.31-88.605 4.665-142.246v-32.639c0-18.661-4.665-27.974-13.995-27.974zM419.732 75.69h34.981c0 2.325 0 4.665 0 6.99v37.305c16.32 48.976 6.99 97.935-6.99 135.24-20.985-2.325-55.966 0-93.27 2.325-32.639 2.325-67.62 4.665-97.935 4.665s-65.296-2.325-97.935-4.665c-39.645-2.325-72.285-2.325-95.611-2.325-13.995-37.305-23.326-86.281-6.989-135.24v-37.305c0-2.325 0-6.99 0-6.99h34.98c0 2.325 0 4.665 0 6.99v37.305h9.33c37.305-4.665 95.611-6.99 151.576-6.99 58.29 0 114.255 4.665 151.576 6.99h9.33v-37.305c4.665-2.325 4.665-4.665 6.99-6.99zM256.501 280.891c32.639 0 65.296-2.324 100.276-4.665 32.639-2.325 62.955-2.325 83.94-2.325-4.665 11.655-11.655 23.31-16.32 32.639l-2.325 2.325c-11.655 16.32-23.31 32.639-34.981 44.31-2.325 2.325-9.33 6.989-25.65 11.655-27.974 6.989-72.285 11.655-118.921 11.655-58.29-2.325-107.266-11.655-118.921-23.31s-23.326-25.65-32.639-44.31l-2.341-2.325c-4.665-9.33-11.655-20.985-16.32-32.639 20.985 0 51.3 0 83.94 2.325s67.62 4.665 100.276 4.665zM445.382 306.541c4.665-6.989 6.99-13.995 11.655-20.985l16.32 2.325c0 0 0 0 0 0v18.661h-27.974zM39.645 306.541v-16.32c0 0 0 0 0 0l16.32-2.325c4.665 6.989 6.989 13.995 11.655 20.985h-27.974zM410.401 166.636c-23.31 0-41.97 18.661-41.97 41.97s18.661 39.645 41.97 39.645c23.31 0 39.645-18.66 39.645-39.645 0-23.31-18.661-41.97-39.645-41.97zM410.401 229.591c-11.655 0-20.985-9.33-20.985-20.985s9.33-20.985 20.985-20.985c11.655-2.325 20.985 6.99 20.985 18.661 0 13.995-9.33 23.31-20.985 23.31zM102.6 166.636c-23.326 0-39.645 18.661-39.645 41.97s18.66 39.645 39.645 39.645 41.97-18.66 41.97-39.645c-2.325-23.31-20.985-41.97-41.97-41.97zM102.6 229.591c-11.655 0-20.985-9.33-20.985-20.985-2.341-13.995 9.33-23.31 20.985-23.31s20.985 9.33 20.985 20.985c0 13.995-9.33 23.31-20.985 23.31z" />
<glyph unicode="&#xe60b;" d="M419.732 385.832c0 0 0 0 0 0l-2.325 4.665c0 0-2.325 0-2.325 2.325-20.985 11.655-58.29 0-83.94-25.65l-39.645-41.97-174.886 11.655c0 0 0 0 0 0-13.995 0-25.65-9.33-27.975-20.985-4.665-9.33 2.341-27.974 27.975-39.646l83.94-41.97c-13.995-16.32-39.645-46.635-51.3-67.62l-48.975-4.665c-4.665 0-9.33-6.99-9.33-11.655l2.341-27.974c0-4.665 4.665-9.33 9.33-9.33l34.981-4.665 4.665-34.981c0-4.665 4.665-9.33 9.33-9.33l27.975-2.325c2.325 0 4.665 0 6.989 2.325s4.665 4.665 4.665 6.99l4.665 48.976c20.985 11.655 51.3 39.645 67.62 51.3l41.97-83.94c9.33-23.31 25.65-30.315 37.305-30.315 2.325 0 2.325 0 4.665 0 11.655 2.325 20.985 13.995 20.985 27.974 0 0 0 0 0 0l-11.655 174.885 39.645 39.646c25.65 25.65 37.305 65.296 23.31 86.281z" />
<glyph unicode="&#xe60c;" d="M419.732 385.832c0 0 0 0 0 0l-2.325 4.665c0 0-2.325 0-2.325 2.325-20.985 11.655-58.29 0-83.94-25.65l-39.645-41.97-174.886 11.655c0 0 0 0 0 0-13.995 0-25.65-9.33-27.975-20.985-4.665-9.33 2.341-27.974 27.975-39.646l83.94-41.97c-13.995-16.32-39.645-46.635-51.3-67.62l-48.975-4.665c-4.665 0-9.33-6.99-9.33-11.655l2.341-27.974c0-4.665 4.665-9.33 9.33-9.33l34.981-4.665 4.665-34.981c0-4.665 4.665-9.33 9.33-9.33l27.975-2.325c2.325 0 4.665 0 6.989 2.325s4.665 4.665 4.665 6.99l4.665 48.976c20.985 11.655 51.3 39.645 67.62 51.3l41.97-83.94c9.33-23.31 25.65-30.315 37.305-30.315 2.325 0 2.325 0 4.665 0 11.655 2.325 20.985 13.995 20.985 27.974 0 0 0 0 0 0l-11.655 174.885 39.645 39.646c25.65 25.65 37.305 65.296 23.31 86.281zM338.116 273.901c-2.325-2.325-2.325-4.665-2.325-9.33l11.655-179.551c0-2.325 0-6.99-2.325-6.99-4.665 0-11.655 2.325-18.661 18.661 0 0 0 0 0 0l-48.976 95.611c-2.325 2.325-4.665 4.665-6.99 4.665 0 0-2.325 0-2.325 0-2.325 0-4.665 0-6.99-2.325 0 0-53.625-46.635-79.275-60.63-4.665-2.325-6.989-4.665-6.989-6.99l-4.665-44.31h-9.33l-4.665 34.981c0 2.325-2.325 4.665-4.665 6.99s-4.665 2.325-6.989 4.665l-34.981 4.665v9.33l44.31 4.665c2.325 0 6.989 2.325 6.989 4.665 13.995 25.65 60.63 79.275 60.63 79.275 2.325 2.325 2.325 4.665 2.325 9.33 0 2.325-2.325 6.989-4.665 6.989l-93.27 46.635c0 0 0 0 0 0-13.996 6.99-18.66 13.995-18.66 18.661 0 2.325 4.665 2.325 6.989 2.325l179.55-11.655c2.325 0 6.99 0 9.33 2.324l41.97 41.97c20.985 20.985 46.635 27.975 58.29 23.326 4.665-9.33-2.325-37.305-23.31-58.29l-41.97-39.646z" />
<glyph unicode="&#xe60d;" d="M95.611 271.561c11.655 32.639 39.645 62.955 74.609 81.615 4.665 2.324 6.989 6.989 6.989 11.655v0c-6.989 13.995-13.995 30.315-2.325 30.315l27.975-23.31c2.325-2.341 6.989-4.665 9.33-2.341 18.661 4.665 37.305 6.99 58.29 6.99 100.276 0 181.875-62.955 181.875-139.905 0-39.645-20.985-74.626-55.966-100.276-4.665-2.325-4.665-6.99-2.325-11.655l13.995-30.315c2.325-4.665 0-11.655-4.665-13.995l-46.635-20.985c-4.665-2.325-11.655 0-13.995 4.665l-13.995 30.315c-2.325 4.665-6.99 6.99-11.655 6.99-13.995-2.325-30.315-4.665-46.635-4.665-11.655 0-25.65 0-37.305 2.325-4.665 0-9.33-2.325-11.655-6.99l-11.655-27.974c-2.325-4.665-9.33-6.99-13.995-4.665l-46.635 20.985c-4.665 2.325-6.989 9.33-4.665 13.995l11.655 20.985c2.325 4.665 0 9.33-4.665 11.655-18.66 13.995-34.981 30.315-46.635 48.976 0 4.665-4.665 6.99-6.989 6.99h-27.975c-4.665 0-9.33 4.665-9.33 9.33v60.63c0 4.665 4.665 9.33 9.33 9.33h16.32c4.665 2.325 9.33 4.665 9.33 9.33z" />
<glyph unicode="&#xe60e;" d="M345.106 57.046c-6.99 0-16.32 4.665-18.661 11.655l-11.655 30.315c-25.65-6.99-53.641-6.99-79.275-2.325l-11.655-27.974c-4.665-9.33-16.32-13.995-25.65-9.33l-41.97 18.661c-9.33 4.665-13.995 16.32-9.33 25.65l9.33 23.31c-20.985 11.655-37.305 27.974-46.635 46.635h-27.975c-11.655 0-20.985 9.33-20.985 20.985v58.29c0 11.655 9.33 20.985 20.985 20.985h16.32c11.655 32.639 37.305 62.955 74.626 81.615h-2.325c-4.665 11.655-9.33 23.325-4.665 32.639 2.325 2.325 6.989 6.989 13.995 6.989 2.325 0 4.665 0 6.989-2.34l27.975-23.31c0 0 0 0 2.325 0 18.66 4.665 34.981 6.99 53.641 6.99 100.276 0 179.55-62.955 179.55-142.246 0-39.646-20.985-76.95-55.966-102.601l11.655-27.974c2.325-4.665 2.325-9.33 0-16.32-2.325-4.665-4.665-9.33-11.655-11.655l-41.97-18.661c0 0-2.325 0-6.99 0zM107.266 194.611c6.989 0 13.995-4.665 16.32-9.33 9.33-16.32 23.309-30.315 39.645-41.97 11.655-4.665 13.995-16.32 9.33-25.65l-9.33-23.31 41.97-18.661 11.655 25.65c2.325 6.99 9.33 11.655 18.661 11.655 0 0 2.325 0 2.325 0 25.65-4.665 48.976-2.325 74.626 2.325 0 0 2.325 0 4.665 0 6.99 0 16.32-4.665 18.661-11.655l11.655-27.974 41.97 18.661-13.995 27.974c-4.665 9.33 0 18.661 6.99 23.31 30.315 23.31 48.976 53.641 48.976 86.281 0 67.62-72.285 121.261-158.565 121.261-16.32 0-34.981-2.324-51.3-6.989-9.33 2.325-16.32 4.665-18.661 6.989l-13.995 9.33v-2.341c4.665-9.33 0-20.985-9.33-25.65-32.639-16.32-55.965-41.97-65.296-69.961-2.341-6.99-9.33-13.995-16.32-13.995h-16.32v-55.966h25.65z" />
<glyph unicode="&#xe60f;" d="M251.836 334.532c2.325 2.324 39.645 60.63 111.93 60.63 34.981 0 69.96-23.326 86.281-60.63s9.33-79.275-20.985-114.255c-60.63-67.62-116.596-123.586-151.576-156.225-11.655-11.655-30.315-11.655-41.97 0-34.981 32.639-90.946 88.605-151.576 156.225-30.315 34.981-39.645 76.951-20.985 114.255 16.32 37.305 48.975 60.63 83.94 60.63 69.96 0 104.941-53.625 104.941-60.63z" />
<glyph unicode="&#xe610;" d="M256.501 57.046c-9.33 0-18.661 4.665-25.65 11.655-34.981 32.639-86.28 83.94-144.571 146.911-30.315 34.981-39.645 76.951-20.985 116.596 16.32 37.305 51.3 62.955 88.605 62.955 51.3 0 83.94-30.315 100.276-48.975 16.32 18.66 51.3 48.975 102.601 48.975 37.305 0 72.285-25.65 90.945-62.955 18.661-39.645 9.33-81.615-20.985-116.596-55.966-62.955-109.59-114.255-144.571-146.911-6.99-6.99-16.32-11.655-25.65-11.655zM153.9 374.161c-27.975 0-58.29-20.985-69.96-48.975-13.995-32.639-6.989-67.62 18.66-95.611 55.966-62.955 107.265-114.255 142.246-146.911 6.989-6.99 18.661-6.99 23.31 0 32.639 32.639 86.281 83.94 142.246 146.911 25.65 27.974 32.639 62.955 18.661 95.611-13.995 30.315-41.97 48.976-69.96 48.976-60.63 0-93.27-46.635-95.611-48.976-2.325-4.665-4.665-6.989-9.33-6.989s-9.33 2.324-9.33 6.989v0c-2.325 0-27.975 48.976-90.945 48.976z" />
<glyph unicode="&#xe611;" d="M251.836 343.862l-123.585-95.61v-170.22c0-11.655 9.33-23.31 23.309-23.31h39.645c13.995 0 23.326 16.32 23.326 23.31v107.266c0 13.995 4.665 20.985 18.661 20.985h51.3c6.99 0 13.995-6.99 13.995-13.995v-111.93c0-11.655 9.33-23.31 23.31-23.31h46.635c9.33 0 16.32 6.99 16.32 16.32v172.561l-118.921 97.936c-4.665 2.325-9.33 2.325-13.995 0zM86.281 245.911c-4.665 0-6.99 0-9.33 4.665-4.665 4.665-2.341 9.33 2.341 13.996l163.231 125.91c9.33 6.99 25.65 9.33 34.981 0l156.225-125.91c4.665-4.665 4.665-9.33 2.325-13.996-4.665-4.665-9.33-4.665-13.995-2.325l-158.565 123.585c-2.325 2.325-6.99 2.325-9.33 0l-163.231-123.585c0-2.325-2.341-2.325-4.665-2.325z" />
<glyph unicode="&#xe612;" d="M366.091 57.046h-51.3c-13.995 0-25.65 11.655-25.65 25.65v100.276c0 2.325-2.325 4.665-4.665 4.665h-46.635c-2.325 0-4.665-2.325-4.665-4.665v-100.276c0-13.995-11.655-25.65-25.65-25.65h-55.965c-13.995 0-25.65 11.655-25.65 25.65v174.886c0 4.665 4.665 11.655 11.655 11.655 4.665 0 11.655-4.665 11.655-11.655v-174.886c0-2.325 2.325-4.665 4.665-4.665h55.965c2.325 0 4.665 2.325 4.665 4.665v100.276c0 13.995 11.655 25.65 25.65 25.65h46.635c13.995 0 25.65-11.655 25.65-25.65v-100.276c0-2.325 2.325-4.665 4.665-4.665h51.3c2.325 0 4.665 2.325 4.665 4.665v174.886c0 4.665 4.665 11.655 11.655 11.655s11.655-4.665 11.655-11.655v-174.886c-4.665-13.995-16.32-25.65-30.315-25.65zM88.605 245.911c-4.665 0-6.99 2.325-9.33 4.665-4.665 4.665-2.341 11.655 2.341 13.996l160.89 123.585c6.989 6.989 25.65 9.33 34.981 0l153.9-123.585c4.665-4.665 4.665-9.33 2.325-13.996-4.665-4.665-9.33-4.665-13.995-2.325l-156.225 123.585c-2.325 2.325-4.665 2.325-6.99 0l-163.231-123.585c-2.341 0-4.665-2.325-4.665-2.325z" />
<glyph unicode="&#xe613;" d="M263.49 395.147h-13.995c-27.975 0-51.3-23.31-51.3-51.3v-51.3c0-4.665-4.665-9.33-9.33-9.33h-51.3c-27.975 0-51.3-23.31-51.3-51.3v-13.995c0-27.974 23.326-51.3 51.3-51.3h51.3c4.665 2.325 9.33-2.325 9.33-6.99v-51.3c0-27.974 23.326-51.3 51.3-51.3h13.995c27.974 0 51.3 23.31 51.3 51.3v51.3c0 4.665 4.665 9.33 9.33 9.33h51.3c27.974 0 51.3 23.31 51.3 51.3v13.995c0 27.975-23.31 51.3-51.3 51.3h-51.3c-4.665 0-9.33 4.665-9.33 9.33v48.976c0 27.975-23.31 51.3-51.3 51.3v0z" />
<glyph unicode="&#xe614;" d="M263.49 374.161c16.32 0 30.315-13.995 30.315-30.315v-51.3c0-16.32 13.995-30.315 30.315-30.315h51.3c16.32 0 30.315-13.995 30.315-30.315v-13.995c0-16.32-13.995-30.315-30.315-30.315h-51.3c-16.32 0-30.315-13.995-30.315-30.315v-51.3c0-16.32-13.995-30.315-30.315-30.315h-13.995c-16.32 0-30.315 13.995-30.315 30.315v51.3c0 16.32-13.995 30.315-30.315 30.315h-51.3c-16.32 0-30.315 13.995-30.315 30.315v16.32c0 16.32 13.995 30.315 30.315 30.315h51.3c16.32 0 30.315 13.995 30.315 30.315v48.976c0 16.32 13.995 30.315 30.315 30.315h13.995zM263.49 395.147h-13.995c-27.975 0-51.3-23.31-51.3-51.3v-51.3c0-4.665-4.665-9.33-9.33-9.33h-51.3c-27.975 0-51.3-23.31-51.3-51.3v-13.995c0-27.974 23.326-51.3 51.3-51.3h51.3c4.665 2.325 9.33-2.325 9.33-6.99v-51.3c0-27.974 23.326-51.3 51.3-51.3h13.995c27.974 0 51.3 23.31 51.3 51.3v51.3c0 4.665 4.665 9.33 9.33 9.33h51.3c27.974 0 51.3 23.31 51.3 51.3v13.995c0 27.975-23.31 51.3-51.3 51.3h-51.3c-4.665 0-9.33 4.665-9.33 9.33v48.976c0 27.975-23.31 51.3-51.3 51.3v0z" />
<glyph unicode="&#xe615;" d="M174.421 158.236c-7.695-5.13-15.39-10.26-20.52-15.39-2.565-2.565-5.13-5.13-5.13-7.695l-7.695-46.17h-7.695l-5.13 35.91c0 2.565-2.565 5.13-2.565 7.695-2.565 2.565-5.13 2.565-7.695 2.565l-35.91 5.13v7.695l43.605 7.695c2.565 0 7.695 2.565 7.695 5.13 10.26 15.39 33.345 43.605 48.735 61.56 2.565 12.825 10.26 23.085 15.39 33.345 0 2.565 0 2.565-2.565 2.565l-100.035 51.3c0 0 0 0 0 0-12.825 5.13-17.955 15.39-17.955 17.955s5.13 2.565 7.695 2.565l184.68-10.26c2.565 0 5.13 0 7.695 2.565l43.605 43.605c20.52 20.52 48.735 28.215 58.995 23.085 5.13-10.26-2.565-38.475-23.085-58.995l-7.695-7.695c7.695-2.565 15.39-2.565 25.65-5.13 25.65 28.215 38.475 64.125 25.65 84.646 0 0 0 2.565-2.565 2.565l-2.565 2.565c0 0-2.565 0-2.565 2.565-20.52 12.825-61.56 0-87.21-25.65l-38.475-38.475-179.55 12.825c0 0 0 0 0 0-15.39 0-25.65-7.695-28.215-20.52-5.13-17.955 0-35.91 28.215-48.735l87.21-43.605c-15.39-15.39-43.605-48.735-56.43-69.256l-51.3-5.13c-5.13 0-10.26-5.13-10.26-12.825l5.13-28.215c0-5.13 5.13-7.695 10.26-10.26l35.91-5.13 5.13-35.91c0-5.13 5.13-7.695 10.26-10.26l28.215-2.565c2.565 0 5.13 0 7.695 2.565s2.565 5.13 5.13 7.695l5.13 51.3c2.565 2.565 5.13 2.565 7.695 5.13 0 7.695-2.565 15.39-2.565 25.65zM315.496 163.365c-2.565 2.565-5.13 7.695-2.565 12.825l-7.695 7.695-43.605-76.951 76.951 43.605-7.695 7.695c-5.13 2.565-10.26 2.565-15.39 5.13zM333.452 181.32c2.565-2.565 5.13-7.695 2.565-12.825l7.695-7.695 43.605 76.951-76.951-43.605 10.26-10.26c2.565 0 7.695 0 12.825-2.565zM325.756 40.245c-71.82 0-133.381 58.995-133.381 133.38s58.995 133.38 133.381 133.38 133.38-58.995 133.38-133.38-61.56-133.38-133.38-133.38zM325.756 283.921c-61.56 0-112.861-51.3-112.861-112.861s48.735-110.296 110.296-110.296 110.296 48.735 110.296 110.296-48.735 112.861-107.731 112.861z" />
<glyph unicode="&#xe616;" d="M212.19 126.99v0zM300.812 66.36c-18.661 0-34.981 6.99-48.976 18.661-16.32 13.995-25.65 30.315-25.65 51.3-2.325 20.985 4.665 39.645 18.66 55.966l39.645 46.635c-6.99 34.981 2.325 72.285 25.65 100.276 25.65 27.974 67.62 32.639 88.605 32.639 9.33 0 20.985 0 30.315-2.341 2.325 0 6.99-2.325 6.99-6.989s0-6.99-2.325-9.33l-41.97-51.3c-18.661-20.985-20.985-48.976-6.99-60.631 4.665-4.665 11.655-6.989 18.661-6.989 13.995 0 30.315 9.33 41.97 20.985l44.31 53.625c2.325 2.325 4.665 4.665 9.33 2.325 2.325 0 6.99-2.325 6.99-6.99 13.995-37.305 16.32-88.605-11.655-123.585-23.31-27.974-55.966-41.97-90.945-41.97v0c0 0-2.325 0-2.325 0l-39.645-46.635c-18.661-16.32-39.645-25.65-60.63-25.65zM298.471 229.591l-41.97-51.3c-9.33-11.655-13.995-25.65-13.995-41.97s9.33-27.974 20.985-39.645c9.33-9.33 23.31-13.995 37.305-13.995 16.32 0 32.639 6.99 44.31 20.985l41.97 51.3c0 0 2.325 2.325 2.325 2.325 2.325 2.325 4.665 2.325 6.99 2.325 32.639-2.325 62.955 11.655 83.94 34.981 20.985 25.65 20.985 60.63 13.995 90.945l-32.639-39.645c-16.32-18.66-34.981-27.975-55.966-27.975-11.655 0-20.985 4.665-30.315 9.33-23.31 18.66-20.985 58.29 4.665 86.28l32.639 39.645c-2.325 0-6.99 0-9.33 0-18.661 0-55.966-4.665-76.95-30.315-20.985-23.31-27.974-55.966-20.985-88.605-2.325 0-4.665-2.325-6.99-4.665zM300.812 108.346c-6.99 0-13.995 2.325-20.985 6.99-13.995 11.655-16.32 32.639-4.665 46.635 0 0 25.65 32.639 30.315 37.305 2.325 2.325 4.665 2.325 6.99 0s2.325-4.665 0-6.99c-4.665-4.665-30.315-37.305-30.315-37.305-9.33-9.33-6.99-25.65 4.665-34.981 4.665-4.665 11.655-6.99 18.661-4.665 6.99 0 11.655 4.665 16.32 9.33l27.974 32.639c2.325 2.325 4.665 2.325 6.99 0s2.325-4.665 0-6.99l-27.974-32.639c-4.665-6.99-13.995-11.655-23.31-11.655-2.325 2.325-4.665 2.325-4.665 2.325zM214.531 108.346c-48.976 0-90.945 2.325-125.91 6.99v-16.32c0-16.32-4.665-25.65-13.995-25.65h-41.97c-9.33 0-13.995 9.33-13.995 25.65v30.315c-16.32 51.3-9.33 97.935 4.665 135.24v0l2.325 4.665c0 2.325 2.325 4.665 2.325 4.665l-11.655 2.325c-9.33 2.325-16.32 11.655-16.32 18.661v16.32c0 9.33 6.989 16.32 16.32 16.32h37.305c0 0 0 0 0 0 9.33 11.655 16.32 20.985 20.985 27.974 4.665 4.665 6.989 9.33 11.655 11.655 23.326 23.31 102.601 25.65 125.926 27.974 46.635 0 100.276-4.665 128.25-13.995l-25.65-11.655c-25.65 4.665-65.296 9.33-100.276 6.99-58.29 0-102.6-9.33-114.255-20.985s-23.309-25.65-32.639-41.97l-2.341-2.325c-4.665-9.33-9.33-18.661-16.32-30.315 20.985 0 48.976 0 79.275 2.325 32.639 2.325 65.296 2.325 95.611 2.325 13.995 0 30.315 0 44.311 0v-18.661c-13.995 0-32.639 0-44.31 0-30.315 0-62.955-2.325-93.27-2.325-34.981-2.325-67.62-2.325-88.605-2.325-13.995-34.981-23.326-81.615-6.989-128.25v-34.981c0-2.325 0-4.665 0-6.99h32.639c0 2.325 0 4.665 0 6.99v34.981h9.33c32.639-2.325 81.616-6.99 130.575-6.99l6.989-18.661zM18.66 311.207v-16.32c0 0 0 0 0 0l16.32-2.325c2.34 6.99 6.989 13.995 9.33 20.985 0-2.325-25.65-2.325-25.65-2.325zM79.275 178.291c-20.985 0-39.645 16.32-39.645 39.646s16.32 37.305 39.645 37.305 39.645-16.32 39.645-39.646c-2.341-20.985-18.66-37.305-39.645-37.305zM79.275 236.596c-11.655 0-20.985-9.33-20.985-20.985s9.33-20.985 20.985-20.985 20.985 9.33 20.985 20.985c0 11.655-9.33 20.985-20.985 20.985z" />
<glyph unicode="&#xe617;" d="M478.807 195.012l-55.581 8.545-21.37 96.188c0 4.28-4.281 8.544-8.544 8.544-6.413 2.132-12.825-2.132-14.957-8.544l-29.93-128.25-29.93 89.775c-2.132 4.281-4.281 6.413-8.544 6.413-6.413 2.132-12.825-2.132-12.825-8.544l-14.957-57.713-57.713-6.413c-2.132 0-2.132-2.132-4.28-4.281 2.132 0 2.132-2.132 4.28-2.132l64.125-6.413c4.281 0 8.544 2.132 10.693 6.413v2.132l8.544 29.93 29.93-91.907c2.132-4.281 4.281-6.413 8.545-6.413 6.413-2.132 12.825 2.132 12.825 8.544v0l29.93 115.425 10.693-57.712v-2.132c2.132-6.413 6.413-8.544 12.825-8.544l66.257 10.693c2.132 0 2.132 2.132 2.132 2.132 2.132 2.132 0 4.281-2.132 4.281zM305.669 165.081c-4.281-2.132-6.413-2.132-10.693-4.281-27.783-27.782-51.3-51.3-68.406-68.406-6.412-6.413-17.106-6.413-21.369 0-34.195 32.063-81.231 79.082-132.531 136.795-23.518 25.65-29.93 57.713-17.105 87.643 12.825 27.783 38.475 44.887 64.125 44.887 57.713 0 81.231-44.887 81.231-44.887 2.132-4.28 6.412-6.413 10.693-6.413s6.412 2.132 8.544 6.413c2.132 2.132 32.063 44.887 87.643 44.887 25.65 0 49.168-17.105 61.993-40.608 4.281 4.281 10.693 6.413 17.106 6.413-14.957 32.063-47.020 53.433-79.082 53.433-47.020 0-79.082-27.783-94.055-44.887-14.957 17.106-44.887 44.887-91.907 44.887-34.195 0-68.406-23.518-83.363-57.712-17.105-36.343-8.544-74.818 19.237-106.881 51.3-57.712 100.468-104.733 132.531-134.663 6.412-6.413 14.957-10.693 23.518-10.693s17.106 4.281 23.518 10.693c19.238 17.106 42.755 42.755 70.538 70.538l-2.132 12.825z" />
<glyph unicode="&#xe618;" d="M265.831 113.011c0 0 0 2.325-2.325 2.325-13.995-11.655-25.65-23.31-34.981-32.639-6.989-6.99-18.661-6.99-23.326 0-32.639 32.639-86.281 83.94-142.246 146.911-25.65 27.974-30.315 62.955-16.32 95.611 13.995 30.315 41.97 48.976 69.96 48.976 62.955 0 88.605-48.976 88.605-48.976 2.325-4.665 4.665-9.33 9.33-6.989 4.665 0 6.989 2.324 9.33 6.989 2.325 2.325 34.981 48.976 95.611 48.976 6.99 0 13.995-2.341 20.985-4.665 2.325 4.665 6.99 6.99 9.33 11.655l4.665 4.665c-11.655 4.665-23.31 6.99-37.305 6.99-48.976 2.325-83.94-27.974-100.276-46.635-16.32 18.661-48.976 48.976-100.276 48.976-37.305 0-74.609-25.65-90.945-62.955-18.66-39.646-9.33-81.616 20.985-116.596 58.29-62.955 109.59-114.255 144.57-146.911 6.989-6.99 16.32-11.655 25.65-11.655s18.66 4.665 25.65 11.655c9.33 9.33 20.985 20.985 32.639 32.639 0 2.325-4.665 6.99-9.33 11.655zM368.432 329.867c32.639-30.315 72.285-48.975 97.935-55.965-6.99-46.635-18.661-107.266-34.981-130.575-18.661-25.65-48.976-39.645-62.955-44.31-13.995 4.665-44.31 18.661-62.955 44.31-16.32 23.31-30.315 86.281-34.981 130.575 23.31 6.989 62.955 25.65 97.935 55.965zM368.432 369.496c-46.635-58.29-128.25-76.95-128.25-76.95v0c0-2.325 11.655-123.585 44.31-165.555 27.974-37.305 72.285-51.3 81.615-55.966v0c0 0 0 0 2.325 0 0 0 2.325 0 2.325 0v0c11.655 2.325 55.966 18.661 81.615 55.966 30.315 44.31 44.31 165.555 44.31 165.555s-81.615 18.661-128.25 76.95v0z" />
<glyph unicode="&#xe619;" d="M205.201 101.805c0 0-10.26 0-23.085 2.565 0 0 5.13 0 5.13 0-7.695 0-12.825-5.13-15.39-12.825l-12.825-30.78-46.17 20.52 12.825 25.65c5.13 10.26 0 20.52-7.695 25.65-20.52 15.39-35.91 30.78-46.17 48.735-2.565 7.695-10.26 10.26-17.955 10.26h-33.345v58.995h28.215c7.695 0 10.26 17.955 12.825 25.65 12.825 33.345 38.475 56.43 74.385 74.386 10.26 5.13 12.825 15.39 10.26 25.65l-2.565 2.565c0 0 0 2.565-2.565 2.565l17.955-15.39c2.565 0 7.695-5.13 15.39-5.13 0 0 2.565 0 2.565 0 17.955 5.13 35.91 7.695 56.43 7.695 41.040 0 79.516-10.26 110.296-28.215l2.565 2.565c7.695 5.13 17.955 7.695 28.215 2.565-35.91 28.215-84.645 46.17-138.511 46.17-20.52 0-41.040-2.565-58.995-7.695 0 0-2.565 0-2.565 0v0l-30.78 25.65c-5.13 0-7.695 2.565-10.26 2.565-7.695 0-12.825-5.13-12.825-7.695-5.13-7.695 0-20.52 5.13-33.345v-7.695c-41.040-20.52-69.255-41.040-82.081-92.34h-17.955c-10.26 0-25.65-2.565-25.65-15.39v-64.125c0-10.26 12.825-20.52 23.085-20.52h30.78c12.825-20.52 30.78-38.475 51.3-53.865l-10.26-25.65c-5.13-10.26 0-23.085 10.26-28.215l48.735-17.955c10.26-5.13 23.085 0 28.215 10.26l12.825 28.215c12.825-2.565 12.825 0 12.825 0v17.955zM451.442 40.245h-43.605c-12.825 0-23.085 10.26-23.085 23.085v84.646c0 2.565 0 2.565-2.565 2.565h-38.475c-2.565 0-2.565 0-2.565-2.565v-84.645c0-12.825-10.26-23.085-23.085-23.085h-46.17c-12.825 0-23.085 10.26-23.085 23.085v148.77c0 5.13 5.13 10.26 10.26 10.26s10.26-5.13 10.26-10.26v-148.77c0-2.565 0-2.565 2.565-2.565h46.17c2.565 0 2.565 0 2.565 2.565v84.645c0 12.825 10.26 23.085 23.085 23.085h38.475c12.825 0 23.085-10.26 23.085-23.085v-84.645c0-2.565 0-2.565 2.565-2.565h43.605c2.565 0 2.565 0 2.565 2.565v148.77c0 5.13 5.13 10.26 10.26 10.26s10.26-5.13 10.26-10.26v-148.77c0-12.825-10.26-23.085-23.085-23.085zM215.461 201.841c-2.565 0-5.13 2.565-7.695 5.13-5.13 2.565-2.565 10.26 0 12.825l135.945 105.166c7.695 7.695 23.085 7.695 30.78 0l130.815-105.166c7.695-2.565 7.695-10.26 5.13-12.825-2.565-5.13-10.26-5.13-15.39-2.565l-130.815 105.166c-2.565 2.565-5.13 0-5.13 0l-138.511-105.166c0-2.565-2.565-2.565-5.13-2.565z" />
<glyph unicode="&#xe61a;" d="M200.536 59.37c-4.665-2.325-6.989-2.325-11.655-2.325h-55.965c-13.995 0-25.65 11.655-25.65 25.65v174.886c0 4.665 4.665 11.655 11.655 11.655 4.665-2.325 9.33-6.99 9.33-11.655v-174.886c0-2.325 2.34-4.665 4.665-4.665h55.965l11.655-18.661zM67.62 245.911c-2.341 0-6.989 2.325-9.33 4.665-2.34 4.665-2.34 11.655 2.34 13.996l160.89 123.585c6.989 6.989 25.65 9.33 34.98 0l153.9-123.585c4.665-4.665 4.665-9.33 2.325-13.996-4.665-4.665-9.33-4.665-13.995-2.325l-156.225 123.585c-4.665 4.665-4.665 2.325-6.989 0l-160.89-123.585c-2.341 0-4.665-2.325-6.989-2.325zM417.391 196.951c-4.665 34.981-55.966 53.625-104.941 53.625-46.635 0-97.935-16.32-102.601-53.625-18.661-2.325-34.981-18.661-34.981-39.645s16.32-37.305 34.981-39.645c2.325-11.655 2.325-23.31 0-32.639 0-6.99 4.665-18.661 32.639-18.661v0h142.246c27.974 0 32.639 11.655 30.315 20.985s-2.325 20.985 0 32.639c20.985 2.325 34.981 18.661 34.981 39.646 2.325 18.661-11.655 34.981-32.639 37.305zM312.466 236.596c25.65 0 48.976-4.665 65.296-11.655 11.655-4.665 23.31-13.996 25.65-27.975-18.661-2.325-32.639-20.985-32.639-39.645v-6.99c-20.985 6.99-41.97 11.655-60.63 11.655-25.65 0-44.31-4.665-53.625-9.33v4.665c0 20.985-13.995 37.305-32.639 39.645 4.665 25.65 46.635 39.645 88.605 39.645zM244.846 78.031c-11.655 0-18.661 2.325-18.661 4.665 2.325 11.655 2.325 27.974-2.325 41.97l-2.325 4.665h-4.665c-16.32 0-27.975 11.655-27.975 27.974s11.655 27.974 27.975 27.974c16.32 0 27.975-11.655 27.975-27.974v-79.275zM370.756 78.031h-114.255v60.63c6.99 2.325 25.65 11.655 53.641 11.655 20.985 0 39.646-4.665 60.63-11.655v-60.63zM412.726 129.331h-4.665l-2.325-4.665c-4.665-13.995-4.665-30.315-2.325-41.97 0-2.325-6.99-6.99-18.661-6.99v81.615c0 16.32 11.655 27.974 27.974 27.974s27.974-11.655 27.974-27.974c0-16.32-13.995-27.974-27.974-27.974zM384.752 61.695h-139.905c-30.315 0-34.981 13.995-34.981 20.985 2.325 11.655 2.325 23.31 0 30.315-20.985 2.325-37.305 20.985-37.305 41.97s13.995 37.305 34.981 41.97c6.989 37.305 58.29 53.625 104.925 53.625 48.976 0 100.276-16.32 107.265-53.625 20.985-4.665 34.981-20.985 34.981-41.97s-16.32-39.645-37.305-41.97c-2.325-9.33-2.325-20.985 0-30.315 2.325-6.99-4.665-20.985-32.639-20.985v0zM256.501 66.36h128.25c18.661 0 27.974 6.99 27.974 16.32-2.325 9.33-2.325 20.985 0 32.639v2.325h2.325c18.661 2.325 32.639 18.661 32.639 37.305s-13.995 34.981-32.639 37.305h-2.325v2.325c-4.665 34.981-55.966 51.3-102.601 51.3-41.97 2.325-93.27-13.995-97.935-48.976v-2.325h-2.325c-18.661-2.325-32.639-18.661-32.639-37.305s13.995-34.981 32.639-37.305h2.325v-2.325c2.325-9.33 2.325-20.985 0-34.981 0-9.33 9.33-16.32 30.315-16.32h13.995zM247.171 73.366h-2.325c-4.665 0-20.985 2.325-20.985 9.33 2.325 11.655 2.325 27.974-2.325 41.97v2.325h-4.665c-16.32 0-30.315 13.995-30.315 30.315s11.655 30.315 30.315 30.315c16.32 0 30.315-13.995 30.315-30.315 0 0 0-83.94 0-83.94zM226.186 82.696c0 0 4.665-2.325 13.995-2.325v76.95c0 13.995-11.655 25.65-25.65 25.65s-25.65-11.655-25.65-25.65c0-13.995 11.655-25.65 25.65-25.65h6.989l2.325-6.99c4.665-13.995 4.665-30.315 2.325-41.97zM382.427 73.366v83.94c0 16.32 13.995 30.315 30.315 30.315s30.315-13.995 30.315-30.315c0-16.32-13.995-30.315-30.315-30.315h-2.325v-2.325c-4.665-13.995-4.665-32.639-2.325-39.646 0-6.99-16.32-9.33-20.985-9.33l-4.665-2.325zM412.726 182.956c-13.995 0-25.65-11.655-25.65-25.65v-76.951c9.33 0 13.995 2.325 13.995 4.665-2.325 9.33-2.325 25.65 2.325 41.97l2.325 6.99h6.99c13.995 0 25.65 11.655 25.65 25.65 0 11.655-11.655 23.31-25.65 23.31zM373.096 73.366h-121.261v65.296h2.325c6.989 2.325 27.975 11.655 55.965 11.655 20.985 0 41.97-4.665 62.955-11.655h2.325c-2.325 0-2.325-65.296-2.325-65.296zM258.825 80.356h109.59v55.966c-18.661 6.99-39.645 11.655-58.29 11.655-25.65 0-44.31-6.99-51.3-9.33v-58.29zM373.096 147.976l-2.325 2.325c-20.985 6.99-39.646 11.655-60.63 11.655-23.31 0-41.97-4.665-53.625-9.33l-4.665-2.325v9.33c0 18.661-13.995 34.981-32.639 37.305h-2.325v2.325c6.989 27.975 53.624 41.97 93.27 41.97 25.65 0 48.976-4.665 65.296-11.655 11.655-4.665 25.65-13.995 27.974-30.315v-2.325h-2.325c-18.661-2.325-30.315-18.661-30.315-37.305l2.325-11.655zM310.125 164.312c18.661 0 37.305-2.325 58.29-9.33v2.325c0 20.985 13.995 37.305 32.639 41.97-4.665 11.655-16.32 18.661-25.65 23.31-13.995 6.989-37.305 11.655-62.955 11.655-37.305 0-79.275-11.655-86.281-34.98 18.661-4.665 32.639-20.985 32.639-41.97v-2.325c11.655 4.665 30.315 9.33 51.3 9.33z" />
<glyph unicode="&#xe61b;" d="M373.096 353.177l81.615-123.586c9.33-16.32 13.995-32.639 13.995-51.3 0-25.65-9.33-48.976-27.974-67.62s-41.97-27.974-67.62-27.974c-51.3 0-95.611 41.97-95.611 95.611 0 18.661 4.665 34.981 13.995 51.3l81.615 123.585zM373.096 388.156c-4.665 0-6.99-2.325-9.33-4.665l-90.945-139.905c-11.655-18.661-18.661-41.97-18.661-62.955 0-65.296 53.625-118.921 118.921-118.921s118.921 53.641 118.921 118.921c0 23.31-6.99 44.31-18.661 62.955 0 0 0 0 0 0l-90.945 139.905c0 2.325-4.665 4.665-9.33 4.665v0zM373.096 122.325c-37.305 0-67.62 30.315-67.62 67.62 0 4.665 2.325 6.99 6.99 6.99s6.99-2.325 6.99-6.99c0-30.315 23.31-53.641 53.625-53.641 4.665 0 6.99-2.325 6.99-6.99 2.325-4.665-2.325-6.99-6.99-6.99zM261.166 94.351c-53.625 0-109.59 4.665-146.911 6.99v-16.32c0-16.32-4.665-25.65-13.995-25.65h-46.635c-9.33 0-13.995 9.33-13.995 25.65v30.315c-18.66 53.641-9.33 102.601 4.665 142.246v0l2.34 4.665c0 2.325 2.34 4.665 2.34 4.665l-13.995 4.665c-6.989 0-16.32 9.33-16.32 18.661v18.661c0 9.33 9.33 16.32 18.66 16.32h39.645c0 0 0 0 0 0 6.989 11.655 13.995 20.985 20.985 27.974 4.665 4.665 6.99 9.33 11.655 13.995 25.65 23.31 107.265 27.975 132.916 27.975 30.315 0 74.609-2.325 97.935-6.99l-11.655-16.32c-23.31 2.324-60.63 4.665-86.281 4.665-58.29-2.325-107.266-11.655-118.921-23.309s-23.326-25.65-32.639-44.311l-2.341-2.324c-6.99-9.33-11.655-20.985-16.32-32.639 20.985 0 51.3 0 83.94 2.324s83.94 2.325 114.255 2.325l-11.655-18.661c-30.315 0-67.62-2.325-102.601-4.665-37.305 0-69.96 0-93.27 0-13.995-37.305-23.326-86.28-6.989-135.24v-37.305c0-2.325 0-6.99 0-6.99h34.98c0 2.325 0 4.665 0 6.99v37.305h9.33c37.305-4.665 88.605-6.99 144.571-6.99l16.32-18.661zM39.645 306.541v-16.32c0 0 0 0 0 0l16.32-2.325c4.665 6.989 6.989 13.995 11.655 20.985h-27.974zM102.6 166.636c-23.326 0-41.97 18.661-41.97 41.97s18.66 41.97 41.97 41.97 41.97-18.66 41.97-41.97c-2.325-23.31-20.985-41.97-41.97-41.97zM102.6 229.591c-11.655 0-20.985-9.33-20.985-20.985-2.341-13.995 6.989-23.31 20.985-23.31s20.985 9.33 20.985 20.985c0 13.995-9.33 23.31-20.985 23.31z" />
<glyph unicode="&#xe61c;" d="M191.206 59.37c-2.325-2.325-6.989-2.325-9.33-2.325h-55.965c-13.995 0-25.65 11.655-25.65 25.65v174.886c0 4.665 4.665 11.655 11.655 11.655 4.665 0 11.655-4.665 11.655-11.655v-174.886c0-2.325 2.341-4.665 4.665-4.665h48.975l13.995-18.661zM282.151 334.532l-46.635 37.305c-2.325 2.341-4.665 2.341-6.989 0l-160.89-123.585c-2.341 0-4.665-2.325-6.989-2.325s-6.989 2.325-9.33 4.665c-2.34 4.665-2.34 11.655 2.34 13.995l160.89 123.586c6.989 6.99 25.65 9.33 34.981 0l51.3-41.97-18.661-11.655zM277.486 96.675l-60.63 60.63c-2.325 2.325-2.325 6.99 0 9.33s6.989 2.325 9.33 0l60.631-60.63c2.325-2.325 2.325-6.99 0-9.33s-4.665-2.325-9.33 0v0zM431.387 311.207c41.97-41.97 41.97-107.265 0-146.911-20.985-20.985-48.976-30.315-74.626-30.315-9.33 0-18.661-4.665-39.645-23.31-4.665-4.665-9.33-2.325-13.995 0-2.325 4.665-4.665 9.33 0 13.995 20.985 18.661 34.981 27.974 51.3 27.974 23.31 0 46.635 6.99 62.955 25.65 32.639 32.639 32.639 86.281 0 121.261-32.639 32.639-86.281 32.639-118.921 0-16.32-16.32-25.65-39.645-25.65-62.955-2.325-16.32-9.33-30.315-27.975-51.3-4.665-4.665-9.33-4.665-13.995 0-4.665 2.325-4.665 9.33 0 13.995 18.66 18.661 23.326 27.975 23.326 39.645 0 27.975 9.33 55.965 30.315 74.626 41.97 37.305 107.265 37.305 146.911-2.325v0zM261.166 80.356l-62.955 60.63c-2.325 2.325-2.325 6.99 0 9.33s6.989 2.325 9.33 0l60.631-60.63c2.325-2.325 2.325-6.99 0-9.33 0-2.325-4.665-4.665-6.99 0v0zM237.84 68.7l-48.975 48.976c-2.325 2.325-2.325 6.99 0 9.33s6.989 2.325 9.33 0l48.975-48.976c2.325-2.325 2.325-6.99 0-9.33s-6.989-2.325-9.33 0v0zM221.52 71.025c-6.989-2.325-18.66 0-25.65 6.99s-9.33 18.661-6.989 25.65l32.639-32.639z" />
<glyph unicode="&#xe61d;" d="M415.067 360.182l-235.516-132.916c-4.665-2.325-6.989-9.33-2.325-13.995l81.615-144.57c2.325-4.665 9.33-6.99 13.995-4.665l235.516 132.916c4.665 2.325 6.99 9.33 4.665 13.995l-81.615 144.571c-4.665 4.665-11.655 6.989-16.32 4.665zM499.007 206.281l-230.851-128.25-79.275 142.246 230.851 128.25 79.275-142.246zM349.771 154.981l-79.275-44.31-51.3 93.27 79.275 44.31 51.3-93.27zM443.041 259.906l-102.601-58.29-6.99 11.655 102.601 58.29 6.99-11.655zM454.712 241.245l-102.601-58.29-6.99 11.655 102.601 58.29 6.99-11.655zM466.367 220.26l-102.601-58.29-6.99 11.655 102.601 58.29 6.99-11.655zM209.866 262.246c-30.315 0-48.975-2.324-81.615-4.665-34.981-2.325-67.62-2.325-88.605-2.325-11.655-32.639-20.985-79.275-4.665-125.926v-34.981c0-2.325 0-4.665 0-6.99h32.639c0 2.325 0 4.665 0 6.99v34.981h9.33c34.98-2.325 69.961-6.99 123.586-6.99l9.33-18.661c-48.975 0-90.945 2.325-125.91 6.99v-16.32c2.341-16.32-2.341-25.65-11.655-25.65h-41.97c-9.33 0-13.995 9.33-13.995 25.65v30.315c-16.32 48.976-6.989 97.935 6.989 132.916v0l2.325 4.665c0 2.325 2.325 4.665 2.325 4.665l-13.995 2.325c-6.989 2.325-13.995 11.655-13.995 18.661v16.32c0 9.33 6.989 16.32 16.32 16.32h37.305c0 0 0 0 0 0 6.989 11.655 13.996 20.985 20.985 27.974 2.341 4.665 6.989 9.33 11.655 11.655 23.326 23.31 100.276 25.65 123.585 27.974 46.635 0 90.945-2.34 118.921-11.655 13.995-4.665 25.65-9.33 32.639-16.32 2.325-2.325 6.99-6.989 9.33-9.33 0-2.325 0-2.325 2.325-2.325l-18.661-6.989c-2.325 2.325-4.665 4.665-6.99 6.989s-9.33 6.99-23.31 11.655c-25.65 6.989-69.96 11.655-114.255 11.655-55.965-2.325-100.276-11.655-111.93-23.326-9.33-11.655-20.985-25.65-32.639-41.97v-2.324c-6.989-9.33-11.655-18.661-16.32-30.315 20.985 0 48.975 0 79.275 2.325 32.639 2.324 83.94 2.324 114.255 2.324l-32.639-16.32zM16.32 304.216v-16.32c0 0 0 0 0 0l18.66-2.325c2.34 6.99 6.989 13.995 9.33 18.661h-27.974zM76.951 171.301c-20.985 0-39.645 16.32-39.645 39.646s16.32 39.645 39.645 39.645 39.645-18.66 39.645-39.645c0-20.985-18.66-39.645-39.645-39.645zM76.951 231.931c-11.655 0-20.985-9.33-20.985-20.985s9.33-20.985 20.985-20.985 20.985 9.33 20.985 20.985c0 11.655-9.33 20.985-20.985 20.985z" />
<glyph unicode="&#xe61e;" d="M64.125 453.212h385.264c39.789 1.475 63.612-23.662 63.612-64.125v-255.988c0-40.399-23.726-64.638-64.125-64.638h-384.752c-40.399 0-64.125 23.726-64.125 64.125v256.020c0 40.399 23.727 64.606 64.125 64.606zM288.563 68.46h128.25v-64.125z" />
<glyph unicode="&#xe61f;" d="M0 486.012h96.188v-96.188h-96.188v96.188zM128.25 486.012h96.188v-96.188h-96.188v96.188zM257.175 486.012h96.188v-96.188h-96.188v96.188zM385.425 486.012h96.188v-96.188h-96.188v96.188zM0 357.762h96.188v-96.188h-96.188v96.188zM128.25 357.762h96.188v-96.188h-96.188v96.188zM257.175 357.762h96.188v-96.188h-96.188v96.188zM385.425 357.762h96.188v-96.188h-96.188v96.188zM0 229.511h96.188v-96.188h-96.188v96.188zM128.25 229.511h96.188v-96.188h-96.188v96.188zM257.175 229.511h96.188v-96.188h-96.188v96.188zM385.425 229.511h96.188v-96.188h-96.188v96.188zM0 101.26h96.188v-96.188h-96.188v96.188zM128.25 101.26h96.188v-96.188h-96.188v96.188zM257.175 101.26h96.188v-96.188h-96.188v96.188zM385.425 101.26h96.188v-96.188h-96.188v96.188z" />
<glyph unicode="&#xe620;" d="M459.698 429.068h-410.401c-16.977 0-30.78-13.803-30.78-30.78v-256.501c0-16.977 13.803-30.78 30.78-30.78h5.13v66.69h-15.39v220.591c0 5.659 4.601 10.26 10.26 10.26h410.401c5.659 0 10.26-4.601 10.26-10.26v-220.591h-102.601v-66.69h92.341c16.977 0 30.78 13.803 30.78 30.78v256.501c0 16.977-13.803 30.78-30.78 30.78zM342.044 321.338h-189.49c-8.689 0-16.031-7.054-16.031-15.39v-41.040h20.52v35.91h179.55v-225.721h-128.25v-20.52c0-7.872-3.030-15.070-7.935-20.52h141.958c8.449 0 14.749 9.474 14.749 17.955v253.936c0 8.481-6.765 15.39-15.070 15.39zM248.518 48.164c-4.826 0-8.753 4.216-8.753 9.442s3.928 9.442 8.753 9.442c4.841 0 8.769-4.233 8.753-9.442s-3.911-9.442-8.753-9.442zM187.823 252.147c-2.901 1.555-6.236 2.501-9.859 2.501h-92.741c-3.752 0-7.23-0.994-10.26-2.661-6.092-3.334-10.26-9.523-10.26-17.073v-180.352c0-11.286 9.234-20.52 20.52-20.52h92.741c5.146 0 9.715 1.972 13.242 5.13 4.2 3.767 6.877 9.234 6.877 15.39v180.352c0 7.663-4.12 13.931-10.26 17.218zM137.484 51.916c-1.074-1.539-2.565-2.677-4.313-3.271-0.833-0.288-1.715-0.481-2.645-0.481-1.026 0-1.988 0.224-2.901 0.561-3.398 1.298-5.852 4.762-5.852 8.865 0 2.918 1.266 5.515 3.207 7.246 0.401 0.353 0.834 0.673 1.282 0.946 1.266 0.769 2.71 1.25 4.265 1.25 0.304 0 0.577-0.064 0.865-0.096 1.78-0.192 3.382-0.946 4.681-2.1 0.144-0.128 0.304-0.257 0.433-0.385 1.7-1.731 2.774-4.152 2.757-6.861 0-2.132-0.673-4.088-1.796-5.675zM177.547 177.697v-97.471h-92.341v153.9h92.341v-56.43zM377.634 64.837c-5.13 15.39-10.26 5.13-10.26 5.13v-12.825c0-5.691 0-17.955 0-17.955 15.39 0 46.17 0 46.17 0s0 0 0 5.13-30.78 5.13-35.91 20.52z" />
<glyph unicode="&#xe621;" d="M439.723 144.786c0-3.671-3.303-6.894-7.070-6.894h-49.329v-34.339c0-11.399-9.459-20.632-21.113-20.632h-211.437c-11.655 0-21.145 9.234-21.145 20.632v34.339h-49.328c-3.736 0-7.037 3.223-7.037 6.894v89.294c0 22.54 19.157 41.217 42.291 41.217h14.107v116.82c-0.032 11.366 9.459 20.6 21.113 20.6h147.969c11.687 0 27.734-6.445 36.135-14.589l33.49-32.656c8.353-8.176 14.957-23.822 14.957-35.221v-54.971h14.108c23.117 0 42.291-18.692 42.291-41.216v-89.294zM355.142 247.834v82.449h-35.253c-11.655 0-21.113 9.234-21.113 20.6v34.371h-140.931v-137.405h197.281zM355.142 110.414v54.971h-197.281v-54.971h197.281zM397.432 247.834c-7.695 0-14.108-6.236-14.108-13.739s6.38-13.739 14.108-13.739 14.108 6.236 14.108 13.739-6.413 13.739-14.108 13.739z" />
<glyph unicode="&#xe622;" d="M221.905 383.476c66.225 0 119.882-53.705 119.882-119.882 0-66.226-53.657-119.947-119.882-119.947s-119.947 53.721-119.947 119.947c0 66.178 53.705 119.882 119.947 119.882zM221.905 179.606c46.331 0 83.924 37.61 83.924 83.988 0 46.33-37.609 83.924-83.924 83.924-46.379 0-83.972-37.61-83.972-83.924 0-46.378 37.609-83.988 83.972-83.988zM292.235 138.004l61.865-61.881c6.509-6.509 15.086-9.731 23.598-9.731s17.089 3.223 23.598 9.731c12.986 13.034 12.986 34.163 0 47.148l-60.021 60.021c-12.521-18.676-29.337-34.259-49.040-45.288zM181.411 231.611c1.138 0 2.276 0.144 3.415 0.465 6.829 1.892 10.837 8.946 8.946 15.775-8.433 30.507 10.629 47.18 11.447 47.87 5.355 4.553 6.092 12.616 1.603 18.019s-12.457 6.22-17.907 1.779c-1.346-1.090-32.864-27.477-19.863-74.497 1.571-5.691 6.733-9.411 12.36-9.411z" />
<glyph unicode="&#xe623;" d="M280.212 435.738c-10.132 0-18.34-8.224-18.34-18.356s8.224-18.356 18.34-18.356c94.874 0 172.064-77.191 172.064-172.080s-77.191-172.064-172.064-172.064c-87.066 0-159.191 65.023-170.477 149.059l12.841-12.857c3.591-3.591 8.288-5.37 12.985-5.37s9.394 1.779 12.986 5.37c7.166 7.166 7.166 18.788 0 25.971l-45.769 45.769c-7.166 7.166-18.788 7.166-25.954 0l-45.77-45.769c-7.166-7.166-7.166-18.788 0-25.971 7.166-7.166 18.788-7.166 25.971 0l15.454 15.454c10.292-105.566 99.538-188.368 207.75-188.368 115.105 0 208.776 93.671 208.776 208.776s-93.671 208.792-208.776 208.792zM211.052 125.339c-4.986 0-9.956 1.892-13.755 5.691-7.599 7.599-7.599 19.927 0 27.51l60.823 60.839v122.976c0 10.741 8.705 19.462 19.446 19.462s19.446-8.705 19.446-19.462v-131.024c0-5.162-2.036-10.099-5.691-13.755l-66.498-66.546c-3.799-3.8-8.785-5.691-13.755-5.691zM418.834 214.971h-20.135c-7.086 0-12.825 5.739-12.825 12.825s5.739 12.825 12.825 12.825h20.135c7.086 0 12.825-5.739 12.825-12.825s-5.739-12.825-12.825-12.825zM370.981 114.438c-3.286 0-6.557 1.25-9.074 3.752l-14.236 14.236c-5.018 5.018-5.018 13.13 0 18.132s13.13 5.018 18.132 0l14.236-14.236c5.018-5.018 5.018-13.13 0-18.132-2.501-2.501-5.788-3.752-9.058-3.752zM270.448 72.788c-7.086 0-12.825 5.739-12.825 12.825v20.151c0 7.086 5.739 12.825 12.825 12.825s12.825-5.739 12.825-12.825v-20.151c0-7.086-5.739-12.825-12.825-12.825zM356.745 301.283c-3.286 0-6.557 1.25-9.074 3.751-5.018 5.018-5.018 13.13 0 18.148l14.236 14.236c5.002 5.018 13.13 5.002 18.132 0s5.018-13.13 0-18.132l-14.236-14.236c-2.501-2.501-5.788-3.752-9.058-3.752z" />
<glyph unicode="&#xe900;" d="M439.716 229.511q0-44.659-17.462-85.309t-46.949-70.137-70.137-46.949-85.31-17.462q-49.239 0-93.611 20.755t-75.576 58.543q-2.004 2.863-1.861 6.44t2.433 5.868l39.219 39.505q2.862 2.577 7.157 2.577 4.581-0.573 6.585-3.435 20.898-27.196 51.243-42.082t64.412-14.886q29.772 0 56.825 11.594t46.805 31.347 31.347 46.805 11.594 56.825-11.594 56.825-31.347 46.805-46.805 31.347-56.825 11.594q-28.055 0-53.819-10.163t-45.804-29.057l39.22-39.505q8.875-8.589 4.008-19.753-4.867-11.45-16.89-11.45h-128.25q-7.442 0-12.882 5.439t-5.439 12.882v128.25q0 12.024 11.45 16.89 11.165 4.866 19.753-4.008l37.215-36.929q30.632 28.913 69.993 44.801t81.445 15.888q44.659 0 85.31-17.462t70.137-46.949 46.949-70.137 17.462-85.31z" horiz-adv-x="440" />
<glyph unicode="&#xe901;" d="M131.113 233.232q-21.184 46.376-21.184 106.208h-73.286v-27.482q0-22.329 27.053-46.376t67.416-32.349zM439.716 311.958v27.482h-73.286q0-59.831-21.185-106.207 40.365 8.302 67.418 32.349t27.053 46.376zM476.358 348.601v-36.642q0-20.325-11.88-40.937t-32.063-37.215-49.524-27.912-61.692-12.739q-12.024-15.458-27.196-27.196-10.878-9.733-15.029-20.755t-4.151-25.622q0-15.458 8.731-26.051t27.911-10.592q21.47 0 38.218-13.026t16.747-32.778v-18.322q0-4.008-2.577-6.585t-6.585-2.577h-238.179q-4.008 0-6.585 2.577t-2.577 6.585v18.322q0 19.752 16.748 32.778t38.218 13.026q19.18 0 27.911 10.592t8.731 26.051q0 14.601-4.151 25.622t-15.030 20.755q-15.172 11.737-27.196 27.196-32.348 1.431-61.692 12.739t-49.525 27.911-32.063 37.215-11.88 40.937v36.642q0 11.45 8.015 19.466t19.466 8.016h82.446v27.482q0 18.894 13.454 32.348t32.348 13.454h164.893q18.894 0 32.349-13.454t13.454-32.348v-27.482h82.447q11.45 0 19.466-8.016t8.015-19.466z" horiz-adv-x="477" />
<glyph unicode="&#xe902;" d="M401.642 401.561q4.866-11.737-4.008-20.039l-141.132-141.132v-212.415q0-12.024-11.165-16.89-3.721-1.431-7.157-1.431-7.729 0-12.882 5.438l-73.286 73.286q-5.439 5.438-5.439 12.882v139.129l-141.132 141.133q-8.874 8.302-4.008 20.039 4.867 11.165 16.89 11.165h366.43q12.024 0 16.89-11.165z" horiz-adv-x="404" />
<glyph unicode="&#xe903;" d="M293.144 229.511q0 30.345-21.47 51.815t-51.815 21.47-51.815-21.47-21.47-51.815 21.47-51.815 51.815-21.47 51.815 21.47 21.47 51.815zM439.716 260.714v-63.553q0-3.435-2.291-6.585t-5.725-3.721l-52.961-8.015q-5.438-15.458-11.165-26.051 10.019-14.314 30.632-39.505 2.863-3.435 2.863-7.157t-2.577-6.585q-7.729-10.592-28.341-30.918t-26.909-20.325q-3.435 0-7.442 2.577l-39.505 30.918q-12.596-6.585-26.051-10.878-4.581-38.933-8.302-53.247-2.004-8.015-10.306-8.015h-63.552q-4.008 0-7.013 2.433t-3.292 6.155l-8.016 52.675q-14.028 4.581-25.764 10.592l-40.364-30.632q-2.862-2.577-7.157-2.577-4.008 0-7.157 3.149-36.071 32.635-47.236 48.094-2.004 2.863-2.004 6.585 0 3.435 2.289 6.585 4.294 6.012 14.6 19.037t15.458 20.183q-7.73 14.314-11.738 28.341l-52.388 7.729q-3.723 0.573-6.011 3.579t-2.289 6.727v63.552q0 3.435 2.289 6.585t5.439 3.721l53.247 8.016q4.008 13.168 11.165 26.337-11.45 16.318-30.632 39.505-2.862 3.435-2.862 6.87 0 2.863 2.577 6.584 7.443 10.306 28.198 30.774t27.053 20.469q3.722 0 7.442-2.863l39.505-30.632q12.596 6.585 26.051 10.878 4.581 38.933 8.302 53.247 2.004 8.016 10.306 8.016h63.552q4.008 0 7.013-2.433t3.293-6.155l8.015-52.675q14.027-4.581 25.764-10.592l40.651 30.632q2.577 2.577 6.87 2.577 3.721 0 7.157-2.863 36.929-34.066 47.236-48.667 2.004-2.29 2.004-6.298 0-3.436-2.291-6.585-4.295-6.011-14.601-19.037t-15.458-20.183q7.442-14.313 11.737-28.055l52.389-8.015q3.721-0.572 6.012-3.578t2.291-6.727z" horiz-adv-x="440" />
<glyph unicode="&#xe904;" d="M513.002 282.758v-227.301q0-18.894-13.454-32.349t-32.349-13.454h-421.395q-18.894 0-32.348 13.454t-13.454 32.349v227.301q12.597-14.027 28.913-24.906 103.632-70.423 142.278-98.765 16.317-12.024 26.481-18.75t27.053-13.741 31.489-7.014h0.573q14.601 0 31.49 7.014t27.053 13.741 26.479 18.75q48.667 35.212 142.565 98.765 16.318 11.165 28.628 24.905zM513.002 366.922q0-22.616-14.027-43.228t-34.925-35.212q-107.638-74.717-133.976-93.038-2.863-2.004-12.167-8.731t-15.458-10.878-14.886-9.304-16.46-7.729-14.314-2.577h-0.572q-6.584 0-14.314 2.577t-16.461 7.729-14.886 9.304-15.459 10.878-12.167 8.731q-26.051 18.322-75.004 52.245t-58.687 40.795q-17.75 12.024-33.493 33.064t-15.745 39.077q0 22.33 11.88 37.216t33.924 14.886h421.395q18.608 0 32.206-13.454t13.598-32.349z" />
<glyph unicode="&#xe905;" d="M476.358 55.457v219.858q-9.161-10.306-19.752-18.894-76.722-58.972-121.952-96.761-14.601-12.31-23.76-19.18t-24.762-13.884-29.344-7.014h-0.572q-13.741 0-29.343 7.014t-24.762 13.884-23.761 19.18q-45.231 37.788-121.953 96.761-10.593 8.589-19.754 18.894v-219.857q0-3.721 2.721-6.44t6.441-2.719h421.395q3.721 0 6.44 2.719t2.719 6.44zM476.358 356.331v7.013t-0.144 3.721-0.858 3.578-1.575 2.577-2.577 2.147-4.008 0.716h-421.395q-3.722 0-6.441-2.719t-2.721-6.441q0-48.094 42.082-81.302 55.251-43.513 114.795-90.749 1.718-1.431 10.019-8.445t13.168-10.735 12.739-9.017 14.457-7.873 12.31-2.577h0.572q5.725 0 12.31 2.577t14.456 7.873 12.739 9.017 13.168 10.735 10.019 8.445q59.544 47.236 114.796 90.749 15.458 12.31 28.77 33.065t13.312 37.645zM513.002 366.922v-311.466q0-18.894-13.454-32.349t-32.349-13.454h-421.395q-18.894 0-32.348 13.454t-13.454 32.349v311.466q0 18.894 13.454 32.349t32.348 13.454h421.395q18.894 0 32.349-13.454t13.454-32.349z" />
<glyph unicode="&#xe906;" d="M503.841 449.368q18.894 0 32.349-13.454t13.455-32.349v-348.108q0-18.894-13.455-32.349t-32.349-13.454h-458.038q-18.894 0-32.348 13.454t-13.454 32.349v348.108q0 18.894 13.454 32.349t32.348 13.454h458.038zM45.804 412.726q-3.723 0-6.441-2.72t-2.721-6.44v-64.125h476.358v64.125q0 3.721-2.719 6.44t-6.44 2.72h-458.038zM503.841 46.296q3.721 0 6.44 2.719t2.719 6.44v174.054h-476.358v-174.054q0-3.721 2.721-6.44t6.441-2.719h458.038zM73.286 82.938v36.644h73.286v-36.644h-73.286zM183.215 82.938v36.644h109.929v-36.644h-109.928z" horiz-adv-x="550" />
<glyph unicode="&#xe907;" d="M476.358 300.793q0-6.298-7.442-13.742l-103.917-101.341 24.62-143.137q0.286-2.004 0.286-5.725 0-6.012-3.006-10.163t-8.731-4.151q-5.438 0-11.45 3.435l-128.537 67.56-128.537-67.56q-6.297-3.435-11.451-3.435-6.011 0-9.017 4.151t-3.006 10.163q0 1.717 0.573 5.725l24.62 143.137-104.204 101.341q-7.157 7.729-7.157 13.741 0 10.592 16.032 13.168l143.708 20.898 64.412 130.255q5.439 11.738 14.028 11.738t14.028-11.738l64.412-130.255 143.709-20.898q16.031-2.577 16.031-13.168z" horiz-adv-x="477" />
<glyph unicode="&#xe908;" d="M325.493 198.594l87.599 85.023-120.808 17.749-54.106 109.356-54.106-109.356-120.808-17.749 87.599-85.023-20.898-120.522 108.212 56.969 107.925-56.969zM476.358 300.793q0-6.298-7.442-13.742l-103.917-101.341 24.62-143.137q0.286-2.004 0.286-5.725 0-14.314-11.737-14.314-5.438 0-11.45 3.435l-128.537 67.56-128.537-67.56q-6.297-3.435-11.451-3.435-6.011 0-9.017 4.151t-3.006 10.163q0 1.717 0.573 5.725l24.62 143.137-104.204 101.341q-7.157 7.729-7.157 13.741 0 10.592 16.032 13.168l143.708 20.898 64.412 130.255q5.439 11.738 14.028 11.738t14.028-11.738l64.412-130.255 143.709-20.898q16.031-2.577 16.031-13.168z" horiz-adv-x="477" />
<glyph unicode="&#xe909;" d="M146.572 128.742v-54.964q0-11.45-8.016-19.466t-19.466-8.015h-91.607q-11.45 0-19.466 8.015t-8.015 19.466v54.964q0 11.45 8.015 19.466t19.466 8.015h91.607q11.451 0 19.466-8.015t8.016-19.466zM146.572 275.314v-54.964q0-11.45-8.016-19.466t-19.466-8.015h-91.607q-11.45 0-19.466 8.015t-8.015 19.466v54.964q0 11.452 8.015 19.467t19.466 8.015h91.607q11.451 0 19.466-8.015t8.016-19.466zM513.002 128.742v-54.964q0-11.45-8.015-19.466t-19.466-8.015h-274.823q-11.451 0-19.466 8.015t-8.016 19.466v54.964q0 11.45 8.016 19.466t19.466 8.015h274.823q11.45 0 19.466-8.015t8.015-19.466zM146.572 421.887v-54.964q0-11.452-8.016-19.467t-19.466-8.016h-91.607q-11.45 0-19.466 8.016t-8.015 19.466v54.964q0 11.451 8.015 19.466t19.466 8.016h91.607q11.451 0 19.466-8.016t8.016-19.466zM513.002 275.314v-54.964q0-11.45-8.015-19.466t-19.466-8.015h-274.823q-11.451 0-19.466 8.015t-8.016 19.466v54.964q0 11.452 8.016 19.467t19.466 8.015h274.823q11.45 0 19.466-8.015t8.015-19.466zM513.002 421.887v-54.964q0-11.452-8.015-19.467t-19.466-8.016h-274.823q-11.451 0-19.466 8.016t-8.016 19.466v54.964q0 11.451 8.016 19.466t19.466 8.016h274.823q11.45 0 19.466-8.016t8.015-19.466z" />
<glyph unicode="&#xe90a;" d="M155.733 339.44h-54.965q-11.451 0-19.466 8.016t-8.016 19.466v91.607q0 11.452 8.016 19.467t19.466 8.016h54.964q11.452 0 19.467-8.016t8.016-19.467v-91.607q0-11.451-8.016-19.466t-19.466-8.016zM302.305 339.44h-54.964q-11.452 0-19.467 8.016t-8.016 19.466v91.607q0 11.452 8.016 19.467t19.466 8.016h54.964q11.45 0 19.466-8.016t8.015-19.467v-91.607q0-11.451-8.015-19.466t-19.466-8.016zM155.733-26.99h-54.965q-11.451 0-19.466 8.015t-8.016 19.466v274.823q0 11.451 8.016 19.466t19.466 8.015h54.964q11.452 0 19.467-8.015t8.016-19.466v-274.823q0-11.45-8.016-19.466t-19.466-8.015zM448.877 339.44h-54.964q-11.45 0-19.466 8.016t-8.015 19.466v91.607q0 11.452 8.015 19.467t19.466 8.016h54.964q11.45 0 19.466-8.016t8.015-19.467v-91.607q0-11.451-8.015-19.466t-19.466-8.016zM302.305-26.99h-54.964q-11.452 0-19.467 8.015t-8.016 19.466v274.823q0 11.451 8.016 19.466t19.466 8.015h54.964q11.45 0 19.466-8.015t8.015-19.466v-274.823q0-11.45-8.015-19.466t-19.466-8.015zM448.877-26.99h-54.964q-11.45 0-19.466 8.015t-8.015 19.466v274.823q0 11.451 8.015 19.466t19.466 8.015h54.964q11.45 0 19.466-8.015t8.015-19.466v-274.823q0-11.45-8.015-19.466t-19.466-8.015z" />
<glyph unicode="&#xe90b;" d="M439.716 101.26v-36.644q0-7.442-5.438-12.882t-12.882-5.438h-403.074q-7.442 0-12.882 5.438t-5.439 12.882v36.644q0 7.442 5.439 12.882t12.882 5.438h403.074q7.442 0 12.882-5.438t5.438-12.882zM439.716 247.833v-36.643q0-7.442-5.438-12.882t-12.882-5.438h-403.074q-7.442 0-12.882 5.438t-5.439 12.882v36.644q0 7.442 5.439 12.882t12.882 5.44h403.074q7.442 0 12.882-5.439t5.438-12.882zM439.716 394.405v-36.643q0-7.443-5.438-12.882t-12.882-5.44h-403.074q-7.442 0-12.882 5.439t-5.439 12.882v36.643q0 7.443 5.439 12.882t12.882 5.438h403.074q7.442 0 12.882-5.438t5.438-12.882z" horiz-adv-x="440" />
<glyph unicode="&#xe90c;" d="M109.93 128.742v-54.964q0-11.45-8.016-19.466t-19.466-8.015h-54.965q-11.45 0-19.466 8.015t-8.015 19.466v54.964q0 11.45 8.015 19.466t19.466 8.015h54.965q11.451 0 19.466-8.015t8.016-19.466zM109.93 275.314v-54.964q0-11.45-8.016-19.466t-19.466-8.015h-54.965q-11.45 0-19.466 8.015t-8.015 19.466v54.964q0 11.452 8.015 19.467t19.466 8.015h54.965q11.451 0 19.466-8.015t8.016-19.466zM109.93 421.887v-54.964q0-11.452-8.016-19.467t-19.466-8.016h-54.965q-11.45 0-19.466 8.016t-8.015 19.466v54.964q0 11.451 8.015 19.466t19.466 8.016h54.965q11.451 0 19.466-8.016t8.016-19.466z" horiz-adv-x="110" />
<glyph unicode="&#xe90d;" d="M109.93 275.314v-54.964q0-11.45-8.016-19.466t-19.466-8.015h-54.965q-11.45 0-19.466 8.015t-8.015 19.466v54.964q0 11.452 8.015 19.467t19.466 8.015h54.965q11.451 0 19.466-8.015t8.016-19.466zM256.501 275.314v-54.964q0-11.45-8.016-19.466t-19.466-8.015h-54.965q-11.452 0-19.467 8.015t-8.016 19.466v54.964q0 11.452 8.016 19.467t19.466 8.015h54.964q11.452 0 19.467-8.015t8.015-19.466zM403.074 275.314v-54.964q0-11.45-8.015-19.466t-19.466-8.015h-54.964q-11.45 0-19.466 8.015t-8.015 19.466v54.964q0 11.452 8.015 19.467t19.466 8.015h54.964q11.45 0 19.466-8.015t8.015-19.466z" horiz-adv-x="404" />
<glyph unicode="&#xe90e;" d="M293.144 174.546q0-7.442-5.438-12.882l-128.25-128.25q-5.439-5.438-12.882-5.438t-12.882 5.438l-128.25 128.25q-5.439 5.438-5.439 12.882t5.439 12.882 12.882 5.438h256.501q7.442 0 12.882-5.438t5.438-12.882zM293.144 284.475q0-7.442-5.438-12.882t-12.882-5.438h-256.501q-7.442 0-12.882 5.438t-5.439 12.882 5.439 12.882l128.25 128.25q5.44 5.439 12.882 5.439t12.882-5.439l128.25-128.25q5.438-5.438 5.438-12.882z" horiz-adv-x="294" />
<glyph unicode="&#xe90f;" d="M179.494 330.279q0-3.722-2.863-6.585l-112.504-112.505 112.504-112.505q2.863-2.863 2.863-6.585t-2.863-6.585l-14.314-14.314q-2.863-2.863-6.585-2.863t-6.585 2.863l-133.404 133.404q-2.863 2.863-2.863 6.585t2.863 6.585l133.404 133.404q2.863 2.863 6.585 2.863t6.585-2.863l14.314-14.314q2.863-2.863 2.863-6.584z" horiz-adv-x="184" />
<glyph unicode="&#xe910;" d="M170.333 211.189q0-3.721-2.863-6.585l-133.404-133.404q-2.863-2.863-6.585-2.863t-6.585 2.863l-14.314 14.314q-2.862 2.863-2.862 6.585t2.862 6.585l112.505 112.505-112.504 112.505q-2.862 2.863-2.862 6.585t2.862 6.585l14.313 14.314q2.863 2.863 6.585 2.863t6.585-2.863l133.404-133.404q2.863-2.863 2.863-6.585z" horiz-adv-x="184" />
<glyph unicode="&#xe911;" d="M307.744 147.063q0-3.721-2.863-6.585l-14.314-14.314q-2.863-2.863-6.585-2.863t-6.585 2.863l-112.505 112.505-112.504-112.505q-2.862-2.863-6.585-2.863t-6.585 2.863l-14.313 14.314q-2.863 2.863-2.863 6.585t2.863 6.585l133.404 133.404q2.863 2.863 6.584 2.863t6.585-2.863l133.404-133.404q2.863-2.863 2.863-6.585z" horiz-adv-x="330" />
<glyph unicode="&#xe912;" d="M307.744 275.314q0-3.721-2.863-6.585l-133.404-133.404q-2.863-2.863-6.584-2.863t-6.585 2.863l-133.404 133.404q-2.863 2.863-2.863 6.584t2.863 6.585l14.313 14.314q2.862 2.863 6.585 2.863t6.585-2.863l112.504-112.505 112.505 112.505q2.863 2.863 6.585 2.863t6.585-2.863l14.314-14.314q2.863-2.863 2.863-6.585z" horiz-adv-x="330" />
<glyph unicode="&#xe913;" d="M416.814 486.012h-64.125v-64.125h64.125v64.125zM480.94 486.012h-32.063v-96.188h-128.25v96.188h-128.25v-96.188h-128.25v96.188h-32.063c-17.723 0-32.063-14.356-32.063-32.063v-448.877c0-17.723 14.34-32.063 32.063-32.063h448.877c17.723 0 32.063 14.34 32.063 32.063v448.877c0 17.707-14.34 32.063-32.063 32.063zM448.877 37.135h-384.752v288.563h384.752v-288.563zM160.313 486.012h-64.125v-64.125h64.125v64.125zM288.563 261.573h-64.125v-64.125h64.125v64.125zM384.752 261.573h-64.125v-64.125h64.125v64.125zM192.375 165.385h-64.125v-64.125h64.125v64.125zM192.375 261.573h-64.125v-64.125h64.125v64.125zM288.563 165.385h-64.125v-64.125h64.125v64.125zM384.752 165.385h-64.125v-64.125h64.125v64.125z" />
</font>
</defs>
</svg>
