<?xml version="1.0" standalone="no"?>
<!DOCTYPE svg PUBLIC "-//W3C//DTD SVG 1.1//EN" "http://www.w3.org/Graphics/SVG/1.1/DTD/svg11.dtd" >
<svg xmlns="http://www.w3.org/2000/svg">
<metadata></metadata>
<defs>
<font id="sunsemibold" horiz-adv-x="1024" >
<font-face units-per-em="2048" ascent="1638" descent="-410" />
<missing-glyph horiz-adv-x="491" />
<glyph horiz-adv-x="2048" />
<glyph horiz-adv-x="2048" />
<glyph unicode="&#xd;" horiz-adv-x="681" />
<glyph unicode=" "  horiz-adv-x="491" />
<glyph unicode="&#x09;" horiz-adv-x="491" />
<glyph unicode="&#xa0;" horiz-adv-x="491" />
<glyph unicode="!" horiz-adv-x="765" d="M309 102q0 70 28 95.5t107 25.5q78 0 106 -24.5t28 -92.5q0 -70 -28 -95t-108 -25q-78 0 -105.5 24.5t-27.5 91.5zM315 1382h258l-38 -1050h-183z" />
<glyph unicode="&#x22;" horiz-adv-x="923" d="M158 1382h207l-23 -528h-160zM551 1382h207l-23 -528h-160z" />
<glyph unicode="#" horiz-adv-x="1040" d="M59 420v135h160l39 332h-199v133h213l43 362h158l-43 -362h246l43 362h158l-43 -362h147v-133h-162l-39 -332h201v-135h-215l-49 -420h-158l47 420h-244l-49 -420h-157l45 420h-142zM377 555h246l36 332h-243z" />
<glyph unicode="$" d="M96 117l62 114q137 -74 288 -73q123 0 189.5 54t66.5 144q0 74 -61 128.5t-148 92t-173.5 81.5t-147.5 124t-61 193q0 129 82.5 219t226.5 117l16 217h125l17 -211q143 -10 276 -96l-59 -111q-123 59 -256 59q-100 0 -154.5 -50t-54.5 -126q0 -78 62.5 -132t150.5 -92 t176 -81t150.5 -122.5t62.5 -192.5q0 -141 -94.5 -239.5t-259.5 -125.5l-17 -225h-125l-16 221q-176 10 -324 113z" />
<glyph unicode="%" horiz-adv-x="1431" d="M111 1075q0 328 301 328q156 0 220 -78t64 -248q0 -326 -301 -325q-160 0 -222 74.5t-62 248.5zM160 33l999 1384l113 -67l-1000 -1385zM274 1079q0 -111 32 -159t97 -48q127 0 127 199q0 109 -29.5 160t-97.5 51q-129 0 -129 -203zM735 303q0 328 303 328 q154 0 218.5 -78t64.5 -248q0 -326 -301 -325q-160 0 -222.5 74.5t-62.5 248.5zM901 307q0 -111 31 -159t96 -48q129 0 129 199q0 109 -30.5 160t-98.5 51q-127 0 -127 -203z" />
<glyph unicode="&#x26;" horiz-adv-x="1413" d="M98 344q0 129 64.5 222t185.5 175q-152 221 -151 344q0 139 99 227.5t282 88.5q158 0 246.5 -70.5t88.5 -189.5q0 -127 -74.5 -213t-236.5 -191q137 -170 326 -348q111 176 110 387h201q0 -281 -174 -512q152 -127 201 -127h65v-131q-53 -25 -135 -24q-70 0 -266 151 q-184 -152 -418 -151q-209 0 -311.5 98t-102.5 264zM303 369q0 -117 64.5 -177.5t181.5 -60.5q133 1 256 107q-213 193 -361 380q-141 -119 -141 -249zM397 1108q0 -86 115 -254q117 84 161 141t44 127q0 63 -39 103.5t-119 40.5q-78 0 -120 -43t-42 -115z" />
<glyph unicode="'" horiz-adv-x="655" d="M236 1382h200l-24 -528h-152z" />
<glyph unicode="(" horiz-adv-x="634" d="M137 549q0 510 271 932l141 -51q-215 -401 -215 -864t215 -877l-141 -49q-270 412 -271 909z" />
<glyph unicode=")" horiz-adv-x="634" d="M86 -311q215 408 215 866q0 467 -215 875l141 51q271 -406 271 -910q0 -512 -271 -929z" />
<glyph unicode="*" d="M113 954l258 119l-258 121l90 162l233 -170l-24 284h200l-20 -282l233 168l90 -162l-258 -119l258 -123l-90 -161l-235 170l20 -285h-198l24 282l-233 -167z" />
<glyph unicode="+" d="M80 532v148h342v369h180v-369h338v-148h-338v-376h-180v376h-342z" />
<glyph unicode="," horiz-adv-x="626" d="M100 -231q84 59 115 101t31 89q0 25 -29 57.5t-29 85.5q0 82 26 110t110 28q76 0 99 -30t23 -106q0 -152 -55 -239.5t-207 -181.5z" />
<glyph unicode="-" horiz-adv-x="481" d="M59 526v160h420v-160h-420z" />
<glyph unicode="." horiz-adv-x="593" d="M184 109q0 80 27 105.5t106 25.5q76 0 101.5 -25.5t25.5 -103.5q0 -76 -25.5 -102.5t-103 -26.5t-104.5 25.5t-27 101.5z" />
<glyph unicode="/" d="M0 -213l817 1665h184l-817 -1665h-184z" />
<glyph unicode="0" d="M72 571q0 332 113.5 473.5t336.5 141.5q150 0 240 -51.5t139 -184.5t49 -364q0 -317 -111.5 -461.5t-334.5 -144.5q-236 0 -334 128t-98 463zM287 586q0 -254 50 -348.5t181 -94.5q119 0 167 96t48 334q0 262 -52 357.5t-171 95.5t-171 -93t-52 -347z" />
<glyph unicode="1" d="M121 999l366 166h175v-993h264v-172h-789v172h297v789l-264 -89z" />
<glyph unicode="2" d="M102 0v152q348 289 449.5 411.5t101.5 251.5q0 96 -60.5 145.5t-160.5 49.5q-113 0 -285 -54l-30 144q225 84 393 84q178 0 281.5 -89t103.5 -257q0 -158 -106.5 -292t-401.5 -366h537v-180h-822z" />
<glyph unicode="3" d="M55 -143l19 127q201 -43 321 -43q150 0 210.5 59t60.5 188q0 121 -60.5 183.5t-199.5 62.5h-148v164h139q119 0 175.5 55.5t56.5 171.5q0 96 -49.5 142.5t-165.5 46.5q-139 0 -283 -51l-31 143q193 78 387 78q190 0 283.5 -91.5t93.5 -246.5q0 -125 -56 -205t-151 -109 q119 -12 185.5 -106t66.5 -219q0 -436 -467 -436q-168 0 -387 86z" />
<glyph unicode="4" d="M49 96v168q219 479 467 901h301v-882h152v-187h-152v-309h-213v309h-555zM233 283h371v702q-246 -432 -371 -702z" />
<glyph unicode="5" d="M59 -145l17 120q233 -39 338 -38q145 0 207.5 58t62.5 200q0 276 -272 276q-127 0 -291 -33l45 727h653v-182h-481l-25 -356q55 14 172 14q211 0 320.5 -111.5t109.5 -312.5q0 -446 -469 -446q-164 0 -387 84z" />
<glyph unicode="6" d="M104 655q0 745 480 746q147 0 319 -74l-20 -125q-162 37 -275 37q-283 0 -295 -506q162 92 291 92q168 0 253 -98.5t85 -280.5q0 -213 -112.5 -338.5t-301.5 -125.5q-109 0 -183.5 28.5t-130.5 102t-83 207t-27 335.5zM317 580q0 -233 54.5 -336t167.5 -103 q192 1 192 277q0 125 -46 183t-148 58q-94 0 -220 -71v-8z" />
<glyph unicode="7" d="M80 983v182h870v-164l-276 -585q-160 -338 -348 -645l-146 55l518 1157h-618z" />
<glyph unicode="8" d="M76 330q0 121 65.5 207t190.5 157q-227 135 -228 357q0 158 110 255t310 97q393 0 394 -330q0 -113 -60.5 -192.5t-187.5 -153.5q145 -74 210.5 -159t65.5 -216q0 -166 -112.5 -269t-339.5 -103q-213 0 -315.5 93t-102.5 257zM285 352q0 -104 59 -161.5t176 -57.5 q98 0 158.5 55.5t60.5 141.5q0 92 -61.5 155.5t-196.5 128.5q-197 -121 -196 -262zM313 1067q0 -84 46.5 -144.5t150.5 -115.5q106 59 153.5 113t47.5 124q0 106 -49.5 156.5t-159.5 50.5q-88 0 -138.5 -50t-50.5 -134z" />
<glyph unicode="9" d="M82 721q0 213 112.5 339t303.5 126q109 0 182.5 -29t130.5 -102.5t84 -207.5t27 -335q0 -745 -488 -745q-160 0 -342 77l17 123q188 -39 301 -39q293 0 301 506q-162 -92 -291 -92q-168 0 -253 98.5t-85 280.5zM293 750q0 -125 46 -183.5t150 -58.5q99 0 218 72v8 q0 233 -53.5 335.5t-166.5 102.5q-195 0 -194 -276z" />
<glyph unicode=":" horiz-adv-x="626" d="M213 111q0 68 28.5 94t98.5 26t97.5 -25t27.5 -91q0 -70 -27.5 -95.5t-97.5 -25.5t-98.5 25.5t-28.5 91.5zM213 903q0 68 28.5 94.5t98.5 26.5t97.5 -25.5t27.5 -93t-27.5 -93.5t-97.5 -26t-98.5 26t-28.5 91z" />
<glyph unicode=";" horiz-adv-x="626" d="M119 -242q156 109 155 207q0 25 -31.5 53.5t-31.5 81.5q0 70 27.5 96.5t99.5 26.5q68 0 96.5 -26.5t28.5 -94.5q0 -125 -62.5 -226t-199.5 -193zM211 903q0 68 28.5 94.5t98.5 26.5q68 0 96.5 -25.5t28.5 -93t-28.5 -93.5t-98.5 -26q-68 0 -96.5 26t-28.5 91z" />
<glyph unicode="&#x3c;" d="M68 508v137l784 406l90 -148l-653 -325l651 -324l-90 -152z" />
<glyph unicode="=" d="M96 313v144h834v-144h-834zM96 698v144h834v-144h-834z" />
<glyph unicode="&#x3e;" d="M84 250l651 325l-649 324l90 154l782 -408v-135l-784 -408z" />
<glyph unicode="?" d="M145 1315q182 86 361 86q195 0 293 -88t98 -242q0 -84 -33 -151.5t-79 -114.5t-93 -92t-82 -107.5t-37 -136.5l-2 -137h-182l-6 143q-6 82 20.5 151.5t68.5 119t84 93.5t72.5 95t30.5 104q0 88 -55 140.5t-158 52.5q-123 0 -245 -47zM346 102q0 70 27.5 95.5t107.5 25.5 q78 0 104.5 -25.5t26.5 -95t-26.5 -93t-106.5 -23.5t-106.5 24.5t-26.5 91.5z" />
<glyph unicode="@" horiz-adv-x="2078" d="M141 432q0 285 119 516.5t352.5 371.5t544.5 140q356 0 532.5 -167t176.5 -462q0 -307 -163 -488t-476 -181h-99l-2 170q-160 -180 -309 -180q-244 0 -244 315q0 272 132.5 417.5t361.5 145.5q164 0 305 -33l-76 -678q178 0 270.5 131.5t92.5 337.5q0 520 -535 521 q-188 0 -340.5 -74t-246 -194.5t-143.5 -267t-50 -302.5q0 -315 162 -487t483 -172q113 0 256.5 29.5t249.5 74.5l37 -127q-285 -133 -588 -133q-391 0 -597 200.5t-206 575.5zM768 502q0 -100 24.5 -144.5t81.5 -44.5q59 0 116 41t128 142l43 370q-72 14 -117 15 q-133 0 -204.5 -100.5t-71.5 -278.5z" />
<glyph unicode="A" horiz-adv-x="1132" d="M27 0q164 694 393 1382h285q231 -677 401 -1382h-238q-61 258 -69 289h-494q-35 -137 -63 -289h-215zM342 455h420q-115 414 -217 725q-119 -393 -203 -725z" />
<glyph unicode="B" horiz-adv-x="1165" d="M170 0v1382h418q201 0 301 -87t100 -232q0 -221 -196 -307q115 -18 191.5 -106.5t76.5 -219.5q0 -195 -138.5 -314.5t-412.5 -119.5q-59 0 -173 2t-167 2zM387 166q70 -8 164 -8q141 0 208.5 68.5t67.5 185.5q0 109 -70.5 173t-221.5 64h-148v-483zM387 803h125 q129 0 190.5 65.5t61.5 161.5q0 88 -55.5 141.5t-165.5 53.5h-156v-422z" />
<glyph unicode="C" horiz-adv-x="1064" d="M92 666q0 354 140.5 545.5t390.5 191.5q244 0 360 -227l-106 -95q-90 143 -234 144q-152 0 -235.5 -142.5t-83.5 -377.5q0 -545 315 -545q150 0 272 143l99 -108q-150 -215 -412 -215q-248 0 -377 173t-129 513z" />
<glyph unicode="D" horiz-adv-x="1196" d="M170 0v1382q61 0 176 1t174 1q158 0 273.5 -51t181 -143t97.5 -207t32 -256q0 -352 -160 -542.5t-483 -190.5q-49 0 -148.5 3t-142.5 3zM391 170q78 -4 117 -4h1q363 0 363 534q0 518 -374 519q-70 0 -107 -2v-1047z" />
<glyph unicode="E" horiz-adv-x="964" d="M170 0v1382h686v-172h-465v-419h383v-166h-383v-451h473v-174h-694z" />
<glyph unicode="F" horiz-adv-x="919" d="M170 0v1382h674v-170h-453v-434h395v-168h-395v-610h-221z" />
<glyph unicode="G" horiz-adv-x="1169" d="M92 670q0 350 151.5 541.5t391.5 191.5q227 0 375 -189l-97 -94q-139 106 -266 107q-152 0 -237.5 -133t-85.5 -385q0 -551 297 -551q113 0 184 59v391h-182v164h399v-633q-181 -159 -437 -159h-3q-236 0 -363 172t-127 518z" />
<glyph unicode="H" horiz-adv-x="1347" d="M170 0v1382h221v-557h565v557h222v-1382h-222v637h-565v-637h-221z" />
<glyph unicode="I" horiz-adv-x="561" d="M170 0v1382h221v-1382h-221z" />
<glyph unicode="J" horiz-adv-x="573" d="M70 -266q68 80 90 175t22 247v1226h221v-1239q0 -170 -50 -289.5t-175 -211.5z" />
<glyph unicode="K" horiz-adv-x="1089" d="M170 0v1382h221v-600l379 600h248l-432 -624l463 -758h-258l-400 657v-657h-221z" />
<glyph unicode="L" horiz-adv-x="862" d="M170 0v1382h221v-1212h436v-170h-657z" />
<glyph unicode="M" horiz-adv-x="1730" d="M143 0q20 737 103 1382h286l334 -1015h2l336 1015h275q90 -755 106 -1382h-231q-12 586 -68 1102h-2l-352 -1102h-176l-350 1102h-3q-39 -496 -49 -1102h-211z" />
<glyph unicode="N" horiz-adv-x="1333" d="M170 0v1382h276l531 -948v948h186v-1382h-225l-582 1069v-1069h-186z" />
<glyph unicode="O" horiz-adv-x="1296" d="M92 668q0 371 154.5 553t419 182t401.5 -163t137 -523q0 -373 -154.5 -555t-418.5 -182t-401.5 161.5t-137.5 526.5zM326 711q0 -299 80.5 -429t246.5 -130q318 0 318 526q0 295 -81 425t-247 130q-317 0 -317 -522z" />
<glyph unicode="P" horiz-adv-x="1081" d="M170 0v1382q51 0 166 1t188 1h2q504 0 504 -421q0 -215 -138 -345.5t-437 -130.5h-64v-487h-221zM391 653h101q154 0 230.5 75t76.5 212q0 139 -74 210t-238 71h-96v-568z" />
<glyph unicode="Q" horiz-adv-x="1296" d="M92 668q0 371 154.5 553t419 182t401.5 -163t137 -523q0 -319 -115.5 -499.5t-318.5 -221.5q55 -68 120 -92q61 -23 120 -23h10q63 2 128 4h8q61 0 130 -25q73 -28 139 -98l-71 -90q-74 43 -162 52q-58 7 -108 7q-26 0 -50 -2q-28 -2 -55 -2q-44 0 -88 5 q-72 8 -139.5 68.5t-124.5 181.5h-6q-260 0 -393 162q-136 165 -136 524zM326 711q0 -299 80.5 -429t246.5 -130q318 0 318 526q0 295 -81 425t-247 130q-317 0 -317 -522z" />
<glyph unicode="R" horiz-adv-x="1112" d="M170 0v1382q233 4 383 4q231 0 349 -96t118 -262q0 -311 -322 -379l396 -649h-258l-353 604h-92v-604h-221zM391 766h135q127 0 194.5 61.5t67.5 176.5q0 111 -64.5 167t-211.5 56h-121v-461z" />
<glyph unicode="S" horiz-adv-x="1015" d="M82 111l59 118q164 -82 297 -82q125 0 196 55.5t71 153.5q0 82 -62.5 142.5t-152 101.5t-178.5 88t-151.5 132t-62.5 206q0 168 118 271.5t304 103.5q193 0 350 -103l-53 -118q-135 57 -266 57q-106 0 -163.5 -51t-57.5 -131q0 -82 63.5 -142.5t154.5 -102.5t183 -90 t155.5 -133t63.5 -204q0 -176 -129 -288.5t-346 -112.5q-203 0 -393 129z" />
<glyph unicode="T" horiz-adv-x="954" d="M31 1208v174h893v-174h-336v-1208h-221v1208h-336z" />
<glyph unicode="U" horiz-adv-x="1335" d="M168 475v907h221v-880q0 -195 65.5 -276t215.5 -81q139 0 209.5 78t70.5 264v895h217v-878q0 -268 -138 -396t-384 -128q-242 0 -359.5 117.5t-117.5 377.5z" />
<glyph unicode="V" horiz-adv-x="1093" d="M23 1382h241q74 -354 309 -1155q168 545 271 1155h219q-135 -725 -377 -1382h-262q-250 702 -401 1382z" />
<glyph unicode="W" horiz-adv-x="1759" d="M43 1382h238q47 -244 256 -1103h2l30 161l222 942h210l232 -929l35 -174h4q162 696 235 1103h211q-158 -754 -350 -1382h-242l-208 823l-44 207h-2l-38 -209l-195 -821h-244q-199 643 -352 1382z" />
<glyph unicode="X" horiz-adv-x="1118" d="M39 0q143 344 379 723q-197 332 -344 659h241q135 -303 252 -495q129 205 252 495h217q-135 -322 -346 -647q225 -370 385 -735h-246q-152 324 -290 553q-143 -238 -279 -553h-221z" />
<glyph unicode="Y" horiz-adv-x="995" d="M-6 1382h246q135 -340 276 -591q125 211 260 591h225q-199 -496 -393 -792v-590h-221v590q-211 338 -393 792z" />
<glyph unicode="Z" horiz-adv-x="993" d="M70 0v150l563 1056h-539v176h803v-155l-559 -1049h590v-178h-858z" />
<glyph unicode="[" horiz-adv-x="729" d="M217 -354v1867h383v-124h-190v-1620h190v-123h-383z" />
<glyph unicode="\" d="M23 1452h182l819 -1665h-182z" />
<glyph unicode="]" horiz-adv-x="729" d="M129 -231h190v1620h-190v124h383v-1867h-383v123z" />
<glyph unicode="^" d="M68 807l358 645h174l358 -645l-165 -62l-281 533l-283 -533z" />
<glyph unicode="_" d="M0 -197h1024v-157h-1024v157z" />
<glyph unicode="`" horiz-adv-x="643" d="M90 1389l143 90l269 -271l-96 -65z" />
<glyph unicode="a" horiz-adv-x="1028" d="M72 262q0 162 130 255t390 93h74v92q0 92 -50.5 137.5t-160.5 45.5q-137 0 -299 -60l-31 129q190 84 387 84q184 0 273 -82t89 -227v-729h-163l-17 111q-152 -131 -315 -131q-150 0 -228.5 73.5t-78.5 208.5zM281 293q0 -74 40.5 -117t116.5 -43q109 1 228 103v241h-88 q-166 0 -231.5 -48t-65.5 -136z" />
<glyph unicode="b" horiz-adv-x="1077" d="M154 16v1436h211v-524q140 112 266 112h2q166 0 260 -138t94 -353q0 -291 -140 -430t-380 -139q-133 0 -313 36zM365 156q59 -23 141 -23q119 0 191.5 97.5t72.5 283.5q0 170 -51 266.5t-144 96.5q-96 0 -210 -103v-618z" />
<glyph unicode="c" horiz-adv-x="870" d="M86 496q0 248 116.5 396t309.5 148q172 0 283 -127l-76 -108q-86 76 -187 76q-109 0 -168 -93.5t-59 -265.5q0 -379 217 -379q125 0 228 97l69 -109q-138 -149 -335 -149h-3q-395 0 -395 514z" />
<glyph unicode="d" horiz-adv-x="1077" d="M90 471q0 291 137.5 430t356.5 139q68 0 129 -8v420h211v-1452h-172l-19 109q-154 -129 -293 -129q-164 0 -257 137t-93 354zM307 504q0 -170 52.5 -265.5t142.5 -95.5q92 1 211 103v618q-72 23 -146 23q-119 0 -189.5 -96.5t-70.5 -286.5z" />
<glyph unicode="e" horiz-adv-x="1019" d="M86 481q0 268 115.5 413.5t324.5 145.5q387 0 387 -485q0 -38 -2 -80h-608v-18q0 -313 256 -314q154 0 313 60l35 -123q-197 -100 -393 -100q-428 0 -428 501zM303 610h404v6q0 279 -193 279q-94 0 -149.5 -80t-61.5 -205z" />
<glyph unicode="f" horiz-adv-x="612" d="M29 870v150h147v141q0 311 273 312q120 -1 231 -64l-37 -121q-78 29 -131 29q-125 0 -125 -148v-149h205v-150h-205v-870h-211v870h-147z" />
<glyph unicode="g" horiz-adv-x="1081" d="M90 494q0 272 142.5 409t367.5 137q133 0 324 -39v-966q0 -227 -108.5 -315.5t-305.5 -88.5q-160 0 -340 72l18 119q180 -32 293 -32q71 0 116 12q116 34 116 192v135q-141 -109 -275 -109q-160 0 -254 135.5t-94 338.5zM307 530q0 -166 51.5 -259t145.5 -93 q92 1 209 103v581q-66 25 -148 25q-115 0 -186.5 -94.5t-71.5 -262.5z" />
<glyph unicode="h" horiz-adv-x="1112" d="M154 0v1452h211v-530q140 119 291 119l2 -1q152 0 230.5 -107t78.5 -349q0 -51 -4.5 -257t-4.5 -327h-208q0 111 2 299t2 240q0 186 -41 258.5t-129 72.5q-94 0 -219 -102v-768h-211z" />
<glyph unicode="i" horiz-adv-x="518" d="M131 1300.5q0 67.5 25.5 92t103.5 24.5t102.5 -23.5t24.5 -93.5q0 -66 -25.5 -90t-101.5 -24q-78 0 -103.5 23.5t-25.5 91zM154 0v1020h211v-1020h-211z" />
<glyph unicode="j" horiz-adv-x="518" d="M20 -303q133 154 134 342v981h211v-934q0 -150 -49.5 -255t-161.5 -200zM131 1300.5q0 67.5 25.5 92t103.5 24.5t102.5 -23.5t24.5 -93.5q0 -66 -25.5 -90t-101.5 -24q-78 0 -103.5 23.5t-25.5 91z" />
<glyph unicode="k" horiz-adv-x="962" d="M154 0v1452h211v-834l274 402h252l-336 -426l387 -594h-250l-327 522v-522h-211z" />
<glyph unicode="l" horiz-adv-x="557" d="M154 188v1264h211v-1182q0 -88 14 -112.5t59 -24.5q10 0 32 1t30 1l8 -127q-71 -22 -160 -22h-8q-100 0 -143 42t-43 160z" />
<glyph unicode="m" horiz-adv-x="1673" d="M154 0v1020h174l16 -115q145 135 307 135q90 0 151.5 -44t92.5 -111q175 155 334 155h2q145 0 221 -108t76 -348q0 -57 -3 -262t-3 -322h-211q0 104 3 293.5t3 247.5q0 182 -39 255.5t-119 73.5q-90 0 -227 -114q12 -74 12 -168v-588h-209v541q0 180 -39 254.5t-116 74.5 q-88 0 -215 -102v-768h-211z" />
<glyph unicode="n" horiz-adv-x="1112" d="M154 0v1020h174l16 -115q150 135 315 135q154 0 231 -107t77 -349q0 -57 -4.5 -262t-4.5 -322h-208q0 104 2 293.5t2 247.5q0 184 -41 256.5t-127 72.5q-94 0 -221 -102v-768h-211z" />
<glyph unicode="o" horiz-adv-x="1075" d="M86 489q0 274 125 412.5t348 138.5h2q428 0 428 -505q0 -274 -126 -414.5t-347 -140.5q-430 0 -430 509zM303 535q0 -219 57.5 -308.5t180.5 -89.5q231 0 231 350q0 217 -57.5 306.5t-179.5 89.5q-231 0 -232 -348z" />
<glyph unicode="p" horiz-adv-x="1077" d="M154 -354v1374h170l20 -109q150 129 289 129q168 0 261 -137t93 -352q0 -289 -137 -430t-365 -141q-70 0 -120 8v-342h-211zM365 158q61 -25 141 -25q119 0 191.5 97.5t72.5 285.5q0 168 -52 264.5t-143 96.5q-92 0 -210 -103v-616z" />
<glyph unicode="q" horiz-adv-x="1077" d="M90 471q0 289 140.5 429t381.5 140q145 0 312 -39v-1355h-211v446q-136 -112 -267 -112h-2q-166 0 -260 138t-94 353zM307 504q0 -168 52.5 -264.5t142.5 -96.5q94 1 211 103v618q-57 23 -142 23q-121 0 -192.5 -97.5t-71.5 -285.5z" />
<glyph unicode="r" horiz-adv-x="731" d="M154 0v1020h174l18 -172q82 104 139.5 147t114.5 43h4l86 -22l-24 -189q-55 14 -86 15q-45 0 -92.5 -38t-122.5 -132v-672h-211z" />
<glyph unicode="s" horiz-adv-x="835" d="M72 59l20 113q162 -39 244 -39q104 0 155.5 38t51.5 97q0 61 -39 98t-158 83q-150 55 -210 120.5t-60 171.5q0 133 96 215t256 82q137 0 262 -65l-24 -113q-106 31 -197 31q-84 0 -129 -36t-45 -91t41 -89t162 -79q143 -51 205.5 -121.5t62.5 -181.5q0 -137 -105.5 -224 t-287.5 -87q-158 0 -301 77z" />
<glyph unicode="t" horiz-adv-x="718" d="M29 870v150h153q31 139 51 295h154v-295h250v-150h-250v-567q0 -92 22.5 -127t84 -35t149.5 29l23 -125q-127 -63 -244 -63q-133 0 -189.5 61t-56.5 209v618h-147z" />
<glyph unicode="u" horiz-adv-x="1112" d="M147 438q0 55 3.5 260t3.5 322h211q0 -104 -3.5 -292.5t-3.5 -248.5q0 -184 41 -256.5t127 -72.5q90 0 222 102v768h210v-1020h-172l-16 115q-152 -135 -315 -135q-154 0 -231 107.5t-77 350.5z" />
<glyph unicode="v" horiz-adv-x="962" d="M33 1020h227l195 -627l43 -188q152 418 202 815h222q-100 -565 -316 -1020h-260z" />
<glyph unicode="w" horiz-adv-x="1519" d="M33 1020h227l158 -606l41 -176h2l31 153l149 629h233l177 -633l34 -147h2q131 463 170 780h207q-72 -479 -276 -1020h-240l-184 666l-21 108h-2l-12 -102l-164 -672h-248z" />
<glyph unicode="x" horiz-adv-x="978" d="M41 0l307 537l-260 483h238l174 -354q96 168 166 354h219l-262 -459l311 -561h-244l-217 416q-139 -270 -203 -416h-229z" />
<glyph unicode="y" horiz-adv-x="962" d="M8 -205q41 -6 96 -6q100 0 162 55q74 68 74 152q0 78 -57 235l-254 789h227l182 -590q53 -162 53 -249q0 -17 -2 -31q150 399 209 870h220q-59 -326 -137.5 -575.5t-155 -400t-163.5 -245t-161 -129.5t-151 -35q-57 0 -142 35v125z" />
<glyph unicode="z" horiz-adv-x="819" d="M74 0v129l395 733h-379l8 158h617v-127l-398 -731h428l-10 -162h-661z" />
<glyph unicode="{" horiz-adv-x="794" d="M98 512v156h52q72 0 102.5 41t30.5 125v413q0 266 268 266h86v-127h-57q-115 0 -115 -139v-364q0 -254 -176 -291q176 -41 176 -297v-383q0 -76 24.5 -107.5t90.5 -31.5h57v-127h-92q-145 0 -203.5 66.5t-58.5 201.5v426q0 172 -133 172h-52z" />
<glyph unicode="|" horiz-adv-x="516" d="M164 -354v1896h186v-1896h-186z" />
<glyph unicode="}" horiz-adv-x="794" d="M156 -227h57q115 0 115 139v385q0 254 176 291q-176 41 -176 297v362q0 74 -26 106.5t-89 32.5h-57v127h92q145 0 203.5 -66.5t58.5 -201.5v-405q0 -86 29.5 -129t103.5 -43h51v-156h-51q-74 0 -103.5 -41t-29.5 -125v-434q0 -266 -268 -266h-86v127z" />
<glyph unicode="~" d="M53 930v35q0 139 77 224t206 85q78 0 135 -34t84 -75t62.5 -74.5t72.5 -33.5q106 0 107 182h161v-37q0 -137 -76.5 -223t-207.5 -86q-78 0 -136.5 34t-85 74.5t-61.5 74.5t-72 34q-106 0 -106 -180h-160z" />
<glyph unicode="&#xa1;" horiz-adv-x="765" d="M186 -213l39 1073h166l39 -1073h-244zM186 1069q0 68 27 92.5t96.5 24.5t97 -24.5t27.5 -92.5q0 -66 -27.5 -91.5t-97 -25.5t-96.5 24.5t-27 92.5z" />
<glyph unicode="&#xa2;" d="M121 678q0 201 95 328t255 159l16 221h129l19 -219q127 -18 223 -114l-74 -109q-98 78 -196 78q-109 0 -178.5 -83t-69.5 -232q0 -172 65.5 -255t176.5 -83q123 0 235 94l68 -109q-115 -106 -250 -129l-19 -231h-129l-14 221q-352 37 -352 463z" />
<glyph unicode="&#xa3;" d="M68 625v143h151q-37 162 -37 242q0 197 103.5 293t283.5 96q178 0 332 -82l-24 -117q-139 39 -250 39q-125 0 -174.5 -54.5t-49.5 -160.5q0 -51 39 -256h355v-143h-334q16 -152 -11.5 -256.5t-119.5 -198.5h602v-170h-850v141q109 111 143.5 219.5t16.5 264.5h-176z" />
<glyph unicode="&#xa4;" d="M63 117l140 147q-66 92 -66 258q0 174 78 275l-152 161l140 89l131 -170q84 49 196 49q98 0 168 -41l123 162l142 -89l-142 -151q68 -90 68 -250q0 -174 -80 -276l154 -164l-142 -90l-129 172q-90 -51 -198 -52q-102 0 -168 41l-121 -161zM319 557q0 -158 46.5 -222.5 t148.5 -64.5q186 0 186 250q0 156 -46 219.5t-148 63.5q-186 0 -187 -246z" />
<glyph unicode="&#xa5;" d="M20 1382h236q139 -334 272 -546q123 190 258 546h220q-209 -451 -390 -712v-39h281v-142h-281v-159h281v-142h-281v-188h-208v188h-281v142h281v159h-281v142h281v39q-199 299 -388 712z" />
<glyph unicode="&#xa6;" horiz-adv-x="516" d="M168 -354v762h182v-762h-182zM168 748v800h182v-800h-182z" />
<glyph unicode="&#xa7;" horiz-adv-x="1032" d="M84 743q0 240 162 446t358 206q123 0 217 -60l-39 -123q-86 27 -176 27q-86 0 -119.5 -39t-33.5 -117q0 -59 52 -121.5t127 -125t149.5 -135t127 -180t52.5 -232.5q0 -244 -171.5 -446.5t-355.5 -202.5q-125 0 -237 69l45 121q96 -33 190 -33q90 0 125 38t35 112 q0 63 -52.5 127.5t-127 127t-149.5 135.5t-127 178.5t-52 227.5zM262 782q0 -90 40 -171t96.5 -135t121 -114.5t112.5 -106.5t70.5 -112.5t-2.5 -134.5q80 111 80 250q0 106 -55 198.5t-129 158t-143.5 127t-103.5 133t-5 149.5q-82 -102 -82 -242z" />
<glyph unicode="&#xa8;" horiz-adv-x="854" d="M119 1309q0 57 24.5 77.5t85.5 20.5q59 0 82 -20.5t23 -77.5q0 -55 -23.5 -78t-81.5 -23q-61 0 -85.5 22.5t-24.5 78.5zM520 1308.5q0 57.5 22.5 78t84.5 20.5q59 0 82.5 -20.5t23.5 -78t-23.5 -79t-83 -21.5t-83 21.5t-23.5 79z" />
<glyph unicode="&#xa9;" horiz-adv-x="1581" d="M82 690q0 297 208 502t507 205q311 0 511.5 -200t200.5 -505q0 -299 -207.5 -504.5t-508.5 -205.5q-311 0 -511 197.5t-200 510.5zM252 690q0 -242 153.5 -401.5t389.5 -159.5q233 0 388.5 160.5t155.5 400.5q0 244 -153.5 401.5t-390.5 157.5q-231 0 -387 -160.5 t-156 -398.5zM477 684q0 186 90 297t242 111q129 0 223 -99l-63 -84q-68 53 -144 54q-78 0 -123 -69t-45 -187q0 -276 162 -277q94 0 176 68l58 -88q-117 -111 -267 -111q-309 0 -309 385z" />
<glyph unicode="&#xaa;" horiz-adv-x="940" d="M123 897q0 113 94 181.5t289 68.5h65v61q0 125 -159 125q-98 0 -226 -41l-24 109q152 66 305 65q152 0 215 -62.5t63 -180.5v-529h-139l-12 82q-127 -96 -242 -96q-102 0 -165.5 61.5t-63.5 155.5zM143 424v125h615v-125h-615zM295 911q0 -47 28.5 -76.5t79.5 -29.5 q49 -1 168 67v166h-63q-123 0 -168 -33.5t-45 -93.5z" />
<glyph unicode="&#xab;" horiz-adv-x="1030" d="M88 590l260 399l137 -51l-188 -348l188 -348l-139 -49zM502 590l254 393l137 -49l-182 -344l182 -342l-137 -49z" />
<glyph unicode="&#xac;" d="M72 506v143h848v-418h-177v275h-671z" />
<glyph unicode="&#xad;" horiz-adv-x="481" d="M59 526v160h420v-160h-420z" />
<glyph unicode="&#xae;" horiz-adv-x="1161" d="M100 991.5q0 194.5 141.5 330.5t340 136t338 -135t139.5 -332q0 -193 -141.5 -329t-340 -136t-338 135.5t-139.5 330zM221 993.5q0 -147.5 105.5 -254t253 -106.5t252 105.5t104.5 253t-104.5 254t-252 106.5t-253 -105.5t-105.5 -253zM422 758v481q33 0 83 1t68 1 q90 0 137.5 -36.5t47.5 -102.5q0 -94 -105 -137l117 -207h-129l-94 190h-17v-190h-108zM530 1028h41q35 0 54.5 18.5t19.5 45.5q0 68 -80 67h-35v-131z" />
<glyph unicode="&#xaf;" horiz-adv-x="690" d="M27 1233v145h626v-145h-626z" />
<glyph unicode="&#xb0;" horiz-adv-x="921" d="M166 1141q0 283 303 282q152 0 221.5 -65.5t69.5 -210.5q0 -139 -76 -211t-219 -72q-156 0 -227.5 65.5t-71.5 211.5zM332 1145q0 -84 27.5 -118t105.5 -34q72 0 100.5 36t28.5 116q0 88 -27.5 119.5t-101.5 31.5t-103.5 -34.5t-29.5 -116.5z" />
<glyph unicode="&#xb1;" d="M82 0v150h858v-150h-858zM82 629v149h346v348h168v-348h344v-149h-344v-357h-168v357h-346z" />
<glyph unicode="&#xb2;" d="M281 772v115q178 111 232 170t54 123q0 51 -21.5 73.5t-74.5 22.5q-74 0 -156 -37l-22 107q125 57 239 57q113 0 171.5 -51.5t58.5 -145.5q0 -90 -57.5 -154.5t-190.5 -152.5h283v-127h-516z" />
<glyph unicode="&#xb3;" d="M258 811l23 88q113 -35 204 -35q119 0 119 82q0 45 -27.5 65.5t-103.5 20.5h-88v103h84q106 0 106 82q0 41 -21.5 58t-76.5 17q-88 0 -153 -24l-23 86q102 49 227 49q221 0 222 -162q0 -94 -93 -141q131 -19 131 -144q0 -92 -71.5 -147t-204.5 -55q-125 0 -254 57z" />
<glyph unicode="&#xb4;" horiz-adv-x="643" d="M80 1208l276 273l142 -90l-326 -248z" />
<glyph unicode="&#xb6;" horiz-adv-x="1294" d="M123 983q0 178 113.5 288.5t312.5 110.5h565v-1595h-168v1458h-198v-1458h-168v807q-195 -25 -326 86t-131 303z" />
<glyph unicode="&#xb7;" horiz-adv-x="595" d="M184 647q0 66 30 92.5t99.5 26.5t97 -25.5t27.5 -91.5q0 -70 -27.5 -94.5t-99.5 -24.5q-70 0 -98.5 25t-28.5 92z" />
<glyph unicode="&#xb8;" horiz-adv-x="632" d="M125 -315q63 57 84.5 106t11.5 121h182q23 -170 -159 -283z" />
<glyph unicode="&#xb9;" d="M276 1268l224 114h131v-479h139v-131h-473v131h162v324l-154 -60z" />
<glyph unicode="&#xba;" horiz-adv-x="890" d="M92 1063q0 199 99.5 300t254.5 101q152 0 245 -92t93 -282q0 -199 -99 -303.5t-261 -104.5q-332 0 -332 381zM133 424v125h615v-125h-615zM270 1096q0 -158 42 -222.5t128 -64.5q164 0 164 244q0 154 -41 218t-127 64q-166 0 -166 -239z" />
<glyph unicode="&#xbb;" horiz-adv-x="1030" d="M145 248l183 342l-183 344l138 47l256 -391l-256 -391zM549 242l186 348l-186 348l139 51l258 -399l-260 -400z" />
<glyph unicode="&#xbc;" horiz-adv-x="1431" d="M113 1268l223 114h131v-479h139v-131h-473v131h162v324l-154 -60zM160 33l999 1384l113 -67l-1000 -1385zM727 106v103q121 219 266 401h219v-381h109v-123h-109v-106h-168v106h-317zM866 227h181v275q-106 -131 -181 -275z" />
<glyph unicode="&#xbd;" horiz-adv-x="1431" d="M113 1268l223 114h131v-479h139v-131h-473v131h162v324l-154 -60zM160 33l999 1384l113 -67l-1000 -1385zM803 0v115q178 111 232.5 170t54.5 123q0 51 -21.5 73.5t-75.5 22.5q-76 0 -153 -37l-23 106q125 57 237.5 57.5t172 -51t59.5 -145.5q0 -90 -58.5 -153.5 t-191.5 -153.5h283v-127h-516z" />
<glyph unicode="&#xbe;" horiz-adv-x="1431" d="M80 811l22 88q113 -35 205 -35q119 0 119 82q0 45 -27.5 65.5t-103.5 20.5h-88v103h84q59 0 82.5 19.5t23.5 62.5q0 41 -20.5 58t-77.5 17q-90 0 -154 -24l-22 86q102 49 227 49q221 0 221 -162q0 -94 -92 -141q131 -19 131 -144q0 -94 -70.5 -148t-205.5 -54 q-125 0 -254 57zM160 33l999 1384l113 -67l-1000 -1385zM727 106v103q121 219 266 401h219v-381h109v-123h-109v-106h-168v106h-317zM866 227h181v275q-106 -131 -181 -275z" />
<glyph unicode="&#xbf;" d="M125 104q0 84 32.5 153t81 119t95.5 97t83 110.5t38 137.5l6 137h160l8 -123q10 -104 -30 -196.5t-93 -148.5t-99.5 -126.5t-46.5 -134.5q0 -86 55.5 -138t157.5 -52q125 0 246 45l53 -129q-168 -86 -356 -86q-197 0 -294 90t-97 245zM418 1067q0 68 26.5 92.5t94.5 24.5 q70 0 98.5 -24.5t28.5 -92.5q0 -66 -29 -91.5t-98.5 -25.5t-95 24.5t-25.5 92.5z" />
<glyph unicode="&#xc0;" horiz-adv-x="1132" d="M27 0q164 694 393 1382h285q231 -677 401 -1382h-238q-61 258 -69 289h-494q-35 -137 -63 -289h-215zM217 1626l105 127l348 -180l-66 -92zM342 455h420q-115 414 -217 725q-119 -393 -203 -725z" />
<glyph unicode="&#xc1;" horiz-adv-x="1132" d="M27 0q164 694 393 1382h285q231 -677 401 -1382h-238q-61 258 -69 289h-494q-35 -137 -63 -289h-215zM342 455h420q-115 414 -217 725q-119 -393 -203 -725zM412 1573l354 180l100 -127l-387 -145z" />
<glyph unicode="&#xc2;" horiz-adv-x="1132" d="M27 0q164 694 393 1382h285q231 -677 401 -1382h-238q-61 258 -69 289h-494q-35 -137 -63 -289h-215zM254 1565l305 188l301 -190l-59 -78l-246 117l-242 -117zM342 455h420q-115 414 -217 725q-119 -393 -203 -725z" />
<glyph unicode="&#xc3;" horiz-adv-x="1132" d="M27 0q164 694 393 1382h285q231 -677 401 -1382h-238q-61 258 -69 289h-494q-35 -137 -63 -289h-215zM211 1565q49 90 100 129t125 39q68 0 143.5 -55.5t98.5 -55.5q29 0 51.5 21.5t67.5 85.5l96 -62q-53 -92 -104.5 -129t-124.5 -37q-55 0 -100.5 27.5t-79 54.5 t-60.5 27q-29 0 -51.5 -21.5t-65.5 -83.5zM342 455h420q-115 414 -217 725q-119 -393 -203 -725z" />
<glyph unicode="&#xc4;" horiz-adv-x="1132" d="M27 0q164 694 393 1382h285q231 -677 401 -1382h-238q-61 258 -69 289h-494q-35 -137 -63 -289h-215zM236 1602q0 57 20 75.5t86 18.5q63 0 82.5 -17.5t19.5 -75t-20.5 -76t-84 -18.5t-83.5 18.5t-20 74.5zM342 455h420q-115 414 -217 725q-119 -393 -203 -725zM653 1602 q0 57 20.5 75.5t86.5 18.5q63 0 83.5 -17.5t20.5 -75t-21.5 -76t-84.5 -18.5q-66 0 -85.5 18.5t-19.5 74.5z" />
<glyph unicode="&#xc5;" horiz-adv-x="1132" d="M27 0q164 694 393 1382h285q231 -677 401 -1382h-238q-61 258 -69 289h-494q-35 -137 -63 -289h-215zM334 1600q0 86 64.5 140t166.5 54q222 0 222 -188q0 -94 -61.5 -146.5t-168.5 -52.5q-223 0 -223 193zM342 455h420q-115 414 -217 725q-119 -393 -203 -725zM473 1600 q0 -88 88 -88q86 0 86 88q0 90 -86 90q-88 0 -88 -90z" />
<glyph unicode="&#xc6;" horiz-adv-x="1490" d="M-35 0q285 735 600 1382h815v-172h-475v-419h395v-166h-395v-451h484v-174h-705v289h-391q-80 -205 -107 -289h-221zM350 455h334v757h-2q-162 -342 -332 -757z" />
<glyph unicode="&#xc7;" horiz-adv-x="1064" d="M92 666q0 354 140.5 545.5t390.5 191.5q244 0 360 -227l-106 -95q-90 143 -234 144q-152 0 -235.5 -142.5t-83.5 -377.5q0 -545 315 -545q150 0 272 143l99 -108q-150 -215 -412 -215q-248 0 -377 173t-129 513zM418 -315q63 57 84.5 106t11.5 121h182q23 -170 -159 -283 z" />
<glyph unicode="&#xc8;" horiz-adv-x="964" d="M170 0v1382h686v-172h-465v-419h383v-166h-383v-451h473v-174h-694zM188 1626l105 127l348 -180l-66 -92z" />
<glyph unicode="&#xc9;" horiz-adv-x="964" d="M170 0v1382h686v-172h-465v-419h383v-166h-383v-451h473v-174h-694zM354 1573l355 180l100 -127l-387 -145z" />
<glyph unicode="&#xca;" horiz-adv-x="964" d="M170 0v1382h686v-172h-465v-419h383v-166h-383v-451h473v-174h-694zM215 1565l305 188l301 -190l-59 -78l-246 117l-242 -117z" />
<glyph unicode="&#xcb;" horiz-adv-x="964" d="M170 0v1382h686v-172h-465v-419h383v-166h-383v-451h473v-174h-694zM199 1602q0 57 20.5 75.5t85.5 18.5q63 0 83 -17.5t20 -75t-20.5 -76t-84 -18.5t-84 18.5t-20.5 74.5zM616 1602q0 57 20.5 75.5t86.5 18.5q63 0 83.5 -17.5t20.5 -75t-21.5 -76t-84.5 -18.5 q-66 0 -85.5 18.5t-19.5 74.5z" />
<glyph unicode="&#xcc;" horiz-adv-x="561" d="M-18 1626l104 127l348 -180l-65 -92zM170 0v1382h221v-1382h-221z" />
<glyph unicode="&#xcd;" horiz-adv-x="561" d="M123 1573l354 180l101 -127l-388 -145zM170 0v1382h221v-1382h-221z" />
<glyph unicode="&#xce;" horiz-adv-x="561" d="M-20 1565l305 188l301 -190l-60 -78l-245 117l-242 -117zM170 0v1382h221v-1382h-221z" />
<glyph unicode="&#xcf;" horiz-adv-x="561" d="M-33 1602q0 57 20.5 75.5t86.5 18.5q63 0 82.5 -17.5t19.5 -75t-20.5 -76t-84 -18.5t-84 18.5t-20.5 74.5zM170 0v1382h221v-1382h-221zM385 1602q0 57 20.5 75.5t86.5 18.5q63 0 83.5 -17.5t20.5 -75t-21.5 -76t-85.5 -18.5q-66 0 -85 18.5t-19 74.5z" />
<glyph unicode="&#xd0;" horiz-adv-x="1216" d="M59 631v153h134v598q61 0 173.5 1t172.5 1q303 0 444 -181t141 -476q0 -352 -160.5 -542.5t-486.5 -190.5q-49 0 -146.5 3t-137.5 3v631h-134zM410 170q74 -4 108 -4q377 -1 377 534q0 518 -379 519q-72 0 -106 -2v-433h225v-153h-225v-461z" />
<glyph unicode="&#xd1;" horiz-adv-x="1341" d="M170 0v1382h276l531 -948v948h186v-1382h-225l-582 1069v-1069h-186zM332 1565q49 90 100 129t125 39q68 0 143.5 -55.5t98.5 -55.5q29 0 51 21.5t68 85.5l96 -62q-53 -92 -104.5 -129t-125.5 -37q-55 0 -100 27.5t-80 54.5t-59 27q-29 0 -51.5 -21.5t-65.5 -83.5z" />
<glyph unicode="&#xd2;" horiz-adv-x="1296" d="M92 668q0 371 154.5 553t419 182t401.5 -163t137 -523q0 -373 -154.5 -555t-418.5 -182t-401.5 161.5t-137.5 526.5zM326 711q0 -299 80.5 -429t246.5 -130q318 0 318 526q0 295 -81 425t-247 130q-317 0 -317 -522zM344 1626l105 127l348 -180l-66 -92z" />
<glyph unicode="&#xd3;" horiz-adv-x="1296" d="M92 668q0 371 154.5 553t419 182t401.5 -163t137 -523q0 -373 -154.5 -555t-418.5 -182t-401.5 161.5t-137.5 526.5zM326 711q0 -299 80.5 -429t246.5 -130q318 0 318 526q0 295 -81 425t-247 130q-317 0 -317 -522zM518 1573l354 180l101 -127l-387 -145z" />
<glyph unicode="&#xd4;" horiz-adv-x="1296" d="M92 668q0 371 154.5 553t419 182t401.5 -163t137 -523q0 -373 -154.5 -555t-418.5 -182t-401.5 161.5t-137.5 526.5zM326 711q0 -299 80.5 -429t246.5 -130q318 0 318 526q0 295 -81 425t-247 130q-317 0 -317 -522zM352 1565l305 188l301 -190l-59 -78l-246 117 l-241 -117z" />
<glyph unicode="&#xd5;" horiz-adv-x="1296" d="M92 668q0 371 154.5 553t419 182t401.5 -163t137 -523q0 -373 -154.5 -555t-418.5 -182t-401.5 161.5t-137.5 526.5zM313 1565q49 90 100.5 129t125.5 39q68 0 143.5 -55.5t97.5 -55.5q29 0 51.5 21.5t67.5 85.5l96 -62q-53 -92 -104 -129t-125 -37q-55 0 -100 27.5 t-79 54.5t-61 27q-29 0 -51 -21.5t-65 -83.5zM326 711q0 -299 80.5 -429t246.5 -130q318 0 318 526q0 295 -81 425t-247 130q-317 0 -317 -522z" />
<glyph unicode="&#xd6;" horiz-adv-x="1296" d="M92 668q0 371 154.5 553t419 182t401.5 -163t137 -523q0 -373 -154.5 -555t-418.5 -182t-401.5 161.5t-137.5 526.5zM326 711q0 -299 80.5 -429t246.5 -130q318 0 318 526q0 295 -81 425t-247 130q-317 0 -317 -522zM340 1602q0 57 20.5 75.5t85.5 18.5q63 0 83 -17.5 t20 -75t-20.5 -76t-84 -18.5t-84 18.5t-20.5 74.5zM758 1602q0 57 20.5 75.5t85.5 18.5q63 0 84 -17.5t21 -75t-21.5 -76t-85.5 -18.5q-66 0 -85 18.5t-19 74.5z" />
<glyph unicode="&#xd7;" d="M131 336l268 268l-266 266l115 115l266 -266l266 266l113 -113l-266 -266l268 -268l-115 -115l-268 269l-266 -269z" />
<glyph unicode="&#xd8;" horiz-adv-x="1296" d="M92 668q0 371 154.5 553t419.5 182q168 0 286 -74l125 209l119 -63l-135 -226q143 -172 143 -532q0 -373 -154.5 -555t-418.5 -182q-172 0 -287 73l-125 -209l-119 64l136 227q-143 166 -144 533zM313 711q0 -223 66 -342l473 798q-76 74 -211 74q-328 0 -328 -530z M444 217q74 -76 211 -76q328 0 328 537q0 217 -65 336z" />
<glyph unicode="&#xd9;" horiz-adv-x="1335" d="M168 475v907h221v-880q0 -195 65.5 -276t215.5 -81q139 0 209.5 78t70.5 264v895h217v-878q0 -268 -138 -396t-384 -128q-242 0 -359.5 117.5t-117.5 377.5zM301 1626l105 127l348 -180l-66 -92z" />
<glyph unicode="&#xda;" horiz-adv-x="1335" d="M168 475v907h221v-880q0 -195 65.5 -276t215.5 -81q139 0 209.5 78t70.5 264v895h217v-878q0 -268 -138 -396t-384 -128q-242 0 -359.5 117.5t-117.5 377.5zM594 1573l354 180l101 -127l-387 -145z" />
<glyph unicode="&#xdb;" horiz-adv-x="1335" d="M168 475v907h221v-880q0 -195 65.5 -276t215.5 -81q139 0 209.5 78t70.5 264v895h217v-878q0 -268 -138 -396t-384 -128q-242 0 -359.5 117.5t-117.5 377.5zM375 1565l305 188l301 -190l-59 -78l-246 117l-242 -117z" />
<glyph unicode="&#xdc;" horiz-adv-x="1335" d="M168 475v907h221v-880q0 -195 65.5 -276t215.5 -81q139 0 209.5 78t70.5 264v895h217v-878q0 -268 -138 -396t-384 -128q-242 0 -359.5 117.5t-117.5 377.5zM362 1602q0 57 20.5 75.5t86.5 18.5q63 0 82.5 -17.5t19.5 -75t-20.5 -76t-84 -18.5t-84 18.5t-20.5 74.5z M780 1602q0 57 20.5 75.5t86.5 18.5q63 0 83.5 -17.5t20.5 -75t-21.5 -76t-84.5 -18.5q-66 0 -85.5 18.5t-19.5 74.5z" />
<glyph unicode="&#xdd;" horiz-adv-x="995" d="M-6 1382h246q135 -340 276 -591q125 211 260 591h225q-199 -496 -393 -792v-590h-221v590q-211 338 -393 792zM391 1573l354 180l101 -127l-387 -145z" />
<glyph unicode="&#xde;" horiz-adv-x="1081" d="M170 0v1382h223v-213q35 2 131 2q506 1 506 -423q0 -215 -137 -344.5t-438 -129.5h-64v-274h-221zM391 438h101q154 0 230.5 76t76.5 211q0 139 -74 211t-238 72h-96v-570z" />
<glyph unicode="&#xdf;" horiz-adv-x="1142" d="M154 0v1024q0 219 111.5 330.5t324.5 111.5q174 0 267 -75.5t93 -206.5q0 -82 -22.5 -138.5t-55 -85t-64.5 -52t-54.5 -55.5t-22.5 -79q0 -49 36 -89t86 -72.5t100.5 -70.5t86 -101.5t35.5 -145.5q0 -135 -82 -223t-233 -88q-141 0 -248 61l20 109q100 -23 173 -23 q76 0 116.5 39t40.5 98q0 57 -34.5 100.5t-85 75t-100.5 66.5t-85 94.5t-35 138.5q0 61 23.5 108.5t56.5 77t65.5 59.5t56.5 72t24 97q0 72 -47.5 114t-127.5 42q-119 0 -162.5 -66.5t-43.5 -212.5v-1034h-213z" />
<glyph unicode="&#xe0;" horiz-adv-x="1026" d="M72 262q0 162 130 255t390 93h74v92q0 92 -50.5 137.5t-160.5 45.5q-137 0 -299 -60l-31 129q190 84 387 84q184 0 273 -82t89 -227v-729h-163l-17 111q-152 -131 -315 -131q-150 0 -228.5 73.5t-78.5 208.5zM209 1389l143 90l269 -271l-97 -65zM281 293q0 -74 40.5 -117 t116.5 -43q109 1 228 103v241h-88q-166 0 -231.5 -48t-65.5 -136z" />
<glyph unicode="&#xe1;" horiz-adv-x="1026" d="M72 262q0 162 130 255t390 93h74v92q0 92 -50.5 137.5t-160.5 45.5q-137 0 -299 -60l-31 129q190 84 387 84q184 0 273 -82t89 -227v-729h-163l-17 111q-152 -131 -315 -131q-150 0 -228.5 73.5t-78.5 208.5zM281 293q0 -74 40.5 -117t116.5 -43q109 1 228 103v241h-88 q-166 0 -231.5 -48t-65.5 -136zM389 1208l277 273l141 -90l-326 -248z" />
<glyph unicode="&#xe2;" horiz-adv-x="1026" d="M72 262q0 162 130 255t390 93h74v92q0 92 -50.5 137.5t-160.5 45.5q-137 0 -299 -60l-31 129q190 84 387 84q184 0 273 -82t89 -227v-729h-163l-17 111q-152 -131 -315 -131q-150 0 -228.5 73.5t-78.5 208.5zM219 1227l291 264l278 -264l-61 -78l-223 164l-221 -164z M281 293q0 -74 40.5 -117t116.5 -43q109 1 228 103v241h-88q-166 0 -231.5 -48t-65.5 -136z" />
<glyph unicode="&#xe3;" horiz-adv-x="1026" d="M72 262q0 162 130 255t390 93h74v92q0 92 -50.5 137.5t-160.5 45.5q-137 0 -299 -60l-31 129q190 84 387 84q184 0 273 -82t89 -227v-729h-163l-17 111q-152 -131 -315 -131q-150 0 -228.5 73.5t-78.5 208.5zM154 1257q51 90 101 129t126 39q68 0 142.5 -55t97.5 -55 q29 0 51 21.5t67 84.5l88 -59q-51 -92 -102 -130t-125 -38q-72 0 -143.5 54.5t-98.5 54.5q-29 0 -50 -21.5t-66 -83.5zM281 293q0 -74 40.5 -117t116.5 -43q109 1 228 103v241h-88q-166 0 -231.5 -48t-65.5 -136z" />
<glyph unicode="&#xe4;" horiz-adv-x="1026" d="M72 262q0 162 130 255t390 93h74v92q0 92 -50.5 137.5t-160.5 45.5q-137 0 -299 -60l-31 129q190 84 387 84q184 0 273 -82t89 -227v-729h-163l-17 111q-152 -131 -315 -131q-150 0 -228.5 73.5t-78.5 208.5zM193 1309q0 57 24.5 77.5t85.5 20.5q59 0 82 -20.5t23 -77.5 q0 -55 -24 -78t-81 -23q-61 0 -85.5 22.5t-24.5 78.5zM281 293q0 -74 40.5 -117t116.5 -43q109 1 228 103v241h-88q-166 0 -231.5 -48t-65.5 -136zM594 1308.5q0 57.5 22.5 78t83.5 20.5q59 0 83 -20.5t24 -78t-23.5 -79t-83 -21.5t-83 21.5t-23.5 79z" />
<glyph unicode="&#xe5;" horiz-adv-x="1026" d="M72 262q0 162 130 255t390 93h74v92q0 92 -50.5 137.5t-160.5 45.5q-137 0 -299 -60l-31 129q190 84 387 84q184 0 273 -82t89 -227v-729h-163l-17 111q-152 -131 -315 -131q-150 0 -228.5 73.5t-78.5 208.5zM281 293q0 -74 40.5 -117t116.5 -43q109 1 228 103v241h-88 q-166 0 -231.5 -48t-65.5 -136zM283 1319q0 86 64.5 140t166.5 54q221 0 221 -188q0 -94 -61.5 -146.5t-167.5 -52.5q-223 0 -223 193zM422 1319q0 -88 88 -88q86 0 86 88q0 90 -86 90q-88 0 -88 -90z" />
<glyph unicode="&#xe6;" horiz-adv-x="1593" d="M72 262q0 162 129 254t391 92h72v94q0 92 -50.5 137.5t-160.5 45.5q-135 0 -297 -60l-31 129q190 84 385 84q223 0 291 -143q106 145 295 145q416 0 383 -559h-609v-22q0 -315 258 -316q150 0 314 60l35 -123q-201 -100 -396 -100q-260 0 -352 192q-135 -193 -350 -192 q-150 0 -228.5 73.5t-78.5 208.5zM283 301q0 -78 39.5 -122t117.5 -44q132 0 224 156v190h-89q-166 0 -229 -48t-63 -132zM872 608h404v6q0 281 -193 281q-96 0 -150 -79t-61 -208z" />
<glyph unicode="&#xe7;" horiz-adv-x="878" d="M86 496q0 248 116.5 396t309.5 148q172 0 283 -127l-76 -108q-86 76 -187 76q-109 0 -168 -93.5t-59 -265.5q0 -379 217 -379q125 0 228 97l69 -109q-139 -150 -338 -149q-395 0 -395 514zM283 -315q63 57 84.5 106t11.5 121h182q23 -170 -160 -283z" />
<glyph unicode="&#xe8;" horiz-adv-x="1017" d="M86 481q0 268 115.5 413.5t324.5 145.5q418 0 385 -565h-608v-18q0 -313 256 -314q154 0 313 60l35 -123q-197 -100 -393 -100q-428 0 -428 501zM223 1389l144 90l268 -271l-96 -65zM303 610h404v6q0 279 -193 279q-94 0 -149.5 -80t-61.5 -205z" />
<glyph unicode="&#xe9;" horiz-adv-x="1017" d="M86 481q0 268 115.5 413.5t324.5 145.5q418 0 385 -565h-608v-18q0 -313 256 -314q154 0 313 60l35 -123q-197 -100 -393 -100q-428 0 -428 501zM303 610h404v6q0 279 -193 279q-94 0 -149.5 -80t-61.5 -205zM389 1208l277 273l141 -90l-326 -248z" />
<glyph unicode="&#xea;" horiz-adv-x="1017" d="M86 481q0 268 115.5 413.5t324.5 145.5q418 0 385 -565h-608v-18q0 -313 256 -314q154 0 313 60l35 -123q-197 -100 -393 -100q-428 0 -428 501zM236 1227l290 264l279 -264l-62 -78l-223 164l-221 -164zM303 610h404v6q0 279 -193 279q-94 0 -149.5 -80t-61.5 -205z" />
<glyph unicode="&#xeb;" horiz-adv-x="1017" d="M86 481q0 268 115.5 413.5t324.5 145.5q418 0 385 -565h-608v-18q0 -313 256 -314q154 0 313 60l35 -123q-197 -100 -393 -100q-428 0 -428 501zM213 1309q0 57 24.5 77.5t86.5 20.5q59 0 81.5 -20.5t22.5 -77.5q0 -55 -23.5 -78t-80.5 -23q-61 0 -86 22.5t-25 78.5z M303 610h404v6q0 279 -193 279q-94 0 -149.5 -80t-61.5 -205zM614 1308.5q0 57.5 22.5 78t84.5 20.5q59 0 82.5 -20.5t23.5 -78t-23.5 -79t-82.5 -21.5t-83 21.5t-24 79z" />
<glyph unicode="&#xec;" horiz-adv-x="518" d="M2 1389l143 90l269 -271l-96 -65zM154 0v1020h211v-1020h-211z" />
<glyph unicode="&#xed;" horiz-adv-x="518" d="M109 1208l276 273l142 -90l-326 -248zM154 0v1020h211v-1020h-211z" />
<glyph unicode="&#xee;" horiz-adv-x="518" d="M-26 1227l291 264l278 -264l-61 -78l-224 164l-221 -164zM154 0v1020h211v-1020h-211z" />
<glyph unicode="&#xef;" horiz-adv-x="518" d="M-47 1309q0 57 24.5 77.5t85.5 20.5q59 0 82 -20.5t23 -77.5q0 -55 -23.5 -78t-81.5 -23q-61 0 -85.5 22.5t-24.5 78.5zM154 0v1020h211v-1020h-211zM354 1308.5q0 57.5 22.5 78t84.5 20.5q59 0 82.5 -20.5t23.5 -78t-23.5 -79t-83 -21.5t-83 21.5t-23.5 79z" />
<glyph unicode="&#xf0;" horiz-adv-x="1077" d="M82 475q0 260 125 405.5t342 145.5q90 0 119 -14q-41 88 -115 176l-201 -90l-84 102l197 88q-84 88 -182 164h266q72 -59 113 -102l184 82l86 -105l-180 -80q223 -280 223 -626q0 -338 -127 -488.5t-342 -150.5q-211 0 -317.5 130t-106.5 363zM309 516q0 -371 223 -371 q100 0 156.5 89t56.5 337q0 164 -34 285q-68 23 -156 23q-115 0 -180.5 -91.5t-65.5 -271.5z" />
<glyph unicode="&#xf1;" horiz-adv-x="1112" d="M154 0v1020h174l16 -115q150 135 315 135q154 0 231 -107t77 -349q0 -57 -4.5 -262t-4.5 -322h-208q0 104 2 293.5t2 247.5q0 184 -41 256.5t-127 72.5q-94 0 -221 -102v-768h-211zM223 1257q51 90 101 129t126 39q68 0 142.5 -55t97.5 -55q29 0 51.5 21.5t67.5 84.5 l88 -59q-51 -92 -102.5 -130t-125.5 -38q-72 0 -143.5 54.5t-97.5 54.5q-29 0 -50.5 -21.5t-66.5 -83.5z" />
<glyph unicode="&#xf2;" horiz-adv-x="1075" d="M86 489q0 274 125 412.5t348 138.5q430 1 430 -505q0 -274 -126 -414.5t-347 -140.5q-430 0 -430 509zM240 1389l143 90l269 -271l-96 -65zM303 535q0 -219 57.5 -308.5t180.5 -89.5q231 0 231 350q0 217 -57.5 306.5t-179.5 89.5q-231 0 -232 -348z" />
<glyph unicode="&#xf3;" horiz-adv-x="1075" d="M86 489q0 274 125 412.5t348 138.5q430 1 430 -505q0 -274 -126 -414.5t-347 -140.5q-430 0 -430 509zM303 535q0 -219 57.5 -308.5t180.5 -89.5q231 0 231 350q0 217 -57.5 306.5t-179.5 89.5q-231 0 -232 -348zM416 1208l276 273l142 -90l-326 -248z" />
<glyph unicode="&#xf4;" horiz-adv-x="1075" d="M86 489q0 274 125 412.5t348 138.5q430 1 430 -505q0 -274 -126 -414.5t-347 -140.5q-430 0 -430 509zM262 1227l291 264l278 -264l-61 -78l-224 164l-221 -164zM303 535q0 -219 57.5 -308.5t180.5 -89.5q231 0 231 350q0 217 -57.5 306.5t-179.5 89.5q-231 0 -232 -348z " />
<glyph unicode="&#xf5;" horiz-adv-x="1075" d="M86 489q0 274 125 412.5t348 138.5q430 1 430 -505q0 -274 -126 -414.5t-347 -140.5q-430 0 -430 509zM205 1257q51 90 101 129t126 39q68 0 142.5 -55t97.5 -55q29 0 51.5 21.5t67.5 84.5l88 -59q-51 -92 -102.5 -130t-125.5 -38q-72 0 -143.5 54.5t-97.5 54.5 q-29 0 -50.5 -21.5t-66.5 -83.5zM303 535q0 -219 57.5 -308.5t180.5 -89.5q231 0 231 350q0 217 -57.5 306.5t-179.5 89.5q-231 0 -232 -348z" />
<glyph unicode="&#xf6;" horiz-adv-x="1075" d="M86 489q0 274 125 412.5t348 138.5q430 1 430 -505q0 -274 -126 -414.5t-347 -140.5q-430 0 -430 509zM234 1309q0 57 24.5 77.5t85.5 20.5q59 0 82 -20.5t23 -77.5q0 -55 -23.5 -78t-81.5 -23q-61 0 -85.5 22.5t-24.5 78.5zM303 535q0 -219 57.5 -308.5t180.5 -89.5 q231 0 231 350q0 217 -57.5 306.5t-179.5 89.5q-231 0 -232 -348zM635 1308.5q0 57.5 22.5 78t84.5 20.5q59 0 82.5 -20.5t23.5 -78t-23.5 -79t-83 -21.5t-83 21.5t-23.5 79z" />
<glyph unicode="&#xf7;" d="M92 506v145h838v-145h-838zM391 188q0 63 27.5 88t93.5 25t93.5 -24.5t27.5 -86t-26.5 -86t-94.5 -24.5t-94.5 23.5t-26.5 84.5zM391 969q0 61 26.5 84.5t94.5 23.5q66 0 93.5 -24.5t27.5 -86t-26.5 -86t-94.5 -24.5t-94.5 23.5t-26.5 89.5z" />
<glyph unicode="&#xf8;" horiz-adv-x="1075" d="M86 489q0 274 125 412.5t348 138.5q119 0 201 -41l106 177l109 -64l-107 -180q121 -127 121 -397q0 -274 -126 -414.5t-347 -140.5q-113 0 -192 40l-105 -176l-117 64l109 178q-125 125 -125 403zM291 537q0 -170 49 -246l330 565q-55 37 -135 37q-244 0 -244 -356z M412 162q53 -35 129 -35q243 0 243 360q0 156 -49 236z" />
<glyph unicode="&#xf9;" horiz-adv-x="1112" d="M147 438q0 55 3.5 260t3.5 322h211q0 -104 -3.5 -292.5t-3.5 -248.5q0 -184 41 -256.5t127 -72.5q90 0 222 102v768h210v-1020h-172l-16 115q-152 -135 -315 -135q-154 0 -231 107.5t-77 350.5zM266 1389l143 90l269 -271l-96 -65z" />
<glyph unicode="&#xfa;" horiz-adv-x="1112" d="M147 438q0 55 3.5 260t3.5 322h211q0 -104 -3.5 -292.5t-3.5 -248.5q0 -184 41 -256.5t127 -72.5q90 0 222 102v768h210v-1020h-172l-16 115q-152 -135 -315 -135q-154 0 -231 107.5t-77 350.5zM445 1208l276 273l142 -90l-326 -248z" />
<glyph unicode="&#xfb;" horiz-adv-x="1112" d="M147 438q0 55 3.5 260t3.5 322h211q0 -104 -3.5 -292.5t-3.5 -248.5q0 -184 41 -256.5t127 -72.5q90 0 222 102v768h210v-1020h-172l-16 115q-152 -135 -315 -135q-154 0 -231 107.5t-77 350.5zM283 1227l291 264l278 -264l-61 -78l-224 164l-221 -164z" />
<glyph unicode="&#xfc;" horiz-adv-x="1112" d="M147 438q0 55 3.5 260t3.5 322h211q0 -104 -3.5 -292.5t-3.5 -248.5q0 -184 41 -256.5t127 -72.5q90 0 222 102v768h210v-1020h-172l-16 115q-152 -135 -315 -135q-154 0 -231 107.5t-77 350.5zM250 1309q0 57 24.5 77.5t85.5 20.5q59 0 82 -20.5t23 -77.5 q0 -55 -23.5 -78t-81.5 -23q-61 0 -85.5 22.5t-24.5 78.5zM651 1308.5q0 57.5 22.5 78t84.5 20.5q59 0 82.5 -20.5t23.5 -78t-23.5 -79t-83 -21.5t-83 21.5t-23.5 79z" />
<glyph unicode="&#xfd;" horiz-adv-x="962" d="M8 -205q41 -6 96 -6q100 0 162 55q74 68 74 152q0 78 -57 235l-254 789h227l182 -590q63 -193 51 -280q150 399 209 870h220q-59 -326 -137.5 -575.5t-155 -400t-163.5 -245t-161 -129.5t-151 -35q-57 0 -142 35v125zM240 1208l276 273l142 -90l-326 -248z" />
<glyph unicode="&#xfe;" horiz-adv-x="1077" d="M154 -354v1806h211v-524q137 113 268 112q166 0 260 -138t94 -351q0 -289 -137 -430t-363 -141q-80 0 -122 8v-342h-211zM365 156q55 -23 141 -23q119 0 191.5 96.5t72.5 284.5q0 168 -52 265.5t-143 97.5q-96 0 -210 -107v-614z" />
<glyph unicode="&#xff;" horiz-adv-x="962" d="M8 -205q41 -6 96 -6q100 0 162 55q74 68 74 152q0 78 -57 235l-254 789h227l182 -590q63 -193 51 -280q150 399 209 870h220q-59 -326 -137.5 -575.5t-155 -400t-163.5 -245t-161 -129.5t-151 -35q-57 0 -142 35v125zM176 1309q0 57 24.5 77.5t85.5 20.5q59 0 82 -20.5 t23 -77.5q0 -55 -23.5 -78t-81.5 -23q-61 0 -85.5 22.5t-24.5 78.5zM577 1308.5q0 57.5 22.5 78t84.5 20.5q59 0 82.5 -20.5t23.5 -78t-23.5 -79t-83 -21.5t-83 21.5t-23.5 79z" />
<glyph unicode="&#x152;" horiz-adv-x="1587" d="M92 668q0 371 154.5 553t419.5 182q98 0 182 -21h631v-172h-475v-419h395v-166h-395v-451h483v-174h-662q-102 -20 -194 -20q-264 0 -401.5 161.5t-137.5 526.5zM326 711q0 -299 80.5 -429t246.5 -130q74 0 129 18v1034q-61 29 -139 29q-317 0 -317 -522z" />
<glyph unicode="&#x153;" horiz-adv-x="1705" d="M86 489q0 274 125 412.5t346 138.5q236 0 334 -180q96 180 315 180q418 0 385 -559h-610v-22q0 -315 258 -316q154 0 313 60l35 -123q-197 -100 -393 -100q-231 0 -332 180q-106 -180 -346 -180q-430 0 -430 509zM303 537q0 -219 57.5 -309.5t182.5 -90.5q229 0 229 350 q0 217 -57.5 306.5t-179.5 89.5q-231 0 -232 -346zM983 608h406v6q0 281 -193 281q-98 0 -152.5 -80t-60.5 -207z" />
<glyph unicode="&#x178;" horiz-adv-x="995" d="M-6 1382h246q135 -340 276 -591q125 211 260 591h225q-199 -496 -393 -792v-590h-221v590q-211 338 -393 792zM197 1602q0 57 20.5 75.5t85.5 18.5q63 0 83 -17.5t20 -75t-20.5 -76t-84 -18.5t-84 18.5t-20.5 74.5zM614 1602q0 57 20.5 75.5t86.5 18.5q63 0 83.5 -17.5 t20.5 -75t-21.5 -76t-84.5 -18.5q-66 0 -85.5 18.5t-19.5 74.5z" />
<glyph unicode="&#x2c6;" horiz-adv-x="716" d="M74 1227l291 264l278 -264l-61 -78l-224 164l-221 -164z" />
<glyph unicode="&#x2dc;" horiz-adv-x="841" d="M82 1257q51 90 101 129t126 39q68 0 142.5 -55t97.5 -55q29 0 51.5 21.5t67.5 84.5l88 -59q-51 -92 -102.5 -130t-125.5 -38q-72 0 -143.5 54.5t-97.5 54.5q-29 0 -50.5 -21.5t-66.5 -83.5z" />
<glyph unicode="&#x2000;" horiz-adv-x="897" />
<glyph unicode="&#x2001;" horiz-adv-x="1794" />
<glyph unicode="&#x2002;" horiz-adv-x="897" />
<glyph unicode="&#x2003;" horiz-adv-x="1794" />
<glyph unicode="&#x2004;" horiz-adv-x="598" />
<glyph unicode="&#x2005;" horiz-adv-x="448" />
<glyph unicode="&#x2006;" horiz-adv-x="299" />
<glyph unicode="&#x2007;" horiz-adv-x="299" />
<glyph unicode="&#x2008;" horiz-adv-x="224" />
<glyph unicode="&#x2009;" horiz-adv-x="358" />
<glyph unicode="&#x200a;" horiz-adv-x="99" />
<glyph unicode="&#x2010;" horiz-adv-x="481" d="M59 526v160h420v-160h-420z" />
<glyph unicode="&#x2011;" horiz-adv-x="481" d="M59 526v160h420v-160h-420z" />
<glyph unicode="&#x2012;" horiz-adv-x="481" d="M59 526v160h420v-160h-420z" />
<glyph unicode="&#x2013;" d="M92 535v153h840v-153h-840z" />
<glyph unicode="&#x2014;" horiz-adv-x="2048" d="M287 535v153h1474v-153h-1474z" />
<glyph unicode="&#x2018;" horiz-adv-x="626" d="M162 1012q0 125 62.5 224t199.5 194l84 -76q-74 -51 -117 -109.5t-43 -99.5q0 -20 33 -50t33 -83q0 -70 -28 -96.5t-99 -26.5q-68 0 -96.5 27.5t-28.5 95.5z" />
<glyph unicode="&#x2019;" horiz-adv-x="626" d="M98 954q74 53 117 111.5t43 99.5q0 20 -32.5 50t-32.5 81q0 70 27.5 96.5t98.5 26.5q68 0 95.5 -26.5t27.5 -94.5q0 -125 -62.5 -225t-197.5 -192z" />
<glyph unicode="&#x201a;" horiz-adv-x="626" d="M98 -242q72 53 114 111.5t44 97.5q0 18 -33 49t-33 84q0 70 28 96.5t101 26.5q70 0 97.5 -26.5t27.5 -94.5q0 -244 -264 -419z" />
<glyph unicode="&#x201c;" horiz-adv-x="970" d="M143 1018q0 125 62.5 224t202.5 192l77 -72q-80 -53 -123 -109.5t-43 -99.5q0 -27 31 -56.5t31 -82.5q0 -66 -26.5 -92.5t-94.5 -26.5q-66 0 -91.5 26.5t-25.5 96.5zM541 1018q0 127 61.5 225t200.5 189l78 -72q-80 -51 -123 -107.5t-43 -99.5q0 -27 31.5 -56.5 t31.5 -82.5q0 -66 -27.5 -92.5t-93 -26.5t-91 26.5t-25.5 96.5z" />
<glyph unicode="&#x201d;" horiz-adv-x="970" d="M88 954q78 49 121 106.5t43 100.5q0 27 -31 55.5t-31 81.5q0 68 27 93.5t94 25.5q66 0 91.5 -26.5t25.5 -96.5q0 -125 -61.5 -224t-200.5 -189zM481 952q82 51 125 108.5t43 100.5q0 27 -31.5 55.5t-31.5 81.5q0 68 27.5 93.5t95.5 25.5q63 0 89.5 -27.5t26.5 -95.5 q0 -125 -62.5 -224t-203.5 -191z" />
<glyph unicode="&#x201e;" horiz-adv-x="970" d="M86 -238q78 49 121 106.5t43 100.5q0 27 -31 55.5t-31 81.5q0 68 27 93.5t94 25.5q66 0 91.5 -26.5t25.5 -96.5q0 -125 -61.5 -224t-200.5 -189zM479 -238q80 51 124 108.5t44 100.5q0 27 -31.5 55.5t-31.5 82.5q0 68 26.5 93t94.5 25q66 0 91 -26.5t25 -96.5 q0 -125 -61.5 -224t-202.5 -191z" />
<glyph unicode="&#x2022;" d="M209 623q0 127 89 216t216 89t216 -89t89 -216t-90 -216.5t-215 -89.5q-127 0 -216 89.5t-89 216.5z" />
<glyph unicode="&#x2026;" horiz-adv-x="1591" d="M184 104q0 68 30 93.5t99.5 25.5t97 -25.5t27.5 -91.5q0 -68 -28.5 -93t-98 -25t-98.5 25.5t-29 90.5zM655 104q0 74 22.5 97.5t104.5 23.5t104.5 -22.5t22.5 -96.5q0 -78 -22.5 -99t-104.5 -21q-84 0 -105.5 21.5t-21.5 96.5zM1122 104q0 68 30 93.5t99.5 25.5t98 -25.5 t28.5 -91.5q0 -68 -28.5 -93t-98 -25t-99.5 25.5t-30 90.5z" />
<glyph unicode="&#x202f;" horiz-adv-x="358" />
<glyph unicode="&#x2039;" horiz-adv-x="622" d="M84 590l258 399l143 -49l-188 -350l186 -348l-141 -49z" />
<glyph unicode="&#x203a;" horiz-adv-x="622" d="M137 240l187 350l-187 350l144 49l258 -399l-260 -400z" />
<glyph unicode="&#x205f;" horiz-adv-x="448" />
<glyph unicode="&#x20ac;" d="M4 475v137h111q-2 25 -2 68q0 33 4 98h-113v137h127q37 227 167 357.5t316 130.5q240 0 351 -213l-95 -90q-90 137 -235 137q-119 0 -191.5 -90t-93.5 -232h348v-137h-364q-4 -53 -4 -76q0 -57 4 -90h364v-137h-348q20 -160 93 -244t194 -84q147 0 262 132l86 -109 q-156 -190 -387 -190q-201 0 -323.5 125.5t-149.5 369.5h-121z" />
<glyph unicode="&#x2122;" horiz-adv-x="856" d="M53 1303v79h244v-79h-70v-261h-100v261h-74zM324 1042q6 168 24 340h135l68 -227l70 227h129q14 -139 22 -340h-98q0 145 -6 222l-72 -222h-104l-70 220q-4 -76 -8 -220h-90z" />
<glyph unicode="&#xe000;" d="M0 0v1024h1024v-1024h-1024z" />
<glyph unicode="&#xfb01;" horiz-adv-x="1132" d="M29 879v141h147v141q0 311 273 312q113 0 206 -52l-30 -129q-66 29 -117 29q-66 0 -93.5 -36t-27.5 -111v-154h592v-1020h-211v879h-381v-879h-211v879h-147zM748 1307q0 68 25.5 89t100.5 21q78 0 101.5 -21t23.5 -89q0 -70 -22.5 -91.5t-102.5 -21.5q-82 0 -104 21.5 t-22 91.5z" />
<glyph unicode="&#xfb02;" horiz-adv-x="1169" d="M29 879v141h147v82q0 193 90 282t295 89q100 0 215 -21h199v-1182q0 -88 14.5 -112.5t59.5 -24.5q12 0 32.5 1t24.5 1l8 -127q-63 -23 -162 -22q-100 0 -143 42t-43 160v1108q-94 25 -166 25q-115 0 -164 -43t-49 -162v-96h195v-141h-195v-879h-211v879h-147z" />
</font>
</defs>
</svg>
