<?xml version="1.0" encoding="utf-8"?>
<!-- Generator: Adobe Illustrator 22.0.1, SVG Export Plug-In . SVG Version: 6.00 Build 0)  -->
<svg version="1.1" id="Layer_1" xmlns="http://www.w3.org/2000/svg" xmlns:xlink="http://www.w3.org/1999/xlink" x="0px" y="0px"
	 viewBox="0 0 16 16" style="enable-background:new 0 0 16 16;" xml:space="preserve">
<style type="text/css">
	.st0{fill:#152E6F;}
	.st1{fill:#0DB14B;}
	.st2{fill:#FFFFFF;}
</style>
<g>
	<path class="st0" d="M4.9,13.6c1.1,0.4,2.3,0.6,3.5,0.6c4.2-0.1,7.6-2.9,7.5-6.2c0-3.4-3.5-6.1-7.7-6C4,2.1,0.6,4.9,0.6,8.3
		c0,1.1,0.4,2.2,1.2,3.2l-0.9,3.2L4.9,13.6z"/>
	<path class="st1" d="M4.3,13.1c1.1,0.4,2.3,0.6,3.5,0.6c4.2-0.1,7.6-2.9,7.5-6.2c-0.1-3.4-3.5-6.1-7.7-6C3.4,1.5,0.1,4.3,0.1,7.7
		c0,1.1,0.4,2.2,1.2,3.2l-0.9,3.2L4.3,13.1z"/>
	<path class="st2" d="M10.8,9.5L9.7,8.8C9.6,8.7,9.4,8.7,9.3,8.6C9.2,8.6,9,8.7,9,8.8C8.9,8.8,8.8,8.9,8.7,9C8.6,9.1,8.4,9,8.2,8.9
		C8,8.7,6.9,7.3,6.5,6.8C6.4,6.8,6.4,6.7,6.4,6.6c0-0.2,0.2-0.3,0.3-0.4l0,0C7,6,7.1,5.7,7,5.5c0-0.1-0.5-1.1-0.6-1.2
		C6.3,4.1,6.1,4,5.9,4C5.7,4,5.4,4.1,5.2,4.3l-0.1,0c-0.4,0.2-0.6,0.6-0.6,1c0,0.8,0.6,1.9,1.8,3.4c1.3,1.7,2.8,2.4,3.4,2.4
		c0.6,0,1.1-0.7,1.3-1C11.1,10,11,9.7,10.8,9.5z"/>
</g>
</svg>
