<svg width="861" height="152" viewBox="0 0 861 152" fill="none" xmlns="http://www.w3.org/2000/svg">
<path d="M31.9999 7.77441V32H1.74707C4.78597 19.4215 15.4192 9.6174 28.8693 8.12047C29.9178 8.00377 30.9613 7.88842 31.9999 7.77441Z" fill="#E7F0FB"/>
<path d="M829 2.86466V32H32V7.77445C336.199 -1.10801 528.047 -1.84375 829 2.86466Z" fill="#E7F0FB"/>
<path d="M859.543 31.9996H829V2.86426C829.271 2.88018 829.542 2.89617 829.813 2.91222C845.764 3.85541 858.241 16.4757 859.543 31.9996Z" fill="#E7F0FB"/>
<path d="M1.74709 32C1.0856 33.525 0.783942 35.1232 0.891398 36.7628C2.9 67.411 6.44381 89.7481 13.9655 120H31.9999V32H1.74709Z" fill="#E7F0FB"/>
<rect width="797" height="88" transform="translate(32 32)" fill="#E7F0FB"/>
<path d="M859.543 32C859.656 32.7533 859.685 33.5189 859.624 34.2935L854.131 103.651C853.551 110.971 845.014 117.399 832.395 119.468C831.301 119.647 830.206 119.825 829.109 120H829V32H859.543Z" fill="#E7F0FB"/>
<path d="M32.0002 146.549C22.7256 142.111 15.8173 133.276 14.3001 122.404C14.1878 121.6 14.0764 120.798 13.9658 120H32.0002V146.549Z" fill="#E7F0FB"/>
<path d="M829 120.031C617.987 136.13 393.77 142.796 93.6583 149.539C71.7251 150.032 50.5972 148.916 32 146.549V120H829V120.031Z" fill="#E7F0FB"/>
</svg>
