<svg width="343" height="284" viewBox="0 0 343 284" fill="none" xmlns="http://www.w3.org/2000/svg">
<path d="M31.9999 7.77441V32H1.74707C4.78597 19.4215 15.4192 9.6174 28.8693 8.12047C29.9178 8.00377 30.9613 7.88842 31.9999 7.77441Z" fill="#E7F0FB"/>
<path d="M311 2.86466V32H32V7.77445C138.489 -1.10801 205.648 -1.84375 311 2.86466Z" fill="#E7F0FB"/>
<path d="M341.543 31.9996H311V2.86426C311.271 2.88018 311.542 2.89617 311.813 2.91222C327.764 3.85541 340.241 16.4757 341.543 31.9996Z" fill="#E7F0FB"/>
<path d="M1.74709 32C1.0856 35.8124 0.783942 39.8079 0.891398 43.907C2.9 120.528 6.44381 176.37 13.9655 252H31.9999V32H1.74709Z" fill="#E7F0FB"/>
<rect width="279" height="220" transform="translate(32 32)" fill="#E7F0FB"/>
<path d="M341.543 32C341.656 33.8833 341.685 35.7973 341.624 37.7338L336.131 211.128C335.551 229.427 327.014 245.497 314.395 250.67C313.301 251.118 312.206 251.562 311.109 252H311V32H341.543Z" fill="#E7F0FB"/>
<path d="M32.0002 278.549C22.7256 274.111 15.8173 265.276 14.3001 254.404C14.1878 253.6 14.0764 252.798 13.9658 252H32.0002V278.549Z" fill="#E7F0FB"/>
<path d="M311 252.031C237.132 268.13 158.642 274.796 53.5843 281.539C45.9063 282.032 38.5102 280.916 32 278.549V252H311V252.031Z" fill="#E7F0FB"/>
</svg>
