<?xml version="1.0" encoding="utf-8"?>
<!-- Generator: Adobe Illustrator 16.0.4, SVG Export Plug-In . SVG Version: 6.00 Build 0)  -->
<!DOCTYPE svg PUBLIC "-//W3C//DTD SVG 1.1//EN" "http://www.w3.org/Graphics/SVG/1.1/DTD/svg11.dtd">
<svg version="1.1" id="Layer_1" xmlns="http://www.w3.org/2000/svg" xmlns:xlink="http://www.w3.org/1999/xlink" x="0px" y="0px"
	 width="350px" height="50px" viewBox="0 0 350 50" enable-background="new 0 0 350 50" xml:space="preserve">
<g>
	<g>
		<g>
			<g>
				<path fill="#FFFFFF" d="M151.554,31.572c-2.193,0-2.977-0.939-2.977-3.472v-8.172h-2.088v-1.514h2.114
					c0.209-1.149,0.392-1.05,0.548-2.406h1.489v2.406h3.473v1.514h-3.473v7.649c0,1.775,0.287,2.401,1.54,2.401
					c0.444,0,1.044-0.078,2.01-0.417l0.261,1.253C153.407,31.311,152.416,31.572,151.554,31.572z"/>
				<path fill="#FFFFFF" d="M166.095,31.363l-2.036-0.001c0-2.453,0.052-5.299,0.052-6.891c0-3.42-0.887-4.596-2.479-4.596
					c-0.862,0-2.037,0.549-3.186,1.542v9.945h-2.062V16.008h2.062v3.815c1.07-0.888,2.35-1.618,3.89-1.618
					c2.35,0,3.838,1.488,3.838,5.744C166.174,25.516,166.095,28.675,166.095,31.363z"/>
				<path fill="#FFFFFF" d="M170.117,25.149v0.261c0,3.237,1.252,4.544,3.576,4.544c1.175,0,2.454-0.235,3.785-0.783l0.393,1.227
					c-1.307,0.68-2.925,1.175-4.674,1.175c-3.132,0-5.222-1.697-5.222-6.291c0-4.518,1.958-7.076,5.3-7.076
					c3.056,0,4.908,1.958,4.621,6.944H170.117z M175.885,23.662c0-2.481-0.887-3.968-2.741-3.968c-1.905,0-2.897,1.853-3.028,4.073
					h5.769V23.662z"/>
			</g>
			<g>
				<g>
					<g>
						<path fill="#FFFFFF" d="M105.777,31.331c-0.386,0-0.952-0.026-1.364-0.078v2.343h-3.319V18.156h2.701l0.258,1.312
							c1.055-0.952,2.291-1.596,3.576-1.596c3.089,0,4.581,2.779,4.581,6.202C112.21,29.169,109.481,31.331,105.777,31.331z
							 M106.705,20.42c-0.618,0-1.467,0.361-2.291,1.08v7.206c0.438,0.181,0.978,0.258,1.544,0.258c1.671,0,2.856-1.364,2.856-4.427
							C108.815,21.887,108.017,20.42,106.705,20.42z"/>
					</g>
					<path fill="#FFFFFF" d="M62.15,31.652c-3.476,0-5.241-2.213-5.241-6.691c0-4.187,2.186-7.058,5.637-7.058
						c1.58,0,2.845,0.58,3.793,1.659L65.152,21.3c-0.604-0.553-1.343-0.87-2.186-0.87c-1.553,0-2.554,1.423-2.554,4.189
						c0,3.212,0.869,4.478,2.396,4.478c1.054,0,1.923-0.343,2.792-1.106l1.028,1.737C65.601,30.782,64.152,31.652,62.15,31.652z"/>
					<path fill="#FFFFFF" d="M72.817,31.677c-3.635,0-5.821-1.764-5.821-6.61c0-4.872,2.45-7.163,6.375-7.163
						c3.635,0,5.819,1.764,5.819,6.584C79.19,29.387,76.741,31.677,72.817,31.677z M73.054,20.404c-1.555,0-2.582,1.081-2.582,4.083
						c0,3.714,0.923,4.688,2.661,4.688c1.554,0,2.581-1.078,2.581-4.082C75.714,21.379,74.766,20.404,73.054,20.404z"/>
					<path fill="#FFFFFF" d="M99.022,31.388h-3.397c0-2.66,0.078-5.372,0.078-6.9c0-3.16-0.58-3.871-1.711-3.871
						c-0.685,0-1.633,0.5-2.503,1.185c0.08,0.422,0.132,1.026,0.132,1.975v7.612H88.25v-6.9c0-3.108-0.579-3.871-1.685-3.871
						c-0.632,0-1.502,0.42-2.371,1.08v9.692h-3.398V18.193h2.793l0.236,1.395c1.053-0.975,2.397-1.685,3.898-1.685
						c1.633,0,2.712,0.816,3.213,1.896c1.265-1.132,2.634-1.896,4.214-1.896c2.581,0,3.95,1.685,3.95,5.952
						C99.101,25.487,99.022,28.491,99.022,31.388z"/>
					<path fill="#FFFFFF" d="M121.751,31.388l-0.237-1.344c-1.133,0.975-2.344,1.633-4.029,1.633c-2.66,0-4.083-1.316-4.083-3.766
						c0-2.739,2.187-4.556,6.796-4.556h0.816v-1c0-1.344-0.764-2.002-2.45-2.002c-1.369,0-2.817,0.37-4.003,0.79l-0.447-2.055
						c1.553-0.685,3.345-1.184,5.319-1.184c3.371,0,4.925,1.606,4.925,4.109v9.375H121.751z M121.014,25.409h-1.001
						c-2.582,0-3.292,0.869-3.292,2.08c0,1.106,0.606,1.792,1.765,1.792c0.816,0,1.712-0.447,2.528-1.16V25.409z"/>
					<path fill="#FFFFFF" d="M133.839,21.195c-0.553-0.158-0.896-0.185-1.159-0.185c-0.738,0-1.369,0.5-2.554,2.002v8.375h-3.398
						V18.193h2.792l0.264,2.055c1.342-1.765,2.238-2.318,3.186-2.318c0.396,0,0.843,0.078,1.291,0.29L133.839,21.195z"/>
					<path fill="#FFFFFF" d="M137.635,25.462v0.184c0,2.424,1.078,3.451,2.949,3.451c1.185,0,2.738-0.237,4.292-0.764l0.474,1.948
						c-1.605,0.843-3.502,1.396-5.425,1.396c-3.479,0-5.743-1.711-5.743-6.531c0-4.714,2.265-7.242,5.979-7.242
						c3.371,0,5.609,1.896,5.268,7.559H137.635z M142.162,23.303c0-2.108-0.736-3.135-2.16-3.135c-1.447,0-2.238,1.343-2.342,3.187
						h4.502V23.303z"/>
				</g>
			</g>
		</g>
	</g>
	<g>
		<path fill-rule="evenodd" clip-rule="evenodd" fill="#12B24C" d="M14.663,7.476c0,0-3.949-0.587-5.123,4.162
			c0,0-0.16,1.494-0.16,2.401c0,0.907-1.227,4.269-1.921,5.123c-0.693,0.854-2.614,6.03-2.241,10.886c0,0,0.068,0.205,0.16,0.479
			c0.091,0.274,0.091,3.271,0.16,3.362c0.069,0.092,0.023,0.16,0.641,0.641c0,0,0.251,0.549,0.16,1.921c0,0,0.091,0.434,0.64,0.8
			c0,0,0,1.189,0.161,1.761c0,0,0.388,1.007-0.641,0.961l-4.322-0.16c0,0,0.366,0.641,2.241,0.8c0,0,1.075,0.206,1.921,0.961
			c0,0,0.938,0.961,1.601,0.961c0,0,0.846,0.183,1.121-0.801c0,0,0.251,0.801,1.121,0.801h10.565c0,0,0.64-0.092,0.64-0.32
			c0,0-0.183-0.847-1.441-0.961h-1.92c0,0-0.847,0-0.32-0.8c0,0,1.578-2.081,1.441-4.963c0,0-0.229-2.973-3.522-1.28
			c0,0,0.32-2.539,0-4.643c0,0-0.869-1.967-0.161-3.361h5.764c0,0,0.869,0.571,1.76,0c0,0,0.298-0.321-0.16-0.801
			c0,0,0.571-0.32,0.64-0.48c0,0,0.046-0.32-0.799-0.48l-2.722-0.801c0,0-0.412-0.32-2.241-0.32h-1.601c0,0-0.48,0.115-0.48-0.32
			c0,0-0.046-1.807-0.48-3.042c0,0-0.823-2.562-0.48-4.002c0,0,0.457-1.852,2.721-1.12L18.665,15c0,0,1.258,0.32,2.241-0.48
			c0,0,1.899,0.48,1.921-0.96c0,0-0.137-0.458-0.96-0.961c0,0-1.624-1.486-2.241-2.401C19.625,10.197,17.888,8.024,14.663,7.476z"/>
		<path fill-rule="evenodd" clip-rule="evenodd" fill="#1F4596" d="M30.484,10.197c-0.617,0.915-2.241,2.401-2.241,2.401
			c-0.823,0.503-0.96,0.961-0.96,0.961c0.022,1.44,1.921,0.96,1.921,0.96c0.983,0.8,2.241,0.48,2.241,0.48l1.281-0.16
			c2.264-0.732,2.721,1.12,2.721,1.12c0.343,1.441-0.48,4.002-0.48,4.002c-0.434,1.235-0.48,3.042-0.48,3.042
			c0,0.435-0.48,0.32-0.48,0.32h-1.601c-1.829,0-2.241,0.32-2.241,0.32l-2.722,0.801c-0.846,0.16-0.8,0.48-0.8,0.48
			c0.068,0.16,0.64,0.48,0.64,0.48c-0.458,0.479-0.16,0.801-0.16,0.801c0.892,0.571,1.761,0,1.761,0h5.763
			c0.708,1.395-0.161,3.361-0.161,3.361c-0.32,2.104,0,4.643,0,4.643c-3.292-1.692-3.521,1.28-3.521,1.28
			c-0.137,2.882,1.44,4.963,1.44,4.963c0.526,0.8-0.32,0.8-0.32,0.8h-1.92c-1.258,0.114-1.441,0.961-1.441,0.961
			c0,0.229,0.64,0.32,0.64,0.32h10.565c0.869,0,1.121-0.801,1.121-0.801c0.274,0.983,1.12,0.801,1.12,0.801
			c0.663,0,1.601-0.961,1.601-0.961c0.846-0.755,1.921-0.961,1.921-0.961c1.875-0.159,2.24-0.8,2.24-0.8l-4.322,0.16
			c-1.029,0.046-0.641-0.961-0.641-0.961c0.161-0.571,0.161-1.761,0.161-1.761c0.548-0.366,0.64-0.8,0.64-0.8
			c-0.092-1.372,0.16-1.921,0.16-1.921c0.617-0.48,0.571-0.549,0.64-0.641c0.068-0.092,0.068-3.088,0.16-3.362
			c0.091-0.274,0.16-0.479,0.16-0.479c0.374-4.856-1.547-10.032-2.241-10.886c-0.694-0.854-1.921-4.215-1.921-5.123
			c0-0.907-0.16-2.401-0.16-2.401c-1.174-4.75-5.123-4.162-5.123-4.162C32.222,8.024,30.484,10.197,30.484,10.197z"/>
	</g>
	<g>
		<g>
			<g>
				<path fill="#FFFFFF" d="M342.566,18.912v3.37h-0.459v-3.37h-0.969v-0.365h2.4v0.365H342.566z"/>
				<path fill="#FFFFFF" d="M347.336,22.282c-0.022-1.156-0.111-2.396-0.209-3.155h-0.007l-1.057,3.155h-0.35l-1.062-3.155h-0.006
					c-0.071,0.831-0.127,1.999-0.144,3.155h-0.447c0.027-1.195,0.12-2.535,0.275-3.735h0.593l1.012,2.96h0.007l1.012-2.96h0.575
					c0.149,1.2,0.26,2.54,0.294,3.735H347.336z"/>
			</g>
			<g>
				<path fill="#FFFFFF" d="M268.482,31.609c-1.125,0-1.362-0.289-1.362-1.337c0-1.101,0.237-1.389,1.362-1.389
					c1.101,0,1.337,0.288,1.337,1.336C269.819,31.32,269.583,31.609,268.482,31.609z"/>
				<path fill="#FFFFFF" d="M275.736,31.609c-3.145,0-4.899-2.176-4.899-6.525c0-4.247,2.149-6.893,5.294-6.893
					c1.414,0,2.567,0.577,3.484,1.598l-0.812,1.075c-0.786-0.708-1.624-1.075-2.568-1.075c-2.07,0-3.224,1.86-3.224,4.979
					c0,3.486,1.048,5.215,3.145,5.215c1.075,0,2.044-0.393,3.04-1.363l0.761,1.074C278.908,30.822,277.598,31.609,275.736,31.609z"
					/>
				<path fill="#FFFFFF" d="M286.457,31.609c-3.118,0-5.215-1.729-5.215-6.421c0-4.77,2.306-6.997,5.793-6.997
					c3.117,0,5.214,1.756,5.214,6.395C292.249,29.381,289.942,31.609,286.457,31.609z M286.692,19.79
					c-2.068,0-3.301,1.52-3.301,4.796c0,3.983,1.074,5.45,3.407,5.45c2.043,0,3.302-1.52,3.302-4.848
					C290.101,21.257,289.026,19.79,286.692,19.79z"/>
				<path fill="#FFFFFF" d="M311.382,31.399h-2.069c0-2.358,0.077-5.136,0.077-6.945c0-3.38-0.864-4.587-2.331-4.587
					c-0.918,0-2.202,0.761-3.304,1.731c0.106,0.523,0.211,1.126,0.211,2.306v7.495h-2.071v-6.945c0-3.329-0.838-4.587-2.307-4.587
					c-0.838,0-1.99,0.629-3.092,1.547v9.985h-2.069V18.401h1.702l0.184,1.546c1.074-0.944,2.49-1.756,3.984-1.756
					c1.65,0,2.646,0.996,3.065,2.07c1.336-1.153,2.778-2.07,4.403-2.07c2.228,0,3.695,1.52,3.695,5.766
					C311.461,25.713,311.382,28.806,311.382,31.399z"/>
			</g>
			<g>
				<path fill="#FFFFFF" d="M314.475,31.597c-1.119,0-1.354-0.285-1.354-1.327c0-1.093,0.234-1.379,1.354-1.379
					c1.093,0,1.328,0.286,1.328,1.327C315.803,31.312,315.567,31.597,314.475,31.597z"/>
				<path fill="#FFFFFF" d="M325.408,31.39l-0.182-1.458c-1.197,0.988-2.42,1.665-4.061,1.665c-2.446,0-3.749-1.274-3.749-3.461
					c0-2.578,1.953-4.321,6.509-4.321h1.04v-1.354c0-1.796-0.858-2.629-2.914-2.629c-1.355,0-2.682,0.39-3.645,0.755l-0.339-1.328
					c1.197-0.495,2.76-0.989,4.607-0.989c3.15,0,4.347,1.614,4.347,3.878v9.241H325.408z M324.966,25.193h-1.223
					c-3.488,0-4.27,1.12-4.27,2.578c0,1.431,0.781,2.29,2.265,2.29c1.015,0,2.109-0.494,3.228-1.483V25.193z"/>
				<path fill="#FFFFFF" d="M337.825,31.39l-0.182-1.511c-1.198,1.041-2.577,1.718-4.062,1.718c-2.368,0-3.825-1.509-3.825-5.726
					c0-1.745,0.077-4.816,0.077-7.393h2.057c0,2.343-0.078,5.103-0.078,6.925c0,3.357,0.858,4.528,2.473,4.528
					c0.938,0,2.082-0.625,3.176-1.51v-9.944h2.056V31.39H337.825z"/>
			</g>
		</g>
		<g>
			<path fill="#FFFFFF" d="M198.123,31.664h-3.397c0-2.66,0.078-5.372,0.078-6.9c0-3.16-0.58-3.872-1.71-3.872
				c-0.687,0-1.633,0.5-2.504,1.185c0.08,0.422,0.133,1.027,0.133,1.975v7.612h-3.371v-6.9c0-3.108-0.58-3.872-1.685-3.872
				c-0.632,0-1.5,0.421-2.371,1.08v9.692h-3.397V18.469h2.792l0.236,1.395c1.054-0.975,2.396-1.685,3.898-1.685
				c1.633,0,2.712,0.816,3.213,1.897c1.264-1.132,2.634-1.897,4.213-1.897c2.58,0,3.95,1.685,3.95,5.953
				C198.201,25.764,198.123,28.768,198.123,31.664z"/>
			<path fill="#FFFFFF" d="M253.431,31.374l-0.236-1.343c-1.134,0.974-2.345,1.633-4.029,1.633c-2.662,0-4.083-1.316-4.083-3.767
				c0-2.739,2.186-4.556,6.795-4.556h0.815v-1c0-1.344-0.764-2.002-2.449-2.002c-1.368,0-2.816,0.369-4.004,0.79l-0.445-2.055
				c1.553-0.684,3.344-1.184,5.319-1.184c3.371,0,4.924,1.606,4.924,4.109v9.375H253.431z M252.692,25.396h-1
				c-2.581,0-3.292,0.868-3.292,2.079c0,1.106,0.605,1.793,1.764,1.793c0.817,0,1.713-0.448,2.528-1.16V25.396z"/>
			<path fill="#FFFFFF" d="M232.165,21.471c-0.555-0.157-0.896-0.185-1.16-0.185c-0.736,0-1.368,0.5-2.554,2.002v8.375h-3.397
				V18.469h2.791l0.264,2.055c1.343-1.765,2.239-2.318,3.188-2.318c0.395,0,0.841,0.078,1.29,0.29L232.165,21.471z"/>
			<path fill="#FFFFFF" d="M240.804,31.664l-3.529-6.531v6.531h-3.398V16.273h3.398v7.28l3.027-5.083h3.952l-3.926,5.504l4.452,7.69
				H240.804z"/>
			<path fill="#FFFFFF" d="M203.206,25.448v0.185c0,2.423,1.08,3.451,2.95,3.451c1.186,0,2.739-0.237,4.293-0.764l0.475,1.948
				c-1.607,0.842-3.504,1.396-5.426,1.396c-3.479,0-5.742-1.712-5.742-6.532c0-4.714,2.264-7.242,5.979-7.242
				c3.371,0,5.61,1.896,5.269,7.559H203.206z M207.736,23.289c0-2.107-0.736-3.134-2.16-3.134c-1.448,0-2.237,1.342-2.344,3.186
				h4.504V23.289z"/>
			<path fill="#FFFFFF" d="M216.085,25.448v0.185c0,2.423,1.08,3.451,2.95,3.451c1.186,0,2.739-0.237,4.293-0.764l0.475,1.948
				c-1.607,0.842-3.504,1.396-5.426,1.396c-3.479,0-5.741-1.712-5.741-6.532c0-4.714,2.263-7.242,5.978-7.242
				c3.371,0,5.61,1.896,5.269,7.559H216.085z M220.615,23.289c0-2.107-0.736-3.134-2.16-3.134c-1.448,0-2.237,1.342-2.343,3.186
				h4.503V23.289z"/>
			<path fill="#FFFFFF" d="M261.717,31.664c-2.449,0-3.346-0.923-3.346-3.451v-7.639h-1.685v-2.37h1.793
				c0.314-1.185,0.551-0.722,0.815-2.196h2.449v2.196h2.923v2.37h-2.923v6.796c0,1.344,0.315,1.765,1.212,1.765
				c0.394,0,0.948-0.052,1.79-0.289l0.263,1.948C263.772,31.426,262.72,31.664,261.717,31.664z"/>
		</g>
	</g>
</g>
</svg>
