<svg id="outline" xmlns="http://www.w3.org/2000/svg" viewBox="0 0 32 32"><defs><style>.cls-1{fill:#0db14b;}.cls-2{fill:#fff;}</style></defs><title>money-symbol</title><circle class="cls-1" cx="16" cy="16" r="13"/><path class="cls-2" d="M16.85,23.07v2.49H14.69V23.22a17.38,17.38,0,0,1-2.84-.28l.24-2.7a9.28,9.28,0,0,0,3,.49c1.48,0,2.51-.56,2.51-1.76,0-2.51-6.27-1.41-6.27-6.17A4.29,4.29,0,0,1,15,8.67V6.44h2.14V8.5a13.81,13.81,0,0,1,2.44.28l-.26,2.56a9,9,0,0,0-2.58-.4c-1.71,0-2.35.75-2.35,1.57,0,2.35,6.34,1.5,6.34,6.15A4.59,4.59,0,0,1,16.85,23.07Z"/></svg>