<svg width="110" height="110" viewBox="0 0 110 110" fill="none" xmlns="http://www.w3.org/2000/svg">
<path d="M8.67781 31.0449C-2.3179 68.3871 42.8255 69.6538 54.7841 95.4633C60.1099 106.951 70.7826 114.415 84.0799 104.446C100.26 92.299 83.799 79.8258 80.5296 66.657C74.9125 44.0506 115.567 24.633 81.7226 5.60616C60.1208 -6.5439 16.327 5.31857 8.67781 31.0449Z" fill="url(#paint0_linear)"/>
<path d="M30.5788 86.1958C30.281 86.1958 29.9954 86.0775 29.7848 85.8669C29.5742 85.6564 29.4559 85.3707 29.4559 85.0729C29.4383 84.7264 29.2881 84.3999 29.0364 84.161C28.7847 83.9221 28.4508 83.7891 28.1038 83.7896C27.9585 83.7927 27.8141 83.7664 27.6792 83.7122C27.5443 83.658 27.4218 83.5771 27.319 83.4744C27.2163 83.3716 27.1354 83.2491 27.0812 83.1142C27.027 82.9793 27.0007 82.8349 27.0038 82.6896C26.9911 82.5376 27.0101 82.3847 27.0597 82.2404C27.1093 82.0962 27.1883 81.9639 27.2917 81.8518C27.3952 81.7397 27.5208 81.6504 27.6606 81.5895C27.8004 81.5286 27.9513 81.4974 28.1038 81.4979C28.2822 81.501 28.4594 81.4682 28.6249 81.4013C28.7903 81.3345 28.9406 81.235 29.0668 81.1088C29.193 80.9826 29.2925 80.8323 29.3593 80.6669C29.4262 80.5015 29.459 80.3242 29.4559 80.1458C29.4559 79.8419 29.5766 79.5505 29.7915 79.3356C30.0064 79.1207 30.2978 79 30.6017 79C30.9056 79 31.1971 79.1207 31.412 79.3356C31.6269 79.5505 31.7476 79.8419 31.7476 80.1458C31.7445 80.3223 31.7767 80.4976 31.8421 80.6615C31.9075 80.8254 32.005 80.9747 32.1287 81.1005C32.2524 81.2264 32.4 81.3264 32.5627 81.3946C32.7255 81.4628 32.9002 81.4979 33.0767 81.4979C33.3746 81.4979 33.6602 81.6162 33.8708 81.8268C34.0813 82.0374 34.1997 82.323 34.1997 82.6208C34.1997 82.7672 34.1705 82.9122 34.1138 83.0471C34.0571 83.1821 33.974 83.3044 33.8694 83.4069C33.7648 83.5093 33.6408 83.5899 33.5047 83.6438C33.3686 83.6977 33.2231 83.7239 33.0767 83.7208C32.7221 83.7268 32.3841 83.8719 32.1355 84.1249C31.8868 84.3778 31.7475 84.7183 31.7476 85.0729C31.7477 85.2243 31.7172 85.3742 31.6579 85.5135C31.5987 85.6528 31.5118 85.7787 31.4026 85.8836C31.2935 85.9885 31.1642 86.0702 31.0226 86.1239C30.8811 86.1775 30.7301 86.202 30.5788 86.1958Z" fill="#114D94"/>
<path d="M57.2711 11.9417C57.1157 11.9452 56.9613 11.9164 56.8177 11.8571C56.6741 11.7978 56.5443 11.7094 56.4366 11.5974C56.3289 11.4854 56.2456 11.3522 56.192 11.2064C56.1384 11.0605 56.1157 10.9051 56.1252 10.75C56.1192 10.3954 55.9741 10.0574 55.7212 9.80876C55.4683 9.56013 55.1278 9.42083 54.7732 9.42088C54.4693 9.42088 54.1778 9.30016 53.9629 9.08528C53.748 8.87039 53.6273 8.57894 53.6273 8.27505C53.6273 7.97115 53.748 7.67971 53.9629 7.46482C54.1778 7.24994 54.4693 7.12922 54.7732 7.12922C55.1091 7.13096 55.4338 7.00753 55.6837 6.78299C55.9337 6.55845 56.0911 6.24889 56.1252 5.91463C56.1252 5.61074 56.246 5.31929 56.4608 5.10441C56.6757 4.88952 56.9672 4.7688 57.2711 4.7688C57.575 4.7688 57.8664 4.88952 58.0813 5.10441C58.2962 5.31929 58.4169 5.61074 58.4169 5.91463C58.4229 6.26924 58.568 6.60729 58.8209 6.85592C59.0739 7.10455 59.4143 7.24385 59.769 7.2438C60.0729 7.2438 60.3643 7.36452 60.5792 7.57941C60.7941 7.79429 60.9148 8.08574 60.9148 8.38963C60.9148 8.69353 60.7941 8.98497 60.5792 9.19986C60.3643 9.41474 60.0729 9.53546 59.769 9.53546C59.433 9.53372 59.1084 9.65715 58.8584 9.88169C58.6085 10.1062 58.4511 10.4158 58.4169 10.75C58.4265 10.9051 58.4037 11.0605 58.3501 11.2064C58.2965 11.3522 58.2132 11.4854 58.1055 11.5974C57.9978 11.7094 57.8681 11.7978 57.7244 11.8571C57.5808 11.9164 57.4264 11.9452 57.2711 11.9417Z" fill="#329B47"/>
<path d="M67.8814 99.2312C67.735 99.2342 67.5895 99.208 67.4534 99.1541C67.3173 99.1002 67.1933 99.0197 67.0887 98.9172C66.9841 98.8148 66.901 98.6925 66.8443 98.5575C66.7876 98.4225 66.7584 98.2776 66.7584 98.1312C66.7615 97.9547 66.7294 97.7794 66.6639 97.6155C66.5985 97.4516 66.5011 97.3023 66.3773 97.1765C66.2536 97.0506 66.1061 96.9507 65.9433 96.8824C65.7805 96.8142 65.6058 96.7791 65.4293 96.7791C65.1254 96.7791 64.8339 96.6584 64.6191 96.4435C64.4042 96.2286 64.2834 95.9372 64.2834 95.6333C64.2834 95.3294 64.4042 95.0379 64.6191 94.8231C64.8339 94.6082 65.1254 94.4875 65.4293 94.4875C65.7818 94.4875 66.1199 94.3474 66.3691 94.0981C66.6184 93.8489 66.7584 93.5108 66.7584 93.1583C66.7584 92.8544 66.8792 92.5629 67.0941 92.3481C67.3089 92.1332 67.6004 92.0125 67.9043 92.0125C68.2082 92.0125 68.4996 92.1332 68.7145 92.3481C68.9294 92.5629 69.0501 92.8544 69.0501 93.1583C69.0501 93.3348 69.0852 93.5095 69.1534 93.6723C69.2217 93.8351 69.3216 93.9826 69.4475 94.1063C69.5733 94.2301 69.7226 94.3275 69.8865 94.3929C70.0504 94.4584 70.2257 94.4905 70.4022 94.4875C70.7061 94.4875 70.9975 94.6082 71.2124 94.8231C71.4273 95.0379 71.548 95.3294 71.548 95.6333C71.548 95.9372 71.4273 96.2286 71.2124 96.4435C70.9975 96.6584 70.7061 96.7791 70.4022 96.7791C70.2238 96.776 70.0466 96.8089 69.8811 96.8757C69.7157 96.9426 69.5654 97.042 69.4392 97.1682C69.313 97.2944 69.2136 97.4447 69.1467 97.6101C69.0799 97.7756 69.047 97.9528 69.0501 98.1312C69.0504 98.2816 69.0198 98.4305 68.9603 98.5687C68.9008 98.7068 68.8136 98.8313 68.704 98.9344C68.5945 99.0375 68.465 99.117 68.3235 99.1681C68.182 99.2191 68.0315 99.2406 67.8814 99.2312Z" fill="#329B47"/>
<path d="M15.448 54.6583C15.2964 54.6545 15.1473 54.6201 15.0094 54.557C14.8716 54.494 14.7479 54.4038 14.6459 54.2917L12.1938 51.8625C11.9853 51.6522 11.8683 51.368 11.8683 51.0719C11.8683 50.7757 11.9853 50.4916 12.1938 50.2813L14.6459 47.8292C14.8562 47.6207 15.1404 47.5037 15.4365 47.5037C15.7327 47.5037 16.0168 47.6207 16.2271 47.8292L18.7021 50.2813C18.9106 50.4916 19.0276 50.7757 19.0276 51.0719C19.0276 51.368 18.9106 51.6522 18.7021 51.8625L16.2271 54.2917C16.1304 54.4042 16.011 54.495 15.8767 54.5582C15.7424 54.6214 15.5963 54.6555 15.448 54.6583ZM14.5771 51.0833L15.448 51.9542L16.3188 51.0833L15.448 50.1896L14.5771 51.0833Z" fill="#E7EFF9"/>
<path d="M91.7604 18.1751C91.6153 18.1795 91.4708 18.1532 91.3365 18.0979C91.2023 18.0426 91.0812 17.9596 90.9812 17.8542L88.5062 15.3334C88.3263 15.13 88.2212 14.8713 88.2083 14.6001C88.208 14.4555 88.2361 14.3122 88.2912 14.1785C88.3462 14.0448 88.4271 13.9233 88.5291 13.8209L91.0041 11.3459C91.2145 11.1374 91.4986 11.0204 91.7948 11.0204C92.0909 11.0204 92.3751 11.1374 92.5854 11.3459L95.0833 13.8209C95.1854 13.9233 95.2662 14.0448 95.3213 14.1785C95.3763 14.3122 95.4045 14.4555 95.4041 14.6001C95.3849 14.8742 95.2716 15.1333 95.0833 15.3334L92.5625 17.8542C92.4582 17.9602 92.3331 18.0434 92.195 18.0986C92.057 18.1538 91.909 18.1798 91.7604 18.1751ZM90.8896 14.6001L91.7604 15.4709L92.6312 14.6001L91.7604 13.7292L90.8896 14.6001Z" fill="#114D94"/>
<path d="M103.082 32.9569C102.946 32.9592 102.811 32.9341 102.685 32.8829C102.559 32.8317 102.445 32.7555 102.349 32.6589L101.043 31.3527L99.7365 32.6589C99.6443 32.7582 99.5326 32.8374 99.4084 32.8915C99.2842 32.9456 99.1501 32.9736 99.0146 32.9736C98.8791 32.9736 98.7451 32.9456 98.6209 32.8915C98.4967 32.8374 98.385 32.7582 98.2928 32.6589C98.1052 32.47 98 32.2147 98 31.9485C98 31.6824 98.1052 31.427 98.2928 31.2381L100.332 29.3131C100.423 29.2144 100.532 29.1357 100.655 29.0817C100.777 29.0278 100.909 29 101.043 29C101.176 29 101.309 29.0278 101.431 29.0817C101.553 29.1357 101.663 29.2144 101.753 29.3131L103.793 31.3527C103.891 31.4429 103.97 31.5526 104.024 31.6749C104.078 31.7972 104.106 31.9294 104.106 32.0631C104.106 32.1968 104.078 32.329 104.024 32.4513C103.97 32.5736 103.891 32.6833 103.793 32.7735C103.588 32.9238 103.334 32.9895 103.082 32.9569Z" fill="#282D6A"/>
<path fill-rule="evenodd" clip-rule="evenodd" d="M53.3926 73.2922C67.7814 73.2922 79.4459 61.6277 79.4459 47.2389C79.4459 32.8501 67.7814 21.1857 53.3926 21.1857C39.0038 21.1857 27.3394 32.8501 27.3394 47.2389C27.3394 61.6277 39.0038 73.2922 53.3926 73.2922Z" fill="#F3F7FF"/>
<path fill-rule="evenodd" clip-rule="evenodd" d="M26.3394 47.2389C26.3394 32.2978 38.4515 20.1857 53.3926 20.1857C68.3337 20.1857 80.4459 32.2978 80.4459 47.2389C80.4459 62.18 68.3337 74.2922 53.3926 74.2922C38.4515 74.2922 26.3394 62.18 26.3394 47.2389ZM53.3926 22.1857C39.5561 22.1857 28.3394 33.4024 28.3394 47.2389C28.3394 61.0754 39.5561 72.2922 53.3926 72.2922C67.2291 72.2922 78.4459 61.0754 78.4459 47.2389C78.4459 33.4024 67.2291 22.1857 53.3926 22.1857Z" fill="#114D94"/>
<path fill-rule="evenodd" clip-rule="evenodd" d="M44.7677 27.4197C47.4109 26.2679 50.3284 25.6296 53.3923 25.6296C65.3268 25.6296 75.0016 35.3044 75.0016 47.2389C75.0016 59.1662 65.5592 68.8482 53.3923 68.8482C41.2374 68.8482 31.783 59.5572 31.783 47.2389C31.783 43.6996 32.6347 40.3563 34.1451 37.4056C36.4164 32.9684 40.1763 29.4203 44.7677 27.4197ZM53.3923 27.6296C50.6084 27.6296 47.9625 28.2092 45.5666 29.2532C41.4009 31.0683 37.9869 34.2895 35.9254 38.3169C34.556 40.9921 33.783 44.0238 33.783 47.2389C33.783 58.4428 42.3322 66.8482 53.3923 66.8482C64.4404 66.8482 73.0016 58.076 73.0016 47.2389C73.0016 36.409 64.2222 27.6296 53.3923 27.6296Z" fill="#114D94"/>
<path fill-rule="evenodd" clip-rule="evenodd" d="M49.5829 32.1572C50.9224 31.7945 52.3304 31.6013 53.7815 31.6013C54.4718 31.6013 55.0315 32.161 55.0315 32.8513C55.0315 33.5417 54.4718 34.1013 53.7815 34.1013C52.5531 34.1013 51.3648 34.2647 50.2363 34.5703C44.4845 36.1279 40.255 41.3855 40.255 47.6278C40.255 48.3181 39.6954 48.8778 39.005 48.8778C38.3146 48.8778 37.755 48.3181 37.755 47.6278C37.755 40.2279 42.7691 34.0024 49.5829 32.1572Z" fill="#91BBE4"/>
<path fill-rule="evenodd" clip-rule="evenodd" d="M79.1161 73.8839L71.1161 65.8839L72.8839 64.1161L80.8839 72.1161L79.1161 73.8839Z" fill="#114D94"/>
<path fill-rule="evenodd" clip-rule="evenodd" d="M78.5251 71.5251C79.892 70.1583 82.108 70.1583 83.4749 71.5251L93.4749 81.5251C94.8417 82.892 94.8417 85.108 93.4749 86.4749C92.108 87.8417 89.892 87.8417 88.5251 86.4749L78.5251 76.4749C77.1583 75.108 77.1583 72.892 78.5251 71.5251Z" fill="#D2AD2B"/>
<path fill-rule="evenodd" clip-rule="evenodd" d="M81.1161 72.1161C81.6043 71.628 82.3957 71.628 82.8839 72.1161L92.8839 82.1161C93.372 82.6043 93.372 83.3957 92.8839 83.8839C92.3957 84.372 91.6043 84.372 91.1161 83.8839L81.1161 73.8839C80.628 73.3957 80.628 72.6043 81.1161 72.1161Z" fill="white"/>
<path fill-rule="evenodd" clip-rule="evenodd" d="M92.1372 81.26L83.5161 72.6389C82.4455 71.5683 80.7097 71.5683 79.6392 72.6389C78.5686 73.7094 78.5686 75.4452 79.6392 76.5158L88.2603 85.1369C89.3309 86.2075 91.0666 86.2075 92.1372 85.1369C93.2078 84.0663 93.2078 82.3306 92.1372 81.26ZM78.225 71.2247C76.3733 73.0763 76.3733 76.0784 78.225 77.93L86.8461 86.5511C88.6977 88.4027 91.6998 88.4027 93.5514 86.5511C95.403 84.6995 95.403 81.6974 93.5514 79.8458L84.9303 71.2247C83.0787 69.373 80.0766 69.373 78.225 71.2247Z" fill="#114D94"/>
<defs>
<linearGradient id="paint0_linear" x1="11.3765" y1="24.6684" x2="103.282" y2="71.8108" gradientUnits="userSpaceOnUse">
<stop offset="0.01" stop-color="#8AB4E0"/>
<stop offset="0.99" stop-color="#8AB4E0" stop-opacity="0"/>
</linearGradient>
</defs>
</svg>
