<?xml version="1.0" encoding="utf-8"?>
<!-- Generator: Adobe Illustrator 16.0.0, SVG Export Plug-In . SVG Version: 6.00 Build 0)  -->
<!DOCTYPE svg PUBLIC "-//W3C//DTD SVG 1.1//EN" "http://www.w3.org/Graphics/SVG/1.1/DTD/svg11.dtd">
<svg version="1.1" id="Layer_1" xmlns="http://www.w3.org/2000/svg" xmlns:xlink="http://www.w3.org/1999/xlink" x="0px" y="0px"
	 width="407.799px" height="413.798px" viewBox="0 0 407.799 413.798" enable-background="new 0 0 407.799 413.798"
	 xml:space="preserve">
<g>
	<defs>
		<rect id="SVGID_1_" width="407.799" height="413.798"/>
	</defs>
	<clipPath id="SVGID_2_">
		<use xlink:href="#SVGID_1_"  overflow="visible"/>
	</clipPath>
	<path clip-path="url(#SVGID_2_)" fill="#FFFFFF" d="M203.608,400.673c-14.943-2.197-26.465-8.98-37.609-15.54
		c-1.11-0.654-2.221-1.31-3.337-1.959c-3.123-2.024-7.107-4.659-10.946-7.534c-50.535-37.823-102.28-112.559-120.364-173.841
		c-14.256-48.312-12.62-85.112-11.537-109.463c0.102-2.306,0.199-4.49,0.276-6.551c0.102-2.718,0.195-14.319,0.255-23.496
		c0.053-8.018,6.304-14.39,14.232-14.39h10.685c51.6,0,89.187-9.325,111.632-17.224c24.313-8.557,36.588-17.271,36.709-17.357
		l0.522-0.419h19.205l0.424,0.214c0.692,0.348,70.013,34.786,148.212,34.786h10.685c7.928,0,14.179,6.372,14.231,14.39
		c0.05,7.466,0.147,20.468,0.256,23.363c1.031,27.654,0.509,63.075-11.203,115.947c-13.033,58.835-64.647,133.694-120.06,174.114
		c-3.906,2.85-7.455,5.29-10.849,7.445c-13.45,8.775-25.55,15.119-40.819,17.509l-0.3,0.049L203.608,400.673z"/>
	<path clip-path="url(#SVGID_2_)" fill="#1F4199" d="M314.17,259.613c-0.909,1.115-2.05,1.781-3.337,2.091
		c-2.445,0.586-4.905,1.145-7.387,1.538c-2.769,0.438-5.236,1.456-7.47,3.133c-1.978,1.487-4.004,2.911-5.999,4.376
		c-0.886,0.651-1.85,1.041-2.962,1.05c-0.383,0.003-0.773,0.021-1.146,0.103c-1.461,0.316-2.5-0.309-3.254-1.48
		c-0.433-0.672-0.762-1.409-1.129-2.103c-0.583-0.019-0.549,0.461-0.739,0.766c-0.469,0.751-0.885,1.571-1.5,2.184
		c-0.756,0.753-1.803,0.885-2.868,0.826c-3.066-0.167-6.135-0.311-9.204-0.454c-3.503-0.163-6.994,0.032-10.487,0.294
		c-1.136,0.086-2.293-0.19-3.44-0.193c-1.619-0.004-3.242,0.044-4.856,0.16c-2.48,0.178-4.929,0.048-7.401-0.251
		c-1.624-0.197-3.31,0.104-4.966,0.183c-0.638,0.03-1.273,0.062-1.91,0.083c-1.615,0.054-3.233,0.059-4.846,0.162
		c-2.153,0.138-4.267,0.035-6.304-0.746c-1.263-0.485-1.392-1.168-0.314-2.011c1.273-0.997,2.581-1.957,3.925-2.856
		c0.855-0.571,1.841-0.847,2.897-0.855c2.69-0.023,5.38-0.057,8.068-0.129c0.714-0.02,1.433-0.155,2.132-0.316
		c0.71-0.164,0.926-0.527,0.693-1.221c-0.241-0.721-0.568-1.418-0.922-2.093c-0.375-0.714-0.794-1.41-1.25-2.075
		c-1.28-1.87-2.034-4.007-2.977-6.034c-0.708-1.524-0.964-3.26-1.41-4.904c-0.346-1.277-0.662-2.561-1.013-3.836
		c-0.53-1.924-0.479-3.819-0.211-5.809c0.322-2.384,1.295-4.375,2.626-6.274c0.607-0.867,1.43-1.453,2.421-1.793
		c3.229-1.107,6.411-1.158,9.542,0.39c0.824,0.408,1.693,0.839,2.741,0.311c0-0.934,0.042-1.864-0.009-2.79
		c-0.086-1.533-0.21-3.066-0.358-4.595c-0.131-1.352-0.281-2.703-0.486-4.046c-0.274-1.802-0.138-3.55,0.375-5.304
		c0.261-0.89,0.269-1.85,0.438-2.77c0.461-2.503,0.932-5.004,1.429-7.5c0.182-0.912,0.504-1.799,0.661-2.714
		c0.353-2.059,0.11-3.989-1.455-5.559c-0.542-0.545-1.209-0.82-1.965-0.784c-0.935,0.044-1.866,0.195-2.802,0.229
		c-0.93,0.034-1.862-0.018-2.793-0.034c-0.042-0.001-0.084-0.023-0.126-0.024c-3.785-0.139-7.552-0.767-11.357-0.397
		c-0.931,0.09-1.876,0.069-2.813,0.057c-2.576-0.03-5.129,0.131-7.578,0.998c-1.729,0.611-3.367-0.037-5.04-0.231
		c-0.334-0.039-0.676-0.133-0.983-0.271c-0.855-0.384-1.075-1.208-0.534-1.998c0.24-0.35,0.553-0.649,0.81-0.989
		c0.505-0.666,0.428-1.132-0.328-1.547c-0.707-0.388-1.431-0.791-2.198-1.012c-1.219-0.35-1.235-1.828-0.243-2.353
		c0.82-0.433,1.701-0.759,2.573-1.081c1.195-0.439,2.437-0.763,3.606-1.257c1.546-0.652,3.195-0.845,4.794-1.26
		c1.887-0.49,3.771-0.99,5.649-1.513c1.596-0.444,3.155-1.069,4.775-1.346c1.234-0.211,2.559-0.133,3.81,0.044
		c2.621,0.372,5.229,0.729,7.88,0.405c0.509-0.062,1.02-0.092,1.529-0.131c1.819-0.139,2.798-1.17,2.799-2.962
		c0-0.469-0.005-0.94-0.043-1.407c-0.224-2.799,0.189-5.503,1.047-8.173c1.011-3.144,1.839-6.349,2.902-9.474
		c0.906-2.657,0.946-5.361,0.793-8.085c-0.064-1.171-0.437-2.324-0.669-3.485c-0.049-0.246-0.129-0.491-0.142-0.739
		c-0.159-2.973-1.62-4.646-4.604-5.278c-2.113-0.447-4.224-0.471-6.359-0.131c-2.105,0.334-4.228,0.566-6.34,0.863
		c-0.547,0.078-1.099,0.186-1.621,0.362c-2.866,0.963-5.554,0.311-8.188-0.866c-0.078-0.035-0.157-0.074-0.222-0.127
		c-1.785-1.445-3.86-1.666-6.049-1.474c-0.592,0.052-1.204,0.061-1.787-0.033c-2.286-0.367-4.03-2.53-3.896-4.848
		c0.022-0.378,0.274-0.776,0.508-1.101c1.07-1.487,2.645-2.385,4.081-3.449c1.298-0.961,2.545-1.991,3.808-3
		c0.632-0.505,1.303-0.976,1.856-1.557c0.877-0.92,1.714-1.886,2.489-2.893c1.349-1.756,2.623-3.569,3.958-5.336
		c0.753-0.997,1.663-1.817,2.838-2.323c2.942-1.268,5.535-3.18,8.379-4.614c1.995-1.007,4.143-1.726,6.26-2.469
		c1.436-0.503,2.934-0.83,4.407-1.223c0.244-0.066,0.505-0.082,0.759-0.101c3.206-0.241,6.431-0.269,9.545,0.528
		c2.594,0.664,5.174,1.649,7.116,3.566c1.347,1.329,2.419,2.968,3.45,4.574c1.103,1.715,2.043,3.538,2.991,5.347
		c0.309,0.591,0.476,1.274,0.61,1.934c0.34,1.663,0.602,3.342,0.936,5.006c0.475,2.373,0.991,4.737,1.477,7.108
		c0.104,0.5,0.261,1.023,0.208,1.516c-0.245,2.314,0.516,4.464,1.028,6.65c0.582,2.483,1.205,4.958,1.882,7.417
		c0.269,0.975,0.644,1.941,1.118,2.833c1.1,2.067,2.344,4.058,3.426,6.134c0.844,1.617,1.576,3.296,2.275,4.981
		c0.567,1.369,0.979,2.802,1.528,4.179c0.232,0.58,0.557,1.174,0.988,1.616c1.492,1.53,2.287,3.384,2.586,5.445
		c0.16,1.111,0.438,2.154,0.869,3.187c0.59,1.416,1.036,2.868,1.08,4.44c0.062,2.246,0.909,4.314,1.731,6.361
		c0.809,2.015,1.371,4.012,0.736,6.199c-0.477,1.639-0.156,3.319,0.017,4.961c0.239,2.289,0.622,4.566,1.021,6.834
		c0.196,1.11,0.091,2.114-0.499,3.071c-0.156,0.254-0.285,0.525-0.431,0.786c-0.655,1.175-0.997,2.395-0.969,3.78
		c0.097,4.701-0.277,9.383-0.83,14.049c-0.058,0.485-0.289,0.98-0.552,1.401c-0.288,0.466-0.682,0.875-1.072,1.266
		c-0.801,0.8-1.166,1.717-1.134,2.875c0.024,0.834-0.129,1.698-0.349,2.509c-0.263,0.972-0.39,1.93-0.17,2.905
		c0.287,1.277-0.081,2.357-0.878,3.336c-0.108,0.133-0.2,0.28-0.319,0.401c-2.084,2.138-2.559,4.728-2.114,7.568
		c0.153,0.987-0.272,1.83-0.625,2.688c-0.384,0.931-0.661,1.846-0.121,2.815c0.283,0.509,0.625,0.829,1.268,0.916
		c3.533,0.475,7.063,0.345,10.597,0.066c0.766-0.06,1.536-0.041,2.304-0.077c2.387-0.109,4.774-0.195,7.157-0.361
		C312.786,258.89,313.452,258.952,314.17,259.613"/>
	<path clip-path="url(#SVGID_2_)" fill="#0DB14B" d="M125.354,268.05c-0.19,0.364-0.369,0.734-0.573,1.091
		c-0.316,0.554-0.6,1.134-0.986,1.636c-0.582,0.758-1.381,1.074-2.359,1.03c-1.998-0.09-3.857-0.449-5.468-1.804
		c-1.368-1.151-2.946-2.052-4.317-3.2c-2.896-2.424-6.278-3.491-9.949-3.993c-2.018-0.275-4.007-0.812-5.985-1.321
		c-1.292-0.334-2.154-1.024-2.759-1.914c0.194-0.572,0.693-0.58,1.157-0.566c1.022,0.03,2.044,0.096,3.065,0.161
		c0.681,0.044,1.36,0.146,2.041,0.164c3.754,0.1,7.507,0.215,11.262,0.254c1.443,0.015,2.889-0.131,4.331-0.249
		c0.829-0.067,1.555-0.824,1.607-1.727c0.031-0.533-0.048-1.117-0.247-1.61c-0.484-1.206-0.697-2.386-0.617-3.722
		c0.088-1.462-0.228-2.95-0.42-4.419c-0.041-0.316-0.279-0.619-0.469-0.899c-0.263-0.388-0.54-0.773-0.858-1.116
		c-1.285-1.391-2.023-2.938-1.541-4.889c0.07-0.283,0.073-0.608,0.01-0.893c-0.361-1.626-0.592-3.26-0.647-4.93
		c-0.016-0.458-0.381-0.934-0.666-1.347c-0.313-0.454-0.712-0.851-1.086-1.261c-0.722-0.787-1.054-1.688-1.106-2.777
		c-0.098-2.041-0.38-4.074-0.487-6.115c-0.142-2.726-0.211-5.457-0.266-8.186c-0.021-0.993-0.406-1.858-0.92-2.622
		c-1.067-1.588-1.017-3.241-0.732-5.031c0.455-2.861,0.767-5.745,1.086-8.626c0.064-0.577-0.032-1.202-0.187-1.768
		c-0.641-2.345-0.209-4.593,0.65-6.762c0.913-2.305,1.717-4.585,1.704-7.134c-0.006-1.098,0.473-2.241,0.909-3.29
		c0.596-1.435,0.797-2.938,1.095-4.433c0.121-0.61,0.337-1.243,0.673-1.758c0.625-0.958,1.382-1.829,2.061-2.752
		c0.275-0.373,0.683-0.782,0.699-1.187c0.066-1.691,1.018-3.048,1.555-4.56c1.322-3.721,3.588-6.955,5.367-10.44
		c0.782-1.533,1.224-3.138,1.56-4.813c0.429-2.142,1.043-4.246,1.532-6.377c0.463-2.023,0.931-4.049,1.284-6.094
		c0.608-3.526,1.072-7.077,1.707-10.598c0.362-2.01,0.813-4.024,1.474-5.951c0.372-1.085,1.236-2.005,1.904-2.982
		c0.985-1.44,1.971-2.881,2.997-4.292c1.613-2.219,3.877-3.521,6.378-4.513c3.481-1.381,7.115-1.72,10.787-1.472
		c1.63,0.111,3.239,0.669,4.834,1.109c2.702,0.747,5.38,1.584,7.868,2.91c0.75,0.399,1.437,0.915,2.18,1.328
		c1.748,0.973,3.46,2.037,5.285,2.841c2.02,0.889,3.352,2.404,4.57,4.131c1.302,1.844,2.519,3.785,4.059,5.413
		c1.777,1.88,3.833,3.507,5.836,5.161c1.08,0.892,2.306,1.606,3.459,2.412c0.243,0.17,0.449,0.393,0.678,0.584
		c1.302,1.086,1.871,2.377,1.213,4.06c-0.685,1.751-1.902,2.818-3.802,2.966c-0.891,0.069-1.794,0.043-2.688-0.011
		c-1.501-0.092-2.867,0.212-4.12,1.084c-1.577,1.098-3.421,1.532-5.267,1.874c-0.69,0.127-1.468,0.074-2.152-0.104
		c-2.86-0.747-5.779-1.087-8.703-1.403c-1.481-0.161-2.972-0.427-4.449-0.376c-1.343,0.047-2.719,0.319-3.999,0.74
		c-2.503,0.822-3.486,2.341-3.565,4.988c-0.019,0.634-0.12,1.277-0.276,1.892c-0.434,1.704-0.663,3.429-0.579,5.182
		c0.107,2.218,0.54,4.377,1.218,6.498c0.997,3.115,1.906,6.258,2.89,9.378c0.821,2.607,0.966,5.261,0.723,7.96
		c-0.19,2.095,0.977,3.48,3.07,3.526c2.514,0.056,5.032,0.04,7.546-0.012c0.71-0.015,1.411-0.296,2.124-0.4
		c1.763-0.258,3.462-0.006,5.161,0.541c2.547,0.819,5.127,1.538,7.7,2.271c0.695,0.198,1.414,0.376,2.13,0.42
		c1.09,0.065,2.063,0.464,3.065,0.823c1.761,0.63,3.544,1.2,5.308,1.822c0.436,0.154,0.88,0.352,1.241,0.632
		c0.929,0.719,0.805,1.696-0.238,2.2c-0.69,0.333-1.397,0.638-2.065,1.011c-1.032,0.577-1.095,1.032-0.326,1.879
		c1.509,1.663,1.265,2.508-0.972,2.952c-1.916,0.38-3.812,0.611-5.793-0.058c-1.508-0.509-3.175-0.621-4.784-0.744
		c-2.167-0.165-4.35-0.295-6.518-0.217c-3.362,0.121-6.717,0.444-10.076,0.649c-0.803,0.049-1.615-0.014-2.421-0.06
		c-0.638-0.037-1.271-0.167-1.909-0.187c-2.426-0.079-4.113,1.573-4.282,4.036c-0.122,1.776,0.274,3.468,0.614,5.178
		c0.572,2.874,1.394,5.698,1.675,8.633c0.097,1.011,0.437,1.995,0.588,3.003c0.113,0.753,0.191,1.532,0.126,2.285
		c-0.184,2.161-0.458,4.313-0.676,6.472c-0.065,0.636-0.047,1.279-0.096,1.917c-0.086,1.105-0.206,2.208-0.29,3.313
		c-0.102,1.338,0.637,1.927,1.913,1.51c0.483-0.158,0.939-0.4,1.405-0.607c2.415-1.068,4.866-1.187,7.479-0.711
		c2.761,0.503,4.319,2.2,5.465,4.509c1.787,3.598,1.752,7.284,0.591,11.062c-0.626,2.035-1.073,4.126-1.608,6.189
		c-0.095,0.368-0.198,0.74-0.349,1.088c-1.238,2.848-2.517,5.673-4.24,8.275c-0.395,0.597-0.706,1.276-0.913,1.961
		c-0.28,0.925,0.008,1.385,0.976,1.472c2.034,0.182,4.077,0.285,6.117,0.38c1.279,0.06,2.562,0.072,3.842,0.057
		c1.346-0.015,2.483,0.485,3.535,1.271c0.956,0.714,1.93,1.401,2.895,2.104c0.172,0.125,0.35,0.248,0.502,0.396
		c0.69,0.678,0.613,1.372-0.317,1.67c-1.21,0.388-2.469,0.713-3.729,0.835c-1.129,0.109-2.289-0.106-3.436-0.154
		c-0.894-0.038-1.792-0.018-2.686-0.061c-1.914-0.095-3.826-0.228-5.741-0.313c-0.805-0.037-1.634-0.11-2.417,0.03
		c-3.06,0.549-6.121,0.388-9.193,0.198c-1.317-0.082-2.655-0.148-3.961-0.011c-1.97,0.207-3.914,0.046-5.876-0.031
		c-2.896-0.115-5.8-0.124-8.699-0.059c-2.641,0.061-5.278,0.286-7.918,0.426c-1.762,0.095-3.042-0.673-3.84-2.236
		c-0.283-0.555-0.528-1.128-0.79-1.693C125.603,268.052,125.479,268.051,125.354,268.05"/>
	<path clip-path="url(#SVGID_2_)" fill="#0DB14B" d="M385.14,85.589c-0.103-2.717-0.195-14.255-0.256-23.555
		c-0.046-6.913-5.508-12.488-12.232-12.488h-10.685c-79.618,0-149.11-34.278-149.11-34.278h-9.242V38.76h0.865
		c0,0,46.035,34.278,157.487,34.278c0,23.566,5.191,59.274-11.076,121.761c-16.268,62.486-79.609,151.393-137.412,176.388
		l-4.499,2.184l-5.365,1.666v11.746v11.745c14.762-2.335,27.242-8.752,40.243-17.231c3.602-2.289,7.201-4.751,10.791-7.369
		c53.848-39.279,106.243-113.934,119.31-172.92C386.303,145.278,386.015,109.023,385.14,85.589"/>
	<path clip-path="url(#SVGID_2_)" fill="#1C3F94" d="M203.708,375.037l-5.458-1.666l-4.499-2.185
		C135.948,346.192,72.607,257.285,56.339,194.798C40.071,132.312,45.263,96.604,45.263,73.037
		c111.452,0,157.487-34.278,157.487-34.278h0.958v-23.49h-8.94c0,0-48.85,34.278-149.505,34.278H34.578
		c-6.723,0-12.186,5.575-12.231,12.488c-0.061,9.3-0.155,20.837-0.256,23.555c-0.876,23.434-4.351,62.786,11.18,115.417
		c17.083,57.892,66.801,133.276,119.644,172.828c3.523,2.637,7.063,5.114,10.613,7.418c12.415,7.239,24.895,14.939,40.177,17.275
		c0,0,0.003-5.873,0.003-11.746V375.037z"/>
</g>
</svg>
