<?xml version="1.0" standalone="no"?>
<!DOCTYPE svg PUBLIC "-//W3C//DTD SVG 1.1//EN" "http://www.w3.org/Graphics/SVG/1.1/DTD/svg11.dtd" >
<svg xmlns="http://www.w3.org/2000/svg">
<metadata>Generated by IcoMoon</metadata>
<defs>
<font id="icomoon" horiz-adv-x="512">
<font-face units-per-em="512" ascent="480" descent="-32" />
<missing-glyph horiz-adv-x="512" />
<glyph unicode="&#x20;" d="" horiz-adv-x="256" />
<glyph unicode="&#xe600;" d="M493.284 401.206l-0.962 0.962c-26.291 26.291-68.903 26.323-95.226 0.032l-220.847-200.263-60.021 60.182c-26.291 26.356-68.966 26.387-95.29 0.064l-1.218-1.219c-26.323-26.323-26.323-68.966 0-95.258l108.532-108.371c0 0 0 0 0 0l0.481-0.481c26.323-26.291 68.966-26.291 95.258 0l269.262 249.063c26.324 26.323 26.324 68.966 0.032 95.29z" />
<glyph unicode="&#xe601;" d="M342.284 229.511l116.483 116.484c23.454 23.454 23.454 61.48 0 84.934l-0.849 0.85c-23.454 23.454-61.48 23.454-84.934 0l-116.483-116.484-116.483 116.484c-23.454 23.454-61.48 23.454-84.934 0l-0.849-0.85c-23.454-23.454-23.454-61.48 0-84.934l116.484-116.483-116.484-116.483c-23.454-23.454-23.454-61.48 0-84.934l0.849-0.849c23.454-23.454 61.48-23.454 84.934 0l116.483 116.483 116.483-116.483c23.454-23.454 61.48-23.454 84.934 0l0.849 0.849c23.454 23.454 23.454 61.48 0 84.934l-116.483 116.483z" />
<glyph unicode="&#xe602;" d="M256.726-27.311c-141.556 0-256.726 115.137-256.726 256.661s115.169 256.661 256.726 256.661c141.557 0 256.726-115.137 256.726-256.661s-115.169-256.661-256.726-256.661zM256.726 427.401c-109.238 0-198.115-88.846-198.115-198.051s88.877-198.083 198.115-198.083c109.238 0 198.115 88.846 198.115 198.083 0 109.206-88.846 198.051-198.115 198.051zM224.439 293.636h64.125v-224.438h-64.125v224.438zM224.439 389.824h64.125v-64.125h-64.125v64.125z" />
<glyph unicode="&#xe603;" d="M376.671 455.584c-36.007 19.398-77.175 30.428-120.844 30.428-141.076 0-255.827-114.912-255.827-256.149s114.752-256.149 255.827-256.149c141.043 0 255.796 114.912 255.796 256.149 0 18.115-1.892 35.782-5.483 52.839l-54.282-29.465c0.898-7.663 1.378-15.454 1.378-23.374 0-108.981-88.557-197.666-197.41-197.666s-197.41 88.685-197.41 197.666c0 108.981 88.557 197.666 197.41 197.666 29.53 0 57.585-6.541 82.785-18.212l38.058 46.267z" />
<glyph unicode="&#xe604;" d="M365.658 412.733h-73.279v-73.279h73.279v73.279zM365.658 266.159h-73.279v-73.279h73.279v73.279zM365.658 119.584h-73.279v-73.279h73.279v73.279zM293.149 192.863h-73.279v-73.279h73.279v73.279zM219.853 266.159h-73.279v-73.279h73.279v73.279zM293.149 339.438h-73.279v-73.279h73.279v73.279z" />
<glyph unicode="&#xe605;" d="M147.344 412.733h73.279v-73.279h-73.279v73.279zM147.344 266.159h73.279v-73.279h-73.279v73.279zM147.344 119.584h73.279v-73.279h-73.279v73.279zM219.853 192.863h73.279v-73.279h-73.279v73.279zM293.149 266.159h73.279v-73.279h-73.279v73.279zM219.853 339.438h73.279v-73.279h-73.279v73.279z" />
<glyph unicode="&#xe606;" d="M439.723 338.668v-73.279h-73.279v73.279h73.279zM293.149 338.668v-73.279h-73.279v73.279h73.279zM146.575 338.668v-73.279h-73.279v73.279h73.279zM219.853 266.159v-73.279h-73.279v73.279h73.279zM293.149 192.863v-73.279h-73.279v73.279h73.279zM366.428 266.159v-73.279h-73.279v73.279h73.279z" />
<glyph unicode="&#xe607;" d="M439.723 120.353v73.279h-73.279v-73.279h73.279zM293.149 120.353v73.279h-73.279v-73.279h73.279zM146.575 120.353v73.279h-73.279v-73.279h73.279zM219.853 192.863v73.279h-73.279v-73.279h73.279zM293.149 266.159v73.279h-73.279v-73.279h73.279zM366.428 192.863v73.279h-73.279v-73.279h73.279z" />
<glyph unicode="&#xe608;" d="M430.264 103.536c0 0-44.519 29.129-64.269 42.178-7.55 5.018-15.246 7.55-22.829 7.55-10.485 0-16.897-4.986-18.436-6.332-0.032-0.032-3.671-4.024-11.911-10.805-7.92-6.557-19.574-5.306-28.76 3.046-11.767 10.773-76.838 89.599-97.214 116.419-4.072 5.418-5.643 10.292-4.874 14.989 1.651 9.635 13.306 17.554 19.607 21.803l2.196 1.507c12.681 8.865 14.028 24.256 9.923 34.804-2.709 7.005-29.017 62.217-32.175 68.341-3.736 7.326-9.923 15.726-24.592 15.726-8.385 0-30.187-3.19-44.198-12.97l-3.11-2.132c-12.713-8.577-36.343-24.544-36.343-58.002 0-42.467 32.319-105.598 98.785-193.001 71.083-93.447 155.696-136.971 190.548-136.971 31.918 0 62.762 38.331 72.734 56.911 9.57 17.923 1.315 31.662-5.098 36.968z" />
<glyph unicode="&#xe609;" d="M487.352 320.536c-4.665 2.325-9.33 4.665-13.995 4.665h-39.645c0 0 0 0-2.325 0-6.99 11.655-13.995 20.985-20.985 27.974-4.665 4.665-9.33 9.33-11.655 13.995-6.99 6.989-18.661 11.655-32.639 16.32-27.974 6.99-74.626 11.655-123.585 11.655-25.65 0-107.266-4.665-132.916-27.974-2.341-4.665-6.989-9.33-11.655-13.995-4.665-6.989-11.655-16.32-20.985-27.974 0 0 0 0 0 0h-39.645c-9.33 0-16.32-6.99-16.32-16.32v-16.32c0-9.33 6.989-18.661 16.32-18.661l11.655-2.325c0-2.325-2.34-4.665-2.34-4.665l-2.34-9.33c-13.995-39.645-23.326-88.605-4.665-142.246v-32.639c0-16.32 4.665-25.65 13.995-25.65h44.31c9.33 0 13.995 9.33 13.995 25.65v16.32c37.305-2.325 90.946-6.99 142.246-6.99 53.625 0 104.925 4.665 142.246 6.99v-16.32c0-16.32 4.665-25.65 13.995-25.65h44.31c9.33 0 13.995 9.33 13.995 25.65v32.639c16.32 53.641 9.33 102.601-4.665 142.246v0l-4.665 9.33c0 0 0 2.325 0 2.325l11.655 2.325c9.33 2.325 16.32 9.33 16.32 18.661v18.661c4.665 4.665 2.325 9.33 0 11.655zM95.611 143.31c-20.985 0-37.305 16.32-37.305 34.981s16.32 34.981 34.98 34.981 34.981-16.32 34.981-34.981c2.325-18.661-13.995-34.981-32.639-34.981zM401.072 143.31c-18.661 0-34.981 16.32-34.981 34.981s16.32 34.981 34.981 34.981 34.981-16.32 34.981-34.981c0-18.661-13.995-34.981-34.981-34.981zM354.437 276.226c-32.639 2.325-67.62 4.665-100.276 4.665s-65.296-2.324-97.935-4.665c-32.639 0-62.955-2.325-83.94-2.325 4.665 11.655 11.655 23.31 16.32 32.639l2.341 2.325c11.655 16.32 23.326 32.639 32.639 44.31 11.655 11.655 60.63 20.985 118.921 23.31 46.635 0 90.945-2.325 118.921-11.655 16.32-4.665 23.31-9.33 25.65-11.655 11.655-11.655 23.31-27.974 34.981-44.31l2.325-2.325c4.665-9.33 11.655-20.985 16.32-32.639-20.985 0-53.641 2.325-86.281 2.325z" />
<glyph unicode="&#xe60a;" d="M663.835-32h-67.090c-14.124 0-21.187 14.123-21.187 38.842v24.717c-56.496-3.531-137.711-10.593-215.394-10.593-81.213 0-158.897 7.063-215.393 10.593v-24.717c0-24.717-7.063-38.842-21.186-38.842h-74.15c-14.123 0-21.186 14.123-21.186 38.842v49.435c-28.249 81.212-14.126 155.363 7.061 215.392v0l3.531 7.063c0 3.53 3.531 7.063 3.531 7.063l-21.186 7.063c-10.591-0.001-21.184 14.122-21.184 28.245v28.249c0 14.123 10.593 24.717 24.717 24.717h60.028c10.593 17.656 21.186 31.779 31.779 42.373 7.063 7.063 10.593 14.123 17.656 21.186 38.84 35.31 162.426 42.373 201.268 42.373 74.152 0 144.772-7.063 190.677-17.656 24.717-7.063 38.842-14.123 49.436-24.717 7.063-7.063 10.593-14.123 17.656-21.187 10.593-10.593 21.187-24.717 31.779-42.372 0 0 0 0 3.53 0h60.029c7.063 0 14.124-3.531 17.656-7.063 3.53-3.531 7.063-10.593 7.063-17.656v-24.717c0-14.124-10.593-28.249-24.717-28.249l-17.656-3.53v-3.53l7.063-14.124c21.187-60.029 35.31-134.179 7.063-215.394v-49.435c-0.005-28.248-7.067-42.371-21.192-42.371zM603.808-3.752h52.966c0 3.531 0 7.063 0 10.593v56.496c24.717 74.152 10.593 148.304-10.593 204.8-31.779-3.531-84.745 0-141.241 3.531-49.435 3.53-102.399 7.063-148.304 7.063s-98.869-3.531-148.304-7.063c-60.029-3.531-109.462-3.531-144.772-3.531-21.186-56.496-35.31-130.649-10.593-204.8v-56.496c0-3.531 0-10.593 0-10.593h52.966c0 3.531 0 7.063 0 10.593v56.496h14.124c56.496-7.063 144.772-10.593 229.517-10.593 88.275 0 173.021 7.063 229.517 10.593h14.124v-56.496c7.063-3.531 7.063-7.061 10.595-10.593zM356.635 306.979c49.435 0 98.869-3.531 151.834-7.063 49.435-3.531 95.339-3.531 127.118-3.531-7.063 17.656-17.656 35.31-24.717 49.435l-3.53 3.53c-17.656 24.717-35.31 49.436-52.966 67.090-3.53 3.53-14.124 10.593-38.842 17.656-42.373 10.593-109.462 17.656-180.083 17.656-88.275-3.532-162.428-17.656-180.083-35.312s-35.31-38.842-49.435-67.090l-3.531-3.53c-7.063-14.124-17.656-31.779-24.717-49.435 31.779 0 77.683 0 127.118 3.531s102.4 7.063 151.835 7.063zM642.649 345.821c7.063-10.593 10.593-21.187 17.656-31.78l24.717 3.531v28.249h-42.373zM28.249 345.821v-24.717l24.717-3.531c7.063 10.593 10.593 21.187 17.656 31.78h-42.373v-3.532zM589.683 133.958c-35.31 0-63.559 28.249-63.559 63.559s28.249 60.029 63.559 60.029c35.31 0 60.029-28.249 60.029-60.029 0-35.31-28.249-63.559-60.029-63.559zM589.683 229.297c-17.656 0-31.779-14.124-31.779-31.78s14.124-31.779 31.779-31.779c17.656-3.531 31.779 10.593 31.779 28.249 0 21.187-14.124 35.31-31.779 35.31zM123.585 133.958c-35.31 0-60.029 28.249-60.029 63.559s28.249 60.029 60.029 60.029 63.559-28.249 63.559-60.029c-3.53-35.31-31.779-63.559-63.559-63.559zM123.585 229.297c-17.656 0-31.779-14.124-31.779-31.78-3.531-21.187 14.123-35.31 31.779-35.31s31.78 14.123 31.78 31.779c0 21.187-14.124 35.31-31.779 35.31z" horiz-adv-x="714" />
<glyph unicode="&#xe60b;" d="M419.732 385.832c0 0 0 0 0 0l-2.325 4.665c0 0-2.325 0-2.325 2.325-20.985 11.655-58.29 0-83.94-25.65l-39.645-41.97-174.886 11.655c0 0 0 0 0 0-13.995 0-25.65-9.33-27.975-20.985-4.665-9.33 2.341-27.974 27.975-39.646l83.94-41.97c-13.995-16.32-39.645-46.635-51.3-67.62l-48.975-4.665c-4.665 0-9.33-6.99-9.33-11.655l2.341-27.974c0-4.665 4.665-9.33 9.33-9.33l34.981-4.665 4.665-34.981c0-4.665 4.665-9.33 9.33-9.33l27.975-2.325c2.325 0 4.665 0 6.989 2.325s4.665 4.665 4.665 6.99l4.665 48.976c20.985 11.655 51.3 39.645 67.62 51.3l41.97-83.94c9.33-23.31 25.65-30.315 37.305-30.315 2.325 0 2.325 0 4.665 0 11.655 2.325 20.985 13.995 20.985 27.974 0 0 0 0 0 0l-11.655 174.885 39.645 39.646c25.65 25.65 37.305 65.296 23.31 86.281z" />
<glyph unicode="&#xe60c;" d="M500.195 462.66v0l-3.509 7.017c0 0-3.509 0-3.509 3.508-31.574 17.541-87.707 0-126.296-38.591l-59.639-63.149-263.116 17.541c-21.050 0-38.591-14.032-42.098-31.574-7.017-14.033 3.508-42.098 42.098-59.639l126.296-63.148c-21.050-24.557-59.639-70.165-77.181-101.739l-73.672-7.017c-7.017 0-14.033-10.524-14.033-17.541l3.508-42.098c0-7.017 7.017-14.033 14.032-14.033l52.624-7.017 7.017-52.624c0-7.017 7.017-14.033 14.032-14.033l42.098-3.509c3.508 0 7.017 0 10.524 3.509 3.508 3.509 7.017 7.017 7.017 10.524l7.017 73.673c31.574 17.541 77.181 59.639 101.739 77.181l63.148-126.296c14.033-35.082 38.591-45.607 56.131-45.607 3.509 0 3.509 0 7.017 0 17.541 3.509 31.574 21.050 31.574 42.098v0l-17.541 263.116 59.639 59.639c38.589 38.594 56.129 98.234 35.080 129.809zM377.408 294.264c-3.509-3.509-3.509-7.017-3.509-14.033l17.541-270.134c0-3.509 0-10.524-3.509-10.524-7.017 0-17.541 3.509-28.065 28.065v0l-73.673 143.838c-3.509 3.509-7.017 7.017-10.524 7.017h-3.509c-3.509 0-7.017 0-10.524-3.509 0 0-80.69-70.165-119.279-91.214-7.017-3.509-10.524-7.017-10.524-10.524l-7.017-66.656h-14.034l-7.017 52.624c0 3.509-3.508 7.017-7.017 10.524-3.508 3.509-7.017 3.509-10.524 7.017l-52.624 7.017v14.033l66.656 7.017c3.508 0 10.524 3.509 10.524 7.017 21.050 38.591 91.214 119.281 91.214 119.281 3.508 3.508 3.508 7.017 3.508 14.032 0 3.508-3.508 10.524-7.017 10.524l-140.327 70.161c-21.050 10.524-28.066 21.050-28.066 28.066 0 3.508 7.017 3.508 10.524 3.508l270.134-17.541c3.509 0 10.524 0 14.033 3.509l63.148 63.148c31.574 31.574 70.165 42.098 87.705 35.082 7.017-14.032-3.509-56.131-35.082-87.705l-63.147-59.641z" horiz-adv-x="509" />
<glyph unicode="&#xe60d;" d="M95.611 271.561c11.655 32.639 39.645 62.955 74.609 81.615 4.665 2.324 6.989 6.989 6.989 11.655v0c-6.989 13.995-13.995 30.315-2.325 30.315l27.975-23.31c2.325-2.341 6.989-4.665 9.33-2.341 18.661 4.665 37.305 6.99 58.29 6.99 100.276 0 181.875-62.955 181.875-139.905 0-39.645-20.985-74.626-55.966-100.276-4.665-2.325-4.665-6.99-2.325-11.655l13.995-30.315c2.325-4.665 0-11.655-4.665-13.995l-46.635-20.985c-4.665-2.325-11.655 0-13.995 4.665l-13.995 30.315c-2.325 4.665-6.99 6.99-11.655 6.99-13.995-2.325-30.315-4.665-46.635-4.665-11.655 0-25.65 0-37.305 2.325-4.665 0-9.33-2.325-11.655-6.99l-11.655-27.974c-2.325-4.665-9.33-6.99-13.995-4.665l-46.635 20.985c-4.665 2.325-6.989 9.33-4.665 13.995l11.655 20.985c2.325 4.665 0 9.33-4.665 11.655-18.66 13.995-34.981 30.315-46.635 48.976 0 4.665-4.665 6.99-6.989 6.99h-27.975c-4.665 0-9.33 4.665-9.33 9.33v60.63c0 4.665 4.665 9.33 9.33 9.33h16.32c4.665 2.325 9.33 4.665 9.33 9.33z" />
<glyph unicode="&#xe60e;" d="M430.786-32c-10.592 0-24.717 7.062-28.249 17.655l-17.654 45.904c-38.841-10.592-81.214-10.592-120.055-3.531l-17.655-42.372c-7.062-14.125-24.717-21.187-38.841-14.125l-63.559 28.249c-14.125 7.062-21.186 24.717-14.125 38.841l14.125 35.31c-31.779 17.655-56.496 42.372-70.621 70.62h-42.372c-17.656 0-31.78 14.123-31.78 31.779v88.276c0 17.655 14.124 31.779 31.779 31.779h24.717c17.655 49.434 56.496 95.338 112.993 123.587h-3.53c-7.062 17.655-14.125 35.31-7.062 49.434 3.53 3.531 10.593 10.593 21.186 10.593 3.53 0 7.062 0 10.593-3.531l42.372-35.309c0 0 0 0 3.53 0 28.249 7.062 52.966 10.592 81.213 10.592 151.834 0 271.889-95.338 271.889-215.393 0-60.028-31.779-116.525-84.745-155.366l17.655-42.372c3.53-7.062 3.53-14.125 0-24.717-3.53-7.062-7.062-14.125-17.655-17.655l-63.558-28.249c0.002-0.001-3.529-0.001-10.591-0.001zM70.621 176.332c10.593 0 21.186-7.062 24.717-14.125 14.124-24.717 35.309-45.904 60.028-63.558 17.655-7.062 21.186-24.717 14.125-38.841l-14.125-35.31 63.559-28.249 17.655 38.841c3.53 10.592 14.125 17.655 28.249 17.655h3.531c38.841-7.062 74.151-3.531 112.993 3.531 0 0 3.531 0 7.062 0 10.592 0 24.717-7.062 28.249-17.655l17.655-42.372 63.558 28.249-21.187 42.372c-7.062 14.125 0 28.249 10.592 35.31 45.904 35.31 74.151 81.214 74.151 130.648 0 102.4-109.462 183.614-240.11 183.614-24.717 0-52.966-3.531-77.683-10.593-14.125 3.531-24.717 7.062-28.249 10.593l-21.184 14.126v-3.531c7.062-14.124 0-31.779-14.125-38.841-49.434-24.717-84.745-63.559-98.868-105.93-3.531-10.592-14.124-21.187-24.717-21.187h-24.718v-84.745h38.842z" horiz-adv-x="590" />
<glyph unicode="&#xe60f;" d="M251.836 334.532c2.325 2.324 39.645 60.63 111.93 60.63 34.981 0 69.96-23.326 86.281-60.63s9.33-79.275-20.985-114.255c-60.63-67.62-116.596-123.586-151.576-156.225-11.655-11.655-30.315-11.655-41.97 0-34.981 32.639-90.946 88.605-151.576 156.225-30.315 34.981-39.645 76.951-20.985 114.255 16.32 37.305 48.975 60.63 83.94 60.63 69.96 0 104.941-53.625 104.941-60.63z" />
<glyph unicode="&#xe610;" d="M304.088-32c-14.123 0-28.248 7.063-38.841 17.656-52.965 49.435-130.649 127.117-218.923 222.455-45.904 52.966-60.028 116.524-31.779 176.552 24.716 56.496 77.682 95.337 134.179 95.337 77.684 0 127.117-45.903 151.834-74.151 24.716 28.248 77.682 74.151 155.365 74.151 56.496 0 109.462-38.841 137.709-95.337 28.249-60.028 14.124-123.586-31.779-176.552-84.745-95.337-165.958-173.021-218.923-222.456-10.593-10.593-24.718-17.655-38.841-17.655zM148.723 448.221c-42.372 0-88.276-31.779-105.93-74.151-21.186-49.435-10.593-102.4 28.249-144.772 84.744-95.337 162.428-173.021 215.393-222.456 10.593-10.593 28.248-10.593 35.31 0 49.435 49.435 130.649 127.116 215.393 222.456 38.841 42.372 49.434 95.338 28.249 144.772-21.186 45.903-63.558 74.152-105.93 74.152-91.807 0-141.242-70.621-144.772-74.152-3.531-7.063-7.063-10.593-14.123-10.593s-14.123 3.53-14.123 10.593v0c-3.534 0-42.375 74.152-137.713 74.152z" horiz-adv-x="608" />
<glyph unicode="&#xe611;" d="M251.836 343.862l-123.585-95.61v-170.22c0-11.655 9.33-23.31 23.309-23.31h39.645c13.995 0 23.326 16.32 23.326 23.31v107.266c0 13.995 4.665 20.985 18.661 20.985h51.3c6.99 0 13.995-6.99 13.995-13.995v-111.93c0-11.655 9.33-23.31 23.31-23.31h46.635c9.33 0 16.32 6.99 16.32 16.32v172.561l-118.921 97.936c-4.665 2.325-9.33 2.325-13.995 0zM86.281 245.911c-4.665 0-6.99 0-9.33 4.665-4.665 4.665-2.341 9.33 2.341 13.996l163.231 125.91c9.33 6.99 25.65 9.33 34.981 0l156.225-125.91c4.665-4.665 4.665-9.33 2.325-13.996-4.665-4.665-9.33-4.665-13.995-2.325l-158.565 123.585c-2.325 2.325-6.99 2.325-9.33 0l-163.231-123.585c0-2.325-2.341-2.325-4.665-2.325z" />
<glyph unicode="&#xe612;" d="M439.263-32h-77.877c-21.24 0-38.939 17.7-38.939 38.939v152.214c0 3.54-3.54 7.080-7.080 7.080h-70.798c-3.54 0-7.080-3.54-7.080-7.080v-152.214c0-21.24-17.7-38.939-38.939-38.939h-84.957c-21.24 0-38.939 17.7-38.939 38.939v265.49c0 7.080 7.080 17.7 17.7 17.7 7.080 0 17.7-7.080 17.7-17.7v-265.49c0-3.54 3.54-7.080 7.080-7.080h84.957c3.54 0 7.080 3.54 7.080 7.080v152.215c0 21.24 17.7 38.939 38.939 38.939h70.798c21.24 0 38.939-17.7 38.939-38.939v-152.214c0-3.54 3.54-7.080 7.080-7.080h77.877c3.54 0 7.080 3.54 7.080 7.080v265.49c0 7.080 7.080 17.7 17.7 17.7s17.7-7.080 17.7-17.7v-265.49c-7.080-21.238-24.779-38.938-46.019-38.938zM18.018 254.728c-7.080 0-10.62 3.54-14.159 7.080-7.080 7.080-3.54 17.7 3.54 21.24l244.251 187.613c10.619 10.62 38.939 14.159 53.099 0l233.631-187.613c7.080-7.080 7.080-14.159 3.54-21.24-7.080-7.080-14.159-7.080-21.24-3.54l-237.172 187.613c-3.54 3.54-7.080 3.54-10.62 0l-247.791-187.613c-3.54 0-7.080-3.54-7.080-3.54z" horiz-adv-x="544" />
<glyph unicode="&#xe613;" d="M263.49 395.147h-13.995c-27.975 0-51.3-23.31-51.3-51.3v-51.3c0-4.665-4.665-9.33-9.33-9.33h-51.3c-27.975 0-51.3-23.31-51.3-51.3v-13.995c0-27.974 23.326-51.3 51.3-51.3h51.3c4.665 2.325 9.33-2.325 9.33-6.99v-51.3c0-27.974 23.326-51.3 51.3-51.3h13.995c27.974 0 51.3 23.31 51.3 51.3v51.3c0 4.665 4.665 9.33 9.33 9.33h51.3c27.974 0 51.3 23.31 51.3 51.3v13.995c0 27.975-23.31 51.3-51.3 51.3h-51.3c-4.665 0-9.33 4.665-9.33 9.33v48.976c0 27.975-23.31 51.3-51.3 51.3v0z" />
<glyph unicode="&#xe614;" d="M268.359 448.221c24.717 0 45.904-21.187 45.904-45.904v-77.683c0-24.717 21.187-45.904 45.904-45.904h77.683c24.717 0 45.904-21.187 45.904-45.904v-21.187c0-24.717-21.187-45.904-45.904-45.904h-77.683c-24.717 0-45.904-21.187-45.904-45.904v-77.683c0-24.717-21.187-45.904-45.904-45.904h-21.187c-24.717 0-45.904 21.187-45.904 45.904v77.683c0 24.717-21.187 45.904-45.904 45.904h-77.681c-24.717 0-45.904 21.187-45.904 45.904v24.717c0 24.717 21.187 45.904 45.904 45.904h77.683c24.717 0 45.904 21.187 45.904 45.904v74.151c0 24.717 21.187 45.904 45.904 45.904l21.185 0.002zM268.359 480h-21.187c-42.373 0-77.683-35.31-77.683-77.683v-77.683c0-7.062-7.062-14.124-14.124-14.124h-77.683c-42.373 0-77.683-35.31-77.683-77.683v-21.187c0-42.373 35.31-77.683 77.683-77.683h77.683c7.062 3.531 14.124-3.531 14.124-10.594v-77.683c0-42.373 35.31-77.683 77.683-77.683h21.187c42.373 0 77.683 35.31 77.683 77.683v77.683c0 7.062 7.062 14.123 14.123 14.123h77.683c42.373 0 77.683 35.31 77.683 77.683v21.187c0 42.373-35.31 77.683-77.683 77.683h-77.683c-7.062 0-14.123 7.062-14.123 14.123v74.152c0 42.373-35.31 77.684-77.683 77.684v0z" horiz-adv-x="516" />
<glyph unicode="&#xe615;" d="M500.195 462.66v0l-3.509 7.017c0 0-3.509 0-3.509 3.508-31.574 17.541-87.707 0-126.296-38.591l-59.639-63.149-263.116 17.541c-21.050 0-38.591-14.032-42.098-31.574-7.017-14.033 3.508-42.098 42.098-59.639l126.296-63.148c-21.050-24.557-59.639-70.165-77.181-101.739l-73.672-7.017c-7.017 0-14.033-10.524-14.033-17.541l3.508-42.098c0-7.017 7.017-14.033 14.032-14.033l52.624-7.017 7.017-52.624c0-7.017 7.017-14.033 14.032-14.033l42.098-3.509c3.508 0 7.017 0 10.524 3.509 3.508 3.509 7.017 7.017 7.017 10.524l7.017 73.673c31.574 17.541 77.181 59.639 101.739 77.181l63.148-126.296c14.033-35.082 38.591-45.607 56.131-45.607 3.509 0 3.509 0 7.017 0 17.541 3.509 31.574 21.050 31.574 42.098v0l-17.541 263.116 59.639 59.639c38.589 38.594 56.129 98.234 35.080 129.809zM377.408 294.264c-3.509-3.509-3.509-7.017-3.509-14.033l17.541-270.134c0-3.509 0-10.524-3.509-10.524-7.017 0-17.541 3.509-28.065 28.065v0l-73.673 143.838c-3.509 3.509-7.017 7.017-10.524 7.017h-3.509c-3.509 0-7.017 0-10.524-3.509 0 0-80.69-70.165-119.279-91.214-7.017-3.509-10.524-7.017-10.524-10.524l-7.017-66.656h-14.034l-7.017 52.624c0 3.509-3.508 7.017-7.017 10.524-3.508 3.509-7.017 3.509-10.524 7.017l-52.624 7.017v14.033l66.656 7.017c3.508 0 10.524 3.509 10.524 7.017 21.050 38.591 91.214 119.281 91.214 119.281 3.508 3.508 3.508 7.017 3.508 14.032 0 3.508-3.508 10.524-7.017 10.524l-140.327 70.161c-21.050 10.524-28.066 21.050-28.066 28.066 0 3.508 7.017 3.508 10.524 3.508l270.134-17.541c3.509 0 10.524 0 14.033 3.509l63.148 63.148c31.574 31.574 70.165 42.098 87.705 35.082 7.017-14.032-3.509-56.131-35.082-87.705l-63.147-59.641z" horiz-adv-x="509" />
<glyph unicode="&#xe616;" d="M125.795-32c-31.334 0-58.591 11.663-82.055 31.334-27.398 23.464-42.995 50.863-42.995 85.988-3.934 35.127 7.868 66.459 31.334 93.858l66.459 78.12c-11.662 58.59 3.934 121.115 42.995 168.045 42.994 46.928 113.388 54.656 148.515 54.656 15.596 0 35.127 0 50.863-3.934 3.934 0 11.663-3.934 11.663-11.663 0-7.868 0-11.662-3.934-15.596l-70.394-85.988c-31.332-35.127-35.126-82.055-11.663-101.585 7.868-7.868 19.53-11.662 31.332-11.662 23.464 0 50.863 15.596 70.394 35.126l74.327 89.924c3.934 3.934 7.868 7.868 15.596 3.934 3.934 0 11.663-3.934 11.663-11.663 23.464-62.524 27.398-148.514-19.53-207.105-39.060-46.928-93.858-70.394-152.448-70.394v0h-4.075l-66.459-78.12c-31.334-27.539-66.461-43.275-101.588-43.275zM121.861 241.704l-70.394-85.988c-15.596-19.53-23.464-42.995-23.464-70.394s15.596-46.928 35.127-66.459c15.596-15.596 39.060-23.464 62.525-23.464 27.398 0 54.656 11.663 74.328 35.127l70.394 85.988 3.934 3.934c3.934 3.934 7.868 3.934 11.663 3.934 54.656-3.934 105.519 19.53 140.645 58.591 35.127 42.995 35.127 101.585 23.464 152.448l-54.656-66.458c-27.398-31.332-58.591-46.928-93.858-46.928-19.53 0-35.127 7.868-50.863 15.596-39.060 31.332-35.126 97.651 7.868 144.579l54.656 66.459c-3.934 0-11.663 0-15.596 0-31.332 0-93.858-7.868-128.984-50.864-35.126-39.060-46.928-93.857-35.126-148.514-3.931 0.141-7.725-3.793-11.659-7.587zM121.017 34.459c-11.662 0-18.687 7.868-30.49 15.596-23.464 19.53-27.398 54.656-7.868 78.12 0 0 42.995 54.656 50.864 62.524 3.934 3.934 7.868 3.934 11.662 0 3.793-3.934 3.934-7.868 0-11.663-7.868-7.868-50.864-62.524-50.864-62.524-15.597-15.596-11.662-42.995 7.868-58.591 7.868-7.868 19.53-11.663 31.334-7.868 11.662 0 19.53 7.868 27.398 15.596l46.928 54.656c3.934 3.934 7.868 3.934 11.662 0 3.793-3.934 3.934-7.868 0-11.663l-46.928-54.656c-7.868-11.663-23.464-19.53-39.060-19.53-4.075 0-12.505 0-12.505 0z" horiz-adv-x="487" />
<glyph unicode="&#xe617;" d="M304.088-32c-14.123 0-28.248 7.063-38.841 17.656-52.965 49.435-130.649 127.117-218.923 222.455-45.904 52.966-60.028 116.524-31.779 176.552 24.716 56.496 77.682 95.337 134.179 95.337 77.684 0 127.117-45.903 151.834-74.151 24.716 28.248 77.682 74.151 155.365 74.151 56.496 0 109.462-38.841 137.709-95.337 28.249-60.028 14.124-123.586-31.779-176.552-84.745-95.337-165.958-173.021-218.923-222.456-10.593-10.593-24.718-17.655-38.841-17.655zM148.723 448.221c-42.372 0-88.276-31.779-105.93-74.151-21.186-49.435-10.593-102.4 28.249-144.772 84.744-95.337 162.428-173.021 215.393-222.456 10.593-10.593 28.248-10.593 35.31 0 49.435 49.435 130.649 127.116 215.393 222.456 38.841 42.372 49.434 95.338 28.249 144.772-21.186 45.903-63.558 74.152-105.93 74.152-91.807 0-141.242-70.621-144.772-74.152-3.531-7.063-7.063-10.593-14.123-10.593s-14.123 3.53-14.123 10.593v0c-3.534 0-42.375 74.152-137.713 74.152z" horiz-adv-x="608" />
<glyph unicode="&#xe618;" d="M219.983 411.991c55.93-52.048 123.938-83.967 167.935-96.045-11.934-79.942-32.063-184.038-59.956-224.009-32.062-43.996-83.968-68.009-107.978-76.060-24.011 8.051-76.060 32.063-107.978 76.060-28.037 39.971-52.048 147.95-59.956 224.009 39.969 12.079 107.975 43.998 167.933 96.045zM219.983 480c-79.942-99.927-219.983-131.99-219.983-131.99v0c0-4.026 19.985-211.932 76.060-283.966 48.023-63.982 123.938-87.993 140.042-96.044v0c0 0 0 0 4.026 0h4.026c19.986 4.026 96.044 32.062 140.042 96.044 52.048 76.060 76.060 283.966 76.060 283.966s-140.333 31.92-220.274 131.99v0z" horiz-adv-x="441" />
<glyph unicode="&#xe619;" d="M403.2 0h-73.6c-25.6 0-35.2 16-35.2 35.2v144c0 3.2-3.2 6.4-6.4 6.4h-64c-3.2 0-6.4-3.2-6.4-6.4v-140.8c0-19.2-6.4-35.2-35.2-35.2h-80c-19.2-3.2-38.4 16-38.4 35.2v192c0 6.4 6.4 16 16 16 6.4 0 16-6.4 16-16v-192c0-3.2 3.2-6.4 6.4-6.4h70.4c6.4 0 9.6 3.2 9.6 6.4v144c0 19.2 12.8 35.2 41.6 35.2h67.2c22.4 0 35.2-16 35.2-35.2v-140.8c0-3.2 3.2-6.4 6.4-6.4h73.6c3.2 0 6.4 3.2 6.4 6.4v192c0 6.4 6.4 16 16 16s19.2-9.6 19.2-19.2v-192c0-22.4-12.8-38.4-44.8-38.4zM22.4 233.6c0 0-9.6-3.2-16 3.2-6.4 9.6 0 19.2 0 19.2l224 182.4c12.8 9.6 35.2 9.6 51.2-3.2l217.6-176c9.6-9.6 9.6-19.2 3.2-22.4-6.4-6.4-12.8-6.4-16-3.2-6.4 6.4-224 182.4-224 182.4-6.4 3.2-9.6 3.2-12.8 0l-227.2-182.4z" />
<glyph unicode="&#xe61a;" d="M448 300.8c-12.8 67.2-99.2 99.2-179.2 102.4h-25.6c-80-6.4-166.4-38.4-179.2-102.4-38.4-9.6-60.8-41.6-60.8-80s19.2-67.2 67.2-73.6c6.4 0 6.4-3.2 3.2-12.8 0-16 0-44.8 0-60.8 0-19.2 16-22.4 28.8-22.4 6.4 0 73.6 0 140.8 0h22.4c67.2 0 134.4 0 140.8 0 12.8 0 28.8 3.2 28.8 22.4 0 16 0 44.8 0 60.8 0 9.6 0 9.6 3.2 12.8 48 6.4 67.2 35.2 67.2 73.6 3.2 38.4-19.2 70.4-57.6 80zM140.8 86.4c0-9.6 0-9.6-6.4-9.6-9.6 0-16 0-22.4 0s-6.4 6.4-6.4 9.6c0 6.4 0 41.6 0 57.6s0 19.2-3.2 25.6c-6.4 3.2-9.6 3.2-28.8 3.2-16 3.2-41.6 12.8-41.6 48 0 32 19.2 48 44.8 51.2s60.8-16 60.8-51.2c0 0 3.2-128 3.2-134.4zM342.4 83.2c0-6.4-3.2-6.4-9.6-6.4 0 0-22.4 0-67.2 0h-22.4c-41.6 0-64 0-67.2 0s-9.6 0-9.6 6.4c0 6.4 0 76.8 0 118.4 16 6.4 35.2 16 76.8 16h16c41.6 0 60.8-9.6 76.8-16 6.4-41.6 6.4-112 6.4-118.4zM345.6 230.4c0 0-35.2 12.8-76.8 12.8h-25.6c-41.6 0-76.8-12.8-76.8-12.8-3.2 32-32 67.2-67.2 73.6 16 51.2 86.4 67.2 156.8 67.2 60.8 0 140.8-16 156.8-70.4-35.2-3.2-64-38.4-67.2-70.4zM438.4 172.8c-16 0-19.2 0-28.8-6.4-6.4-6.4-3.2-9.6-3.2-25.6s0-51.2 0-57.6c0-3.2 0-9.6-6.4-9.6s-12.8 0-19.2 0c-6.4 0-6.4 0-9.6 9.6 0 6.4 3.2 134.4 3.2 134.4 0 35.2 35.2 54.4 60.8 51.2 22.4 3.2 44.8-16 44.8-48 0-35.2-25.6-44.8-41.6-48z" />
<glyph unicode="&#xe61b;" d="M186.576 425.171l128.065-193.808c14.596-25.64 21.959-51.147 21.959-80.468 0-40.234-14.596-76.786-43.916-106.108-29.32-29.32-65.874-43.916-106.108-43.916-80.468 0-150.024 65.874-150.024 150.024 0 29.32 7.363 54.829 21.959 80.468l128.065 193.808zM186.576 480c-7.363 0-10.913-3.682-14.595-7.363l-142.661-219.316c-18.276-29.321-29.32-65.873-29.32-98.745 0-102.427 84.15-186.576 186.576-186.576s186.576 84.149 186.576 186.576c0 36.553-10.913 69.555-29.32 98.745v0l-142.661 219.447c0 3.55-7.232 7.232-14.595 7.232v0zM186.576 63.063c-58.511 0-106.108 47.597-106.108 106.108 0 7.363 3.681 10.913 10.913 10.913s10.913-3.682 10.913-10.913c0-47.597 36.553-84.149 84.15-84.149 7.363 0 10.913-3.682 10.913-10.913 3.813-7.363-3.419-11.045-10.782-11.045z" horiz-adv-x="373" />
<glyph unicode="&#xe61c;" d="M168.667 23.545l-113.123 113.123c-4.382 4.382-4.382 12.986 0 17.368s12.986 4.382 17.367 0l113.123-113.123c4.381-4.382 4.381-12.986 0-17.368-4.224-4.382-8.605-4.382-17.368 0v0zM455.935 423.935c78.388-78.389 78.388-200.273 0-274.28-39.116-39.116-91.375-56.639-139.253-56.639-17.368 0-34.891-8.762-74.007-43.498-8.762-8.762-17.368-4.382-26.13 0-4.381 8.762-8.762 17.368 0 26.13 39.116 34.891 65.245 52.259 95.756 52.259 43.498 0 86.993 12.986 117.505 47.877 60.865 60.865 60.865 161 0 226.402-60.865 60.865-161 60.865-222.022 0-30.51-30.51-47.877-74.007-47.877-117.504-4.381-30.51-17.368-56.639-52.258-95.756-8.763-8.762-17.368-8.762-26.13 0-8.763 4.382-8.763 17.368 0 26.13 34.891 34.891 43.498 52.259 43.498 74.007 0 52.258 17.368 104.519 56.639 139.253 78.544 69.626 200.273 69.626 274.28-4.382v0zM138.314-6.966l-117.504 113.279c-4.381 4.382-4.381 12.986 0 17.368s12.986 4.382 17.367 0l113.123-113.123c4.381-4.382 4.381-12.986 0-17.368 0-4.538-8.761-8.761-12.986-0.156v0zM94.66-28.715l-91.374 91.375c-4.381 4.382-4.381 12.986 0 17.368s12.986 4.382 17.367 0l91.375-91.375c4.382-4.382 4.382-12.986 0-17.368s-12.986-4.38-17.368 0v0zM64.306-24.334c-12.986-4.382-34.891 0-47.877 12.986s-17.367 34.891-12.986 47.877l60.864-60.863z" horiz-adv-x="515" />
<glyph unicode="&#xe61d;" d="M413.007 478.418l-404.642-228.385c-8.063-4.032-11.953-15.983-4.032-24.048l140.256-248.4c4.032-8.063 15.983-11.952 24.048-8.063l404.642 228.385c8.063 4.033 11.952 15.983 8.063 24.048l-140.255 248.4c-8.065 8.064-20.16 12.097-28.082 8.064zM557.152 214.032l-396.579-220.321-136.224 244.369 396.579 220.321 136.224-244.369zM300.829 125.904l-136.226-76.177-88.126 160.418 136.226 76.175 88.126-160.416zM460.96 306.193l-176.257-100.080-11.952 20.016 176.257 100.081 11.952-20.016zM481.12 274.225l-176.257-100.081-11.952 20.016 176.257 100.080 11.952-20.016zM501.136 238.081l-176.257-100.081-11.952 20.016 176.113 100.080 12.096-20.016z" horiz-adv-x="583" />
<glyph unicode="&#xe61e;" d="M64.125 453.212h385.264c39.789 1.475 63.612-23.662 63.612-64.125v-255.988c0-40.399-23.726-64.638-64.125-64.638h-384.752c-40.399 0-64.125 23.726-64.125 64.125v256.020c0 40.399 23.727 64.606 64.125 64.606zM288.563 68.46h128.25v-64.125z" />
<glyph unicode="&#xe61f;" d="M0 486.012h96.188v-96.188h-96.188v96.188zM128.25 486.012h96.188v-96.188h-96.188v96.188zM257.175 486.012h96.188v-96.188h-96.188v96.188zM385.425 486.012h96.188v-96.188h-96.188v96.188zM0 357.762h96.188v-96.188h-96.188v96.188zM128.25 357.762h96.188v-96.188h-96.188v96.188zM257.175 357.762h96.188v-96.188h-96.188v96.188zM385.425 357.762h96.188v-96.188h-96.188v96.188zM0 229.511h96.188v-96.188h-96.188v96.188zM128.25 229.511h96.188v-96.188h-96.188v96.188zM257.175 229.511h96.188v-96.188h-96.188v96.188zM385.425 229.511h96.188v-96.188h-96.188v96.188zM0 101.26h96.188v-96.188h-96.188v96.188zM128.25 101.26h96.188v-96.188h-96.188v96.188zM257.175 101.26h96.188v-96.188h-96.188v96.188zM385.425 101.26h96.188v-96.188h-96.188v96.188z" />
<glyph unicode="&#xe620;" d="M459.698 429.068h-410.401c-16.977 0-30.78-13.803-30.78-30.78v-256.501c0-16.977 13.803-30.78 30.78-30.78h5.13v66.69h-15.39v220.591c0 5.659 4.601 10.26 10.26 10.26h410.401c5.659 0 10.26-4.601 10.26-10.26v-220.591h-102.601v-66.69h92.341c16.977 0 30.78 13.803 30.78 30.78v256.501c0 16.977-13.803 30.78-30.78 30.78zM342.044 321.338h-189.49c-8.689 0-16.031-7.054-16.031-15.39v-41.040h20.52v35.91h179.55v-225.721h-128.25v-20.52c0-7.872-3.030-15.070-7.935-20.52h141.958c8.449 0 14.749 9.474 14.749 17.955v253.936c0 8.481-6.765 15.39-15.070 15.39zM248.518 48.164c-4.826 0-8.753 4.216-8.753 9.442s3.928 9.442 8.753 9.442c4.841 0 8.769-4.233 8.753-9.442s-3.911-9.442-8.753-9.442zM187.823 252.147c-2.901 1.555-6.236 2.501-9.859 2.501h-92.741c-3.752 0-7.23-0.994-10.26-2.661-6.092-3.334-10.26-9.523-10.26-17.073v-180.352c0-11.286 9.234-20.52 20.52-20.52h92.741c5.146 0 9.715 1.972 13.242 5.13 4.2 3.767 6.877 9.234 6.877 15.39v180.352c0 7.663-4.12 13.931-10.26 17.218zM137.484 51.916c-1.074-1.539-2.565-2.677-4.313-3.271-0.833-0.288-1.715-0.481-2.645-0.481-1.026 0-1.988 0.224-2.901 0.561-3.398 1.298-5.852 4.762-5.852 8.865 0 2.918 1.266 5.515 3.207 7.246 0.401 0.353 0.834 0.673 1.282 0.946 1.266 0.769 2.71 1.25 4.265 1.25 0.304 0 0.577-0.064 0.865-0.096 1.78-0.192 3.382-0.946 4.681-2.1 0.144-0.128 0.304-0.257 0.433-0.385 1.7-1.731 2.774-4.152 2.757-6.861 0-2.132-0.673-4.088-1.796-5.675zM177.547 177.697v-97.471h-92.341v153.9h92.341v-56.43zM377.634 64.837c-5.13 15.39-10.26 5.13-10.26 5.13v-12.825c0-5.691 0-17.955 0-17.955 15.39 0 46.17 0 46.17 0s0 0 0 5.13-30.78 5.13-35.91 20.52z" />
<glyph unicode="&#xe621;" d="M439.723 144.786c0-3.671-3.303-6.894-7.070-6.894h-49.329v-34.339c0-11.399-9.459-20.632-21.113-20.632h-211.437c-11.655 0-21.145 9.234-21.145 20.632v34.339h-49.328c-3.736 0-7.037 3.223-7.037 6.894v89.294c0 22.54 19.157 41.217 42.291 41.217h14.107v116.82c-0.032 11.366 9.459 20.6 21.113 20.6h147.969c11.687 0 27.734-6.445 36.135-14.589l33.49-32.656c8.353-8.176 14.957-23.822 14.957-35.221v-54.971h14.108c23.117 0 42.291-18.692 42.291-41.216v-89.294zM355.142 247.834v82.449h-35.253c-11.655 0-21.113 9.234-21.113 20.6v34.371h-140.931v-137.405h197.281zM355.142 110.414v54.971h-197.281v-54.971h197.281zM397.432 247.834c-7.695 0-14.108-6.236-14.108-13.739s6.38-13.739 14.108-13.739 14.108 6.236 14.108 13.739-6.413 13.739-14.108 13.739z" />
<glyph unicode="&#xe622;" d="M221.905 383.476c66.225 0 119.882-53.705 119.882-119.882 0-66.226-53.657-119.947-119.882-119.947s-119.947 53.721-119.947 119.947c0 66.178 53.705 119.882 119.947 119.882zM221.905 179.606c46.331 0 83.924 37.61 83.924 83.988 0 46.33-37.609 83.924-83.924 83.924-46.379 0-83.972-37.61-83.972-83.924 0-46.378 37.609-83.988 83.972-83.988zM292.235 138.004l61.865-61.881c6.509-6.509 15.086-9.731 23.598-9.731s17.089 3.223 23.598 9.731c12.986 13.034 12.986 34.163 0 47.148l-60.021 60.021c-12.521-18.676-29.337-34.259-49.040-45.288zM181.411 231.611c1.138 0 2.276 0.144 3.415 0.465 6.829 1.892 10.837 8.946 8.946 15.775-8.433 30.507 10.629 47.18 11.447 47.87 5.355 4.553 6.092 12.616 1.603 18.019s-12.457 6.22-17.907 1.779c-1.346-1.090-32.864-27.477-19.863-74.497 1.571-5.691 6.733-9.411 12.36-9.411z" />
<glyph unicode="&#xe623;" d="M280.212 435.738c-10.132 0-18.34-8.224-18.34-18.356s8.224-18.356 18.34-18.356c94.874 0 172.064-77.191 172.064-172.080s-77.191-172.064-172.064-172.064c-87.066 0-159.191 65.023-170.477 149.059l12.841-12.857c3.591-3.591 8.288-5.37 12.985-5.37s9.394 1.779 12.986 5.37c7.166 7.166 7.166 18.788 0 25.971l-45.769 45.769c-7.166 7.166-18.788 7.166-25.954 0l-45.77-45.769c-7.166-7.166-7.166-18.788 0-25.971 7.166-7.166 18.788-7.166 25.971 0l15.454 15.454c10.292-105.566 99.538-188.368 207.75-188.368 115.105 0 208.776 93.671 208.776 208.776s-93.671 208.792-208.776 208.792zM211.052 125.339c-4.986 0-9.956 1.892-13.755 5.691-7.599 7.599-7.599 19.927 0 27.51l60.823 60.839v122.976c0 10.741 8.705 19.462 19.446 19.462s19.446-8.705 19.446-19.462v-131.024c0-5.162-2.036-10.099-5.691-13.755l-66.498-66.546c-3.799-3.8-8.785-5.691-13.755-5.691zM418.834 214.971h-20.135c-7.086 0-12.825 5.739-12.825 12.825s5.739 12.825 12.825 12.825h20.135c7.086 0 12.825-5.739 12.825-12.825s-5.739-12.825-12.825-12.825zM370.981 114.438c-3.286 0-6.557 1.25-9.074 3.752l-14.236 14.236c-5.018 5.018-5.018 13.13 0 18.132s13.13 5.018 18.132 0l14.236-14.236c5.018-5.018 5.018-13.13 0-18.132-2.501-2.501-5.788-3.752-9.058-3.752zM270.448 72.788c-7.086 0-12.825 5.739-12.825 12.825v20.151c0 7.086 5.739 12.825 12.825 12.825s12.825-5.739 12.825-12.825v-20.151c0-7.086-5.739-12.825-12.825-12.825zM356.745 301.283c-3.286 0-6.557 1.25-9.074 3.751-5.018 5.018-5.018 13.13 0 18.148l14.236 14.236c5.002 5.018 13.13 5.002 18.132 0s5.018-13.13 0-18.132l-14.236-14.236c-2.501-2.501-5.788-3.752-9.058-3.752z" />
<glyph unicode="&#xe624;" d="M214.4-32c-3.2 0-9.6 0-12.8 3.2-12.8 3.2-19.2 9.6-19.2 9.6l-160 160c0 0-6.4 6.4-9.6 19.2-3.2 16 0 32 12.8 44.8 0 0 185.6 185.6 188.8 188.8s6.4 3.2 9.6 3.2 6.4 0 9.6-3.2 3.2-12.8 0-16l-188.8-188.8c-12.8-12.8-3.2-25.6 0-28.8l156.8-153.6c0 0 16-12.8 28.8 0l201.6 201.6c22.4 22.4 35.2 32 38.4 41.6s3.2 19.2 3.2 41.6v112c0 16-19.2 35.2-35.2 35.2h-112c-6.4 0-12.8 6.4-12.8 12.8s6.4 12.8 9.6 12.8h115.2c12.8 0 28.8-6.4 38.4-19.2s19.2-25.6 19.2-38.4v-118.4c0-51.2-3.2-54.4-48-99.2l-204.8-204.8c-6.4-9.6-16-16-28.8-16zM380.8 297.6c-22.4 0-38.4 16-38.4 35.2 0 6.4-3.2 9.6-9.6 9.6s-9.6-3.2-9.6-9.6c0-28.8 25.6-54.4 57.6-54.4s57.6 25.6 57.6 54.4-25.6 54.4-57.6 54.4c-6.4 0-9.6-3.2-9.6-9.6 0-3.2 3.2-9.6 9.6-9.6 22.4 0 38.4-16 38.4-38.4 0-16-19.2-32-38.4-32zM96 320c0 0 0 0 0 0 6.4 0 9.6 6.4 9.6 9.6-9.6 60.8-9.6 76.8 9.6 102.4 12.8 16 28.8 25.6 51.2 25.6 54.4 0 169.6-102.4 211.2-131.2 3.2-3.2 9.6-3.2 12.8 0s3.2 9.6 0 12.8c-6.4 6.4-150.4 140.8-224 140.8-28.8 0-51.2-12.8-67.2-32-25.6-28.8-28.8-57.6-12.8-118.4 0-6.4 3.2-9.6 9.6-9.6z" />
<glyph unicode="&#xe625;" d="M448 121.6h-384c-25.6 0-64 16-64 64v211.2c0 25.6 16 64 64 64h384c25.6 0 64-16 64-64v-211.2c-3.2-25.6-19.2-64-64-64v0zM454.4 422.4h-396.8c-19.2 0-22.4-12.8-22.4-22.4v-220.8c0-19.2 12.8-22.4 22.4-22.4h396.8c19.2 0 22.4 16 22.4 22.4v220.8c0 19.2-12.8 22.4-22.4 22.4v0zM448-6.4h-384c-9.6 0-16 6.4-19.2 12.8s0 16 3.2 22.4l41.6 41.6c3.2 3.2 9.6 6.4 16 6.4h297.6c6.4 0 9.6-3.2 16-6.4l41.6-41.6c6.4-6.4 6.4-16 3.2-22.4 0-6.4-9.6-12.8-16-12.8v0z" />
<glyph unicode="&#xe626;" d="M185.6 19.2c-19.2 0-41.6 9.6-57.6 22.4l-112 124.8c-9.6 6.4-16 22.4-16 38.4-3.2 19.2 3.2 35.2 16 51.2l25.6 25.6c19.2 22.4 60.8 25.6 86.4 0l57.6-60.8c38.4 35.2 150.4 144 192 185.6 32 32 80 32 112 0 32-35.2 28.8-86.4 0-115.2-60.8-64-246.4-243.2-249.6-246.4-12.8-16-35.2-25.6-54.4-25.6zM86.4 268.8c-6.4 0-12.8-3.2-19.2-9.6l-25.6-28.8c-9.6-6.4-12.8-12.8-9.6-22.4 0-9.6 3.2-16 6.4-19.2l115.2-124.8c19.2-19.2 48-19.2 67.2 0 3.2 3.2 188.8 182.4 249.6 246.4 19.2 19.2 16 54.4 0 70.4s-48 19.2-67.2 0c-51.2-48-204.8-195.2-208-198.4l-9.6-9.6-80 86.4c-3.2 3.2-12.8 9.6-19.2 9.6z" />
<glyph unicode="&#xe627;" d="M464 204.8c-9.6 51.2-76.8 83.2-140.8 86.4h-19.2c-64-3.2-131.2-35.2-140.8-86.4-28.8-6.4-48-32-48-64s16-54.4 51.2-60.8c3.2 0 3.2-3.2 3.2-9.6 0-12.8 0-35.2 0-51.2s12.8-19.2 22.4-19.2c3.2 0 57.6 0 108.8 0h22.4c51.2 0 102.4 0 108.8 0 9.6 0 22.4 3.2 22.4 19.2 0 12.8 0 35.2 0 51.2 0 6.4 0 9.6 3.2 9.6 38.4 6.4 51.2 28.8 51.2 60.8 0 28.8-16 57.6-44.8 64zM227.2 38.4c0-6.4 0-6.4-6.4-6.4s-12.8 0-16 0c-3.2 0-3.2 6.4-3.2 9.6s0 28.8 0 38.4c0 9.6 0 16-3.2 19.2-6.4 3.2-9.6 3.2-22.4 3.2-12.8 3.2-32 9.6-32 38.4 0 25.6 16 38.4 35.2 41.6s44.8-12.8 44.8-41.6c0 0 3.2-96 3.2-102.4zM384 38.4c0-6.4-3.2-6.4-6.4-6.4 0 0-19.2 0-51.2 0h-19.2c-32 0-51.2 0-51.2 0-3.2 0-6.4 0-6.4 6.4s0 54.4 0 86.4c12.8 6.4 25.6 12.8 60.8 12.8h12.8c32 0 48-6.4 60.8-12.8 0-32 0-83.2 0-86.4zM387.2 153.6c0 0-28.8 9.6-64 9.6h-19.2c-32 0-57.6-12.8-57.6-12.8-3.2 28.8-22.4 51.2-51.2 57.6 12.8 41.6 67.2 54.4 121.6 54.4 48 0 105.6-12.8 118.4-57.6-28.8-3.2-48-25.6-48-51.2zM457.6 102.4c-12.8 0-16 0-22.4-3.2-3.2-3.2-3.2-9.6-3.2-19.2s0-35.2 0-38.4c0-3.2 0-9.6-3.2-9.6s-9.6 0-16 0c-6.4 0-6.4 0-6.4 6.4s0 102.4 0 102.4c0 28.8 28.8 44.8 48 41.6s35.2-16 35.2-41.6c0-28.8-19.2-35.2-32-38.4zM144 3.2h-41.6c-19.2 0-35.2 16-35.2 35.2v192c0 6.4 6.4 16 16 16 6.4 0 16-6.4 16-16v-192c0-3.2 3.2-6.4 6.4-6.4h38.4c22.4-3.2 22.4-28.8 0-28.8zM22.4 233.6c0 0-9.6-3.2-16 3.2s0 19.2 0 19.2l224 182.4c12.8 12.8 38.4 12.8 54.4 0l217.6-176c9.6-9.6 9.6-19.2 3.2-22.4-6.4-6.4-12.8-6.4-16-3.2-9.6 3.2-227.2 179.2-227.2 179.2-6.4 3.2-9.6 3.2-12.8 0l-227.2-182.4z" />
<glyph unicode="&#xe628;" d="M140.8 448c3.2 0 3.2 0 0 0 3.2 0 3.2 0 6.4-3.2 3.2-9.6 38.4-83.2 41.6-92.8 0 0 3.2-6.4-3.2-9.6v-3.2c-12.8-6.4-38.4-22.4-41.6-51.2-3.2-16 3.2-32 12.8-44.8 28.8-35.2 60.8-83.2 80-99.2 12.8-12.8 41.6-38.4 57.6-38.4 12.8 0 25.6 3.2 35.2 12.8 9.6 6.4 12.8 12.8 22.4 16 3.2 0 9.6-3.2 12.8-6.4 25.6-16 73.6-48 86.4-57.6 0-3.2 3.2-6.4 0-9.6-12.8-25.6-48-60.8-73.6-60.8-35.2 0-144 92.8-192 147.2-38.4 48-128 179.2-128 230.4 0 25.6 16 41.6 35.2 54.4l3.2 3.2c12.8 9.6 35.2 12.8 44.8 12.8zM140.8 480c-12.8 0-41.6-3.2-60.8-19.2l-3.2-3.2c-19.2-9.6-51.2-32-51.2-80 0-57.6 76.8-176 134.4-246.4s172.8-163.2 220.8-163.2c44.8 0 86.4 54.4 99.2 80s3.2 41.6-6.4 51.2c-16 16-57.6 41.6-86.4 60.8-9.6 6.4-19.2 9.6-35.2 12.8s-32-19.2-41.6-28.8c-3.2-3.2-9.6-6.4-16-6.4s-22.4 16-28.8 22.4c-16 12.8-67.2 76.8-83.2 102.4-6.4 6.4-6.4 12.8-6.4 19.2 3.2 12.8 19.2 25.6 25.6 28.8l3.2 3.2c19.2 12.8 19.2 35.2 16 51.2-3.2 9.6-41.6 86.4-44.8 96-6.4 6.4-16 19.2-35.2 19.2v0z" />
<glyph unicode="&#xe900;" d="M439.716 229.511q0-44.659-17.462-85.309t-46.949-70.137-70.137-46.949-85.31-17.462q-49.239 0-93.611 20.755t-75.576 58.543q-2.004 2.863-1.861 6.44t2.433 5.868l39.219 39.505q2.862 2.577 7.157 2.577 4.581-0.573 6.585-3.435 20.898-27.196 51.243-42.082t64.412-14.886q29.772 0 56.825 11.594t46.805 31.347 31.347 46.805 11.594 56.825-11.594 56.825-31.347 46.805-46.805 31.347-56.825 11.594q-28.055 0-53.819-10.163t-45.804-29.057l39.22-39.505q8.875-8.589 4.008-19.753-4.867-11.45-16.89-11.45h-128.25q-7.442 0-12.882 5.439t-5.439 12.882v128.25q0 12.024 11.45 16.89 11.165 4.866 19.753-4.008l37.215-36.929q30.632 28.913 69.993 44.801t81.445 15.888q44.659 0 85.31-17.462t70.137-46.949 46.949-70.137 17.462-85.31z" horiz-adv-x="440" />
<glyph unicode="&#xe901;" d="M131.113 233.232q-21.184 46.376-21.184 106.208h-73.286v-27.482q0-22.329 27.053-46.376t67.416-32.349zM439.716 311.958v27.482h-73.286q0-59.831-21.185-106.207 40.365 8.302 67.418 32.349t27.053 46.376zM476.358 348.601v-36.642q0-20.325-11.88-40.937t-32.063-37.215-49.524-27.912-61.692-12.739q-12.024-15.458-27.196-27.196-10.878-9.733-15.029-20.755t-4.151-25.622q0-15.458 8.731-26.051t27.911-10.592q21.47 0 38.218-13.026t16.747-32.778v-18.322q0-4.008-2.577-6.585t-6.585-2.577h-238.179q-4.008 0-6.585 2.577t-2.577 6.585v18.322q0 19.752 16.748 32.778t38.218 13.026q19.18 0 27.911 10.592t8.731 26.051q0 14.601-4.151 25.622t-15.030 20.755q-15.172 11.737-27.196 27.196-32.348 1.431-61.692 12.739t-49.525 27.911-32.063 37.215-11.88 40.937v36.642q0 11.45 8.015 19.466t19.466 8.016h82.446v27.482q0 18.894 13.454 32.348t32.348 13.454h164.893q18.894 0 32.349-13.454t13.454-32.348v-27.482h82.447q11.45 0 19.466-8.016t8.015-19.466z" horiz-adv-x="477" />
<glyph unicode="&#xe902;" d="M401.642 401.561q4.866-11.737-4.008-20.039l-141.132-141.132v-212.415q0-12.024-11.165-16.89-3.721-1.431-7.157-1.431-7.729 0-12.882 5.438l-73.286 73.286q-5.439 5.438-5.439 12.882v139.129l-141.132 141.133q-8.874 8.302-4.008 20.039 4.867 11.165 16.89 11.165h366.43q12.024 0 16.89-11.165z" horiz-adv-x="404" />
<glyph unicode="&#xe903;" d="M293.144 229.511q0 30.345-21.47 51.815t-51.815 21.47-51.815-21.47-21.47-51.815 21.47-51.815 51.815-21.47 51.815 21.47 21.47 51.815zM439.716 260.714v-63.553q0-3.435-2.291-6.585t-5.725-3.721l-52.961-8.015q-5.438-15.458-11.165-26.051 10.019-14.314 30.632-39.505 2.863-3.435 2.863-7.157t-2.577-6.585q-7.729-10.592-28.341-30.918t-26.909-20.325q-3.435 0-7.442 2.577l-39.505 30.918q-12.596-6.585-26.051-10.878-4.581-38.933-8.302-53.247-2.004-8.015-10.306-8.015h-63.552q-4.008 0-7.013 2.433t-3.292 6.155l-8.016 52.675q-14.028 4.581-25.764 10.592l-40.364-30.632q-2.862-2.577-7.157-2.577-4.008 0-7.157 3.149-36.071 32.635-47.236 48.094-2.004 2.863-2.004 6.585 0 3.435 2.289 6.585 4.294 6.012 14.6 19.037t15.458 20.183q-7.73 14.314-11.738 28.341l-52.388 7.729q-3.723 0.573-6.011 3.579t-2.289 6.727v63.552q0 3.435 2.289 6.585t5.439 3.721l53.247 8.016q4.008 13.168 11.165 26.337-11.45 16.318-30.632 39.505-2.862 3.435-2.862 6.87 0 2.863 2.577 6.584 7.443 10.306 28.198 30.774t27.053 20.469q3.722 0 7.442-2.863l39.505-30.632q12.596 6.585 26.051 10.878 4.581 38.933 8.302 53.247 2.004 8.016 10.306 8.016h63.552q4.008 0 7.013-2.433t3.293-6.155l8.015-52.675q14.027-4.581 25.764-10.592l40.651 30.632q2.577 2.577 6.87 2.577 3.721 0 7.157-2.863 36.929-34.066 47.236-48.667 2.004-2.29 2.004-6.298 0-3.436-2.291-6.585-4.295-6.011-14.601-19.037t-15.458-20.183q7.442-14.313 11.737-28.055l52.389-8.015q3.721-0.572 6.012-3.578t2.291-6.727z" horiz-adv-x="440" />
<glyph unicode="&#xe904;" d="M513.002 282.758v-227.301q0-18.894-13.454-32.349t-32.349-13.454h-421.395q-18.894 0-32.348 13.454t-13.454 32.349v227.301q12.597-14.027 28.913-24.906 103.632-70.423 142.278-98.765 16.317-12.024 26.481-18.75t27.053-13.741 31.489-7.014h0.573q14.601 0 31.49 7.014t27.053 13.741 26.479 18.75q48.667 35.212 142.565 98.765 16.318 11.165 28.628 24.905zM513.002 366.922q0-22.616-14.027-43.228t-34.925-35.212q-107.638-74.717-133.976-93.038-2.863-2.004-12.167-8.731t-15.458-10.878-14.886-9.304-16.46-7.729-14.314-2.577h-0.572q-6.584 0-14.314 2.577t-16.461 7.729-14.886 9.304-15.459 10.878-12.167 8.731q-26.051 18.322-75.004 52.245t-58.687 40.795q-17.75 12.024-33.493 33.064t-15.745 39.077q0 22.33 11.88 37.216t33.924 14.886h421.395q18.608 0 32.206-13.454t13.598-32.349z" />
<glyph unicode="&#xe905;" d="M476.358 55.457v219.858q-9.161-10.306-19.752-18.894-76.722-58.972-121.952-96.761-14.601-12.31-23.76-19.18t-24.762-13.884-29.344-7.014h-0.572q-13.741 0-29.343 7.014t-24.762 13.884-23.761 19.18q-45.231 37.788-121.953 96.761-10.593 8.589-19.754 18.894v-219.857q0-3.721 2.721-6.44t6.441-2.719h421.395q3.721 0 6.44 2.719t2.719 6.44zM476.358 356.331v7.013t-0.144 3.721-0.858 3.578-1.575 2.577-2.577 2.147-4.008 0.716h-421.395q-3.722 0-6.441-2.719t-2.721-6.441q0-48.094 42.082-81.302 55.251-43.513 114.795-90.749 1.718-1.431 10.019-8.445t13.168-10.735 12.739-9.017 14.457-7.873 12.31-2.577h0.572q5.725 0 12.31 2.577t14.456 7.873 12.739 9.017 13.168 10.735 10.019 8.445q59.544 47.236 114.796 90.749 15.458 12.31 28.77 33.065t13.312 37.645zM513.002 366.922v-311.466q0-18.894-13.454-32.349t-32.349-13.454h-421.395q-18.894 0-32.348 13.454t-13.454 32.349v311.466q0 18.894 13.454 32.349t32.348 13.454h421.395q18.894 0 32.349-13.454t13.454-32.349z" />
<glyph unicode="&#xe906;" d="M503.841 449.368q18.894 0 32.349-13.454t13.455-32.349v-348.108q0-18.894-13.455-32.349t-32.349-13.454h-458.038q-18.894 0-32.348 13.454t-13.454 32.349v348.108q0 18.894 13.454 32.349t32.348 13.454h458.038zM45.804 412.726q-3.723 0-6.441-2.72t-2.721-6.44v-64.125h476.358v64.125q0 3.721-2.719 6.44t-6.44 2.72h-458.038zM503.841 46.296q3.721 0 6.44 2.719t2.719 6.44v174.054h-476.358v-174.054q0-3.721 2.721-6.44t6.441-2.719h458.038zM73.286 82.938v36.644h73.286v-36.644h-73.286zM183.215 82.938v36.644h109.929v-36.644h-109.928z" horiz-adv-x="550" />
<glyph unicode="&#xe907;" d="M476.358 300.793q0-6.298-7.442-13.742l-103.917-101.341 24.62-143.137q0.286-2.004 0.286-5.725 0-6.012-3.006-10.163t-8.731-4.151q-5.438 0-11.45 3.435l-128.537 67.56-128.537-67.56q-6.297-3.435-11.451-3.435-6.011 0-9.017 4.151t-3.006 10.163q0 1.717 0.573 5.725l24.62 143.137-104.204 101.341q-7.157 7.729-7.157 13.741 0 10.592 16.032 13.168l143.708 20.898 64.412 130.255q5.439 11.738 14.028 11.738t14.028-11.738l64.412-130.255 143.709-20.898q16.031-2.577 16.031-13.168z" horiz-adv-x="477" />
<glyph unicode="&#xe908;" d="M325.493 198.594l87.599 85.023-120.808 17.749-54.106 109.356-54.106-109.356-120.808-17.749 87.599-85.023-20.898-120.522 108.212 56.969 107.925-56.969zM476.358 300.793q0-6.298-7.442-13.742l-103.917-101.341 24.62-143.137q0.286-2.004 0.286-5.725 0-14.314-11.737-14.314-5.438 0-11.45 3.435l-128.537 67.56-128.537-67.56q-6.297-3.435-11.451-3.435-6.011 0-9.017 4.151t-3.006 10.163q0 1.717 0.573 5.725l24.62 143.137-104.204 101.341q-7.157 7.729-7.157 13.741 0 10.592 16.032 13.168l143.708 20.898 64.412 130.255q5.439 11.738 14.028 11.738t14.028-11.738l64.412-130.255 143.709-20.898q16.031-2.577 16.031-13.168z" horiz-adv-x="477" />
<glyph unicode="&#xe909;" d="M146.572 128.742v-54.964q0-11.45-8.016-19.466t-19.466-8.015h-91.607q-11.45 0-19.466 8.015t-8.015 19.466v54.964q0 11.45 8.015 19.466t19.466 8.015h91.607q11.451 0 19.466-8.015t8.016-19.466zM146.572 275.314v-54.964q0-11.45-8.016-19.466t-19.466-8.015h-91.607q-11.45 0-19.466 8.015t-8.015 19.466v54.964q0 11.452 8.015 19.467t19.466 8.015h91.607q11.451 0 19.466-8.015t8.016-19.466zM513.002 128.742v-54.964q0-11.45-8.015-19.466t-19.466-8.015h-274.823q-11.451 0-19.466 8.015t-8.016 19.466v54.964q0 11.45 8.016 19.466t19.466 8.015h274.823q11.45 0 19.466-8.015t8.015-19.466zM146.572 421.887v-54.964q0-11.452-8.016-19.467t-19.466-8.016h-91.607q-11.45 0-19.466 8.016t-8.015 19.466v54.964q0 11.451 8.015 19.466t19.466 8.016h91.607q11.451 0 19.466-8.016t8.016-19.466zM513.002 275.314v-54.964q0-11.45-8.015-19.466t-19.466-8.015h-274.823q-11.451 0-19.466 8.015t-8.016 19.466v54.964q0 11.452 8.016 19.467t19.466 8.015h274.823q11.45 0 19.466-8.015t8.015-19.466zM513.002 421.887v-54.964q0-11.452-8.015-19.467t-19.466-8.016h-274.823q-11.451 0-19.466 8.016t-8.016 19.466v54.964q0 11.451 8.016 19.466t19.466 8.016h274.823q11.45 0 19.466-8.016t8.015-19.466z" />
<glyph unicode="&#xe90a;" d="M155.733 339.44h-54.965q-11.451 0-19.466 8.016t-8.016 19.466v91.607q0 11.452 8.016 19.467t19.466 8.016h54.964q11.452 0 19.467-8.016t8.016-19.467v-91.607q0-11.451-8.016-19.466t-19.466-8.016zM302.305 339.44h-54.964q-11.452 0-19.467 8.016t-8.016 19.466v91.607q0 11.452 8.016 19.467t19.466 8.016h54.964q11.45 0 19.466-8.016t8.015-19.467v-91.607q0-11.451-8.015-19.466t-19.466-8.016zM155.733-26.99h-54.965q-11.451 0-19.466 8.015t-8.016 19.466v274.823q0 11.451 8.016 19.466t19.466 8.015h54.964q11.452 0 19.467-8.015t8.016-19.466v-274.823q0-11.45-8.016-19.466t-19.466-8.015zM448.877 339.44h-54.964q-11.45 0-19.466 8.016t-8.015 19.466v91.607q0 11.452 8.015 19.467t19.466 8.016h54.964q11.45 0 19.466-8.016t8.015-19.467v-91.607q0-11.451-8.015-19.466t-19.466-8.016zM302.305-26.99h-54.964q-11.452 0-19.467 8.015t-8.016 19.466v274.823q0 11.451 8.016 19.466t19.466 8.015h54.964q11.45 0 19.466-8.015t8.015-19.466v-274.823q0-11.45-8.015-19.466t-19.466-8.015zM448.877-26.99h-54.964q-11.45 0-19.466 8.015t-8.015 19.466v274.823q0 11.451 8.015 19.466t19.466 8.015h54.964q11.45 0 19.466-8.015t8.015-19.466v-274.823q0-11.45-8.015-19.466t-19.466-8.015z" />
<glyph unicode="&#xe90b;" d="M439.716 101.26v-36.644q0-7.442-5.438-12.882t-12.882-5.438h-403.074q-7.442 0-12.882 5.438t-5.439 12.882v36.644q0 7.442 5.439 12.882t12.882 5.438h403.074q7.442 0 12.882-5.438t5.438-12.882zM439.716 247.833v-36.643q0-7.442-5.438-12.882t-12.882-5.438h-403.074q-7.442 0-12.882 5.438t-5.439 12.882v36.644q0 7.442 5.439 12.882t12.882 5.44h403.074q7.442 0 12.882-5.439t5.438-12.882zM439.716 394.405v-36.643q0-7.443-5.438-12.882t-12.882-5.44h-403.074q-7.442 0-12.882 5.439t-5.439 12.882v36.643q0 7.443 5.439 12.882t12.882 5.438h403.074q7.442 0 12.882-5.438t5.438-12.882z" horiz-adv-x="440" />
<glyph unicode="&#xe90c;" d="M109.93 128.742v-54.964q0-11.45-8.016-19.466t-19.466-8.015h-54.965q-11.45 0-19.466 8.015t-8.015 19.466v54.964q0 11.45 8.015 19.466t19.466 8.015h54.965q11.451 0 19.466-8.015t8.016-19.466zM109.93 275.314v-54.964q0-11.45-8.016-19.466t-19.466-8.015h-54.965q-11.45 0-19.466 8.015t-8.015 19.466v54.964q0 11.452 8.015 19.467t19.466 8.015h54.965q11.451 0 19.466-8.015t8.016-19.466zM109.93 421.887v-54.964q0-11.452-8.016-19.467t-19.466-8.016h-54.965q-11.45 0-19.466 8.016t-8.015 19.466v54.964q0 11.451 8.015 19.466t19.466 8.016h54.965q11.451 0 19.466-8.016t8.016-19.466z" horiz-adv-x="110" />
<glyph unicode="&#xe90d;" d="M109.93 275.314v-54.964q0-11.45-8.016-19.466t-19.466-8.015h-54.965q-11.45 0-19.466 8.015t-8.015 19.466v54.964q0 11.452 8.015 19.467t19.466 8.015h54.965q11.451 0 19.466-8.015t8.016-19.466zM256.501 275.314v-54.964q0-11.45-8.016-19.466t-19.466-8.015h-54.965q-11.452 0-19.467 8.015t-8.016 19.466v54.964q0 11.452 8.016 19.467t19.466 8.015h54.964q11.452 0 19.467-8.015t8.015-19.466zM403.074 275.314v-54.964q0-11.45-8.015-19.466t-19.466-8.015h-54.964q-11.45 0-19.466 8.015t-8.015 19.466v54.964q0 11.452 8.015 19.467t19.466 8.015h54.964q11.45 0 19.466-8.015t8.015-19.466z" horiz-adv-x="404" />
<glyph unicode="&#xe90e;" d="M293.144 174.546q0-7.442-5.438-12.882l-128.25-128.25q-5.439-5.438-12.882-5.438t-12.882 5.438l-128.25 128.25q-5.439 5.438-5.439 12.882t5.439 12.882 12.882 5.438h256.501q7.442 0 12.882-5.438t5.438-12.882zM293.144 284.475q0-7.442-5.438-12.882t-12.882-5.438h-256.501q-7.442 0-12.882 5.438t-5.439 12.882 5.439 12.882l128.25 128.25q5.44 5.439 12.882 5.439t12.882-5.439l128.25-128.25q5.438-5.438 5.438-12.882z" horiz-adv-x="294" />
<glyph unicode="&#xe90f;" d="M179.494 330.279q0-3.722-2.863-6.585l-112.504-112.505 112.504-112.505q2.863-2.863 2.863-6.585t-2.863-6.585l-14.314-14.314q-2.863-2.863-6.585-2.863t-6.585 2.863l-133.404 133.404q-2.863 2.863-2.863 6.585t2.863 6.585l133.404 133.404q2.863 2.863 6.585 2.863t6.585-2.863l14.314-14.314q2.863-2.863 2.863-6.584z" horiz-adv-x="184" />
<glyph unicode="&#xe910;" d="M170.333 211.189q0-3.721-2.863-6.585l-133.404-133.404q-2.863-2.863-6.585-2.863t-6.585 2.863l-14.314 14.314q-2.862 2.863-2.862 6.585t2.862 6.585l112.505 112.505-112.504 112.505q-2.862 2.863-2.862 6.585t2.862 6.585l14.313 14.314q2.863 2.863 6.585 2.863t6.585-2.863l133.404-133.404q2.863-2.863 2.863-6.585z" horiz-adv-x="184" />
<glyph unicode="&#xe911;" d="M307.744 147.063q0-3.721-2.863-6.585l-14.314-14.314q-2.863-2.863-6.585-2.863t-6.585 2.863l-112.505 112.505-112.504-112.505q-2.862-2.863-6.585-2.863t-6.585 2.863l-14.313 14.314q-2.863 2.863-2.863 6.585t2.863 6.585l133.404 133.404q2.863 2.863 6.584 2.863t6.585-2.863l133.404-133.404q2.863-2.863 2.863-6.585z" horiz-adv-x="330" />
<glyph unicode="&#xe912;" d="M307.744 275.314q0-3.721-2.863-6.585l-133.404-133.404q-2.863-2.863-6.584-2.863t-6.585 2.863l-133.404 133.404q-2.863 2.863-2.863 6.584t2.863 6.585l14.313 14.314q2.862 2.863 6.585 2.863t6.585-2.863l112.504-112.505 112.505 112.505q2.863 2.863 6.585 2.863t6.585-2.863l14.314-14.314q2.863-2.863 2.863-6.585z" horiz-adv-x="330" />
<glyph unicode="&#xe913;" d="M416.814 486.012h-64.125v-64.125h64.125v64.125zM480.94 486.012h-32.063v-96.188h-128.25v96.188h-128.25v-96.188h-128.25v96.188h-32.063c-17.723 0-32.063-14.356-32.063-32.063v-448.877c0-17.723 14.34-32.063 32.063-32.063h448.877c17.723 0 32.063 14.34 32.063 32.063v448.877c0 17.707-14.34 32.063-32.063 32.063zM448.877 37.135h-384.752v288.563h384.752v-288.563zM160.313 486.012h-64.125v-64.125h64.125v64.125zM288.563 261.573h-64.125v-64.125h64.125v64.125zM384.752 261.573h-64.125v-64.125h64.125v64.125zM192.375 165.385h-64.125v-64.125h64.125v64.125zM192.375 261.573h-64.125v-64.125h64.125v64.125zM288.563 165.385h-64.125v-64.125h64.125v64.125zM384.752 165.385h-64.125v-64.125h64.125v64.125z" />
</font>
</defs>
</svg>
