<svg xmlns="http://www.w3.org/2000/svg" viewBox="0 0 18 18">
  <defs>
    <style>
      .cls-1 {
        fill: #ef5123;
      }
    </style>
  </defs>
  <path id="cancel_noun_702583" class="cls-1" d="M23.309,8.528,17.9,13.937,12.491,8.528a1.084,1.084,0,0,0-1.555,0L9.228,10.236a1.084,1.084,0,0,0,0,1.555L14.637,17.2,9.228,22.609a1.084,1.084,0,0,0,0,1.555l1.708,1.708a1.084,1.084,0,0,0,1.555,0L17.9,20.441l5.409,5.409a1.084,1.084,0,0,0,1.555,0l1.708-1.708a1.084,1.084,0,0,0,0-1.555L21.141,17.2l5.409-5.409a1.084,1.084,0,0,0,0-1.555L24.842,8.528A1.1,1.1,0,0,0,23.309,8.528Z" transform="translate(-8.9 -8.2)"/>
</svg>
