<?xml version="1.0" encoding="utf-8"?>
<!-- Generator: Adobe Illustrator 23.0.0, SVG Export Plug-In . SVG Version: 6.00 Build 0)  -->
<svg version="1.1" id="Layer_1" xmlns="http://www.w3.org/2000/svg" xmlns:xlink="http://www.w3.org/1999/xlink" x="0px" y="0px"
	 viewBox="0 0 25 38" style="enable-background:new 0 0 25 38;" xml:space="preserve">
<style type="text/css">
	.st0{enable-background:new    ;}
	.st1{fill:#F49E1E;}
</style>
<g class="st0">
	<path class="st1" d="M6.5,26V9h6.1c0.9,0,1.7,0.1,2.5,0.3c0.8,0.2,1.5,0.5,2.1,0.9c0.6,0.4,1.1,0.9,1.4,1.6
		c0.3,0.7,0.5,1.5,0.5,2.5c0,1.2-0.3,2.3-0.8,3.1c-0.5,0.8-1.3,1.4-2.2,1.8L20,26h-4.3l-3.2-6.1h-2.1V26H6.5z M10.4,16.8h2
		c1,0,1.8-0.2,2.3-0.6s0.8-1.1,0.8-1.9s-0.3-1.4-0.8-1.7s-1.3-0.5-2.3-0.5h-2V16.8z"/>
</g>
</svg>
