<svg width="118" height="32" fill="none" xmlns="http://www.w3.org/2000/svg"><g fill="#004A8E"><path d="M114.37 18.41v2.28h-.31v-2.28h-.656v-.242h1.627v.242h-.661zM117.595 20.69a21.849 21.849 0 00-.141-2.127h-.006l-.711 2.127h-.238l-.717-2.127h-.006c-.05.558-.084 1.349-.096 2.127h-.305c.017-.84.085-1.687.187-2.523h.401l.683 1.998.684-1.997h.389c.102.812.175 1.715.198 2.522h-.322z"/></g><g fill="#004A8E"><path d="M73.53 27.52H71.12c0-1.886.056-3.81.056-4.9 0-2.24-.412-2.748-1.214-2.748-.486 0-1.158.355-1.78.84.057.3.097.729.097 1.4v5.402h-2.395V22.62c0-2.206-.412-2.748-1.197-2.748-.452 0-1.068.299-1.683.768v6.873H60.59v-9.357h1.982l.17.988c.745-.689 1.7-1.197 2.767-1.197 1.158 0 1.926.576 2.282 1.344.898-.802 1.87-1.344 2.993-1.344 1.83 0 2.802 1.197 2.802 4.222 0 1.162-.057 3.29-.057 5.35zM80.618 27.52l-.169-.955c-.802.689-1.666 1.157-2.864 1.157-1.886 0-2.897-.93-2.897-2.67 0-1.946 1.553-3.233 4.823-3.233h.577v-.711c0-.954-.543-1.422-1.74-1.422-.972 0-2 .26-2.84.558l-.317-1.456c1.101-.485 2.377-.84 3.778-.84 2.395 0 3.496 1.14 3.496 2.912v6.654h-1.847v.005zm-.525-4.245h-.712c-1.83 0-2.338.615-2.338 1.479 0 .784.43 1.27 1.254 1.27.582 0 1.214-.317 1.796-.824v-1.925zM89.39 20.284a2.708 2.708 0 00-.825-.13c-.525 0-.971.356-1.813 1.422v5.943h-2.411v-9.363h1.982l.186 1.456c.955-1.253 1.587-1.642 2.265-1.642.316 0 .627.068.915.203l-.3 2.11zM95.523 27.52l-2.507-4.634v4.633h-2.412V16.6h2.412v5.164l2.152-3.607h2.8l-2.784 3.906 3.163 5.457h-2.824zM100.776 23.315v.13c0 1.72.768 2.449 2.095 2.449.842 0 1.943-.17 3.05-.542l.339 1.383c-1.141.598-2.485.987-3.852.987-2.468 0-4.078-1.213-4.078-4.633 0-3.347 1.61-5.136 4.242-5.136 2.394 0 3.982 1.343 3.739 5.362h-5.535zm3.219-1.53c0-1.495-.525-2.224-1.531-2.224-1.027 0-1.587.954-1.666 2.264h3.197v-.04zM110.372 27.706c-1.74 0-2.378-.655-2.378-2.45v-5.418h-1.198v-1.682h1.271c.226-.508.418-1.027.582-1.557h1.739v1.557h2.079v1.682h-2.079v4.82c0 .954.226 1.253.859 1.253.282 0 .672-.04 1.271-.203l.186 1.382c-.875.446-1.621.616-2.332.616z"/></g><g fill="#004A8E"><path d="M40.168 27.65c-1.559 0-2.112-.666-2.112-2.46v-5.803h-1.48v-1.072h1.502c.147-.813.277-.745.39-1.704h1.056v1.704h2.463v1.072h-2.463v5.43c0 1.258.204 1.704 1.09 1.704.317 0 .74-.056 1.43-.293l.186.891c-.746.345-1.452.53-2.062.53zM50.492 27.497h-1.445c0-1.744.034-3.76.034-4.888 0-2.427-.633-3.262-1.763-3.262-.61 0-1.445.39-2.259 1.095v7.055h-1.463V16.604h1.463v2.71c.763-.627 1.666-1.152 2.762-1.152 1.666 0 2.722 1.055 2.722 4.075.006 1.112-.05 3.358-.05 5.26zM53.345 23.089v.186c0 2.297.892 3.223 2.536 3.223a7.089 7.089 0 002.688-.553l.277.869a7.312 7.312 0 01-3.321.835c-2.225 0-3.705-1.202-3.705-4.464 0-3.206 1.39-5.023 3.761-5.023 2.17 0 3.485 1.388 3.282 4.927h-5.518zm4.095-1.055c0-1.761-.627-2.817-1.949-2.817-1.355 0-2.056 1.315-2.152 2.89h4.095v-.073h.006z"/></g><g fill="#004A8E"><path d="M39.914 13.709c-2.468 0-3.722-1.57-3.722-4.747 0-2.974 1.553-5.006 4.004-5.006 1.124 0 2.022.412 2.694 1.18l-.841 1.236a2.266 2.266 0 00-1.553-.615c-1.102 0-1.814 1.01-1.814 2.968 0 2.28.616 3.178 1.7 3.178.746 0 1.367-.243 1.983-.785l.728 1.23c-.728.745-1.756 1.36-3.18 1.36zM47.487 13.726c-2.58 0-4.134-1.253-4.134-4.69 0-3.454 1.74-5.08 4.524-5.08 2.581 0 4.134 1.253 4.134 4.673 0 3.471-1.74 5.097-4.524 5.097zm.17-7.998c-1.107 0-1.836.768-1.836 2.896 0 2.635.656 3.324 1.892 3.324 1.102 0 1.83-.768 1.83-2.895 0-2.63-.672-3.325-1.886-3.325zM66.092 13.523H63.68c0-1.886.056-3.81.056-4.9 0-2.24-.412-2.748-1.214-2.748-.486 0-1.158.356-1.779.841.056.3.096.728.096 1.4v5.4h-2.395V8.625c0-2.207-.412-2.749-1.197-2.749-.446 0-1.067.3-1.683.768v6.874h-2.412V4.16h1.983l.17.987c.745-.688 1.7-1.196 2.767-1.196 1.157 0 1.925.575 2.281 1.343.898-.802 1.87-1.343 2.994-1.343 1.83 0 2.807 1.196 2.807 4.221 0 1.163-.057 3.29-.062 5.35zM82.228 13.523l-.17-.954c-.802.688-1.666 1.157-2.858 1.157-1.886 0-2.897-.932-2.897-2.67 0-1.947 1.553-3.234 4.823-3.234h.582v-.71c0-.955-.542-1.423-1.74-1.423-.97 0-1.999.26-2.84.559l-.317-1.456c1.102-.486 2.378-.841 3.779-.841 2.394 0 3.496 1.14 3.496 2.912v6.654h-1.858v.006zm-.52-4.245h-.712c-1.83 0-2.338.616-2.338 1.479 0 .784.43 1.27 1.254 1.27.582 0 1.214-.316 1.796-.824V9.278zM70.887 13.477c-.322 0-.644-.022-.966-.056v1.665h-2.355V4.13h1.92l.18.932c.752-.678 1.627-1.13 2.537-1.13 2.191 0 3.253 1.97 3.253 4.403.005 3.606-1.932 5.141-4.57 5.141zm.666-7.737c-.44 0-1.04.254-1.626.767v5.114c.31.13.694.18 1.095.18 1.186 0 2.028-.965 2.028-3.138 0-1.885-.565-2.923-1.497-2.923zM90.813 6.287a2.709 2.709 0 00-.825-.13c-.525 0-.972.356-1.813 1.423v5.943h-2.412V4.16h1.983l.186 1.456c.954-1.253 1.587-1.643 2.265-1.643.316 0 .627.068.915.203l-.3 2.111zM93.507 9.318v.13c0 1.721.768 2.449 2.095 2.449.841 0 1.943-.17 3.05-.542l.339 1.383c-1.141.598-2.486.988-3.852.988-2.468 0-4.078-1.214-4.078-4.634 0-3.347 1.61-5.136 4.247-5.136 2.395 0 3.982 1.344 3.739 5.362h-5.54zm3.213-1.53c0-1.495-.525-2.223-1.536-2.223-1.028 0-1.587.954-1.666 2.263h3.197v-.04h.005z"/></g><path d="M16.012 32c8.843 0 16.012-7.163 16.012-16S24.854 0 16.012 0C7.169 0 0 7.163 0 16s7.169 16 16.012 16z" fill="url(#paint0_linear)"/><path d="M9.099 24.048c-.057 1.925-.469 3.826-1.198 5.745a15.939 15.939 0 008.11 2.201c2.249 0 4.39-.462 6.332-1.298-3.146-3.313-7.788-5.976-13.244-6.648z" fill="url(#paint1_linear)"/><path opacity=".55" d="M9.099 24.042a16.16 16.16 0 01-.367 2.98 18.18 18.18 0 0110.85 4.572c.954-.22 1.88-.52 2.761-.903-3.146-3.302-7.788-5.971-13.244-6.649z" fill="url(#paint2_linear)"/><path d="M9.06 30.414a15.889 15.889 0 006.703 1.58c-1.49-2.81-4.117-4.012-6.704-1.58z" fill="url(#paint3_linear)"/><path d="M19.598 22.468c-1.53-.288-3.021.04-4.072.598.006 0 .006.006.011.006 2.14.965 1.469 2.031 2.164 3.928a21.688 21.688 0 014.642 3.696 15.727 15.727 0 002.689-1.478c0-.006-.006-.012-.006-.012-1.497-4.667-3.49-6.372-5.428-6.738z" fill="url(#paint4_linear)"/><path d="M15.537 23.072c-.005 0-.005-.006-.01-.006-2.955-1.258-6.58-1.388-6.575-1.349.124.88.175 1.468.152 2.331a21.94 21.94 0 017.817 2.512c.265.146.525.293.785.445-.7-1.902-.028-2.968-2.169-3.933z" fill="url(#paint5_linear)"/><path d="M23.964 7.342s-1.293.142-1.886.159c-.989.033-1.836.084-2.062.022-1.434-.248-2.654-1.704-3.01-2.432 0-.006-.006-.012-.006-.017-.056-.102-.124-.124-.226-.096-.14.04-.361.175-.75.338-.012.006-.024.012-.035.012h-.006c-.248.101-.559.214-.954.321-1.508.412-3.044.474-5.156 1.53-2.079 1.038-3.655 2.585-4.378 4.425-1.406 3.555.204 6.123 2.113 7.788a4.21 4.21 0 011.344 2.314c-.006-.04 3.62.09 6.574 1.349 1.034-.553 2.502-.88 4.004-.61-.79-1.53-.084-2.54.147-2.918.271-.457.367-.558.74-.937-.102-.033-.3-.05-.344-.197 0 0 .937-.835 1.513-1.784l.017-.033c.537-1.14.943-2.066.943-2.066 1.491-1.383 2.446-2.483 2.78-3.465 1.535-.424 1.823-4.148-1.362-3.703z" fill="url(#paint6_linear)"/><path d="M21.626 16.536v.011c-.542.937-1.469 1.778-1.548 1.846l-.005.006c.05.146.243.163.344.197-.373.384-.469.48-.74.937-.226.384-.937 1.383-.146 2.912 0 0 0 .006.005.006-.011 0-.022-.006-.034-.006-.017 0-.028-.006-.045-.006-.017 0-.028-.005-.045-.005-.034-.006-.062-.012-.096-.012-.023-.005-.045-.005-.068-.01a.835.835 0 00-.119-.012h-.016c-.029-.006-.057-.006-.085-.011l-.198-.017a6.097 6.097 0 00-1.446.073h-.005a5.734 5.734 0 00-.977.243 3.14 3.14 0 00-.345.135c-.062.023-.118.051-.18.08-.057.027-.114.05-.17.078-.006 0-.006.006-.011.006-.057.028-.108.05-.159.079-.073-.028-.146-.062-.22-.09l-.034-.017a3.06 3.06 0 00-.203-.08c-.017-.005-.034-.01-.05-.022a5.704 5.704 0 00-.176-.068c-.028-.005-.05-.017-.079-.028l-.203-.068c-.08-.028-.158-.05-.243-.079a.394.394 0 01-.045-.017c-.159-.05-.317-.095-.47-.14-.016-.006-.033-.012-.044-.012-.068-.017-.141-.04-.21-.056-.005 0-.016-.006-.022-.006-.068-.017-.136-.034-.209-.05h-.006c-.079-.023-.163-.04-.242-.063-.017-.005-.029-.005-.046-.011-.073-.017-.14-.034-.214-.05-.006 0-.011 0-.017-.007l-.237-.05c-.006 0-.012 0-.017-.006-.232-.05-.458-.09-.684-.13-.011 0-.022-.005-.034-.005l-.203-.034h-.017c-.062-.012-.124-.023-.186-.029h-.017c-.051-.005-.096-.017-.147-.022h-.006l-.135-.017c-.011 0-.023-.006-.04-.006l-.101-.017c-.012 0-.023-.005-.04-.005l-.13-.017h-.005l-.13-.017h-.012a.84.84 0 00-.113-.011h-.022c-.09-.012-.175-.023-.26-.029h-.011a14.094 14.094 0 01-.159-.017h-.011c-.022 0-.04-.005-.062-.005-.011 0-.023 0-.028-.006-.028 0-.057-.006-.08-.006h-.005c-.022 0-.04-.005-.056-.005H9.827c-.05-.006-.096-.006-.14-.011H9.68c-.051-.006-.102-.006-.147-.012-.023 0-.04 0-.062-.005h-.006-.006c-.017 0-.034 0-.05-.006-.023 0-.04 0-.057-.006h-.091-.27l-.034-.124-.051-.175a5.584 5.584 0 00-.113-.327c0-.006-.006-.011-.006-.017a3.613 3.613 0 00-.22-.474l-.034-.056-.028-.051c-.028-.051-.034-.062-.062-.108-.051-.079-.096-.158-.153-.231-.028-.045-.062-.085-.096-.13l-.011-.017a3.496 3.496 0 00-.412-.474 6.398 6.398 0 00-.204-.192c-.073-.067-.147-.13-.22-.203-.006-.006-.011-.006-.011-.011-.074-.068-.141-.136-.215-.209l-.006-.006-.005-.005c-.074-.074-.141-.147-.21-.22-.067-.074-.14-.153-.208-.232-.051-.062-.102-.118-.153-.18-.768-.937-1.35-2.066-1.49-3.398-.091-.852 0-1.789.338-2.805v-.005c.023-.063.045-.125.062-.187v-.005c-.525 5.277 2.802 6.225 6.18 5.892a6.921 6.921 0 01-.696.587c-.022.017-.028.062.012.067.943.164 1.824-.242 2.665-.61a4.72 4.72 0 01-.587.672c-.022.023-.005.063.028.063 1.226-.017 2.277-.785 3.22-1.49-.045.14-.096.288-.141.429a.035.035 0 00.045.045c.864-.282 1.581-.847 2.14-1.547a1.588 1.588 0 012.333-.299l.977.841z" fill="url(#paint7_linear)"/><path d="M9.517 13.438c-.288-.384-.492-.898-.424-1.383-.158.085-.31.18-.474.265-.023.011-.057 0-.057-.034.034-.474.277-.863.43-1.298a4.695 4.695 0 00-.622.141c-.028.006-.062-.028-.04-.056.498-.756 1.35-1.259 2.198-1.552a.17.17 0 01.022-.045c.057-.119.074-.21.057-.282v-.012c-.237-.937-2.197-.14-3.112.948-.87 1.028-1.096 2.399-.83 3.55.27 1.191 1.061 2.145 2.208 2.24.254.024.508.007.757-.044l.028-.006c.18-.045.356-.107.525-.197.514-.266.859-.91.66-1.558-.49-.175-.993-.232-1.326-.677z" fill="url(#paint8_linear)"/><path opacity=".71" d="M26.438 9.132c0-.057-.006-.119-.011-.175a1.613 1.613 0 00-.046-.26 1.782 1.782 0 00-.271-.638 1.033 1.033 0 00-.096-.124c-.022-.028-.045-.05-.068-.079a2.105 2.105 0 00-.203-.18c-.05-.034-.101-.074-.158-.102-.39-.226-.92-.327-1.615-.226 0 0-1.288.141-1.881.158-.802.028-1.497.068-1.864.045a1.278 1.278 0 01-.198-.022c1.881.592-1.203 5.384 3.598 5.937.599-.627 1.062-1.185 1.367-1.71l.006-.006c.028-.045.05-.09.079-.14v-.006a1.26 1.26 0 00.062-.125c.006-.005.006-.017.011-.022.023-.045.04-.085.062-.13 0 0 0-.006.006-.006.017-.04.034-.079.05-.112.006-.012.006-.023.012-.029.017-.04.028-.079.045-.118l.051-.017.05-.017c.046-.017.097-.04.142-.062.028-.017.05-.028.073-.045.012-.012.029-.017.04-.029.056-.04.107-.079.152-.124l.006-.005a1.93 1.93 0 00.497-.841c.074-.26.108-.525.102-.79z" fill="url(#paint9_linear)"/><path opacity=".83" d="M13.453 7.76c.125 0 .254-.006.379-.028.034-.006.056.022.04.056-.334.695-.622 1.355-.498 2.14.045.298.147.626.31.908a.232.232 0 00.12.102c.592-2.546 5.331-.982 6.218-3.415-1.435-.248-2.655-1.704-3.01-2.432 0-.006-.006-.012-.006-.017-.057-.102-.125-.124-.226-.096-.141.04-.362.175-.751.338-.012.006-.023.012-.034.012h-.006c-.09.04-.186.073-.294.113-.954.48-1.756 1.377-2.242 2.32z" fill="url(#paint10_linear)"/><path d="M17.136 7.32c-.893.101-1.271 1.823-1.807 2.19.96-.31 2.19-.362 3.168-.683.124-1.146-.582-1.597-1.361-1.507z" fill="url(#paint11_linear)"/><path d="M17.395 8.166c-.463.029-.711.875-.994 1.09.56-.102 1.147-.18 1.683-.316.063-.56-.288-.796-.689-.774z" fill="url(#paint12_linear)"/><path opacity=".8" d="M21.134 16.322c.272.118.593 0 .718-.271v-.006c0-.006 0-.006.005-.011.017-.034.034-.074.051-.107 0 0 0-.006.006-.006a8.94 8.94 0 01.152-.327c.283-.638.48-1.073.48-1.073 1.492-1.383 2.446-2.477 2.774-3.465-3.22 2.032-6.219-.068-8.015 1.23-.04.034-.13.119-.248.237-.684.66-.475 1.8.39 2.184l3.688 1.615z" fill="url(#paint13_radial)"/><path d="M24.043 7.331l-.011.017c-.057.107-.09.203-.108.294a.89.89 0 00.305.18c.13.045.181.113.255.232.05.084.073.175.107.265.017.04.034.073.05.107.775.254 1.865.378 1.74 1.253.243-1.163-.344-2.585-2.338-2.348z" fill="url(#paint14_linear)"/><defs><linearGradient id="paint0_linear" x1="7.293" y1="2.581" x2="24.716" y2="29.43" gradientUnits="userSpaceOnUse"><stop offset=".001" stop-color="#D6D6D6"/><stop offset=".033" stop-color="#E0E0E0"/><stop offset=".089" stop-color="#ECEBEB"/><stop offset=".147" stop-color="#EFEFEF"/><stop offset=".644" stop-color="#EFEFEF"/><stop offset=".726" stop-color="#EFEFEF"/><stop offset=".795" stop-color="#EAEAEA"/><stop offset=".882" stop-color="#DADADA"/><stop offset=".979" stop-color="#C1C1C1"/><stop offset="1" stop-color="#BABABA"/></linearGradient><linearGradient id="paint1_linear" x1="7.624" y1="27.378" x2="30.279" y2="30.726" gradientUnits="userSpaceOnUse"><stop offset=".101" stop-color="#641724"/><stop offset=".212" stop-color="#711825"/><stop offset=".419" stop-color="#931B26"/><stop offset=".584" stop-color="#B31E28"/><stop offset="1" stop-color="#D2202F"/></linearGradient><linearGradient id="paint2_linear" x1="8.664" y1="26.979" x2="28.394" y2="29.901" gradientUnits="userSpaceOnUse"><stop offset=".079" stop-color="#321724"/><stop offset=".192" stop-color="#381724" stop-opacity=".878"/><stop offset=".349" stop-color="#4B1826" stop-opacity=".707"/><stop offset=".533" stop-color="#681A28" stop-opacity=".508"/><stop offset=".736" stop-color="#921D2B" stop-opacity=".287"/><stop offset=".953" stop-color="#C6202E" stop-opacity=".051"/><stop offset="1" stop-color="#D2202F" stop-opacity="0"/></linearGradient><linearGradient id="paint3_linear" x1="10.991" y1="40.77" x2="12.716" y2="29.107" gradientUnits="userSpaceOnUse"><stop stop-color="#95191D" stop-opacity="0"/><stop offset="1" stop-color="#4A191D"/></linearGradient><linearGradient id="paint4_linear" x1="15.524" y1="26.528" x2="26.306" y2="26.528" gradientUnits="userSpaceOnUse"><stop stop-color="#B59F2C"/><stop offset=".868" stop-color="#F0EEC5"/></linearGradient><linearGradient id="paint5_linear" x1="10.259" y1="25.785" x2="17.294" y2="22.507" gradientUnits="userSpaceOnUse"><stop stop-color="#B59F2C"/><stop offset=".868" stop-color="#F0EEC5"/></linearGradient><linearGradient id="paint6_linear" x1="7.507" y1="20.122" x2="25.597" y2="6.48" gradientUnits="userSpaceOnUse"><stop stop-color="#25130E"/><stop offset=".017" stop-color="#2A1711"/><stop offset=".464" stop-color="#AC8864"/><stop offset=".66" stop-color="#E0B585"/><stop offset=".803" stop-color="#E9C08F"/><stop offset=".999" stop-color="#FBD6A4"/></linearGradient><linearGradient id="paint7_linear" x1="19.525" y1="13.657" x2="3.488" y2="21.616" gradientUnits="userSpaceOnUse"><stop offset=".001" stop-color="#E0B585" stop-opacity="0"/><stop offset=".104" stop-color="#B38F68" stop-opacity=".126"/><stop offset=".22" stop-color="#89694D" stop-opacity=".267"/><stop offset=".337" stop-color="#654B36" stop-opacity=".411"/><stop offset=".455" stop-color="#493325" stop-opacity=".555"/><stop offset=".573" stop-color="#362218" stop-opacity=".7"/><stop offset=".693" stop-color="#2A1710" stop-opacity=".846"/><stop offset=".815" stop-color="#26140E" stop-opacity=".996"/><stop offset="1" stop-color="#25130E"/></linearGradient><linearGradient id="paint8_linear" x1="6.849" y1="11.942" x2="12.127" y2="12.763" gradientUnits="userSpaceOnUse"><stop offset=".07" stop-color="#25130E"/><stop offset=".332" stop-color="#351C13" stop-opacity=".782"/><stop offset=".794" stop-color="#5A321E" stop-opacity=".4"/></linearGradient><linearGradient id="paint9_linear" x1="20.514" y1="11.044" x2="26.311" y2="8.603" gradientUnits="userSpaceOnUse"><stop offset=".209" stop-color="#E0B585" stop-opacity=".2"/><stop offset=".226" stop-color="#DDB283" stop-opacity=".216"/><stop offset=".466" stop-color="#AC8461" stop-opacity=".459"/><stop offset=".677" stop-color="#886249" stop-opacity=".672"/><stop offset=".849" stop-color="#724E3A" stop-opacity=".845"/><stop offset=".96" stop-color="#6A4634" stop-opacity=".958"/></linearGradient><linearGradient id="paint10_linear" x1="12.905" y1="7.955" x2="20.31" y2="7.955" gradientUnits="userSpaceOnUse"><stop stop-color="#5A321E" stop-opacity=".1"/><stop offset=".204" stop-color="#4D2A19" stop-opacity=".336"/><stop offset=".488" stop-color="#412315" stop-opacity=".663"/><stop offset=".779" stop-color="#3D2114"/></linearGradient><linearGradient id="paint11_linear" x1="15.327" y1="8.409" x2="18.508" y2="8.409" gradientUnits="userSpaceOnUse"><stop offset=".001" stop-color="#5A321E" stop-opacity=".1"/><stop offset=".302" stop-color="#452618" stop-opacity=".281"/><stop offset=".733" stop-color="#2E1810" stop-opacity=".54"/><stop offset="1" stop-color="#25130E" stop-opacity=".7"/></linearGradient><linearGradient id="paint12_linear" x1="16.4" y1="8.712" x2="18.088" y2="8.712" gradientUnits="userSpaceOnUse"><stop stop-color="#25130E" stop-opacity=".2"/><stop offset="1" stop-color="#25130E"/></linearGradient><linearGradient id="paint14_linear" x1="24.093" y1="9.132" x2="26.569" y2="7.754" gradientUnits="userSpaceOnUse"><stop offset=".14" stop-color="#5A321E" stop-opacity=".3"/><stop offset=".234" stop-color="#532E1C" stop-opacity=".366"/><stop offset=".73" stop-color="#311A12" stop-opacity=".711"/><stop offset="1" stop-color="#25130E" stop-opacity=".9"/></linearGradient><radialGradient id="paint13_radial" cx="0" cy="0" r="1" gradientUnits="userSpaceOnUse" gradientTransform="matrix(8.38425 -1.6302 1.17867 6.062 24.922 9.596)"><stop offset=".385" stop-color="#47210E"/><stop offset=".531" stop-color="#4A2410" stop-opacity=".763"/><stop offset=".63" stop-color="#532C17" stop-opacity=".602"/><stop offset=".715" stop-color="#623B23" stop-opacity=".464"/><stop offset=".792" stop-color="#785034" stop-opacity=".338"/><stop offset=".864" stop-color="#936B49" stop-opacity=".221"/><stop offset=".932" stop-color="#B68C64" stop-opacity=".111"/><stop offset=".996" stop-color="#DDB383" stop-opacity=".01"/><stop offset="1" stop-color="#E0B585" stop-opacity="0"/></radialGradient></defs></svg>
