<svg width="208" height="38" fill="none" xmlns="http://www.w3.org/2000/svg"><path d="M81.398 24.416c-.37 0-.739-.026-1.109-.065v1.912h-2.704V13.684h2.205l.207 1.07c.863-.778 1.868-1.297 2.912-1.297 2.517 0 3.736 2.262 3.736 5.055.007 4.141-2.218 5.904-5.247 5.904zm.766-8.885c-.506 0-1.194.292-1.868.881v5.872c.356.149.798.207 1.258.207 1.362 0 2.328-1.108 2.328-3.603 0-2.165-.648-3.357-1.718-3.357zM45.832 24.682c-2.834 0-4.273-1.802-4.273-5.45 0-3.416 1.783-5.749 4.598-5.749 1.29 0 2.321.473 3.093 1.354l-.966 1.42a2.602 2.602 0 00-1.784-.707c-1.264 0-2.081 1.16-2.081 3.41 0 2.617.707 3.648 1.952 3.648.856 0 1.57-.279 2.276-.901l.837 1.413c-.837.855-2.017 1.562-3.652 1.562zM54.53 24.701c-2.965 0-4.748-1.439-4.748-5.385 0-3.966 1.998-5.833 5.195-5.833 2.964 0 4.747 1.439 4.747 5.366 0 3.986-1.997 5.852-5.195 5.852zm.194-9.183c-1.271 0-2.108.881-2.108 3.325 0 3.026.752 3.817 2.173 3.817 1.264 0 2.101-.882 2.101-3.325 0-3.02-.772-3.817-2.166-3.817zM75.892 24.468h-2.77c0-2.165.066-4.375.066-5.625 0-2.573-.474-3.156-1.395-3.156-.557 0-1.33.408-2.043.965.065.344.11.836.11 1.607v6.202h-2.75v-5.618c0-2.534-.472-3.156-1.374-3.156-.512 0-1.226.343-1.933.88v7.894h-2.769V13.716h2.276l.195 1.135c.856-.791 1.952-1.374 3.178-1.374 1.33 0 2.211.66 2.62 1.542 1.031-.92 2.147-1.542 3.437-1.542 2.102 0 3.224 1.373 3.224 4.847 0 1.335-.065 3.778-.072 6.144zM94.421 24.468l-.195-1.096c-.92.791-1.913 1.329-3.281 1.329-2.166 0-3.327-1.07-3.327-3.065 0-2.236 1.783-3.714 5.538-3.714h.668v-.816c0-1.096-.622-1.633-1.997-1.633-1.116 0-2.296.298-3.262.641l-.363-1.672c1.264-.557 2.73-.965 4.338-.965 2.75 0 4.015 1.309 4.015 3.344v7.64H94.42v.007zm-.597-4.874h-.817c-2.101 0-2.685.707-2.685 1.698 0 .901.493 1.458 1.44 1.458.668 0 1.394-.363 2.062-.946v-2.21zM104.279 16.16a3.114 3.114 0 00-.947-.15c-.603 0-1.115.409-2.082 1.634v6.824h-2.769V13.716h2.276l.214 1.672c1.096-1.438 1.823-1.886 2.601-1.886.363 0 .72.078 1.051.234l-.344 2.424zM107.372 19.64v.149c0 1.976.882 2.812 2.407 2.812.966 0 2.23-.194 3.502-.622l.389 1.588c-1.31.687-2.854 1.134-4.423 1.134-2.834 0-4.683-1.393-4.683-5.32 0-3.844 1.849-5.898 4.877-5.898 2.75 0 4.572 1.542 4.294 6.157h-6.363zm3.691-1.757c0-1.717-.604-2.553-1.764-2.553-1.181 0-1.823 1.095-1.914 2.599h3.671v-.046h.007zM157.031 24.468h-2.769c0-2.165.065-4.375.065-5.625 0-2.573-.474-3.156-1.395-3.156-.557 0-1.329.408-2.042.965.064.344.11.836.11 1.607v6.202h-2.75v-5.618c0-2.534-.473-3.156-1.375-3.156-.519 0-1.226.343-1.933.88v7.894h-2.769V13.716h2.277l.194 1.135c.856-.791 1.952-1.374 3.178-1.374 1.329 0 2.211.66 2.62 1.542 1.031-.92 2.147-1.542 3.437-1.542 2.102 0 3.217 1.373 3.217 4.847 0 1.335-.065 3.778-.065 6.144zM165.17 24.468l-.194-1.096c-.921.791-1.913 1.329-3.288 1.329-2.166 0-3.327-1.07-3.327-3.065 0-2.236 1.783-3.714 5.538-3.714h.662v-.816c0-1.096-.623-1.633-1.998-1.633-1.115 0-2.296.298-3.262.641l-.363-1.672c1.265-.557 2.73-.965 4.339-.965 2.749 0 4.014 1.309 4.014 3.344v7.64h-2.121v.007zm-.603-4.874h-.817c-2.101 0-2.685.707-2.685 1.698 0 .901.493 1.458 1.44 1.458.668 0 1.394-.363 2.062-.946v-2.21zM175.242 16.16a3.109 3.109 0 00-.947-.15c-.603 0-1.115.409-2.081 1.634v6.824h-2.77V13.716h2.277l.214 1.672c1.096-1.438 1.822-1.886 2.6-1.886.363 0 .72.078 1.051.234l-.344 2.424zM182.285 24.468l-2.879-5.32v5.32h-2.769v-12.54h2.769v5.93l2.471-4.142h3.217l-3.198 4.485 3.632 6.267h-3.243zM188.317 19.64v.149c0 1.976.882 2.812 2.406 2.812.966 0 2.231-.194 3.502-.622l.389 1.588c-1.31.687-2.853 1.134-4.423 1.134-2.834 0-4.682-1.393-4.682-5.32 0-3.844 1.848-5.898 4.87-5.898 2.75 0 4.572 1.542 4.293 6.157h-6.355zm3.696-1.757c0-1.717-.603-2.553-1.757-2.553-1.18 0-1.822 1.095-1.913 2.599h3.67v-.046zM199.335 24.682c-1.997 0-2.73-.752-2.73-2.813v-6.221h-1.375v-1.932h1.459c.26-.583.48-1.18.668-1.788h1.998v1.788h2.387v1.932h-2.387v5.534c0 1.095.259 1.439.986 1.439.324 0 .771-.046 1.459-.233l.214 1.587c-1.005.512-1.861.707-2.679.707zM118.722 24.617c-1.79 0-2.426-.765-2.426-2.826V15.13h-1.699v-1.231h1.725c.169-.933.318-.856.448-1.957h1.212v1.957h2.828v1.231h-2.828v6.234c0 1.446.234 1.958 1.252 1.958.363 0 .85-.065 1.641-.337l.214 1.024c-.856.395-1.667.609-2.367.609zM130.577 24.442h-1.66c0-2.003.039-4.316.039-5.613 0-2.786-.727-3.745-2.024-3.745-.7 0-1.66.447-2.594 1.257v8.1h-1.679V11.935h1.679v3.11c.876-.719 1.913-1.321 3.172-1.321 1.913 0 3.126 1.212 3.126 4.679.006 1.276-.059 3.856-.059 6.04zM133.852 19.38v.214c0 2.638 1.025 3.7 2.912 3.7a8.137 8.137 0 003.087-.634l.318.998a8.398 8.398 0 01-3.813.959c-2.556 0-4.255-1.38-4.255-5.126 0-3.681 1.596-5.768 4.32-5.768 2.49 0 4.001 1.594 3.768 5.657h-6.337zm4.702-1.211c0-2.022-.72-3.234-2.237-3.234-1.557 0-2.361 1.51-2.471 3.318h4.702v-.084h.006zM203.927 14.008v2.618h-.357v-2.618h-.752v-.279h1.868v.279h-.759zM207.63 16.626c-.019-.894-.084-1.86-.162-2.443h-.006l-.817 2.443h-.273l-.823-2.443h-.007a35.197 35.197 0 00-.11 2.443h-.35c.019-.966.097-1.938.214-2.897h.46l.785 2.294.785-2.294h.447c.117.934.201 1.97.227 2.897h-.37z" fill="#004A8E"/><path d="M18.386 37.228c10.155 0 18.386-8.226 18.386-18.373C36.772 8.71 28.541.483 18.386.483 8.232.483 0 8.709 0 18.855c0 10.147 8.232 18.373 18.386 18.373z" fill="url(#paint0_linear)"/><path d="M10.448 28.097c-.065 2.21-.538 4.394-1.375 6.597a18.302 18.302 0 009.313 2.528c2.581 0 5.04-.532 7.27-1.49-3.612-3.805-8.943-6.864-15.208-7.635z" fill="url(#paint1_linear)"/><path opacity=".55" d="M10.448 28.09a18.556 18.556 0 01-.421 3.422 20.876 20.876 0 0112.458 5.25 18.15 18.15 0 003.171-1.037c-3.612-3.792-8.943-6.857-15.208-7.635z" fill="url(#paint2_linear)"/><path d="M10.402 35.407a18.245 18.245 0 007.699 1.815c-1.712-3.228-4.728-4.608-7.699-1.815z" fill="url(#paint3_linear)"/><path d="M22.504 26.282c-1.757-.33-3.47.046-4.676.687.007 0 .007.007.013.007 2.458 1.108 1.686 2.333 2.484 4.51a24.902 24.902 0 015.331 4.245 18.052 18.052 0 003.087-1.698c0-.006-.006-.013-.006-.013-1.719-5.36-4.008-7.317-6.233-7.738z" fill="url(#paint4_linear)"/><path d="M17.841 26.976c-.006 0-.006-.007-.013-.007-3.391-1.445-7.555-1.594-7.549-1.549.143 1.011.201 1.685.175 2.677a25.195 25.195 0 018.976 2.884c.305.168.603.337.902.512-.804-2.184-.033-3.409-2.49-4.517z" fill="url(#paint5_linear)"/><path d="M27.518 8.914s-1.486.162-2.166.182c-1.135.039-2.108.097-2.368.026-1.647-.286-3.048-1.958-3.456-2.794 0-.006-.007-.013-.007-.019-.065-.117-.143-.143-.26-.11-.161.045-.414.2-.862.389-.013.006-.026.013-.039.013h-.006a9.257 9.257 0 01-1.096.369c-1.732.473-3.496.544-5.921 1.756C8.95 9.92 7.14 11.694 6.31 13.807c-1.614 4.083.234 7.032 2.426 8.943a4.835 4.835 0 011.543 2.657c-.006-.045 4.158.104 7.55 1.55 1.186-.636 2.872-1.012 4.598-.7-.908-1.757-.098-2.917.168-3.351.312-.525.422-.642.85-1.076-.117-.039-.344-.058-.396-.227 0 0 1.077-.959 1.738-2.048l.02-.038c.616-1.31 1.083-2.372 1.083-2.372 1.712-1.588 2.808-2.852 3.19-3.98 1.765-.486 2.095-4.763-1.562-4.25z" fill="url(#paint6_linear)"/><path d="M24.833 19.471v.013c-.623 1.076-1.686 2.041-1.777 2.12l-.007.006c.059.168.28.188.396.227-.428.44-.538.55-.85 1.075-.26.441-1.076 1.588-.168 3.344 0 0 0 .007.006.007-.013 0-.026-.007-.039-.007-.02 0-.032-.006-.052-.006-.02 0-.032-.007-.051-.007-.04-.006-.072-.013-.11-.013-.027-.006-.053-.006-.079-.013-.045-.006-.09-.012-.136-.012h-.02c-.032-.007-.064-.007-.097-.013l-.227-.02a6.998 6.998 0 00-1.66.084h-.006a6.585 6.585 0 00-1.122.279 3.596 3.596 0 00-.396.155c-.071.026-.136.059-.207.091-.065.033-.13.059-.195.091-.007 0-.007.006-.013.006-.065.033-.123.059-.181.091-.085-.032-.17-.071-.253-.104a4.696 4.696 0 00-.04-.019c-.077-.032-.155-.065-.233-.09-.02-.007-.039-.014-.058-.027-.065-.026-.13-.051-.201-.077-.033-.007-.059-.02-.091-.033l-.233-.078c-.091-.032-.182-.058-.28-.09a.43.43 0 01-.051-.02c-.182-.058-.364-.11-.539-.162a.2.2 0 00-.051-.013c-.078-.02-.163-.045-.24-.064-.007 0-.02-.007-.026-.007-.078-.02-.156-.039-.24-.058h-.007c-.09-.026-.188-.046-.279-.072-.02-.006-.032-.006-.052-.012-.084-.02-.162-.04-.246-.059-.006 0-.013 0-.02-.006l-.272-.059c-.006 0-.013 0-.02-.006-.265-.058-.525-.104-.784-.15-.013 0-.026-.006-.039-.006l-.233-.039h-.02c-.071-.012-.143-.026-.214-.032h-.019c-.059-.006-.11-.02-.169-.026h-.007l-.155-.02c-.013 0-.026-.006-.045-.006l-.117-.02c-.013 0-.026-.006-.046-.006l-.149-.02h-.006l-.15-.019h-.012a.972.972 0 00-.13-.013h-.026c-.104-.013-.201-.026-.298-.032H11.778l-.182-.02H11.583c-.026 0-.045-.006-.071-.006-.013 0-.026 0-.033-.006-.032 0-.065-.007-.09-.007h-.007c-.026 0-.045-.006-.065-.006h-.032c-.059-.007-.11-.007-.162-.013h-.007c-.058-.007-.117-.007-.168-.013-.027 0-.046 0-.072-.007h-.006-.007c-.02 0-.039 0-.058-.006-.026 0-.046 0-.065-.007h-.104H10.325l-.039-.142c-.02-.065-.039-.136-.058-.201-.04-.13-.085-.253-.13-.376 0-.007-.007-.013-.007-.02a4.142 4.142 0 00-.253-.544l-.038-.065-.033-.058c-.032-.058-.039-.071-.071-.123-.059-.09-.11-.182-.175-.266-.033-.052-.072-.097-.11-.149l-.014-.02a4.694 4.694 0 00-.473-.544 7.27 7.27 0 00-.233-.22c-.085-.078-.17-.15-.253-.233-.007-.007-.013-.007-.013-.013-.085-.078-.162-.156-.247-.24l-.006-.007-.007-.006c-.084-.084-.162-.169-.24-.253-.078-.084-.162-.175-.24-.265-.058-.072-.116-.137-.175-.208-.882-1.076-1.55-2.372-1.712-3.901-.104-.979 0-2.055.39-3.221v-.007a2.75 2.75 0 00.07-.214v-.006c-.603 6.06 3.217 7.148 7.096 6.766-.247.24-.52.466-.798.674-.026.02-.033.071.013.078 1.083.188 2.095-.28 3.06-.7-.194.285-.427.525-.673.77-.026.027-.007.072.032.072 1.407-.02 2.614-.9 3.697-1.71-.052.161-.11.33-.163.492a.04.04 0 00.052.052c.993-.324 1.816-.973 2.458-1.776a1.824 1.824 0 012.679-.343l1.122.965z" fill="url(#paint7_linear)"/><path d="M10.928 15.913c-.33-.44-.564-1.03-.487-1.588-.181.098-.356.208-.544.305-.026.013-.065 0-.065-.039.039-.544.318-.991.493-1.49-.24.038-.48.09-.714.162-.032.006-.071-.033-.045-.065.57-.869 1.55-1.445 2.523-1.782a.193.193 0 01.026-.052c.065-.136.084-.24.065-.324v-.013c-.273-1.076-2.523-.162-3.574 1.089-.999 1.179-1.258 2.754-.953 4.076.311 1.367 1.219 2.462 2.535 2.573.292.026.584.006.87-.052l.032-.007c.208-.052.409-.123.603-.226.59-.305.986-1.044.759-1.79-.564-.2-1.142-.265-1.524-.777z" fill="url(#paint8_linear)"/><path opacity=".71" d="M30.358 10.969c0-.065-.006-.137-.013-.201a1.835 1.835 0 00-.026-.188c-.006-.04-.013-.078-.026-.11a2.071 2.071 0 00-.311-.732 1.201 1.201 0 00-.11-.143c-.026-.033-.052-.059-.078-.091a2.426 2.426 0 00-.233-.207c-.059-.04-.117-.085-.182-.117-.448-.26-1.057-.376-1.855-.26 0 0-1.479.163-2.16.182-.92.032-1.718.078-2.14.052a1.473 1.473 0 01-.227-.026c2.16.68-1.381 6.183 4.131 6.818.688-.72 1.22-1.361 1.57-1.964l.006-.006c.033-.052.059-.104.091-.163v-.006c.026-.045.052-.097.072-.143.006-.006.006-.019.012-.025l.072-.15s0-.006.006-.006l.059-.13c.006-.013.006-.025.013-.032.02-.045.032-.09.052-.136l.058-.02.058-.019c.052-.02.11-.045.163-.071.032-.02.058-.033.084-.052.013-.013.032-.02.045-.032.065-.046.123-.091.175-.143l.007-.007c.26-.246.454-.583.57-.965.085-.298.124-.603.117-.907z" fill="url(#paint9_linear)"/><path opacity=".83" d="M15.448 9.394c.143 0 .292-.007.435-.033.039-.006.065.026.045.065-.383.797-.713 1.556-.57 2.456.051.344.168.72.356 1.044a.266.266 0 00.136.116c.681-2.922 6.123-1.127 7.14-3.92-1.647-.286-3.047-1.958-3.456-2.794 0-.006-.006-.013-.006-.019-.065-.117-.143-.143-.26-.11-.162.045-.415.2-.863.389a.092.092 0 01-.038.013h-.007c-.104.045-.214.084-.337.13-1.096.55-2.017 1.58-2.575 2.663z" fill="url(#paint10_linear)"/><path d="M19.677 8.888c-1.025.117-1.46 2.094-2.075 2.515 1.102-.357 2.516-.415 3.638-.784.143-1.316-.668-1.834-1.563-1.73z" fill="url(#paint11_linear)"/><path d="M19.975 9.86c-.532.033-.817 1.005-1.142 1.251.643-.117 1.317-.207 1.933-.363.072-.641-.33-.914-.791-.888z" fill="url(#paint12_linear)"/><path opacity=".8" d="M24.268 19.225a.63.63 0 00.824-.311v-.007c0-.006 0-.006.007-.013.019-.039.038-.084.058-.123 0 0 0-.006.006-.006.059-.13.117-.26.175-.376.325-.733.552-1.232.552-1.232 1.712-1.587 2.808-2.845 3.184-3.979-3.697 2.333-7.14-.078-9.203 1.413-.045.039-.149.136-.285.272a1.537 1.537 0 00.448 2.508l4.235 1.854z" fill="url(#paint13_radial)"/><path d="M27.608 8.901l-.013.02a1.194 1.194 0 00-.123.337s.007 0 .007.006c.103.09.214.156.343.201.15.052.208.13.292.266.059.097.084.2.123.304.02.046.04.085.059.123.888.292 2.14.435 1.997 1.44.28-1.336-.395-2.969-2.685-2.697z" fill="url(#paint14_linear)"/><defs><linearGradient id="paint0_linear" x1="8.374" y1="3.447" x2="28.381" y2="34.278" gradientUnits="userSpaceOnUse"><stop offset=".001" stop-color="#D6D6D6"/><stop offset=".033" stop-color="#E0E0E0"/><stop offset=".089" stop-color="#ECEBEB"/><stop offset=".147" stop-color="#EFEFEF"/><stop offset=".644" stop-color="#EFEFEF"/><stop offset=".726" stop-color="#EFEFEF"/><stop offset=".795" stop-color="#EAEAEA"/><stop offset=".882" stop-color="#DADADA"/><stop offset=".979" stop-color="#C1C1C1"/><stop offset="1" stop-color="#BABABA"/></linearGradient><linearGradient id="paint1_linear" x1="8.755" y1="31.921" x2="34.769" y2="35.765" gradientUnits="userSpaceOnUse"><stop offset=".101" stop-color="#641724"/><stop offset=".212" stop-color="#711825"/><stop offset=".419" stop-color="#931B26"/><stop offset=".584" stop-color="#B31E28"/><stop offset="1" stop-color="#D2202F"/></linearGradient><linearGradient id="paint2_linear" x1="9.948" y1="31.462" x2="32.605" y2="34.818" gradientUnits="userSpaceOnUse"><stop offset=".079" stop-color="#321724"/><stop offset=".192" stop-color="#381724" stop-opacity=".878"/><stop offset=".349" stop-color="#4B1826" stop-opacity=".707"/><stop offset=".533" stop-color="#681A28" stop-opacity=".508"/><stop offset=".736" stop-color="#921D2B" stop-opacity=".287"/><stop offset=".953" stop-color="#C6202E" stop-opacity=".051"/><stop offset="1" stop-color="#D2202F" stop-opacity="0"/></linearGradient><linearGradient id="paint3_linear" x1="12.621" y1="47.299" x2="14.602" y2="33.907" gradientUnits="userSpaceOnUse"><stop stop-color="#95191D" stop-opacity="0"/><stop offset="1" stop-color="#4A191D"/></linearGradient><linearGradient id="paint4_linear" x1="17.826" y1="30.944" x2="30.207" y2="30.944" gradientUnits="userSpaceOnUse"><stop stop-color="#B59F2C"/><stop offset=".868" stop-color="#F0EEC5"/></linearGradient><linearGradient id="paint5_linear" x1="11.78" y1="30.092" x2="19.859" y2="26.327" gradientUnits="userSpaceOnUse"><stop stop-color="#B59F2C"/><stop offset=".868" stop-color="#F0EEC5"/></linearGradient><linearGradient id="paint6_linear" x1="8.62" y1="23.589" x2="29.393" y2="7.924" gradientUnits="userSpaceOnUse"><stop stop-color="#25130E"/><stop offset=".017" stop-color="#2A1711"/><stop offset=".464" stop-color="#AC8864"/><stop offset=".66" stop-color="#E0B585"/><stop offset=".803" stop-color="#E9C08F"/><stop offset=".999" stop-color="#FBD6A4"/></linearGradient><linearGradient id="paint7_linear" x1="22.421" y1="16.165" x2="4.005" y2="25.304" gradientUnits="userSpaceOnUse"><stop offset=".001" stop-color="#E0B585" stop-opacity="0"/><stop offset=".104" stop-color="#B38F68" stop-opacity=".126"/><stop offset=".22" stop-color="#89694D" stop-opacity=".267"/><stop offset=".337" stop-color="#654B36" stop-opacity=".411"/><stop offset=".455" stop-color="#493325" stop-opacity=".555"/><stop offset=".573" stop-color="#362218" stop-opacity=".7"/><stop offset=".693" stop-color="#2A1710" stop-opacity=".846"/><stop offset=".815" stop-color="#26140E" stop-opacity=".996"/><stop offset="1" stop-color="#25130E"/></linearGradient><linearGradient id="paint8_linear" x1="7.864" y1="14.196" x2="13.926" y2="15.138" gradientUnits="userSpaceOnUse"><stop offset=".07" stop-color="#25130E"/><stop offset=".332" stop-color="#351C13" stop-opacity=".782"/><stop offset=".794" stop-color="#5A321E" stop-opacity=".4"/></linearGradient><linearGradient id="paint9_linear" x1="23.556" y1="13.165" x2="30.212" y2="10.362" gradientUnits="userSpaceOnUse"><stop offset=".209" stop-color="#E0B585" stop-opacity=".2"/><stop offset=".226" stop-color="#DDB283" stop-opacity=".216"/><stop offset=".466" stop-color="#AC8461" stop-opacity=".459"/><stop offset=".677" stop-color="#886249" stop-opacity=".672"/><stop offset=".849" stop-color="#724E3A" stop-opacity=".845"/><stop offset=".96" stop-color="#6A4634" stop-opacity=".958"/></linearGradient><linearGradient id="paint10_linear" x1="14.819" y1="9.618" x2="23.322" y2="9.618" gradientUnits="userSpaceOnUse"><stop stop-color="#5A321E" stop-opacity=".1"/><stop offset=".204" stop-color="#4D2A19" stop-opacity=".336"/><stop offset=".488" stop-color="#412315" stop-opacity=".663"/><stop offset=".779" stop-color="#3D2114"/></linearGradient><linearGradient id="paint11_linear" x1="17.6" y1="10.139" x2="21.252" y2="10.139" gradientUnits="userSpaceOnUse"><stop offset=".001" stop-color="#5A321E" stop-opacity=".1"/><stop offset=".302" stop-color="#452618" stop-opacity=".281"/><stop offset=".733" stop-color="#2E1810" stop-opacity=".54"/><stop offset="1" stop-color="#25130E" stop-opacity=".7"/></linearGradient><linearGradient id="paint12_linear" x1="18.832" y1="10.486" x2="20.77" y2="10.486" gradientUnits="userSpaceOnUse"><stop stop-color="#25130E" stop-opacity=".2"/><stop offset="1" stop-color="#25130E"/></linearGradient><linearGradient id="paint14_linear" x1="27.666" y1="10.97" x2="30.509" y2="9.386" gradientUnits="userSpaceOnUse"><stop offset=".14" stop-color="#5A321E" stop-opacity=".3"/><stop offset=".234" stop-color="#532E1C" stop-opacity=".366"/><stop offset=".73" stop-color="#311A12" stop-opacity=".711"/><stop offset="1" stop-color="#25130E" stop-opacity=".9"/></linearGradient><radialGradient id="paint13_radial" cx="0" cy="0" r="1" gradientUnits="userSpaceOnUse" gradientTransform="rotate(-11.003 74.017 -142.81) scale(9.80785 7.09128)"><stop offset=".385" stop-color="#47210E"/><stop offset=".531" stop-color="#4A2410" stop-opacity=".763"/><stop offset=".63" stop-color="#532C17" stop-opacity=".602"/><stop offset=".715" stop-color="#623B23" stop-opacity=".464"/><stop offset=".792" stop-color="#785034" stop-opacity=".338"/><stop offset=".864" stop-color="#936B49" stop-opacity=".221"/><stop offset=".932" stop-color="#B68C64" stop-opacity=".111"/><stop offset=".996" stop-color="#DDB383" stop-opacity=".01"/><stop offset="1" stop-color="#E0B585" stop-opacity="0"/></radialGradient></defs></svg>
