<?xml version="1.0" encoding="utf-8"?>
<!-- Generator: Adobe Illustrator 22.1.0, SVG Export Plug-In . SVG Version: 6.00 Build 0)  -->
<svg version="1.1" id="Layer_1" xmlns="http://www.w3.org/2000/svg" xmlns:xlink="http://www.w3.org/1999/xlink" x="0px" y="0px"
	 viewBox="0 0 940 120" style="enable-background:new 0 0 940 120;" xml:space="preserve">
<style type="text/css">
	.st0{fill:#0DB14B;}
	.st1{fill:#1C3F94;}
	.st2{display:none;}
	.st3{display:inline;fill:#7C7B7B;}
</style>
<g>
	<g id="wordmark">
		<g>
			<g>
				<path class="st0" d="M417.5,84.8c-6,0-8.1-2.6-8.1-9.4V53h-5.7v-4.1h5.7c0.6-3.1,1.1-2.9,1.5-6.5h4v6.5h9.4V53h-9.4v20.8
					c0,4.8,0.8,6.5,4.2,6.5c1.2,0,2.8-0.2,5.5-1.1l0.7,3.4C422.5,84,419.8,84.8,417.5,84.8z"/>
				<path class="st0" d="M457,84.1h-5.5c0-6.7,0.1-14.4,0.1-18.7c0-9.3-2.4-12.5-6.7-12.5c-2.3,0-5.5,1.5-8.7,4.2v27h-5.6V42.4h5.6
					v10.4c2.9-2.4,6.4-4.4,10.6-4.4c6.4,0,10.4,4,10.4,15.6C457.2,68.2,457,76.8,457,84.1z"/>
				<path class="st0" d="M467.9,67.2v0.7c0,8.8,3.4,12.3,9.7,12.3c3.2,0,6.7-0.6,10.3-2.1l1.1,3.3c-3.6,1.8-7.9,3.2-12.7,3.2
					c-8.5,0-14.2-4.6-14.2-17.1c0-12.3,5.3-19.2,14.4-19.2c8.3,0,13.3,5.3,12.6,18.9C489.1,67.3,467.9,67.3,467.9,67.2z M483.6,63.2
					c0-6.7-2.4-10.8-7.5-10.8c-5.2,0-7.9,5-8.2,11.1h15.7V63.2z"/>
			</g>
			<g>
				<g>
					<g>
						<path class="st1" d="M293,84c-1,0-2.6-0.1-3.7-0.2v6.4h-9v-42h7.3l0.7,3.6c2.9-2.6,6.2-4.3,9.7-4.3c8.4,0,12.5,7.6,12.5,16.9
							C310.5,78.1,303.1,84,293,84z M295.6,54.4c-1.7,0-4,1-6.2,2.9v19.6c1.2,0.5,2.7,0.7,4.2,0.7c4.5,0,7.8-3.7,7.8-12
							C301.3,58.4,299.1,54.4,295.6,54.4z"/>
					</g>
					<path class="st1" d="M174.4,84.9c-9.4,0-14.2-6-14.2-18.2c0-11.4,5.9-19.2,15.3-19.2c4.3,0,7.7,1.6,10.3,4.5l-3.2,4.7
						c-1.6-1.5-3.6-2.4-5.9-2.4c-4.2,0-6.9,3.9-6.9,11.4c0,8.7,2.4,12.2,6.5,12.2c2.9,0,5.2-0.9,7.6-3l2.8,4.7
						C183.8,82.5,179.9,84.9,174.4,84.9z"/>
					<path class="st1" d="M203.4,85c-9.9,0-15.8-4.8-15.8-18s6.7-19.5,17.3-19.5c9.9,0,15.8,4.8,15.8,17.9
						C220.8,78.8,214.1,85,203.4,85z M204.1,54.3c-4.2,0-7,2.9-7,11.1c0,10.1,2.5,12.7,7.2,12.7c4.2,0,7-2.9,7-11.1
						C211.3,57,208.7,54.3,204.1,54.3z"/>
					<path class="st1" d="M274.7,84.2h-9.2c0-7.2,0.2-14.6,0.2-18.8c0-8.6-1.6-10.5-4.7-10.5c-1.9,0-4.4,1.4-6.8,3.2
						c0.2,1.1,0.4,2.8,0.4,5.4v20.7h-9.2V65.4c0-8.4-1.6-10.5-4.6-10.5c-1.7,0-4.1,1.1-6.4,2.9v26.3h-9.2V48.3h7.6l0.6,3.8
						c2.9-2.7,6.5-4.6,10.6-4.6c4.4,0,7.4,2.2,8.7,5.2c3.4-3.1,7.2-5.2,11.5-5.2c7,0,10.7,4.6,10.7,16.2
						C274.9,68.1,274.7,76.3,274.7,84.2z"/>
					<path class="st1" d="M336.4,84.2l-0.6-3.7c-3.1,2.6-6.4,4.4-11,4.4c-7.2,0-11.1-3.6-11.1-10.2c0-7.4,5.9-12.4,18.5-12.4h2.2
						v-2.7c0-3.7-2.1-5.4-6.7-5.4c-3.7,0-7.7,1-10.9,2.1l-1.2-5.6c4.2-1.9,9.1-3.2,14.5-3.2c9.2,0,13.4,4.4,13.4,11.2v25.5
						C343.5,84.3,336.4,84.3,336.4,84.2z M334.4,67.9h-2.7c-7,0-8.9,2.4-8.9,5.7c0,3,1.6,4.9,4.8,4.9c2.2,0,4.7-1.2,6.9-3.2
						L334.4,67.9L334.4,67.9z"/>
					<path class="st1" d="M369.3,56.5c-1.5-0.4-2.4-0.5-3.2-0.5c-2,0-3.7,1.4-6.9,5.4v22.8H350V48.3h7.6l0.7,5.6
						c3.6-4.8,6.1-6.3,8.7-6.3c1.1,0,2.3,0.2,3.5,0.8L369.3,56.5z"/>
					<path class="st1" d="M379.6,68.1v0.5c0,6.6,2.9,9.4,8,9.4c3.2,0,7.4-0.6,11.7-2.1l1.3,5.3c-4.4,2.3-9.5,3.8-14.7,3.8
						c-9.5,0-15.6-4.7-15.6-17.8c0-12.8,6.2-19.7,16.3-19.7c9.2,0,15.2,5.2,14.3,20.5L379.6,68.1L379.6,68.1z M391.9,62.2
						c0-5.7-2-8.5-5.9-8.5s-6.1,3.7-6.4,8.7h12.2L391.9,62.2L391.9,62.2z"/>
					<path class="st1" d="M546.3,84.2h-9.2c0-7.2,0.2-14.6,0.2-18.8c0-8.6-1.6-10.5-4.6-10.5c-1.9,0-4.4,1.4-6.8,3.2
						c0.2,1.1,0.4,2.8,0.4,5.4v20.7h-9.2V65.4c0-8.4-1.6-10.5-4.6-10.5c-1.7,0-4.1,1.1-6.4,2.9v26.3h-9.2V48.3h7.6l0.6,3.8
						c2.9-2.7,6.5-4.6,10.6-4.6c4.4,0,7.4,2.2,8.7,5.2c3.4-3.1,7.2-5.2,11.5-5.2c7,0,10.7,4.6,10.7,16.2
						C546.5,68.1,546.3,76.3,546.3,84.2z"/>
					<path class="st1" d="M573.4,84.2l-0.6-3.7c-3.1,2.6-6.4,4.4-11,4.4c-7.2,0-11.1-3.6-11.1-10.2c0-7.4,5.9-12.4,18.5-12.4h2.2
						v-2.7c0-3.7-2.1-5.4-6.7-5.4c-3.7,0-7.7,1-10.9,2.1l-1.2-5.6c4.2-1.9,9.1-3.2,14.5-3.2c9.2,0,13.4,4.4,13.4,11.2v25.5
						C580.5,84.3,573.4,84.3,573.4,84.2z M571.4,67.9h-2.7c-7,0-8.9,2.4-8.9,5.7c0,3,1.6,4.9,4.8,4.9c2.2,0,4.7-1.2,6.9-3.2
						L571.4,67.9L571.4,67.9z"/>
					<path class="st1" d="M607,56.5c-1.5-0.4-2.4-0.5-3.2-0.5c-2,0-3.7,1.4-6.9,5.4v22.8h-9.2V48.3h7.6l0.7,5.6
						c3.7-4.8,6.1-6.3,8.7-6.3c1.1,0,2.3,0.2,3.5,0.8L607,56.5z"/>
					<path class="st1" d="M630.5,84.2l-9.6-17.8v17.8h-9.2V42.3h9.2v19.8l8.2-13.8h10.7l-10.7,15l12.1,20.9
						C641.2,84.2,630.5,84.2,630.5,84.2z"/>
					<path class="st1" d="M650.6,68.1v0.5c0,6.6,2.9,9.4,8,9.4c3.2,0,7.4-0.6,11.7-2.1l1.3,5.3c-4.4,2.3-9.5,3.8-14.7,3.8
						c-9.5,0-15.6-4.7-15.6-17.8c0-12.8,6.2-19.7,16.2-19.7c9.2,0,15.2,5.2,14.3,20.5L650.6,68.1L650.6,68.1z M662.9,62.2
						c0-5.7-2-8.5-5.9-8.5s-6.1,3.6-6.4,8.7h12.2v-0.2H662.9z"/>
					<path class="st1" d="M687.3,84.9c-6.7,0-9.1-2.5-9.1-9.4V54.8h-4.6v-6.4h4.9c0.9-3.2,1.5-2,2.2-6h6.7v6h7.9v6.4h-7.9v18.5
						c0,3.7,0.9,4.8,3.3,4.8c1.1,0,2.6-0.1,4.9-0.8l0.7,5.3C692.9,84.3,690,84.9,687.3,84.9z"/>
				</g>
				<g>
					<path class="st0" d="M704.6,84.8c-3.1,0-3.7-0.8-3.7-3.6c0-3,0.6-3.8,3.7-3.8c3,0,3.6,0.8,3.6,3.6
						C708.3,84,707.6,84.8,704.6,84.8z"/>
					<path class="st0" d="M724.3,84.8c-8.5,0-13.3-5.9-13.3-17.7c0-11.5,5.8-18.7,14.4-18.7c3.8,0,7,1.6,9.5,4.3l-2.2,2.9
						c-2.1-1.9-4.4-2.9-7-2.9c-5.6,0-8.8,5.1-8.8,13.5c0,9.5,2.8,14.2,8.5,14.2c2.9,0,5.6-1.1,8.3-3.7l2.1,2.9
						C733,82.6,729.4,84.8,724.3,84.8z"/>
					<path class="st0" d="M753.5,84.8c-8.5,0-14.2-4.7-14.2-17.5c0-13,6.3-19,15.7-19c8.5,0,14.2,4.8,14.2,17.4
						C769.2,78.8,763,84.8,753.5,84.8z M754.1,52.6c-5.6,0-9,4.1-9,13c0,10.8,2.9,14.8,9.3,14.8c5.6,0,9-4.1,9-13.2
						C763.4,56.6,760.5,52.6,754.1,52.6z"/>
					<path class="st0" d="M821.2,84.2h-5.6c0-6.4,0.2-14,0.2-18.9c0-9.2-2.3-12.5-6.3-12.5c-2.5,0-6,2.1-9,4.7
						c0.3,1.4,0.6,3.1,0.6,6.3v20.4h-5.6V65.3c0-9-2.3-12.5-6.3-12.5c-2.3,0-5.4,1.7-8.4,4.2v27.1h-5.6V48.8h4.6l0.5,4.2
						c2.9-2.6,6.8-4.8,10.8-4.8c4.5,0,7.2,2.7,8.3,5.6c3.6-3.1,7.6-5.6,12-5.6c6.1,0,10,4.1,10,15.7
						C821.4,68.8,821.2,77.1,821.2,84.2z"/>
				</g>
				<g>
					<path class="st0" d="M829.6,84.8c-3,0-3.7-0.8-3.7-3.6c0-3,0.6-3.7,3.7-3.7c3,0,3.6,0.8,3.6,3.6
						C833.2,83.9,832.6,84.8,829.6,84.8z"/>
					<path class="st0" d="M859.4,84.2l-0.5-4c-3.3,2.7-6.6,4.5-11,4.5c-6.7,0-10.2-3.5-10.2-9.4c0-7,5.3-11.7,17.7-11.7h2.8V60
						c0-4.9-2.3-7.1-7.9-7.1c-3.7,0-7.3,1.1-9.9,2.1l-0.9-3.6c3.3-1.3,7.5-2.7,12.5-2.7c8.6,0,11.8,4.4,11.8,10.5v25.1
						C863.8,84.3,859.4,84.3,859.4,84.2z M858.2,67.3h-3.3c-9.5,0-11.6,3-11.6,7c0,3.9,2.1,6.2,6.2,6.2c2.8,0,5.7-1.3,8.8-4v-9.2
						H858.2z"/>
					<path class="st0" d="M893.1,84.2l-0.5-4.1c-3.3,2.8-7,4.7-11,4.7c-6.4,0-10.4-4.1-10.4-15.6c0-4.7,0.2-13.1,0.2-20.1h5.6
						c0,6.4-0.2,13.9-0.2,18.8c0,9.1,2.3,12.3,6.7,12.3c2.5,0,5.7-1.7,8.6-4.1v-27h5.6v35.1H893.1z"/>
				</g>
			</g>
		</g>
	</g>
	<g id="_x24__x24__SYmbol">
		<g>
			<path class="st1" d="M35.7,49.6c0.5,1.7,3.1,4,7.1,5.2l-0.3-8.9c-3.4-1.6-3.8-3.2-3.8-3.2C35.2,44.8,35.3,48.2,35.7,49.6z"/>
			<path class="st1" d="M54.7,72.1L55,84.8c5.5-0.9,7.4-3.7,6.9-6.6c-0.2-1.5-1.1-2.7-2.2-3.7l0,0c-1.1,0.6-3.8,1-3.8,1v-3.1
				C55.5,72.3,55.1,72.2,54.7,72.1z"/>
			<path class="st1" d="M31.1,31.5c3.4-1.7,10.8-2.6,10.8-2.6L41.7,23h11.7l0.1,6.2c12,1.5,20.9,7.5,20.9,7.5v-7.2
				c0,0-7.7-5.5-19.3-6.9l-0.2-5.9H44.2L42,22.6c0,0-6.1,0.8-11.3,4c-5.1,3.1-7.2,9.1-9.6,14.3C23.7,35.4,28,33,31.1,31.5z"/>
			<path class="st1" d="M75.4,60c-2.5-3.4-5.2-5.1-8.9-7c-3.7-1.8-11-3.6-11-3.6l-0.3-6.6c-0.4-0.1-0.8-0.2-1.2-0.3l0.4,15.2
				c1.7,0.4,3.3,0.8,4.7,1.2c4.7,1.3,11.5,3.9,15.7,9.4c1.8,2.4,2.9,5.8,3,9.4l0,0c0-0.4,0.2-7,0.2-8.1C77.8,68.5,77.8,63.4,75.4,60
				z"/>
			<path class="st1" d="M43.6,74.5L43.6,74.5c-1.3-0.2-6.5-1.7-10.6-3.4c-4.1-1.7-6.5-3.4-6.5-3.4l-3.3,8.9c0,0,6.5,5.4,20.7,7.8
				L43.6,74.5z"/>
			<path class="st1" d="M55.3,96.5l0.2,6.7l0.9-6.8C56,96.4,55.7,96.5,55.3,96.5z"/>
		</g>
		<path class="st0" d="M74.7,68.4c-4.1-5.5-11-8-15.7-9.4c-1.4-0.4-3-0.8-4.7-1.2l-0.4-15.2c3.3,0.7,6.4,1.5,8.5,2.3
			c5.2,1.8,12.1,5.4,12.1,5.4V36.8c0,0-8.9-6.1-20.9-7.5l-0.1-6.2H41.8L42,29l0,0c0,0-7.4,0.9-10.8,2.6c-3.4,1.7-8.3,4.4-11,11.4
			c-2.6,7,1.5,14.9,4,17.4s6,4.5,9.5,6c1.7,0.7,5.7,1.9,9.8,3L44,84.4c-14.2-2.4-20.7-7.8-20.7-7.8l0.6,12.5c0,0,9.1,5.6,20.5,7.1
			l0,0l0.2,7h10.9l-0.2-6.7c6.3-0.6,11.7-2.7,16.6-6.2C79.4,84.8,78.8,73.8,74.7,68.4z M35.7,49.6c-0.5-1.7-0.6-6,4.9-7.6
			c0.5-0.2,1.1-0.3,1.8-0.3l0.5,13.2C38.8,53.8,36.2,51.3,35.7,49.6z M55,84.8l-0.3-12.7c2.9,0.8,6.7,2.6,7.2,6.1
			C62.4,81.1,60.5,83.9,55,84.8z"/>
		<g>
			<path class="st0" d="M127.1,49.6c-0.5,1.7-3.1,4-7.1,5.2l0.3-8.9c3.4-1.6,3.8-3.2,3.8-3.2C127.7,44.8,127.6,48.2,127.1,49.6z"/>
			<path class="st0" d="M108.2,72.1l-0.3,12.7c-5.5-0.9-7.4-3.7-6.9-6.6c0.2-1.5,1.1-2.7,2.2-3.7l0,0c1.1,0.6,3.8,1,3.8,1v-3.1
				C107.4,72.3,107.8,72.2,108.2,72.1z"/>
			<path class="st0" d="M131.7,31.5c-3.4-1.7-10.8-2.6-10.8-2.6l0.2-5.9h-11.7l-0.1,6.2c-12,1.5-20.9,7.5-20.9,7.5v-7.2
				c0,0,7.7-5.5,19.3-6.9l0.2-5.9h11l2.2,5.9c0,0,6.1,0.8,11.3,4c5.1,3.1,7.2,9.1,9.6,14.3C139.2,35.4,134.8,33,131.7,31.5z"/>
			<path class="st0" d="M87.5,60c2.5-3.4,5.2-5.1,8.9-7c3.7-1.8,11-3.6,11-3.6l0.2-6.6c0.4-0.1,0.8-0.2,1.2-0.3l-0.4,15.2
				c-1.7,0.4-3.3,0.8-4.7,1.2C99,60.2,92.2,62.8,88,68.3c-1.8,2.4-2.9,5.8-3,9.4l0,0c0-0.4-0.2-7-0.2-8.1C85,68.5,85,63.4,87.5,60z"
				/>
			<path class="st0" d="M119.3,74.5L119.3,74.5c1.3-0.2,6.5-1.7,10.5-3.4c4.1-1.7,6.5-3.4,6.5-3.4l3.3,8.9c0,0-6.5,5.4-20.7,7.8
				L119.3,74.5z"/>
			<path class="st0" d="M107.6,96.5l-0.2,6.7l-0.9-6.8C106.9,96.4,107.2,96.5,107.6,96.5z"/>
		</g>
		<path class="st1" d="M91,90.3c4.9,3.6,10.3,5.6,16.6,6.2l-0.2,6.7h10.9l0.2-7l0,0c11.4-1.4,20.5-7.1,20.5-7.1l0.6-12.5
			c0,0-6.5,5.4-20.7,7.8l0.5-15.1c4-1.1,8.1-2.3,9.8-3c3.4-1.5,7-3.5,9.4-6c2.5-2.5,6.6-10.4,4-17.4s-7.5-9.7-11-11.4
			c-3.4-1.7-10.8-2.6-10.8-2.6l0,0l0.2-5.9h-11.7l-0.1,6.2c-12,1.5-20.9,7.5-20.9,7.5v13.5c0,0,6.9-3.6,12.1-5.4
			c2.1-0.7,5.2-1.6,8.5-2.3l-0.4,15.2c-1.7,0.4-3.3,0.8-4.7,1.2c-4.7,1.3-11.5,3.9-15.7,9.4C84.1,73.8,83.5,84.8,91,90.3z M120,54.8
			l0.5-13.2c0.6,0.1,1.2,0.2,1.8,0.3c5.5,1.6,5.4,6,4.9,7.6C126.7,51.3,124,53.8,120,54.8z M100.9,78.2c0.5-3.6,4.3-5.3,7.2-6.1
			l-0.3,12.7C102.4,83.9,100.5,81.1,100.9,78.2z"/>
	</g>
	<g id="_xAE_">
		<g>
			<g>
				<path class="st0" d="M912.2,65.9c-4.7,0-8.4-3.7-8.4-8.4c0-4.6,3.8-8.4,8.4-8.4c4.7,0,8.4,3.7,8.4,8.4
					C920.7,62.2,916.9,65.9,912.2,65.9z M912.2,50.6c-3.8,0-6.9,3.1-6.9,6.9s3.1,6.9,6.9,6.9c3.8,0,6.9-3.1,6.9-6.9
					C919.1,53.8,916,50.6,912.2,50.6z M913.1,57.9l2.5,4.1h-2l-2.2-3.8h-0.2V62h-1.6v-9.2c1,0,1.7,0,2.4,0c2.3,0,3.2,1.1,3.2,2.5
					C915.2,56.5,914.4,57.5,913.1,57.9z M911.8,54.1h-0.6v2.8h0.8c1,0,1.6-0.6,1.6-1.4C913.6,54.8,913.1,54.1,911.8,54.1z"/>
			</g>
		</g>
	</g>
</g>
<g id="Exclusion" class="st2">
	<path class="st3" d="M956,98.5h-5.6c0-6.4,0.2-14,0.2-18.9c0-9.2-2.3-12.5-6.3-12.5c-2.5,0-6,2.1-9,4.7c0.3,1.4,0.6,3.1,0.6,6.3
		v20.4h-5.6V79.6c0-9-2.3-12.5-6.3-12.5c-2.3,0-5.4,1.7-8.4,4.2v27.1h-5.6V63.2h4.6l0.5,4.2c2.9-2.6,6.8-4.8,10.8-4.8
		c4.5,0,7.2,2.7,8.3,5.6c3.6-3.1,7.6-5.6,12-5.6c6.1,0,10,4.1,10,15.7C956.2,82.9,956,91.3,956,98.5z"/>
	<path class="st3" d="M31,60.2h-5.6c0-6.4,0.2-14,0.2-18.9c0-9.2-2.3-12.5-6.3-12.5c-2.5,0-6,2.1-9,4.7c0.3,1.4,0.6,3.1,0.6,6.3
		v20.4H5.3V41.2c0-9-2.3-12.5-6.3-12.5c-2.3,0-5.4,1.7-8.4,4.2v27.1h-5.7V24.8h4.6l0.5,4.2c2.9-2.6,6.8-4.8,10.8-4.8
		C5.2,24.2,8,27,9,29.8c3.6-3.1,7.6-5.6,12-5.6c6.1,0,10,4.1,10,15.7C31.2,44.7,31,53,31,60.2z"/>
	<path class="st3" d="M137.6-30v5.6c-6.4,0-14-0.2-18.9-0.2c-9.2,0-12.5,2.3-12.5,6.3c0,2.5,2.1,6,4.7,9c1.4-0.3,3.1-0.6,6.3-0.6
		h20.4v5.7h-18.9c-9,0-12.5,2.3-12.5,6.3c0,2.3,1.7,5.4,4.2,8.4h27.1v5.6h-35.3v-4.6l4.2-0.5c-2.6-2.9-4.8-6.8-4.8-10.8
		c0-4.5,2.7-7.2,5.6-8.3c-3.1-3.6-5.6-7.6-5.6-12c0-6.1,4.1-10,15.7-10C122.1-30.2,130.4-30,137.6-30z"/>
	<path class="st3" d="M123.1,102.8v5.6c-6.4,0-14-0.2-18.9-0.2c-9.2,0-12.5,2.3-12.5,6.3c0,2.5,2.1,6,4.7,9c1.4-0.3,3.1-0.6,6.3-0.6
		h20.4v5.6h-18.9c-9,0-12.5,2.3-12.5,6.3c0,2.3,1.7,5.4,4.2,8.4h27.1v5.6H87.8v-4.6l4.2-0.5c-2.6-2.9-4.8-6.8-4.8-10.8
		c0-4.5,2.7-7.2,5.6-8.3c-3.1-3.6-5.6-7.6-5.6-12c0-6.1,4.1-10,15.7-10C107.7,102.7,116.1,102.8,123.1,102.8z"/>
</g>
</svg>
