<?xml version="1.0" encoding="utf-8"?>
<!-- Generator: Adobe Illustrator 22.1.0, SVG Export Plug-In . SVG Version: 6.00 Build 0)  -->
<svg version="1.1" id="Layer_1" xmlns="http://www.w3.org/2000/svg" xmlns:xlink="http://www.w3.org/1999/xlink" x="0px" y="0px"
	 viewBox="0 0 150 150" style="enable-background:new 0 0 150 150;" xml:space="preserve">
<style type="text/css">
	.st0{fill:#214292;}
	.st1{fill:#10B14B;}
</style>
<g>
	<g>
		<path class="st0" d="M29.6,65.6c0.5,1.7,3.1,4,7.1,5.2l-0.3-8.9c-3.4-1.6-3.8-3.2-3.8-3.2C29.1,60.6,29.2,64.1,29.6,65.6z"/>
		<path class="st0" d="M48.6,88l0.3,12.7c5.5-0.9,7.4-3.7,6.9-6.6c-0.2-1.5-1.1-2.7-2.2-3.7l0,0c-1.1,0.6-3.8,1-3.8,1v-3.1
			C49.4,88.3,49,88.2,48.6,88z"/>
		<path class="st0" d="M25,47.5c3.4-1.7,10.8-2.6,10.8-2.6l-0.2-5.9h11.7l0.1,6.2c12,1.5,20.9,7.5,20.9,7.5v-7.2
			c0,0-7.7-5.5-19.3-6.9L49,32.7H38l-2.2,5.9c0,0-6.1,0.8-11.3,4c-5.1,3.1-7.2,9.1-9.6,14.3C17.6,51.3,21.9,49,25,47.5z"/>
		<path class="st0" d="M69.2,75.9c-2.5-3.4-5.2-5.1-8.9-7c-3.7-1.8-11-3.6-11-3.6l-0.2-6.6c-0.4-0.1-0.8-0.2-1.2-0.3l0.4,15.2
			c1.7,0.4,3.3,0.8,4.7,1.2c4.7,1.3,11.5,3.9,15.7,9.4c1.8,2.4,2.9,5.8,3,9.4c0,0,0,0,0,0c0-0.4,0.2-7,0.2-8.1
			C71.7,84.4,71.7,79.3,69.2,75.9z"/>
		<path class="st0" d="M37.4,90.5L37.4,90.5c-1.3-0.2-6.5-1.7-10.6-3.4c-4.1-1.7-6.5-3.4-6.5-3.4l-3.3,8.9c0,0,6.5,5.4,20.7,7.8
			L37.4,90.5z"/>
		<path class="st0" d="M49.2,112.5l0.2,6.7l0.9-6.8C49.9,112.4,49.5,112.4,49.2,112.5z"/>
	</g>
	<path class="st1" d="M68.5,84.3c-4.1-5.5-11-8-15.7-9.4c-1.4-0.4-3-0.8-4.7-1.2l-0.4-15.2c3.3,0.7,6.4,1.5,8.5,2.3
		c5.2,1.8,12.1,5.4,12.1,5.4V52.6c0,0-8.9-6.1-20.9-7.5l-0.1-6.2H35.6l0.2,5.9l0,0c0,0-7.4,0.9-10.8,2.6c-3.4,1.7-8.3,4.4-11,11.4
		c-2.6,7,1.5,14.9,4,17.4c2.5,2.5,6,4.5,9.5,6c1.7,0.7,5.7,1.9,9.8,3l0.5,15.1c-14.2-2.4-20.7-7.8-20.7-7.8l0.6,12.5
		c0,0,9.1,5.6,20.5,7.1l0,0l0.2,7h10.9l-0.2-6.7c6.3-0.6,11.7-2.7,16.6-6.2C73.2,100.8,72.7,89.8,68.5,84.3z M29.6,65.6
		c-0.5-1.7-0.6-6,4.9-7.6c0.5-0.2,1.1-0.3,1.8-0.3l0.5,13.2C32.7,69.6,30.1,67.2,29.6,65.6z M48.9,100.8L48.6,88
		c2.9,0.8,6.7,2.6,7.2,6.1C56.2,97,54.4,99.9,48.9,100.8z"/>
	<g>
		<path class="st1" d="M121,65.6c-0.5,1.7-3.1,4-7.1,5.2l0.3-8.9c3.4-1.6,3.8-3.2,3.8-3.2C121.5,60.6,121.4,64.1,121,65.6z"/>
		<path class="st1" d="M102,88l-0.3,12.7c-5.5-0.9-7.4-3.7-6.9-6.6c0.2-1.5,1.1-2.7,2.2-3.7l0,0c1.1,0.6,3.8,1,3.8,1v-3.1
			C101.2,88.3,101.6,88.2,102,88z"/>
		<path class="st1" d="M125.6,47.5c-3.4-1.7-10.8-2.6-10.8-2.6l0.2-5.9h-11.7l-0.1,6.2c-12,1.5-20.9,7.5-20.9,7.5v-7.2
			c0,0,7.7-5.5,19.3-6.9l0.2-5.9h11l2.2,5.9c0,0,6.1,0.8,11.3,4c5.1,3.1,7.2,9.1,9.6,14.3C133,51.3,128.7,49,125.6,47.5z"/>
		<path class="st1" d="M81.4,75.9c2.5-3.4,5.2-5.1,8.9-7c3.7-1.8,11-3.6,11-3.6l0.2-6.6c0.4-0.1,0.8-0.2,1.2-0.3l-0.4,15.2
			c-1.7,0.4-3.3,0.8-4.7,1.2c-4.7,1.3-11.5,3.9-15.7,9.4c-1.8,2.4-2.9,5.8-3,9.4c0,0,0,0,0,0c0-0.4-0.2-7-0.2-8.1
			C78.9,84.4,78.9,79.3,81.4,75.9z"/>
		<path class="st1" d="M113.2,90.5L113.2,90.5c1.3-0.2,6.5-1.7,10.5-3.4c4.1-1.7,6.5-3.4,6.5-3.4l3.3,8.9c0,0-6.5,5.4-20.7,7.8
			L113.2,90.5z"/>
		<path class="st1" d="M101.4,112.5l-0.2,6.7l-0.9-6.8C100.7,112.4,101.1,112.4,101.4,112.5z"/>
	</g>
	<path class="st0" d="M84.9,106.2c4.9,3.6,10.3,5.6,16.6,6.2l-0.2,6.7h10.9l0.2-7l0,0c11.4-1.4,20.5-7.1,20.5-7.1l0.6-12.5
		c0,0-6.5,5.4-20.7,7.8l0.5-15.1c4-1.1,8.1-2.3,9.8-3c3.4-1.5,7-3.5,9.4-6c2.5-2.5,6.6-10.4,4-17.4c-2.6-7-7.5-9.7-11-11.4
		c-3.4-1.7-10.8-2.6-10.8-2.6l0,0l0.2-5.9h-11.7l-0.1,6.2c-12,1.5-20.9,7.5-20.9,7.5v13.5c0,0,6.9-3.6,12.1-5.4
		c2.1-0.7,5.2-1.6,8.5-2.3l-0.4,15.2c-1.7,0.4-3.3,0.8-4.7,1.2c-4.7,1.3-11.5,3.9-15.7,9.4C77.9,89.8,77.4,100.8,84.9,106.2z
		 M113.9,70.8l0.5-13.2c0.6,0.1,1.2,0.2,1.8,0.3c5.5,1.6,5.4,6,4.9,7.6C120.5,67.2,117.9,69.6,113.9,70.8z M94.8,94.2
		c0.5-3.6,4.3-5.3,7.2-6.1l-0.3,12.7C96.2,99.9,94.4,97,94.8,94.2z"/>
</g>
</svg>
