<svg fill="#FFFFFF" xmlns="http://www.w3.org/2000/svg" xmlns:xlink="http://www.w3.org/1999/xlink" version="1.1" x="0px" y="0px" viewBox="0 0 100 100" enable-background="new 0 0 100 100" xml:space="preserve"><path d="M59.7,3.7c-21,0-38,14.9-38,33.4s17,33.4,38,33.4c7.6,0,14.7-2,20.7-5.4c5.4,3.2,11.2,3.1,14.5,2.6c1-0.1,1.2-1.4,0.4-1.9  c-3.3-2.1-5-5.1-6-7.8c5.3-5.7,8.5-13,8.5-21C97.8,18.6,80.7,3.7,59.7,3.7z M62.3,50.5c0,0.8-0.7,1.5-1.5,1.5h-3.8  c-0.8,0-1.5-0.7-1.5-1.5V48c0-0.8,0.7-1.5,1.5-1.5h3.8c0.8,0,1.5,0.7,1.5,1.5V50.5z M68.4,35.7c-1,1.4-2.3,2.5-3.9,3.4  c-0.9,0.6-1.5,1.2-1.8,1.8c-0.2,0.5-0.4,1-0.4,1.7c0,0.5-0.5,0.9-1.1,0.9h-4.7c-0.6,0-1.1-0.5-1.1-1.1c0.1-1.3,0.4-2.4,1-3.1  c0.7-0.9,1.9-2,3.6-3.3c0.9-0.6,1.6-1.3,2.1-2.1c0.5-0.8,0.8-1.8,0.8-2.9c0-1.1-0.3-2-0.9-2.7c-0.6-0.7-1.5-1-2.6-1  c-0.9,0-1.7,0.3-2.3,0.8c-0.4,0.3-0.6,0.8-0.8,1.4c-0.2,0.7-0.8,1.1-1.5,1.1l-4.4-0.1c-0.5,0-1-0.5-0.9-1c0.2-2.3,1.1-4.1,2.7-5.4  c1.8-1.4,4.3-2.1,7.3-2.1c3.2,0,5.8,0.8,7.6,2.4c1.8,1.6,2.8,3.8,2.8,6.6C69.9,32.7,69.4,34.3,68.4,35.7z M9.3,86  c-4.4-4.8-7-10.8-7-17.4c0-9.5,5.5-18,13.9-23C20.5,63.5,38.4,77,59.7,77c1.5,0,3-0.1,4.4-0.2c-4,11.3-16,19.6-30.3,19.6  c-6.3,0-12.2-1.6-17.2-4.5c-4.5,2.7-9.3,2.6-12.1,2.2c-0.8-0.1-1-1.1-0.3-1.6C7,90.7,8.5,88.2,9.3,86z"></path></svg>