<svg id="Layer_1" data-name="Layer 1" xmlns="http://www.w3.org/2000/svg" viewBox="0 0 44 44"><title>premed-conditions</title><path d="M21.7,1.2H5.6A5.3,5.3,0,0,0,.2,6.5v32a5.3,5.3,0,0,0,5.4,5.3H32.4V38.3A5.3,5.3,0,0,1,37.7,33l5.3-.3V1.2ZM32.8,23.4A2.9,2.9,0,0,1,30,26.3H25.5v4.4a2.8,2.8,0,0,1-2.8,2.8H20.8A2.8,2.8,0,0,1,18,30.7V26.3H13.5a2.9,2.9,0,0,1-2.8-2.9V21.6a2.9,2.9,0,0,1,2.8-2.9H18V14.3a2.8,2.8,0,0,1,2.8-2.8h1.9a2.8,2.8,0,0,1,2.8,2.8v4.4H30a2.9,2.9,0,0,1,2.8,2.9Z" fill="#4d5054"/><path d="M32.1,38.2l.3,5.6L43,32.7H37.5A5.5,5.5,0,0,0,32.1,38.2Z" fill="#a2a8af"/><path d="M30.6,18.6H25.9V13.9A2.9,2.9,0,0,0,23,11H21a2.9,2.9,0,0,0-2.9,2.9v4.7H13.4a2.9,2.9,0,0,0-2.9,2.9v2a2.9,2.9,0,0,0,2.9,2.9h4.7v4.7A2.9,2.9,0,0,0,21,34h2a2.9,2.9,0,0,0,2.9-2.9V26.4h4.7a2.9,2.9,0,0,0,2.9-2.9v-2A2.9,2.9,0,0,0,30.6,18.6Z" fill="#f7f1e6"/></svg>