<?xml version="1.0" encoding="utf-8"?>
<!-- Generator: Adobe Illustrator 23.0.0, SVG Export Plug-In . SVG Version: 6.00 Build 0)  -->
<svg version="1.1" id="Layer_1" xmlns="http://www.w3.org/2000/svg" xmlns:xlink="http://www.w3.org/1999/xlink" x="0px" y="0px"
	 viewBox="0 0 249.2 51" style="enable-background:new 0 0 249.2 51;" xml:space="preserve">
<style type="text/css">
	.st0{fill:#FFFFFF;}
	.st1{fill:#707070;}
	.st2{enable-background:new    ;}
	.st3{fill:#333333;}
	.st4{fill:#B1560F;}
	.st5{opacity:0.4;fill:url(#Ellipse_2059_1_);enable-background:new    ;}
</style>
<g id="Group_8913" transform="translate(-1328 -894)">
	<g id="Group_8719" transform="translate(1347.242 894)">
		<g id="Path_4119" transform="translate(0)">
			<path class="st0" d="M229.5,50.5H0.5v-50h44.3h184.7V50.5z"/>
			<path class="st1" d="M1,1v49h228V1H44.8H1 M0,0h44.8H230v51H0V0z"/>
		</g>
	</g>
	<g class="st2">
		<path class="st3" d="M1383.4,915.2c-0.6,0-1.2-0.1-1.7-0.3c-0.5-0.2-0.9-0.5-1.3-0.9c-0.4-0.4-0.6-0.9-0.9-1.5
			c-0.2-0.6-0.3-1.3-0.3-2c0-0.7,0.1-1.4,0.3-2s0.5-1.1,0.9-1.5c0.4-0.4,0.8-0.7,1.3-0.9c0.5-0.2,1.1-0.3,1.7-0.3
			c0.3,0,0.6,0,0.9,0.1s0.5,0.2,0.7,0.3s0.4,0.2,0.6,0.4s0.3,0.3,0.5,0.4l-0.6,0.8c-0.2-0.2-0.5-0.4-0.8-0.6
			c-0.3-0.2-0.7-0.3-1.2-0.3c-0.5,0-0.9,0.1-1.3,0.3c-0.4,0.2-0.7,0.4-1,0.7s-0.5,0.7-0.6,1.2c-0.1,0.5-0.2,1-0.2,1.5
			c0,0.6,0.1,1.1,0.2,1.6c0.1,0.5,0.3,0.9,0.6,1.2c0.3,0.3,0.6,0.6,1,0.8c0.4,0.2,0.8,0.3,1.3,0.3c0.3,0,0.6,0,0.9-0.1
			s0.5-0.2,0.7-0.4v-2.4h-1.9v-1h3v3.9c-0.3,0.3-0.7,0.6-1.2,0.8C1384.6,915.1,1384,915.2,1383.4,915.2z"/>
		<path class="st3" d="M1391,915.2c-0.4,0-0.8-0.1-1.2-0.2c-0.4-0.2-0.7-0.4-1-0.7c-0.3-0.3-0.5-0.7-0.7-1.1s-0.3-0.9-0.3-1.5
			c0-0.6,0.1-1.1,0.3-1.5s0.4-0.8,0.7-1.1c0.3-0.3,0.6-0.5,1-0.7c0.4-0.2,0.8-0.2,1.2-0.2s0.8,0.1,1.2,0.2c0.4,0.2,0.7,0.4,1,0.7
			c0.3,0.3,0.5,0.7,0.7,1.1c0.2,0.4,0.3,1,0.3,1.5c0,0.6-0.1,1.1-0.3,1.5c-0.2,0.4-0.4,0.8-0.7,1.1c-0.3,0.3-0.6,0.5-1,0.7
			C1391.8,915.1,1391.4,915.2,1391,915.2z M1391,914.2c0.3,0,0.6-0.1,0.8-0.2s0.5-0.3,0.6-0.5s0.3-0.5,0.4-0.8s0.1-0.7,0.1-1.1
			c0-0.4,0-0.7-0.1-1.1s-0.2-0.6-0.4-0.8s-0.4-0.4-0.6-0.5s-0.5-0.2-0.8-0.2c-0.3,0-0.6,0.1-0.8,0.2s-0.5,0.3-0.6,0.5
			c-0.2,0.2-0.3,0.5-0.4,0.8c-0.1,0.3-0.1,0.7-0.1,1.1c0,0.4,0,0.7,0.1,1.1c0.1,0.3,0.2,0.6,0.4,0.8c0.2,0.2,0.4,0.4,0.6,0.5
			S1390.7,914.2,1391,914.2z"/>
		<path class="st3" d="M1397.3,915l-2.5-6.8h1.2l1.3,3.9c0.1,0.3,0.2,0.7,0.3,1s0.2,0.7,0.3,1h0.1c0.1-0.3,0.2-0.7,0.3-1
			s0.2-0.7,0.3-1l1.3-3.9h1.1l-2.4,6.8H1397.3z"/>
		<path class="st3" d="M1405.1,915.2c-0.5,0-0.9-0.1-1.3-0.2s-0.7-0.4-1-0.7c-0.3-0.3-0.5-0.7-0.7-1.1c-0.2-0.4-0.3-0.9-0.3-1.5
			c0-0.6,0.1-1.1,0.3-1.5c0.2-0.4,0.4-0.8,0.7-1.1c0.3-0.3,0.6-0.5,1-0.7c0.4-0.2,0.7-0.2,1.1-0.2c0.4,0,0.8,0.1,1.2,0.2
			s0.6,0.4,0.9,0.6c0.2,0.3,0.4,0.6,0.5,1c0.1,0.4,0.2,0.8,0.2,1.3c0,0.1,0,0.2,0,0.4c0,0.1,0,0.2,0,0.3h-4.6c0,0.7,0.3,1.3,0.7,1.7
			s0.9,0.6,1.6,0.6c0.3,0,0.6,0,0.9-0.1c0.3-0.1,0.5-0.2,0.8-0.4l0.4,0.8c-0.3,0.2-0.6,0.4-1,0.5
			C1406,915.1,1405.6,915.2,1405.1,915.2z M1402.9,911.1h3.6c0-0.7-0.1-1.2-0.4-1.6c-0.3-0.4-0.7-0.5-1.2-0.5c-0.2,0-0.5,0-0.7,0.1
			c-0.2,0.1-0.4,0.2-0.6,0.4c-0.2,0.2-0.3,0.4-0.4,0.7C1403.1,910.4,1403,910.7,1402.9,911.1z"/>
		<path class="st3" d="M1409.3,915v-6.8h1l0.1,1.2h0c0.2-0.4,0.5-0.8,0.8-1s0.7-0.4,1.1-0.4c0.3,0,0.5,0,0.7,0.1l-0.2,1
			c-0.1,0-0.2-0.1-0.3-0.1c-0.1,0-0.2,0-0.4,0c-0.3,0-0.6,0.1-0.9,0.3c-0.3,0.2-0.6,0.6-0.8,1.2v4.4H1409.3z"/>
		<path class="st3" d="M1414.1,915v-6.8h1l0.1,1h0c0.3-0.3,0.7-0.6,1-0.8c0.4-0.2,0.8-0.3,1.3-0.3c0.7,0,1.2,0.2,1.6,0.7
			s0.5,1.1,0.5,2v4.3h-1.1v-4.2c0-0.6-0.1-1.1-0.3-1.4c-0.2-0.3-0.5-0.4-1-0.4c-0.4,0-0.7,0.1-0.9,0.3s-0.6,0.4-0.9,0.8v4.9H1414.1z
			"/>
		<path class="st3" d="M1421.8,915v-6.8h1l0.1,1h0c0.3-0.3,0.6-0.6,1-0.8c0.4-0.2,0.7-0.3,1.1-0.3c0.5,0,0.9,0.1,1.2,0.3
			s0.5,0.5,0.7,1c0.4-0.4,0.7-0.7,1.1-0.9c0.4-0.2,0.7-0.4,1.2-0.4c0.7,0,1.2,0.2,1.6,0.7s0.5,1.1,0.5,2v4.3h-1.1v-4.2
			c0-0.6-0.1-1.1-0.3-1.4c-0.2-0.3-0.5-0.4-1-0.4c-0.5,0-1.1,0.3-1.7,1v4.9h-1.1v-4.2c0-0.6-0.1-1.1-0.3-1.4c-0.2-0.3-0.5-0.4-1-0.4
			c-0.5,0-1.1,0.3-1.7,1v4.9H1421.8z"/>
		<path class="st3" d="M1436.2,915.2c-0.5,0-0.9-0.1-1.3-0.2s-0.7-0.4-1-0.7c-0.3-0.3-0.5-0.7-0.7-1.1c-0.2-0.4-0.3-0.9-0.3-1.5
			c0-0.6,0.1-1.1,0.3-1.5c0.2-0.4,0.4-0.8,0.7-1.1c0.3-0.3,0.6-0.5,1-0.7c0.4-0.2,0.7-0.2,1.1-0.2c0.4,0,0.8,0.1,1.2,0.2
			s0.6,0.4,0.9,0.6c0.2,0.3,0.4,0.6,0.5,1c0.1,0.4,0.2,0.8,0.2,1.3c0,0.1,0,0.2,0,0.4c0,0.1,0,0.2,0,0.3h-4.6c0,0.7,0.3,1.3,0.7,1.7
			s0.9,0.6,1.6,0.6c0.3,0,0.6,0,0.9-0.1c0.3-0.1,0.5-0.2,0.8-0.4l0.4,0.8c-0.3,0.2-0.6,0.4-1,0.5
			C1437,915.1,1436.6,915.2,1436.2,915.2z M1434,911.1h3.6c0-0.7-0.1-1.2-0.4-1.6c-0.3-0.4-0.7-0.5-1.2-0.5c-0.2,0-0.5,0-0.7,0.1
			c-0.2,0.1-0.4,0.2-0.6,0.4c-0.2,0.2-0.3,0.4-0.4,0.7C1434.1,910.4,1434,910.7,1434,911.1z"/>
		<path class="st3" d="M1440.3,915v-6.8h1l0.1,1h0c0.3-0.3,0.7-0.6,1-0.8c0.4-0.2,0.8-0.3,1.3-0.3c0.7,0,1.2,0.2,1.6,0.7
			s0.5,1.1,0.5,2v4.3h-1.1v-4.2c0-0.6-0.1-1.1-0.3-1.4c-0.2-0.3-0.5-0.4-1-0.4c-0.4,0-0.7,0.1-0.9,0.3s-0.6,0.4-0.9,0.8v4.9H1440.3z
			"/>
		<path class="st3" d="M1450.1,915.2c-0.4,0-0.7-0.1-0.9-0.2s-0.4-0.3-0.6-0.5c-0.2-0.2-0.3-0.4-0.3-0.7c-0.1-0.3-0.1-0.6-0.1-0.9
			v-3.8h-1v-0.9l1.1-0.1l0.1-1.9h1v1.9h1.8v0.9h-1.8v3.8c0,0.4,0.1,0.7,0.2,1c0.2,0.2,0.4,0.3,0.8,0.3c0.1,0,0.3,0,0.4-0.1
			c0.1,0,0.3-0.1,0.4-0.1l0.2,0.9c-0.2,0.1-0.4,0.1-0.6,0.2C1450.6,915.1,1450.4,915.2,1450.1,915.2z"/>
		<path class="st3" d="M1458.2,915.2c-0.4,0-0.9-0.1-1.3-0.2c-0.4-0.2-0.7-0.4-1-0.7c-0.3-0.3-0.5-0.7-0.7-1.1s-0.2-0.9-0.2-1.5
			c0-0.6,0.1-1.1,0.3-1.5c0.2-0.4,0.4-0.8,0.7-1.1c0.3-0.3,0.6-0.5,1-0.7c0.4-0.2,0.8-0.2,1.3-0.2c0.4,0,0.8,0.1,1.1,0.2
			c0.3,0.2,0.6,0.3,0.8,0.6l-0.6,0.8c-0.2-0.2-0.4-0.3-0.6-0.4c-0.2-0.1-0.5-0.2-0.7-0.2c-0.3,0-0.6,0.1-0.9,0.2
			c-0.3,0.1-0.5,0.3-0.7,0.5c-0.2,0.2-0.3,0.5-0.4,0.8s-0.2,0.7-0.2,1.1c0,0.4,0.1,0.7,0.2,1.1c0.1,0.3,0.2,0.6,0.4,0.8
			s0.4,0.4,0.7,0.5c0.3,0.1,0.5,0.2,0.9,0.2c0.3,0,0.6-0.1,0.9-0.2c0.3-0.1,0.5-0.3,0.7-0.5l0.5,0.8c-0.3,0.3-0.6,0.5-1,0.6
			C1459,915.1,1458.6,915.2,1458.2,915.2z"/>
		<path class="st3" d="M1463.1,915.2c-0.4,0-0.8-0.1-0.9-0.4c-0.2-0.3-0.3-0.6-0.3-1.1V905h1.1v8.7c0,0.2,0,0.3,0.1,0.4
			c0.1,0.1,0.1,0.1,0.2,0.1c0,0,0.1,0,0.1,0c0,0,0.1,0,0.1,0l0.2,0.9c-0.1,0-0.2,0.1-0.3,0.1S1463.3,915.2,1463.1,915.2z"/>
		<path class="st3" d="M1467,915.2c-0.6,0-1-0.2-1.4-0.5s-0.6-0.8-0.6-1.4c0-0.7,0.3-1.3,1-1.7c0.7-0.4,1.7-0.7,3.2-0.8
			c0-0.2,0-0.4-0.1-0.6c0-0.2-0.1-0.4-0.2-0.5c-0.1-0.2-0.2-0.3-0.4-0.4c-0.2-0.1-0.4-0.1-0.7-0.1c-0.4,0-0.8,0.1-1.1,0.2
			c-0.3,0.1-0.7,0.3-0.9,0.5l-0.4-0.8c0.3-0.2,0.7-0.4,1.2-0.6c0.5-0.2,1-0.3,1.5-0.3c0.8,0,1.4,0.3,1.8,0.8s0.6,1.2,0.6,2v4.2h-1
			l-0.1-0.8h0c-0.3,0.3-0.7,0.5-1,0.7S1467.5,915.2,1467,915.2z M1467.4,914.2c0.3,0,0.6-0.1,0.9-0.2c0.3-0.2,0.6-0.4,0.9-0.7v-1.9
			c-0.6,0.1-1,0.2-1.4,0.3s-0.7,0.2-0.9,0.4c-0.2,0.1-0.4,0.3-0.5,0.5c-0.1,0.2-0.2,0.4-0.2,0.6c0,0.4,0.1,0.7,0.4,0.8
			S1467,914.2,1467.4,914.2z"/>
		<path class="st3" d="M1474.3,915.2c-0.5,0-0.9-0.1-1.4-0.3c-0.4-0.2-0.8-0.4-1.1-0.7l0.6-0.8c0.3,0.2,0.6,0.4,0.9,0.6
			s0.7,0.2,1.1,0.2c0.4,0,0.8-0.1,1-0.3c0.2-0.2,0.3-0.5,0.3-0.8c0-0.2,0-0.3-0.1-0.5s-0.2-0.2-0.4-0.3c-0.1-0.1-0.3-0.2-0.5-0.3
			c-0.2-0.1-0.4-0.1-0.6-0.2c-0.2-0.1-0.5-0.2-0.7-0.3c-0.2-0.1-0.5-0.2-0.7-0.4c-0.2-0.2-0.3-0.3-0.5-0.5s-0.2-0.5-0.2-0.7
			c0-0.3,0.1-0.5,0.2-0.8c0.1-0.2,0.3-0.4,0.5-0.6c0.2-0.2,0.4-0.3,0.7-0.4c0.3-0.1,0.6-0.1,1-0.1c0.4,0,0.8,0.1,1.2,0.2
			s0.7,0.3,0.9,0.5l-0.5,0.7c-0.2-0.2-0.5-0.3-0.7-0.4c-0.3-0.1-0.5-0.2-0.8-0.2c-0.4,0-0.7,0.1-0.9,0.3c-0.2,0.2-0.3,0.4-0.3,0.7
			c0,0.2,0,0.3,0.1,0.4c0.1,0.1,0.2,0.2,0.3,0.3s0.3,0.2,0.5,0.2c0.2,0.1,0.4,0.1,0.6,0.2c0.2,0.1,0.5,0.2,0.7,0.3s0.5,0.2,0.7,0.4
			c0.2,0.2,0.4,0.3,0.5,0.6c0.1,0.2,0.2,0.5,0.2,0.8c0,0.3-0.1,0.5-0.2,0.8c-0.1,0.2-0.3,0.5-0.5,0.6s-0.5,0.3-0.8,0.4
			S1474.7,915.2,1474.3,915.2z"/>
		<path class="st3" d="M1480.2,915.2c-0.5,0-0.9-0.1-1.4-0.3c-0.4-0.2-0.8-0.4-1.1-0.7l0.6-0.8c0.3,0.2,0.6,0.4,0.9,0.6
			s0.7,0.2,1.1,0.2c0.4,0,0.8-0.1,1-0.3c0.2-0.2,0.3-0.5,0.3-0.8c0-0.2,0-0.3-0.1-0.5s-0.2-0.2-0.4-0.3c-0.1-0.1-0.3-0.2-0.5-0.3
			c-0.2-0.1-0.4-0.1-0.6-0.2c-0.2-0.1-0.5-0.2-0.7-0.3c-0.2-0.1-0.5-0.2-0.7-0.4c-0.2-0.2-0.3-0.3-0.5-0.5s-0.2-0.5-0.2-0.7
			c0-0.3,0.1-0.5,0.2-0.8c0.1-0.2,0.3-0.4,0.5-0.6c0.2-0.2,0.4-0.3,0.7-0.4c0.3-0.1,0.6-0.1,1-0.1c0.4,0,0.8,0.1,1.2,0.2
			s0.7,0.3,0.9,0.5l-0.5,0.7c-0.2-0.2-0.5-0.3-0.7-0.4c-0.3-0.1-0.5-0.2-0.8-0.2c-0.4,0-0.7,0.1-0.9,0.3c-0.2,0.2-0.3,0.4-0.3,0.7
			c0,0.2,0,0.3,0.1,0.4c0.1,0.1,0.2,0.2,0.3,0.3s0.3,0.2,0.5,0.2c0.2,0.1,0.4,0.1,0.6,0.2c0.2,0.1,0.5,0.2,0.7,0.3s0.5,0.2,0.7,0.4
			c0.2,0.2,0.4,0.3,0.5,0.6c0.1,0.2,0.2,0.5,0.2,0.8c0,0.3-0.1,0.5-0.2,0.8c-0.1,0.2-0.3,0.5-0.5,0.6s-0.5,0.3-0.8,0.4
			S1480.6,915.2,1480.2,915.2z"/>
		<path class="st3" d="M1484.9,906.8c-0.2,0-0.4-0.1-0.6-0.2s-0.2-0.3-0.2-0.5c0-0.2,0.1-0.4,0.2-0.5c0.2-0.1,0.3-0.2,0.6-0.2
			c0.2,0,0.4,0.1,0.6,0.2c0.2,0.1,0.2,0.3,0.2,0.5c0,0.2-0.1,0.4-0.2,0.5C1485.3,906.7,1485.1,906.8,1484.9,906.8z M1484.3,915v-6.8
			h1.1v6.8H1484.3z"/>
		<path class="st3" d="M1487.9,915v-5.9h-0.9v-0.9l0.9-0.1v-1.1c0-0.7,0.2-1.3,0.5-1.7s0.8-0.6,1.5-0.6c0.2,0,0.4,0,0.6,0.1
			c0.2,0,0.4,0.1,0.5,0.2l-0.3,0.9c-0.3-0.1-0.5-0.2-0.8-0.2c-0.6,0-1,0.4-1,1.3v1.1h1.4v0.9h-1.4v5.9H1487.9z"/>
		<path class="st3" d="M1492.4,906.8c-0.2,0-0.4-0.1-0.6-0.2s-0.2-0.3-0.2-0.5c0-0.2,0.1-0.4,0.2-0.5c0.2-0.1,0.3-0.2,0.6-0.2
			c0.2,0,0.4,0.1,0.6,0.2c0.2,0.1,0.2,0.3,0.2,0.5c0,0.2-0.1,0.4-0.2,0.5C1492.8,906.7,1492.6,906.8,1492.4,906.8z M1491.8,915v-6.8
			h1.1v6.8H1491.8z"/>
		<path class="st3" d="M1497.9,915.2c-0.4,0-0.9-0.1-1.3-0.2c-0.4-0.2-0.7-0.4-1-0.7c-0.3-0.3-0.5-0.7-0.7-1.1s-0.2-0.9-0.2-1.5
			c0-0.6,0.1-1.1,0.3-1.5c0.2-0.4,0.4-0.8,0.7-1.1c0.3-0.3,0.6-0.5,1-0.7c0.4-0.2,0.8-0.2,1.3-0.2c0.4,0,0.8,0.1,1.1,0.2
			c0.3,0.2,0.6,0.3,0.8,0.6l-0.6,0.8c-0.2-0.2-0.4-0.3-0.6-0.4c-0.2-0.1-0.5-0.2-0.7-0.2c-0.3,0-0.6,0.1-0.9,0.2
			c-0.3,0.1-0.5,0.3-0.7,0.5c-0.2,0.2-0.3,0.5-0.4,0.8s-0.2,0.7-0.2,1.1c0,0.4,0.1,0.7,0.2,1.1c0.1,0.3,0.2,0.6,0.4,0.8
			s0.4,0.4,0.7,0.5c0.3,0.1,0.5,0.2,0.9,0.2c0.3,0,0.6-0.1,0.9-0.2c0.3-0.1,0.5-0.3,0.7-0.5l0.5,0.8c-0.3,0.3-0.6,0.5-1,0.6
			C1498.7,915.1,1498.3,915.2,1497.9,915.2z"/>
		<path class="st3" d="M1503.1,915.2c-0.6,0-1-0.2-1.4-0.5s-0.6-0.8-0.6-1.4c0-0.7,0.3-1.3,1-1.7c0.7-0.4,1.7-0.7,3.2-0.8
			c0-0.2,0-0.4-0.1-0.6c0-0.2-0.1-0.4-0.2-0.5c-0.1-0.2-0.2-0.3-0.4-0.4c-0.2-0.1-0.4-0.1-0.7-0.1c-0.4,0-0.8,0.1-1.1,0.2
			c-0.3,0.1-0.7,0.3-0.9,0.5l-0.4-0.8c0.3-0.2,0.7-0.4,1.2-0.6c0.5-0.2,1-0.3,1.5-0.3c0.8,0,1.4,0.3,1.8,0.8s0.6,1.2,0.6,2v4.2h-1
			l-0.1-0.8h0c-0.3,0.3-0.7,0.5-1,0.7S1503.5,915.2,1503.1,915.2z M1503.4,914.2c0.3,0,0.6-0.1,0.9-0.2c0.3-0.2,0.6-0.4,0.9-0.7
			v-1.9c-0.6,0.1-1,0.2-1.4,0.3s-0.7,0.2-0.9,0.4c-0.2,0.1-0.4,0.3-0.5,0.5c-0.1,0.2-0.2,0.4-0.2,0.6c0,0.4,0.1,0.7,0.4,0.8
			S1503.1,914.2,1503.4,914.2z"/>
		<path class="st3" d="M1510.5,915.2c-0.4,0-0.7-0.1-0.9-0.2s-0.4-0.3-0.6-0.5c-0.2-0.2-0.3-0.4-0.3-0.7c-0.1-0.3-0.1-0.6-0.1-0.9
			v-3.8h-1v-0.9l1.1-0.1l0.1-1.9h1v1.9h1.8v0.9h-1.8v3.8c0,0.4,0.1,0.7,0.2,1c0.2,0.2,0.4,0.3,0.8,0.3c0.1,0,0.3,0,0.4-0.1
			c0.1,0,0.3-0.1,0.4-0.1l0.2,0.9c-0.2,0.1-0.4,0.1-0.6,0.2C1510.9,915.1,1510.7,915.2,1510.5,915.2z"/>
		<path class="st3" d="M1513.7,906.8c-0.2,0-0.4-0.1-0.6-0.2s-0.2-0.3-0.2-0.5c0-0.2,0.1-0.4,0.2-0.5c0.2-0.1,0.3-0.2,0.6-0.2
			c0.2,0,0.4,0.1,0.6,0.2c0.2,0.1,0.2,0.3,0.2,0.5c0,0.2-0.1,0.4-0.2,0.5C1514.1,906.7,1513.9,906.8,1513.7,906.8z M1513.1,915v-6.8
			h1.1v6.8H1513.1z"/>
		<path class="st3" d="M1519.2,915.2c-0.4,0-0.8-0.1-1.2-0.2c-0.4-0.2-0.7-0.4-1-0.7c-0.3-0.3-0.5-0.7-0.7-1.1
			c-0.2-0.4-0.3-0.9-0.3-1.5c0-0.6,0.1-1.1,0.3-1.5c0.2-0.4,0.4-0.8,0.7-1.1c0.3-0.3,0.6-0.5,1-0.7c0.4-0.2,0.8-0.2,1.2-0.2
			s0.8,0.1,1.2,0.2c0.4,0.2,0.7,0.4,1,0.7c0.3,0.3,0.5,0.7,0.7,1.1s0.3,1,0.3,1.5c0,0.6-0.1,1.1-0.3,1.5s-0.4,0.8-0.7,1.1
			c-0.3,0.3-0.6,0.5-1,0.7C1520,915.1,1519.6,915.2,1519.2,915.2z M1519.2,914.2c0.3,0,0.6-0.1,0.8-0.2c0.2-0.1,0.5-0.3,0.6-0.5
			s0.3-0.5,0.4-0.8c0.1-0.3,0.1-0.7,0.1-1.1c0-0.4,0-0.7-0.1-1.1c-0.1-0.3-0.2-0.6-0.4-0.8s-0.4-0.4-0.6-0.5
			c-0.2-0.1-0.5-0.2-0.8-0.2s-0.6,0.1-0.8,0.2c-0.2,0.1-0.5,0.3-0.6,0.5s-0.3,0.5-0.4,0.8c-0.1,0.3-0.1,0.7-0.1,1.1
			c0,0.4,0,0.7,0.1,1.1c0.1,0.3,0.2,0.6,0.4,0.8s0.4,0.4,0.6,0.5C1518.6,914.2,1518.9,914.2,1519.2,914.2z"/>
		<path class="st3" d="M1524.1,915v-6.8h1l0.1,1h0c0.3-0.3,0.7-0.6,1-0.8c0.4-0.2,0.8-0.3,1.3-0.3c0.7,0,1.2,0.2,1.6,0.7
			s0.5,1.1,0.5,2v4.3h-1.1v-4.2c0-0.6-0.1-1.1-0.3-1.4c-0.2-0.3-0.5-0.4-1-0.4c-0.4,0-0.7,0.1-0.9,0.3s-0.6,0.4-0.9,0.8v4.9H1524.1z
			"/>
	</g>
	<g class="st2">
		<path class="st3" d="M1379.7,933v-9.2h2.9c0.5,0,0.9,0,1.3,0.1c0.4,0.1,0.7,0.2,1,0.4s0.5,0.4,0.7,0.7c0.2,0.3,0.2,0.6,0.2,1.1
			c0,0.4-0.1,0.8-0.3,1.2c-0.2,0.4-0.5,0.6-0.9,0.8v0.1c0.5,0.1,0.9,0.3,1.3,0.7c0.3,0.4,0.5,0.8,0.5,1.5c0,0.5-0.1,0.9-0.3,1.2
			c-0.2,0.3-0.4,0.6-0.7,0.8c-0.3,0.2-0.7,0.4-1.1,0.5c-0.4,0.1-0.9,0.2-1.4,0.2H1379.7z M1381.3,927.6h1.2c0.6,0,1.1-0.1,1.4-0.3
			s0.4-0.5,0.4-0.9c0-0.4-0.1-0.8-0.4-1c-0.3-0.2-0.7-0.3-1.3-0.3h-1.2V927.6z M1381.3,931.7h1.4c0.7,0,1.2-0.1,1.6-0.4
			c0.4-0.2,0.5-0.6,0.5-1.1c0-0.5-0.2-0.8-0.5-1.1c-0.4-0.2-0.9-0.3-1.6-0.3h-1.4V931.7z"/>
		<path class="st3" d="M1388,933v-9.2h3.1c0.5,0,0.9,0,1.3,0.1c0.4,0.1,0.8,0.2,1.1,0.5c0.3,0.2,0.5,0.5,0.7,0.8
			c0.2,0.3,0.3,0.8,0.3,1.3c0,0.7-0.2,1.3-0.5,1.7c-0.3,0.4-0.8,0.7-1.3,0.9l2.2,3.8h-1.8l-2-3.6h-1.4v3.6H1388z M1389.7,928.1h1.3
			c0.6,0,1.1-0.1,1.4-0.4c0.3-0.3,0.5-0.7,0.5-1.2c0-0.5-0.2-0.9-0.5-1.1c-0.3-0.2-0.8-0.3-1.4-0.3h-1.3V928.1z"/>
		<path class="st3" d="M1399.9,933.2c-0.6,0-1.1-0.1-1.6-0.3c-0.5-0.2-0.9-0.5-1.3-1c-0.4-0.4-0.6-0.9-0.8-1.5
			c-0.2-0.6-0.3-1.3-0.3-2c0-0.7,0.1-1.4,0.3-2c0.2-0.6,0.5-1.1,0.8-1.5s0.8-0.7,1.3-0.9c0.5-0.2,1-0.3,1.6-0.3s1.1,0.1,1.6,0.3
			c0.5,0.2,0.9,0.5,1.3,0.9s0.6,0.9,0.8,1.5c0.2,0.6,0.3,1.2,0.3,2c0,0.7-0.1,1.4-0.3,2c-0.2,0.6-0.5,1.1-0.8,1.5
			c-0.4,0.4-0.8,0.7-1.3,1C1401,933.1,1400.5,933.2,1399.9,933.2z M1399.9,931.8c0.4,0,0.7-0.1,1-0.2c0.3-0.2,0.5-0.4,0.7-0.7
			c0.2-0.3,0.4-0.6,0.5-1.1c0.1-0.4,0.2-0.9,0.2-1.4c0-1-0.2-1.8-0.6-2.4c-0.4-0.6-1-0.9-1.7-0.9c-0.7,0-1.3,0.3-1.7,0.9
			c-0.4,0.6-0.6,1.4-0.6,2.4c0,0.5,0.1,1,0.2,1.4c0.1,0.4,0.3,0.8,0.5,1.1s0.5,0.5,0.7,0.7C1399.2,931.7,1399.5,931.8,1399.9,931.8z
			"/>
		<path class="st3" d="M1405.8,933v-9.2h1.7l2.9,5.2l0.9,1.9h0.1c0-0.5-0.1-1-0.1-1.5c-0.1-0.5-0.1-1.1-0.1-1.6v-4h1.6v9.2h-1.7
			l-2.9-5.2l-0.9-1.9h-0.1c0,0.5,0.1,1,0.1,1.5c0.1,0.5,0.1,1.1,0.1,1.6v4H1405.8z"/>
		<path class="st3" d="M1414.4,933v-1l4.4-6.8h-4v-1.4h6v1l-4.4,6.8h4.5v1.4H1414.4z"/>
		<path class="st3" d="M1422.5,933v-9.2h5.5v1.4h-3.9v2.3h3.3v1.4h-3.3v2.7h4v1.4H1422.5z"/>
	</g>
	<g class="st2">
		<path class="st3" d="M1433,933v-5.9h-0.9v-0.9l0.9-0.1v-1.1c0-0.7,0.2-1.3,0.5-1.7c0.3-0.4,0.8-0.6,1.5-0.6c0.2,0,0.4,0,0.6,0.1
			s0.4,0.1,0.5,0.2l-0.3,0.9c-0.3-0.1-0.5-0.2-0.8-0.2c-0.6,0-1,0.4-1,1.3v1.1h1.4v0.9h-1.4v5.9H1433z"/>
		<path class="st3" d="M1436.9,933v-6.8h1l0.1,1.2h0c0.2-0.4,0.5-0.8,0.8-1c0.3-0.3,0.7-0.4,1.1-0.4c0.3,0,0.5,0,0.7,0.1l-0.2,1
			c-0.1,0-0.2-0.1-0.3-0.1c-0.1,0-0.2,0-0.4,0c-0.3,0-0.6,0.1-0.9,0.3c-0.3,0.2-0.6,0.6-0.8,1.2v4.4H1436.9z"/>
		<path class="st3" d="M1444.3,933.2c-0.4,0-0.8-0.1-1.2-0.2c-0.4-0.2-0.7-0.4-1-0.7c-0.3-0.3-0.5-0.7-0.7-1.1s-0.3-0.9-0.3-1.5
			c0-0.6,0.1-1.1,0.3-1.5s0.4-0.8,0.7-1.1c0.3-0.3,0.6-0.5,1-0.7c0.4-0.2,0.8-0.2,1.2-0.2s0.8,0.1,1.2,0.2c0.4,0.2,0.7,0.4,1,0.7
			c0.3,0.3,0.5,0.7,0.7,1.1c0.2,0.4,0.3,1,0.3,1.5c0,0.6-0.1,1.1-0.3,1.5c-0.2,0.4-0.4,0.8-0.7,1.1c-0.3,0.3-0.6,0.5-1,0.7
			C1445.1,933.1,1444.7,933.2,1444.3,933.2z M1444.3,932.2c0.3,0,0.6-0.1,0.8-0.2s0.5-0.3,0.6-0.5s0.3-0.5,0.4-0.8s0.1-0.7,0.1-1.1
			c0-0.4,0-0.7-0.1-1.1s-0.2-0.6-0.4-0.8s-0.4-0.4-0.6-0.5s-0.5-0.2-0.8-0.2c-0.3,0-0.6,0.1-0.8,0.2s-0.5,0.3-0.6,0.5
			c-0.2,0.2-0.3,0.5-0.4,0.8c-0.1,0.3-0.1,0.7-0.1,1.1c0,0.4,0,0.7,0.1,1.1c0.1,0.3,0.2,0.6,0.4,0.8c0.2,0.2,0.4,0.4,0.6,0.5
			S1444,932.2,1444.3,932.2z"/>
		<path class="st3" d="M1449.2,933v-6.8h1l0.1,1h0c0.3-0.3,0.6-0.6,1-0.8c0.4-0.2,0.7-0.3,1.1-0.3c0.5,0,0.9,0.1,1.2,0.3
			s0.5,0.5,0.7,1c0.4-0.4,0.7-0.7,1.1-0.9c0.4-0.2,0.7-0.4,1.2-0.4c0.7,0,1.2,0.2,1.6,0.7s0.5,1.1,0.5,2v4.3h-1.1v-4.2
			c0-0.6-0.1-1.1-0.3-1.4c-0.2-0.3-0.5-0.4-1-0.4c-0.5,0-1.1,0.3-1.7,1v4.9h-1.1v-4.2c0-0.6-0.1-1.1-0.3-1.4c-0.2-0.3-0.5-0.4-1-0.4
			c-0.5,0-1.1,0.3-1.7,1v4.9H1449.2z"/>
		<path class="st3" d="M1462.5,933l3.1-9.2h1.3l3.1,9.2h-1.2l-0.9-2.8h-3.3l-0.9,2.8H1462.5z M1465.3,927.9l-0.4,1.4h2.8l-0.4-1.4
			c-0.2-0.5-0.3-1-0.5-1.5s-0.3-1-0.4-1.6h-0.1c-0.1,0.5-0.3,1.1-0.4,1.6C1465.7,926.8,1465.5,927.3,1465.3,927.9z"/>
		<path class="st3" d="M1471.2,935.9v-9.7h1l0.1,0.8h0c0.3-0.3,0.6-0.5,1-0.7c0.4-0.2,0.8-0.3,1.2-0.3c0.4,0,0.8,0.1,1.2,0.2
			c0.3,0.2,0.6,0.4,0.8,0.7c0.2,0.3,0.4,0.7,0.5,1.1c0.1,0.4,0.2,0.9,0.2,1.4c0,0.6-0.1,1.1-0.2,1.5c-0.2,0.5-0.4,0.8-0.6,1.2
			s-0.6,0.6-0.9,0.7c-0.4,0.2-0.7,0.2-1.1,0.2c-0.3,0-0.6-0.1-0.9-0.2s-0.6-0.3-0.9-0.6l0,1.2v2.3H1471.2z M1474.1,932.2
			c0.3,0,0.5-0.1,0.8-0.2c0.2-0.1,0.4-0.3,0.6-0.5c0.2-0.2,0.3-0.5,0.4-0.8c0.1-0.3,0.1-0.7,0.1-1.1c0-0.4,0-0.7-0.1-1
			c-0.1-0.3-0.2-0.6-0.3-0.8c-0.1-0.2-0.3-0.4-0.6-0.5c-0.2-0.1-0.5-0.2-0.8-0.2c-0.3,0-0.6,0.1-0.9,0.2c-0.3,0.2-0.6,0.4-0.9,0.7
			v3.6c0.3,0.3,0.6,0.4,0.9,0.6C1473.6,932.1,1473.8,932.2,1474.1,932.2z"/>
		<path class="st3" d="M1479,933v-6.8h1l0.1,1.2h0c0.2-0.4,0.5-0.8,0.8-1s0.7-0.4,1.1-0.4c0.3,0,0.5,0,0.7,0.1l-0.2,1
			c-0.1,0-0.2-0.1-0.3-0.1c-0.1,0-0.2,0-0.4,0c-0.3,0-0.6,0.1-0.9,0.3c-0.3,0.2-0.6,0.6-0.8,1.2v4.4H1479z"/>
		<path class="st3" d="M1484.5,924.8c-0.2,0-0.4-0.1-0.6-0.2s-0.2-0.3-0.2-0.5c0-0.2,0.1-0.4,0.2-0.5c0.2-0.1,0.3-0.2,0.6-0.2
			c0.2,0,0.4,0.1,0.6,0.2c0.2,0.1,0.2,0.3,0.2,0.5c0,0.2-0.1,0.4-0.2,0.5C1484.9,924.7,1484.7,924.8,1484.5,924.8z M1483.9,933v-6.8
			h1.1v6.8H1483.9z"/>
		<path class="st3" d="M1488.5,933.2c-0.4,0-0.8-0.1-0.9-0.4c-0.2-0.3-0.3-0.6-0.3-1.1V923h1.1v8.7c0,0.2,0,0.3,0.1,0.4
			c0.1,0.1,0.1,0.1,0.2,0.1c0,0,0.1,0,0.1,0c0,0,0.1,0,0.1,0l0.2,0.9c-0.1,0-0.2,0.1-0.3,0.1S1488.7,933.2,1488.5,933.2z"/>
		<path class="st3" d="M1493.6,933v-1h2v-6.6h-1.6v-0.7c0.4-0.1,0.8-0.2,1.1-0.3c0.3-0.1,0.6-0.2,0.8-0.4h0.9v8h1.8v1H1493.6z"/>
	</g>
	<g id="Group_8720" transform="translate(1328 900)">
		<path id="Path_4650" class="st4" d="M20,0c11,0,20,9,20,20s-9,20-20,20S0,31,0,20S9,0,20,0z"/>
		
			<linearGradient id="Ellipse_2059_1_" gradientUnits="userSpaceOnUse" x1="106.525" y1="35.5" x2="107.025" y2="36" gradientTransform="matrix(40 0 0 -40 -4251 1450)">
			<stop  offset="0" style="stop-color:#FFFFFF;stop-opacity:0"/>
			<stop  offset="0.49" style="stop-color:#FFFFFF"/>
			<stop  offset="1" style="stop-color:#FFFFFF;stop-opacity:0"/>
		</linearGradient>
		<circle id="Ellipse_2059" class="st5" cx="20" cy="20" r="20"/>
		<g class="st2">
			<path class="st0" d="M14.6,28V13h4.8c0.8,0,1.5,0.1,2.2,0.2c0.7,0.1,1.2,0.3,1.7,0.6c0.5,0.3,0.9,0.7,1.1,1.1s0.4,1.1,0.4,1.7
				c0,0.7-0.2,1.4-0.6,2c-0.4,0.6-0.9,1-1.5,1.3V20c0.8,0.2,1.5,0.6,2.1,1.2c0.5,0.6,0.8,1.4,0.8,2.4c0,0.8-0.1,1.4-0.4,2
				c-0.3,0.6-0.7,1-1.2,1.4s-1.1,0.6-1.8,0.8c-0.7,0.2-1.5,0.3-2.3,0.3H14.6z M17.2,19.2h1.9c1.1,0,1.8-0.2,2.3-0.6
				c0.5-0.4,0.7-0.9,0.7-1.5c0-0.7-0.2-1.3-0.7-1.6c-0.5-0.3-1.2-0.5-2.2-0.5h-2V19.2z M17.2,25.9h2.3c1.1,0,2-0.2,2.6-0.6
				c0.6-0.4,0.9-1,0.9-1.9c0-0.8-0.3-1.4-0.9-1.7c-0.6-0.4-1.4-0.5-2.6-0.5h-2.3V25.9z"/>
		</g>
	</g>
</g>
</svg>
