<?xml version="1.0" encoding="utf-8"?>
<!-- Generator: Adobe Illustrator 23.0.0, SVG Export Plug-In . SVG Version: 6.00 Build 0)  -->
<svg version="1.1" id="Layer_1" xmlns="http://www.w3.org/2000/svg" xmlns:xlink="http://www.w3.org/1999/xlink" x="0px" y="0px"
	 viewBox="0 0 150 85" style="enable-background:new 0 0 150 85;" xml:space="preserve">
<style type="text/css">
	.st0{fill:none;}
	.st1{fill:#999999;}
	.st2{enable-background:new    ;}
	.st3{fill:#333333;}
	.st4{fill:#FFFFFF;}
</style>
<g id="Group_8976" transform="translate(-1480 -1464)">
	<g id="Path_4662" transform="translate(1507.242 1464)">
		<path class="st0" d="M0,0h122.8v85H0V0z"/>
		<path class="st1" d="M1,1v83h120.8V1H1 M0,0h122.8v85H0V0z"/>
	</g>
	<g class="st2">
		<path class="st3" d="M1544.9,1483.2c-0.6,0-1.2-0.1-1.7-0.3c-0.5-0.2-0.9-0.5-1.3-0.9c-0.4-0.4-0.6-0.9-0.9-1.5
			c-0.2-0.6-0.3-1.3-0.3-2c0-0.7,0.1-1.4,0.3-2s0.5-1.1,0.9-1.5c0.4-0.4,0.8-0.7,1.3-0.9c0.5-0.2,1.1-0.3,1.7-0.3
			c0.3,0,0.6,0,0.9,0.1s0.5,0.2,0.7,0.3s0.4,0.2,0.6,0.4s0.3,0.3,0.5,0.4l-0.6,0.8c-0.2-0.2-0.5-0.4-0.8-0.6
			c-0.3-0.2-0.7-0.3-1.2-0.3c-0.5,0-0.9,0.1-1.3,0.3c-0.4,0.2-0.7,0.4-1,0.7s-0.5,0.7-0.6,1.2c-0.1,0.5-0.2,1-0.2,1.5
			c0,0.6,0.1,1.1,0.2,1.6c0.1,0.5,0.3,0.9,0.6,1.2c0.3,0.3,0.6,0.6,1,0.8c0.4,0.2,0.8,0.3,1.3,0.3c0.3,0,0.6,0,0.9-0.1
			s0.5-0.2,0.7-0.4v-2.4h-1.9v-1h3v3.9c-0.3,0.3-0.7,0.6-1.2,0.8C1546,1483.1,1545.5,1483.2,1544.9,1483.2z"/>
		<path class="st3" d="M1552.4,1483.2c-0.4,0-0.8-0.1-1.2-0.2c-0.4-0.2-0.7-0.4-1-0.7c-0.3-0.3-0.5-0.7-0.7-1.1s-0.3-0.9-0.3-1.5
			c0-0.6,0.1-1.1,0.3-1.5s0.4-0.8,0.7-1.1c0.3-0.3,0.6-0.5,1-0.7c0.4-0.2,0.8-0.2,1.2-0.2s0.8,0.1,1.2,0.2c0.4,0.2,0.7,0.4,1,0.7
			c0.3,0.3,0.5,0.7,0.7,1.1c0.2,0.4,0.3,1,0.3,1.5c0,0.6-0.1,1.1-0.3,1.5c-0.2,0.4-0.4,0.8-0.7,1.1c-0.3,0.3-0.6,0.5-1,0.7
			C1553.2,1483.1,1552.8,1483.2,1552.4,1483.2z M1552.4,1482.2c0.3,0,0.6-0.1,0.8-0.2s0.5-0.3,0.6-0.5s0.3-0.5,0.4-0.8
			s0.1-0.7,0.1-1.1c0-0.4,0-0.7-0.1-1.1s-0.2-0.6-0.4-0.8s-0.4-0.4-0.6-0.5s-0.5-0.2-0.8-0.2c-0.3,0-0.6,0.1-0.8,0.2
			s-0.5,0.3-0.6,0.5c-0.2,0.2-0.3,0.5-0.4,0.8c-0.1,0.3-0.1,0.7-0.1,1.1c0,0.4,0,0.7,0.1,1.1c0.1,0.3,0.2,0.6,0.4,0.8
			c0.2,0.2,0.4,0.4,0.6,0.5S1552.1,1482.2,1552.4,1482.2z"/>
		<path class="st3" d="M1558.8,1483l-2.5-6.8h1.2l1.3,3.9c0.1,0.3,0.2,0.7,0.3,1s0.2,0.7,0.3,1h0.1c0.1-0.3,0.2-0.7,0.3-1
			s0.2-0.7,0.3-1l1.3-3.9h1.1l-2.4,6.8H1558.8z"/>
		<path class="st3" d="M1566.6,1483.2c-0.5,0-0.9-0.1-1.3-0.2s-0.7-0.4-1-0.7c-0.3-0.3-0.5-0.7-0.7-1.1c-0.2-0.4-0.3-0.9-0.3-1.5
			c0-0.6,0.1-1.1,0.3-1.5c0.2-0.4,0.4-0.8,0.7-1.1c0.3-0.3,0.6-0.5,1-0.7c0.4-0.2,0.7-0.2,1.1-0.2c0.4,0,0.8,0.1,1.2,0.2
			s0.6,0.4,0.9,0.6c0.2,0.3,0.4,0.6,0.5,1c0.1,0.4,0.2,0.8,0.2,1.3c0,0.1,0,0.2,0,0.4c0,0.1,0,0.2,0,0.3h-4.6c0,0.7,0.3,1.3,0.7,1.7
			s0.9,0.6,1.6,0.6c0.3,0,0.6,0,0.9-0.1c0.3-0.1,0.5-0.2,0.8-0.4l0.4,0.8c-0.3,0.2-0.6,0.4-1,0.5
			C1567.4,1483.1,1567,1483.2,1566.6,1483.2z M1564.4,1479.1h3.6c0-0.7-0.1-1.2-0.4-1.6c-0.3-0.4-0.7-0.5-1.2-0.5
			c-0.2,0-0.5,0-0.7,0.1c-0.2,0.1-0.4,0.2-0.6,0.4c-0.2,0.2-0.3,0.4-0.4,0.7C1564.5,1478.4,1564.5,1478.7,1564.4,1479.1z"/>
		<path class="st3" d="M1570.7,1483v-6.8h1l0.1,1.2h0c0.2-0.4,0.5-0.8,0.8-1s0.7-0.4,1.1-0.4c0.3,0,0.5,0,0.7,0.1l-0.2,1
			c-0.1,0-0.2-0.1-0.3-0.1c-0.1,0-0.2,0-0.4,0c-0.3,0-0.6,0.1-0.9,0.3c-0.3,0.2-0.6,0.6-0.8,1.2v4.4H1570.7z"/>
		<path class="st3" d="M1575.6,1483v-6.8h1l0.1,1h0c0.3-0.3,0.7-0.6,1-0.8c0.4-0.2,0.8-0.3,1.3-0.3c0.7,0,1.2,0.2,1.6,0.7
			s0.5,1.1,0.5,2v4.3h-1.1v-4.2c0-0.6-0.1-1.1-0.3-1.4c-0.2-0.3-0.5-0.4-1-0.4c-0.4,0-0.7,0.1-0.9,0.3s-0.6,0.4-0.9,0.8v4.9H1575.6z
			"/>
		<path class="st3" d="M1583.3,1483v-6.8h1l0.1,1h0c0.3-0.3,0.6-0.6,1-0.8c0.4-0.2,0.7-0.3,1.1-0.3c0.5,0,0.9,0.1,1.2,0.3
			s0.5,0.5,0.7,1c0.4-0.4,0.7-0.7,1.1-0.9c0.4-0.2,0.7-0.4,1.2-0.4c0.7,0,1.2,0.2,1.6,0.7s0.5,1.1,0.5,2v4.3h-1.1v-4.2
			c0-0.6-0.1-1.1-0.3-1.4c-0.2-0.3-0.5-0.4-1-0.4c-0.5,0-1.1,0.3-1.7,1v4.9h-1.1v-4.2c0-0.6-0.1-1.1-0.3-1.4c-0.2-0.3-0.5-0.4-1-0.4
			c-0.5,0-1.1,0.3-1.7,1v4.9H1583.3z"/>
		<path class="st3" d="M1597.6,1483.2c-0.5,0-0.9-0.1-1.3-0.2s-0.7-0.4-1-0.7c-0.3-0.3-0.5-0.7-0.7-1.1c-0.2-0.4-0.3-0.9-0.3-1.5
			c0-0.6,0.1-1.1,0.3-1.5c0.2-0.4,0.4-0.8,0.7-1.1c0.3-0.3,0.6-0.5,1-0.7c0.4-0.2,0.7-0.2,1.1-0.2c0.4,0,0.8,0.1,1.2,0.2
			s0.6,0.4,0.9,0.6c0.2,0.3,0.4,0.6,0.5,1c0.1,0.4,0.2,0.8,0.2,1.3c0,0.1,0,0.2,0,0.4c0,0.1,0,0.2,0,0.3h-4.6c0,0.7,0.3,1.3,0.7,1.7
			s0.9,0.6,1.6,0.6c0.3,0,0.6,0,0.9-0.1c0.3-0.1,0.5-0.2,0.8-0.4l0.4,0.8c-0.3,0.2-0.6,0.4-1,0.5
			C1598.5,1483.1,1598.1,1483.2,1597.6,1483.2z M1595.5,1479.1h3.6c0-0.7-0.1-1.2-0.4-1.6c-0.3-0.4-0.7-0.5-1.2-0.5
			c-0.2,0-0.5,0-0.7,0.1c-0.2,0.1-0.4,0.2-0.6,0.4c-0.2,0.2-0.3,0.4-0.4,0.7C1595.6,1478.4,1595.5,1478.7,1595.5,1479.1z"/>
		<path class="st3" d="M1601.8,1483v-6.8h1l0.1,1h0c0.3-0.3,0.7-0.6,1-0.8c0.4-0.2,0.8-0.3,1.3-0.3c0.7,0,1.2,0.2,1.6,0.7
			s0.5,1.1,0.5,2v4.3h-1.1v-4.2c0-0.6-0.1-1.1-0.3-1.4c-0.2-0.3-0.5-0.4-1-0.4c-0.4,0-0.7,0.1-0.9,0.3s-0.6,0.4-0.9,0.8v4.9H1601.8z
			"/>
		<path class="st3" d="M1611.6,1483.2c-0.4,0-0.7-0.1-0.9-0.2s-0.4-0.3-0.6-0.5c-0.2-0.2-0.3-0.4-0.3-0.7c-0.1-0.3-0.1-0.6-0.1-0.9
			v-3.8h-1v-0.9l1.1-0.1l0.1-1.9h1v1.9h1.8v0.9h-1.8v3.8c0,0.4,0.1,0.7,0.2,1c0.2,0.2,0.4,0.3,0.8,0.3c0.1,0,0.3,0,0.4-0.1
			c0.1,0,0.3-0.1,0.4-0.1l0.2,0.9c-0.2,0.1-0.4,0.1-0.6,0.2C1612,1483.1,1611.8,1483.2,1611.6,1483.2z"/>
	</g>
	<g class="st2">
		<path class="st3" d="M1543.8,1501.2c-0.4,0-0.9-0.1-1.3-0.2c-0.4-0.2-0.7-0.4-1-0.7c-0.3-0.3-0.5-0.7-0.7-1.1
			c-0.2-0.4-0.2-0.9-0.2-1.5c0-0.6,0.1-1.1,0.3-1.5c0.2-0.4,0.4-0.8,0.7-1.1c0.3-0.3,0.6-0.5,1-0.7c0.4-0.2,0.8-0.2,1.3-0.2
			c0.4,0,0.8,0.1,1.1,0.2c0.3,0.2,0.6,0.3,0.8,0.6l-0.6,0.8c-0.2-0.2-0.4-0.3-0.6-0.4c-0.2-0.1-0.5-0.2-0.7-0.2
			c-0.3,0-0.6,0.1-0.9,0.2s-0.5,0.3-0.7,0.5c-0.2,0.2-0.3,0.5-0.4,0.8c-0.1,0.3-0.2,0.7-0.2,1.1c0,0.4,0.1,0.7,0.2,1.1
			c0.1,0.3,0.2,0.6,0.4,0.8s0.4,0.4,0.7,0.5c0.3,0.1,0.5,0.2,0.9,0.2c0.3,0,0.6-0.1,0.9-0.2c0.3-0.1,0.5-0.3,0.7-0.5l0.5,0.8
			c-0.3,0.3-0.6,0.5-1,0.6C1544.6,1501.1,1544.2,1501.2,1543.8,1501.2z"/>
		<path class="st3" d="M1548.7,1501.2c-0.4,0-0.8-0.1-0.9-0.4c-0.2-0.3-0.3-0.6-0.3-1.1v-8.6h1.1v8.7c0,0.2,0,0.3,0.1,0.4
			c0.1,0.1,0.1,0.1,0.2,0.1c0,0,0.1,0,0.1,0c0,0,0.1,0,0.1,0l0.2,0.9c-0.1,0-0.2,0.1-0.3,0.1S1548.9,1501.2,1548.7,1501.2z"/>
		<path class="st3" d="M1552.7,1501.2c-0.6,0-1-0.2-1.4-0.5s-0.6-0.8-0.6-1.4c0-0.7,0.3-1.3,1-1.7c0.7-0.4,1.7-0.7,3.2-0.8
			c0-0.2,0-0.4-0.1-0.6c0-0.2-0.1-0.4-0.2-0.5c-0.1-0.2-0.2-0.3-0.4-0.4c-0.2-0.1-0.4-0.1-0.7-0.1c-0.4,0-0.8,0.1-1.1,0.2
			s-0.7,0.3-0.9,0.5l-0.4-0.8c0.3-0.2,0.7-0.4,1.2-0.6c0.5-0.2,1-0.3,1.5-0.3c0.8,0,1.4,0.3,1.8,0.8s0.6,1.2,0.6,2v4.2h-1l-0.1-0.8
			h0c-0.3,0.3-0.7,0.5-1.1,0.7C1553.5,1501.1,1553.1,1501.2,1552.7,1501.2z M1553,1500.2c0.3,0,0.6-0.1,0.9-0.2
			c0.3-0.2,0.6-0.4,0.9-0.7v-1.9c-0.6,0.1-1,0.2-1.4,0.3s-0.7,0.2-0.9,0.4c-0.2,0.1-0.4,0.3-0.5,0.5c-0.1,0.2-0.2,0.4-0.2,0.6
			c0,0.4,0.1,0.7,0.4,0.8C1552.4,1500.2,1552.7,1500.2,1553,1500.2z"/>
		<path class="st3" d="M1559.9,1501.2c-0.5,0-0.9-0.1-1.4-0.3c-0.4-0.2-0.8-0.4-1.1-0.7l0.6-0.8c0.3,0.2,0.6,0.4,0.9,0.6
			s0.7,0.2,1.1,0.2c0.4,0,0.8-0.1,1-0.3c0.2-0.2,0.3-0.5,0.3-0.8c0-0.2,0-0.3-0.1-0.5s-0.2-0.2-0.4-0.3c-0.1-0.1-0.3-0.2-0.5-0.3
			c-0.2-0.1-0.4-0.1-0.6-0.2c-0.2-0.1-0.5-0.2-0.7-0.3c-0.2-0.1-0.5-0.2-0.7-0.4c-0.2-0.2-0.3-0.3-0.5-0.5s-0.2-0.5-0.2-0.7
			c0-0.3,0.1-0.5,0.2-0.8c0.1-0.2,0.3-0.4,0.5-0.6c0.2-0.2,0.4-0.3,0.7-0.4c0.3-0.1,0.6-0.1,1-0.1c0.4,0,0.8,0.1,1.2,0.2
			s0.7,0.3,0.9,0.5l-0.5,0.7c-0.2-0.2-0.5-0.3-0.7-0.4c-0.3-0.1-0.5-0.2-0.8-0.2c-0.4,0-0.7,0.1-0.9,0.3c-0.2,0.2-0.3,0.4-0.3,0.7
			c0,0.2,0,0.3,0.1,0.4c0.1,0.1,0.2,0.2,0.3,0.3s0.3,0.2,0.5,0.2c0.2,0.1,0.4,0.1,0.6,0.2c0.2,0.1,0.5,0.2,0.7,0.3s0.5,0.2,0.7,0.4
			c0.2,0.2,0.4,0.3,0.5,0.6c0.1,0.2,0.2,0.5,0.2,0.8c0,0.3-0.1,0.5-0.2,0.8c-0.1,0.2-0.3,0.5-0.5,0.6s-0.5,0.3-0.8,0.4
			S1560.3,1501.2,1559.9,1501.2z"/>
		<path class="st3" d="M1565.8,1501.2c-0.5,0-0.9-0.1-1.4-0.3c-0.4-0.2-0.8-0.4-1.1-0.7l0.6-0.8c0.3,0.2,0.6,0.4,0.9,0.6
			s0.7,0.2,1.1,0.2c0.4,0,0.8-0.1,1-0.3c0.2-0.2,0.3-0.5,0.3-0.8c0-0.2,0-0.3-0.1-0.5s-0.2-0.2-0.4-0.3c-0.1-0.1-0.3-0.2-0.5-0.3
			c-0.2-0.1-0.4-0.1-0.6-0.2c-0.2-0.1-0.5-0.2-0.7-0.3c-0.2-0.1-0.5-0.2-0.7-0.4c-0.2-0.2-0.3-0.3-0.5-0.5s-0.2-0.5-0.2-0.7
			c0-0.3,0.1-0.5,0.2-0.8c0.1-0.2,0.3-0.4,0.5-0.6c0.2-0.2,0.4-0.3,0.7-0.4c0.3-0.1,0.6-0.1,1-0.1c0.4,0,0.8,0.1,1.2,0.2
			s0.7,0.3,0.9,0.5l-0.5,0.7c-0.2-0.2-0.5-0.3-0.7-0.4c-0.3-0.1-0.5-0.2-0.8-0.2c-0.4,0-0.7,0.1-0.9,0.3c-0.2,0.2-0.3,0.4-0.3,0.7
			c0,0.2,0,0.3,0.1,0.4c0.1,0.1,0.2,0.2,0.3,0.3s0.3,0.2,0.5,0.2c0.2,0.1,0.4,0.1,0.6,0.2c0.2,0.1,0.5,0.2,0.7,0.3s0.5,0.2,0.7,0.4
			c0.2,0.2,0.4,0.3,0.5,0.6c0.1,0.2,0.2,0.5,0.2,0.8c0,0.3-0.1,0.5-0.2,0.8c-0.1,0.2-0.3,0.5-0.5,0.6s-0.5,0.3-0.8,0.4
			S1566.2,1501.2,1565.8,1501.2z"/>
		<path class="st3" d="M1570.5,1492.8c-0.2,0-0.4-0.1-0.6-0.2s-0.2-0.3-0.2-0.5c0-0.2,0.1-0.4,0.2-0.5c0.2-0.1,0.3-0.2,0.6-0.2
			c0.2,0,0.4,0.1,0.6,0.2c0.2,0.1,0.2,0.3,0.2,0.5c0,0.2-0.1,0.4-0.2,0.5C1570.9,1492.7,1570.7,1492.8,1570.5,1492.8z M1569.9,1501
			v-6.8h1.1v6.8H1569.9z"/>
		<path class="st3" d="M1573.5,1501v-5.9h-0.9v-0.9l0.9-0.1v-1.1c0-0.7,0.2-1.3,0.5-1.7s0.8-0.6,1.5-0.6c0.2,0,0.4,0,0.6,0.1
			c0.2,0,0.4,0.1,0.5,0.2l-0.3,0.9c-0.3-0.1-0.5-0.2-0.8-0.2c-0.6,0-1,0.4-1,1.3v1.1h1.4v0.9h-1.4v5.9H1573.5z"/>
		<path class="st3" d="M1578,1492.8c-0.2,0-0.4-0.1-0.6-0.2s-0.2-0.3-0.2-0.5c0-0.2,0.1-0.4,0.2-0.5c0.2-0.1,0.3-0.2,0.6-0.2
			c0.2,0,0.4,0.1,0.6,0.2c0.2,0.1,0.2,0.3,0.2,0.5c0,0.2-0.1,0.4-0.2,0.5C1578.4,1492.7,1578.2,1492.8,1578,1492.8z M1577.4,1501
			v-6.8h1.1v6.8H1577.4z"/>
		<path class="st3" d="M1583.6,1501.2c-0.4,0-0.9-0.1-1.3-0.2c-0.4-0.2-0.7-0.4-1-0.7c-0.3-0.3-0.5-0.7-0.7-1.1s-0.2-0.9-0.2-1.5
			c0-0.6,0.1-1.1,0.3-1.5c0.2-0.4,0.4-0.8,0.7-1.1c0.3-0.3,0.6-0.5,1-0.7c0.4-0.2,0.8-0.2,1.3-0.2c0.4,0,0.8,0.1,1.1,0.2
			c0.3,0.2,0.6,0.3,0.8,0.6l-0.6,0.8c-0.2-0.2-0.4-0.3-0.6-0.4c-0.2-0.1-0.5-0.2-0.7-0.2c-0.3,0-0.6,0.1-0.9,0.2
			c-0.3,0.1-0.5,0.3-0.7,0.5c-0.2,0.2-0.3,0.5-0.4,0.8s-0.2,0.7-0.2,1.1c0,0.4,0.1,0.7,0.2,1.1c0.1,0.3,0.2,0.6,0.4,0.8
			s0.4,0.4,0.7,0.5c0.3,0.1,0.5,0.2,0.9,0.2c0.3,0,0.6-0.1,0.9-0.2c0.3-0.1,0.5-0.3,0.7-0.5l0.5,0.8c-0.3,0.3-0.6,0.5-1,0.6
			C1584.4,1501.1,1584,1501.2,1583.6,1501.2z"/>
		<path class="st3" d="M1588.7,1501.2c-0.6,0-1-0.2-1.4-0.5s-0.6-0.8-0.6-1.4c0-0.7,0.3-1.3,1-1.7c0.7-0.4,1.7-0.7,3.2-0.8
			c0-0.2,0-0.4-0.1-0.6c0-0.2-0.1-0.4-0.2-0.5c-0.1-0.2-0.2-0.3-0.4-0.4c-0.2-0.1-0.4-0.1-0.7-0.1c-0.4,0-0.8,0.1-1.1,0.2
			c-0.3,0.1-0.7,0.3-0.9,0.5l-0.4-0.8c0.3-0.2,0.7-0.4,1.2-0.6c0.5-0.2,1-0.3,1.5-0.3c0.8,0,1.4,0.3,1.8,0.8s0.6,1.2,0.6,2v4.2h-1
			l-0.1-0.8h0c-0.3,0.3-0.7,0.5-1,0.7S1589.1,1501.2,1588.7,1501.2z M1589,1500.2c0.3,0,0.6-0.1,0.9-0.2c0.3-0.2,0.6-0.4,0.9-0.7
			v-1.9c-0.6,0.1-1,0.2-1.4,0.3s-0.7,0.2-0.9,0.4c-0.2,0.1-0.4,0.3-0.5,0.5c-0.1,0.2-0.2,0.4-0.2,0.6c0,0.4,0.1,0.7,0.4,0.8
			S1588.7,1500.2,1589,1500.2z"/>
		<path class="st3" d="M1596.1,1501.2c-0.4,0-0.7-0.1-0.9-0.2s-0.4-0.3-0.6-0.5c-0.2-0.2-0.3-0.4-0.3-0.7c-0.1-0.3-0.1-0.6-0.1-0.9
			v-3.8h-1v-0.9l1.1-0.1l0.1-1.9h1v1.9h1.8v0.9h-1.8v3.8c0,0.4,0.1,0.7,0.2,1c0.2,0.2,0.4,0.3,0.8,0.3c0.1,0,0.3,0,0.4-0.1
			c0.1,0,0.3-0.1,0.4-0.1l0.2,0.9c-0.2,0.1-0.4,0.1-0.6,0.2C1596.5,1501.1,1596.3,1501.2,1596.1,1501.2z"/>
		<path class="st3" d="M1599.3,1492.8c-0.2,0-0.4-0.1-0.6-0.2s-0.2-0.3-0.2-0.5c0-0.2,0.1-0.4,0.2-0.5c0.2-0.1,0.3-0.2,0.6-0.2
			c0.2,0,0.4,0.1,0.6,0.2c0.2,0.1,0.2,0.3,0.2,0.5c0,0.2-0.1,0.4-0.2,0.5C1599.7,1492.7,1599.5,1492.8,1599.3,1492.8z M1598.7,1501
			v-6.8h1.1v6.8H1598.7z"/>
		<path class="st3" d="M1604.8,1501.2c-0.4,0-0.8-0.1-1.2-0.2c-0.4-0.2-0.7-0.4-1-0.7c-0.3-0.3-0.5-0.7-0.7-1.1
			c-0.2-0.4-0.3-0.9-0.3-1.5c0-0.6,0.1-1.1,0.3-1.5c0.2-0.4,0.4-0.8,0.7-1.1c0.3-0.3,0.6-0.5,1-0.7c0.4-0.2,0.8-0.2,1.2-0.2
			s0.8,0.1,1.2,0.2c0.4,0.2,0.7,0.4,1,0.7c0.3,0.3,0.5,0.7,0.7,1.1s0.3,1,0.3,1.5c0,0.6-0.1,1.1-0.3,1.5s-0.4,0.8-0.7,1.1
			c-0.3,0.3-0.6,0.5-1,0.7C1605.6,1501.1,1605.2,1501.2,1604.8,1501.2z M1604.8,1500.2c0.3,0,0.6-0.1,0.8-0.2
			c0.2-0.1,0.5-0.3,0.6-0.5s0.3-0.5,0.4-0.8c0.1-0.3,0.1-0.7,0.1-1.1c0-0.4,0-0.7-0.1-1.1c-0.1-0.3-0.2-0.6-0.4-0.8
			s-0.4-0.4-0.6-0.5c-0.2-0.1-0.5-0.2-0.8-0.2s-0.6,0.1-0.8,0.2c-0.2,0.1-0.5,0.3-0.6,0.5s-0.3,0.5-0.4,0.8
			c-0.1,0.3-0.1,0.7-0.1,1.1c0,0.4,0,0.7,0.1,1.1c0.1,0.3,0.2,0.6,0.4,0.8s0.4,0.4,0.6,0.5
			C1604.2,1500.2,1604.5,1500.2,1604.8,1500.2z"/>
		<path class="st3" d="M1609.7,1501v-6.8h1l0.1,1h0c0.3-0.3,0.7-0.6,1-0.8c0.4-0.2,0.8-0.3,1.3-0.3c0.7,0,1.2,0.2,1.6,0.7
			s0.5,1.1,0.5,2v4.3h-1.1v-4.2c0-0.6-0.1-1.1-0.3-1.4c-0.2-0.3-0.5-0.4-1-0.4c-0.4,0-0.7,0.1-0.9,0.3s-0.6,0.4-0.9,0.8v4.9H1609.7z
			"/>
	</g>
	<g class="st2">
		<path class="st3" d="M1541.2,1519v-9.2h2.9c0.5,0,0.9,0,1.3,0.1c0.4,0.1,0.7,0.2,1,0.4s0.5,0.4,0.7,0.7c0.2,0.3,0.2,0.6,0.2,1.1
			c0,0.4-0.1,0.8-0.3,1.2c-0.2,0.4-0.5,0.6-0.9,0.8v0.1c0.5,0.1,0.9,0.3,1.3,0.7c0.3,0.4,0.5,0.8,0.5,1.5c0,0.5-0.1,0.9-0.3,1.2
			c-0.2,0.3-0.4,0.6-0.7,0.8c-0.3,0.2-0.7,0.4-1.1,0.5c-0.4,0.1-0.9,0.2-1.4,0.2H1541.2z M1542.8,1513.6h1.2c0.6,0,1.1-0.1,1.4-0.3
			s0.4-0.5,0.4-0.9c0-0.4-0.1-0.8-0.4-1c-0.3-0.2-0.7-0.3-1.3-0.3h-1.2V1513.6z M1542.8,1517.7h1.4c0.7,0,1.2-0.1,1.6-0.4
			c0.4-0.2,0.5-0.6,0.5-1.1c0-0.5-0.2-0.8-0.5-1.1c-0.4-0.2-0.9-0.3-1.6-0.3h-1.4V1517.7z"/>
		<path class="st3" d="M1548.3,1519l3-9.2h1.9l3,9.2h-1.7l-0.7-2.5h-3.1l-0.7,2.5H1548.3z M1551.4,1514.1l-0.3,1.1h2.3l-0.3-1.1
			c-0.1-0.5-0.3-1-0.4-1.5c-0.1-0.5-0.3-1-0.4-1.5h-0.1c-0.1,0.5-0.3,1-0.4,1.5C1551.7,1513.1,1551.5,1513.6,1551.4,1514.1z"/>
		<path class="st3" d="M1560,1519.2c-0.6,0-1.2-0.1-1.8-0.3c-0.6-0.2-1.1-0.6-1.5-1l1-1.1c0.3,0.3,0.7,0.6,1.1,0.7
			c0.4,0.2,0.8,0.3,1.3,0.3c0.5,0,0.9-0.1,1.2-0.3c0.3-0.2,0.4-0.5,0.4-0.9c0-0.2,0-0.3-0.1-0.5c-0.1-0.1-0.2-0.2-0.3-0.3
			c-0.1-0.1-0.3-0.2-0.4-0.3c-0.2-0.1-0.4-0.2-0.6-0.3l-1.3-0.5c-0.2-0.1-0.4-0.2-0.7-0.4c-0.2-0.1-0.4-0.3-0.6-0.5
			c-0.2-0.2-0.3-0.4-0.4-0.7c-0.1-0.3-0.2-0.6-0.2-0.9c0-0.4,0.1-0.7,0.2-1s0.4-0.6,0.6-0.8s0.6-0.4,1-0.5s0.8-0.2,1.2-0.2
			c0.5,0,1,0.1,1.5,0.3c0.5,0.2,0.9,0.5,1.3,0.8l-0.8,1c-0.3-0.2-0.6-0.4-0.9-0.6c-0.3-0.1-0.7-0.2-1.1-0.2c-0.4,0-0.8,0.1-1,0.3
			c-0.3,0.2-0.4,0.5-0.4,0.8c0,0.2,0,0.3,0.1,0.5c0.1,0.1,0.2,0.2,0.3,0.3c0.1,0.1,0.3,0.2,0.5,0.3c0.2,0.1,0.4,0.2,0.5,0.2l1.2,0.5
			c0.3,0.1,0.5,0.2,0.7,0.4c0.2,0.1,0.4,0.3,0.6,0.5c0.2,0.2,0.3,0.4,0.4,0.7c0.1,0.3,0.1,0.6,0.1,0.9c0,0.4-0.1,0.7-0.2,1
			c-0.1,0.3-0.4,0.6-0.7,0.9c-0.3,0.2-0.6,0.4-1,0.6S1560.5,1519.2,1560,1519.2z"/>
		<path class="st3" d="M1565,1519v-9.2h1.6v9.2H1565z"/>
		<path class="st3" d="M1572.6,1519.2c-0.6,0-1.1-0.1-1.6-0.3s-0.9-0.5-1.3-0.9c-0.4-0.4-0.7-0.9-0.9-1.5s-0.3-1.3-0.3-2
			c0-0.7,0.1-1.4,0.3-2c0.2-0.6,0.5-1.1,0.9-1.5c0.4-0.4,0.8-0.7,1.3-0.9s1.1-0.3,1.6-0.3c0.6,0,1.1,0.1,1.5,0.4s0.8,0.5,1.1,0.8
			l-0.9,1c-0.2-0.2-0.5-0.4-0.8-0.6c-0.3-0.1-0.6-0.2-1-0.2c-0.4,0-0.7,0.1-1,0.2c-0.3,0.2-0.6,0.4-0.8,0.7c-0.2,0.3-0.4,0.6-0.5,1
			c-0.1,0.4-0.2,0.9-0.2,1.4c0,1,0.2,1.9,0.7,2.5c0.5,0.6,1.1,0.9,1.8,0.9c0.4,0,0.8-0.1,1.1-0.3s0.6-0.4,0.9-0.7l0.9,1
			c-0.4,0.4-0.8,0.8-1.3,1S1573.2,1519.2,1572.6,1519.2z"/>
		<path class="st3" d="M1579.8,1519v-9.2h2.9c0.5,0,1,0,1.4,0.1c0.4,0.1,0.8,0.3,1.1,0.5s0.6,0.5,0.7,0.9c0.2,0.4,0.3,0.8,0.3,1.3
			c0,0.5-0.1,0.9-0.3,1.3c-0.2,0.4-0.4,0.7-0.7,0.9s-0.7,0.4-1.1,0.5c-0.4,0.1-0.9,0.2-1.4,0.2h-1.3v3.4H1579.8z M1581.4,1514.3h1.2
			c1.3,0,2-0.6,2-1.7c0-0.6-0.2-1-0.5-1.2c-0.3-0.2-0.9-0.3-1.5-0.3h-1.1V1514.3z"/>
		<path class="st3" d="M1587.9,1519v-9.2h1.6v7.8h3.8v1.4H1587.9z"/>
		<path class="st3" d="M1597.9,1519.2c-0.5,0-1-0.1-1.4-0.2c-0.4-0.2-0.8-0.4-1.1-0.7c-0.3-0.3-0.5-0.8-0.7-1.3
			c-0.2-0.5-0.2-1.2-0.2-1.9v-5.1h1.6v5.3c0,0.5,0,0.9,0.1,1.3s0.2,0.6,0.4,0.8c0.2,0.2,0.4,0.4,0.6,0.4s0.5,0.1,0.8,0.1
			s0.5,0,0.8-0.1c0.2-0.1,0.4-0.2,0.6-0.4c0.2-0.2,0.3-0.5,0.4-0.8c0.1-0.3,0.1-0.8,0.1-1.3v-5.3h1.6v5.1c0,0.8-0.1,1.4-0.2,1.9
			c-0.2,0.5-0.4,1-0.7,1.3c-0.3,0.3-0.7,0.6-1.1,0.7C1598.9,1519.1,1598.4,1519.2,1597.9,1519.2z"/>
		<path class="st3" d="M1606.2,1519.2c-0.6,0-1.2-0.1-1.8-0.3c-0.6-0.2-1.1-0.6-1.5-1l1-1.1c0.3,0.3,0.7,0.6,1.1,0.7
			c0.4,0.2,0.8,0.3,1.3,0.3c0.5,0,0.9-0.1,1.2-0.3c0.3-0.2,0.4-0.5,0.4-0.9c0-0.2,0-0.3-0.1-0.5c-0.1-0.1-0.2-0.2-0.3-0.3
			c-0.1-0.1-0.3-0.2-0.4-0.3c-0.2-0.1-0.4-0.2-0.6-0.3l-1.3-0.5c-0.2-0.1-0.4-0.2-0.7-0.4c-0.2-0.1-0.4-0.3-0.6-0.5
			c-0.2-0.2-0.3-0.4-0.4-0.7c-0.1-0.3-0.2-0.6-0.2-0.9c0-0.4,0.1-0.7,0.2-1s0.4-0.6,0.6-0.8s0.6-0.4,1-0.5s0.8-0.2,1.2-0.2
			c0.5,0,1,0.1,1.5,0.3c0.5,0.2,0.9,0.5,1.3,0.8l-0.8,1c-0.3-0.2-0.6-0.4-0.9-0.6c-0.3-0.1-0.7-0.2-1.1-0.2c-0.4,0-0.8,0.1-1,0.3
			c-0.3,0.2-0.4,0.5-0.4,0.8c0,0.2,0,0.3,0.1,0.5c0.1,0.1,0.2,0.2,0.3,0.3c0.1,0.1,0.3,0.2,0.5,0.3c0.2,0.1,0.4,0.2,0.5,0.2l1.2,0.5
			c0.3,0.1,0.5,0.2,0.7,0.4c0.2,0.1,0.4,0.3,0.6,0.5c0.2,0.2,0.3,0.4,0.4,0.7c0.1,0.3,0.1,0.6,0.1,0.9c0,0.4-0.1,0.7-0.2,1
			c-0.1,0.3-0.4,0.6-0.7,0.9c-0.3,0.2-0.6,0.4-1,0.6S1606.7,1519.2,1606.2,1519.2z"/>
	</g>
	<g id="Group_8942" transform="translate(1480 1487)">
		<path id="Union_123" class="st3" d="M20,40L20,40C8.9,39.5,0,30.7,0,20S8.9,0.5,20,0v0h14c11.6,0,21,9,21,20s-9.4,20-21,20H20z"/>
		<g id="Group_8728" transform="translate(6 4)">
			<g class="st2">
				<path class="st4" d="M1.6,24V8.3h5c0.8,0,1.6,0.1,2.2,0.2c0.7,0.1,1.3,0.4,1.8,0.6c0.5,0.3,0.9,0.7,1.2,1.2
					c0.3,0.5,0.4,1.1,0.4,1.8c0,0.8-0.2,1.4-0.6,2.1c-0.4,0.6-0.9,1.1-1.6,1.3v0.1c0.9,0.2,1.6,0.6,2.1,1.2c0.6,0.6,0.9,1.5,0.9,2.5
					c0,0.8-0.2,1.5-0.5,2c-0.3,0.6-0.7,1.1-1.3,1.4c-0.5,0.4-1.2,0.7-1.9,0.9C8.7,23.9,7.9,24,7.1,24H1.6z M4.4,14.8h2
					c1.1,0,1.9-0.2,2.4-0.6c0.5-0.4,0.7-0.9,0.7-1.6c0-0.8-0.3-1.3-0.8-1.6c-0.5-0.3-1.3-0.5-2.3-0.5h-2V14.8z M4.4,21.8h2.4
					c1.2,0,2-0.2,2.7-0.6s0.9-1.1,0.9-2c0-0.8-0.3-1.4-0.9-1.8c-0.6-0.4-1.5-0.6-2.7-0.6H4.4V21.8z"/>
				<path class="st4" d="M18.6,24.3c-1,0-1.9-0.3-2.5-0.9c-0.6-0.6-1-1.5-1-2.5c0-0.6,0.1-1.2,0.4-1.7c0.3-0.5,0.7-0.9,1.2-1.3
					s1.3-0.6,2.2-0.9c0.9-0.2,1.9-0.4,3.1-0.6c0-0.3-0.1-0.6-0.1-0.9c-0.1-0.3-0.2-0.5-0.4-0.7s-0.4-0.4-0.7-0.5
					c-0.3-0.1-0.6-0.2-1-0.2c-0.6,0-1.1,0.1-1.7,0.3c-0.6,0.2-1.1,0.5-1.6,0.8l-1-1.8c0.7-0.4,1.4-0.8,2.2-1.1
					c0.8-0.3,1.7-0.5,2.6-0.5c1.5,0,2.6,0.4,3.3,1.3c0.7,0.9,1.1,2.1,1.1,3.8v7h-2.3l-0.2-1.3h-0.1c-0.5,0.4-1.1,0.8-1.7,1.1
					C19.9,24.1,19.3,24.3,18.6,24.3z M19.5,22.1c0.5,0,0.9-0.1,1.3-0.3c0.4-0.2,0.8-0.5,1.3-1v-2.6c-0.8,0.1-1.5,0.2-2,0.4
					c-0.5,0.2-1,0.3-1.3,0.5c-0.3,0.2-0.6,0.4-0.7,0.7s-0.2,0.5-0.2,0.8c0,0.5,0.2,0.9,0.5,1.2C18.6,22,19,22.1,19.5,22.1z"/>
			</g>
			<g id="Group_8741" transform="translate(29)">
				<circle id="Ellipse_2078" class="st4" cx="8" cy="16" r="8"/>
				<g class="st2">
					<path class="st3" d="M6.7,21.7v-4.4H2.5v-2.5h4.2v-4.4h2.6v4.4h4.2v2.5H9.3v4.4H6.7z"/>
				</g>
			</g>
		</g>
	</g>
</g>
</svg>
