<?xml version="1.0" encoding="utf-8"?>
<!-- Generator: Adobe Illustrator 23.0.0, SVG Export Plug-In . SVG Version: 6.00 Build 0)  -->
<svg version="1.1" id="Layer_1" xmlns="http://www.w3.org/2000/svg" xmlns:xlink="http://www.w3.org/1999/xlink" x="0px" y="0px"
	 viewBox="0 0 150 85" style="enable-background:new 0 0 150 85;" xml:space="preserve">
<style type="text/css">
	.st0{fill:none;}
	.st1{fill:#999999;}
	.st2{enable-background:new    ;}
	.st3{fill:#333333;}
	.st4{fill:#FFFFFF;}
</style>
<g id="Group_8962" transform="translate(-1478 -1045)">
	<g id="Group_8953" transform="translate(1499.242 1045)">
		<g id="Path_4119" transform="translate(0)">
			<path class="st0" d="M0,0h128.8v85H0V0z"/>
			<path class="st1" d="M1,1v83h126.8V1H25.1H1 M0,0h25.1h103.7v85H0V0z"/>
		</g>
	</g>
	<g class="st2">
		<path class="st3" d="M1529.9,1064.2c-0.6,0-1.2-0.1-1.7-0.3c-0.5-0.2-0.9-0.5-1.3-0.9c-0.4-0.4-0.6-0.9-0.9-1.5
			c-0.2-0.6-0.3-1.3-0.3-2c0-0.7,0.1-1.4,0.3-2s0.5-1.1,0.9-1.5c0.4-0.4,0.8-0.7,1.3-0.9c0.5-0.2,1.1-0.3,1.7-0.3
			c0.3,0,0.6,0,0.9,0.1s0.5,0.2,0.7,0.3s0.4,0.2,0.6,0.4s0.3,0.3,0.5,0.4l-0.6,0.8c-0.2-0.2-0.5-0.4-0.8-0.6
			c-0.3-0.2-0.7-0.3-1.2-0.3c-0.5,0-0.9,0.1-1.3,0.3c-0.4,0.2-0.7,0.4-1,0.7s-0.5,0.7-0.6,1.2c-0.1,0.5-0.2,1-0.2,1.5
			c0,0.6,0.1,1.1,0.2,1.6c0.1,0.5,0.3,0.9,0.6,1.2c0.3,0.3,0.6,0.6,1,0.8c0.4,0.2,0.8,0.3,1.3,0.3c0.3,0,0.6,0,0.9-0.1
			s0.5-0.2,0.7-0.4v-2.4h-1.9v-1h3v3.9c-0.3,0.3-0.7,0.6-1.2,0.8C1531,1064.1,1530.5,1064.2,1529.9,1064.2z"/>
		<path class="st3" d="M1537.4,1064.2c-0.4,0-0.8-0.1-1.2-0.2c-0.4-0.2-0.7-0.4-1-0.7c-0.3-0.3-0.5-0.7-0.7-1.1s-0.3-0.9-0.3-1.5
			c0-0.6,0.1-1.1,0.3-1.5s0.4-0.8,0.7-1.1c0.3-0.3,0.6-0.5,1-0.7c0.4-0.2,0.8-0.2,1.2-0.2s0.8,0.1,1.2,0.2c0.4,0.2,0.7,0.4,1,0.7
			c0.3,0.3,0.5,0.7,0.7,1.1c0.2,0.4,0.3,1,0.3,1.5c0,0.6-0.1,1.1-0.3,1.5c-0.2,0.4-0.4,0.8-0.7,1.1c-0.3,0.3-0.6,0.5-1,0.7
			C1538.3,1064.1,1537.9,1064.2,1537.4,1064.2z M1537.4,1063.2c0.3,0,0.6-0.1,0.8-0.2s0.5-0.3,0.6-0.5s0.3-0.5,0.4-0.8
			s0.1-0.7,0.1-1.1c0-0.4,0-0.7-0.1-1.1s-0.2-0.6-0.4-0.8s-0.4-0.4-0.6-0.5s-0.5-0.2-0.8-0.2c-0.3,0-0.6,0.1-0.8,0.2
			s-0.5,0.3-0.6,0.5c-0.2,0.2-0.3,0.5-0.4,0.8c-0.1,0.3-0.1,0.7-0.1,1.1c0,0.4,0,0.7,0.1,1.1c0.1,0.3,0.2,0.6,0.4,0.8
			c0.2,0.2,0.4,0.4,0.6,0.5S1537.1,1063.2,1537.4,1063.2z"/>
		<path class="st3" d="M1543.8,1064l-2.5-6.8h1.2l1.3,3.9c0.1,0.3,0.2,0.7,0.3,1s0.2,0.7,0.3,1h0.1c0.1-0.3,0.2-0.7,0.3-1
			s0.2-0.7,0.3-1l1.3-3.9h1.1l-2.4,6.8H1543.8z"/>
		<path class="st3" d="M1551.6,1064.2c-0.5,0-0.9-0.1-1.3-0.2s-0.7-0.4-1-0.7c-0.3-0.3-0.5-0.7-0.7-1.1c-0.2-0.4-0.3-0.9-0.3-1.5
			c0-0.6,0.1-1.1,0.3-1.5c0.2-0.4,0.4-0.8,0.7-1.1c0.3-0.3,0.6-0.5,1-0.7c0.4-0.2,0.7-0.2,1.1-0.2c0.4,0,0.8,0.1,1.2,0.2
			s0.6,0.4,0.9,0.6c0.2,0.3,0.4,0.6,0.5,1c0.1,0.4,0.2,0.8,0.2,1.3c0,0.1,0,0.2,0,0.4c0,0.1,0,0.2,0,0.3h-4.6c0,0.7,0.3,1.3,0.7,1.7
			s0.9,0.6,1.6,0.6c0.3,0,0.6,0,0.9-0.1c0.3-0.1,0.5-0.2,0.8-0.4l0.4,0.8c-0.3,0.2-0.6,0.4-1,0.5
			C1552.4,1064.1,1552,1064.2,1551.6,1064.2z M1549.4,1060.1h3.6c0-0.7-0.1-1.2-0.4-1.6c-0.3-0.4-0.7-0.5-1.2-0.5
			c-0.2,0-0.5,0-0.7,0.1c-0.2,0.1-0.4,0.2-0.6,0.4c-0.2,0.2-0.3,0.4-0.4,0.7C1549.5,1059.4,1549.5,1059.7,1549.4,1060.1z"/>
		<path class="st3" d="M1555.7,1064v-6.8h1l0.1,1.2h0c0.2-0.4,0.5-0.8,0.8-1s0.7-0.4,1.1-0.4c0.3,0,0.5,0,0.7,0.1l-0.2,1
			c-0.1,0-0.2-0.1-0.3-0.1c-0.1,0-0.2,0-0.4,0c-0.3,0-0.6,0.1-0.9,0.3c-0.3,0.2-0.6,0.6-0.8,1.2v4.4H1555.7z"/>
		<path class="st3" d="M1560.6,1064v-6.8h1l0.1,1h0c0.3-0.3,0.7-0.6,1-0.8c0.4-0.2,0.8-0.3,1.3-0.3c0.7,0,1.2,0.2,1.6,0.7
			s0.5,1.1,0.5,2v4.3h-1.1v-4.2c0-0.6-0.1-1.1-0.3-1.4c-0.2-0.3-0.5-0.4-1-0.4c-0.4,0-0.7,0.1-0.9,0.3s-0.6,0.4-0.9,0.8v4.9H1560.6z
			"/>
		<path class="st3" d="M1568.3,1064v-6.8h1l0.1,1h0c0.3-0.3,0.6-0.6,1-0.8c0.4-0.2,0.7-0.3,1.1-0.3c0.5,0,0.9,0.1,1.2,0.3
			s0.5,0.5,0.7,1c0.4-0.4,0.7-0.7,1.1-0.9c0.4-0.2,0.7-0.4,1.2-0.4c0.7,0,1.2,0.2,1.6,0.7s0.5,1.1,0.5,2v4.3h-1.1v-4.2
			c0-0.6-0.1-1.1-0.3-1.4c-0.2-0.3-0.5-0.4-1-0.4c-0.5,0-1.1,0.3-1.7,1v4.9h-1.1v-4.2c0-0.6-0.1-1.1-0.3-1.4c-0.2-0.3-0.5-0.4-1-0.4
			c-0.5,0-1.1,0.3-1.7,1v4.9H1568.3z"/>
		<path class="st3" d="M1582.6,1064.2c-0.5,0-0.9-0.1-1.3-0.2s-0.7-0.4-1-0.7c-0.3-0.3-0.5-0.7-0.7-1.1c-0.2-0.4-0.3-0.9-0.3-1.5
			c0-0.6,0.1-1.1,0.3-1.5c0.2-0.4,0.4-0.8,0.7-1.1c0.3-0.3,0.6-0.5,1-0.7c0.4-0.2,0.7-0.2,1.1-0.2c0.4,0,0.8,0.1,1.2,0.2
			s0.6,0.4,0.9,0.6c0.2,0.3,0.4,0.6,0.5,1c0.1,0.4,0.2,0.8,0.2,1.3c0,0.1,0,0.2,0,0.4c0,0.1,0,0.2,0,0.3h-4.6c0,0.7,0.3,1.3,0.7,1.7
			s0.9,0.6,1.6,0.6c0.3,0,0.6,0,0.9-0.1c0.3-0.1,0.5-0.2,0.8-0.4l0.4,0.8c-0.3,0.2-0.6,0.4-1,0.5
			C1583.5,1064.1,1583.1,1064.2,1582.6,1064.2z M1580.5,1060.1h3.6c0-0.7-0.1-1.2-0.4-1.6c-0.3-0.4-0.7-0.5-1.2-0.5
			c-0.2,0-0.5,0-0.7,0.1c-0.2,0.1-0.4,0.2-0.6,0.4c-0.2,0.2-0.3,0.4-0.4,0.7C1580.6,1059.4,1580.5,1059.7,1580.5,1060.1z"/>
		<path class="st3" d="M1586.8,1064v-6.8h1l0.1,1h0c0.3-0.3,0.7-0.6,1-0.8c0.4-0.2,0.8-0.3,1.3-0.3c0.7,0,1.2,0.2,1.6,0.7
			s0.5,1.1,0.5,2v4.3h-1.1v-4.2c0-0.6-0.1-1.1-0.3-1.4c-0.2-0.3-0.5-0.4-1-0.4c-0.4,0-0.7,0.1-0.9,0.3s-0.6,0.4-0.9,0.8v4.9H1586.8z
			"/>
		<path class="st3" d="M1596.6,1064.2c-0.4,0-0.7-0.1-0.9-0.2s-0.4-0.3-0.6-0.5c-0.2-0.2-0.3-0.4-0.3-0.7c-0.1-0.3-0.1-0.6-0.1-0.9
			v-3.8h-1v-0.9l1.1-0.1l0.1-1.9h1v1.9h1.8v0.9h-1.8v3.8c0,0.4,0.1,0.7,0.2,1c0.2,0.2,0.4,0.3,0.8,0.3c0.1,0,0.3,0,0.4-0.1
			c0.1,0,0.3-0.1,0.4-0.1l0.2,0.9c-0.2,0.1-0.4,0.1-0.6,0.2C1597,1064.1,1596.8,1064.2,1596.6,1064.2z"/>
	</g>
	<g class="st2">
		<path class="st3" d="M1528.8,1082.2c-0.4,0-0.9-0.1-1.3-0.2c-0.4-0.2-0.7-0.4-1-0.7c-0.3-0.3-0.5-0.7-0.7-1.1
			c-0.2-0.4-0.2-0.9-0.2-1.5c0-0.6,0.1-1.1,0.3-1.5c0.2-0.4,0.4-0.8,0.7-1.1c0.3-0.3,0.6-0.5,1-0.7c0.4-0.2,0.8-0.2,1.3-0.2
			c0.4,0,0.8,0.1,1.1,0.2c0.3,0.2,0.6,0.3,0.8,0.6l-0.6,0.8c-0.2-0.2-0.4-0.3-0.6-0.4c-0.2-0.1-0.5-0.2-0.7-0.2
			c-0.3,0-0.6,0.1-0.9,0.2s-0.5,0.3-0.7,0.5c-0.2,0.2-0.3,0.5-0.4,0.8c-0.1,0.3-0.2,0.7-0.2,1.1c0,0.4,0.1,0.7,0.2,1.1
			c0.1,0.3,0.2,0.6,0.4,0.8s0.4,0.4,0.7,0.5c0.3,0.1,0.5,0.2,0.9,0.2c0.3,0,0.6-0.1,0.9-0.2c0.3-0.1,0.5-0.3,0.7-0.5l0.5,0.8
			c-0.3,0.3-0.6,0.5-1,0.6C1529.6,1082.1,1529.2,1082.2,1528.8,1082.2z"/>
		<path class="st3" d="M1533.8,1082.2c-0.4,0-0.8-0.1-0.9-0.4c-0.2-0.3-0.3-0.6-0.3-1.1v-8.6h1.1v8.7c0,0.2,0,0.3,0.1,0.4
			c0.1,0.1,0.1,0.1,0.2,0.1c0,0,0.1,0,0.1,0c0,0,0.1,0,0.1,0l0.2,0.9c-0.1,0-0.2,0.1-0.3,0.1S1533.9,1082.2,1533.8,1082.2z"/>
		<path class="st3" d="M1537.7,1082.2c-0.6,0-1-0.2-1.4-0.5s-0.6-0.8-0.6-1.4c0-0.7,0.3-1.3,1-1.7c0.7-0.4,1.7-0.7,3.2-0.8
			c0-0.2,0-0.4-0.1-0.6c0-0.2-0.1-0.4-0.2-0.5c-0.1-0.2-0.2-0.3-0.4-0.4c-0.2-0.1-0.4-0.1-0.7-0.1c-0.4,0-0.8,0.1-1.1,0.2
			s-0.7,0.3-0.9,0.5l-0.4-0.8c0.3-0.2,0.7-0.4,1.2-0.6c0.5-0.2,1-0.3,1.5-0.3c0.8,0,1.4,0.3,1.8,0.8c0.4,0.5,0.6,1.2,0.6,2v4.2h-1
			l-0.1-0.8h0c-0.3,0.3-0.7,0.5-1.1,0.7C1538.5,1082.1,1538.1,1082.2,1537.7,1082.2z M1538,1081.2c0.3,0,0.6-0.1,0.9-0.2
			c0.3-0.2,0.6-0.4,0.9-0.7v-1.9c-0.6,0.1-1,0.2-1.4,0.3s-0.7,0.2-0.9,0.4c-0.2,0.1-0.4,0.3-0.5,0.5c-0.1,0.2-0.2,0.4-0.2,0.6
			c0,0.4,0.1,0.7,0.4,0.8C1537.4,1081.2,1537.7,1081.2,1538,1081.2z"/>
		<path class="st3" d="M1544.9,1082.2c-0.5,0-0.9-0.1-1.4-0.3c-0.4-0.2-0.8-0.4-1.1-0.7l0.6-0.8c0.3,0.2,0.6,0.4,0.9,0.6
			s0.7,0.2,1.1,0.2c0.4,0,0.8-0.1,1-0.3c0.2-0.2,0.3-0.5,0.3-0.8c0-0.2,0-0.3-0.1-0.5s-0.2-0.2-0.4-0.3c-0.1-0.1-0.3-0.2-0.5-0.3
			c-0.2-0.1-0.4-0.1-0.6-0.2c-0.2-0.1-0.5-0.2-0.7-0.3c-0.2-0.1-0.5-0.2-0.7-0.4c-0.2-0.2-0.3-0.3-0.5-0.5s-0.2-0.5-0.2-0.7
			c0-0.3,0.1-0.5,0.2-0.8c0.1-0.2,0.3-0.4,0.5-0.6c0.2-0.2,0.4-0.3,0.7-0.4c0.3-0.1,0.6-0.1,1-0.1c0.4,0,0.8,0.1,1.2,0.2
			s0.7,0.3,0.9,0.5l-0.5,0.7c-0.2-0.2-0.5-0.3-0.7-0.4c-0.3-0.1-0.5-0.2-0.8-0.2c-0.4,0-0.7,0.1-0.9,0.3c-0.2,0.2-0.3,0.4-0.3,0.7
			c0,0.2,0,0.3,0.1,0.4c0.1,0.1,0.2,0.2,0.3,0.3s0.3,0.2,0.5,0.2c0.2,0.1,0.4,0.1,0.6,0.2c0.2,0.1,0.5,0.2,0.7,0.3s0.5,0.2,0.7,0.4
			c0.2,0.2,0.4,0.3,0.5,0.6c0.1,0.2,0.2,0.5,0.2,0.8c0,0.3-0.1,0.5-0.2,0.8c-0.1,0.2-0.3,0.5-0.5,0.6s-0.5,0.3-0.8,0.4
			S1545.3,1082.2,1544.9,1082.2z"/>
		<path class="st3" d="M1550.8,1082.2c-0.5,0-0.9-0.1-1.4-0.3c-0.4-0.2-0.8-0.4-1.1-0.7l0.6-0.8c0.3,0.2,0.6,0.4,0.9,0.6
			s0.7,0.2,1.1,0.2c0.4,0,0.8-0.1,1-0.3c0.2-0.2,0.3-0.5,0.3-0.8c0-0.2,0-0.3-0.1-0.5s-0.2-0.2-0.4-0.3c-0.1-0.1-0.3-0.2-0.5-0.3
			c-0.2-0.1-0.4-0.1-0.6-0.2c-0.2-0.1-0.5-0.2-0.7-0.3c-0.2-0.1-0.5-0.2-0.7-0.4c-0.2-0.2-0.3-0.3-0.5-0.5s-0.2-0.5-0.2-0.7
			c0-0.3,0.1-0.5,0.2-0.8c0.1-0.2,0.3-0.4,0.5-0.6c0.2-0.2,0.4-0.3,0.7-0.4c0.3-0.1,0.6-0.1,1-0.1c0.4,0,0.8,0.1,1.2,0.2
			s0.7,0.3,0.9,0.5l-0.5,0.7c-0.2-0.2-0.5-0.3-0.7-0.4c-0.3-0.1-0.5-0.2-0.8-0.2c-0.4,0-0.7,0.1-0.9,0.3c-0.2,0.2-0.3,0.4-0.3,0.7
			c0,0.2,0,0.3,0.1,0.4c0.1,0.1,0.2,0.2,0.3,0.3s0.3,0.2,0.5,0.2c0.2,0.1,0.4,0.1,0.6,0.2c0.2,0.1,0.5,0.2,0.7,0.3s0.5,0.2,0.7,0.4
			c0.2,0.2,0.4,0.3,0.5,0.6c0.1,0.2,0.2,0.5,0.2,0.8c0,0.3-0.1,0.5-0.2,0.8c-0.1,0.2-0.3,0.5-0.5,0.6s-0.5,0.3-0.8,0.4
			S1551.2,1082.2,1550.8,1082.2z"/>
		<path class="st3" d="M1555.5,1073.8c-0.2,0-0.4-0.1-0.6-0.2s-0.2-0.3-0.2-0.5c0-0.2,0.1-0.4,0.2-0.5c0.2-0.1,0.3-0.2,0.6-0.2
			c0.2,0,0.4,0.1,0.6,0.2c0.2,0.1,0.2,0.3,0.2,0.5c0,0.2-0.1,0.4-0.2,0.5C1555.9,1073.7,1555.7,1073.8,1555.5,1073.8z M1554.9,1082
			v-6.8h1.1v6.8H1554.9z"/>
		<path class="st3" d="M1558.5,1082v-5.9h-0.9v-0.9l0.9-0.1v-1.1c0-0.7,0.2-1.3,0.5-1.7s0.8-0.6,1.5-0.6c0.2,0,0.4,0,0.6,0.1
			c0.2,0,0.4,0.1,0.5,0.2l-0.3,0.9c-0.3-0.1-0.5-0.2-0.8-0.2c-0.6,0-1,0.4-1,1.3v1.1h1.4v0.9h-1.4v5.9H1558.5z"/>
		<path class="st3" d="M1563,1073.8c-0.2,0-0.4-0.1-0.6-0.2s-0.2-0.3-0.2-0.5c0-0.2,0.1-0.4,0.2-0.5c0.2-0.1,0.3-0.2,0.6-0.2
			c0.2,0,0.4,0.1,0.6,0.2c0.2,0.1,0.2,0.3,0.2,0.5c0,0.2-0.1,0.4-0.2,0.5C1563.4,1073.7,1563.2,1073.8,1563,1073.8z M1562.4,1082
			v-6.8h1.1v6.8H1562.4z"/>
		<path class="st3" d="M1568.6,1082.2c-0.4,0-0.9-0.1-1.3-0.2c-0.4-0.2-0.7-0.4-1-0.7c-0.3-0.3-0.5-0.7-0.7-1.1s-0.2-0.9-0.2-1.5
			c0-0.6,0.1-1.1,0.3-1.5c0.2-0.4,0.4-0.8,0.7-1.1c0.3-0.3,0.6-0.5,1-0.7c0.4-0.2,0.8-0.2,1.3-0.2c0.4,0,0.8,0.1,1.1,0.2
			c0.3,0.2,0.6,0.3,0.8,0.6l-0.6,0.8c-0.2-0.2-0.4-0.3-0.6-0.4c-0.2-0.1-0.5-0.2-0.7-0.2c-0.3,0-0.6,0.1-0.9,0.2
			c-0.3,0.1-0.5,0.3-0.7,0.5c-0.2,0.2-0.3,0.5-0.4,0.8s-0.2,0.7-0.2,1.1c0,0.4,0.1,0.7,0.2,1.1c0.1,0.3,0.2,0.6,0.4,0.8
			s0.4,0.4,0.7,0.5c0.3,0.1,0.5,0.2,0.9,0.2c0.3,0,0.6-0.1,0.9-0.2c0.3-0.1,0.5-0.3,0.7-0.5l0.5,0.8c-0.3,0.3-0.6,0.5-1,0.6
			C1569.4,1082.1,1569,1082.2,1568.6,1082.2z"/>
		<path class="st3" d="M1573.7,1082.2c-0.6,0-1-0.2-1.4-0.5s-0.6-0.8-0.6-1.4c0-0.7,0.3-1.3,1-1.7c0.7-0.4,1.7-0.7,3.2-0.8
			c0-0.2,0-0.4-0.1-0.6c0-0.2-0.1-0.4-0.2-0.5c-0.1-0.2-0.2-0.3-0.4-0.4c-0.2-0.1-0.4-0.1-0.7-0.1c-0.4,0-0.8,0.1-1.1,0.2
			c-0.3,0.1-0.7,0.3-0.9,0.5l-0.4-0.8c0.3-0.2,0.7-0.4,1.2-0.6c0.5-0.2,1-0.3,1.5-0.3c0.8,0,1.4,0.3,1.8,0.8s0.6,1.2,0.6,2v4.2h-1
			l-0.1-0.8h0c-0.3,0.3-0.7,0.5-1,0.7S1574.1,1082.2,1573.7,1082.2z M1574,1081.2c0.3,0,0.6-0.1,0.9-0.2c0.3-0.2,0.6-0.4,0.9-0.7
			v-1.9c-0.6,0.1-1,0.2-1.4,0.3s-0.7,0.2-0.9,0.4c-0.2,0.1-0.4,0.3-0.5,0.5c-0.1,0.2-0.2,0.4-0.2,0.6c0,0.4,0.1,0.7,0.4,0.8
			S1573.7,1081.2,1574,1081.2z"/>
		<path class="st3" d="M1581.1,1082.2c-0.4,0-0.7-0.1-0.9-0.2s-0.4-0.3-0.6-0.5c-0.2-0.2-0.3-0.4-0.3-0.7c-0.1-0.3-0.1-0.6-0.1-0.9
			v-3.8h-1v-0.9l1.1-0.1l0.1-1.9h1v1.9h1.8v0.9h-1.8v3.8c0,0.4,0.1,0.7,0.2,1c0.2,0.2,0.4,0.3,0.8,0.3c0.1,0,0.3,0,0.4-0.1
			c0.1,0,0.3-0.1,0.4-0.1l0.2,0.9c-0.2,0.1-0.4,0.1-0.6,0.2C1581.5,1082.1,1581.3,1082.2,1581.1,1082.2z"/>
		<path class="st3" d="M1584.3,1073.8c-0.2,0-0.4-0.1-0.6-0.2s-0.2-0.3-0.2-0.5c0-0.2,0.1-0.4,0.2-0.5c0.2-0.1,0.3-0.2,0.6-0.2
			c0.2,0,0.4,0.1,0.6,0.2c0.2,0.1,0.2,0.3,0.2,0.5c0,0.2-0.1,0.4-0.2,0.5C1584.7,1073.7,1584.5,1073.8,1584.3,1073.8z M1583.7,1082
			v-6.8h1.1v6.8H1583.7z"/>
		<path class="st3" d="M1589.8,1082.2c-0.4,0-0.8-0.1-1.2-0.2c-0.4-0.2-0.7-0.4-1-0.7c-0.3-0.3-0.5-0.7-0.7-1.1
			c-0.2-0.4-0.3-0.9-0.3-1.5c0-0.6,0.1-1.1,0.3-1.5c0.2-0.4,0.4-0.8,0.7-1.1c0.3-0.3,0.6-0.5,1-0.7c0.4-0.2,0.8-0.2,1.2-0.2
			s0.8,0.1,1.2,0.2c0.4,0.2,0.7,0.4,1,0.7c0.3,0.3,0.5,0.7,0.7,1.1s0.3,1,0.3,1.5c0,0.6-0.1,1.1-0.3,1.5s-0.4,0.8-0.7,1.1
			c-0.3,0.3-0.6,0.5-1,0.7C1590.6,1082.1,1590.2,1082.2,1589.8,1082.2z M1589.8,1081.2c0.3,0,0.6-0.1,0.8-0.2
			c0.2-0.1,0.5-0.3,0.6-0.5s0.3-0.5,0.4-0.8c0.1-0.3,0.1-0.7,0.1-1.1c0-0.4,0-0.7-0.1-1.1c-0.1-0.3-0.2-0.6-0.4-0.8
			s-0.4-0.4-0.6-0.5c-0.2-0.1-0.5-0.2-0.8-0.2s-0.6,0.1-0.8,0.2c-0.2,0.1-0.5,0.3-0.6,0.5s-0.3,0.5-0.4,0.8
			c-0.1,0.3-0.1,0.7-0.1,1.1c0,0.4,0,0.7,0.1,1.1c0.1,0.3,0.2,0.6,0.4,0.8s0.4,0.4,0.6,0.5
			C1589.2,1081.2,1589.5,1081.2,1589.8,1081.2z"/>
		<path class="st3" d="M1594.7,1082v-6.8h1l0.1,1h0c0.3-0.3,0.7-0.6,1-0.8c0.4-0.2,0.8-0.3,1.3-0.3c0.7,0,1.2,0.2,1.6,0.7
			s0.5,1.1,0.5,2v4.3h-1.1v-4.2c0-0.6-0.1-1.1-0.3-1.4c-0.2-0.3-0.5-0.4-1-0.4c-0.4,0-0.7,0.1-0.9,0.3s-0.6,0.4-0.9,0.8v4.9H1594.7z
			"/>
	</g>
	<g class="st2">
		<path class="st3" d="M1526.2,1100v-9.2h2.9c0.5,0,0.9,0,1.3,0.1c0.4,0.1,0.7,0.2,1,0.4s0.5,0.4,0.7,0.7c0.2,0.3,0.2,0.6,0.2,1.1
			c0,0.4-0.1,0.8-0.3,1.2c-0.2,0.4-0.5,0.6-0.9,0.8v0.1c0.5,0.1,0.9,0.3,1.3,0.7c0.3,0.4,0.5,0.8,0.5,1.5c0,0.5-0.1,0.9-0.3,1.2
			c-0.2,0.3-0.4,0.6-0.7,0.8c-0.3,0.2-0.7,0.4-1.1,0.5c-0.4,0.1-0.9,0.2-1.4,0.2H1526.2z M1527.8,1094.6h1.2c0.6,0,1.1-0.1,1.4-0.3
			s0.4-0.5,0.4-0.9c0-0.4-0.1-0.8-0.4-1c-0.3-0.2-0.7-0.3-1.3-0.3h-1.2V1094.6z M1527.8,1098.7h1.4c0.7,0,1.2-0.1,1.6-0.4
			c0.4-0.2,0.5-0.6,0.5-1.1c0-0.5-0.2-0.8-0.5-1.1c-0.4-0.2-0.9-0.3-1.6-0.3h-1.4V1098.7z"/>
		<path class="st3" d="M1533.3,1100l3-9.2h1.9l3,9.2h-1.7l-0.7-2.5h-3.1l-0.7,2.5H1533.3z M1536.4,1095.1l-0.3,1.1h2.3l-0.3-1.1
			c-0.1-0.5-0.3-1-0.4-1.5c-0.1-0.5-0.3-1-0.4-1.5h-0.1c-0.1,0.5-0.3,1-0.4,1.5C1536.7,1094.1,1536.5,1094.6,1536.4,1095.1z"/>
		<path class="st3" d="M1545,1100.2c-0.6,0-1.2-0.1-1.8-0.3c-0.6-0.2-1.1-0.6-1.5-1l1-1.1c0.3,0.3,0.7,0.6,1.1,0.7
			c0.4,0.2,0.8,0.3,1.3,0.3c0.5,0,0.9-0.1,1.2-0.3c0.3-0.2,0.4-0.5,0.4-0.9c0-0.2,0-0.3-0.1-0.5c-0.1-0.1-0.2-0.2-0.3-0.3
			c-0.1-0.1-0.3-0.2-0.4-0.3c-0.2-0.1-0.4-0.2-0.6-0.3l-1.3-0.5c-0.2-0.1-0.4-0.2-0.7-0.4c-0.2-0.1-0.4-0.3-0.6-0.5
			c-0.2-0.2-0.3-0.4-0.4-0.7c-0.1-0.3-0.2-0.6-0.2-0.9c0-0.4,0.1-0.7,0.2-1s0.4-0.6,0.6-0.8s0.6-0.4,1-0.5s0.8-0.2,1.2-0.2
			c0.5,0,1,0.1,1.5,0.3c0.5,0.2,0.9,0.5,1.3,0.8l-0.8,1c-0.3-0.2-0.6-0.4-0.9-0.6c-0.3-0.1-0.7-0.2-1.1-0.2c-0.4,0-0.8,0.1-1,0.3
			c-0.3,0.2-0.4,0.5-0.4,0.8c0,0.2,0,0.3,0.1,0.5c0.1,0.1,0.2,0.2,0.3,0.3c0.1,0.1,0.3,0.2,0.5,0.3c0.2,0.1,0.4,0.2,0.5,0.2l1.2,0.5
			c0.3,0.1,0.5,0.2,0.7,0.4c0.2,0.1,0.4,0.3,0.6,0.5c0.2,0.2,0.3,0.4,0.4,0.7c0.1,0.3,0.1,0.6,0.1,0.9c0,0.4-0.1,0.7-0.2,1
			c-0.1,0.3-0.4,0.6-0.7,0.9c-0.3,0.2-0.6,0.4-1,0.6S1545.5,1100.2,1545,1100.2z"/>
		<path class="st3" d="M1550,1100v-9.2h1.6v9.2H1550z"/>
		<path class="st3" d="M1557.6,1100.2c-0.6,0-1.1-0.1-1.6-0.3s-0.9-0.5-1.3-0.9c-0.4-0.4-0.7-0.9-0.9-1.5s-0.3-1.3-0.3-2
			c0-0.7,0.1-1.4,0.3-2c0.2-0.6,0.5-1.1,0.9-1.5c0.4-0.4,0.8-0.7,1.3-0.9s1.1-0.3,1.6-0.3c0.6,0,1.1,0.1,1.5,0.4s0.8,0.5,1.1,0.8
			l-0.9,1c-0.2-0.2-0.5-0.4-0.8-0.6c-0.3-0.1-0.6-0.2-1-0.2c-0.4,0-0.7,0.1-1,0.2c-0.3,0.2-0.6,0.4-0.8,0.7c-0.2,0.3-0.4,0.6-0.5,1
			c-0.1,0.4-0.2,0.9-0.2,1.4c0,1,0.2,1.9,0.7,2.5c0.5,0.6,1.1,0.9,1.8,0.9c0.4,0,0.8-0.1,1.1-0.3s0.6-0.4,0.9-0.7l0.9,1
			c-0.4,0.4-0.8,0.8-1.3,1S1558.2,1100.2,1557.6,1100.2z"/>
	</g>
	<g id="Group_8954" transform="translate(1478 1068)">
		<circle id="Ellipse_2035" class="st3" cx="20" cy="20" r="20"/>
		<g class="st2">
			<path class="st4" d="M9,28V12.3h5c0.8,0,1.6,0.1,2.2,0.2c0.7,0.1,1.3,0.4,1.8,0.6c0.5,0.3,0.9,0.7,1.2,1.2
				c0.3,0.5,0.4,1.1,0.4,1.8c0,0.8-0.2,1.4-0.6,2.1c-0.4,0.6-0.9,1.1-1.6,1.3v0.1c0.9,0.2,1.6,0.6,2.1,1.2c0.6,0.6,0.9,1.5,0.9,2.5
				c0,0.8-0.2,1.5-0.5,2c-0.3,0.6-0.7,1.1-1.3,1.4c-0.5,0.4-1.2,0.7-1.9,0.9c-0.7,0.2-1.5,0.3-2.4,0.3H9z M11.8,18.8h2
				c1.1,0,1.9-0.2,2.4-0.6c0.5-0.4,0.7-0.9,0.7-1.6c0-0.8-0.3-1.3-0.8-1.6c-0.5-0.3-1.3-0.5-2.3-0.5h-2V18.8z M11.8,25.8h2.4
				c1.2,0,2-0.2,2.7-0.6s0.9-1.1,0.9-2c0-0.8-0.3-1.4-0.9-1.8c-0.6-0.4-1.5-0.6-2.7-0.6h-2.4V25.8z"/>
			<path class="st4" d="M25.9,28.3c-1,0-1.9-0.3-2.5-0.9c-0.6-0.6-1-1.5-1-2.5c0-0.6,0.1-1.2,0.4-1.7c0.3-0.5,0.7-0.9,1.2-1.3
				s1.3-0.6,2.2-0.9c0.9-0.2,1.9-0.4,3.1-0.6c0-0.3-0.1-0.6-0.1-0.9c-0.1-0.3-0.2-0.5-0.4-0.7s-0.4-0.4-0.7-0.5
				c-0.3-0.1-0.6-0.2-1-0.2c-0.6,0-1.1,0.1-1.7,0.3c-0.6,0.2-1.1,0.5-1.6,0.8l-1-1.8c0.7-0.4,1.4-0.8,2.2-1.1
				c0.8-0.3,1.7-0.5,2.6-0.5c1.5,0,2.6,0.4,3.3,1.3c0.7,0.9,1.1,2.1,1.1,3.8v7h-2.3l-0.2-1.3h-0.1c-0.5,0.4-1.1,0.8-1.7,1.1
				C27.3,28.1,26.6,28.3,25.9,28.3z M26.8,26.1c0.5,0,0.9-0.1,1.3-0.3c0.4-0.2,0.8-0.5,1.3-1v-2.6c-0.8,0.1-1.5,0.2-2,0.4
				c-0.5,0.2-1,0.3-1.3,0.5c-0.3,0.2-0.6,0.4-0.7,0.7s-0.2,0.5-0.2,0.8c0,0.5,0.2,0.9,0.5,1.2C25.9,26,26.3,26.1,26.8,26.1z"/>
		</g>
	</g>
</g>
</svg>
