<svg xmlns="http://www.w3.org/2000/svg" xmlns:xlink="http://www.w3.org/1999/xlink" viewBox="0 0 248.242 51">
  <defs>
    <style>
      .cls-1 {
        fill: none;
      }

      .cls-2 {
        fill: #333;
        font-size: 14px;
      }

      .cls-2, .cls-4 {
        font-family: SourceSansPro-Regular, Source Sans Pro;
      }

      .cls-3, .cls-7 {
        font-family: SourceSansPro-SemiBold, Source Sans Pro;
        font-weight: 600;
      }

      .cls-4 {
        font-weight: 400;
      }

      .cls-5, .cls-9 {
        fill: #b1560f;
      }

      .cls-6 {
        opacity: 0.4;
        fill: url(#linear-gradient);
      }

      .cls-7, .cls-8 {
        fill: #fff;
      }

      .cls-7, .cls-9 {
        font-size: 24px;
      }

      .cls-9 {
        font-family: SourceSansPro-Bold, Source Sans Pro;
        font-weight: 700;
      }

      .cls-10, .cls-11 {
        stroke: none;
      }

      .cls-11 {
        fill: #999;
      }
    </style>
    <linearGradient id="linear-gradient" x1="1" y1="0.5" x2="0.5" y2="1" gradientUnits="objectBoundingBox">
      <stop offset="0" stop-color="#fff" stop-opacity="0"/>
      <stop offset="0.488" stop-color="#fff"/>
      <stop offset="1" stop-color="#fff" stop-opacity="0"/>
    </linearGradient>
  </defs>
  <g id="Group_8972" data-name="Group 8972" transform="translate(-1190 -1193)">
    <g id="Path_4655" data-name="Path 4655" class="cls-1" transform="translate(1218.242 1193)">
      <path class="cls-10" d="M0,0H220V51H0Z"/>
      <path class="cls-11" d="M 1 1 L 1 50 L 219 50 L 219 1 L 42.88786315917969 1 L 1 1 M 0 0 L 42.88786315917969 0 L 220 0 L 220 51 L 0 51 L 0 0 Z"/>
    </g>
    <text id="Government_classification_BRONZE_PLUS_from_April_1" data-name="Government classification
BRONZE PLUS from April 1" class="cls-2" transform="translate(1260 1200)"><tspan x="0" y="14">Government classification</tspan><tspan class="cls-3"><tspan x="0" y="32">BRONZE PLUS</tspan><tspan class="cls-4" y="32" xml:space="preserve"> from April </tspan></tspan></text>
    <g id="Group_8941" data-name="Group 8941" transform="translate(-138)">
      <path id="Union_118" data-name="Union 118" class="cls-5" d="M21.211,40v-.02C9.409,39.509,0,30.743,0,20S9.409.491,21.211.02V0H32.846C45.087.028,55,8.972,55,20S45.087,39.972,32.846,40H21.211Z" transform="translate(1328 1199)"/>
      <path id="Union_119" data-name="Union 119" class="cls-6" d="M51.1,40v-.025C39.347,39.452,30,30.708,30,20S39.347.548,51.1.025V0H63.788V.02C75.591.491,85,9.257,85,20S75.591,39.509,63.788,39.98V40Z" transform="translate(1298 1199)"/>
      <g id="Group_8726" data-name="Group 8726" transform="translate(-4924 1483)">
        <text id="B" class="cls-7" transform="translate(6270 -256)"><tspan x="-7.164" y="0">B</tspan></text>
        <g id="Group_8741" data-name="Group 8741" transform="translate(1)">
          <circle id="Ellipse_2078" data-name="Ellipse 2078" class="cls-8" cx="8" cy="8" r="8" transform="translate(6280 -272)"/>
          <text id="_" data-name="+" class="cls-9" transform="translate(6288 -256)"><tspan x="-6.336" y="0">+</tspan></text>
        </g>
      </g>
    </g>
  </g>
</svg>
