<svg xmlns="http://www.w3.org/2000/svg" xmlns:xlink="http://www.w3.org/1999/xlink" viewBox="0 0 247.242 51">
  <defs>
    <style>
      .cls-1 {
        fill: none;
      }

      .cls-2 {
        fill: #333;
        font-size: 14px;
      }

      .cls-2, .cls-4 {
        font-family: SourceSansPro-Regular, Source Sans Pro;
      }

      .cls-3, .cls-7 {
        font-family: SourceSansPro-SemiBold, Source Sans Pro;
        font-weight: 600;
      }

      .cls-4 {
        font-weight: 400;
      }

      .cls-11, .cls-5, .cls-9 {
        fill: #999;
      }

      .cls-6 {
        opacity: 0.4;
        fill: url(#linear-gradient);
      }

      .cls-7, .cls-8 {
        fill: #fff;
      }

      .cls-7, .cls-9 {
        font-size: 24px;
      }

      .cls-9 {
        font-family: SourceSansPro-Bold, Source Sans Pro;
        font-weight: 700;
      }

      .cls-10, .cls-11 {
        stroke: none;
      }
    </style>
    <linearGradient id="linear-gradient" x1="1" y1="0.5" x2="0.5" y2="1" gradientUnits="objectBoundingBox">
      <stop offset="0" stop-color="#fff" stop-opacity="0"/>
      <stop offset="0.488" stop-color="#fff"/>
      <stop offset="1" stop-color="#fff" stop-opacity="0"/>
    </linearGradient>
  </defs>
  <g id="Group_8971" data-name="Group 8971" transform="translate(-1191 -1122)">
    <g id="Path_4653" data-name="Path 4653" class="cls-1" transform="translate(1218.242 1122)">
      <path class="cls-10" d="M0,0H220V51H0Z"/>
      <path class="cls-11" d="M 1 1 L 1 50 L 219 50 L 219 1 L 42.88786315917969 1 L 1 1 M 0 0 L 42.88786315917969 0 L 220 0 L 220 51 L 0 51 L 0 0 Z"/>
    </g>
    <text id="Government_classification_SILVER_PLUS_from_April_1" data-name="Government classification
SILVER PLUS from April 1" class="cls-2" transform="translate(1260 1129)"><tspan x="0" y="14">Government classification</tspan><tspan class="cls-3"><tspan x="0" y="32">SILVER PLUS</tspan><tspan class="cls-4" y="32" xml:space="preserve"> from April 1</tspan></tspan></text>
    <g id="Group_8940" data-name="Group 8940" transform="translate(-138)">
      <path id="Union_120" data-name="Union 120" class="cls-5" d="M21.211,40v-.02C9.409,39.509,0,30.743,0,20S9.409.491,21.211.02V0H32.846C45.087.028,55,8.972,55,20S45.087,39.972,32.846,40H21.211Z" transform="translate(1329 1128)"/>
      <path id="Union_121" data-name="Union 121" class="cls-6" d="M21.1,40v-.025C9.348,39.452,0,30.708,0,20S9.348.548,21.1.025V0H33.789V.02C45.591.491,55,9.257,55,20S45.591,39.509,33.789,39.98V40Z" transform="translate(1329 1128)"/>
      <g id="Group_8727" data-name="Group 8727" transform="translate(-4923 1412)">
        <text id="S" class="cls-7" transform="translate(6270 -256)"><tspan x="-6.54" y="0">S</tspan></text>
        <g id="Group_8741" data-name="Group 8741" transform="translate(2)">
          <circle id="Ellipse_2078" data-name="Ellipse 2078" class="cls-8" cx="8" cy="8" r="8" transform="translate(6280 -272)"/>
          <text id="_" data-name="+" class="cls-9" transform="translate(6288 -256)"><tspan x="-6.336" y="0">+</tspan></text>
        </g>
      </g>
    </g>
  </g>
</svg>
