<?xml version="1.0" encoding="utf-8"?>
<!-- Generator: Adobe Illustrator 23.0.0, SVG Export Plug-In . SVG Version: 6.00 Build 0)  -->
<svg version="1.1" id="Layer_1" xmlns="http://www.w3.org/2000/svg" xmlns:xlink="http://www.w3.org/1999/xlink" x="0px" y="0px"
	 viewBox="0 0 249.2 51" style="enable-background:new 0 0 249.2 51;" xml:space="preserve">
<style type="text/css">
	.st0{fill:none;}
	.st1{fill:#999999;}
	.st2{enable-background:new    ;}
	.st3{fill:#333333;}
	.st4{opacity:0.4;fill:url(#Ellipse_2060_1_);enable-background:new    ;}
	.st5{fill:#FFFFFF;}
</style>
<g id="Group_8967" transform="translate(-1190 -828)">
	<g id="Group_8714" transform="translate(1209.242 828)">
		<g id="Path_4119" transform="translate(0)">
			<path class="st0" d="M0,0h230v51H0V0z"/>
			<path class="st1" d="M1,1v49h228V1H44.8H1 M0,0h44.8H230v51H0V0z"/>
		</g>
	</g>
	<g class="st2">
		<path class="st3" d="M1249.9,849.2c-0.6,0-1.2-0.1-1.7-0.3c-0.5-0.2-0.9-0.5-1.3-0.9c-0.4-0.4-0.6-0.9-0.9-1.5
			c-0.2-0.6-0.3-1.3-0.3-2c0-0.7,0.1-1.4,0.3-2s0.5-1.1,0.9-1.5c0.4-0.4,0.8-0.7,1.3-0.9c0.5-0.2,1.1-0.3,1.7-0.3
			c0.3,0,0.6,0,0.9,0.1s0.5,0.2,0.7,0.3s0.4,0.2,0.6,0.4s0.3,0.3,0.5,0.4l-0.6,0.8c-0.2-0.2-0.5-0.4-0.8-0.6
			c-0.3-0.2-0.7-0.3-1.2-0.3c-0.5,0-0.9,0.1-1.3,0.3c-0.4,0.2-0.7,0.4-1,0.7s-0.5,0.7-0.6,1.2c-0.1,0.5-0.2,1-0.2,1.5
			c0,0.6,0.1,1.1,0.2,1.6c0.1,0.5,0.3,0.9,0.6,1.2c0.3,0.3,0.6,0.6,1,0.8c0.4,0.2,0.8,0.3,1.3,0.3c0.3,0,0.6,0,0.9-0.1
			s0.5-0.2,0.7-0.4v-2.4h-1.9v-1h3v3.9c-0.3,0.3-0.7,0.6-1.2,0.8C1251,849.1,1250.5,849.2,1249.9,849.2z"/>
		<path class="st3" d="M1257.4,849.2c-0.4,0-0.8-0.1-1.2-0.2c-0.4-0.2-0.7-0.4-1-0.7c-0.3-0.3-0.5-0.7-0.7-1.1s-0.3-0.9-0.3-1.5
			c0-0.6,0.1-1.1,0.3-1.5s0.4-0.8,0.7-1.1c0.3-0.3,0.6-0.5,1-0.7c0.4-0.2,0.8-0.2,1.2-0.2s0.8,0.1,1.2,0.2c0.4,0.2,0.7,0.4,1,0.7
			c0.3,0.3,0.5,0.7,0.7,1.1c0.2,0.4,0.3,1,0.3,1.5c0,0.6-0.1,1.1-0.3,1.5c-0.2,0.4-0.4,0.8-0.7,1.1c-0.3,0.3-0.6,0.5-1,0.7
			C1258.3,849.1,1257.9,849.2,1257.4,849.2z M1257.4,848.2c0.3,0,0.6-0.1,0.8-0.2s0.5-0.3,0.6-0.5s0.3-0.5,0.4-0.8s0.1-0.7,0.1-1.1
			c0-0.4,0-0.7-0.1-1.1s-0.2-0.6-0.4-0.8s-0.4-0.4-0.6-0.5s-0.5-0.2-0.8-0.2c-0.3,0-0.6,0.1-0.8,0.2s-0.5,0.3-0.6,0.5
			c-0.2,0.2-0.3,0.5-0.4,0.8c-0.1,0.3-0.1,0.7-0.1,1.1c0,0.4,0,0.7,0.1,1.1c0.1,0.3,0.2,0.6,0.4,0.8c0.2,0.2,0.4,0.4,0.6,0.5
			S1257.1,848.2,1257.4,848.2z"/>
		<path class="st3" d="M1263.8,849l-2.5-6.8h1.2l1.3,3.9c0.1,0.3,0.2,0.7,0.3,1s0.2,0.7,0.3,1h0.1c0.1-0.3,0.2-0.7,0.3-1
			s0.2-0.7,0.3-1l1.3-3.9h1.1l-2.4,6.8H1263.8z"/>
		<path class="st3" d="M1271.6,849.2c-0.5,0-0.9-0.1-1.3-0.2s-0.7-0.4-1-0.7c-0.3-0.3-0.5-0.7-0.7-1.1c-0.2-0.4-0.3-0.9-0.3-1.5
			c0-0.6,0.1-1.1,0.3-1.5c0.2-0.4,0.4-0.8,0.7-1.1c0.3-0.3,0.6-0.5,1-0.7c0.4-0.2,0.7-0.2,1.1-0.2c0.4,0,0.8,0.1,1.2,0.2
			s0.6,0.4,0.9,0.6c0.2,0.3,0.4,0.6,0.5,1c0.1,0.4,0.2,0.8,0.2,1.3c0,0.1,0,0.2,0,0.4c0,0.1,0,0.2,0,0.3h-4.6c0,0.7,0.3,1.3,0.7,1.7
			s0.9,0.6,1.6,0.6c0.3,0,0.6,0,0.9-0.1c0.3-0.1,0.5-0.2,0.8-0.4l0.4,0.8c-0.3,0.2-0.6,0.4-1,0.5
			C1272.4,849.1,1272,849.2,1271.6,849.2z M1269.4,845.1h3.6c0-0.7-0.1-1.2-0.4-1.6c-0.3-0.4-0.7-0.5-1.2-0.5c-0.2,0-0.5,0-0.7,0.1
			c-0.2,0.1-0.4,0.2-0.6,0.4c-0.2,0.2-0.3,0.4-0.4,0.7C1269.5,844.4,1269.5,844.7,1269.4,845.1z"/>
		<path class="st3" d="M1275.7,849v-6.8h1l0.1,1.2h0c0.2-0.4,0.5-0.8,0.8-1s0.7-0.4,1.1-0.4c0.3,0,0.5,0,0.7,0.1l-0.2,1
			c-0.1,0-0.2-0.1-0.3-0.1c-0.1,0-0.2,0-0.4,0c-0.3,0-0.6,0.1-0.9,0.3c-0.3,0.2-0.6,0.6-0.8,1.2v4.4H1275.7z"/>
		<path class="st3" d="M1280.6,849v-6.8h1l0.1,1h0c0.3-0.3,0.7-0.6,1-0.8c0.4-0.2,0.8-0.3,1.3-0.3c0.7,0,1.2,0.2,1.6,0.7
			s0.5,1.1,0.5,2v4.3h-1.1v-4.2c0-0.6-0.1-1.1-0.3-1.4c-0.2-0.3-0.5-0.4-1-0.4c-0.4,0-0.7,0.1-0.9,0.3s-0.6,0.4-0.9,0.8v4.9H1280.6z
			"/>
		<path class="st3" d="M1288.3,849v-6.8h1l0.1,1h0c0.3-0.3,0.6-0.6,1-0.8c0.4-0.2,0.7-0.3,1.1-0.3c0.5,0,0.9,0.1,1.2,0.3
			s0.5,0.5,0.7,1c0.4-0.4,0.7-0.7,1.1-0.9c0.4-0.2,0.7-0.4,1.2-0.4c0.7,0,1.2,0.2,1.6,0.7s0.5,1.1,0.5,2v4.3h-1.1v-4.2
			c0-0.6-0.1-1.1-0.3-1.4c-0.2-0.3-0.5-0.4-1-0.4c-0.5,0-1.1,0.3-1.7,1v4.9h-1.1v-4.2c0-0.6-0.1-1.1-0.3-1.4c-0.2-0.3-0.5-0.4-1-0.4
			c-0.5,0-1.1,0.3-1.7,1v4.9H1288.3z"/>
		<path class="st3" d="M1302.6,849.2c-0.5,0-0.9-0.1-1.3-0.2s-0.7-0.4-1-0.7c-0.3-0.3-0.5-0.7-0.7-1.1c-0.2-0.4-0.3-0.9-0.3-1.5
			c0-0.6,0.1-1.1,0.3-1.5c0.2-0.4,0.4-0.8,0.7-1.1c0.3-0.3,0.6-0.5,1-0.7c0.4-0.2,0.7-0.2,1.1-0.2c0.4,0,0.8,0.1,1.2,0.2
			s0.6,0.4,0.9,0.6c0.2,0.3,0.4,0.6,0.5,1c0.1,0.4,0.2,0.8,0.2,1.3c0,0.1,0,0.2,0,0.4c0,0.1,0,0.2,0,0.3h-4.6c0,0.7,0.3,1.3,0.7,1.7
			s0.9,0.6,1.6,0.6c0.3,0,0.6,0,0.9-0.1c0.3-0.1,0.5-0.2,0.8-0.4l0.4,0.8c-0.3,0.2-0.6,0.4-1,0.5
			C1303.5,849.1,1303.1,849.2,1302.6,849.2z M1300.5,845.1h3.6c0-0.7-0.1-1.2-0.4-1.6c-0.3-0.4-0.7-0.5-1.2-0.5
			c-0.2,0-0.5,0-0.7,0.1c-0.2,0.1-0.4,0.2-0.6,0.4c-0.2,0.2-0.3,0.4-0.4,0.7C1300.6,844.4,1300.5,844.7,1300.5,845.1z"/>
		<path class="st3" d="M1306.8,849v-6.8h1l0.1,1h0c0.3-0.3,0.7-0.6,1-0.8c0.4-0.2,0.8-0.3,1.3-0.3c0.7,0,1.2,0.2,1.6,0.7
			s0.5,1.1,0.5,2v4.3h-1.1v-4.2c0-0.6-0.1-1.1-0.3-1.4c-0.2-0.3-0.5-0.4-1-0.4c-0.4,0-0.7,0.1-0.9,0.3s-0.6,0.4-0.9,0.8v4.9H1306.8z
			"/>
		<path class="st3" d="M1316.6,849.2c-0.4,0-0.7-0.1-0.9-0.2s-0.4-0.3-0.6-0.5c-0.2-0.2-0.3-0.4-0.3-0.7c-0.1-0.3-0.1-0.6-0.1-0.9
			v-3.8h-1v-0.9l1.1-0.1l0.1-1.9h1v1.9h1.8v0.9h-1.8v3.8c0,0.4,0.1,0.7,0.2,1c0.2,0.2,0.4,0.3,0.8,0.3c0.1,0,0.3,0,0.4-0.1
			c0.1,0,0.3-0.1,0.4-0.1l0.2,0.9c-0.2,0.1-0.4,0.1-0.6,0.2C1317,849.1,1316.8,849.2,1316.6,849.2z"/>
		<path class="st3" d="M1324.7,849.2c-0.4,0-0.9-0.1-1.3-0.2c-0.4-0.2-0.7-0.4-1-0.7c-0.3-0.3-0.5-0.7-0.7-1.1s-0.2-0.9-0.2-1.5
			c0-0.6,0.1-1.1,0.3-1.5c0.2-0.4,0.4-0.8,0.7-1.1c0.3-0.3,0.6-0.5,1-0.7c0.4-0.2,0.8-0.2,1.3-0.2c0.4,0,0.8,0.1,1.1,0.2
			c0.3,0.2,0.6,0.3,0.8,0.6l-0.6,0.8c-0.2-0.2-0.4-0.3-0.6-0.4c-0.2-0.1-0.5-0.2-0.7-0.2c-0.3,0-0.6,0.1-0.9,0.2
			c-0.3,0.1-0.5,0.3-0.7,0.5c-0.2,0.2-0.3,0.5-0.4,0.8s-0.2,0.7-0.2,1.1c0,0.4,0.1,0.7,0.2,1.1c0.1,0.3,0.2,0.6,0.4,0.8
			s0.4,0.4,0.7,0.5c0.3,0.1,0.5,0.2,0.9,0.2c0.3,0,0.6-0.1,0.9-0.2c0.3-0.1,0.5-0.3,0.7-0.5l0.5,0.8c-0.3,0.3-0.6,0.5-1,0.6
			C1325.5,849.1,1325.1,849.2,1324.7,849.2z"/>
		<path class="st3" d="M1329.6,849.2c-0.4,0-0.8-0.1-0.9-0.4c-0.2-0.3-0.3-0.6-0.3-1.1V839h1.1v8.7c0,0.2,0,0.3,0.1,0.4
			c0.1,0.1,0.1,0.1,0.2,0.1c0,0,0.1,0,0.1,0c0,0,0.1,0,0.1,0l0.2,0.9c-0.1,0-0.2,0.1-0.3,0.1S1329.8,849.2,1329.6,849.2z"/>
		<path class="st3" d="M1333.5,849.2c-0.6,0-1-0.2-1.4-0.5s-0.6-0.8-0.6-1.4c0-0.7,0.3-1.3,1-1.7c0.7-0.4,1.7-0.7,3.2-0.8
			c0-0.2,0-0.4-0.1-0.6c0-0.2-0.1-0.4-0.2-0.5c-0.1-0.2-0.2-0.3-0.4-0.4c-0.2-0.1-0.4-0.1-0.7-0.1c-0.4,0-0.8,0.1-1.1,0.2
			c-0.3,0.1-0.7,0.3-0.9,0.5l-0.4-0.8c0.3-0.2,0.7-0.4,1.2-0.6c0.5-0.2,1-0.3,1.5-0.3c0.8,0,1.4,0.3,1.8,0.8s0.6,1.2,0.6,2v4.2h-1
			l-0.1-0.8h0c-0.3,0.3-0.7,0.5-1,0.7S1334,849.2,1333.5,849.2z M1333.9,848.2c0.3,0,0.6-0.1,0.9-0.2c0.3-0.2,0.6-0.4,0.9-0.7v-1.9
			c-0.6,0.1-1,0.2-1.4,0.3s-0.7,0.2-0.9,0.4c-0.2,0.1-0.4,0.3-0.5,0.5c-0.1,0.2-0.2,0.4-0.2,0.6c0,0.4,0.1,0.7,0.4,0.8
			S1333.5,848.2,1333.9,848.2z"/>
		<path class="st3" d="M1340.8,849.2c-0.5,0-0.9-0.1-1.4-0.3c-0.4-0.2-0.8-0.4-1.1-0.7l0.6-0.8c0.3,0.2,0.6,0.4,0.9,0.6
			s0.7,0.2,1.1,0.2c0.4,0,0.8-0.1,1-0.3c0.2-0.2,0.3-0.5,0.3-0.8c0-0.2,0-0.3-0.1-0.5s-0.2-0.2-0.4-0.3c-0.1-0.1-0.3-0.2-0.5-0.3
			c-0.2-0.1-0.4-0.1-0.6-0.2c-0.2-0.1-0.5-0.2-0.7-0.3c-0.2-0.1-0.5-0.2-0.7-0.4c-0.2-0.2-0.3-0.3-0.5-0.5s-0.2-0.5-0.2-0.7
			c0-0.3,0.1-0.5,0.2-0.8c0.1-0.2,0.3-0.4,0.5-0.6c0.2-0.2,0.4-0.3,0.7-0.4c0.3-0.1,0.6-0.1,1-0.1c0.4,0,0.8,0.1,1.2,0.2
			s0.7,0.3,0.9,0.5l-0.5,0.7c-0.2-0.2-0.5-0.3-0.7-0.4c-0.3-0.1-0.5-0.2-0.8-0.2c-0.4,0-0.7,0.1-0.9,0.3c-0.2,0.2-0.3,0.4-0.3,0.7
			c0,0.2,0,0.3,0.1,0.4c0.1,0.1,0.2,0.2,0.3,0.3s0.3,0.2,0.5,0.2c0.2,0.1,0.4,0.1,0.6,0.2c0.2,0.1,0.5,0.2,0.7,0.3s0.5,0.2,0.7,0.4
			c0.2,0.2,0.4,0.3,0.5,0.6c0.1,0.2,0.2,0.5,0.2,0.8c0,0.3-0.1,0.5-0.2,0.8c-0.1,0.2-0.3,0.5-0.5,0.6s-0.5,0.3-0.8,0.4
			S1341.2,849.2,1340.8,849.2z"/>
		<path class="st3" d="M1346.7,849.2c-0.5,0-0.9-0.1-1.4-0.3c-0.4-0.2-0.8-0.4-1.1-0.7l0.6-0.8c0.3,0.2,0.6,0.4,0.9,0.6
			s0.7,0.2,1.1,0.2c0.4,0,0.8-0.1,1-0.3c0.2-0.2,0.3-0.5,0.3-0.8c0-0.2,0-0.3-0.1-0.5s-0.2-0.2-0.4-0.3c-0.1-0.1-0.3-0.2-0.5-0.3
			c-0.2-0.1-0.4-0.1-0.6-0.2c-0.2-0.1-0.5-0.2-0.7-0.3c-0.2-0.1-0.5-0.2-0.7-0.4c-0.2-0.2-0.3-0.3-0.5-0.5s-0.2-0.5-0.2-0.7
			c0-0.3,0.1-0.5,0.2-0.8c0.1-0.2,0.3-0.4,0.5-0.6c0.2-0.2,0.4-0.3,0.7-0.4c0.3-0.1,0.6-0.1,1-0.1c0.4,0,0.8,0.1,1.2,0.2
			s0.7,0.3,0.9,0.5l-0.5,0.7c-0.2-0.2-0.5-0.3-0.7-0.4c-0.3-0.1-0.5-0.2-0.8-0.2c-0.4,0-0.7,0.1-0.9,0.3c-0.2,0.2-0.3,0.4-0.3,0.7
			c0,0.2,0,0.3,0.1,0.4c0.1,0.1,0.2,0.2,0.3,0.3s0.3,0.2,0.5,0.2c0.2,0.1,0.4,0.1,0.6,0.2c0.2,0.1,0.5,0.2,0.7,0.3s0.5,0.2,0.7,0.4
			c0.2,0.2,0.4,0.3,0.5,0.6c0.1,0.2,0.2,0.5,0.2,0.8c0,0.3-0.1,0.5-0.2,0.8c-0.1,0.2-0.3,0.5-0.5,0.6s-0.5,0.3-0.8,0.4
			S1347.1,849.2,1346.7,849.2z"/>
		<path class="st3" d="M1351.3,840.8c-0.2,0-0.4-0.1-0.6-0.2s-0.2-0.3-0.2-0.5c0-0.2,0.1-0.4,0.2-0.5c0.2-0.1,0.3-0.2,0.6-0.2
			c0.2,0,0.4,0.1,0.6,0.2c0.2,0.1,0.2,0.3,0.2,0.5c0,0.2-0.1,0.4-0.2,0.5C1351.7,840.7,1351.6,840.8,1351.3,840.8z M1350.7,849v-6.8
			h1.1v6.8H1350.7z"/>
		<path class="st3" d="M1354.4,849v-5.9h-0.9v-0.9l0.9-0.1v-1.1c0-0.7,0.2-1.3,0.5-1.7s0.8-0.6,1.5-0.6c0.2,0,0.4,0,0.6,0.1
			c0.2,0,0.4,0.1,0.5,0.2l-0.3,0.9c-0.3-0.1-0.5-0.2-0.8-0.2c-0.6,0-1,0.4-1,1.3v1.1h1.4v0.9h-1.4v5.9H1354.4z"/>
		<path class="st3" d="M1358.9,840.8c-0.2,0-0.4-0.1-0.6-0.2s-0.2-0.3-0.2-0.5c0-0.2,0.1-0.4,0.2-0.5c0.2-0.1,0.3-0.2,0.6-0.2
			c0.2,0,0.4,0.1,0.6,0.2c0.2,0.1,0.2,0.3,0.2,0.5c0,0.2-0.1,0.4-0.2,0.5C1359.3,840.7,1359.1,840.8,1358.9,840.8z M1358.3,849v-6.8
			h1.1v6.8H1358.3z"/>
		<path class="st3" d="M1364.4,849.2c-0.4,0-0.9-0.1-1.3-0.2c-0.4-0.2-0.7-0.4-1-0.7c-0.3-0.3-0.5-0.7-0.7-1.1s-0.2-0.9-0.2-1.5
			c0-0.6,0.1-1.1,0.3-1.5c0.2-0.4,0.4-0.8,0.7-1.1c0.3-0.3,0.6-0.5,1-0.7c0.4-0.2,0.8-0.2,1.3-0.2c0.4,0,0.8,0.1,1.1,0.2
			c0.3,0.2,0.6,0.3,0.8,0.6l-0.6,0.8c-0.2-0.2-0.4-0.3-0.6-0.4c-0.2-0.1-0.5-0.2-0.7-0.2c-0.3,0-0.6,0.1-0.9,0.2
			c-0.3,0.1-0.5,0.3-0.7,0.5c-0.2,0.2-0.3,0.5-0.4,0.8s-0.2,0.7-0.2,1.1c0,0.4,0.1,0.7,0.2,1.1c0.1,0.3,0.2,0.6,0.4,0.8
			s0.4,0.4,0.7,0.5c0.3,0.1,0.5,0.2,0.9,0.2c0.3,0,0.6-0.1,0.9-0.2c0.3-0.1,0.5-0.3,0.7-0.5l0.5,0.8c-0.3,0.3-0.6,0.5-1,0.6
			C1365.2,849.1,1364.8,849.2,1364.4,849.2z"/>
		<path class="st3" d="M1369.5,849.2c-0.6,0-1-0.2-1.4-0.5s-0.6-0.8-0.6-1.4c0-0.7,0.3-1.3,1-1.7c0.7-0.4,1.7-0.7,3.2-0.8
			c0-0.2,0-0.4-0.1-0.6c0-0.2-0.1-0.4-0.2-0.5c-0.1-0.2-0.2-0.3-0.4-0.4c-0.2-0.1-0.4-0.1-0.7-0.1c-0.4,0-0.8,0.1-1.1,0.2
			c-0.3,0.1-0.7,0.3-0.9,0.5l-0.4-0.8c0.3-0.2,0.7-0.4,1.2-0.6c0.5-0.2,1-0.3,1.5-0.3c0.8,0,1.4,0.3,1.8,0.8s0.6,1.2,0.6,2v4.2h-1
			l-0.1-0.8h0c-0.3,0.3-0.7,0.5-1,0.7S1370,849.2,1369.5,849.2z M1369.9,848.2c0.3,0,0.6-0.1,0.9-0.2c0.3-0.2,0.6-0.4,0.9-0.7v-1.9
			c-0.6,0.1-1,0.2-1.4,0.3s-0.7,0.2-0.9,0.4c-0.2,0.1-0.4,0.3-0.5,0.5c-0.1,0.2-0.2,0.4-0.2,0.6c0,0.4,0.1,0.7,0.4,0.8
			S1369.5,848.2,1369.9,848.2z"/>
		<path class="st3" d="M1377,849.2c-0.4,0-0.7-0.1-0.9-0.2s-0.4-0.3-0.6-0.5c-0.2-0.2-0.3-0.4-0.3-0.7c-0.1-0.3-0.1-0.6-0.1-0.9
			v-3.8h-1v-0.9l1.1-0.1l0.1-1.9h1v1.9h1.8v0.9h-1.8v3.8c0,0.4,0.1,0.7,0.2,1c0.2,0.2,0.4,0.3,0.8,0.3c0.1,0,0.3,0,0.4-0.1
			c0.1,0,0.3-0.1,0.4-0.1l0.2,0.9c-0.2,0.1-0.4,0.1-0.6,0.2C1377.4,849.1,1377.2,849.2,1377,849.2z"/>
		<path class="st3" d="M1380.1,840.8c-0.2,0-0.4-0.1-0.6-0.2s-0.2-0.3-0.2-0.5c0-0.2,0.1-0.4,0.2-0.5c0.2-0.1,0.3-0.2,0.6-0.2
			c0.2,0,0.4,0.1,0.6,0.2c0.2,0.1,0.2,0.3,0.2,0.5c0,0.2-0.1,0.4-0.2,0.5C1380.6,840.7,1380.4,840.8,1380.1,840.8z M1379.6,849v-6.8
			h1.1v6.8H1379.6z"/>
		<path class="st3" d="M1385.6,849.2c-0.4,0-0.8-0.1-1.2-0.2c-0.4-0.2-0.7-0.4-1-0.7c-0.3-0.3-0.5-0.7-0.7-1.1
			c-0.2-0.4-0.3-0.9-0.3-1.5c0-0.6,0.1-1.1,0.3-1.5c0.2-0.4,0.4-0.8,0.7-1.1c0.3-0.3,0.6-0.5,1-0.7c0.4-0.2,0.8-0.2,1.2-0.2
			s0.8,0.1,1.2,0.2c0.4,0.2,0.7,0.4,1,0.7c0.3,0.3,0.5,0.7,0.7,1.1s0.3,1,0.3,1.5c0,0.6-0.1,1.1-0.3,1.5s-0.4,0.8-0.7,1.1
			c-0.3,0.3-0.6,0.5-1,0.7C1386.5,849.1,1386.1,849.2,1385.6,849.2z M1385.6,848.2c0.3,0,0.6-0.1,0.8-0.2c0.2-0.1,0.5-0.3,0.6-0.5
			s0.3-0.5,0.4-0.8c0.1-0.3,0.1-0.7,0.1-1.1c0-0.4,0-0.7-0.1-1.1c-0.1-0.3-0.2-0.6-0.4-0.8s-0.4-0.4-0.6-0.5
			c-0.2-0.1-0.5-0.2-0.8-0.2s-0.6,0.1-0.8,0.2c-0.2,0.1-0.5,0.3-0.6,0.5s-0.3,0.5-0.4,0.8c-0.1,0.3-0.1,0.7-0.1,1.1
			c0,0.4,0,0.7,0.1,1.1c0.1,0.3,0.2,0.6,0.4,0.8s0.4,0.4,0.6,0.5C1385.1,848.2,1385.4,848.2,1385.6,848.2z"/>
		<path class="st3" d="M1390.6,849v-6.8h1l0.1,1h0c0.3-0.3,0.7-0.6,1-0.8c0.4-0.2,0.8-0.3,1.3-0.3c0.7,0,1.2,0.2,1.6,0.7
			s0.5,1.1,0.5,2v4.3h-1.1v-4.2c0-0.6-0.1-1.1-0.3-1.4c-0.2-0.3-0.5-0.4-1-0.4c-0.4,0-0.7,0.1-0.9,0.3s-0.6,0.4-0.9,0.8v4.9H1390.6z
			"/>
	</g>
	<g class="st2">
		<path class="st3" d="M1248.8,867.2c-0.6,0-1.2-0.1-1.8-0.3c-0.6-0.2-1.1-0.6-1.5-1l1-1.1c0.3,0.3,0.7,0.6,1.1,0.7s0.8,0.3,1.3,0.3
			c0.5,0,0.9-0.1,1.2-0.3c0.3-0.2,0.4-0.5,0.4-0.9c0-0.2,0-0.3-0.1-0.5c-0.1-0.1-0.2-0.2-0.3-0.3c-0.1-0.1-0.3-0.2-0.4-0.3
			c-0.2-0.1-0.4-0.2-0.6-0.3l-1.3-0.5c-0.2-0.1-0.4-0.2-0.7-0.4c-0.2-0.1-0.4-0.3-0.6-0.5s-0.3-0.4-0.4-0.7
			c-0.1-0.3-0.2-0.6-0.2-0.9c0-0.4,0.1-0.7,0.2-1c0.2-0.3,0.4-0.6,0.6-0.8c0.3-0.2,0.6-0.4,1-0.5c0.4-0.1,0.8-0.2,1.2-0.2
			c0.5,0,1,0.1,1.5,0.3c0.5,0.2,0.9,0.5,1.3,0.8l-0.8,1c-0.3-0.2-0.6-0.4-0.9-0.6c-0.3-0.1-0.7-0.2-1.1-0.2c-0.4,0-0.8,0.1-1.1,0.3
			s-0.4,0.5-0.4,0.8c0,0.2,0,0.3,0.1,0.5c0.1,0.1,0.2,0.2,0.3,0.3s0.3,0.2,0.5,0.3c0.2,0.1,0.4,0.2,0.5,0.2l1.2,0.5
			c0.3,0.1,0.5,0.2,0.7,0.4s0.4,0.3,0.6,0.5c0.2,0.2,0.3,0.4,0.4,0.7c0.1,0.3,0.1,0.6,0.1,0.9c0,0.4-0.1,0.7-0.2,1
			c-0.1,0.3-0.4,0.6-0.7,0.9s-0.6,0.4-1,0.6C1249.8,867.1,1249.3,867.2,1248.8,867.2z"/>
		<path class="st3" d="M1253.8,867v-9.2h1.6v9.2H1253.8z"/>
		<path class="st3" d="M1257.7,867v-9.2h1.6v7.8h3.8v1.4H1257.7z"/>
		<path class="st3" d="M1265.3,867l-2.9-9.2h1.7l1.3,4.6c0.1,0.5,0.3,1,0.4,1.5c0.1,0.5,0.3,1,0.4,1.5h0.1c0.2-0.5,0.3-1,0.4-1.5
			c0.1-0.5,0.2-1,0.4-1.5l1.3-4.6h1.7l-2.8,9.2H1265.3z"/>
		<path class="st3" d="M1271.2,867v-9.2h5.5v1.4h-3.9v2.3h3.3v1.4h-3.3v2.7h4v1.4H1271.2z"/>
		<path class="st3" d="M1278.7,867v-9.2h3.1c0.5,0,0.9,0,1.3,0.1c0.4,0.1,0.8,0.2,1.1,0.5c0.3,0.2,0.5,0.5,0.7,0.8
			c0.2,0.3,0.3,0.8,0.3,1.3c0,0.7-0.2,1.3-0.5,1.7c-0.3,0.4-0.8,0.7-1.3,0.9l2.2,3.8h-1.8l-2-3.6h-1.4v3.6H1278.7z M1280.3,862.1
			h1.3c0.6,0,1.1-0.1,1.4-0.4c0.3-0.3,0.5-0.7,0.5-1.2c0-0.5-0.2-0.9-0.5-1.1c-0.3-0.2-0.8-0.3-1.4-0.3h-1.3V862.1z"/>
	</g>
	<g id="Group_8715" transform="translate(-788 -136)">
		<circle id="Ellipse_2048" class="st1" cx="1998" cy="990" r="20"/>
		
			<linearGradient id="Ellipse_2060_1_" gradientUnits="userSpaceOnUse" x1="2084.5249" y1="1005.5" x2="2085.0249" y2="1006" gradientTransform="matrix(40 0 0 -40 -81393 41220)">
			<stop  offset="0" style="stop-color:#FFFFFF;stop-opacity:0"/>
			<stop  offset="0.488" style="stop-color:#FFFFFF"/>
			<stop  offset="1" style="stop-color:#FFFFFF;stop-opacity:0"/>
		</linearGradient>
		<circle id="Ellipse_2060" class="st4" cx="1998" cy="990" r="20"/>
		<g class="st2">
			<path class="st5" d="M1997.6,998.3c-1,0-2-0.2-2.9-0.6c-0.9-0.4-1.8-0.9-2.5-1.6l1.6-1.8c0.5,0.5,1.1,0.9,1.8,1.2
				s1.4,0.5,2.1,0.5c0.9,0,1.5-0.2,2-0.5c0.4-0.4,0.7-0.8,0.7-1.4c0-0.3-0.1-0.6-0.2-0.8c-0.1-0.2-0.3-0.4-0.5-0.6s-0.5-0.3-0.7-0.4
				c-0.3-0.1-0.6-0.3-0.9-0.4l-2.1-0.9c-0.4-0.2-0.7-0.3-1.1-0.6c-0.4-0.2-0.7-0.5-1-0.8c-0.3-0.3-0.5-0.7-0.7-1.1
				c-0.2-0.4-0.3-0.9-0.3-1.5c0-0.6,0.1-1.2,0.4-1.7c0.3-0.5,0.6-1,1-1.3c0.4-0.4,1-0.7,1.6-0.9s1.3-0.3,2-0.3
				c0.9,0,1.7,0.2,2.5,0.5c0.8,0.3,1.5,0.8,2.1,1.4l-1.4,1.7c-0.5-0.4-1-0.7-1.5-0.9c-0.5-0.2-1.1-0.3-1.7-0.3
				c-0.7,0-1.3,0.2-1.7,0.5s-0.6,0.7-0.6,1.3c0,0.3,0.1,0.5,0.2,0.7c0.1,0.2,0.3,0.4,0.5,0.6c0.2,0.2,0.5,0.3,0.8,0.4
				c0.3,0.1,0.6,0.3,0.9,0.4l2,0.9c0.4,0.2,0.9,0.4,1.2,0.6c0.4,0.2,0.7,0.5,1,0.9c0.3,0.3,0.5,0.7,0.6,1.1c0.2,0.4,0.2,0.9,0.2,1.5
				c0,0.6-0.1,1.2-0.4,1.7c-0.2,0.5-0.6,1-1.1,1.4c-0.5,0.4-1,0.7-1.7,1C1999.2,998.2,1998.4,998.3,1997.6,998.3z"/>
		</g>
	</g>
</g>
</svg>
