<?xml version="1.0" encoding="utf-8"?>
<!-- Generator: Adobe Illustrator 23.0.0, SVG Export Plug-In . SVG Version: 6.00 Build 0)  -->
<svg version="1.1" id="Layer_1" xmlns="http://www.w3.org/2000/svg" xmlns:xlink="http://www.w3.org/1999/xlink" x="0px" y="0px"
	 viewBox="0 0 42 42" style="enable-background:new 0 0 42 42;" xml:space="preserve">
<style type="text/css">
	.st0{fill:#F49E1E;}
	.st1{enable-background:new    ;}
	.st2{fill:#FFFFFF;}
</style>
<g id="Group_8366" transform="translate(-6137 -4704)">
	<circle id="Ellipse_2037" class="st0" cx="6158" cy="4725" r="21"/>
	<g class="st1">
		<path class="st2" d="M6158.5,4733.3c-1.1,0-2-0.2-2.9-0.5c-0.9-0.4-1.7-0.9-2.4-1.6s-1.2-1.5-1.5-2.5c-0.4-1-0.6-2.2-0.6-3.5
			c0-1.3,0.2-2.4,0.6-3.4c0.4-1,0.9-1.9,1.6-2.6c0.7-0.7,1.4-1.2,2.4-1.6s1.9-0.6,2.9-0.6c1.1,0,2.1,0.2,2.8,0.6
			c0.8,0.4,1.4,0.9,1.9,1.4l-1.5,1.8c-0.4-0.4-0.8-0.7-1.3-1c-0.5-0.3-1.1-0.4-1.8-0.4c-0.7,0-1.3,0.1-1.9,0.4s-1.1,0.6-1.5,1.1
			c-0.4,0.5-0.7,1.1-0.9,1.8c-0.2,0.7-0.3,1.5-0.3,2.4c0,1.8,0.4,3.2,1.2,4.2c0.8,1,2,1.5,3.6,1.5c0.4,0,0.9-0.1,1.3-0.2
			c0.4-0.1,0.7-0.3,1-0.5v-3.4h-3v-2.3h5.5v6.9c-0.5,0.5-1.2,1-2.1,1.3S6159.6,4733.3,6158.5,4733.3z"/>
	</g>
</g>
</svg>
