<?xml version="1.0" encoding="utf-8"?>
<!-- Generator: Adobe Illustrator 23.0.0, SVG Export Plug-In . SVG Version: 6.00 Build 0)  -->
<svg version="1.1" id="Layer_1" xmlns="http://www.w3.org/2000/svg" xmlns:xlink="http://www.w3.org/1999/xlink" x="0px" y="0px"
	 viewBox="0 0 42 42" style="enable-background:new 0 0 42 42;" xml:space="preserve">
<style type="text/css">
	.st0{fill:#999999;}
	.st1{enable-background:new    ;}
	.st2{fill:#FFFFFF;}
</style>
<g id="Group_8369" transform="translate(-6189 -4704)">
	<circle id="Ellipse_2038" class="st0" cx="6210" cy="4725" r="21"/>
	<g class="st1">
		<path class="st2" d="M6209.5,4733.3c-1.1,0-2.1-0.2-3.1-0.6c-1-0.4-1.9-1-2.6-1.7l1.6-1.9c0.6,0.5,1.2,1,1.9,1.3
			c0.7,0.3,1.4,0.5,2.2,0.5c0.9,0,1.6-0.2,2-0.6c0.5-0.4,0.7-0.9,0.7-1.5c0-0.3-0.1-0.6-0.2-0.8c-0.1-0.2-0.3-0.4-0.5-0.6
			c-0.2-0.2-0.5-0.3-0.8-0.5c-0.3-0.1-0.6-0.3-1-0.4l-2.2-0.9c-0.4-0.2-0.8-0.4-1.1-0.6c-0.4-0.2-0.7-0.5-1-0.9
			c-0.3-0.3-0.5-0.7-0.7-1.2c-0.2-0.4-0.3-1-0.3-1.5c0-0.6,0.1-1.2,0.4-1.7c0.3-0.5,0.6-1,1.1-1.4c0.5-0.4,1-0.7,1.7-0.9
			c0.6-0.2,1.4-0.3,2.1-0.3c0.9,0,1.8,0.2,2.6,0.5c0.8,0.4,1.6,0.8,2.2,1.5l-1.4,1.8c-0.5-0.4-1-0.7-1.6-1s-1.2-0.4-1.8-0.4
			c-0.8,0-1.4,0.2-1.8,0.5c-0.4,0.3-0.7,0.8-0.7,1.4c0,0.3,0.1,0.6,0.2,0.8c0.1,0.2,0.3,0.4,0.6,0.6s0.5,0.3,0.8,0.5
			c0.3,0.1,0.6,0.3,0.9,0.4l2.1,0.9c0.5,0.2,0.9,0.4,1.3,0.7c0.4,0.3,0.7,0.6,1,0.9c0.3,0.3,0.5,0.7,0.7,1.2
			c0.2,0.4,0.2,0.9,0.2,1.5c0,0.6-0.1,1.2-0.4,1.8c-0.3,0.6-0.6,1.1-1.1,1.5s-1.1,0.8-1.8,1S6210.4,4733.3,6209.5,4733.3z"/>
	</g>
</g>
</svg>
