<?xml version="1.0" standalone="no"?>
<!DOCTYPE svg PUBLIC "-//W3C//DTD SVG 1.1//EN" "http://www.w3.org/Graphics/SVG/1.1/DTD/svg11.dtd" >
<svg xmlns="http://www.w3.org/2000/svg">
<metadata>Generated by IcoMoon</metadata>
<defs>
<font id="CTM" horiz-adv-x="512">
<font-face units-per-em="512" ascent="480" descent="-32" />
<missing-glyph horiz-adv-x="512" />
<glyph unicode="&#x20;" horiz-adv-x="256" d="" />
<glyph unicode="&#xe604;" glyph-name="circlecut" d="M453.486 190.172c-14.628-95.085-98.743-168.228-197.486-168.228-109.714 0-197.486 87.772-197.486 197.486s87.772 197.486 197.486 197.486c47.543 0 87.772-14.629 120.685-43.886 14.628 14.629 29.257 29.257 40.228 40.228-43.885 40.228-98.743 62.172-160.915 62.172-142.629 0-256-113.372-256-256s113.371-256 256-256c142.629 0 256 113.371 256 256 0 7.315 0 18.286-3.657 25.6-18.286-18.285-36.572-36.571-54.857-54.857z" />
<glyph unicode="&#xe605;" glyph-name="arrow-direct-up" d="M256 36.572c-36.572 0-36.572 18.688-36.572 36.572v182.857l-77.495-88.247c-5.412-5.961-13.166-9.435-21.138-9.435s-15.725 3.474-21.102 9.435l-17.847 18.615c-5.412 5.741-8.704 13.933-8.704 22.382s3.291 16.64 8.668 22.601l153.051 161.719c5.412 5.741 13.166 9.216 21.138 9.216s15.725-3.474 21.357-9.216l152.613-161.719c5.596-5.961 8.887-14.153 8.887-22.601s-3.291-16.384-8.923-22.382l-17.372-18.615c-5.632-5.961-13.385-9.435-21.358-9.435s-15.726 3.474-21.358 9.435l-77.276 88.247v-182.857c0-17.884 0-36.572-36.572-36.572v0z" />
<glyph unicode="&#xe606;" glyph-name="arrow-direct-right" d="M73.143 219.429c0-36.572 18.688-36.572 36.572-36.572h182.857l-88.247-77.495c-5.961-5.413-9.435-13.166-9.435-21.139s3.475-15.726 9.435-21.101l18.615-17.847c5.742-5.413 13.934-8.704 22.381-8.704s16.64 3.291 22.601 8.668l161.719 153.051c5.741 5.413 9.216 13.166 9.216 21.139s-3.474 15.726-9.216 21.358l-161.719 152.613c-5.961 5.596-14.153 8.887-22.601 8.887s-16.384-3.291-22.381-8.924l-18.615-17.371c-5.961-5.632-9.435-13.385-9.435-21.358s3.475-15.726 9.435-21.357l88.247-77.276h-182.857c-17.883 0-36.572 0-36.572-36.571v0z" />
<glyph unicode="&#xe607;" glyph-name="arrow-direct-down" d="M256 402.286c36.572 0 36.572-18.688 36.572-36.572v-182.857l77.495 88.247c5.413 5.961 13.166 9.435 21.139 9.435s15.726-3.475 21.101-9.435l17.847-18.615c5.413-5.742 8.704-13.934 8.704-22.382s-3.291-16.64-8.668-22.601l-153.051-161.719c-5.413-5.741-13.166-9.216-21.139-9.216s-15.726 3.474-21.358 9.216l-152.613 161.719c-5.596 5.961-8.887 14.153-8.887 22.601s3.291 16.384 8.924 22.381l17.371 18.615c5.632 5.961 13.385 9.435 21.358 9.435s15.726-3.474 21.357-9.435l77.275-88.247v182.857c0 17.884 0 36.572 36.571 36.572v0z" />
<glyph unicode="&#xe608;" glyph-name="arrow-direct-left" d="M438.857 219.429c0-36.572-18.688-36.572-36.572-36.572h-182.857l88.247-77.495c5.961-5.413 9.435-13.166 9.435-21.139s-3.474-15.726-9.435-21.101l-18.615-17.847c-5.741-5.413-13.933-8.704-22.382-8.704s-16.64 3.291-22.601 8.668l-161.719 153.051c-5.742 5.413-9.216 13.166-9.216 21.139s3.475 15.726 9.216 21.358l161.719 152.613c5.961 5.596 14.153 8.887 22.601 8.887s16.384-3.291 22.382-8.924l18.615-17.371c5.961-5.632 9.435-13.385 9.435-21.358s-3.474-15.726-9.435-21.357l-88.247-77.276h182.857c17.884 0 36.572 0 36.572-36.571v0z" />
<glyph unicode="&#xe609;" glyph-name="arrow-up" d="M73.143 110.482v73.143h73.143v-73.143h-73.143zM219.429 110.482v73.143h73.143v-73.143h-73.143zM365.714 110.482v73.143h73.143v-73.143h-73.143zM292.572 182.857v73.143h73.143v-73.143h-73.143zM219.429 256v73.143h73.143v-73.143h-73.143zM146.286 182.857v73.143h73.143v-73.143h-73.143z" />
<glyph unicode="&#xe60a;" glyph-name="arrow-right" d="M147.054 402.286h73.143v-73.143h-73.143v73.143zM147.054 256h73.143v-73.143h-73.143v73.143zM147.054 109.714h73.143v-73.143h-73.143v73.143zM219.429 182.857h73.143v-73.143h-73.143v73.143zM292.572 256h73.143v-73.143h-73.143v73.143zM219.429 329.143h73.143v-73.143h-73.143v73.143z" />
<glyph unicode="&#xe60b;" glyph-name="arrow-down" d="M438.857 328.375v-73.143h-73.143v73.143h73.143zM292.572 328.375v-73.143h-73.143v73.143h73.143zM146.286 328.375v-73.143h-73.143v73.143h73.143zM219.429 256v-73.143h-73.143v73.143h73.143zM292.572 182.857v-73.143h-73.143v73.143h73.143zM365.714 256v-73.143h-73.143v73.143h73.143z" />
<glyph unicode="&#xe60c;" glyph-name="arrow-left" d="M364.947 402.286h-73.143v-73.143h73.143v73.143zM364.947 256h-73.143v-73.143h73.143v73.143zM364.947 109.714h-73.143v-73.143h73.143v73.143zM292.572 182.857h-73.143v-73.143h73.143v73.143zM219.429 256h-73.143v-73.143h73.143v73.143zM292.572 329.143h-73.143v-73.143h73.143v73.143z" />
<glyph unicode="&#xe60d;" glyph-name="calendar" d="M402.286 475.429h-36.572v-73.143h36.572v73.143zM480 475.429h-41.143v-109.715h-109.714v109.715h-146.286v-109.715h-109.715v109.715h-41.143c-17.701 0-32-14.336-32-32v-448c0-17.7 14.3-32 32-32h448c17.7 0 32 14.3 32 32v448c0 17.664-14.3 32-32 32zM438.857 36.572h-365.714v256h365.714v-256zM146.286 475.429h-37.156l0.585-73.143h36.572v73.143zM292.572 256h-73.143v-73.143h73.143v73.143zM402.286 256h-73.143v-73.143h73.143v73.143zM182.857 146.286h-73.143v-73.143h73.143v73.143zM182.857 256h-73.143v-73.143h73.143v73.143zM292.572 146.286h-73.143v-73.143h73.143v73.143zM402.286 146.286h-73.143v-73.143h73.143v73.143z" />
<glyph unicode="&#xe60e;" glyph-name="cog" d="M438.857 192.512c0-3.584-2.853-7.863-6.656-8.558l-44.032-6.656c-2.633-7.607-5.486-14.775-9.289-21.651 8.082-11.666 16.676-22.125 25.49-32.841 1.426-1.683 2.377-3.803 2.377-5.961s-0.731-3.803-2.158-5.486c-5.705-7.607-37.851-42.606-45.971-42.606-2.158 0-4.279 0.951-6.18 2.158l-32.841 25.709c-6.912-3.584-14.3-6.656-21.651-9.033-1.683-14.519-3.108-29.988-6.912-44.288-0.988-3.877-4.315-6.729-8.631-6.729h-52.809c-4.279 0-8.083 3.108-8.558 7.132l-6.656 43.813c-7.387 2.377-14.519 5.229-21.431 8.813l-33.572-25.49c-1.683-1.426-3.804-2.158-5.961-2.158s-4.279 0.951-5.961 2.633c-12.617 11.411-29.293 26.185-39.278 40.009-1.207 1.683-1.719 3.584-1.719 5.486 0 2.158 0.731 3.803 1.901 5.486 8.119 10.935 16.933 21.431 25.015 32.622-4.023 7.607-7.388 15.469-9.764 23.552l-43.556 6.437c-4.059 0.731-6.912 4.535-6.912 8.558v52.882c0 3.548 2.853 7.863 6.436 8.558l44.288 6.656c2.377 7.607 5.485 14.775 9.289 21.906-8.119 11.447-16.677 22.162-25.49 32.877-1.427 1.645-2.377 3.548-2.377 5.705s0.951 3.804 2.157 5.486c5.705 7.863 37.852 42.606 45.971 42.606 2.157 0 4.279-0.951 6.18-2.377l32.841-25.49c6.912 3.584 14.299 6.656 21.65 9.033 1.683 14.555 3.108 30.025 6.912 44.325 0.951 3.803 4.279 6.656 8.595 6.656h52.845c4.279 0 8.082-3.108 8.558-7.132l6.656-43.813c7.387-2.377 14.519-5.229 21.431-8.813l33.829 25.453c1.426 1.427 3.584 2.158 5.705 2.158 2.158 0 4.279-0.951 5.961-2.377 12.617-11.666 29.293-26.441 39.277-40.484 1.207-1.427 1.683-3.328 1.683-5.23 0-2.157-0.731-3.803-1.901-5.486-8.082-10.935-16.896-21.431-25.015-32.621 4.060-7.607 7.387-15.47 9.764-23.333l43.556-6.656c4.060-0.731 6.912-4.535 6.912-8.558v-52.882zM256 280.393c-33.572 0-60.964-27.392-60.964-60.964s27.392-60.964 60.964-60.964c33.572 0 60.964 27.392 60.964 60.964s-27.392 60.964-60.964 60.964z" />
<glyph unicode="&#xe60f;" glyph-name="cross" d="M341.613 219.429l116.26 116.26c23.406 23.405 23.406 61.367 0 84.772l-0.841 0.841c-23.406 23.406-61.367 23.406-84.772 0l-116.26-116.26-116.26 116.26c-23.406 23.406-61.367 23.406-84.772 0l-0.841-0.841c-23.405-23.406-23.405-61.367 0-84.772l116.26-116.26-116.26-116.26c-23.405-23.406-23.405-61.367 0-84.772l0.841-0.841c23.405-23.406 61.367-23.406 84.773 0l116.26 116.26 116.26-116.26c23.406-23.406 61.367-23.406 84.772 0l0.841 0.841c23.406 23.406 23.406 61.367 0 84.772l-116.26 116.26z" />
<glyph unicode="&#xe610;" glyph-name="envelope" d="M403.968 277.212c-31.817-22.016-63.891-44.032-95.488-66.304-13.312-9.18-35.767-27.94-52.26-27.94h-0.439c-16.53 0-38.985 18.761-52.261 27.94-31.597 22.236-63.635 44.251-95.269 66.304-14.483 9.801-35.109 32.841-35.109 51.383 0 20.005 10.825 37.12 32.659 37.12h300.361c17.774 0 32.695-14.702 32.695-32.622 0-22.857-16.933-43.447-34.889-55.881zM438.857 111.214c0-17.957-14.702-32.659-32.659-32.659h-300.397c-17.957 0-32.659 14.702-32.659 32.659v161.901c6.144-6.729 13.056-12.654 20.626-17.737 33.865-23.040 68.169-46.080 101.412-70.363 17.152-12.617 38.363-28.123 60.599-28.123h0.439c22.272 0 43.483 15.507 60.599 28.123 33.28 24.101 67.584 47.323 101.632 70.363 7.351 5.083 14.263 11.008 20.407 17.737v-161.901z" />
<glyph unicode="&#xe611;" glyph-name="filter" d="M433.92 373.98l-128.036-128.073v-192.732c0-6.765-4.169-12.727-10.13-15.324-2.084-0.768-4.425-1.28-6.51-1.28-4.425 0-8.558 1.572-11.703 4.937l-66.487 66.487c-3.108 3.108-4.937 7.277-4.937 11.703v126.208l-128.036 128.073c-4.937 4.681-6.217 11.959-3.62 18.176 2.597 5.961 8.558 10.13 15.323 10.13h332.435c6.765 0 12.727-4.169 15.324-10.13 2.596-6.217 1.317-13.495-3.62-18.176z" />
<glyph unicode="&#xe612;" glyph-name="info" d="M256.256-36.754c-141.166 0-256 114.834-256 256s114.835 256 256 256c141.166 0 256-114.835 256-256s-114.834-256-256-256zM256.256 416.805c-108.947 0-197.559-88.613-197.559-197.559s88.612-197.559 197.559-197.559c108.947 0 197.559 88.613 197.559 197.559 0 108.909-88.613 197.559-197.559 197.559zM219.429 256h73.143v-182.857h-73.143v182.857zM219.429 365.714h73.143v-73.143h-73.143v73.143z" />
<glyph unicode="&#xe613;" glyph-name="menu" d="M73.143 365.714h365.714v-36.571h-365.714v36.571zM73.143 256h365.714v-36.571h-365.714v36.572zM73.143 146.286h365.714v-36.572h-365.714v36.572z" />
<glyph unicode="&#xe614;" glyph-name="phone" d="M429.421 93.696c0 0-44.435 29.075-64.147 42.094-7.534 5.010-15.214 7.534-22.784 7.534-10.459 0-16.86-4.974-18.395-6.327-0.036-0.036-3.657-4.023-11.885-10.788-7.899-6.546-19.529-5.303-28.709 3.036-11.74 10.752-76.69 89.417-97.024 116.188-4.060 5.412-5.632 10.276-4.864 14.957 1.645 9.619 13.275 17.518 19.566 21.76l2.195 1.5c12.654 8.851 14.007 24.211 9.911 34.743-2.707 6.985-28.964 62.099-32.109 68.206-3.731 7.314-9.911 15.689-24.54 15.689-8.375 0-30.135-3.181-44.105-12.947l-3.109-2.121c-12.691-8.558-36.279-24.503-36.279-57.892 0-42.387 32.256-105.399 98.596-192.622 70.948-93.257 155.392-136.704 190.172-136.704 31.853 0 62.647 38.253 72.594 56.796 9.545 17.884 1.317 31.598-5.084 36.901z" />
<glyph unicode="&#xe615;" glyph-name="print" d="M438.857 134.876c0-3.657-3.291-6.875-7.058-6.875h-49.225v-34.267c0-11.373-9.435-20.589-21.065-20.589h-211.017c-11.63 0-21.101 9.216-21.101 20.589v34.267h-49.225c-3.731 0-7.022 3.219-7.022 6.875v89.125c0 22.491 19.127 41.143 42.203 41.143h14.080v116.589c-0.036 11.337 9.435 20.553 21.065 20.553h147.675c11.666 0 27.685-6.436 36.060-14.555l33.426-32.585c8.339-8.155 14.921-23.772 14.921-35.145v-54.857h14.080c23.077 0 42.204-18.651 42.204-41.143v-89.125zM354.45 237.714v82.286h-35.181c-11.63 0-21.065 9.216-21.065 20.553v34.304h-140.654v-137.143h196.901zM354.45 100.572v54.857h-196.9v-54.857h196.9zM396.654 237.714c-7.68 0-14.080-6.217-14.080-13.714s6.363-13.714 14.080-13.714 14.080 6.217 14.080 13.714-6.4 13.714-14.080 13.714z" />
<glyph unicode="&#xe616;" glyph-name="return" d="M438.857 265.143c0-8.339-6.912-15.25-15.25-15.25h-106.642c-6.18 0-11.666 3.803-14.043 9.545-2.377 5.449-1.207 12.142 3.291 16.421l32.877 32.877c-22.382 20.7-51.895 32.585-83.091 32.585-67.145 0-121.892-54.748-121.892-121.892s54.748-121.892 121.892-121.892c37.851 0 72.851 17.152 96.183 47.397 1.171 1.683 3.328 2.633 5.486 2.853 2.158 0 4.279-0.695 5.925-2.158l32.622-32.841c2.853-2.596 2.853-7.168 0.476-10.24-34.743-41.911-86.163-65.975-140.69-65.975-100.718 0-182.857 82.139-182.857 182.857s82.139 182.857 182.857 182.857c46.885 0 92.38-18.798 125.952-50.469l30.94 30.72c4.315 4.535 10.971 5.741 16.676 3.328 5.486-2.377 9.289-7.863 9.289-14.043v-106.679z" />
<glyph unicode="&#xe617;" glyph-name="selectinput" d="M254.867 438.857l147.419-146.286h-292.572l145.152 146.286zM257.134 0l-147.419 146.286h292.572l-145.152-146.286z" />
<glyph unicode="&#xe618;" glyph-name="tick" d="M492.435 417.463c-0.219 0.256-0.695 0.768-0.951 1.024-25.82 27.502-67.072 26.844-93.55 0.036-53.029-53.76-216.941-209.517-216.941-209.517l-72.302 77.202c-18.432 19.712-48.347 19.748-66.816 0.073l-28.014-29.732c-18.468-19.639-18.505-51.565 0-71.204l120.466-128.109c25.856-27.538 67.731-27.538 93.587 0 0 0 199.571 194.048 264.521 260.572 26.331 26.953 25.856 72.119 0 99.657z" />
<glyph unicode="&#xe619;" glyph-name="tick-hollow" d="M446.171 402.286c3.657 0 10.971 0 21.943-10.971 10.971-14.629 14.628-36.572 0-47.543-62.171-65.828-263.315-259.657-263.315-259.657-7.315-7.315-14.629-10.971-21.943-10.971s-14.629 3.657-21.943 10.971l-120.686 128c-3.657 3.657-3.657 14.628 0 18.286l29.257 29.257c0 3.657 3.657 3.657 7.314 3.657 0 0 3.657 0 7.314-3.657l73.143-76.8 25.6-25.6 21.943 25.6c7.315 7.315 164.572 157.257 219.428 212.114 7.315 3.657 14.628 7.315 21.943 7.315zM446.171 438.857c-18.286 0-32.914-7.315-47.543-21.943-54.857-51.2-219.429-208.457-219.429-208.457l-69.486 76.8c-10.972 10.971-21.943 14.628-32.915 14.628s-25.6-3.657-32.914-14.628l-29.257-29.257c-18.285-18.286-18.285-51.2 0-69.486l120.686-128c10.971-14.628 29.257-21.943 47.543-21.943s32.915 7.315 47.543 21.943c0 0 201.143 193.828 263.315 259.657 25.6 25.6 25.6 73.143 0 98.743 0 0 0 0 0 0-14.628 14.628-32.914 21.943-47.543 21.943v0z" />
<glyph unicode="&#xe61a;" glyph-name="single" d="M340.768 274.277c-10.208 5.056-26.656 9.152-26.656 9.152-0.384 0-117.824 0-117.824 0-4.64 0-14.016-4.448-24.736-9.76-18.432-8.96-28.992-29.888-27.488-57.28 1.888-34.4 32.192-146.752 38.624-158.976 6.464-12.224 40.064-29.568 69.024-29.568 30.88 0 69.824 19.488 76.096 27.968s35.68 131.968 39.584 161.568c4.96 37.696-18.368 52.864-26.624 56.896zM254.656 296.421c32.384 0 61.216 25.76 61.216 57.504 0 31.776-28.832 57.504-61.216 57.504-32.352 0-58.592-25.728-58.592-57.504 0-31.744 26.24-57.504 58.592-57.504z" />
<glyph unicode="&#xe61b;" glyph-name="couple" d="M229.12 63.205c1.184 10.656 11.712 104.832 18.464 131.392 0.64 2.56 1.28 5.44 1.984 8.608 3.776 16.992 10.688 48.128 32.736 69.312-3.616 2.752-7.008 4.544-9.248 5.6-10.016 4.832-13.312 4.448-26.176 5.44-12.416 0.96-100.672 1.824-115.52-0.032-10.944-1.344-13.728-0.928-24.256-5.984-18.080-8.512-28.416-26.72-26.976-52.768 1.408-24.768 22.464-98.304 32.576-132.416 3.616-12.224 11.904-22.656 23.104-29.6 14.624-9.088 29.664-15.808 49.92-15.808 16.32 0 29.792 2.944 42.496 8.224l0.896 8.032zM179.872 302.181c31.744 0 60.032 24.448 60.032 54.624s-28.288 54.624-60.032 54.624c-31.744 0-57.472-24.448-57.472-54.624 0-30.144 25.728-54.624 57.472-54.624zM411.968 189.669c-4.736 24.576-14.72 83.040-69.6 83.936-60.992 0-66.656-58.176-73.248-83.936-6.624-25.952-23.232-111.52-17.984-128.64 5.28-17.12 53.312-33.6 91.232-33.6 39.040 0 86.528 18.464 89.344 33.6s-15.968 108.928-19.744 128.64zM339.872 284.389c30.144 0 57.024 23.232 57.024 51.872 0 28.672-26.88 51.872-57.024 51.872s-54.592-23.232-54.592-51.872c-0.032-28.64 24.416-51.872 54.592-51.872z" />
<glyph unicode="&#xe61c;" glyph-name="group" d="M399.808 289.669c26.24 0 49.632 21.28 49.632 47.52s-23.392 47.52-49.632 47.52c-26.24 0-47.52-21.28-47.52-47.52s21.28-47.52 47.52-47.52zM462.56 202.917c-4.128 22.528-12.832 76.064-60.576 76.864-41.952 0-53.824-33.28-59.776-58.88 1.312-5.824 2.304-11.040 3.040-15.136l0.256-1.472 1.056-5.792c16.064-86.88 18.208-111.264 16.448-121.152-0.96-5.44-3.648-10.368-7.424-14.88 14.368-4.928 31.264-8.096 46.368-8.096 33.984 0 75.296 16.896 77.76 30.752 2.496 13.856-13.856 99.776-17.152 117.792zM203.104 269.989c-8.864 4.48-11.776 4.128-23.168 5.056-11.008 0.896-89.248 1.696-102.4-0.032-9.696-1.248-12.192-0.864-21.504-5.568-16.032-7.936-25.216-24.928-23.904-49.216 1.248-23.104 19.904-91.712 28.864-123.52 3.2-11.392 10.56-21.12 20.48-27.616 12.96-8.48 26.304-14.752 44.256-14.752 14.464 0 26.4 2.752 37.664 7.68l0.8 7.488c1.056 9.952 10.368 97.792 16.384 122.592 0.544 2.368 1.12 5.088 1.728 8 3.328 15.84 9.472 44.896 29.024 64.64-3.2 2.592-6.208 4.256-8.224 5.248zM120.544 292.421c28.128 0 53.216 22.816 53.216 50.944s-25.088 50.944-53.216 50.944c-28.128 0-50.944-22.816-50.944-50.944-0.032-28.128 22.784-50.944 50.944-50.944zM264.576 274.149c-54.048 0-59.104-54.272-64.928-78.304-5.856-24.224-20.576-104.032-15.936-120s47.232-31.328 80.864-31.328c34.624 0 76.704 17.216 79.2 31.328s-14.144 101.632-17.504 120c-4.192 22.944-13.056 77.504-61.696 78.304zM262.336 284.197c26.72 0 50.56 21.664 50.56 48.416s-23.808 48.416-50.56 48.416c-26.72 0-48.416-21.664-48.416-48.416 0.032-26.72 21.696-48.416 48.416-48.416z" />
<glyph unicode="&#xe61d;" glyph-name="family" d="M137.984 310.053c30.976 0 58.56 25.12 58.56 56.064 0 30.976-27.584 56.064-58.56 56.064s-56.064-25.088-56.064-56.064c0-30.976 25.088-56.064 56.064-56.064zM390.112 296.709c29.44 0 55.648 23.84 55.648 53.28s-26.208 53.28-55.648 53.28c-29.408 0-53.28-23.84-53.28-53.28 0-29.408 23.84-53.28 53.28-53.28zM113.888 106.213c5.536 27.616 24.832 74.208 62.144 94.080-15.168 11.424-25.056 29.536-25.056 49.984 0 19.68 9.152 37.216 23.392 48.704-31.2 0.352-86.112-0.256-92.256-0.704-8.16-0.576-13.408-0.96-23.68-6.144-17.632-8.736-27.712-27.456-26.304-54.176 1.312-24.672 20.704-96.448 30.848-132.704 4.096-14.656 13.376-27.36 26.24-35.456 8.576-5.376 17.504-9.536 27.584-12.032-4.864 13.088-6.784 29.12-2.912 48.448zM213.44 206.853c-24.096 0-43.68 19.648-43.68 43.776s19.648 43.776 43.776 43.776c23.424 0 42.656-19.040 43.744-43.36 0.512-11.264-3.584-22.048-11.552-30.4-8.32-8.704-20.032-13.728-32.192-13.76h-0.096zM263.072 162.853c-12.096 14.624-28.192 24.864-49.152 24.864-0.096 0-0.16 0-0.256 0-47.296-0.192-72.096-55.712-78.112-85.824-10.112-50.624 29.568-65.888 29.568-65.888 8.096-2.368 25.024-3.168 43.968-3.168 5.92 0 12.032 0.096 18.144 0.224-8.16 13.792-12.384 31.104-12.384 51.872 0 36.672 18.336 64.736 48.224 77.92zM460.448 200.101c-4.608 25.248-14.368 85.28-67.904 86.176-28.736 0-44.832-13.984-54.592-31.36 16.704-10.944 28.096-29.824 29.088-51.744 0.704-15.776-4.896-30.848-15.712-42.688 29.056-15.392 43.2-45.216 44.096-74.848 0.384-12.256-1.056-32.8-11.52-51.744 2.912-0.192 5.792-0.32 8.608-0.32 38.080 0 84.416 18.944 87.168 34.496s-15.52 111.808-19.232 132.032zM304.448 160.709h0.128c11.584 0.032 22.784 4.832 30.72 13.12 7.52 7.904 11.424 18.112 10.944 28.768-1.088 23.232-19.392 41.44-41.696 41.44-22.976 0-41.664-18.688-41.664-41.664s18.656-41.664 41.568-41.664zM306.144 16.709c-46.464 1.568-69.088 23.744-69.088 67.872 0 38.912 26.336 64.032 67.104 64.032 45.536 0 66.912-32 67.872-63.744 0.352-12.064-1.408-34.752-17.312-51.136-11.008-11.328-26.272-17.088-45.344-17.088 0 0.032-2.144 0.032-3.232 0.064z" />
<glyph unicode="&#xe61e;" glyph-name="single-parent" d="M217.248 305.733c27.744 0 52.448 23.68 52.448 52.864s-24.704 52.832-52.448 52.832c-27.712 0-50.208-23.648-50.208-52.864 0-29.184 22.496-52.832 50.208-52.832zM230.016 100.677c4.896 25.76 21.216 68.064 52.192 89.664-10.016 11.168-16.192 26.208-16.192 42.784 0 23.456 12.352 43.872 30.56 54.56-9.664 4.192-23.040 4.8-23.040 4.8-0.384 0.032-111.84-0.032-111.84-0.032-4.384-0.064-13.312-0.992-23.488-6.4-17.504-9.12-27.488-28.672-26.080-56.576 1.312-25.76 20.512-100.704 30.592-138.56 4.064-15.296 13.248-28.576 26.048-37.024 13.312-8.8 27.2-15.072 45.536-15.072 8.448 0 16.064 0.992 23.264 2.688-7.904 14.592-12.32 34.112-7.552 59.168zM324.864 181.989c51.84 0 72.736-69.408 74.976-105.792 2.272-36.448-19.328-47.040-43.808-48-11.552-0.448-24.064-0.768-35.776-0.768-17.952 0-34.016 0.8-41.696 3.136 0 0-37.632 15.232-28.032 65.76 5.728 30.080 29.216 85.472 74.048 85.664 0.128 0 0.192 0 0.288 0zM325.216 189.093c-23.008 0-41.728 19.744-41.728 44s18.752 44.032 41.824 44.032c22.4 0 40.736-19.136 41.792-43.616 0.512-11.328-3.424-22.176-11.008-30.592-7.936-8.768-19.136-13.824-30.752-13.856h-0.128z" />
<glyph unicode="&#xe61f;" glyph-name="minus" d="M432 171.429h-352c-25.6 0-48 22.4-48 48v0c0 25.6 22.4 48 48 48h352c25.6 0 48-22.4 48-48v0c0-25.6-22.4-48-48-48z" />
<glyph unicode="&#xe620;" glyph-name="plus" d="M432 171.429h-352c-25.6 0-48 22.4-48 48v0c0 25.6 22.4 48 48 48h352c25.6 0 48-22.4 48-48v0c0-25.6-22.4-48-48-48zM208 43.429v352c0 25.6 22.4 48 48 48v0c25.6 0 48-22.4 48-48v-352c0-25.6-22.4-48-48-48v0c-25.6 0-48 22.4-48 48z" />
<glyph unicode="&#xe700;" glyph-name="facebook" d="M297.6 300.8v48c0 16 12.8 22.4 19.2 22.4 9.6 0 51.2 0 51.2 0v73.6h-70.4c-76.8 0-92.8-57.6-92.8-92.8v-51.2h-44.8v-80h44.8c0-102.4 0-224 0-224h92.8c0 0 0 124.8 0 224h64l9.6 80h-73.6z" />
<glyph unicode="&#xe701;" glyph-name="google" d="M262.4 185.6c-12.8 9.6-38.4 32-38.4 44.8 0 16 3.2 22.4 25.6 38.4 25.6 19.2 41.6 44.8 41.6 73.6 0 35.2-16 70.4-44.8 80h44.8l32 22.4h-140.8c-60.8 0-121.6-48-121.6-102.4s41.6-102.4 105.6-102.4c3.2 0 9.6 0 12.8 0-3.2-6.4-6.4-16-6.4-25.6 0-16 9.6-28.8 19.2-38.4-6.4 0-16 0-25.6 0-73.6 0-134.4-48-134.4-99.2s64-80 140.8-80c86.4 0 137.6 51.2 137.6 99.2 0 41.6-12.8 64-48 89.6zM188.8 256c-35.2 0-70.4 38.4-76.8 86.4s19.2 83.2 54.4 83.2c35.2 0 70.4-38.4 76.8-86.4 3.2-48-19.2-83.2-54.4-83.2zM172.8 19.2c-54.4 0-92.8 35.2-92.8 73.6s48 73.6 102.4 73.6c12.8 0 25.6-3.2 35.2-6.4 28.8-19.2 51.2-32 54.4-54.4 0-3.2 3.2-9.6 3.2-12.8 0-41.6-25.6-73.6-102.4-73.6zM409.6 252.8v51.2h-44.8v-51.2h-51.2v-44.8h51.2v-54.4h44.8v54.4h54.4v44.8z" />
<glyph unicode="&#xe702;" glyph-name="linkedin" d="M35.2 304h96v-304h-96v304zM390.4 307.2c-54.4 0-89.6-28.8-96-51.2v48h-105.6c0-25.6 0-304 0-304h105.6v163.2c0 9.6 0 19.2 3.2 25.6 6.4 19.2 22.4 38.4 51.2 38.4 38.4 0 54.4-28.8 54.4-70.4v-156.8h108.8v169.6c0 92.8-54.4 137.6-121.6 137.6zM83.2 448c-35.2 0-57.6-22.4-57.6-54.4 0-28.8 22.4-51.2 57.6-51.2v0c35.2 0 57.6 22.4 57.6 54.4-3.2 28.8-22.4 51.2-57.6 51.2z" />
<glyph unicode="&#xe703;" glyph-name="twitter" d="M515.2 393.6c-19.2-9.6-38.4-16-60.8-19.2 22.4 12.8 38.4 35.2 44.8 64-19.2-12.8-41.6-22.4-67.2-28.8-19.2 22.4-48 35.2-76.8 35.2-57.6 0-105.6-51.2-105.6-112 0-9.6 0-16 3.2-25.6-86.4 3.2-163.2 51.2-214.4 118.4-9.6-16-16-35.2-16-57.6 0-38.4 19.2-73.6 48-92.8-16 0-32 6.4-48 12.8 0 0 0 0 0 0 0-54.4 35.2-99.2 83.2-112-6.4-3.2-16-3.2-25.6-3.2-6.4 0-12.8 0-19.2 3.2 12.8-48 51.2-80 96-80-35.2-32-80-48-131.2-48-9.6 0-16 0-25.6 0 48-32 102.4-51.2 160-51.2 192 0 297.6 172.8 297.6 323.2 0 3.2 0 9.6 0 16 25.6 12.8 41.6 35.2 57.6 57.6z" />
<glyph unicode="&#xe704;" glyph-name="youtube" d="M502.4 342.4c0 3.2 0 3.2 0 6.4 0 0 0 3.2 0 3.2-6.4 19.2-25.6 32-44.8 32h3.2c0 0-86.4 12.8-201.6 12.8-118.4 0-204.8-12.8-204.8-12.8h3.2c-22.4 0-38.4-12.8-48-32 0 0 0-3.2 0-3.2 0-3.2 0-3.2 0-6.4-3.2-22.4-9.6-67.2-9.6-121.6s6.4-99.2 9.6-121.6c0-3.2 0-3.2 0-6.4 0 0 0-3.2 0-3.2 6.4-19.2 25.6-32 48-32h-3.2c0 0 86.4-12.8 201.6-12.8s201.6 12.8 201.6 12.8h-3.2c22.4 0 38.4 12.8 44.8 32 0 0 0 3.2 0 3.2 0 3.2 0 3.2 0 6.4 3.2 22.4 9.6 67.2 9.6 121.6 3.2 54.4-3.2 99.2-6.4 121.6zM332.8 208l-102.4-73.6c-3.2 0-3.2-3.2-6.4-3.2s-3.2 0-6.4 0c-3.2 3.2-6.4 6.4-6.4 9.6v153.6c0 3.2 3.2 9.6 6.4 9.6 3.2 3.2 9.6 3.2 12.8 0l102.4-73.6c3.2-3.2 6.4-6.4 6.4-9.6-3.2-6.4-3.2-9.6-6.4-12.8z" />
<glyph unicode="&#xe70c;" glyph-name="car" d="M396.8 355.2c6.4-6.4 22.4-28.8 28.8-38.4h32c9.6 0 16-6.4 16-16 0-6.4 0-12.8 0-16 0-9.6-3.2-12.8-12.8-16l-12.8-3.2 6.4-12.8c12.8-38.4 16-80 0-131.2v-32c0-16-6.4-22.4-12.8-22.4s-48 0-48 0c-9.6 0-16 6.4-16 25.6v16c-28.8-3.2-211.2-3.2-243.2 0v-16c0-22.4-6.4-28.8-16-28.8 0 0-41.6 0-48 0s-12.8 6.4-12.8 22.4v32c-16 51.2-12.8 92.8 0 131.2l6.4 12.8-12.8 3.2c-9.6 3.2-12.8 9.6-12.8 16 0 3.2 0 9.6 0 16 0 9.6 6.4 16 16 16h32c6.4 16 25.6 38.4 28.8 41.6 19.2 19.2 102.4 28.8 140.8 28.8 35.2 0 121.6-9.6 140.8-28.8zM166.4 192c0 16-12.8 32-32 32s-35.2-16-35.2-32c0-19.2 16-32 35.2-32 16 0 32 12.8 32 32zM384 160c19.2 0 35.2 16 35.2 32s-16 32-35.2 32c-19.2 0-32-16-32-32 0-19.2 12.8-32 32-32zM131.2 342.4c-3.2-3.2-12.8-16-22.4-28.8-12.8-19.2-19.2-38.4-22.4-41.6 19.2 0 44.8 0 73.6 3.2 28.8 0 70.4 3.2 96 3.2s67.2-3.2 92.8-3.2c28.8-3.2 54.4-3.2 73.6-3.2 0 3.2-9.6 22.4-19.2 41.6-9.6 16-19.2 25.6-22.4 28.8-12.8 9.6-86.4 19.2-124.8 19.2s-112-9.6-124.8-19.2z" />
<glyph unicode="&#xe712;" glyph-name="couch" d="M428.512 291.552c-24.128 1.6-62.176-18.56-63.168-56.512l-0.672-32.768c0 0 0.512-15.584-9.248-15.456-8 0.096-8.64 4.928-18.24 12.16s-43.040 23.872-80.8 24.416c-37.76-0.544-71.936-17.216-81.536-24.416-9.6-7.232-10.24-12.064-18.24-12.16-9.792-0.128-9.248 15.456-9.248 15.456l-0.672 32.768c-0.992 37.92-39.040 58.112-63.168 56.512-29.984-2.048-50.688-24.608-51.488-56.192-0.928-35.040 27.008-52.352 45.056-55.072 3.616-0.288 6.528-0.288 9.024-0.32 5.728-0.064 9.312-1.632 12.256-4.448 3.808-3.616 3.776-15.2 3.776-15.2 0-6.336-0.096-63.904 0-66.784 0.224-8.512 3.744-29.536 11.392-29.536h284.96c7.648 0 11.168 21.024 11.392 29.536 0.064 2.88 0 55.424 0 61.76 0 0-0.064 14.112 3.744 17.728 2.944 2.784 6.528 5.632 12.256 5.696 2.496 0.032 5.408 0.672 9.024 0.96 18.048 2.72 45.984 20.352 45.056 55.36-0.8 31.584-21.504 54.464-51.456 56.512zM163.232 248.992c1.088-4.768 1.856-25.952 2.144-32.928 13.28 7.456 35.52 25.312 91.008 26.624 55.488-1.312 75.424-19.136 88.704-26.592 0.288 6.976 0.736 27.36 1.856 32.128 6.24 26.656 28.192 54.656 65.76 59.008l5.44 0.352c0 0-42.688 74.304-160.224 74.304-133.696 0-166.784-74.304-166.784-74.304l5.44-0.352c37.536-4.384 60.416-31.584 66.656-58.24z" />
<glyph unicode="&#xe713;" glyph-name="ctp" d="M348.8 377.6l86.4-153.6c3.2-6.4 0-12.8-6.4-16l-249.6-144c-6.4-3.2-12.8 0-16 6.4 0 0-83.2 150.4-86.4 153.6-3.2 6.4-3.2 12.8 3.2 16l252.8 144c3.2 0 12.8 0 16-6.4zM249.6 172.8l-32 60.8c-6.4 9.6-16 12.8-22.4 6.4l-48-25.6c-9.6-3.2-12.8-16-6.4-22.4l32-60.8c3.2-9.6 16-12.8 22.4-6.4l48 25.6c9.6 6.4 12.8 16 6.4 22.4zM348.8 294.4l-108.8-64 6.4-12.8 108.8 64-6.4 12.8zM364.8 272l-108.8-64 6.4-12.8 108.8 64-6.4 12.8zM377.6 249.6l-108.8-64 6.4-12.8 108.8 64-6.4 12.8z" />
<glyph unicode="&#xe714;" glyph-name="energy" d="M201.6 99.2l-70.4 70.4c-3.2 3.2-3.2 6.4 0 9.6s9.6 3.2 9.6 0l70.4-70.4c3.2-3.2 3.2-9.6 0-9.6-3.2-3.2-6.4-3.2-9.6 0v0zM380.8 348.8c-48 48-121.6 48-172.8 3.2-22.4-22.4-35.2-54.4-35.2-86.4 0-12.8-6.4-25.6-25.6-44.8-6.4-6.4-6.4-12.8 0-16 6.4-6.4 80-83.2 83.2-86.4 6.4-3.2 9.6-6.4 16 0 25.6 22.4 35.2 25.6 44.8 25.6 28.8 0 60.8 9.6 86.4 35.2 51.2 44.8 51.2 121.6 3.2 169.6v0zM316.8 348.8c6.4-3.2 9.6-9.6 6.4-12.8-3.2-6.4-9.6-3.2-16 0-19.2 9.6-41.6 0-54.4-16-3.2-3.2-6.4-6.4-12.8-3.2s-6.4 6.4-3.2 12.8c16 25.6 51.2 35.2 80 19.2zM182.4 80c3.2-6.4 9.6-3.2 9.6 0 3.2 3.2 3.2 9.6 0 9.6l-73.6 70.4c-3.2 3.2-9.6 3.2-9.6 0-3.2-3.2-3.2-9.6 0-9.6l73.6-70.4zM153.6 67.2c3.2-3.2 9.6-3.2 9.6 0 3.2 3.2 3.2 9.6 0 9.6l-57.6 57.6c-3.2 3.2-9.6 3.2-9.6 0-3.2-3.2-3.2-9.6 0-9.6l57.6-57.6zM134.4 67.2l-38.4 38.4c-3.2-9.6 0-22.4 9.6-28.8s22.4-9.6 28.8-9.6v0z" />
<glyph unicode="&#xe715;" glyph-name="fuel" d="M256 262.4h-144c-12.8 0-22.4 9.6-22.4 25.6v32c0 12.8 9.6 25.6 22.4 25.6h144c12.8 0 22.4-9.6 22.4-25.6v-32c0-16-12.8-25.6-22.4-25.6zM393.6 240c0-19.2 3.2-25.6 9.6-38.4l3.2-6.4c6.4-12.8 19.2-41.6 19.2-67.2 0-32-16-38.4-38.4-38.4-25.6 0-38.4 3.2-38.4 32 0 12.8 3.2 28.8 9.6 48 3.2 16 9.6 28.8 12.8 44.8 3.2 19.2 0 28.8-9.6 38.4-12.8 9.6-32 9.6-48 9.6h-6.4v80c-3.2 9.6-16 41.6-44.8 41.6h-156.8c-32 3.2-44.8-32-44.8-38.4v-249.6c0-16 12.8-28.8 28.8-28.8h185.6c16 0 28.8 12.8 28.8 28.8v147.2h3.2c9.6 0 22.4 0 25.6-3.2s6.4-6.4 3.2-22.4c-3.2-16-6.4-28.8-9.6-44.8-6.4-19.2-12.8-35.2-9.6-51.2 3.2-41.6 16-57.6 60.8-57.6 41.6 0 73.6 12.8 73.6 60.8 0 28.8-12.8 64-22.4 76.8l-3.2 6.4c-6.4 9.6-6.4 16-6.4 32v12.8c3.2 16 0 19.2-6.4 38.4-3.2 19.2-9.6 38.4-22.4 54.4s-28.8 22.4-57.6 32l-6.4 3.2-12.8-22.4h6.4c9.6-3.2 16-3.2 22.4-6.4-9.6-9.6-12.8-19.2-6.4-48v-3.2c3.2-9.6 6.4-16 6.4-19.2 3.2-6.4 12.8-9.6 22.4-6.4 3.2 0 16 3.2 22.4 6.4 3.2-16 6.4-16 3.2-25.6l3.2-16zM361.6 310.4c-6.4 19.2-3.2 25.6 0 28.8 3.2-3.2 3.2-3.2 6.4-6.4 6.4-9.6 12.8-22.4 16-35.2-6.4-3.2-12.8-3.2-19.2-6.4 0 3.2-3.2 9.6-3.2 19.2v0z" />
<glyph unicode="&#xe716;" glyph-name="health" d="M262.4 384c25.6 0 48-22.4 48-48v-48c0-3.2 3.2-9.6 9.6-9.6h48c25.6 0 48-22.4 48-48v-12.8c0-25.6-22.4-48-48-48h-48c-3.2 0-9.6-3.2-9.6-9.6v-48c0-25.6-22.4-48-48-48h-12.8c-25.6 0-48 22.4-48 48v48c0 3.2-3.2 9.6-9.6 6.4h-48c-25.6 0-48 22.4-48 51.2v12.8c0 25.6 22.4 48 48 48h48c3.2 0 9.6 3.2 9.6 9.6v48c0 25.6 22.4 48 48 48h12.8zM249.6 352c3.2 0 6.4 0 6.4 6.4s-9.6 6.4-12.8 6.4c-6.4-3.2-19.2-6.4-19.2-32 0-3.2 0-9.6 0-12.8s3.2-6.4 6.4-6.4c6.4 0 6.4 6.4 6.4 6.4s0 3.2 0 9.6c3.2 12.8 6.4 19.2 12.8 22.4z" />
<glyph unicode="&#xe717;" glyph-name="home" d="M240 323.2c16 9.6 16 9.6 28.8 0 16-9.6 105.6-70.4 112-73.6v-166.4c0-12.8-6.4-19.2-22.4-19.2h-67.2v99.2c0 9.6-9.6 19.2-22.4 19.2h-35.2c-16 0-25.6-6.4-25.6-19.2v-99.2h-60.8c-12.8 0-19.2 9.6-19.2 19.2v166.4l112 73.6zM425.6 252.8c6.4 6.4 6.4 16-3.2 22.4-3.2 3.2-22.4 16-57.6 38.4-38.4 25.6-86.4 54.4-92.8 60.8-9.6 9.6-25.6 9.6-35.2 0-3.2 0-41.6-25.6-73.6-44.8-67.2-44.8-76.8-51.2-76.8-51.2-3.2-6.4-6.4-9.6-6.4-12.8s3.2-6.4 6.4-9.6c6.4-3.2 9.6-6.4 19.2 0 3.2 0 105.6 67.2 147.2 96v0c0 0 0 0 0 0v0c22.4-16 144-96 147.2-99.2s6.4-3.2 9.6-3.2c9.6 0 16 3.2 16 3.2z" />
<glyph unicode="&#xe718;" glyph-name="ip" d="M246.4 380.8c3.2 3.2 12.8 6.4 19.2 0 41.6-51.2 89.6-73.6 118.4-70.4 6.4 0 12.8-9.6 9.6-19.2-6.4-32-19.2-128-44.8-166.4-28.8-41.6-73.6-60.8-89.6-60.8s-64 19.2-92.8 60.8c-32 35.2-44.8 128-48 166.4-3.2 16 3.2 19.2 12.8 19.2 28.8 3.2 86.4 25.6 115.2 70.4zM284.8 99.2c6.4 3.2 19.2 12.8 25.6 19.2 9.6 9.6 19.2 22.4 25.6 32 0 0 0 3.2 0 3.2-3.2 0-6.4 3.2-9.6 3.2s-3.2 3.2-6.4 3.2c0 0-3.2 0-3.2 0-3.2-6.4-16-19.2-22.4-28.8-6.4-6.4-16-9.6-19.2-16-3.2-3.2-9.6-3.2-9.6-9.6 0-3.2 0-6.4 0-12.8-3.2-6.4 12.8 3.2 19.2 6.4z" />
<glyph unicode="&#xe719;" glyph-name="life" d="M256 339.2c16 25.6 54.4 48 92.8 44.8 35.2-3.2 67.2-25.6 83.2-57.6 16-38.4 9.6-76.8-19.2-108.8-54.4-57.6-99.2-108.8-131.2-137.6-6.4-9.6-16-16-25.6-16v0c-9.6 0-19.2 6.4-25.6 12.8-32 32-76.8 80-131.2 137.6-28.8 32-38.4 73.6-22.4 108.8s51.2 57.6 86.4 60.8c38.4 3.2 76.8-19.2 92.8-44.8zM102.4 291.2c0-6.4 3.2-9.6 9.6-9.6s9.6 3.2 9.6 9.6c0 19.2 16 41.6 38.4 44.8 6.4 0 12.8 3.2 12.8 9.6s-6.4 9.6-12.8 9.6c-32-6.4-60.8-35.2-57.6-64z" />
<glyph unicode="&#xe71a;" glyph-name="money" d="M336 64c-6.4-3.2-12.8 0-16 12.8l-9.6 28.8c-22.4-6.4-48-3.2-70.4 0l-9.6-28.8c-6.4-9.6-19.2-12.8-25.6-9.6l-38.4 16c-6.4 6.4-12.8 19.2-6.4 25.6l9.6 22.4c-19.2 9.6-32 25.6-41.6 44.8h-25.6c-9.6 0-19.2 9.6-19.2 19.2v54.4c0 9.6 9.6 19.2 19.2 19.2h16c9.6 32 28.8 57.6 60.8 73.6l3.2 3.2c-3.2 9.6-9.6 22.4-6.4 32 0 3.2 6.4 6.4 12.8 6.4 3.2 0 19.2-3.2 25.6-9.6 6.4-3.2 16-16 16-16s19.2 3.2 38.4 3.2c86.4 3.2 163.2-60.8 160-134.4 0-38.4-19.2-67.2-51.2-92.8l9.6-25.6c3.2-3.2 3.2-12.8 0-16-3.2-6.4-48-25.6-51.2-28.8zM326.4 332.8c-6.4 3.2-22.4 9.6-35.2 9.6s-28.8 0-41.6-3.2c-3.2 0-6.4-6.4-6.4-9.6s3.2-6.4 6.4-6.4c3.2 0 25.6 3.2 38.4 3.2s22.4-3.2 32-9.6c3.2-3.2 9.6 0 9.6 3.2 3.2 3.2 0 9.6-3.2 12.8zM179.2 300.8c-9.6 0-19.2-9.6-19.2-19.2s9.6-19.2 19.2-19.2 19.2 9.6 19.2 19.2c0 12.8-9.6 19.2-19.2 19.2z" />
<glyph unicode="&#xe71b;" glyph-name="roadside" d="M182.4 64c-19.2 0-35.2 6.4-51.2 19.2-16 16-28.8 38.4-28.8 54.4 0 22.4 6.4 41.6 19.2 57.6l41.6 48c-3.2 35.2 3.2 73.6 25.6 102.4 28.8 28.8 73.6 38.4 96 38.4 9.6 0 22.4-3.2 32-6.4 3.2 0 6.4-3.2 6.4-6.4s0-6.4-3.2-9.6l-41.6-51.2c-19.2-22.4-22.4-51.2-6.4-64 6.4-6.4 12.8-6.4 19.2-6.4 16 0 32 9.6 44.8 22.4l44.8 54.4c0 3.2 3.2 3.2 9.6 3.2s6.4-3.2 6.4-6.4c16-38.4 16-92.8-12.8-128-25.6-28.8-57.6-44.8-96-44.8v0 0l-41.6-48c-25.6-22.4-41.6-28.8-64-28.8zM160 115.2c32-22.4 67.2 12.8 41.6 41.6-32 22.4-67.2-12.8-41.6-41.6z" />
<glyph unicode="&#xe71c;" glyph-name="travel" d="M316.8 214.4c-16-12.8-41.6-35.2-41.6-35.2-16-12.8-48-38.4-73.6-54.4 0-9.6 0-32 0-38.4s-6.4-19.2-16-22.4c-9.6-3.2-32 38.4-32 38.4l-16 16c0 0-44.8 19.2-41.6 35.2 3.2 12.8 16 16 22.4 16 3.2 0 22.4 0 38.4-3.2 19.2 28.8 38.4 54.4 51.2 73.6 0 0 22.4 28.8 38.4 44.8 19.2 19.2 83.2 80 83.2 80 22.4 22.4 64 28.8 80 12.8 9.6-9.6 9.6-38.4-12.8-70.4 0 0-64-76.8-80-92.8zM272 323.2l-147.2 12.8c-12.8 0-25.6-6.4-28.8-19.2s6.4-25.6 28.8-35.2l73.6-35.2c0 0 22.4 28.8 35.2 44.8s38.4 32 38.4 32zM393.6 361.6c-6.4 6.4-25.6 12.8-35.2 3.2s12.8-3.2 25.6-12.8c12.8-9.6 6.4-32 16-25.6 6.4 9.6 0 28.8-6.4 35.2zM326.4 204.8c-12.8-16-41.6-38.4-41.6-38.4l38.4-73.6c12.8-22.4 25.6-28.8 35.2-25.6 12.8 3.2 16 16 16 28.8l-19.2 147.2c3.2 0-12.8-22.4-28.8-38.4z" />
<glyph unicode="&#xe71d;" glyph-name="no-money" d="M38.4 6.4v0c-9.6 9.6-9.6 25.6 0 35.2l400 400c9.6 9.6 25.6 9.6 35.2 0v0c9.6-9.6 9.6-25.6 0-35.2l-400-400c-9.6-9.6-25.6-9.6-35.2 0zM224 272l64 64v9.6c3.2 0 6.4 0 9.6-3.2l54.4 57.6c-6.4 3.2-12.8 6.4-22.4 9.6-12.8 6.4-25.6 9.6-41.6 9.6v28.8c0 19.2-12.8 32-32 32s-32-12.8-32-32v-28.8c-9.6 0-19.2-3.2-28.8-6.4-19.2-3.2-35.2-12.8-48-22.4s-22.4-22.4-32-35.2c-6.4-12.8-9.6-28.8-9.6-41.6s3.2-25.6 6.4-35.2c6.4-12.8 12.8-22.4 19.2-32 9.6-6.4 19.2-12.8 28.8-19.2 3.2-3.2 9.6-6.4 12.8-6.4l51.2 51.2zM214.4 342.4c3.2 0 6.4 3.2 9.6 3.2v-57.6c-3.2 0-3.2 0-6.4 3.2-12.8 6.4-19.2 16-19.2 25.6s6.4 19.2 16 25.6zM384 217.6c-9.6 9.6-19.2 16-32 22.4l-188.8-188.8c19.2-6.4 41.6-9.6 60.8-12.8v-38.4c0-19.2 12.8-32 32-32s32 12.8 32 32v41.6c9.6 0 19.2 3.2 28.8 6.4 19.2 6.4 38.4 16 51.2 25.6s25.6 22.4 32 35.2c6.4 12.8 9.6 28.8 9.6 44.8 0 25.6-9.6 48-25.6 64zM297.6 121.6c-3.2 0-6.4-3.2-9.6-3.2v57.6c3.2 0 3.2-3.2 6.4-3.2 6.4-3.2 9.6-6.4 12.8-12.8 3.2-3.2 3.2-9.6 3.2-16 0-9.6-3.2-16-12.8-22.4z" />
<glyph unicode="&#xe71e;" glyph-name="computer" d="M148.288 82.432h-102.72c-18.88 0-34.24 15.584-34.24 34.752v289.44c0 19.136 15.36 34.752 34.24 34.752h420.832c18.88 0 34.24-15.584 34.24-34.752v-289.472c0-19.168-15.36-34.752-34.24-34.752h-318.112zM45.6 173.312c-6.304 0-11.424-5.184-11.424-11.584v-35.232c0-9.792 7.584-17.728 16.96-17.728h409.76c9.344 0 16.96 7.936 16.96 17.728v35.232c0 6.4-5.12 11.584-11.424 11.584h-420.832zM257.056 152.384c-7.008 0-12.704-5.856-12.704-13.088s5.696-13.088 12.704-13.088c7.008 0 12.704 5.856 12.704 13.088s-5.696 13.088-12.704 13.088zM229.6 70.496c0 0-13.408-40.032-16.384-42.112s-21.92-5.504-21.92-5.504c-8.16-4.032-5.28-16.256 3.84-16.256h126.016c9.12-0.032 12.032 12.192 3.84 16.256 0 0-18.944 3.424-21.92 5.504s-16.384 42.112-16.384 42.112h-57.088z" />
<glyph unicode="&#xe71f;" glyph-name="tooth" d="M404.832 148.96c-14.528-56.64-42.368-108.672-68.48-111.36-17.088-1.76-32.928 8.672-39.488 19.104-5.824 9.28-7.456 21.888-9.376 36.576-3.072 24-7.008 53.792-29.696 69.92-21.696-16.896-23.68-46.784-25.376-70.88-1.024-14.72-1.92-27.392-7.2-36.864-5.952-10.656-17.696-17.12-31.392-17.376-36.8-0.64-66.4 51.936-80.32 110.88-10.464 37.536-43.68 125.28-48.896 164.704-2.528 19.264 7.392 67.040 42.016 83.968 36.192 17.728 95.776 6.048 104.352 4.32 13.344-2.688 35.040-4.64 46.784-4.16 13.312 0.544 30.272 3.52 45.504 7.552s71.392 9.088 89.568 0.704c35.168-16.128 59.968-50.112 54.048-90.496-6.080-41.536-38.144-142.208-42.048-166.592zM310.976 335.552c0 8.096-7.968 13.76-15.52 13.76 0 0-7.104-0.896-16.928-1.984-7.424-0.832-14.592-0.8-19.328-0.8-4.064 0-12 0.064-18.144 0.736-10.496 1.152-17.504 2.4-17.504 2.4-7.552 0-14.976-6.016-14.976-14.112v0c0-8.096 4.896-13.44 12.512-14.656 0 0 11.232-1.344 19.968-2.4 7.52-0.896 13.024-1.248 18.144-1.248 4.864 0 11.744 0 19.328 0.832 9.632 1.088 18.784 2.816 18.784 2.816 7.232 1.632 13.664 6.56 13.664 14.656v0z" />
<glyph unicode="&#xe720;" glyph-name="hospital" d="M283.328 272.192h-228.288l37.248-262.688c1.152-5.536 7.648-9.6 15.296-9.6h99.936c8.256 0 14.944 6.656 14.944 14.88v50.464c0 7.52 6.112 13.632 13.664 13.632h52.832c7.552 0 13.664-6.112 13.664-13.632v-50.464c0-8.224 6.688-14.88 14.944-14.88h95.776c7.648 0 14.144 4.096 15.296 9.6l28.32 262.688h-173.632zM313.76 178.464c0-11.072-9.024-20.064-20.128-20.064h-15.296v-15.232c0-11.072-9.024-20.064-20.128-20.064h-4.416c-11.104 0-20.128 8.992-20.128 20.064v14.496h-15.296c-11.104 0-20.128 8.992-20.128 20.064v4.416c0 11.072 9.024 20.064 20.128 20.064h15.296v15.232c0 11.072 9.024 20.064 20.128 20.064h4.416c11.104 0 20.128-8.992 20.128-20.064v-14.496h15.296c11.104 0 20.128-8.992 20.128-20.064v-4.416zM473.888 337.344l-72.096 89.12c-10.816 13.376-29.152 21.44-48.8 21.44h-194.016c-19.648 0-37.952-8.064-48.8-21.44l-72.064-89.12c-16-19.776 1.344-46.176 30.368-46.176h375.040c29.024 0 46.368 26.4 30.368 46.176z" />
<glyph unicode="&#xe721;" glyph-name="search" d="M490.496 271.488c0-102.944-85.664-186.464-191.296-186.464s-191.232 83.52-191.232 186.464c0 102.88 85.6 186.4 191.232 186.4s191.296-83.52 191.296-186.4zM118.624 158.304l-85.024-83.712c-20.704-20.192-12.736-49.856 7.968-70.112 23.52-23.52 56.96-13.312 67.328-3.2l87.936 86.592c-31.424 17.152-58.24 41.408-78.208 70.432zM418.304 240.192c20.736 73.12-29.536 114.112-31.68 115.84-8.704 6.912-21.376 5.632-28.544-2.752s-5.984-20.928 2.56-28.032c1.248-1.088 31.68-27.008 18.24-74.432-3.008-10.624 3.36-21.6 14.272-24.544 1.824-0.48 3.648-0.736 5.472-0.736 8.928 0 17.152 5.792 19.68 14.656z" />
<glyph unicode="&#xe722;" glyph-name="wallet" d="M150.88 337.408l190.24 63.072-37.6 52.192-163.104-117.344h4.224zM408.384 335.328l-5.376 16.096-11.872 35.776-4.416-1.472-151.936-50.4zM440.448 335.328c7.872 0 14.208-6.368 14.208-14.208v-95.36l15.808 7.872 12.576 6.336v103.872c0 10.944-8.864 19.872-19.84 19.872h-34.336l9.44-28.384h2.144zM454.656 23.712h8.544c10.976 0 19.84 8.928 19.84 19.904v47.744l-28.384-14.208v-53.44zM326.944 137.28c0 39.136 31.84 70.976 70.912 70.976h21.728l6.656 3.36v75.968c0 10.976-8.864 19.872-19.84 19.872h-338.528c-6.112 1.568-10.624 7.040-10.624 13.664 0 7.808 6.336 14.208 14.208 14.208h20.384l39.424 28.384h-59.84c-23.552 0-42.592-19.104-42.592-42.592v-283.2c0-23.52 19.040-42.592 42.592-42.592h255.488c2.112 0 4.16 0.224 6.208 0.544h73.28c10.976 0 19.84 8.864 19.84 19.84v50.56h-28.384c-39.104 0.032-70.912 31.84-70.912 71.008zM426.24 179.872h-28.384c-23.52 0-42.528-19.104-42.528-42.592 0-23.52 19.008-42.592 42.528-42.592h28.384l56.8 28.384 0.128 85.184-56.928-28.384zM397.856 123.072c-7.808 0-14.208 6.368-14.208 14.208s6.368 14.208 14.208 14.208c7.872 0 14.208-6.368 14.208-14.208s-6.336-14.208-14.208-14.208z" />
<glyph unicode="&#xe723;" glyph-name="restart" d="M492 224c0-130.336-105.664-236-236-236s-236 105.664-236 236 105.664 236 236 236 236-105.664 236-236zM106.784 275.456c-2.88-1.152-3.296-5.056-0.736-6.784l21.184-14.368 1.376-0.96-0.448-1.6c-6.496-23.264-6.24-47.712 0.704-70.72 16.768-55.424 68.96-92.352 126.912-89.856 0 0 21.664 0.672 31.712 4.768l-7.040 23.744-29.408-2.848c-44.48-0.352-84.544 29.12-97.408 71.648-4.48 14.784-5.408 30.208-2.816 45.792l0.608 3.584 3.008-2.016 12.768-8.672c2.592-1.76 6.144 0.096 6.144 3.232l0.064 58.816c0 6.144-6.208 10.368-11.904 8.064l-54.72-21.824zM343.424 220.96l-0.064-58.752c0-6.048 6.112-10.208 11.744-7.968l54.72 21.856c2.944 1.184 3.392 5.184 0.768 6.944l-21.024 14.272-1.376 0.96 0.448 1.6c6.496 23.264 6.24 47.744-0.704 70.752-16.832 55.392-68.896 91.744-124.576 91.456 0 0-20.032 1.376-32.48-1.888l2.144-25.952 32.64 0.512c44.48 0.32 84.544-29.12 97.408-71.648 4.48-14.816 5.408-30.208 2.816-45.792l-0.576-3.552-3.008 2.016-12.544 8.512c-2.72 1.824-6.336-0.096-6.336-3.328z" />
<glyph unicode="&#xe724;" glyph-name="disk" d="M429.472 444.608h-346.944c-26.016 0-47.136-21.088-47.136-47.136v-346.912c0-26.048 21.12-47.168 47.168-47.168h346.88c26.048 0 47.168 21.12 47.168 47.168v346.912c0 26.016-21.088 47.136-47.136 47.136zM416.256 405.408c-0.16 0 0-168.736 0-168.736 0-18.944-15.488-34.304-34.432-34.304h-251.616c-18.944 0-34.464 15.36-34.464 34.304 0 0 0.16 168.736 0 168.736h320.512zM347.904 244.16c12.288 0.544 21.504 11.904 21.504 24.448v85.44c0 12.544-9.216 23.904-21.504 24.448-12.896 0.576-23.552-9.92-23.552-22.976v-88.416c0-13.024 10.656-23.52 23.552-22.944z" />
<glyph unicode="&#xe725;" glyph-name="scales" d="M240 368c0-6.4-6.4-9.6-9.6-9.6h-86.4c-25.6 0-38.4-25.6-38.4-25.6l-64-86.4c0 0-12.8-22.4-6.4-25.6 3.2-6.4 9.6-19.2 83.2-19.2 67.2 0 83.2 16 86.4 22.4s-9.6 22.4-9.6 22.4l-48 67.2c-9.6 12.8-3.2 22.4 9.6 22.4h64c9.6 0 19.2-9.6 19.2-19.2v-214.4c0-6.4-3.2-12.8-9.6-12.8 0 0-76.8-6.4-86.4-19.2-6.4-6.4 0-16 3.2-16h108.8v339.2c-16 0-16-25.6-16-25.6zM118.4 201.6c67.2 0 83.2 16 86.4 22.4 3.2 9.6-9.6 22.4-9.6 22.4zM41.6 246.4c0 0-16-16-6.4-25.6 3.2-6.4 9.6-19.2 83.2-19.2zM272 368c0 0 3.2 25.6-16 25.6v-339.2h108.8c6.4 0 9.6 9.6 3.2 16-12.8 12.8-86.4 19.2-86.4 19.2-6.4 0-9.6 6.4-9.6 12.8v214.4c0 9.6 9.6 19.2 19.2 19.2h64c16 0 19.2-9.6 12.8-22.4l-51.2-67.2c0 0-12.8-16-9.6-22.4s19.2-22.4 86.4-22.4c73.6 0 80 12.8 83.2 19.2 3.2 3.2-6.4 25.6-6.4 25.6l-64 86.4c0 0-16 25.6-38.4 25.6h-86.4c-6.4 0-9.6 3.2-9.6 9.6zM316.8 246.4c0 0-12.8-12.8-9.6-22.4 3.2-6.4 19.2-22.4 86.4-22.4zM393.6 201.6c73.6 0 80 12.8 83.2 19.2 9.6 9.6-6.4 25.6-6.4 25.6z" />
<glyph unicode="&#xe726;" glyph-name="calendar-blank" d="M384 448h-32v-64h32v64zM451.2 448h-35.2v-96h-96v96h-128v-96h-96v96h-35.2c-16 0-28.8-12.8-28.8-28.8v-390.4c0-16 12.8-28.8 28.8-28.8h390.4c16 0 28.8 12.8 28.8 28.8v390.4c0 16-12.8 28.8-28.8 28.8zM416 64h-320v256h320v-256zM160 448h-32v-64h32v64z" />
<glyph unicode="&#xe727;" glyph-name="birthdate" d="M140.8 361.6c-6.4 0-12.8 6.4-12.8 12.8v60.8c0 6.4 6.4 12.8 12.8 12.8s12.8-6.4 12.8-12.8v-57.6c3.2-9.6-3.2-16-12.8-16zM316.8 361.6c-6.4 0-12.8 6.4-12.8 12.8v60.8c-3.2 6.4 3.2 12.8 12.8 12.8 6.4 0 12.8-6.4 12.8-12.8v-57.6c0-9.6-6.4-16-12.8-16zM172.8 83.2h-16v76.8h12.8c0 3.2 0 6.4 3.2 9.6h-16v73.6h60.8c6.4 6.4 9.6 9.6 16 12.8v70.4h67.2v-44.8c3.2 0 6.4 0 9.6 0v44.8h60.8v-57.6c6.4-3.2 12.8-6.4 19.2-9.6v112c0 19.2-16 35.2-35.2 35.2h-12.8v-32c0-16-12.8-28.8-28.8-28.8-12.8 0-25.6 12.8-25.6 28.8v32h-118.4v-32c0-16-12.8-28.8-28.8-28.8s-25.6 12.8-25.6 28.8v32h-16c-19.2 0-35.2-16-35.2-35.2v-275.2c0-19.2 16-35.2 35.2-35.2h80c-3.2 9.6-6.4 16-6.4 22.4zM156.8 326.4h67.2v-73.6h-67.2v73.6zM144 83.2h-44.8c-9.6 0-16 6.4-16 16v60.8h60.8c0 0 0-76.8 0-76.8zM144 169.6h-60.8v73.6h60.8c0 0 0-73.6 0-73.6zM144 252.8h-60.8v73.6h60.8c0 0 0-73.6 0-73.6zM316.8 0c-70.4 0-128 57.6-128 128s57.6 128 128 128c70.4 0 128-57.6 128-128s-57.6-128-128-128zM316.8 227.2c-54.4 0-99.2-44.8-99.2-99.2s44.8-99.2 99.2-99.2c54.4 0 99.2 44.8 99.2 99.2s-44.8 99.2-99.2 99.2zM310.4 124.8v41.6h-35.2c-6.4 0-9.6-3.2-9.6-9.6v-28.8l44.8-3.2zM329.6 124.8h48v28.8c0 6.4-3.2 9.6-9.6 9.6h-35.2v-38.4zM329.6 105.6v-38.4h35.2c6.4 0 9.6 3.2 9.6 9.6v28.8h-44.8zM310.4 105.6h-48v-28.8c0-6.4 3.2-9.6 9.6-9.6h35.2l3.2 38.4zM358.4 201.6c-6.4 6.4-19.2 6.4-25.6 0-3.2-3.2-9.6-19.2-12.8-28.8-3.2 9.6-9.6 25.6-12.8 28.8-6.4 6.4-19.2 6.4-25.6 0s-6.4-19.2 0-25.6c3.2-3.2 16-9.6 25.6-12.8h25.6c9.6 3.2 22.4 6.4 25.6 12.8 6.4 6.4 6.4 19.2 0 25.6z" />
<glyph unicode="&#xe728;" glyph-name="calculator" d="M348.8 448h-185.6c-44.8 0-80-35.2-80-80v-284.8c0-44.8 28.8-80 73.6-80h188.8c44.8 0 80 35.2 80 80v284.8c3.2 44.8-32 80-76.8 80zM390.4 96c0-38.4-22.4-57.6-60.8-57.6h-153.6c-38.4 0-54.4 19.2-54.4 57.6v252.8c0 54.4 22.4 60.8 60.8 60.8h150.4c38.4 0 60.8-16 60.8-54.4v-259.2zM211.2 233.6c0 12.8-12.8 22.4-25.6 22.4s-22.4-9.6-22.4-22.4c0-12.8 9.6-22.4 22.4-22.4s25.6 9.6 25.6 22.4zM275.2 233.6c0 12.8-9.6 22.4-22.4 22.4s-22.4-9.6-22.4-22.4c0-12.8 9.6-22.4 22.4-22.4s22.4 9.6 22.4 22.4zM345.6 233.6c0 12.8-9.6 22.4-22.4 22.4s-22.4-9.6-22.4-22.4c0-12.8 9.6-22.4 22.4-22.4s22.4 9.6 22.4 22.4zM211.2 166.4c0 12.8-9.6 22.4-22.4 22.4s-22.4-9.6-22.4-22.4c0-12.8 9.6-22.4 22.4-22.4 9.6 0 22.4 9.6 22.4 22.4zM275.2 166.4c0 12.8-9.6 22.4-22.4 22.4s-22.4-9.6-22.4-22.4c0-12.8 9.6-22.4 22.4-22.4s22.4 9.6 22.4 22.4zM345.6 166.4c0 12.8-9.6 22.4-22.4 22.4s-22.4-9.6-22.4-22.4c0-12.8 9.6-22.4 22.4-22.4s22.4 9.6 22.4 22.4zM211.2 102.4c0 12.8-9.6 22.4-22.4 22.4s-22.4-9.6-22.4-22.4c0-12.8 9.6-22.4 22.4-22.4 9.6 0 22.4 9.6 22.4 22.4zM275.2 102.4c0-12.371-10.029-22.4-22.4-22.4s-22.4 10.029-22.4 22.4c0 12.371 10.029 22.4 22.4 22.4s22.4-10.029 22.4-22.4zM345.6 102.4c0 12.8-9.6 22.4-22.4 22.4s-22.4-9.6-22.4-22.4c0-12.8 9.6-22.4 22.4-22.4s22.4 9.6 22.4 22.4zM371.2 342.4c0-19.2-16-35.2-35.2-35.2h-163.2c-19.2 0-35.2 16-35.2 35.2v0c0 19.2 16 35.2 35.2 35.2h163.2c19.2 0 35.2-16 35.2-35.2v0z" />
<glyph unicode="&#xe729;" glyph-name="video" d="M320 32h-230.4c-32 0-57.6 25.6-57.6 60.8v134.4c0 35.2 25.6 60.8 57.6 60.8h230.4c35.2 0 57.6-25.6 57.6-60.8v-3.2l73.6 48c6.4 3.2 12.8 3.2 19.2 0s9.6-6.4 9.6-16v-182.4c0-6.4-3.2-12.8-9.6-16s-12.8-3.2-19.2 0l-73.6 44.8v-9.6c3.2-35.2-22.4-60.8-57.6-60.8zM352 384c0-35.346-28.654-64-64-64s-64 28.654-64 64c0 35.346 28.654 64 64 64s64-28.654 64-64zM192 384c0-35.346-28.654-64-64-64s-64 28.654-64 64c0 35.346 28.654 64 64 64s64-28.654 64-64z" />
<glyph unicode="&#xe72a;" glyph-name="no-fee" d="M124.8 96c-57.6 0-96 25.6-96 128 0 86.4 38.4 128 99.2 128 67.2 0 96-38.4 96-128 0-86.4-41.6-128-99.2-128zM128 294.4c-16 0-22.4-12.8-22.4-70.4 0-67.2 6.4-70.4 22.4-70.4s22.4 9.6 22.4 67.2c0 67.2-6.4 73.6-22.4 73.6zM227.2 304h214.4v32c0 9.6-9.6 19.2-22.4 19.2h-227.2c16-12.8 25.6-28.8 35.2-51.2zM236.8 249.6c0-9.6 0-16 0-25.6 0-64-22.4-108.8-54.4-128h240c12.8 0 22.4 9.6 22.4 22.4v131.2h-208zM294.4 124.8v-12.8h-16v12.8c-6.4 0-9.6 0-12.8 0v19.2c6.4-3.2 9.6-3.2 12.8-3.2 6.4 0 9.6 3.2 9.6 6.4 0 9.6-28.8 3.2-28.8 28.8 0 9.6 6.4 19.2 19.2 22.4v9.6h16v-9.6c3.2 0 6.4 0 12.8 0v-19.2c-6.4 0-9.6 3.2-12.8 3.2-6.4 0-9.6-3.2-9.6-6.4 0-6.4 28.8-3.2 28.8-28.8 0-9.6-6.4-19.2-19.2-22.4z" />
<glyph unicode="&#xe72b;" glyph-name="flyer" d="M297.6 217.6c-9.6-9.6-28.8-25.6-28.8-25.6-12.8-9.6-32-25.6-51.2-38.4 0-6.4 0-22.4 0-25.6s-3.2-12.8-12.8-16c-6.4-3.2-22.4 25.6-22.4 25.6l-9.6 9.6c0 0-32 12.8-28.8 22.4 6.4 12.8 16 16 19.2 16s16 0 25.6-3.2c16 22.4 28.8 41.6 35.2 51.2 0 0 16 19.2 25.6 28.8 12.8 16 57.6 57.6 57.6 57.6 16 16 44.8 19.2 54.4 9.6 6.4-6.4 6.4-25.6-9.6-48 3.2 0-41.6-54.4-54.4-64zM262.4 294.4l-99.2 6.4c-9.6 0-16-3.2-19.2-12.8 0-9.6 3.2-16 19.2-25.6l51.2-25.6c0 0 9.6 16 22.4 25.6 9.6 16 25.6 32 25.6 32zM352 320c-6.4 3.2-19.2 9.6-25.6 3.2s9.6 0 19.2-9.6c9.6-6.4 3.2-22.4 9.6-16 6.4 3.2 0 16-3.2 22.4zM304 204.8c-12.8-12.8-25.6-22.4-25.6-22.4l25.6-48c9.6-16 16-19.2 25.6-19.2s12.8 9.6 12.8 19.2l-12.8 99.2c0 0-16-16-25.6-28.8zM105.6 73.6c-3.2 3.2-9.6 9.6-9.6 9.6-3.2 3.2-6.4 9.6-9.6 16-3.2 0-6.4 0-6.4 0s-3.2 0-3.2 3.2c0 3.2 9.6 6.4 9.6 6.4l3.2 3.2c0 0 3.2 9.6 6.4 6.4 0 0 0-3.2 0-6.4 0 0 0-3.2 0-6.4 6.4-3.2 9.6-9.6 12.8-9.6 0 0 6.4-6.4 9.6-6.4 3.2-3.2 16-16 16-16 3.2-6.4 6.4-12.8 3.2-16s-6.4-3.2-12.8 3.2c-3.2-3.2-19.2 9.6-19.2 12.8zM124.8 83.2l3.2 28.8c0 3.2 0 6.4-3.2 6.4s-6.4 0-6.4-6.4l-6.4-12.8c0 0 3.2-3.2 6.4-6.4s6.4-9.6 6.4-9.6zM134.4 57.6c0 0 3.2 6.4 0 6.4-3.2 3.2 0 0 0-6.4-3.2 0-9.6 0-6.4 0 0-3.2 3.2 0 6.4 0zM99.2 73.6c-3.2 3.2-6.4 9.6-6.4 9.6l-16-6.4c-6.4-3.2-6.4-3.2-6.4-6.4 3.2-6.4 6.4-6.4 9.6-6.4h28.8c0 0-6.4 6.4-9.6 9.6zM272 9.6c-3.2 0-6.4 3.2-6.4 6.4s3.2 9.6 6.4 9.6c9.6 0 19.2 3.2 28.8 3.2 3.2 0 9.6-3.2 9.6-6.4s-3.2-9.6-6.4-9.6c-9.6-3.2-19.2-3.2-32-3.2 0 0 0 0 0 0zM240 9.6c0 0 0 0 0 0-12.8 0-22.4 3.2-32 6.4-3.2 0-6.4 6.4-6.4 9.6s6.4 6.4 9.6 6.4c9.6-3.2 19.2-3.2 28.8-3.2 3.2 0 6.4-3.2 6.4-9.6s-3.2-9.6-6.4-9.6zM332.8 22.4c-3.2 0-6.4 3.2-6.4 6.4-3.2 3.2 0 9.6 3.2 9.6 9.6 3.2 19.2 9.6 28.8 12.8 3.2 3.2 9.6 0 9.6-3.2 3.2-3.2 0-9.6-3.2-9.6-6.4-6.4-19.2-9.6-32-16 3.2 0 3.2 0 0 0zM179.2 22.4c-3.2 0-3.2 0 0 0-9.6 3.2-16 6.4-19.2 9.6s-6.4 6.4-3.2 9.6c3.2 3.2 6.4 6.4 9.6 3.2s9.6-3.2 16-6.4c3.2-3.2 6.4-6.4 3.2-9.6 0-3.2-3.2-6.4-6.4-6.4zM387.2 54.4c-3.2 0-3.2 0-6.4 3.2s-3.2 9.6 0 12.8c6.4 6.4 16 12.8 22.4 22.4 3.2 3.2 6.4 3.2 12.8 0 3.2-3.2 3.2-6.4 0-12.8-6.4-9.6-16-16-22.4-22.4 0 0-3.2-3.2-6.4-3.2zM432 102.4c0 0-3.2 0-3.2 0-3.2 3.2-3.2 6.4-3.2 9.6 6.4 9.6 9.6 19.2 16 25.6 3.2 3.2 6.4 6.4 9.6 3.2s6.4-6.4 3.2-9.6c-3.2-9.6-9.6-19.2-16-28.8-3.2 3.2-6.4 0-6.4 0zM67.2 128c-3.2 0-6.4 0-6.4 3.2-3.2 9.6-9.6 19.2-12.8 32 0 3.2 0 9.6 6.4 9.6 3.2 0 9.6 0 9.6-6.4 3.2-9.6 6.4-19.2 9.6-28.8 3.2-3.2 0-9.6-3.2-9.6 0 0 0 0-3.2 0zM457.6 163.2c0 0-3.2 0 0 0-6.4 0-9.6 6.4-6.4 9.6 3.2 9.6 3.2 19.2 6.4 28.8 0 3.2 3.2 9.6 9.6 6.4 3.2 0 6.4-3.2 6.4-9.6 0-9.6-3.2-22.4-6.4-32-3.2-3.2-6.4-3.2-9.6-3.2zM51.2 188.8c-6.4 0-9.6 3.2-9.6 6.4 0 9.6-3.2 19.2-3.2 28.8v3.2c0 3.2 3.2 9.6 9.6 6.4 3.2 0 6.4-3.2 6.4-9.6v-3.2c0-9.6 0-16 3.2-25.6 0-3.2-3.2-6.4-6.4-6.4 0 0 0 0 0 0zM464 224c-3.2 0-6.4 3.2-6.4 6.4 0 9.6-3.2 19.2-3.2 32 0 3.2 3.2 9.6 6.4 9.6s9.6-3.2 9.6-6.4c3.2-9.6 3.2-22.4 3.2-32 0-3.2-6.4-9.6-9.6-9.6 0 0 0 0 0 0zM51.2 252.8c0 0 0 0 0 0-6.4 0-9.6 3.2-6.4 9.6 3.2 9.6 3.2 22.4 9.6 32 0 3.2 6.4 6.4 9.6 6.4s6.4-6.4 6.4-9.6c-6.4-12.8-9.6-22.4-12.8-32 0-3.2-3.2-6.4-6.4-6.4zM451.2 288c-3.2 0-6.4 0-6.4 6.4-3.2 9.6-6.4 19.2-12.8 28.8-3.2 3.2 0 9.6 3.2 9.6 3.2 3.2 9.6 0 9.6-3.2 6.4-9.6 9.6-19.2 12.8-28.8 3.2-6.4 0-9.6-6.4-12.8 3.2 0 0 0 0 0zM70.4 313.6c0 0-3.2 0-3.2 0-3.2 3.2-3.2 6.4-3.2 9.6 6.4 9.6 12.8 19.2 19.2 28.8 3.2 3.2 6.4 3.2 12.8 3.2 0-3.2 3.2-9.6 0-12.8-6.4-6.4-12.8-16-16-25.6-3.2-3.2-6.4-3.2-9.6-3.2zM419.2 342.4c-3.2 0-3.2 0-6.4 3.2-6.4 9.6-12.8 16-19.2 22.4-3.2 3.2-3.2 9.6 0 12.8s9.6 3.2 12.8 0c9.6-6.4 16-16 22.4-25.6 3.2-3.2 3.2-9.6 0-12.8-6.4 0-6.4 0-9.6 0zM108.8 364.8c-3.2 0-3.2 0-6.4 3.2s-3.2 9.6 0 12.8c9.6 3.2 19.2 12.8 25.6 19.2 3.2 3.2 9.6 3.2 9.6-3.2 3.2-3.2 3.2-9.6-3.2-9.6-3.2-6.4-12.8-12.8-19.2-22.4 0 0-3.2 0-6.4 0zM374.4 387.2c0 0-3.2 0-3.2 0-9.6 6.4-16 9.6-25.6 16-3.2 3.2-6.4 6.4-3.2 9.6s6.4 6.4 9.6 3.2c9.6-3.2 19.2-9.6 28.8-16 3.2 0 3.2-6.4 0-9.6 0-3.2-3.2-3.2-6.4-3.2zM160 400c-3.2 0-6.4 0-6.4 3.2 0 6.4 0 12.8 3.2 12.8 9.6 6.4 19.2 9.6 32 12.8 3.2 0 9.6 0 9.6-6.4 0-3.2 0-9.6-6.4-9.6-9.6-3.2-19.2-6.4-25.6-9.6-3.2-3.2-3.2-3.2-6.4-3.2zM316.8 416c0 0 0 0 0 0-12.8 3.2-22.4 6.4-32 6.4-3.2 0-6.4 3.2-6.4 9.6s3.2 6.4 9.6 6.4 22.4-3.2 32-6.4c3.2 0 6.4-6.4 6.4-9.6-3.2-6.4-6.4-6.4-9.6-6.4zM220.8 422.4c-3.2 0-6.4 3.2-6.4 6.4s3.2 9.6 6.4 9.6c9.6 3.2 22.4 3.2 32 3.2 3.2 0 9.6-3.2 9.6-6.4s-3.2-9.6-6.4-9.6c-12.8-3.2-22.4-3.2-35.2-3.2 3.2 0 0 0 0 0z" />
<glyph unicode="&#xe72c;" glyph-name="business" d="M201.6 336v16c0 6.4 6.4 12.8 12.8 12.8h80c6.4 0 12.8-6.4 12.8-12.8v-16h25.6v16c0 22.4-19.2 38.4-38.4 38.4h-76.8c-22.4 0-41.6-16-41.6-38.4v-16h25.6zM294.4 188.8c0-3.2-3.2-6.4-6.4-6.4h-64c-3.2 0-6.4 3.2-6.4 6.4v32c0 0 3.2 3.2 6.4 3.2h64c3.2 0 6.4-3.2 6.4-6.4v-28.8zM288 169.6h-64c-9.6 0-19.2 9.6-19.2 19.2v9.6c-48 3.2-96 9.6-140.8 22.4v-131.2c0-19.2 16-32 32-32h320c19.2 0 32 16 32 32v131.2c-44.8-12.8-92.8-19.2-140.8-22.4v-9.6c0-12.8-9.6-19.2-19.2-19.2zM224 236.8h64c9.6 0 19.2-9.6 19.2-19.2v-6.4c48 3.2 96 9.6 140.8 22.4v57.6c0 19.2-16 32-32 32h-320c-19.2 0-32-16-32-32v-54.4c44.8-12.8 92.8-19.2 140.8-22.4v3.2c0 12.8 9.6 19.2 19.2 19.2z" />
<glyph unicode="&#xe72d;" glyph-name="low-rate" d="M448 336c0 9.6-9.6 19.2-22.4 19.2h-256v-51.2h278.4v32zM166.4 249.6v-76.8h51.2l-89.6-83.2h297.6c12.8 0 22.4 9.6 22.4 22.4v137.6h-281.6zM409.6 131.2h-67.2v67.2h67.2v-67.2zM153.6 163.2v192h-83.2v-192h-38.4l80-73.6 80 73.6z" />
<glyph unicode="&#xe72e;" glyph-name="prepaid-card" d="M448 288v48c0 9.6-9.6 16-22.4 16h-198.4l-3.2-64h224zM256 179.2c0-64-48-83.2-48-83.2h217.6c12.8 0 22.4 6.4 22.4 16v144h-240c0 0 48-25.6 48-76.8zM352 192h64v-64h-64v64zM166.4 92.8v-22.4h-44.8v19.2c-19.2 0-32 3.2-51.2 3.2l3.2 57.6c19.2-6.4 35.2-9.6 51.2-9.6 22.4 0 38.4 6.4 38.4 25.6 0 38.4-108.8 19.2-108.8 105.6 0 38.4 25.6 67.2 64 76.8v28.8h44.8v-22.4c12.8 0 28.8-3.2 41.6-6.4l3.2-51.2c-19.2 3.2-35.2 6.4-48 6.4-25.6 0-35.2-9.6-35.2-22.4 0-35.2 108.8-22.4 108.8-105.6 0-38.4-25.6-70.4-67.2-83.2z" />
<glyph unicode="&#xe72f;" glyph-name="zero-percent" d="M297.6 185.6c0 6.4 0 6.4-3.2 6.4s-6.4 0-6.4-6.4c0-6.4 3.2-6.4 3.2-6.4 6.4 0 6.4 0 6.4 6.4zM345.6 140.8c-3.2 0-3.2-3.2-3.2-6.4 0-6.4 3.2-6.4 3.2-6.4 3.2 0 3.2 3.2 3.2 6.4 3.2 6.4 0 6.4-3.2 6.4zM259.2 256c0-9.6 0-19.2 0-28.8 0-83.2-38.4-124.8-89.6-131.2h284.8c12.8 0 22.4 6.4 22.4 16v144h-217.6zM272 185.6c0 12.8 9.6 22.4 22.4 22.4s22.4-6.4 22.4-22.4c0-12.8-9.6-22.4-22.4-22.4s-22.4 9.6-22.4 22.4zM278.4 121.6l67.2 86.4 16-9.6-67.2-86.4-16 9.6zM345.6 112c-12.8 0-22.4 9.6-22.4 22.4s9.6 22.4 22.4 22.4c12.8 0 22.4-6.4 22.4-22.4 0-12.8-9.6-22.4-22.4-22.4zM480 336c0 9.6-9.6 16-22.4 16h-259.2c25.6 0 44.8-32 54.4-64h227.2v48zM140.8 96c-57.6 0-96 25.6-96 128 0 86.4 38.4 128 99.2 128 67.2 0 96-38.4 96-128 0-86.4-41.6-128-99.2-128zM144 294.4c-16 0-22.4-12.8-22.4-70.4 0-67.2 6.4-70.4 22.4-70.4 16 3.2 22.4 9.6 22.4 70.4 0 64-6.4 70.4-22.4 70.4z" />
<glyph unicode="&#xe730;" glyph-name="card" d="M64 112c0-12.8 9.6-22.4 22.4-22.4h342.4c12.8 0 22.4 9.6 22.4 22.4v137.6h-387.2v-137.6zM342.4 198.4h67.2v-67.2h-67.2v67.2zM425.6 355.2h-339.2c-12.8 0-22.4-9.6-22.4-19.2v-32h384v32c0 9.6-9.6 19.2-22.4 19.2z" />
<glyph unicode="&#xe731;" glyph-name="double-card" d="M185.6 108.8c0-9.6 6.4-16 16-16h256c9.6 0 16 6.4 16 16v102.4h-134.4v-22.4c0 0-3.2-16-22.4-16-16 0-134.4 0-134.4 0v-64zM393.6 172.8h51.2v-48h-51.2v48zM339.2 252.8h134.4v25.6c0 9.6-6.4 16-16 16h-118.4v-41.6zM38.4 201.6c0-9.6 6.4-16 16-16h256c9.6 0 16 6.4 16 16v102.4h-288v-102.4zM246.4 265.6h51.2v-48h-51.2v48zM310.4 384h-256c-6.4 0-16-6.4-16-16v-22.4h288v22.4c0 9.6-6.4 16-16 16z" />
<glyph unicode="&#xe732;" glyph-name="shopping" d="M428.8 121.6h-249.6c-6.4 0-9.6 3.2-9.6 9.6v44.8l262.4 28.8c9.6 0 16 9.6 16 19.2v124.8c0 12.8-9.6 19.2-19.2 19.2h-272l-25.6 25.6c-3.2 3.2-9.6 6.4-16 6.4h-32c-9.6 0-19.2-9.6-19.2-22.4s9.6-19.2 19.2-19.2h22.4l19.2-19.2v-208c0-28.8 22.4-51.2 51.2-51.2h9.6v-9.6c0-12.8 9.6-19.2 19.2-19.2s19.2 9.6 19.2 19.2v9.6h144v-9.6c0-12.8 9.6-19.2 19.2-19.2 12.8 0 19.2 9.6 19.2 19.2v9.6h9.6c12.8 0 19.2 9.6 19.2 19.2s3.2 22.4-6.4 22.4zM374.4 326.4h32v-32h-32v32zM374.4 268.8h32v-25.6l-32-3.2v28.8zM300.8 326.4h44.8v-32h-44.8v32zM300.8 268.8h44.8v-32l-44.8-6.4v38.4zM230.4 326.4h44.8v-32h-44.8v32zM230.4 268.8h44.8v-41.6l-44.8-3.2v44.8zM166.4 326.4h32v-32h-32v32zM166.4 268.8h32v-48l-32-3.2v51.2z" />
<glyph unicode="&#xe733;" glyph-name="student" d="M128 217.6c0 9.6 0 19.2-3.2 28.8l192-67.2 128 124.8-211.2 57.6-169.6-96 51.2-16c0-6.4 0-19.2 0-32-6.4-3.2-12.8-9.6-12.8-19.2 0-6.4 6.4-16 12.8-16 0-19.2-3.2-35.2-6.4-51.2 22.4 0 32 0 32 0s-3.2 22.4-9.6 54.4c6.4 0 9.6 6.4 9.6 12.8 0 9.6-6.4 16-12.8 19.2zM352 195.2l-32-28.8-137.6 51.2c0 0-12.8-12.8-12.8-32s0-44.8 0-44.8 32 9.6 51.2 0c19.2-9.6 73.6-44.8 80-54.4 16 12.8 60.8 57.6 60.8 57.6s9.6 32 0 48c-9.6 3.2-9.6 3.2-9.6 3.2z" />
<glyph unicode="&#xe900;" glyph-name="acupuncture" d="M422.048 362.085l-73.408 18.144c-7.072 1.728-14.208-2.432-16-9.344s2.464-13.952 9.536-15.68l22.112-5.472-2.976-11.872-8.64 2.144c-4.448 1.088-8.96-1.536-10.080-5.92-1.12-4.352 1.568-8.8 6.016-9.888l8.736-2.176-2.272-8.992-8.8 2.176c-4.448 1.088-8.96-1.536-10.080-5.92-1.12-4.352 1.568-8.8 6.016-9.888l8.896-2.208-2.272-8.992-8.96 2.208c-4.448 1.088-8.96-1.536-10.080-5.92s1.568-8.8 6.016-9.888l9.024-2.24-2.272-9.024-9.088 2.24c-4.448 1.088-8.96-1.536-10.080-5.888s1.568-8.8 6.016-9.888l9.184-2.272-2.272-9.024-9.216 2.272c-4.448 1.088-8.96-1.536-10.080-5.888s1.568-8.8 6.016-9.888l9.312-2.304-2.272-9.024-9.376 2.304c-4.448 1.088-8.96-1.536-10.080-5.888s1.632-8.768 6.080-9.856l46.336-11.456c4.448-1.12 8.96 1.536 10.080 5.888s-1.568 8.8-6.016 9.888l-6.944 1.728 2.272 9.024 7.008-1.728c4.448-1.088 8.96 1.536 10.080 5.92 1.12 4.352-1.568 8.8-6.016 9.888l-7.104 1.728 2.272 9.024 7.136-1.76c4.448-1.12 8.96 1.536 10.112 5.888 1.12 4.352-1.568 8.8-6.016 9.888l-7.232 1.792 2.272 9.024 7.296-1.792c4.448-1.088 8.992 1.536 10.080 5.92 1.12 4.352-1.568 8.8-6.048 9.888l-7.36 1.824 2.272 8.992 7.424-1.824c4.448-1.12 8.992 1.536 10.080 5.92s-1.568 8.8-6.048 9.888l-7.52 1.856 2.272 9.024 7.584-1.888c4.448-1.12 8.96 1.536 10.080 5.888s-1.568 8.8-6.016 9.888l-7.68 1.888 2.976 11.872 21.28-5.248c7.072-1.728 14.208 2.464 16 9.376 1.76 6.912-2.528 13.92-9.568 15.648zM326.336 186.533l-36.576-136.32 17.312-3.968 38.464 135.040zM168.192 202.117l-17.536-3.2 26.944-155.488 17.984 3.552zM248.928 187.813h17.792v-140.8h-17.792v140.8zM177.312 229.189l-6.432-0.96-1.472 9.184 6.496 0.96c4.544 0.672 7.68 4.832 6.976 9.28-0.64 4.416-4.864 7.488-9.408 6.816l-6.592-0.96-1.472 9.184 6.656 0.992c4.544 0.672 7.68 4.8 7.008 9.248-0.704 4.448-4.928 7.488-9.472 6.848l-6.752-0.992-1.472 9.152 6.816 0.992c4.544 0.672 7.68 4.832 6.976 9.28-0.672 4.448-4.896 7.52-9.44 6.848l-6.88-1.024-1.472 9.184 6.944 1.024c4.544 0.672 7.68 4.8 6.976 9.248-0.64 4.448-4.864 7.52-9.44 6.848l-7.040-1.024-1.44 9.152 7.104 1.024c4.544 0.672 7.68 4.8 7.008 9.248-0.704 4.48-4.928 7.552-9.472 6.912l-7.2-1.056-1.92 12.064 21.088 3.104c7.2 1.056 12.16 7.648 11.072 14.688-1.056 7.040-7.776 11.872-14.976 10.848l-74.88-10.976c-7.2-1.056-12.16-7.616-11.072-14.656s7.776-11.936 14.976-10.88l19.296 2.848 1.92-12.064-5.536-0.864c-4.544-0.672-7.68-4.8-6.976-9.248 0.672-4.448 4.896-7.52 9.44-6.848l5.664 0.832 1.44-9.152-5.728-0.864c-4.544-0.672-7.68-4.832-7.008-9.28s4.896-7.52 9.44-6.848l5.824 0.864 1.44-9.152-5.856-0.896c-4.544-0.64-7.648-4.8-6.976-9.248s4.896-7.52 9.44-6.848l5.952 0.864 1.44-9.184-5.984-0.864c-4.544-0.672-7.68-4.8-6.976-9.248 0.672-4.448 4.896-7.52 9.44-6.848l6.112 0.896 1.472-9.184-6.176-0.928c-4.544-0.672-7.68-4.8-6.976-9.248 0.672-4.448 4.896-7.52 9.44-6.848l6.272 0.928 1.472-9.184-6.368-0.928c-4.544-0.672-7.68-4.8-6.976-9.248 0.672-4.448 4.896-7.52 9.44-6.848l47.264 6.944c4.544 0.672 7.68 4.8 6.976 9.248-0.672 4.416-4.896 7.488-9.44 6.848zM297.6 380.357l-75.712 0.32c-7.264 0.032-13.184-5.696-13.216-12.832s5.824-12.96 13.12-12.992l20.288-0.064v-12.224l-6.4 0.032c-4.608 0.032-8.32-3.616-8.352-8.096 0-4.512 3.68-8.192 8.288-8.224l6.464-0.032v-9.28l-6.496 0.064c-4.608 0-8.352-3.616-8.352-8.128s3.68-8.16 8.288-8.192l6.592-0.032v-9.28l-6.656 0.032c-4.608 0.032-8.32-3.616-8.352-8.096 0-4.512 3.68-8.16 8.288-8.192l6.688-0.032v-9.28l-6.72 0.032c-4.608 0-8.32-3.616-8.352-8.096-0.032-4.512 3.68-8.16 8.256-8.192l6.816-0.032v-9.28l-6.848 0.032c-4.608 0-8.32-3.616-8.352-8.128 0-4.48 3.68-8.16 8.288-8.16l6.912-0.032v-9.28l-6.976 0.032c-4.576 0-8.32-3.616-8.32-8.128 0-4.48 3.68-8.16 8.256-8.192l47.776-0.192c4.608-0.032 8.352 3.616 8.352 8.096 0.032 4.512-3.68 8.192-8.256 8.192l-5.952 0.032v9.28l5.984-0.032c4.608-0.032 8.32 3.616 8.352 8.128 0.032 4.48-3.68 8.16-8.288 8.16l-6.048 0.032v9.28l6.112-0.032c4.608-0.032 8.32 3.616 8.352 8.096 0 4.544-3.712 8.192-8.288 8.224l-6.176 0.032v9.28l6.208-0.032c4.608-0.032 8.32 3.616 8.352 8.096 0 4.512-3.68 8.16-8.288 8.192l-6.272 0.032v9.28l6.336-0.032c4.608-0.032 8.352 3.616 8.352 8.128s-3.68 8.16-8.288 8.192l-6.4 0.032v9.28l6.432-0.032c4.608-0.064 8.352 3.584 8.352 8.064 0.032 4.512-3.68 8.16-8.288 8.192l-6.496 0.032v12.224l20.544-0.096c7.264-0.032 13.184 5.728 13.216 12.864s-5.824 12.928-13.12 12.96z" />
<glyph unicode="&#xe901;" glyph-name="birth" d="M299.232 183.237c-2.144 0-4.256 0.32-6.304 0.928-5.824 1.824-10.752 4.928-13.472 10.592-4.16 8.736-2.432 24.672 3.712 24.672h-27.168v160h-24.288c-74.944 0-135.712-71.456-135.712-149.376 0-43.168 18.688-85.856 48.064-111.744 7.36 12.416 20.448 18.72 35.488 18.72 23.040 0 41.76-20.512 41.76-44.448 0-3.552-0.512-2.144-1.28-5.44 3.84-0.32 7.744 4.288 11.68 4.288 0.48 0 0.96 0 1.44 0-0.864 0-1.44 1.696-1.44 5.44 0 23.936 18.72 40.736 41.76 40.736 17.344 0 32.224-12.384 38.528-28.064 33.344 25.536 55.104 65.76 55.392 112.064l-57.024-34.912c-3.392-2.048-7.232-3.456-11.136-3.456zM179.52 124.101c-17.28 0-31.328-14.592-31.328-32.544s14.048-32.544 31.328-32.544 31.328 14.592 31.328 32.544c0 17.952-14.048 32.544-31.328 32.544zM179.52 80.709c-5.76 0-10.432 4.864-10.432 10.848s4.672 10.848 10.432 10.848c5.76 0 10.432-4.864 10.432-10.848s-4.672-10.848-10.432-10.848zM273.504 124.101c-17.28 0-31.328-14.592-31.328-32.544s14.048-32.544 31.328-32.544 31.328 14.592 31.328 32.544c-0.032 17.952-14.080 32.544-31.328 32.544zM273.504 80.709c-5.76 0-10.432 4.864-10.432 10.848s4.672 10.848 10.432 10.848 10.432-4.864 10.432-10.848-4.672-10.848-10.432-10.848zM414.784 275.333c-1.44 3.008-4 5.248-7.104 6.176-1.088 0.352-2.208 0.512-3.328 0.512-2.048 0-4.064-0.544-5.856-1.632l-105.152-63.744c-5.28-3.2-7.264-10.144-4.544-15.872 1.44-3.008 4.032-5.248 7.104-6.176 1.088-0.352 2.208-0.512 3.328-0.512 2.048 0 4.064 0.544 5.888 1.632l105.12 63.744c5.28 3.232 7.264 10.176 4.544 15.872z" />
<glyph unicode="&#xe902;" glyph-name="chiropractor" d="M192.576 311.941c1.152-0.416 2.336-0.768 3.584-1.056 6.464-1.44 13.472-0.8 19.744 1.792 2.688 1.152 5.216 2.496 7.68 3.776 2.752 1.472 5.344 2.848 8.032 3.84 1.888 0.704 3.648 0.896 5.088 0.576 2.912-0.64 4.192-3.424 4.768-5.664 1.344-5.28 3.040-10.528 6.464-14.496 0.832-0.96 1.76-1.888 2.848-2.688 1.92-1.344 4.544-2.656 7.328-3.296 2.72-0.608 5.824-0.832 9.984-0.736 1.376 0.032 29.472 1.376 40.736 0.96 12.128-0.416 19.904 2.112 23.744 7.808 3.744 5.568 3.104 13.088-2.048 23.008-4.128 8-3.648 17.248-1.216 24.256 1.504 4.032-0.8 16.96-4.736 21.76-2.24 2.688-5.024 4.448-8.32 5.184-2.592 0.576-5.184 0.48-7.68 0.032-2.4-0.448-21.76-6.304-24.064-6.88-10.304-2.56-29.504-3.552-33.536-4.192-3.392-0.544-6.88-0.96-9.664-0.32-1.6 0.352-3.712 1.152-5.888 4.224-2.464 3.424-6.976 4.64-8.288 4.928-1.504 0.352-2.912 0.32-4.256 0.288-8.896-0.224-11.072-19.84-12.48-19.808-1.376 0.032-6.432 0.768-8.192 1.152-1.312 0.32-2.752 0.64-4.384 1.024l-0.352 0.096c-9.568 2.144-16.16-0.448-19.52-7.744-3.968-8.544-0.896-25.792 5.76-32.352 2.432-2.368 5.44-4.224 8.864-5.472zM322.624 287.013c-7.808-1.792-64.032-2.272-66.048-1.728-1.824 0.48-4.192 1.472-6.272 4.864-1.536 2.496-5.088 4.992-8.256 5.856-1.408 0.384-2.752 0.448-4 0.192-4.32-0.928-7.52-4.288-8.672-7.040-1.568-3.712-0.864-8.736-3.328-9.216-0.128-0.032-2.336 0.128-6.176 1.152-1.92 0.512-4.896 1.376-7.584 2.208-4.896 1.28-12.832 1.376-16.128-0.288-2.048-1.024-2.976-2.944-3.136-3.776-1.632-8.224-2.88-16.256-0.64-24.128 1.728-6.048 7.072-10.688 14.624-12.704 3.36-0.896 7.072-1.216 10.72-0.96 5.792 0.416 11.168 1.984 16.32 3.456 1.6 0.448 3.2 0.928 4.768 1.344 3.424 0.928 5.696 1.056 7.136 0.928 0.512-0.064 0.896-0.128 1.216-0.224 2.336-0.608 3.744-3.424 4.192-8.288 0.128-1.536 2.176-9.728 5.568-12.8 3.424-3.072 6.72-7.424 16.16-8.608 7.456-0.928 34.848-1.6 53.664-2.912 1.632 0.032 4.992 0.512 5.152 0.544 1.248 0.256 2.624 0.672 3.904 1.248s2.56 1.408 4.448 3.168c1.888 1.76 4.384 7.296 1.28 15.104-4.576 11.584-5.376 19.040-1.408 26.944 2.464 4.928 2.304 14.464-0.736 18.88-0.96 1.408-2.176 2.624-3.584 3.616-0.288 0.192-1.888 1.44-4 2.080-2.912 0.896-6.944 1.6-9.184 1.088zM337.856 196.037c-1.152 1.76-3.232 3.488-5.152 4.192-1.28 0.448-34.816 3.456-57.312 7.2-12.288 2.048-19.328 7.040-20.736 8.352-3.36 3.072-4.288 9.952-5.568 11.52-0.704 0.832-4.384 5.248-9.28 3.872-2.24-0.64-4.032-3.040-5.632-5.152-3.84-5.088-5.536-4.448-7.2-3.808-1.216 0.448-2.688 1.28-4.448 2.432-4.608 3.104-8 4.992-10.944 6.112-3.84 1.472-7.264 1.696-10.176 0.704-4.832-1.696-7.392-6.336-9.504-12.832-4.864-14.944 5.984-25.6 13.76-28.576 2.88-1.12 6.24-1.984 9.952-2.624 5.216-0.896 10.464-0.608 14.688-0.416 5.312 0.256 8.064-0.32 9.44-0.832 1.056-0.416 3.84-1.472 2.24-10.144-0.128-0.64-1.376-11.264 4.672-14.624 7.008-3.904 37.728-15.168 60.064-24.608 6.112-1.504 11.68-1.056 15.616 1.44 4.608 2.912 6.464 8.096 5.248 14.56-1.792 9.536 0.448 16.928 7.232 23.968 2.464 2.528 4.096 5.216 4.896 7.936s0.8 4.16 0.192 6.624c-0.192 0.832-0.896 2.976-2.048 4.704zM310.528 126.885c-3.648 2.112-47.52 18.88-47.52 18.88l0.448-0.128c-4.384 1.568-8.768 3.104-13.152 4.672-6.528 2.56-10.88 3.488-12.512 7.808-0.8 4.384-3.904 8.288-7.552 8.96-4.16 0.768-7.072 0.768-9.696-2.080-1.888-1.76-2.912-2.592-4.896-4.096-1.952-1.472-6.976 2.656-9.248 5.024-4.544 4.704-8.288 6.976-11.872 7.872-9.888 2.528-16.16-6.592-18.464-9.984-0.736-1.088-8.224-11.2-6.976-18.944 1.376-8.544 12.48-14.88 19.488-16.896 5.28-1.792 10.88-2.336 16.512-2.88 1.92-0.032 8.864-0.928 10.112-1.696s2.144-0.992 2.368-1.92c0.672-1.056-0.032-5.728-0.224-6.56-0.544-2.080-2.048-6.112-2.24-6.944-0.32-1.248-1.408-3.424-1.28-6.496 0.128-3.040 0.576-3.424 2.592-5.344 1.984-1.92 40.32-19.744 44-22.688s7.072-7.616 8.768-8.864c1.664-1.248 5.216-2.656 7.040-2.912 5.472-0.8 9.216 0.992 11.648 3.008 4.64 3.232 7.136 9.248 7.904 17.888 0.544 7.808 3.264 12.864 8.704 17.248 2.336 1.632 4.864 4.064 6.944 6.624 4.512 4.608 5.888 9.984 4.608 14.304-0.256 0.992-1.856 4-5.504 6.144z" />
<glyph unicode="&#xe903;" glyph-name="dental" d="M409.376 396.773c-49.376 28.928-105.472-0.384-114.464-2.144-12.256-2.4-21.984-5.984-38.528-6.208s-25.44 3.808-37.696 6.208c-8.992 1.76-61.536 31.776-114.016 7.104-45.376-21.312-44.512-57.056-36.352-93.248 8.928-39.616 33.728-127.584 44.672-165.824 14.624-60.096 43.392-115.872 81.984-115.232 14.368 0.256 26.656 6.848 32.928 17.728 5.536 9.632 6.464 22.592 7.552 37.6 1.6 22.432 3.744 49.344 21.344 67.008 17.6-17.664 19.744-44.608 21.344-67.008 1.088-15.008 2.016-27.936 7.552-37.6 6.24-10.848 18.56-17.472 32.928-17.728 38.592-0.64 67.36 55.136 81.952 115.232 10.944 38.24 35.744 126.208 44.672 165.824 8.16 36.192-1.28 68-35.872 88.288zM207.904 346.853c2.464 8.288 14.176 6.304 17.024 5.536 0 0 22.848-3.904 33.056-3.68 11.552 0.256 30.688 3.68 30.688 3.68 2.848 0.768 14.528 2.752 17.024-5.536 1.44-4.8-4.736-9.056-13.856-12.32-3.2-1.152-18.464-4.256-34.4-4.256s-32.512 3.104-35.68 4.256c-9.12 3.264-15.296 7.52-13.856 12.32zM374.112 125.605c-9.632-34.4-26.528-79.744-52.544-80.96-18.816-0.864-23.744 19.936-24.576 31.776-1.728 24.256 0.96 58.24-22.432 82.144l-5.6 4.928c-7.36 6.464-18.528 6.048-25.344-0.928l-4.384-4.48c-23.392-23.904-21.984-55.808-23.712-80.224-0.832-11.68-2.112-31.328-26.272-30.336-23.136 0.96-36.768 35.776-48.448 80-6.176 23.392-15.68 55.392-24.416 87.744 14.336 10.080 40.928 36.928 75.104 38.176 27.264 0.992 52.256-7.648 70.24-12.384 9.824-2.592 42.88-8.96 75.104-8.96 22.88 0 54.528-13.344 60.448-16.704-8.672-32-17.376-69.12-23.168-89.792z" />
<glyph unicode="&#xe904;" glyph-name="generaldental" d="M416.896 368.773c-39.744 24.256-84.928-0.32-92.192-1.792-9.856-2.016-20.224-3.84-30.688-4.608-10.432 0.768-20.8 2.592-30.688 4.608-7.232 1.472-47.232 21.184-94.72 1.6-26.080-10.72-32.896-43.424-26.336-73.728 2.016-9.376 5.088-22.016 8.64-36 11.136 7.552 24.928 11.808 40.512 11.808 41.088 0 74.528-34.464 74.528-76.8s-28.8-71.776-69.92-71.776c-2.688 0-5.344 0.32-8 0.608 12.96-35.84 32.224-63.648 56.192-63.232 11.552 0.192 21.472 5.76 26.496 14.848 4.448 8.064 5.216 18.912 6.080 31.488 1.312 18.784 3.040 41.344 17.184 56.128 14.176-14.816 15.904-37.344 17.184-56.128 0.864-12.576 1.632-23.424 6.080-31.488 5.024-9.088 14.944-14.624 26.496-14.848 31.072-0.544 54.24 46.176 66.016 96.512 8.832 32.032 28.8 105.696 35.968 138.88 6.624 30.304-0.96 56.96-28.832 73.92zM322.24 307.045c-2.56-0.96-14.88-3.584-27.712-3.584s-26.144 2.624-28.736 3.584c-7.328 2.752-12.288 6.304-11.136 10.336 1.984 6.944 11.424 5.28 13.696 4.64 0 0 18.4-3.264 26.624-3.072 9.312 0.224 24.704 3.072 24.704 3.072 2.272 0.64 11.712 2.304 13.696-4.64 1.184-4.032-3.776-7.584-11.136-10.336zM246.72 196.325c0 30.144-23.712 53.792-52.928 54.56-30.336 0.8-54.016-28.416-53.44-52 0.192-7.2 0.288-21.248 6.4-31.2l-27.168-28c-0.576 0.064-11.52-0.544-20.416-8.8 0 0-20.16-18.528-26.208-25.216s-15.264-21.504-2.72-32.8c12.096-10.912 22.080-2.848 30.464 4.992 8.544 8 25.632 25.216 25.632 25.216 5.792 5.952 8.64 12.832 7.968 19.808l27.84 29.792c8.832-6.784 19.744-10.88 31.616-10.88 29.248-0.032 52.96 24.384 52.96 54.528zM162.656 197.029c0 18.24 14.4 33.056 32.096 33.056s32.096-14.848 32.096-33.056-14.4-33.056-32.096-33.056c-17.696 0-32.096 14.816-32.096 33.056z" />
<glyph unicode="&#xe905;" glyph-name="heartsurgery" d="M332.992 370.917c-31.104 0-58.848-10.752-76.992-33.664-18.144 22.912-45.888 33.664-76.992 33.664-54.688 0-99.008-45.216-99.008-100.992 0-112.224 147.136-201.984 176-201.984s176 89.76 176 201.984c0 55.776-44.32 100.992-99.008 100.992zM316.512 201.637c8.576-8.736 8.576-23.008 0-31.744l-17.44-17.792c-4.16-4.256-9.664-6.56-15.552-6.56s-11.392 2.336-15.552 6.56l-11.968 12.192-11.936-12.192c-4.16-4.256-9.664-6.56-15.552-6.56s-11.392 2.336-15.552 6.56l-17.472 17.792c-8.576 8.736-8.576 23.008 0 31.744l11.936 12.192-11.936 12.16c-8.576 8.736-8.576 23.008 0 31.744l17.44 17.792c4.16 4.256 9.664 6.56 15.552 6.56s11.392-2.336 15.552-6.56l11.968-12.16 11.936 12.192c4.16 4.256 9.664 6.56 15.552 6.56s11.392-2.336 15.552-6.56l17.44-17.792c8.576-8.736 8.576-23.008 0-31.744l-11.936-12.192 11.968-12.192zM308.736 249.797c4.288-4.384 4.288-11.488 0-15.872l-16.928-17.28c-0.8 1.984-1.888 3.872-3.392 5.504l-20.096 21.92c-2.848 3.104-6.496 4.864-10.336 5.44l17.728 18.080c2.144 2.176 4.96 3.296 7.776 3.296s5.632-1.088 7.776-3.296l17.472-17.792zM236.288 267.589l17.6-17.952c-3.872-0.288-7.648-1.824-10.688-4.704l-18.656-17.824c-2.784-2.656-4.512-5.984-5.216-9.536l-16.064 16.352c-4.288 4.384-4.288 11.488 0 15.872l17.44 17.792c2.144 2.176 4.96 3.296 7.776 3.296 2.848 0 5.664-1.088 7.808-3.296zM293.152 209.573l15.552-15.872c4.288-4.384 4.288-11.488 0-15.872l-17.44-17.792c-2.144-2.208-4.96-3.296-7.776-3.296s-5.632 1.088-7.776 3.296l-14.24 14.528c2.688 0.768 5.248 2.080 7.424 4.16l18.656 17.792c3.712 3.52 5.568 8.288 5.6 13.056zM243.776 179.589c2.048-2.208 4.48-3.712 7.104-4.64l-14.592-14.912c-2.144-2.208-4.96-3.296-7.776-3.296s-5.632 1.088-7.776 3.296l-17.472 17.792c-4.288 4.384-4.288 11.488 0 15.872l16.096 16.416c0.64-3.104 2.048-6.112 4.352-8.608l20.064-21.92z" />
<glyph unicode="&#xe906;" glyph-name="joint" d="M364.608 379.429h-80.384c0 0-10.048-29.984-37.184-41.92-35.744-15.68-58.432-18.656-74.016-26.816-29.088-15.2-30.336-59.68-4.32-70.4 24.384-10.048 35.296 3.264 66.656-10.24 34.816-14.656 23.584-30.336 52.96-44.8 18.88-9.28 44.448-9.12 57.888 10.4 17.024 24.704 8.544 77.312-4.384 100.704-9.152 16.512 22.784 83.072 22.784 83.072zM271.52 167.717c-30.464 16.896-24.448 49.472-71.104 51.36-20.32 1.248-38.72-9.408-43.808-19.424-6.336-12.544 3.136-46.048 14.592-62.912 0 0 9.152-11.808-0.48-33.76-8.704-19.872-23.328-43.552-23.328-43.552h90.624c0 0 9.376 23.040 25.248 34.944 16.416 12.288 12.064 11.616 43.168 24.128 13.344 9.408 14.304 24.256 11.424 30.24-4.768 9.984-31.968 10.976-46.336 18.976z" />
<glyph unicode="&#xe907;" glyph-name="massage" d="M325.856 335.909c-15.2 3.072-39.040 9.728-50.304 12.32-7.872 1.824-34.016 2.080-34.368 4.16s28.192 0 34.368-0.704c8.672-0.96 24.608-7.744 30.016-9.024 18.112-4.256 24.608-7.744 30.72 0 5.728 7.296 0.704 16.384-17.184 22.208-5.792 1.888-28.48 12-48.416 15.296-17.792 2.912-38.528 10.752-55.2 2.24 8.096 16 3.584 32.64-2.848 34.176-12.992 3.168-23.616-17.024-34.592-29.92-7.488-8.768-32.864-23.552-39.712-26.944-18.272-9.056-22.272-15.264-32.448-26.016-5.184-5.504-13.76-27.68-16.48-34.464-1.568-7.936-10.176-45.76-7.936-65.952 2.784-24.992 46.272-33.344 90.848-19.2 28.448 9.024 48.992 27.584 61.44 45.28 12.32-2.592 13.216-2.4 19.968-3.808 13.536-2.816 31.968-3.84 39.904-6.24 16.608-5.024 31.552-2.048 32.832 3.744 1.952 8.896-8.992 13.216-25.6 18.24-8.32 2.496-37.216 9.152-42.144 10.72-4.064 1.28-18.208 5.472-18.208 5.472s12.736-0.256 17.408-0.768c4.672-0.512 12.064-1.12 19.52-2.464 14.816-2.752 37.792-5.312 44.544-5.696 9.248-0.544 19.584-1.44 22.080 6.336s-2.944 12.416-17.12 16.064c-13.12 3.36-55.232 12.32-63.904 14.304-4.32 0.992-19.136 1.728-18.912 2.944 0.352 1.92 14.624 1.12 25.344 0.352 14.304-1.024 42.336-3.808 54.496-6.080 21.408-3.968 26.88-4.16 30.016 5.728 2.784 8.896-4 12.832-28.128 17.696zM184.8 343.205c0 0-10.080-16.896-11.84-19.744-5.344-8.64-8.384-14.112-12.48-17.568-1.632-1.376-12.704-9.984-18.4-10.304-1.696-0.096-0.64 5.12-0.288 5.152 1.824 0.096 9.344 4.032 16.704 10.4 4.608 3.968 7.072 10.176 9.76 14.528 2.368 3.872 13.824 20.8 13.824 20.8s2.176 1.888 3.264 0.512c1.216-1.568-0.544-3.776-0.544-3.776zM226.496 266.501c-0.32-0.832-1.024-2.176-3.104-2.336s-2.656 2.144-2.272 3.168c5.312 13.952 5.568 22.656 5.856 32.736 0.128 4.608-1.792 16.672-1.152 22.368 1.216 11.136-1.504 21.92-8.16 28.992-0.832 0.864-0.416 2.048 0.864 2.624 1.344 0.576 3.040 0.352 3.84-0.512 7.136-7.584 10.208-18.912 8.896-30.848-0.576-5.6 1.408-17.984 1.28-22.56-0.32-10.304-0.576-19.232-6.048-33.632zM89.088 299.237c-0.896-2.912-0.64-2.4 0.32 0 0.384 1.888 0.352 2.112-0.32 0zM422.912 139.621c0.896 2.912 0.64 2.4-0.32 0-0.384-1.888-0.352-2.112 0.32 0zM430.528 205.573c-2.784 24.992-46.272 33.344-90.848 19.2-28.448-9.024-48.992-27.584-61.44-45.28-12.288 2.592-13.152 2.4-19.904 3.808-13.536 2.816-31.968 3.84-39.904 6.24-16.608 5.024-31.584 2.048-32.864-3.744-1.952-8.896 8.992-13.216 25.6-18.24 8.288-2.496 37.184-9.152 42.112-10.72 4.064-1.28 18.208-5.472 18.208-5.472s-12.768 0.256-17.44 0.768-12.064 1.12-19.52 2.464c-14.784 2.752-37.76 5.312-44.512 5.696-9.248 0.544-19.584 1.44-22.080-6.336s2.944-12.416 17.12-16.064c13.12-3.36 55.232-12.32 63.904-14.304 4.32-0.992 19.136-1.76 18.912-2.944-0.352-1.92-14.624-1.12-25.344-0.352-14.304 1.024-42.336 3.808-54.496 6.080-21.408 3.968-26.88 4.16-30.016-5.728-2.816-8.896 4-12.832 28.096-17.696 15.2-3.072 39.040-9.728 50.304-12.32 7.872-1.824 34.016-2.080 34.368-4.16s-28.192 0-34.368 0.704c-8.672 0.96-24.608 7.744-30.016 9.024-18.112 4.256-24.608 7.744-30.72 0-5.728-7.296-0.704-16.384 17.184-22.208 5.792-1.888 28.48-11.968 48.416-15.264 17.792-2.944 38.528-10.752 55.2-2.272-8.096-16-3.584-32.64 2.848-34.176 12.96-3.136 23.584 17.056 34.592 29.952 7.456 8.736 32.864 23.52 39.68 26.912 18.304 9.056 22.272 15.264 32.448 26.016 5.184 5.504 13.76 27.68 16.48 34.464 1.632 7.936 10.24 45.76 8 65.952zM293.472 84.805c-1.344-0.576-3.040-0.352-3.84 0.512-7.136 7.584-12.288 19.52-10.048 30.72 1.088 5.504 0.512 18.176-0.096 22.688-1.6 11.392 0.576 19.232 6.016 33.632 0.32 0.832 1.024 2.176 3.104 2.336s2.656-2.144 2.272-3.136c-5.28-13.952-6.656-22.688-5.856-32.736 0.384-4.832 1.696-16.544 0.096-22.912-2.72-10.88 2.56-21.376 9.216-28.48 0.832-0.864 0.416-2.048-0.864-2.624zM370.208 138.117c-1.824-0.096-9.344-4.032-16.704-10.4-4.608-3.968-7.072-10.176-9.728-14.528-2.4-3.84-13.824-20.8-13.824-20.8s-2.176-1.888-3.264-0.512c-1.216 1.568 0.544 3.776 0.544 3.776s10.080 16.896 11.84 19.744c5.344 8.64 8.384 14.112 12.48 17.568 1.632 1.376 12.704 9.952 18.4 10.304 1.664 0.096 0.608-5.12 0.256-5.152z" />
<glyph unicode="&#xe908;" glyph-name="naturopathy" d="M239.776 251.429l-110.432 115.68c-6.976 7.264-16.704 12.064-26.944 12.256-10.24 0.16-20.128-3.36-27.36-10.368-14.368-13.92-14.784-37.472-0.896-51.84l62.368-65.728h103.264zM442.336 215.813c-4.512 5.088-11.072 3.616-17.984 3.616h-296.192c-6.88 0-13.44 1.472-17.952-3.616-4.48-5.056-6.464-9.6-5.408-16.192 13.088-80.16 84.864-140.32 171.456-140.32s158.368 59.648 171.456 139.776c1.088 6.592-0.896 11.68-5.376 16.736z" />
<glyph unicode="&#xe909;" glyph-name="optical" d="M392.064 269.413c-18.176 16.32-61.536 57.28-126.528 61.568-125.12 8.192-202.048-97.632-201.536-112.64 0.768-23.072 53.216-113.824 198.624-110.848 124.544 2.528 185.44 78.592 185.376 95.008-0.032 9.824-23.616 37.856-55.936 66.912zM88.096 218.277c17.216 22.944 33.984 45.6 92.48 71.392-20-19.424-24.8-41.184-24.8-71.328 0-30.24 12.576-57.504 32.704-76.96-58.080 19.616-92.512 50.784-100.384 76.896zM262.4 131.013c-48.032 0-87.072 39.2-87.072 87.36s36.352 79.776 84.384 79.776 89.792-31.616 89.792-79.776c0-48.192-39.072-87.36-87.104-87.36zM336.576 141.605c20 19.456 32.48 46.624 32.48 76.768 0 30.24-14.56 52.896-19.68 60.608 50.592-38.048 79.040-76.16 78.752-76.448-4.704-13.504-33.856-41.184-91.552-60.928zM319.648 252.773c0.064-0.608 0.192-1.184 0.192-1.824 0-11.552-9.344-20.928-20.864-20.928s-20.864 9.376-20.864 20.928c0 11.552 9.344 20.928 20.864 20.928 1.376 0 2.72-0.16 4.032-0.416-11.264 8.704-25.312 13.92-40.608 13.92-36.896 0-66.816-30.016-66.816-67.008s29.92-67.008 66.816-67.008 66.816 30.016 66.816 67.008c0 12.576-3.52 24.352-9.568 34.4z" />
<glyph unicode="&#xe90a;" glyph-name="physiotherapy" d="M171.744 362.853c0 26.656-21.632 48.224-48.352 48.224s-48.352-21.6-48.352-48.224 21.632-48.256 48.352-48.256c26.688 0 48.352 21.6 48.352 48.256zM195.712 159.813l-68.928 25.856-15.584 37.152c-3.104 7.456 0.608 16 8.16 18.784l18.112-43.488 52.48-19.328v53.152l9.792-20.96c2.496 4.672 5.664 9.792 13.888 12.928 12.704 4.832 15.040 2.4 21.056 1.28-19.136 30.816-37.952 63.168-40.16 65.472-4.224 4.192-13.856 11.104-32 11.104h-65.184c-37.056 0-44.192-36.928-36.608-56.064l34.112-82.72c2.112-4.768 6.048-8.576 10.976-10.336l74.72-27.52c9.568-4.192 20.736 0.16 24.928 9.728 4.192 9.6-0.16 20.736-9.76 24.96zM92.672 139.109c-5.248 3.616-14.208 14.944-14.208 14.944v-25.76h38.144c0-0.032-18.592 7.104-23.936 10.816zM366.816 98.949c0-23.968 19.52-43.456 43.552-43.456s43.584 19.488 43.584 43.456c0 24.064-19.552 43.456-43.584 43.456-24.032 0.032-43.552-19.392-43.552-43.456zM348.768 99.077c-6.4 6.016-9.024 7.52-25.984 10.912-19.008 14.496-57.44 42.432-57.44 42.432s-20.448 39.584-23.168 45.76c-6.976 15.744-16.352 14.528-23.008 11.808-6.816-2.784-13.92-9.984-9.376-21.792 4.064-10.592 15.808-44.576 22.144-53.344 3.52-4.896 22.016-16.384 32.256-25.344l-185.632-0.064v-81.632h64.512c-3.584 5.792-5.6 12.64-5.088 20.064 1.216 18.4 17.792 32.032 36.224 32.032h72.128l49.888 10.912c0 0 9.024 1.696 11.68-4.704 1.984-4.8-3.456-10.72-10.080-12.096l-49.824-10.4h-74.944c-8.864 0-17.088-6.048-18.592-14.784-1.888-11.136 6.528-20.768 17.28-20.992l146.848-0.032c22.72 0.192 41.28 18.496 40.96 41.12-0.096 6.464-4.384 24.096-10.784 30.144z" />
<glyph unicode="&#xe90b;" glyph-name="podiatry" d="M336.512 346.117c23.040 19.008-3.264 38.048-18.944 26.592 0 0-14.496-12.416-9.28-24.768 7.52-17.824 28.224-1.824 28.224-1.824zM332.48 317.477c6.144-15.904 24.832-2.304 24.832-2.304 20.832 16.192-1.792 33.632-15.968 23.904 0 0.032-13.12-10.528-8.864-21.6zM280.384 351.493c3.584 0.896 9.024 1.344 21.568 20.896 9.152 14.24 6.048 27.456-1.728 32-34.624 20.192-54.24-7.84-60.384-24.064-4.256-11.328-6.848-17.184-1.312-21.056 5.504-3.904 36.864-8.736 41.856-7.776zM290.944 333.733c-5.856 2.912-44.576 15.776-56.224 14.336-10.944-1.312-40.672-29.12-46.464-54.592-7.456-33.024 25.12-63.904 24.992-92.896-0.064-23.104 0.96-38.528-16.224-55.328-12.352-9.632-37.696-14.24-49.76-26.944-16-16.864-35.104-52.192 2.56-78.944 34.88-24.8 67.232-8.992 88.512 28.256 13.12 26.048 8.16 33.248 18.016 44.864 9.984 8.608 47.52 36.768 64.928 61.12 12.672 17.76 17.92 27.616 22.176 41.44 0.032 0.064 26.368 79.232-52.512 118.688zM371.936 284.229c18.656 13.376-0.384 29.216-12.992 21.216 0 0-11.776-8.768-8.448-18.464 4.736-13.952 21.44-2.752 21.44-2.752zM366.784 272.677c0 0-10.4-6.944-8.064-15.328 3.392-12.064 18.080-3.232 18.080-3.232 16.448 10.592 1.056 24.8-10.016 18.56z" />
<glyph unicode="&#xe90c;" glyph-name="psychology" d="M199.456 375.493c-10.432-3.264-28.768-10.912-35.68-26.112s-6.080-31.168-6.080-31.168-24.384-11.264-32.544-24.512c-7.296-11.808-7.744-35.392-7.744-35.392s-16.288-13.664-19.872-32.64c-4.16-22.144 6.496-46.912 6.496-46.912s-12-25.504-6.624-46.304c7.2-27.84 35.264-36.736 38.208-42.144 4.192-7.712 26.368-25.024 49.44-29.28 34.24-6.304 70.944 8.736 70.944 8.736v8.864c0 0 0 22.24 0 29.536v13.824l-18.176 7.456-21.44-18.496c-1.856-1.856-5.728-2.784-8.16-2.784s-5.6 0.928-7.456 2.784c-3.744 3.712-4.096 9.728-0.352 13.44l15.040 15.136-13.472 8c-1.568 0.928-2.848 2.272-3.68 3.904l-9.6 18.976c-2.368 4.704-0.48 10.4 4.256 12.736s10.464 0.448 12.8-4.256l13.984-16.512 36.256-18.208v107.488l-16.064-6.88-11.488-34.432c-1.088-4.32-6.4-7.2-10.688-7.2-0.768 0-2.272 0.096-3.040 0.288-5.12 1.28-8.576 6.432-7.296 11.52l7.744 31.488-23.168 15.264c-4.384 2.912-5.6 8.832-2.688 13.184 2.944 4.352 8.832 5.536 13.248 2.624l29.024-15.488 24.416 12.448v96.736c0 3.168-26.304 13.76-56.544 4.288zM163.264 147.173c0 0-31.584-15.872-34.56-16.768s-8.16-2.048-11.36 4.736c-4.192 8.896 4.288 11.84 5.984 12.768 3.296 1.792 26.56 13.952 26.56 13.952l-7.744 29.376c-1.28 5.088-0.128 10.368 4.992 11.616 5.088 1.28 10.304-1.792 11.584-6.912l9.568-37.984c1.088-4.288-0.992-8.8-5.024-10.784zM196.224 245.381c2.368-4.704 0.448-10.4-4.288-12.736l-19.104-9.504c-1.344-0.672-2.816-0.992-4.288-0.992-2.080 0-4.16 0.672-5.856 1.984l-27.168 20.992c0 0-6.72 4.896-2.048 12.256 3.584 5.664 8.64 5.632 11.648 3.008 5.824-5.056 23.872-18.688 23.872-18.688l15.84 6.816c4.736 2.336 9.024 1.568 11.392-3.136zM223.072 310.373l-19.104-18.976c-1.856-1.856-4.288-2.784-6.752-2.784-2.432 0-4.896 0.928-6.752 2.784-3.744 3.712-3.744 9.728 0 13.44l13.248 13.152-21.408 28.896c0 0-1.472 5.696 1.728 9.536 2.88 3.488 8.352 5.344 12.928 1.984 3.68-4.16 27.008-35.616 27.008-35.616 2.848-3.776 2.496-9.056-0.896-12.416zM408.288 180.485c0 0 20.288 52.224-12.352 84.672-5.568 30.080-15.136 41.152-39.808 54.592-0.8 18.976-8.768 40.416-21.952 50.144-12.352 9.088-23.712 10.112-37.376 9.28-14.912-0.896-18.176-8-18.176-8v-69.888l4.864 37.824c0.8 3.168 3.168 5.696 6.272 6.72l20.288 6.976c-0.064 0.032 7.776 3.456 12.128-3.36 4.576-7.136-7.136-14.336-7.552-13.248l-13.856-6.72-3.424-32.8c-0.544-2.144 0.544-7.68-7.264-12.64-4.672-2.976-11.424-3.872-11.424-3.872v-39.328l6.368 8.928c4.384 2.912 6.784 1.728 9.696-2.624 2.944-4.352 7.072-10.272 2.688-13.152l-18.752-15.968v-18.080l24.8 11.36c3.808 3.008 5.728 2.72 9.184-0.704l17.344-18.976c3.744-3.712 2.848-9.728-0.896-13.44s-10.208-3.712-13.952 0l-20.352 12.992-16.128-7.040v-37.216c0-2.624 0-3.936 0-3.936v-34.048c0-9.12 0-38.56 0-38.56 0-1.28 23.168-10.944 32.832-10.944 10.336 0 31.488 5.536 44.224 13.44s18.528 21.76 18.528 21.76 34.944 12.48 40.928 40.352c3.968 18.624-6.88 45.504-6.88 45.504zM330.976 260.869h-19.104c-5.28 0-9.568 4.256-9.568 9.504s4.288 9.504 9.568 9.504h11.648l5.024 19.36c0.8 3.552-0.288 4.384-0.992 5.536-1.536 2.432-4.864 8.32-3.968 11.072 0.768 2.464 8.736 9.152 14.24 9.088 2.752-0.032 9.696-6.624 11.136-14.24s-8.704-42.624-8.704-42.624c-1.056-4.256-4.896-7.2-9.28-7.2zM368.864 110.085c-5.12-5.024-10.816-1.024-13.568 3.648s-10.080 28.064-10.080 28.064l-18.496-12.288c-4.416-2.912-10.336-1.728-13.248 2.624-2.944 4.352-1.76 10.24 2.656 13.152l28.672 18.976c2.432 1.632 5.504 2.048 8.32 1.12 2.784-0.928 4.992-3.072 5.984-5.824 0 0 12.672-35.2 14.016-38.976 1.312-3.776-0.64-6.976-4.256-10.496zM383.84 230.949c-3.744-1.024-24.192-6.016-24.192-6.016v-21.056c0-5.248-4.288-9.504-9.568-9.504s-9.568 4.256-9.568 9.504v28.48c0 4.352 2.976 8.16 7.232 9.216 0 0 27.904 7.296 27.84 7.36 5.088-0.224 9.76-1.248 11.616-5.536 1.952-4.416 0.864-7.712-3.36-12.448z" />
</font>
</defs>
</svg>
