<?xml version="1.0" standalone="no"?>
<!DOCTYPE svg PUBLIC "-//W3C//DTD SVG 1.1//EN" "http://www.w3.org/Graphics/SVG/1.1/DTD/svg11.dtd" >
<svg xmlns="http://www.w3.org/2000/svg">
<metadata>Generated by IcoMoon</metadata>
<defs>
<font id="CTM" horiz-adv-x="1024">
<font-face units-per-em="1024" ascent="960" descent="-64" />
<missing-glyph horiz-adv-x="1024" />
<glyph unicode="&#x20;" horiz-adv-x="512" d="" />
<glyph unicode="&#xe600;" glyph-name="tick" d="M986.568 793.269l-1.924 1.924c-52.582 52.582-137.806 52.646-190.452 0.064l-441.694-400.526-120.042 120.364c-52.582 52.712-137.932 52.774-190.58 0.128l-2.436-2.438c-52.646-52.646-52.646-137.932 0-190.516l217.064-216.742c0 0 0 0 0 0l0.962-0.962c52.646-52.582 137.932-52.582 190.516 0l538.524 498.126c52.648 52.646 52.648 137.932 0.064 190.58z" />
<glyph unicode="&#xe601;" glyph-name="cross" d="M684.568 449.879l232.966 232.968c46.908 46.908 46.908 122.96 0 169.868l-1.698 1.7c-46.908 46.908-122.96 46.908-169.868 0l-232.966-232.968-232.966 232.968c-46.908 46.908-122.96 46.908-169.868 0l-1.698-1.7c-46.908-46.908-46.908-122.96 0-169.868l232.968-232.966-232.968-232.966c-46.908-46.908-46.908-122.96 0-169.868l1.698-1.698c46.908-46.908 122.96-46.908 169.868 0l232.966 232.966 232.966-232.966c46.908-46.908 122.96-46.908 169.868 0l1.698 1.698c46.908 46.908 46.908 122.96 0 169.868l-232.966 232.966z" />
<glyph unicode="&#xe602;" glyph-name="info" d="M513.452-63.765c-283.112 0-513.452 230.274-513.452 513.322s230.338 513.322 513.452 513.322c283.114 0 513.452-230.274 513.452-513.322s-230.338-513.322-513.452-513.322zM513.452 845.659c-218.476 0-396.23-177.692-396.23-396.102s177.754-396.166 396.23-396.166c218.476 0 396.23 177.692 396.23 396.166 0 218.412-177.692 396.102-396.23 396.102zM448.878 578.129h128.25v-448.876h-128.25v448.876zM448.878 770.505h128.25v-128.25h-128.25v128.25z" />
<glyph unicode="&#xe603;" glyph-name="circle-cut" d="M753.342 902.025c-72.014 38.796-154.35 60.856-241.688 60.856-282.152 0-511.654-229.824-511.654-512.298s229.504-512.298 511.654-512.298c282.086 0 511.592 229.824 511.592 512.298 0 36.23-3.784 71.564-10.966 105.678l-108.564-58.93c1.796-15.326 2.756-30.908 2.756-46.748 0-217.962-177.114-395.332-394.82-395.332s-394.82 177.37-394.82 395.332c0 217.962 177.114 395.332 394.82 395.332 59.060 0 115.17-13.082 165.57-36.424l76.116 92.534z" />
<glyph unicode="&#xe604;" glyph-name="left" d="M731.316 816.323h-146.558v-146.558h146.558v146.558zM731.316 523.175h-146.558v-146.558h146.558v146.558zM731.316 230.025h-146.558v-146.558h146.558v146.558zM586.298 376.583h-146.558v-146.558h146.558v146.558zM439.706 523.175h-146.558v-146.558h146.558v146.558zM586.298 669.733h-146.558v-146.558h146.558v146.558z" />
<glyph unicode="&#xe605;" glyph-name="right" d="M294.688 816.323h146.558v-146.558h-146.558v146.558zM294.688 523.175h146.558v-146.558h-146.558v146.558zM294.688 230.025h146.558v-146.558h-146.558v146.558zM439.706 376.583h146.558v-146.558h-146.558v146.558zM586.298 523.175h146.558v-146.558h-146.558v146.558zM439.706 669.733h146.558v-146.558h-146.558v146.558z" />
<glyph unicode="&#xe606;" glyph-name="down" d="M879.446 668.193v-146.558h-146.558v146.558h146.558zM586.298 668.193v-146.558h-146.558v146.558h146.558zM293.15 668.193v-146.558h-146.558v146.558h146.558zM439.706 523.175v-146.558h-146.558v146.558h146.558zM586.298 376.583v-146.558h-146.558v146.558h146.558zM732.856 523.175v-146.558h-146.558v146.558h146.558z" />
<glyph unicode="&#xe607;" glyph-name="up" d="M879.446 231.563v146.558h-146.558v-146.558h146.558zM586.298 231.563v146.558h-146.558v-146.558h146.558zM293.15 231.563v146.558h-146.558v-146.558h146.558zM439.706 376.583v146.558h-146.558v-146.558h146.558zM586.298 523.175v146.558h-146.558v-146.558h146.558zM732.856 376.583v146.558h-146.558v-146.558h146.558z" />
<glyph unicode="&#xe608;" glyph-name="phone" d="M860.528 197.929c0 0-89.038 58.258-128.538 84.356-15.1 10.036-30.492 15.1-45.658 15.1-20.97 0-33.794-9.972-36.872-12.664-0.064-0.064-7.342-8.048-23.822-21.61-15.84-13.114-39.148-10.612-57.52 6.092-23.534 21.546-153.676 179.198-194.428 232.838-8.144 10.836-11.286 20.584-9.748 29.978 3.302 19.27 26.612 35.108 39.214 43.606l4.392 3.014c25.362 17.73 28.056 48.512 19.846 69.608-5.418 14.010-58.034 124.434-64.35 136.682-7.472 14.652-19.846 31.452-49.184 31.452-16.77 0-60.374-6.38-88.396-25.94l-6.22-4.264c-25.426-17.154-72.686-49.088-72.686-116.004 0-84.934 64.638-211.196 197.57-386.002 142.166-186.894 311.392-273.942 381.096-273.942 63.836 0 125.524 76.662 145.468 113.822 19.14 35.846 2.63 63.324-10.196 73.936z" />
<glyph unicode="&#xe609;" glyph-name="car" d="M974.704 631.929c-9.33 4.65-18.66 9.33-27.99 9.33h-79.29c0 0 0 0-4.65 0-13.98 23.31-27.99 41.97-41.97 55.948-9.33 9.33-18.66 18.66-23.31 27.99-13.98 13.978-37.322 23.31-65.278 32.64-55.948 13.98-149.252 23.31-247.17 23.31-51.3 0-214.532-9.33-265.832-55.948-4.682-9.33-13.978-18.66-23.31-27.99-9.33-13.978-23.31-32.64-41.97-55.948 0 0 0 0 0 0h-79.29c-18.66 0-32.64-13.98-32.64-32.64v-32.64c0-18.66 13.978-37.322 32.64-37.322l23.31-4.65c0-4.65-4.68-9.33-4.68-9.33l-4.68-18.66c-27.99-79.29-46.652-177.21-9.33-284.492v-65.278c0-32.64 9.33-51.3 27.99-51.3h88.62c18.66 0 27.99 18.66 27.99 51.3v32.64c74.61-4.65 181.892-13.98 284.492-13.98 107.25 0 209.85 9.33 284.492 13.98v-32.64c0-32.64 9.33-51.3 27.99-51.3h88.62c18.66 0 27.99 18.66 27.99 51.3v65.278c32.64 107.282 18.66 205.202-9.33 284.492v0l-9.33 18.66c0 0 0 4.65 0 4.65l23.31 4.65c18.66 4.65 32.64 18.66 32.64 37.322v37.322c9.33 9.33 4.65 18.66 0 23.31zM191.222 277.477c-41.97 0-74.61 32.64-74.61 69.962s32.64 69.962 69.96 69.962 69.962-32.64 69.962-69.962c4.65-37.322-27.99-69.962-65.278-69.962zM802.144 277.477c-37.322 0-69.962 32.64-69.962 69.962s32.64 69.962 69.962 69.962 69.962-32.64 69.962-69.962c0-37.322-27.99-69.962-69.962-69.962zM708.874 543.309c-65.278 4.65-135.24 9.33-200.552 9.33s-130.592-4.648-195.87-9.33c-65.278 0-125.91-4.65-167.88-4.65 9.33 23.31 23.31 46.62 32.64 65.278l4.682 4.65c23.31 32.64 46.652 65.278 65.278 88.62 23.31 23.31 121.26 41.97 237.842 46.62 93.27 0 181.89-4.65 237.842-23.31 32.64-9.33 46.62-18.66 51.3-23.31 23.31-23.31 46.62-55.948 69.962-88.62l4.65-4.65c9.33-18.66 23.31-41.97 32.64-65.278-41.97 0-107.282 4.65-172.562 4.65z" />
<glyph unicode="&#xe60a;" glyph-name="car-hollow" horiz-adv-x="1428" d="M1327.67-73.143h-134.18c-28.248 0-42.374 28.246-42.374 77.684v49.434c-112.992-7.062-275.422-21.186-430.788-21.186-162.426 0-317.794 14.126-430.786 21.186v-49.434c0-49.434-14.126-77.684-42.372-77.684h-148.3c-28.246 0-42.372 28.246-42.372 77.684v98.87c-56.498 162.424-28.252 310.726 14.122 430.784v0l7.062 14.126c0 7.060 7.062 14.126 7.062 14.126l-42.372 14.126c-21.182-0.002-42.368 28.244-42.368 56.49v56.498c0 28.246 21.186 49.434 49.434 49.434h120.056c21.186 35.312 42.372 63.558 63.558 84.746 14.126 14.126 21.186 28.246 35.312 42.372 77.68 70.62 324.852 84.746 402.536 84.746 148.304 0 289.544-14.126 381.354-35.312 49.434-14.126 77.684-28.246 98.872-49.434 14.126-14.126 21.186-28.246 35.312-42.374 21.186-21.186 42.374-49.434 63.558-84.744 0 0 0 0 7.060 0h120.058c14.126 0 28.248-7.062 35.312-14.126 7.060-7.062 14.126-21.186 14.126-35.312v-49.434c0-28.248-21.186-56.498-49.434-56.498l-35.312-7.060v-7.060l14.126-28.248c42.374-120.058 70.62-268.358 14.126-430.788v-98.87c-0.010-56.496-14.134-84.742-42.384-84.742zM1207.616-16.647h105.932c0 7.062 0 14.126 0 21.186v112.992c49.434 148.304 21.186 296.608-21.186 409.6-63.558-7.062-169.49 0-282.482 7.062-98.87 7.060-204.798 14.126-296.608 14.126s-197.738-7.062-296.608-14.126c-120.058-7.062-218.924-7.062-289.544-7.062-42.372-112.992-70.62-261.298-21.186-409.6v-112.992c0-7.062 0-21.186 0-21.186h105.932c0 7.062 0 14.126 0 21.186v112.992h28.248c112.992-14.126 289.544-21.186 459.034-21.186 176.55 0 346.042 14.126 459.034 21.186h28.248v-112.992c14.126-7.062 14.126-14.122 21.19-21.186zM713.27 604.815c98.87 0 197.738-7.062 303.668-14.126 98.87-7.062 190.678-7.062 254.236-7.062-14.126 35.312-35.312 70.62-49.434 98.87l-7.060 7.060c-35.312 49.434-70.62 98.872-105.932 134.18-7.060 7.060-28.248 21.186-77.684 35.312-84.746 21.186-218.924 35.312-360.166 35.312-176.55-7.064-324.856-35.312-360.166-70.624s-70.62-77.684-98.87-134.18l-7.062-7.060c-14.126-28.248-35.312-63.558-49.434-98.87 63.558 0 155.366 0 254.236 7.062s204.8 14.126 303.67 14.126zM1285.298 682.499c14.126-21.186 21.186-42.374 35.312-63.56l49.434 7.062v56.498h-84.746zM56.498 682.499v-49.434l49.434-7.062c14.126 21.186 21.186 42.374 35.312 63.56h-84.746v-7.064zM1179.366 258.773c-70.62 0-127.118 56.498-127.118 127.118s56.498 120.058 127.118 120.058c70.62 0 120.058-56.498 120.058-120.058 0-70.62-56.498-127.118-120.058-127.118zM1179.366 449.451c-35.312 0-63.558-28.248-63.558-63.56s28.248-63.558 63.558-63.558c35.312-7.062 63.558 21.186 63.558 56.498 0 42.374-28.248 70.62-63.558 70.62zM247.17 258.773c-70.62 0-120.058 56.498-120.058 127.118s56.498 120.058 120.058 120.058 127.118-56.498 127.118-120.058c-7.060-70.62-63.558-127.118-127.118-127.118zM247.17 449.451c-35.312 0-63.558-28.248-63.558-63.56-7.062-42.374 28.246-70.62 63.558-70.62s63.56 28.246 63.56 63.558c0 42.374-28.248 70.62-63.558 70.62z" />
<glyph unicode="&#xe60b;" glyph-name="travel" d="M839.464 762.521c0 0 0 0 0 0l-4.65 9.33c0 0-4.65 0-4.65 4.65-41.97 23.31-116.58 0-167.88-51.3l-79.29-83.94-349.772 23.31c0 0 0 0 0 0-27.99 0-51.3-18.66-55.95-41.97-9.33-18.66 4.682-55.948 55.95-79.292l167.88-83.94c-27.99-32.64-79.29-93.27-102.6-135.24l-97.95-9.33c-9.33 0-18.66-13.98-18.66-23.31l4.682-55.948c0-9.33 9.33-18.66 18.66-18.66l69.962-9.33 9.33-69.962c0-9.33 9.33-18.66 18.66-18.66l55.95-4.65c4.65 0 9.33 0 13.978 4.65s9.33 9.33 9.33 13.98l9.33 97.952c41.97 23.31 102.6 79.29 135.24 102.6l83.94-167.88c18.66-46.62 51.3-60.63 74.61-60.63 4.65 0 4.65 0 9.33 0 23.31 4.65 41.97 27.99 41.97 55.948 0 0 0 0 0 0l-23.31 349.77 79.29 79.292c51.3 51.3 74.61 130.592 46.62 172.562z" />
<glyph unicode="&#xe60c;" glyph-name="travel-hollow" horiz-adv-x="1018" d="M1000.39 916.177v0l-7.018 14.034c0 0-7.018 0-7.018 7.016-63.148 35.082-175.414 0-252.592-77.182l-119.278-126.298-526.232 35.082c-42.1 0-77.182-28.064-84.196-63.148-14.034-28.066 7.016-84.196 84.196-119.278l252.592-126.296c-42.1-49.114-119.278-140.33-154.362-203.478l-147.344-14.034c-14.034 0-28.066-21.048-28.066-35.082l7.016-84.196c0-14.034 14.034-28.066 28.064-28.066l105.248-14.034 14.034-105.248c0-14.034 14.034-28.066 28.064-28.066l84.196-7.018c7.016 0 14.034 0 21.048 7.018 7.016 7.018 14.034 14.034 14.034 21.048l14.034 147.346c63.148 35.082 154.362 119.278 203.478 154.362l126.296-252.592c28.066-70.164 77.182-91.214 112.262-91.214 7.018 0 7.018 0 14.034 0 35.082 7.018 63.148 42.1 63.148 84.196v0l-35.082 526.232 119.278 119.278c77.178 77.188 112.258 196.468 70.16 259.618zM754.816 579.385c-7.018-7.018-7.018-14.034-7.018-28.066l35.082-540.268c0-7.018 0-21.048-7.018-21.048-14.034 0-35.082 7.018-56.13 56.13v0l-147.346 287.676c-7.018 7.018-14.034 14.034-21.048 14.034h-7.018c-7.018 0-14.034 0-21.048-7.018 0 0-161.38-140.33-238.558-182.428-14.034-7.018-21.048-14.034-21.048-21.048l-14.034-133.312h-28.068l-14.034 105.248c0 7.018-7.016 14.034-14.034 21.048-7.016 7.018-14.034 7.018-21.048 14.034l-105.248 14.034v28.066l133.312 14.034c7.016 0 21.048 7.018 21.048 14.034 42.1 77.182 182.428 238.562 182.428 238.562 7.016 7.016 7.016 14.034 7.016 28.064 0 7.016-7.016 21.048-14.034 21.048l-280.654 140.322c-42.1 21.048-56.132 42.1-56.132 56.132 0 7.016 14.034 7.016 21.048 7.016l540.268-35.082c7.018 0 21.048 0 28.066 7.018l126.296 126.296c63.148 63.148 140.33 84.196 175.41 70.164 14.034-28.064-7.018-112.262-70.164-175.41l-126.294-119.282z" />
<glyph unicode="&#xe60d;" glyph-name="money" d="M191.222 533.979c23.31 65.278 79.29 125.91 149.218 163.23 9.33 4.648 13.978 13.978 13.978 23.31v0c-13.978 27.99-27.99 60.63-4.65 60.63l55.95-46.62c4.65-4.682 13.978-9.33 18.66-4.682 37.322 9.33 74.61 13.98 116.58 13.98 200.552 0 363.75-125.91 363.75-279.81 0-79.29-41.97-149.252-111.932-200.552-9.33-4.65-9.33-13.98-4.65-23.31l27.99-60.63c4.65-9.33 0-23.31-9.33-27.99l-93.27-41.97c-9.33-4.65-23.31 0-27.99 9.33l-27.99 60.63c-4.65 9.33-13.98 13.98-23.31 13.98-27.99-4.65-60.63-9.33-93.27-9.33-23.31 0-51.3 0-74.61 4.65-9.33 0-18.66-4.65-23.31-13.98l-23.31-55.948c-4.65-9.33-18.66-13.98-27.99-9.33l-93.27 41.97c-9.33 4.65-13.978 18.66-9.33 27.99l23.31 41.97c4.65 9.33 0 18.66-9.33 23.31-37.32 27.99-69.962 60.63-93.27 97.952 0 9.33-9.33 13.98-13.978 13.98h-55.95c-9.33 0-18.66 9.33-18.66 18.66v121.26c0 9.33 9.33 18.66 18.66 18.66h32.64c9.33 4.65 18.66 9.33 18.66 18.66z" />
<glyph unicode="&#xe60e;" glyph-name="money-hollow" horiz-adv-x="1180" d="M861.572-73.143c-21.184 0-49.434 14.124-56.498 35.31l-35.308 91.808c-77.682-21.184-162.428-21.184-240.11-7.062l-35.31-84.744c-14.124-28.25-49.434-42.374-77.682-28.25l-127.118 56.498c-28.25 14.124-42.372 49.434-28.25 77.682l28.25 70.62c-63.558 35.31-112.992 84.744-141.242 141.24h-84.744c-35.312 0-63.56 28.246-63.56 63.558v176.552c0 35.31 28.248 63.558 63.558 63.558h49.434c35.31 98.868 112.992 190.676 225.986 247.174h-7.060c-14.124 35.31-28.25 70.62-14.124 98.868 7.060 7.062 21.186 21.186 42.372 21.186 7.060 0 14.124 0 21.186-7.062l84.744-70.618c0 0 0 0 7.060 0 56.498 14.124 105.932 21.184 162.426 21.184 303.668 0 543.778-190.676 543.778-430.786 0-120.056-63.558-233.050-169.49-310.732l35.31-84.744c7.060-14.124 7.060-28.25 0-49.434-7.060-14.124-14.124-28.25-35.31-35.31l-127.116-56.498c0.004-0.002-7.058-0.002-21.182-0.002zM141.242 343.521c21.186 0 42.372-14.124 49.434-28.25 28.248-49.434 70.618-91.808 120.056-127.116 35.31-14.124 42.372-49.434 28.25-77.682l-28.25-70.62 127.118-56.498 35.31 77.682c7.060 21.184 28.25 35.31 56.498 35.31h7.062c77.682-14.124 148.302-7.062 225.986 7.062 0 0 7.062 0 14.124 0 21.184 0 49.434-14.124 56.498-35.31l35.31-84.744 127.116 56.498-42.374 84.744c-14.124 28.25 0 56.498 21.184 70.62 91.808 70.62 148.302 162.428 148.302 261.296 0 204.8-218.924 367.228-480.22 367.228-49.434 0-105.932-7.062-155.366-21.186-28.25 7.062-49.434 14.124-56.498 21.186l-42.368 28.252v-7.062c14.124-28.248 0-63.558-28.25-77.682-98.868-49.434-169.49-127.118-197.736-211.86-7.062-21.184-28.248-42.374-49.434-42.374h-49.436v-169.49h77.684z" />
<glyph unicode="&#xe60f;" glyph-name="life" d="M503.672 659.921c4.65 4.648 79.29 121.26 223.86 121.26 69.962 0 139.92-46.652 172.562-121.26s18.66-158.55-41.97-228.51c-121.26-135.24-233.192-247.172-303.152-312.45-23.31-23.31-60.63-23.31-83.94 0-69.962 65.278-181.892 177.21-303.152 312.45-60.63 69.962-79.29 153.902-41.97 228.51 32.64 74.61 97.95 121.26 167.88 121.26 139.92 0 209.882-107.25 209.882-121.26z" />
<glyph unicode="&#xe610;" glyph-name="life-hollow" horiz-adv-x="1216" d="M608.176-73.143c-28.246 0-56.496 14.126-77.682 35.312-105.93 98.87-261.298 254.234-437.846 444.91-91.808 105.932-120.056 233.048-63.558 353.104 49.432 112.992 155.364 190.674 268.358 190.674 155.368 0 254.234-91.806 303.668-148.302 49.432 56.496 155.364 148.302 310.73 148.302 112.992 0 218.924-77.682 275.418-190.674 56.498-120.056 28.248-247.172-63.558-353.104-169.49-190.674-331.916-346.042-437.846-444.912-21.186-21.186-49.436-35.31-77.682-35.31zM297.446 887.299c-84.744 0-176.552-63.558-211.86-148.302-42.372-98.87-21.186-204.8 56.498-289.544 169.488-190.674 324.856-346.042 430.786-444.912 21.186-21.186 56.496-21.186 70.62 0 98.87 98.87 261.298 254.232 430.786 444.912 77.682 84.744 98.868 190.676 56.498 289.544-42.372 91.806-127.116 148.304-211.86 148.304-183.614 0-282.484-141.242-289.544-148.304-7.062-14.126-14.126-21.186-28.246-21.186s-28.246 7.060-28.246 21.186v0c-7.068 0-84.75 148.304-275.426 148.304z" />
<glyph unicode="&#xe611;" glyph-name="home" d="M503.672 678.581l-247.17-191.22v-340.44c0-23.31 18.66-46.62 46.618-46.62h79.29c27.99 0 46.652 32.64 46.652 46.62v214.532c0 27.99 9.33 41.97 37.322 41.97h102.6c13.98 0 27.99-13.98 27.99-27.99v-223.86c0-23.31 18.66-46.62 46.62-46.62h93.27c18.66 0 32.64 13.98 32.64 32.64v345.122l-237.842 195.872c-9.33 4.65-18.66 4.65-27.99 0zM172.562 482.679c-9.33 0-13.98 0-18.66 9.33-9.33 9.33-4.682 18.66 4.682 27.992l326.462 251.82c18.66 13.98 51.3 18.66 69.962 0l312.45-251.82c9.33-9.33 9.33-18.66 4.65-27.992-9.33-9.33-18.66-9.33-27.99-4.65l-317.13 247.17c-4.65 4.65-13.98 4.65-18.66 0l-326.462-247.17c0-4.65-4.682-4.65-9.33-4.65z" />
<glyph unicode="&#xe612;" glyph-name="home-hollow" horiz-adv-x="1088" d="M878.526-73.143h-155.754c-42.48 0-77.878 35.4-77.878 77.878v304.428c0 7.080-7.080 14.16-14.16 14.16h-141.596c-7.080 0-14.16-7.080-14.16-14.16v-304.428c0-42.48-35.4-77.878-77.878-77.878h-169.914c-42.48 0-77.878 35.4-77.878 77.878v530.98c0 14.16 14.16 35.4 35.4 35.4 14.16 0 35.4-14.16 35.4-35.4v-530.98c0-7.080 7.080-14.16 14.16-14.16h169.914c7.080 0 14.16 7.080 14.16 14.16v304.43c0 42.48 35.4 77.878 77.878 77.878h141.596c42.48 0 77.878-35.4 77.878-77.878v-304.428c0-7.080 7.080-14.16 14.16-14.16h155.754c7.080 0 14.16 7.080 14.16 14.16v530.98c0 14.16 14.16 35.4 35.4 35.4s35.4-14.16 35.4-35.4v-530.98c-14.16-42.476-49.558-77.876-92.038-77.876zM36.036 500.313c-14.16 0-21.24 7.080-28.318 14.16-14.16 14.16-7.080 35.4 7.080 42.48l488.502 375.226c21.238 21.24 77.878 28.318 106.198 0l467.262-375.226c14.16-14.16 14.16-28.318 7.080-42.48-14.16-14.16-28.318-14.16-42.48-7.080l-474.344 375.226c-7.080 7.080-14.16 7.080-21.24 0l-495.582-375.226c-7.080 0-14.16-7.080-14.16-7.080z" />
<glyph unicode="&#xe613;" glyph-name="health" d="M526.98 781.151h-27.99c-55.95 0-102.6-46.62-102.6-102.6v-102.6c0-9.33-9.33-18.66-18.66-18.66h-102.6c-55.95 0-102.6-46.62-102.6-102.6v-27.99c0-55.948 46.652-102.6 102.6-102.6h102.6c9.33 4.65 18.66-4.65 18.66-13.98v-102.6c0-55.948 46.652-102.6 102.6-102.6h27.99c55.948 0 102.6 46.62 102.6 102.6v102.6c0 9.33 9.33 18.66 18.66 18.66h102.6c55.948 0 102.6 46.62 102.6 102.6v27.99c0 55.95-46.62 102.6-102.6 102.6h-102.6c-9.33 0-18.66 9.33-18.66 18.66v97.952c0 55.95-46.62 102.6-102.6 102.6v0z" />
<glyph unicode="&#xe614;" glyph-name="health-hollow" horiz-adv-x="1032" d="M536.718 887.299c49.434 0 91.808-42.374 91.808-91.808v-155.366c0-49.434 42.374-91.808 91.808-91.808h155.366c49.434 0 91.808-42.374 91.808-91.808v-42.374c0-49.434-42.374-91.808-91.808-91.808h-155.366c-49.434 0-91.808-42.374-91.808-91.808v-155.366c0-49.434-42.374-91.808-91.808-91.808h-42.374c-49.434 0-91.808 42.374-91.808 91.808v155.366c0 49.434-42.374 91.808-91.808 91.808h-155.362c-49.434 0-91.808 42.374-91.808 91.808v49.434c0 49.434 42.374 91.808 91.808 91.808h155.366c49.434 0 91.808 42.374 91.808 91.808v148.302c0 49.434 42.374 91.808 91.808 91.808l42.37 0.004zM536.718 950.857h-42.374c-84.746 0-155.366-70.62-155.366-155.366v-155.366c0-14.124-14.124-28.248-28.248-28.248h-155.366c-84.746 0-155.366-70.62-155.366-155.366v-42.374c0-84.746 70.62-155.366 155.366-155.366h155.366c14.124 7.062 28.248-7.062 28.248-21.188v-155.366c0-84.746 70.62-155.366 155.366-155.366h42.374c84.746 0 155.366 70.62 155.366 155.366v155.366c0 14.124 14.124 28.246 28.246 28.246h155.366c84.746 0 155.366 70.62 155.366 155.366v42.374c0 84.746-70.62 155.366-155.366 155.366h-155.366c-14.124 0-28.246 14.124-28.246 28.246v148.304c0 84.746-70.62 155.368-155.366 155.368v0z" />
<glyph unicode="&#xe615;" glyph-name="uniE615" horiz-adv-x="1018" d="M1000.39 916.177v0l-7.018 14.034c0 0-7.018 0-7.018 7.016-63.148 35.082-175.414 0-252.592-77.182l-119.278-126.298-526.232 35.082c-42.1 0-77.182-28.064-84.196-63.148-14.034-28.066 7.016-84.196 84.196-119.278l252.592-126.296c-42.1-49.114-119.278-140.33-154.362-203.478l-147.344-14.034c-14.034 0-28.066-21.048-28.066-35.082l7.016-84.196c0-14.034 14.034-28.066 28.064-28.066l105.248-14.034 14.034-105.248c0-14.034 14.034-28.066 28.064-28.066l84.196-7.018c7.016 0 14.034 0 21.048 7.018 7.016 7.018 14.034 14.034 14.034 21.048l14.034 147.346c63.148 35.082 154.362 119.278 203.478 154.362l126.296-252.592c28.066-70.164 77.182-91.214 112.262-91.214 7.018 0 7.018 0 14.034 0 35.082 7.018 63.148 42.1 63.148 84.196v0l-35.082 526.232 119.278 119.278c77.178 77.188 112.258 196.468 70.16 259.618zM754.816 579.385c-7.018-7.018-7.018-14.034-7.018-28.066l35.082-540.268c0-7.018 0-21.048-7.018-21.048-14.034 0-35.082 7.018-56.13 56.13v0l-147.346 287.676c-7.018 7.018-14.034 14.034-21.048 14.034h-7.018c-7.018 0-14.034 0-21.048-7.018 0 0-161.38-140.33-238.558-182.428-14.034-7.018-21.048-14.034-21.048-21.048l-14.034-133.312h-28.068l-14.034 105.248c0 7.018-7.016 14.034-14.034 21.048-7.016 7.018-14.034 7.018-21.048 14.034l-105.248 14.034v28.066l133.312 14.034c7.016 0 21.048 7.018 21.048 14.034 42.1 77.182 182.428 238.562 182.428 238.562 7.016 7.016 7.016 14.034 7.016 28.064 0 7.016-7.016 21.048-14.034 21.048l-280.654 140.322c-42.1 21.048-56.132 42.1-56.132 56.132 0 7.016 14.034 7.016 21.048 7.016l540.268-35.082c7.018 0 21.048 0 28.066 7.018l126.296 126.296c63.148 63.148 140.33 84.196 175.41 70.164 14.034-28.064-7.018-112.262-70.164-175.41l-126.294-119.282z" />
<glyph unicode="&#xe616;" glyph-name="roadside" horiz-adv-x="974" d="M251.59-73.143c-62.668 0-117.182 23.326-164.11 62.668-54.796 46.928-85.99 101.726-85.99 171.976-7.868 70.254 15.736 132.918 62.668 187.716l132.918 156.24c-23.324 117.18 7.868 242.23 85.99 336.090 85.988 93.856 226.776 109.312 297.030 109.312 31.192 0 70.254 0 101.726-7.868 7.868 0 23.326-7.868 23.326-23.326 0-15.736 0-23.324-7.868-31.192l-140.788-171.976c-62.664-70.254-70.252-164.11-23.326-203.17 15.736-15.736 39.060-23.324 62.664-23.324 46.928 0 101.726 31.192 140.788 70.252l148.654 179.848c7.868 7.868 15.736 15.736 31.192 7.868 7.868 0 23.326-7.868 23.326-23.326 46.928-125.048 54.796-297.028-39.060-414.21-78.12-93.856-187.716-140.788-304.896-140.788v0h-8.15l-132.918-156.24c-62.668-55.078-132.922-86.55-203.176-86.55zM243.722 474.265l-140.788-171.976c-31.192-39.060-46.928-85.99-46.928-140.788s31.192-93.856 70.254-132.918c31.192-31.192 78.12-46.928 125.050-46.928 54.796 0 109.312 23.326 148.656 70.254l140.788 171.976 7.868 7.868c7.868 7.868 15.736 7.868 23.326 7.868 109.312-7.868 211.038 39.060 281.29 117.182 70.254 85.99 70.254 203.17 46.928 304.896l-109.312-132.916c-54.796-62.664-117.182-93.856-187.716-93.856-39.060 0-70.254 15.736-101.726 31.192-78.12 62.664-70.252 195.302 15.736 289.158l109.312 132.918c-7.868 0-23.326 0-31.192 0-62.664 0-187.716-15.736-257.968-101.728-70.252-78.12-93.856-187.714-70.252-297.028-7.862 0.282-15.45-7.586-23.318-15.174zM242.034 59.775c-23.324 0-37.374 15.736-60.98 31.192-46.928 39.060-54.796 109.312-15.736 156.24 0 0 85.99 109.312 101.728 125.048 7.868 7.868 15.736 7.868 23.324 0 7.586-7.868 7.868-15.736 0-23.326-15.736-15.736-101.728-125.048-101.728-125.048-31.194-31.192-23.324-85.99 15.736-117.182 15.736-15.736 39.060-23.326 62.668-15.736 23.324 0 39.060 15.736 54.796 31.192l93.856 109.312c7.868 7.868 15.736 7.868 23.324 0 7.586-7.868 7.868-15.736 0-23.326l-93.856-109.312c-15.736-23.326-46.928-39.060-78.12-39.060-8.15 0-25.010 0-25.010 0z" />
<glyph unicode="&#xe617;" glyph-name="uniE617" horiz-adv-x="1216" d="M608.176-73.143c-28.246 0-56.496 14.126-77.682 35.312-105.93 98.87-261.298 254.234-437.846 444.91-91.808 105.932-120.056 233.048-63.558 353.104 49.432 112.992 155.364 190.674 268.358 190.674 155.368 0 254.234-91.806 303.668-148.302 49.432 56.496 155.364 148.302 310.73 148.302 112.992 0 218.924-77.682 275.418-190.674 56.498-120.056 28.248-247.172-63.558-353.104-169.49-190.674-331.916-346.042-437.846-444.912-21.186-21.186-49.436-35.31-77.682-35.31zM297.446 887.299c-84.744 0-176.552-63.558-211.86-148.302-42.372-98.87-21.186-204.8 56.498-289.544 169.488-190.674 324.856-346.042 430.786-444.912 21.186-21.186 56.496-21.186 70.62 0 98.87 98.87 261.298 254.232 430.786 444.912 77.682 84.744 98.868 190.676 56.498 289.544-42.372 91.806-127.116 148.304-211.86 148.304-183.614 0-282.484-141.242-289.544-148.304-7.062-14.126-14.126-21.186-28.246-21.186s-28.246 7.060-28.246 21.186v0c-7.068 0-84.75 148.304-275.426 148.304z" />
<glyph unicode="&#xe618;" glyph-name="uniE618" horiz-adv-x="882" d="M439.966 814.839c111.86-104.096 247.876-167.934 335.87-192.090-23.868-159.884-64.126-368.076-119.912-448.018-64.124-87.992-167.936-136.018-215.956-152.12-48.022 16.102-152.12 64.126-215.956 152.12-56.074 79.942-104.096 295.9-119.912 448.018 79.938 24.158 215.95 87.996 335.866 192.090zM439.966 950.857c-159.884-199.854-439.966-263.98-439.966-263.98v0c0-8.052 39.97-423.864 152.12-567.932 96.046-127.964 247.876-175.986 280.084-192.088v0c0 0 0 0 8.052 0h8.052c39.972 8.052 192.088 64.124 280.084 192.088 104.096 152.12 152.12 567.932 152.12 567.932s-280.666 63.84-440.548 263.98v0z" />
<glyph unicode="&#xe619;" glyph-name="uniE619" d="M806.4-9.143h-147.2c-51.2 0-70.4 32-70.4 70.4v288c0 6.4-6.4 12.8-12.8 12.8h-128c-6.4 0-12.8-6.4-12.8-12.8v-281.6c0-38.4-12.8-70.4-70.4-70.4h-160c-38.4-6.4-76.8 32-76.8 70.4v384c0 12.8 12.8 32 32 32 12.8 0 32-12.8 32-32v-384c0-6.4 6.4-12.8 12.8-12.8h140.8c12.8 0 19.2 6.4 19.2 12.8v288c0 38.4 25.6 70.4 83.2 70.4h134.4c44.8 0 70.4-32 70.4-70.4v-281.6c0-6.4 6.4-12.8 12.8-12.8h147.2c6.4 0 12.8 6.4 12.8 12.8v384c0 12.8 12.8 32 32 32s38.4-19.2 38.4-38.4v-384c0-44.8-25.6-76.8-89.6-76.8zM44.8 458.057c0 0-19.2-6.4-32 6.4-12.8 19.2 0 38.4 0 38.4l448 364.8c25.6 19.2 70.4 19.2 102.4-6.4l435.2-352c19.2-19.2 19.2-38.4 6.4-44.8-12.8-12.8-25.6-12.8-32-6.4-12.8 12.8-448 364.8-448 364.8-12.8 6.4-19.2 6.4-25.6 0l-454.4-364.8z" />
<glyph unicode="&#xe61a;" glyph-name="uniE61A" d="M896 592.457c-25.6 134.4-198.4 198.4-358.4 204.8h-51.2c-160-12.8-332.8-76.8-358.4-204.8-76.8-19.2-121.6-83.2-121.6-160s38.4-134.4 134.4-147.2c12.8 0 12.8-6.4 6.4-25.6 0-32 0-89.6 0-121.6 0-38.4 32-44.8 57.6-44.8 12.8 0 147.2 0 281.6 0h44.8c134.4 0 268.8 0 281.6 0 25.6 0 57.6 6.4 57.6 44.8 0 32 0 89.6 0 121.6 0 19.2 0 19.2 6.4 25.6 96 12.8 134.4 70.4 134.4 147.2 6.4 76.8-38.4 140.8-115.2 160zM281.6 163.657c0-19.2 0-19.2-12.8-19.2-19.2 0-32 0-44.8 0s-12.8 12.8-12.8 19.2c0 12.8 0 83.2 0 115.2s0 38.4-6.4 51.2c-12.8 6.4-19.2 6.4-57.6 6.4-32 6.4-83.2 25.6-83.2 96 0 64 38.4 96 89.6 102.4s121.6-32 121.6-102.4c0 0 6.4-256 6.4-268.8zM684.8 157.257c0-12.8-6.4-12.8-19.2-12.8 0 0-44.8 0-134.4 0h-44.8c-83.2 0-128 0-134.4 0s-19.2 0-19.2 12.8c0 12.8 0 153.6 0 236.8 32 12.8 70.4 32 153.6 32h32c83.2 0 121.6-19.2 153.6-32 12.8-83.2 12.8-224 12.8-236.8zM691.2 451.657c0 0-70.4 25.6-153.6 25.6h-51.2c-83.2 0-153.6-25.6-153.6-25.6-6.4 64-64 134.4-134.4 147.2 32 102.4 172.8 134.4 313.6 134.4 121.6 0 281.6-32 313.6-140.8-70.4-6.4-128-76.8-134.4-140.8zM876.8 336.457c-32 0-38.4 0-57.6-12.8-12.8-12.8-6.4-19.2-6.4-51.2s0-102.4 0-115.2c0-6.4 0-19.2-12.8-19.2s-25.6 0-38.4 0c-12.8 0-12.8 0-19.2 19.2 0 12.8 6.4 268.8 6.4 268.8 0 70.4 70.4 108.8 121.6 102.4 44.8 6.4 89.6-32 89.6-96 0-70.4-51.2-89.6-83.2-96z" />
<glyph unicode="&#xe61b;" glyph-name="uniE61B" horiz-adv-x="746" d="M373.152 841.199l256.13-387.616c29.192-51.28 43.918-102.294 43.918-160.936 0-80.468-29.192-153.572-87.832-212.216-58.64-58.64-131.748-87.832-212.216-87.832-160.936 0-300.048 131.748-300.048 300.048 0 58.64 14.726 109.658 43.918 160.936l256.13 387.616zM373.152 950.857c-14.726 0-21.826-7.364-29.19-14.726l-285.322-438.632c-36.552-58.642-58.64-131.746-58.64-197.49 0-204.854 168.3-373.152 373.152-373.152s373.152 168.298 373.152 373.152c0 73.106-21.826 139.11-58.64 197.49v0l-285.322 438.894c0 7.1-14.464 14.464-29.19 14.464v0zM373.152 116.983c-117.022 0-212.216 95.194-212.216 212.216 0 14.726 7.362 21.826 21.826 21.826s21.826-7.364 21.826-21.826c0-95.194 73.106-168.298 168.3-168.298 14.726 0 21.826-7.364 21.826-21.826 7.626-14.726-6.838-22.090-21.564-22.090z" />
<glyph unicode="&#xe61c;" glyph-name="uniE61C" horiz-adv-x="1030" d="M337.334 37.947l-226.246 226.246c-8.764 8.764-8.764 25.972 0 34.736s25.972 8.764 34.734 0l226.246-226.246c8.762-8.764 8.762-25.972 0-34.736-8.448-8.764-17.21-8.764-34.736 0v0zM911.87 838.727c156.776-156.778 156.776-400.546 0-548.56-78.232-78.232-182.75-113.278-278.506-113.278-34.736 0-69.782-17.524-148.014-86.996-17.524-17.524-34.736-8.764-52.26 0-8.762 17.524-17.524 34.736 0 52.26 78.232 69.782 130.49 104.518 191.512 104.518 86.996 0 173.986 25.972 235.010 95.754 121.73 121.73 121.73 322 0 452.804-121.73 121.73-322 121.73-444.044 0-61.020-61.020-95.754-148.014-95.754-235.008-8.762-61.020-34.736-113.278-104.516-191.512-17.526-17.524-34.736-17.524-52.26 0-17.526 8.764-17.526 34.736 0 52.26 69.782 69.782 86.996 104.518 86.996 148.014 0 104.516 34.736 209.038 113.278 278.506 157.088 139.252 400.546 139.252 548.56-8.764v0zM276.628-23.075l-235.008 226.558c-8.762 8.764-8.762 25.972 0 34.736s25.972 8.764 34.734 0l226.246-226.246c8.762-8.764 8.762-25.972 0-34.736 0-9.076-17.522-17.522-25.972-0.312v0zM189.32-66.573l-182.748 182.75c-8.762 8.764-8.762 25.972 0 34.736s25.972 8.764 34.734 0l182.75-182.75c8.764-8.764 8.764-25.972 0-34.736s-25.972-8.76-34.736 0v0zM128.612-57.811c-25.972-8.764-69.782 0-95.754 25.972s-34.734 69.782-25.972 95.754l121.728-121.726z" />
<glyph unicode="&#xe61d;" glyph-name="uniE61D" horiz-adv-x="1166" d="M826.014 947.693l-809.284-456.77c-16.126-8.064-23.906-31.966-8.064-48.096l280.512-496.8c8.064-16.126 31.966-23.904 48.096-16.126l809.284 456.77c16.126 8.066 23.904 31.966 16.126 48.096l-280.51 496.8c-16.13 16.128-40.32 24.194-56.164 16.128zM1114.304 418.921l-793.158-440.642-272.448 488.738 793.158 440.642 272.448-488.738zM601.658 242.665l-272.452-152.354-176.252 320.836 272.452 152.35 176.252-320.832zM921.92 603.243l-352.514-200.16-23.904 40.032 352.514 200.162 23.904-40.032zM962.24 539.307l-352.514-200.162-23.904 40.032 352.514 200.16 23.904-40.032zM1002.272 467.019l-352.514-200.162-23.904 40.032 352.226 200.16 24.192-40.032z" />
<glyph unicode="&#xe61e;" glyph-name="uniE61E" d="M128.25 897.281h770.528c79.578 2.95 127.224-47.324 127.224-128.25v-511.976c0-80.798-47.452-129.276-128.25-129.276h-769.504c-80.798 0-128.25 47.452-128.25 128.25v512.040c0 80.798 47.454 129.212 128.25 129.212zM577.126 127.777h256.5v-128.25z" />
<glyph unicode="&#xe61f;" glyph-name="uniE61F" d="M0 962.881h192.376v-192.376h-192.376v192.376zM256.5 962.881h192.376v-192.376h-192.376v192.376zM514.35 962.881h192.376v-192.376h-192.376v192.376zM770.85 962.881h192.376v-192.376h-192.376v192.376zM0 706.381h192.376v-192.376h-192.376v192.376zM256.5 706.381h192.376v-192.376h-192.376v192.376zM514.35 706.381h192.376v-192.376h-192.376v192.376zM770.85 706.381h192.376v-192.376h-192.376v192.376zM0 449.879h192.376v-192.376h-192.376v192.376zM256.5 449.879h192.376v-192.376h-192.376v192.376zM514.35 449.879h192.376v-192.376h-192.376v192.376zM770.85 449.879h192.376v-192.376h-192.376v192.376zM0 193.377h192.376v-192.376h-192.376v192.376zM256.5 193.377h192.376v-192.376h-192.376v192.376zM514.35 193.377h192.376v-192.376h-192.376v192.376zM770.85 193.377h192.376v-192.376h-192.376v192.376z" />
<glyph unicode="&#xe620;" glyph-name="uniE620" d="M919.396 848.993h-820.802c-33.954 0-61.56-27.606-61.56-61.56v-513.002c0-33.954 27.606-61.56 61.56-61.56h10.26v133.38h-30.78v441.182c0 11.318 9.202 20.52 20.52 20.52h820.802c11.318 0 20.52-9.202 20.52-20.52v-441.182h-205.202v-133.38h184.682c33.954 0 61.56 27.606 61.56 61.56v513.002c0 33.954-27.606 61.56-61.56 61.56zM684.088 633.533h-378.98c-17.378 0-32.062-14.108-32.062-30.78v-82.080h41.040v71.82h359.1v-451.442h-256.5v-41.040c0-15.744-6.060-30.14-15.87-41.040h283.916c16.898 0 29.498 18.948 29.498 35.91v507.872c0 16.962-13.53 30.78-30.14 30.78zM497.036 87.185c-9.652 0-17.506 8.432-17.506 18.884s7.856 18.884 17.506 18.884c9.682 0 17.538-8.466 17.506-18.884s-7.822-18.884-17.506-18.884zM375.646 495.151c-5.802 3.11-12.472 5.002-19.718 5.002h-185.482c-7.504 0-14.46-1.988-20.52-5.322-12.184-6.668-20.52-19.046-20.52-34.146v-360.704c0-22.572 18.468-41.040 41.040-41.040h185.482c10.292 0 19.43 3.944 26.484 10.26 8.4 7.534 13.754 18.468 13.754 30.78v360.704c0 15.326-8.24 27.862-20.52 34.436zM274.968 94.689c-2.148-3.078-5.13-5.354-8.626-6.542-1.666-0.576-3.43-0.962-5.29-0.962-2.052 0-3.976 0.448-5.802 1.122-6.796 2.596-11.704 9.524-11.704 17.73 0 5.836 2.532 11.030 6.414 14.492 0.802 0.706 1.668 1.346 2.564 1.892 2.532 1.538 5.42 2.5 8.53 2.5 0.608 0 1.154-0.128 1.73-0.192 3.56-0.384 6.764-1.892 9.362-4.2 0.288-0.256 0.608-0.514 0.866-0.77 3.4-3.462 5.548-8.304 5.514-13.722 0-4.264-1.346-8.176-3.592-11.35zM355.094 346.251v-194.942h-184.682v307.8h184.682v-112.86zM755.268 120.531c-10.26 30.78-20.52 10.26-20.52 10.26v-25.65c0-11.382 0-35.91 0-35.91 30.78 0 92.34 0 92.34 0s0 0 0 10.26-61.56 10.26-71.82 41.040z" />
<glyph unicode="&#xe621;" glyph-name="uniE621" d="M879.446 280.429c0-7.342-6.606-13.788-14.14-13.788h-98.658v-68.678c0-22.798-18.918-41.264-42.226-41.264h-422.874c-23.31 0-42.29 18.468-42.29 41.264v68.678h-98.656c-7.472 0-14.074 6.446-14.074 13.788v178.588c0 45.080 38.314 82.434 84.582 82.434h28.214v233.64c-0.064 22.732 18.918 41.2 42.226 41.2h295.938c23.374 0 55.468-12.89 72.27-29.178l66.98-65.312c16.706-16.352 29.914-47.644 29.914-70.442v-109.942h28.216c46.234 0 84.582-37.384 84.582-82.432v-178.588zM710.284 486.525v164.898h-70.506c-23.31 0-42.226 18.468-42.226 41.2v68.742h-281.862v-274.81h394.562zM710.284 211.685v109.942h-394.562v-109.942h394.562zM794.864 486.525c-15.39 0-28.216-12.472-28.216-27.478s12.76-27.478 28.216-27.478 28.216 12.472 28.216 27.478-12.826 27.478-28.216 27.478z" />
<glyph unicode="&#xe622;" glyph-name="uniE622" d="M443.81 757.809c132.45 0 239.764-107.41 239.764-239.764 0-132.452-107.314-239.894-239.764-239.894s-239.894 107.442-239.894 239.894c0 132.356 107.41 239.764 239.894 239.764zM443.81 350.069c92.662 0 167.848 75.22 167.848 167.976 0 92.66-75.218 167.848-167.848 167.848-92.758 0-167.944-75.22-167.944-167.848 0-92.756 75.218-167.976 167.944-167.976zM584.47 266.865l123.73-123.762c13.018-13.018 30.172-19.462 47.196-19.462s34.178 6.446 47.196 19.462c25.972 26.068 25.972 68.326 0 94.296l-120.042 120.042c-25.042-37.352-58.674-68.518-98.080-90.576zM362.822 454.079c2.276 0 4.552 0.288 6.83 0.93 13.658 3.784 21.674 17.892 17.892 31.55-16.866 61.014 21.258 94.36 22.894 95.74 10.71 9.106 12.184 25.232 3.206 36.038s-24.914 12.44-35.814 3.558c-2.692-2.18-65.728-54.954-39.726-148.994 3.142-11.382 13.466-18.822 24.72-18.822z" />
<glyph unicode="&#xe623;" glyph-name="uniE623" d="M560.424 862.333c-20.264 0-36.68-16.448-36.68-36.712s16.448-36.712 36.68-36.712c189.748 0 344.128-154.382 344.128-344.16s-154.382-344.128-344.128-344.128c-174.132 0-318.382 130.046-340.954 298.118l25.682-25.714c7.182-7.182 16.576-10.74 25.97-10.74s18.788 3.558 25.972 10.74c14.332 14.332 14.332 37.576 0 51.942l-91.538 91.538c-14.332 14.332-37.576 14.332-51.908 0l-91.54-91.538c-14.332-14.332-14.332-37.576 0-51.942 14.332-14.332 37.576-14.332 51.942 0l30.908 30.908c20.584-211.132 199.076-376.736 415.5-376.736 230.21 0 417.552 187.342 417.552 417.552s-187.342 417.584-417.552 417.584zM422.104 241.535c-9.972 0-19.912 3.784-27.51 11.382-15.198 15.198-15.198 39.854 0 55.020l121.646 121.678v245.952c0 21.482 17.41 38.924 38.892 38.924s38.892-17.41 38.892-38.924v-262.048c0-10.324-4.072-20.198-11.382-27.51l-132.996-133.092c-7.598-7.6-17.57-11.382-27.51-11.382zM837.668 420.799h-40.27c-14.172 0-25.65 11.478-25.65 25.65s11.478 25.65 25.65 25.65h40.27c14.172 0 25.65-11.478 25.65-25.65s-11.478-25.65-25.65-25.65zM741.962 219.733c-6.572 0-13.114 2.5-18.148 7.504l-28.472 28.472c-10.036 10.036-10.036 26.26 0 36.264s26.26 10.036 36.264 0l28.472-28.472c10.036-10.036 10.036-26.26 0-36.264-5.002-5.002-11.576-7.504-18.116-7.504zM540.896 136.433c-14.172 0-25.65 11.478-25.65 25.65v40.302c0 14.172 11.478 25.65 25.65 25.65s25.65-11.478 25.65-25.65v-40.302c0-14.172-11.478-25.65-25.65-25.65zM713.49 593.423c-6.572 0-13.114 2.5-18.148 7.502-10.036 10.036-10.036 26.26 0 36.296l28.472 28.472c10.004 10.036 26.26 10.004 36.264 0s10.036-26.26 0-36.264l-28.472-28.472c-5.002-5.002-11.576-7.504-18.116-7.504z" />
<glyph unicode="&#xe624;" glyph-name="uniE624" d="M428.8-73.143c-6.4 0-19.2 0-25.6 6.4-25.6 6.4-38.4 19.2-38.4 19.2l-320 320c0 0-12.8 12.8-19.2 38.4-6.4 32 0 64 25.6 89.6 0 0 371.2 371.2 377.6 377.6s12.8 6.4 19.2 6.4 12.8 0 19.2-6.4 6.4-25.6 0-32l-377.6-377.6c-25.6-25.6-6.4-51.2 0-57.6l313.6-307.2c0 0 32-25.6 57.6 0l403.2 403.2c44.8 44.8 70.4 64 76.8 83.2s6.4 38.4 6.4 83.2v224c0 32-38.4 70.4-70.4 70.4h-224c-12.8 0-25.6 12.8-25.6 25.6s12.8 25.6 19.2 25.6h230.4c25.6 0 57.6-12.8 76.8-38.4s38.4-51.2 38.4-76.8v-236.8c0-102.4-6.4-108.8-96-198.4l-409.6-409.6c-12.8-19.2-32-32-57.6-32zM761.6 586.057c-44.8 0-76.8 32-76.8 70.4 0 12.8-6.4 19.2-19.2 19.2s-19.2-6.4-19.2-19.2c0-57.6 51.2-108.8 115.2-108.8s115.2 51.2 115.2 108.8-51.2 108.8-115.2 108.8c-12.8 0-19.2-6.4-19.2-19.2 0-6.4 6.4-19.2 19.2-19.2 44.8 0 76.8-32 76.8-76.8 0-32-38.4-64-76.8-64zM192 630.857c0 0 0 0 0 0 12.8 0 19.2 12.8 19.2 19.2-19.2 121.6-19.2 153.6 19.2 204.8 25.6 32 57.6 51.2 102.4 51.2 108.8 0 339.2-204.8 422.4-262.4 6.4-6.4 19.2-6.4 25.6 0s6.4 19.2 0 25.6c-12.8 12.8-300.8 281.6-448 281.6-57.6 0-102.4-25.6-134.4-64-51.2-57.6-57.6-115.2-25.6-236.8 0-12.8 6.4-19.2 19.2-19.2z" />
<glyph unicode="&#xe625;" glyph-name="uniE625" d="M896 234.057h-768c-51.2 0-128 32-128 128v422.4c0 51.2 32 128 128 128h768c51.2 0 128-32 128-128v-422.4c-6.4-51.2-38.4-128-128-128v0zM908.8 835.657h-793.6c-38.4 0-44.8-25.6-44.8-44.8v-441.6c0-38.4 25.6-44.8 44.8-44.8h793.6c38.4 0 44.8 32 44.8 44.8v441.6c0 38.4-25.6 44.8-44.8 44.8v0zM896-21.943h-768c-19.2 0-32 12.8-38.4 25.6s0 32 6.4 44.8l83.2 83.2c6.4 6.4 19.2 12.8 32 12.8h595.2c12.8 0 19.2-6.4 32-12.8l83.2-83.2c12.8-12.8 12.8-32 6.4-44.8 0-12.8-19.2-25.6-32-25.6v0z" />
<glyph unicode="&#xe626;" glyph-name="uniE626" d="M371.2 29.257c-38.4 0-83.2 19.2-115.2 44.8l-224 249.6c-19.2 12.8-32 44.8-32 76.8-6.4 38.4 6.4 70.4 32 102.4l51.2 51.2c38.4 44.8 121.6 51.2 172.8 0l115.2-121.6c76.8 70.4 300.8 288 384 371.2 64 64 160 64 224 0 64-70.4 57.6-172.8 0-230.4-121.6-128-492.8-486.4-499.2-492.8-25.6-32-70.4-51.2-108.8-51.2zM172.8 528.457c-12.8 0-25.6-6.4-38.4-19.2l-51.2-57.6c-19.2-12.8-25.6-25.6-19.2-44.8 0-19.2 6.4-32 12.8-38.4l230.4-249.6c38.4-38.4 96-38.4 134.4 0 6.4 6.4 377.6 364.8 499.2 492.8 38.4 38.4 32 108.8 0 140.8s-96 38.4-134.4 0c-102.4-96-409.6-390.4-416-396.8l-19.2-19.2-160 172.8c-6.4 6.4-25.6 19.2-38.4 19.2z" />
<glyph unicode="&#xe627;" glyph-name="uniE627" d="M928 400.457c-19.2 102.4-153.6 166.4-281.6 172.8h-38.4c-128-6.4-262.4-70.4-281.6-172.8-57.6-12.8-96-64-96-128s32-108.8 102.4-121.6c6.4 0 6.4-6.4 6.4-19.2 0-25.6 0-70.4 0-102.4s25.6-38.4 44.8-38.4c6.4 0 115.2 0 217.6 0h44.8c102.4 0 204.8 0 217.6 0 19.2 0 44.8 6.4 44.8 38.4 0 25.6 0 70.4 0 102.4 0 12.8 0 19.2 6.4 19.2 76.8 12.8 102.4 57.6 102.4 121.6 0 57.6-32 115.2-89.6 128zM454.4 67.657c0-12.8 0-12.8-12.8-12.8s-25.6 0-32 0c-6.4 0-6.4 12.8-6.4 19.2s0 57.6 0 76.8c0 19.2 0 32-6.4 38.4-12.8 6.4-19.2 6.4-44.8 6.4-25.6 6.4-64 19.2-64 76.8 0 51.2 32 76.8 70.4 83.2s89.6-25.6 89.6-83.2c0 0 6.4-192 6.4-204.8zM768 67.657c0-12.8-6.4-12.8-12.8-12.8 0 0-38.4 0-102.4 0h-38.4c-64 0-102.4 0-102.4 0-6.4 0-12.8 0-12.8 12.8s0 108.8 0 172.8c25.6 12.8 51.2 25.6 121.6 25.6h25.6c64 0 96-12.8 121.6-25.6 0-64 0-166.4 0-172.8zM774.4 298.057c0 0-57.6 19.2-128 19.2h-38.4c-64 0-115.2-25.6-115.2-25.6-6.4 57.6-44.8 102.4-102.4 115.2 25.6 83.2 134.4 108.8 243.2 108.8 96 0 211.2-25.6 236.8-115.2-57.6-6.4-96-51.2-96-102.4zM915.2 195.657c-25.6 0-32 0-44.8-6.4-6.4-6.4-6.4-19.2-6.4-38.4s0-70.4 0-76.8c0-6.4 0-19.2-6.4-19.2s-19.2 0-32 0c-12.8 0-12.8 0-12.8 12.8s0 204.8 0 204.8c0 57.6 57.6 89.6 96 83.2s70.4-32 70.4-83.2c0-57.6-38.4-70.4-64-76.8zM288-2.743h-83.2c-38.4 0-70.4 32-70.4 70.4v384c0 12.8 12.8 32 32 32 12.8 0 32-12.8 32-32v-384c0-6.4 6.4-12.8 12.8-12.8h76.8c44.8-6.4 44.8-57.6 0-57.6zM44.8 458.057c0 0-19.2-6.4-32 6.4s0 38.4 0 38.4l448 364.8c25.6 25.6 76.8 25.6 108.8 0l435.2-352c19.2-19.2 19.2-38.4 6.4-44.8-12.8-12.8-25.6-12.8-32-6.4-19.2 6.4-454.4 358.4-454.4 358.4-12.8 6.4-19.2 6.4-25.6 0l-454.4-364.8z" />
<glyph unicode="&#xe628;" glyph-name="uniE628" d="M281.6 886.857c6.4 0 6.4 0 0 0 6.4 0 6.4 0 12.8-6.4 6.4-19.2 76.8-166.4 83.2-185.6 0 0 6.4-12.8-6.4-19.2v-6.4c-25.6-12.8-76.8-44.8-83.2-102.4-6.4-32 6.4-64 25.6-89.6 57.6-70.4 121.6-166.4 160-198.4 25.6-25.6 83.2-76.8 115.2-76.8 25.6 0 51.2 6.4 70.4 25.6 19.2 12.8 25.6 25.6 44.8 32 6.4 0 19.2-6.4 25.6-12.8 51.2-32 147.2-96 172.8-115.2 0-6.4 6.4-12.8 0-19.2-25.6-51.2-96-121.6-147.2-121.6-70.4 0-288 185.6-384 294.4-76.8 96-256 358.4-256 460.8 0 51.2 32 83.2 70.4 108.8l6.4 6.4c25.6 19.2 70.4 25.6 89.6 25.6zM281.6 950.857c-25.6 0-83.2-6.4-121.6-38.4l-6.4-6.4c-38.4-19.2-102.4-64-102.4-160 0-115.2 153.6-352 268.8-492.8s345.6-326.4 441.6-326.4c89.6 0 172.8 108.8 198.4 160s6.4 83.2-12.8 102.4c-32 32-115.2 83.2-172.8 121.6-19.2 12.8-38.4 19.2-70.4 25.6s-64-38.4-83.2-57.6c-6.4-6.4-19.2-12.8-32-12.8s-44.8 32-57.6 44.8c-32 25.6-134.4 153.6-166.4 204.8-12.8 12.8-12.8 25.6-12.8 38.4 6.4 25.6 38.4 51.2 51.2 57.6l6.4 6.4c38.4 25.6 38.4 70.4 32 102.4-6.4 19.2-83.2 172.8-89.6 192-12.8 12.8-32 38.4-70.4 38.4v0z" />
<glyph unicode="&#xe629;" glyph-name="uniE629" d="M497.728 800.265c-96.64-63.616-169.152-131.008-217.408-202.112-48.32-71.232-72.448-161.536-72.448-270.848 7.616 2.432 19.072 3.776 34.368 3.776 50.816 0 97.216-16.512 139.2-49.536 41.984-33.088 62.912-81.408 62.912-144.96 0-66.176-19.072-117.696-57.216-154.496s-86.464-55.232-144.96-55.232c-76.288 0-135.424 29.248-177.344 87.744-41.92 58.432-62.912 143.616-62.912 255.488 0 152.576 34.368 284.8 102.976 396.736 68.672 111.808 169.024 205.888 301.312 282.176l91.52-148.736zM1024 800.265c-96.64-63.616-169.088-131.008-217.408-202.112-48.32-71.232-72.448-161.536-72.448-270.784 7.616 2.432 19.072 3.776 34.368 3.776 50.816 0 97.28-16.512 139.2-49.536 41.984-33.088 62.912-81.408 62.912-144.96 0-66.176-19.072-117.696-57.216-154.496-38.144-36.864-86.464-55.296-144.96-55.296-76.224 0-135.424 29.248-177.344 87.744-41.984 58.432-62.912 143.616-62.912 255.488 0 152.576 34.368 284.8 102.976 396.736 68.672 111.808 169.024 205.888 301.312 282.176l91.52-148.736z" />
<glyph unicode="&#xe62a;" glyph-name="uniE62A" d="M526.272 77.449c96.64 63.616 169.152 131.008 217.408 202.112 48.32 71.232 72.448 161.536 72.448 270.784-7.616-2.432-19.072-3.776-34.368-3.776-50.816 0-97.216 16.512-139.2 49.536-41.92 33.152-62.912 81.472-62.912 144.96 0 66.176 19.072 117.696 57.216 154.496 38.144 36.864 86.464 55.296 144.96 55.296 76.288 0 135.424-29.248 177.344-87.744 41.92-58.432 62.912-143.616 62.912-255.488 0-152.576-34.368-284.8-102.976-396.736-68.672-111.808-169.024-205.888-301.312-282.176l-91.52 148.736zM1.92 77.449c96.64 63.616 169.088 131.008 217.408 202.112 48.32 71.232 72.448 161.536 72.448 270.784-7.616-2.432-19.072-3.712-34.304-3.712-50.816 0-97.28 16.512-139.2 49.536-41.984 33.088-62.976 81.408-62.976 144.896 0 66.176 19.072 117.696 57.216 154.496 38.144 36.864 86.464 55.296 144.96 55.296 76.224 0 135.424-29.248 177.344-87.744 41.984-58.432 62.912-143.616 62.912-255.488 0-152.576-34.368-284.8-102.976-396.736-68.672-111.808-169.024-205.888-301.312-282.176l-91.52 148.736z" />
<glyph unicode="&#xe62b;" glyph-name="uniE62B" d="M512 954.057c99.2 0 99.2-54.4 99.2-99.2v-512l214.4 252.8c19.2 19.2 35.2 25.6 64 25.6 25.6 0 44.8-9.6 64-25.6l44.8-64c16-16 25.6-35.2 25.6-60.8s-9.6-44.8-25.6-64l-432-457.6c-19.2-19.2-35.2-25.6-64-25.6s-44.8 9.6-64 25.6l-412.8 457.6c-16 19.2-25.6 44.8-25.6 64s9.6 44.8 25.6 64l44.8 54.4c19.2 19.2 35.2 25.6 64 25.6s44.8-9.6 64-25.6l214.4-252.8v521.6c0 44.8 0 96 99.2 96v0z" />
<glyph unicode="&#xe62c;" glyph-name="uniE62C" d="M508.8-69.943c-99.2 0-99.2 54.4-99.2 99.2v508.8l-224-240c-9.6-19.2-35.2-25.6-54.4-25.6s-44.8 9.6-60.8 25.6l-44.8 54.4c-16 6.4-25.6 32-25.6 60.8 0 25.6 9.6 44.8 25.6 60.8l428.8 454.4c9.6 9.6 35.2 19.2 54.4 19.2s44.8-9.6 60.8-28.8l428.8-454.4c16-16 25.6-35.2 25.6-60.8s-19.2-35.2-35.2-54.4l-44.8-54.4c-19.2-19.2-35.2-25.6-60.8-25.6s-44.8 9.6-60.8 25.6l-214.4 240v-508.8c-3.2-41.6-3.2-96-99.2-96v0z" />
<glyph unicode="&#xe62d;" glyph-name="uniE62D" d="M1024 435.657c0-99.2-54.4-99.2-99.2-99.2h-512l252.8-214.4c19.2-19.2 25.6-35.2 25.6-64s-9.6-44.8-25.6-64l-64-44.8c-19.2-19.2-35.2-25.6-64-25.6s-44.8 9.6-64 25.6l-448 422.4c-16 19.2-25.6 44.8-25.6 64s9.6 44.8 25.6 64l460.8 428.8c19.2 19.2 35.2 25.6 64 25.6s35.2-19.2 54.4-35.2l54.4-44.8c19.2-19.2 25.6-35.2 25.6-64s-9.6-44.8-28.8-51.2l-243.2-224h512c44.8-3.2 99.2-3.2 99.2-99.2v0z" />
<glyph unicode="&#xe62e;" glyph-name="uniE62E" d="M0 448.457c0 99.2 54.4 99.2 99.2 99.2h508.8l-240 224c-19.2 6.4-28.8 32-28.8 51.2s9.6 44.8 25.6 60.8l54.4 44.8c16 19.2 35.2 25.6 60.8 25.6s44.8-6.4 64-25.6l454.4-428.8c16-16 25.6-35.2 25.6-60.8 0-19.2-9.6-44.8-25.6-60.8l-454.4-428.8c-19.2-19.2-35.2-25.6-60.8-25.6s-44.8 25.6-60.8 44.8l-54.4 44.8c-19.2 19.2-25.6 35.2-25.6 60.8 0 19.2 9.6 44.8 25.6 60.8l249.6 214.4h-518.4c-44.8 0-99.2 0-99.2 99.2v0z" />
<glyph unicode="&#xe62f;" glyph-name="uniE62F" d="M724.416 293.961c-20.352-25.856-40.32-48.576-58.624-67.968 154.368-24.64 195.904-67.904 195.904-91.072 0-29.952-94.72-116.544-349.696-116.544-254.912 0-349.696 77.696-349.696 116.544 0 24.064 47.552 70.848 213.76 93.824-18.432 19.712-38.464 42.752-58.752 68.8-160.128-30.784-271.488-98.048-271.488-176.384 0-107.328 208.768-194.24 466.24-194.24s466.24 86.976 466.24 194.24c-0.064 75.392-103.296 140.608-253.888 172.8zM522.176 231.049c0 0 257.088 205.632 257.088 462.72 0 141.952-115.072 257.088-257.088 257.088-141.952 0-257.088-115.072-257.088-257.088 0.064-257.088 257.088-462.72 257.088-462.72zM419.392 693.769c0 56.768 46.016 102.848 102.848 102.848s102.784-46.080 102.784-102.848c0-56.768-46.016-102.848-102.848-102.848s-102.784 46.080-102.784 102.848z" />
<glyph unicode="&#xe900;" glyph-name="uniE900" horiz-adv-x="880" d="M879.432 449.879q0-89.318-34.924-170.618t-93.898-140.274-140.274-93.898-170.62-34.924q-98.478 0-187.222 41.51t-151.152 117.086q-4.008 5.726-3.722 12.88t4.866 11.736l78.438 79.010q5.724 5.154 14.314 5.154 9.162-1.146 13.17-6.87 41.796-54.392 102.486-84.164t128.824-29.772q59.544 0 113.65 23.188t93.61 62.694 62.694 93.61 23.188 113.65-23.188 113.65-62.694 93.61-93.61 62.694-113.65 23.188q-56.11 0-107.638-20.326t-91.608-58.114l78.44-79.010q17.75-17.178 8.016-39.506-9.734-22.9-33.78-22.9h-256.5q-14.884 0-25.764 10.878t-10.878 25.764v256.5q0 24.048 22.9 33.78 22.33 9.732 39.506-8.016l74.43-73.858q61.264 57.826 139.986 89.602t162.89 31.776q89.318 0 170.62-34.924t140.274-93.898 93.898-140.274 34.924-170.62z" />
<glyph unicode="&#xe901;" glyph-name="uniE901" horiz-adv-x="954" d="M262.226 457.321q-42.368 92.752-42.368 212.416h-146.572v-54.964q0-44.658 54.106-92.752t134.832-64.698zM879.432 614.773v54.964h-146.572q0-119.662-42.37-212.414 80.73 16.604 134.836 64.698t54.106 92.752zM952.716 688.059v-73.284q0-40.65-23.76-81.874t-64.126-74.43-99.048-55.824-123.384-25.478q-24.048-30.916-54.392-54.392-21.756-19.466-30.058-41.51t-8.302-51.244q0-30.916 17.462-52.102t55.822-21.184q42.94 0 76.436-26.052t33.494-65.556v-36.644q0-8.016-5.154-13.17t-13.17-5.154h-476.358q-8.016 0-13.17 5.154t-5.154 13.17v36.644q0 39.504 33.496 65.556t76.436 26.052q38.36 0 55.822 21.184t17.462 52.102q0 29.202-8.302 51.244t-30.060 41.51q-30.344 23.474-54.392 54.392-64.696 2.862-123.384 25.478t-99.050 55.822-64.126 74.43-23.76 81.874v73.284q0 22.9 16.030 38.932t38.932 16.032h164.892v54.964q0 37.788 26.908 64.696t64.696 26.908h329.786q37.788 0 64.698-26.908t26.908-64.696v-54.964h164.894q22.9 0 38.932-16.032t16.030-38.932z" />
<glyph unicode="&#xe902;" glyph-name="uniE902" horiz-adv-x="808" d="M803.284 793.979q9.732-23.474-8.016-40.078l-282.264-282.264v-424.83q0-24.048-22.33-33.78-7.442-2.862-14.314-2.862-15.458 0-25.764 10.876l-146.572 146.572q-10.878 10.876-10.878 25.764v278.258l-282.264 282.266q-17.748 16.604-8.016 40.078 9.734 22.33 33.78 22.33h732.86q24.048 0 33.78-22.33z" />
<glyph unicode="&#xe903;" glyph-name="uniE903" horiz-adv-x="880" d="M586.288 449.879q0 60.69-42.94 103.63t-103.63 42.94-103.63-42.94-42.94-103.63 42.94-103.63 103.63-42.94 103.63 42.94 42.94 103.63zM879.432 512.285v-127.106q0-6.87-4.582-13.17t-11.45-7.442l-105.922-16.030q-10.876-30.916-22.33-52.102 20.038-28.628 61.264-79.010 5.726-6.87 5.726-14.314t-5.154-13.17q-15.458-21.184-56.682-61.836t-53.818-40.65q-6.87 0-14.884 5.154l-79.010 61.836q-25.192-13.17-52.102-21.756-9.162-77.866-16.604-106.494-4.008-16.030-20.612-16.030h-127.104q-8.016 0-14.026 4.866t-6.584 12.31l-16.032 105.35q-28.056 9.162-51.528 21.184l-80.728-61.264q-5.724-5.154-14.314-5.154-8.016 0-14.314 6.298-72.142 65.27-94.472 96.188-4.008 5.726-4.008 13.17 0 6.87 4.578 13.17 8.588 12.024 29.2 38.074t30.916 40.366q-15.46 28.628-23.476 56.682l-104.776 15.458q-7.446 1.146-12.022 7.158t-4.578 13.454v127.104q0 6.87 4.578 13.17t10.878 7.442l106.494 16.032q8.016 26.336 22.33 52.674-22.9 32.636-61.264 79.010-5.724 6.87-5.724 13.74 0 5.726 5.154 13.168 14.886 20.612 56.396 61.548t54.106 40.938q7.444 0 14.884-5.726l79.010-61.264q25.192 13.17 52.102 21.756 9.162 77.866 16.604 106.494 4.008 16.032 20.612 16.032h127.104q8.016 0 14.026-4.866t6.586-12.31l16.030-105.35q28.054-9.162 51.528-21.184l81.302 61.264q5.154 5.154 13.74 5.154 7.442 0 14.314-5.726 73.858-68.132 94.472-97.334 4.008-4.58 4.008-12.596 0-6.872-4.582-13.17-8.59-12.022-29.202-38.074t-30.916-40.366q14.884-28.626 23.474-56.11l104.778-16.030q7.442-1.144 12.024-7.156t4.582-13.454z" />
<glyph unicode="&#xe904;" glyph-name="uniE904" d="M1026.004 556.373v-454.602q0-37.788-26.908-64.698t-64.698-26.908h-842.79q-37.788 0-64.696 26.908t-26.908 64.698v454.602q25.194-28.054 57.826-49.812 207.264-140.846 284.556-197.53 32.634-24.048 52.962-37.5t54.106-27.482 62.978-14.028h1.146q29.202 0 62.98 14.028t54.106 27.482 52.958 37.5q97.334 70.424 285.13 197.53 32.636 22.33 57.256 49.81zM1026.004 724.701q0-45.232-28.054-86.456t-69.85-70.424q-215.276-149.434-267.952-186.076-5.726-4.008-24.334-17.462t-30.916-21.756-29.772-18.608-32.92-15.458-28.628-5.154h-1.144q-13.168 0-28.628 5.154t-32.922 15.458-29.772 18.608-30.918 21.756-24.334 17.462q-52.102 36.644-150.008 104.49t-117.374 81.59q-35.5 24.048-66.986 66.128t-31.49 78.154q0 44.66 23.76 74.432t67.848 29.772h842.79q37.216 0 64.412-26.908t27.196-64.698z" />
<glyph unicode="&#xe905;" glyph-name="uniE905" d="M952.716 101.771v439.716q-18.322-20.612-39.504-37.788-153.444-117.944-243.904-193.522-29.202-24.62-47.52-38.36t-49.524-27.768-58.688-14.028h-1.144q-27.482 0-58.686 14.028t-49.524 27.768-47.522 38.36q-90.462 75.576-243.906 193.522-21.186 17.178-39.508 37.788v-439.714q0-7.442 5.442-12.88t12.882-5.438h842.79q7.442 0 12.88 5.438t5.438 12.88zM952.716 703.519v14.026t-0.288 7.442-1.716 7.156-3.15 5.154-5.154 4.294-8.016 1.432h-842.79q-7.444 0-12.882-5.438t-5.442-12.882q0-96.188 84.164-162.604 110.502-87.026 229.59-181.498 3.436-2.862 20.038-16.89t26.336-21.47 25.478-18.034 28.914-15.746 24.62-5.154h1.144q11.45 0 24.62 5.154t28.912 15.746 25.478 18.034 26.336 21.47 20.038 16.89q119.088 94.472 229.592 181.498 30.916 24.62 57.54 66.13t26.624 75.29zM1026.004 724.701v-622.932q0-37.788-26.908-64.698t-64.698-26.908h-842.79q-37.788 0-64.696 26.908t-26.908 64.698v622.932q0 37.788 26.908 64.698t64.696 26.908h842.79q37.788 0 64.698-26.908t26.908-64.698z" />
<glyph unicode="&#xe906;" glyph-name="uniE906" horiz-adv-x="1100" d="M1007.682 889.593q37.788 0 64.698-26.908t26.91-64.698v-696.216q0-37.788-26.91-64.698t-64.698-26.908h-916.076q-37.788 0-64.696 26.908t-26.908 64.698v696.216q0 37.788 26.908 64.698t64.696 26.908h916.076zM91.608 816.309q-7.446 0-12.882-5.44t-5.442-12.88v-128.25h952.716v128.25q0 7.442-5.438 12.88t-12.88 5.44h-916.076zM1007.682 83.449q7.442 0 12.88 5.438t5.438 12.88v348.108h-952.716v-348.108q0-7.442 5.442-12.88t12.882-5.438h916.076zM146.572 156.733v73.288h146.572v-73.288h-146.572zM366.43 156.733v73.288h219.858v-73.288h-219.856z" />
<glyph unicode="&#xe907;" glyph-name="uniE907" horiz-adv-x="954" d="M952.716 592.443q0-12.596-14.884-27.484l-207.834-202.682 49.24-286.274q0.572-4.008 0.572-11.45 0-12.024-6.012-20.326t-17.462-8.302q-10.876 0-22.9 6.87l-257.074 135.12-257.074-135.12q-12.594-6.87-22.902-6.87-12.022 0-18.034 8.302t-6.012 20.326q0 3.434 1.146 11.45l49.24 286.274-208.408 202.682q-14.314 15.458-14.314 27.482 0 21.184 32.064 26.336l287.416 41.796 128.824 260.51q10.878 23.476 28.056 23.476t28.056-23.476l128.824-260.51 287.418-41.796q32.062-5.154 32.062-26.336z" />
<glyph unicode="&#xe908;" glyph-name="uniE908" horiz-adv-x="954" d="M650.986 388.045l175.198 170.046-241.616 35.498-108.212 218.712-108.212-218.712-241.616-35.498 175.198-170.046-41.796-241.044 216.424 113.938 215.85-113.938zM952.716 592.443q0-12.596-14.884-27.484l-207.834-202.682 49.24-286.274q0.572-4.008 0.572-11.45 0-28.628-23.474-28.628-10.876 0-22.9 6.87l-257.074 135.12-257.074-135.12q-12.594-6.87-22.902-6.87-12.022 0-18.034 8.302t-6.012 20.326q0 3.434 1.146 11.45l49.24 286.274-208.408 202.682q-14.314 15.458-14.314 27.482 0 21.184 32.064 26.336l287.416 41.796 128.824 260.51q10.878 23.476 28.056 23.476t28.056-23.476l128.824-260.51 287.418-41.796q32.062-5.154 32.062-26.336z" />
<glyph unicode="&#xe909;" glyph-name="uniE909" d="M293.144 248.341v-109.928q0-22.9-16.032-38.932t-38.932-16.030h-183.214q-22.9 0-38.932 16.030t-16.030 38.932v109.928q0 22.9 16.030 38.932t38.932 16.030h183.214q22.902 0 38.932-16.030t16.032-38.932zM293.144 541.485v-109.928q0-22.9-16.032-38.932t-38.932-16.030h-183.214q-22.9 0-38.932 16.030t-16.030 38.932v109.928q0 22.904 16.030 38.934t38.932 16.030h183.214q22.902 0 38.932-16.030t16.032-38.932zM1026.004 248.341v-109.928q0-22.9-16.030-38.932t-38.932-16.030h-549.646q-22.902 0-38.932 16.030t-16.032 38.932v109.928q0 22.9 16.032 38.932t38.932 16.030h549.646q22.9 0 38.932-16.030t16.030-38.932zM293.144 834.631v-109.928q0-22.904-16.032-38.934t-38.932-16.032h-183.214q-22.9 0-38.932 16.032t-16.030 38.932v109.928q0 22.902 16.030 38.932t38.932 16.032h183.214q22.902 0 38.932-16.032t16.032-38.932zM1026.004 541.485v-109.928q0-22.9-16.030-38.932t-38.932-16.030h-549.646q-22.902 0-38.932 16.030t-16.032 38.932v109.928q0 22.904 16.032 38.934t38.932 16.030h549.646q22.9 0 38.932-16.030t16.030-38.932zM1026.004 834.631v-109.928q0-22.904-16.030-38.934t-38.932-16.032h-549.646q-22.902 0-38.932 16.032t-16.032 38.932v109.928q0 22.902 16.032 38.932t38.932 16.032h549.646q22.9 0 38.932-16.032t16.030-38.932z" />
<glyph unicode="&#xe90a;" glyph-name="uniE90A" d="M311.466 669.737h-109.93q-22.902 0-38.932 16.032t-16.032 38.932v183.214q0 22.904 16.032 38.934t38.932 16.032h109.928q22.904 0 38.934-16.032t16.032-38.934v-183.214q0-22.902-16.032-38.932t-38.932-16.032zM604.61 669.737h-109.928q-22.904 0-38.934 16.032t-16.032 38.932v183.214q0 22.904 16.032 38.934t38.932 16.032h109.928q22.9 0 38.932-16.032t16.030-38.934v-183.214q0-22.902-16.030-38.932t-38.932-16.032zM311.466-63.123h-109.93q-22.902 0-38.932 16.030t-16.032 38.932v549.646q0 22.902 16.032 38.932t38.932 16.030h109.928q22.904 0 38.934-16.030t16.032-38.932v-549.646q0-22.9-16.032-38.932t-38.932-16.030zM897.754 669.737h-109.928q-22.9 0-38.932 16.032t-16.030 38.932v183.214q0 22.904 16.030 38.934t38.932 16.032h109.928q22.9 0 38.932-16.032t16.030-38.934v-183.214q0-22.902-16.030-38.932t-38.932-16.032zM604.61-63.123h-109.928q-22.904 0-38.934 16.030t-16.032 38.932v549.646q0 22.902 16.032 38.932t38.932 16.030h109.928q22.9 0 38.932-16.030t16.030-38.932v-549.646q0-22.9-16.030-38.932t-38.932-16.030zM897.754-63.123h-109.928q-22.9 0-38.932 16.030t-16.030 38.932v549.646q0 22.902 16.030 38.932t38.932 16.030h109.928q22.9 0 38.932-16.030t16.030-38.932v-549.646q0-22.9-16.030-38.932t-38.932-16.030z" />
<glyph unicode="&#xe90b;" glyph-name="uniE90B" horiz-adv-x="880" d="M879.432 193.377v-73.288q0-14.884-10.876-25.764t-25.764-10.876h-806.148q-14.884 0-25.764 10.876t-10.878 25.764v73.288q0 14.884 10.878 25.764t25.764 10.876h806.148q14.884 0 25.764-10.876t10.876-25.764zM879.432 486.523v-73.286q0-14.884-10.876-25.764t-25.764-10.876h-806.148q-14.884 0-25.764 10.876t-10.878 25.764v73.288q0 14.884 10.878 25.764t25.764 10.88h806.148q14.884 0 25.764-10.878t10.876-25.764zM879.432 779.667v-73.286q0-14.886-10.876-25.764t-25.764-10.88h-806.148q-14.884 0-25.764 10.878t-10.878 25.764v73.286q0 14.886 10.878 25.764t25.764 10.876h806.148q14.884 0 25.764-10.876t10.876-25.764z" />
<glyph unicode="&#xe90c;" glyph-name="uniE90C" horiz-adv-x="220" d="M219.86 248.341v-109.928q0-22.9-16.032-38.932t-38.932-16.030h-109.93q-22.9 0-38.932 16.030t-16.030 38.932v109.928q0 22.9 16.030 38.932t38.932 16.030h109.93q22.902 0 38.932-16.030t16.032-38.932zM219.86 541.485v-109.928q0-22.9-16.032-38.932t-38.932-16.030h-109.93q-22.9 0-38.932 16.030t-16.030 38.932v109.928q0 22.904 16.030 38.934t38.932 16.030h109.93q22.902 0 38.932-16.030t16.032-38.932zM219.86 834.631v-109.928q0-22.904-16.032-38.934t-38.932-16.032h-109.93q-22.9 0-38.932 16.032t-16.030 38.932v109.928q0 22.902 16.030 38.932t38.932 16.032h109.93q22.902 0 38.932-16.032t16.032-38.932z" />
<glyph unicode="&#xe90d;" glyph-name="uniE90D" horiz-adv-x="808" d="M219.86 541.485v-109.928q0-22.9-16.032-38.932t-38.932-16.030h-109.93q-22.9 0-38.932 16.030t-16.030 38.932v109.928q0 22.904 16.030 38.934t38.932 16.030h109.93q22.902 0 38.932-16.030t16.032-38.932zM513.002 541.485v-109.928q0-22.9-16.032-38.932t-38.932-16.030h-109.93q-22.904 0-38.934 16.030t-16.032 38.932v109.928q0 22.904 16.032 38.934t38.932 16.030h109.928q22.904 0 38.934-16.030t16.030-38.932zM806.148 541.485v-109.928q0-22.9-16.030-38.932t-38.932-16.030h-109.928q-22.9 0-38.932 16.030t-16.030 38.932v109.928q0 22.904 16.030 38.934t38.932 16.030h109.928q22.9 0 38.932-16.030t16.030-38.932z" />
<glyph unicode="&#xe90e;" glyph-name="uniE90E" horiz-adv-x="588" d="M586.288 339.949q0-14.884-10.876-25.764l-256.5-256.5q-10.878-10.876-25.764-10.876t-25.764 10.876l-256.5 256.5q-10.878 10.876-10.878 25.764t10.878 25.764 25.764 10.876h513.002q14.884 0 25.764-10.876t10.876-25.764zM586.288 559.807q0-14.884-10.876-25.764t-25.764-10.876h-513.002q-14.884 0-25.764 10.876t-10.878 25.764 10.878 25.764l256.5 256.5q10.88 10.878 25.764 10.878t25.764-10.878l256.5-256.5q10.876-10.876 10.876-25.764z" />
<glyph unicode="&#xe90f;" glyph-name="uniE90F" horiz-adv-x="368" d="M358.988 651.415q0-7.444-5.726-13.17l-225.008-225.010 225.008-225.010q5.726-5.726 5.726-13.17t-5.726-13.17l-28.628-28.628q-5.726-5.726-13.17-5.726t-13.17 5.726l-266.808 266.808q-5.726 5.726-5.726 13.17t5.726 13.17l266.808 266.808q5.726 5.726 13.17 5.726t13.17-5.726l28.628-28.628q5.726-5.726 5.726-13.168z" />
<glyph unicode="&#xe910;" glyph-name="uniE910" horiz-adv-x="368" d="M340.666 413.235q0-7.442-5.726-13.17l-266.808-266.808q-5.726-5.726-13.17-5.726t-13.17 5.726l-28.628 28.628q-5.724 5.726-5.724 13.17t5.724 13.17l225.010 225.010-225.008 225.010q-5.724 5.726-5.724 13.17t5.724 13.17l28.626 28.628q5.726 5.726 13.17 5.726t13.17-5.726l266.808-266.808q5.726-5.726 5.726-13.17z" />
<glyph unicode="&#xe911;" glyph-name="uniE911" horiz-adv-x="660" d="M615.488 284.983q0-7.442-5.726-13.17l-28.628-28.628q-5.726-5.726-13.17-5.726t-13.17 5.726l-225.010 225.010-225.008-225.010q-5.724-5.726-13.17-5.726t-13.17 5.726l-28.626 28.628q-5.726 5.726-5.726 13.17t5.726 13.17l266.808 266.808q5.726 5.726 13.168 5.726t13.17-5.726l266.808-266.808q5.726-5.726 5.726-13.17z" />
<glyph unicode="&#xe912;" glyph-name="uniE912" horiz-adv-x="660" d="M615.488 541.485q0-7.442-5.726-13.17l-266.808-266.808q-5.726-5.726-13.168-5.726t-13.17 5.726l-266.808 266.808q-5.726 5.726-5.726 13.168t5.726 13.17l28.626 28.628q5.724 5.726 13.17 5.726t13.17-5.726l225.008-225.010 225.010 225.010q5.726 5.726 13.17 5.726t13.17-5.726l28.628-28.628q5.726-5.726 5.726-13.17z" />
<glyph unicode="&#xe913;" glyph-name="uniE913" d="M833.628 962.881h-128.25v-128.25h128.25v128.25zM961.88 962.881h-64.126v-192.376h-256.5v192.376h-256.5v-192.376h-256.5v192.376h-64.126c-35.446 0-64.126-28.712-64.126-64.126v-897.754c0-35.446 28.68-64.126 64.126-64.126h897.754c35.446 0 64.126 28.68 64.126 64.126v897.754c0 35.414-28.68 64.126-64.126 64.126zM897.754 65.127h-769.504v577.126h769.504v-577.126zM320.626 962.881h-128.25v-128.25h128.25v128.25zM577.126 514.003h-128.25v-128.25h128.25v128.25zM769.504 514.003h-128.25v-128.25h128.25v128.25zM384.75 321.627h-128.25v-128.25h128.25v128.25zM384.75 514.003h-128.25v-128.25h128.25v128.25zM577.126 321.627h-128.25v-128.25h128.25v128.25zM769.504 321.627h-128.25v-128.25h128.25v128.25z" />
<glyph unicode="&#xe914;" glyph-name="uniE914" d="M512-71.351c-281.344 0-510.208 228.864-510.208 510.208s228.864 510.208 510.208 510.208 510.208-228.864 510.208-510.208-228.864-510.208-510.208-510.208zM512 885.065c-246.016 0-446.208-200.192-446.208-446.208s200.128-446.208 446.208-446.208c246.016 0 446.208 200.192 446.208 446.208s-200.192 446.208-446.208 446.208z" />
<glyph unicode="&#xe915;" glyph-name="uniE915" d="M512-71.351c-281.344 0-510.208 228.864-510.208 510.208s228.864 510.208 510.208 510.208 510.208-228.864 510.208-510.208-228.864-510.208-510.208-510.208zM512 885.065c-246.016 0-446.208-200.192-446.208-446.208s200.128-446.208 446.208-446.208c246.016 0 446.208 200.192 446.208 446.208s-200.192 446.208-446.208 446.208zM809.216 438.857c0-164.148-133.068-297.216-297.216-297.216s-297.216 133.068-297.216 297.216c0 164.148 133.068 297.216 297.216 297.216s297.216-133.068 297.216-297.216z" />
<glyph unicode="&#xe916;" glyph-name="single" d="M681.536 548.553c-20.416 10.112-53.312 18.304-53.312 18.304-0.768 0-235.648 0-235.648 0-9.28 0-28.032-8.896-49.472-19.52-36.864-17.92-57.984-59.776-54.976-114.56 3.776-68.8 64.384-293.504 77.248-317.952 12.928-24.448 80.128-59.136 138.048-59.136 61.76 0 139.648 38.976 152.192 55.936s71.36 263.936 79.168 323.136c9.92 75.392-36.736 105.728-53.248 113.792zM509.312 592.841c64.768 0 122.432 51.52 122.432 115.008 0 63.552-57.664 115.008-122.432 115.008-64.704 0-117.184-51.456-117.184-115.008 0-63.488 52.48-115.008 117.184-115.008z" />
<glyph unicode="&#xe917;" glyph-name="couple" d="M458.24 126.409c2.368 21.312 23.424 209.664 36.928 262.784 1.28 5.12 2.56 10.88 3.968 17.216 7.552 33.984 21.376 96.256 65.472 138.624-7.232 5.504-14.016 9.088-18.496 11.2-20.032 9.664-26.624 8.896-52.352 10.88-24.832 1.92-201.344 3.648-231.040-0.064-21.888-2.688-27.456-1.856-48.512-11.968-36.16-17.024-56.832-53.44-53.952-105.536 2.816-49.536 44.928-196.608 65.152-264.832 7.232-24.448 23.808-45.312 46.208-59.2 29.248-18.176 59.328-31.616 99.84-31.616 32.64 0 59.584 5.888 84.992 16.448l1.792 16.064zM359.744 604.361c63.488 0 120.064 48.896 120.064 109.248s-56.576 109.248-120.064 109.248c-63.488 0-114.944-48.896-114.944-109.248 0-60.288 51.456-109.248 114.944-109.248zM823.936 379.337c-9.472 49.152-29.44 166.080-139.2 167.872-121.984 0-133.312-116.352-146.496-167.872-13.248-51.904-46.464-223.040-35.968-257.28 10.56-34.24 106.624-67.2 182.464-67.2 78.080 0 173.056 36.928 178.688 67.2s-31.936 217.856-39.488 257.28zM679.744 568.777c60.288 0 114.048 46.464 114.048 103.744 0 57.344-53.76 103.744-114.048 103.744s-109.184-46.464-109.184-103.744c-0.064-57.28 48.832-103.744 109.184-103.744z" />
<glyph unicode="&#xe918;" glyph-name="family" d="M275.968 620.105c61.952 0 117.12 50.24 117.12 112.128 0 61.952-55.168 112.128-117.12 112.128s-112.128-50.176-112.128-112.128c0-61.952 50.176-112.128 112.128-112.128zM780.224 593.417c58.88 0 111.296 47.68 111.296 106.56s-52.416 106.56-111.296 106.56c-58.816 0-106.56-47.68-106.56-106.56 0-58.816 47.68-106.56 106.56-106.56zM227.776 212.425c11.072 55.232 49.664 148.416 124.288 188.16-30.336 22.848-50.112 59.072-50.112 99.968 0 39.36 18.304 74.432 46.784 97.408-62.4 0.704-172.224-0.512-184.512-1.408-16.32-1.152-26.816-1.92-47.36-12.288-35.264-17.472-55.424-54.912-52.608-108.352 2.624-49.344 41.408-192.896 61.696-265.408 8.192-29.312 26.752-54.72 52.48-70.912 17.152-10.752 35.008-19.072 55.168-24.064-9.728 26.176-13.568 58.24-5.824 96.896zM426.88 413.705c-48.192 0-87.36 39.296-87.36 87.552s39.296 87.552 87.552 87.552c46.848 0 85.312-38.080 87.488-86.72 1.024-22.528-7.168-44.096-23.104-60.8-16.64-17.408-40.064-27.456-64.384-27.52h-0.192zM526.144 325.705c-24.192 29.248-56.384 49.728-98.304 49.728-0.192 0-0.32 0-0.512 0-94.592-0.384-144.192-111.424-156.224-171.648-20.224-101.248 59.136-131.776 59.136-131.776 16.192-4.736 50.048-6.336 87.936-6.336 11.84 0 24.064 0.192 36.288 0.448-16.32 27.584-24.768 62.208-24.768 103.744 0 73.344 36.672 129.472 96.448 155.84zM920.896 400.201c-9.216 50.496-28.736 170.56-135.808 172.352-57.472 0-89.664-27.968-109.184-62.72 33.408-21.888 56.192-59.648 58.176-103.488 1.408-31.552-9.792-61.696-31.424-85.376 58.112-30.784 86.4-90.432 88.192-149.696 0.768-24.512-2.112-65.6-23.040-103.488 5.824-0.384 11.584-0.64 17.216-0.64 76.16 0 168.832 37.888 174.336 68.992s-31.040 223.616-38.464 264.064zM608.896 321.417h0.256c23.168 0.064 45.568 9.664 61.44 26.24 15.040 15.808 22.848 36.224 21.888 57.536-2.176 46.464-38.784 82.88-83.392 82.88-45.952 0-83.328-37.376-83.328-83.328s37.312-83.328 83.136-83.328zM612.288 33.417c-92.928 3.136-138.176 47.488-138.176 135.744 0 77.824 52.672 128.064 134.208 128.064 91.072 0 133.824-64 135.744-127.488 0.704-24.128-2.816-69.504-34.624-102.272-22.016-22.656-52.544-34.176-90.688-34.176 0 0.064-4.288 0.064-6.464 0.128z" />
<glyph unicode="&#xe919;" glyph-name="single-parent" d="M434.496 611.465c55.488 0 104.896 47.36 104.896 105.728s-49.408 105.664-104.896 105.664c-55.424 0-100.416-47.296-100.416-105.728 0-58.368 44.992-105.664 100.416-105.664zM460.032 201.353c9.792 51.52 42.432 136.128 104.384 179.328-20.032 22.336-32.384 52.416-32.384 85.568 0 46.912 24.704 87.744 61.12 109.12-19.328 8.384-46.080 9.6-46.080 9.6-0.768 0.064-223.68-0.064-223.68-0.064-8.768-0.128-26.624-1.984-46.976-12.8-35.008-18.24-54.976-57.344-52.16-113.152 2.624-51.52 41.024-201.408 61.184-277.12 8.128-30.592 26.496-57.152 52.096-74.048 26.624-17.6 54.4-30.144 91.072-30.144 16.896 0 32.128 1.984 46.528 5.376-15.808 29.184-24.64 68.224-15.104 118.336zM649.728 363.977c103.68 0 145.472-138.816 149.952-211.584 4.544-72.896-38.656-94.080-87.616-96-23.104-0.896-48.128-1.536-71.552-1.536-35.904 0-68.032 1.6-83.392 6.272 0 0-75.264 30.464-56.064 131.52 11.456 60.16 58.432 170.944 148.096 171.328 0.256 0 0.384 0 0.576 0zM650.432 378.185c-46.016 0-83.456 39.488-83.456 88s37.504 88.064 83.648 88.064c44.8 0 81.472-38.272 83.584-87.232 1.024-22.656-6.848-44.352-22.016-61.184-15.872-17.536-38.272-27.648-61.504-27.712h-0.256z" />
<glyph unicode="&#xe91a;" glyph-name="group" d="M799.616 579.337c52.48 0 99.264 42.56 99.264 95.040s-46.784 95.040-99.264 95.040c-52.48 0-95.040-42.56-95.040-95.040s42.56-95.040 95.040-95.040zM925.12 405.833c-8.256 45.056-25.664 152.128-121.152 153.728-83.904 0-107.648-66.56-119.552-117.76 2.624-11.648 4.608-22.080 6.080-30.272l0.512-2.944 2.112-11.584c32.128-173.76 36.416-222.528 32.896-242.304-1.92-10.88-7.296-20.736-14.848-29.76 28.736-9.856 62.528-16.192 92.736-16.192 67.968 0 150.592 33.792 155.52 61.504 4.992 27.712-27.712 199.552-34.304 235.584zM406.208 539.977c-17.728 8.96-23.552 8.256-46.336 10.112-22.016 1.792-178.496 3.392-204.8-0.064-19.392-2.496-24.384-1.728-43.008-11.136-32.064-15.872-50.432-49.856-47.808-98.432 2.496-46.208 39.808-183.424 57.728-247.040 6.4-22.784 21.12-42.24 40.96-55.232 25.92-16.96 52.608-29.504 88.512-29.504 28.928 0 52.8 5.504 75.328 15.36l1.6 14.976c2.112 19.904 20.736 195.584 32.768 245.184 1.088 4.736 2.24 10.176 3.456 16 6.656 31.68 18.944 89.792 58.048 129.28-6.4 5.184-12.416 8.512-16.448 10.496zM241.088 584.841c56.256 0 106.432 45.632 106.432 101.888s-50.176 101.888-106.432 101.888c-56.256 0-101.888-45.632-101.888-101.888-0.064-56.256 45.568-101.888 101.888-101.888zM529.152 548.297c-108.096 0-118.208-108.544-129.856-156.608-11.712-48.448-41.152-208.064-31.872-240s94.464-62.656 161.728-62.656c69.248 0 153.408 34.432 158.4 62.656s-28.288 203.264-35.008 240c-8.384 45.888-26.112 155.008-123.392 156.608zM524.672 568.393c53.44 0 101.12 43.328 101.12 96.832s-47.616 96.832-101.12 96.832c-53.44 0-96.832-43.328-96.832-96.832 0.064-53.44 43.392-96.832 96.832-96.832z" />
<glyph unicode="&#xe91b;" glyph-name="acupuncture" d="M844.096 724.169l-146.816 36.288c-14.144 3.456-28.416-4.864-32-18.688s4.928-27.904 19.072-31.36l44.224-10.944-5.952-23.744-17.28 4.288c-8.896 2.176-17.92-3.072-20.16-11.84-2.24-8.704 3.136-17.6 12.032-19.776l17.472-4.352-4.544-17.984-17.6 4.352c-8.896 2.176-17.92-3.072-20.16-11.84-2.24-8.704 3.136-17.6 12.032-19.776l17.792-4.416-4.544-17.984-17.92 4.416c-8.896 2.176-17.92-3.072-20.16-11.84s3.136-17.6 12.032-19.776l18.048-4.48-4.544-18.048-18.176 4.48c-8.896 2.176-17.92-3.072-20.16-11.776s3.136-17.6 12.032-19.776l18.368-4.544-4.544-18.048-18.432 4.544c-8.896 2.176-17.92-3.072-20.16-11.776s3.136-17.6 12.032-19.776l18.624-4.608-4.544-18.048-18.752 4.608c-8.896 2.176-17.92-3.072-20.16-11.776s3.264-17.536 12.16-19.712l92.672-22.912c8.896-2.24 17.92 3.072 20.16 11.776s-3.136 17.6-12.032 19.776l-13.888 3.456 4.544 18.048 14.016-3.456c8.896-2.176 17.92 3.072 20.16 11.84 2.24 8.704-3.136 17.6-12.032 19.776l-14.208 3.456 4.544 18.048 14.272-3.52c8.896-2.24 17.92 3.072 20.224 11.776 2.24 8.704-3.136 17.6-12.032 19.776l-14.464 3.584 4.544 18.048 14.592-3.584c8.896-2.176 17.984 3.072 20.16 11.84 2.24 8.704-3.136 17.6-12.096 19.776l-14.72 3.648 4.544 17.984 14.848-3.648c8.896-2.24 17.984 3.072 20.16 11.84s-3.136 17.6-12.096 19.776l-15.040 3.712 4.544 18.048 15.168-3.776c8.896-2.24 17.92 3.072 20.16 11.776s-3.136 17.6-12.032 19.776l-15.36 3.776 5.952 23.744 42.56-10.496c14.144-3.456 28.416 4.928 32 18.752 3.52 13.824-5.056 27.84-19.136 31.296zM652.672 373.065l-73.152-272.64 34.624-7.936 76.928 270.080zM336.384 404.233l-35.072-6.4 53.888-310.976 35.968 7.104zM497.856 375.625h35.584v-281.6h-35.584v281.6zM354.624 458.377l-12.864-1.92-2.944 18.368 12.992 1.92c9.088 1.344 15.36 9.664 13.952 18.56-1.28 8.832-9.728 14.976-18.816 13.632l-13.184-1.92-2.944 18.368 13.312 1.984c9.088 1.344 15.36 9.6 14.016 18.496-1.408 8.896-9.856 14.976-18.944 13.696l-13.504-1.984-2.944 18.304 13.632 1.984c9.088 1.344 15.36 9.664 13.952 18.56-1.344 8.896-9.792 15.040-18.88 13.696l-13.76-2.048-2.944 18.368 13.888 2.048c9.088 1.344 15.36 9.6 13.952 18.496-1.28 8.896-9.728 15.040-18.88 13.696l-14.080-2.048-2.88 18.304 14.208 2.048c9.088 1.344 15.36 9.6 14.016 18.496-1.408 8.96-9.856 15.104-18.944 13.824l-14.4-2.112-3.84 24.128 42.176 6.208c14.4 2.112 24.32 15.296 22.144 29.376-2.112 14.080-15.552 23.744-29.952 21.696l-149.76-21.952c-14.4-2.112-24.32-15.232-22.144-29.312s15.552-23.872 29.952-21.76l38.592 5.696 3.84-24.128-11.072-1.728c-9.088-1.344-15.36-9.6-13.952-18.496 1.344-8.896 9.792-15.040 18.88-13.696l11.328 1.664 2.88-18.304-11.456-1.728c-9.088-1.344-15.36-9.664-14.016-18.56s9.792-15.040 18.88-13.696l11.648 1.728 2.88-18.304-11.712-1.792c-9.088-1.28-15.296-9.6-13.952-18.496s9.792-15.040 18.88-13.696l11.904 1.728 2.88-18.368-11.968-1.728c-9.088-1.344-15.36-9.6-13.952-18.496 1.344-8.896 9.792-15.040 18.88-13.696l12.224 1.792 2.944-18.368-12.352-1.856c-9.088-1.344-15.36-9.6-13.952-18.496 1.344-8.896 9.792-15.040 18.88-13.696l12.544 1.856 2.944-18.368-12.736-1.856c-9.088-1.344-15.36-9.6-13.952-18.496 1.344-8.896 9.792-15.040 18.88-13.696l94.528 13.888c9.088 1.344 15.36 9.6 13.952 18.496-1.344 8.832-9.792 14.976-18.88 13.696zM595.2 760.713l-151.424 0.64c-14.528 0.064-26.368-11.392-26.432-25.664s11.648-25.92 26.24-25.984l40.576-0.128v-24.448l-12.8 0.064c-9.216 0.064-16.64-7.232-16.704-16.192 0-9.024 7.36-16.384 16.576-16.448l12.928-0.064v-18.56l-12.992 0.128c-9.216 0-16.704-7.232-16.704-16.256s7.36-16.32 16.576-16.384l13.184-0.064v-18.56l-13.312 0.064c-9.216 0.064-16.64-7.232-16.704-16.192 0-9.024 7.36-16.32 16.576-16.384l13.376-0.064v-18.56l-13.44 0.064c-9.216 0-16.64-7.232-16.704-16.192-0.064-9.024 7.36-16.32 16.512-16.384l13.632-0.064v-18.56l-13.696 0.064c-9.216 0-16.64-7.232-16.704-16.256 0-8.96 7.36-16.32 16.576-16.32l13.824-0.064v-18.56l-13.952 0.064c-9.152 0-16.64-7.232-16.64-16.256 0-8.96 7.36-16.32 16.512-16.384l95.552-0.384c9.216-0.064 16.704 7.232 16.704 16.192 0.064 9.024-7.36 16.384-16.512 16.384l-11.904 0.064v18.56l11.968-0.064c9.216-0.064 16.64 7.232 16.704 16.256 0.064 8.96-7.36 16.32-16.576 16.32l-12.096 0.064v18.56l12.224-0.064c9.216-0.064 16.64 7.232 16.704 16.192 0 9.088-7.424 16.384-16.576 16.448l-12.352 0.064v18.56l12.416-0.064c9.216-0.064 16.64 7.232 16.704 16.192 0 9.024-7.36 16.32-16.576 16.384l-12.544 0.064v18.56l12.672-0.064c9.216-0.064 16.704 7.232 16.704 16.256s-7.36 16.32-16.576 16.384l-12.8 0.064v18.56l12.864-0.064c9.216-0.128 16.704 7.168 16.704 16.128 0.064 9.024-7.36 16.32-16.576 16.384l-12.992 0.064v24.448l41.088-0.192c14.528-0.064 26.368 11.456 26.432 25.728s-11.648 25.856-26.24 25.92z" />
<glyph unicode="&#xe91c;" glyph-name="birth" d="M598.464 366.473c-4.288 0-8.512 0.64-12.608 1.856-11.648 3.648-21.504 9.856-26.944 21.184-8.32 17.472-4.864 49.344 7.424 49.344h-54.336v320h-48.576c-149.888 0-271.424-142.912-271.424-298.752 0-86.336 37.376-171.712 96.128-223.488 14.72 24.832 40.896 37.44 70.976 37.44 46.080 0 83.52-41.024 83.52-88.896 0-7.104-1.024-4.288-2.56-10.88 7.68-0.64 15.488 8.576 23.36 8.576 0.96 0 1.92 0 2.88 0-1.728 0-2.88 3.392-2.88 10.88 0 47.872 37.44 81.472 83.52 81.472 34.688 0 64.448-24.768 77.056-56.128 66.688 51.072 110.208 131.52 110.784 224.128l-114.048-69.824c-6.784-4.096-14.464-6.912-22.272-6.912zM359.040 248.201c-34.56 0-62.656-29.184-62.656-65.088s28.096-65.088 62.656-65.088 62.656 29.184 62.656 65.088c0 35.904-28.096 65.088-62.656 65.088zM359.040 161.417c-11.52 0-20.864 9.728-20.864 21.696s9.344 21.696 20.864 21.696c11.52 0 20.864-9.728 20.864-21.696s-9.344-21.696-20.864-21.696zM547.008 248.201c-34.56 0-62.656-29.184-62.656-65.088s28.096-65.088 62.656-65.088 62.656 29.184 62.656 65.088c-0.064 35.904-28.16 65.088-62.656 65.088zM547.008 161.417c-11.52 0-20.864 9.728-20.864 21.696s9.344 21.696 20.864 21.696 20.864-9.728 20.864-21.696-9.344-21.696-20.864-21.696zM829.568 550.665c-2.88 6.016-8 10.496-14.208 12.352-2.176 0.704-4.416 1.024-6.656 1.024-4.096 0-8.128-1.088-11.712-3.264l-210.304-127.488c-10.56-6.4-14.528-20.288-9.088-31.744 2.88-6.016 8.064-10.496 14.208-12.352 2.176-0.704 4.416-1.024 6.656-1.024 4.096 0 8.128 1.088 11.776 3.264l210.24 127.488c10.56 6.464 14.528 20.352 9.088 31.744z" />
<glyph unicode="&#xe91d;" glyph-name="chiropractor" d="M385.152 623.881c2.304-0.832 4.672-1.536 7.168-2.112 12.928-2.88 26.944-1.6 39.488 3.584 5.376 2.304 10.432 4.992 15.36 7.552 5.504 2.944 10.688 5.696 16.064 7.68 3.776 1.408 7.296 1.792 10.176 1.152 5.824-1.28 8.384-6.848 9.536-11.328 2.688-10.56 6.080-21.056 12.928-28.992 1.664-1.92 3.52-3.776 5.696-5.376 3.84-2.688 9.088-5.312 14.656-6.592 5.44-1.216 11.648-1.664 19.968-1.472 2.752 0.064 58.944 2.752 81.472 1.92 24.256-0.832 39.808 4.224 47.488 15.616 7.488 11.136 6.208 26.176-4.096 46.016-8.256 16-7.296 34.496-2.432 48.512 3.008 8.064-1.6 33.92-9.472 43.52-4.48 5.376-10.048 8.896-16.64 10.368-5.184 1.152-10.368 0.96-15.36 0.064-4.8-0.896-43.52-12.608-48.128-13.76-20.608-5.12-59.008-7.104-67.072-8.384-6.784-1.088-13.76-1.92-19.328-0.64-3.2 0.704-7.424 2.304-11.776 8.448-4.928 6.848-13.952 9.28-16.576 9.856-3.008 0.704-5.824 0.64-8.512 0.576-17.792-0.448-22.144-39.68-24.96-39.616-2.752 0.064-12.864 1.536-16.384 2.304-2.624 0.64-5.504 1.28-8.768 2.048l-0.704 0.192c-19.136 4.288-32.32-0.896-39.040-15.488-7.936-17.088-1.792-51.584 11.52-64.704 4.864-4.736 10.88-8.448 17.728-10.944zM645.248 574.025c-15.616-3.584-128.064-4.544-132.096-3.456-3.648 0.96-8.384 2.944-12.544 9.728-3.072 4.992-10.176 9.984-16.512 11.712-2.816 0.768-5.504 0.896-8 0.384-8.64-1.856-15.040-8.576-17.344-14.080-3.136-7.424-1.728-17.472-6.656-18.432-0.256-0.064-4.672 0.256-12.352 2.304-3.84 1.024-9.792 2.752-15.168 4.416-9.792 2.56-25.664 2.752-32.256-0.576-4.096-2.048-5.952-5.888-6.272-7.552-3.264-16.448-5.76-32.512-1.28-48.256 3.456-12.096 14.144-21.376 29.248-25.408 6.72-1.792 14.144-2.432 21.44-1.92 11.584 0.832 22.336 3.968 32.64 6.912 3.2 0.896 6.4 1.856 9.536 2.688 6.848 1.856 11.392 2.112 14.272 1.856 1.024-0.128 1.792-0.256 2.432-0.448 4.672-1.216 7.488-6.848 8.384-16.576 0.256-3.072 4.352-19.456 11.136-25.6 6.848-6.144 13.44-14.848 32.32-17.216 14.912-1.856 69.696-3.2 107.328-5.824 3.264 0.064 9.984 1.024 10.304 1.088 2.496 0.512 5.248 1.344 7.808 2.496s5.12 2.816 8.896 6.336c3.776 3.52 8.768 14.592 2.56 30.208-9.152 23.168-10.752 38.080-2.816 53.888 4.928 9.856 4.608 28.928-1.472 37.76-1.92 2.816-4.352 5.248-7.168 7.232-0.576 0.384-3.776 2.88-8 4.16-5.824 1.792-13.888 3.2-18.368 2.176zM675.712 392.073c-2.304 3.52-6.464 6.976-10.304 8.384-2.56 0.896-69.632 6.912-114.624 14.4-24.576 4.096-38.656 14.080-41.472 16.704-6.72 6.144-8.576 19.904-11.136 23.040-1.408 1.664-8.768 10.496-18.56 7.744-4.48-1.28-8.064-6.080-11.264-10.304-7.68-10.176-11.072-8.896-14.4-7.616-2.432 0.896-5.376 2.56-8.896 4.864-9.216 6.208-16 9.984-21.888 12.224-7.68 2.944-14.528 3.392-20.352 1.408-9.664-3.392-14.784-12.672-19.008-25.664-9.728-29.888 11.968-51.2 27.52-57.152 5.76-2.24 12.48-3.968 19.904-5.248 10.432-1.792 20.928-1.216 29.376-0.832 10.624 0.512 16.128-0.64 18.88-1.664 2.112-0.832 7.68-2.944 4.48-20.288-0.256-1.28-2.752-22.528 9.344-29.248 14.016-7.808 75.456-30.336 120.128-49.216 12.224-3.008 23.36-2.112 31.232 2.88 9.216 5.824 12.928 16.192 10.496 29.12-3.584 19.072 0.896 33.856 14.464 47.936 4.928 5.056 8.192 10.432 9.792 15.872s1.6 8.32 0.384 13.248c-0.384 1.664-1.792 5.952-4.096 9.408zM621.056 253.769c-7.296 4.224-95.040 37.76-95.040 37.76l0.896-0.256c-8.768 3.136-17.536 6.208-26.304 9.344-13.056 5.12-21.76 6.976-25.024 15.616-1.6 8.768-7.808 16.576-15.104 17.92-8.32 1.536-14.144 1.536-19.392-4.16-3.776-3.52-5.824-5.184-9.792-8.192-3.904-2.944-13.952 5.312-18.496 10.048-9.088 9.408-16.576 13.952-23.744 15.744-19.776 5.056-32.32-13.184-36.928-19.968-1.472-2.176-16.448-22.4-13.952-37.888 2.752-17.088 24.96-29.76 38.976-33.792 10.56-3.584 21.76-4.672 33.024-5.76 3.84-0.064 17.728-1.856 20.224-3.392s4.288-1.984 4.736-3.84c1.344-2.112-0.064-11.456-0.448-13.12-1.088-4.16-4.096-12.224-4.48-13.888-0.64-2.496-2.816-6.848-2.56-12.992 0.256-6.080 1.152-6.848 5.184-10.688 3.968-3.84 80.64-39.488 88-45.376s14.144-15.232 17.536-17.728c3.328-2.496 10.432-5.312 14.080-5.824 10.944-1.6 18.432 1.984 23.296 6.016 9.28 6.464 14.272 18.496 15.808 35.776 1.088 15.616 6.528 25.728 17.408 34.496 4.672 3.264 9.728 8.128 13.888 13.248 9.024 9.216 11.776 19.968 9.216 28.608-0.512 1.984-3.712 8-11.008 12.288z" />
<glyph unicode="&#xe91e;" glyph-name="dental" d="M818.752 793.545c-98.752 57.856-210.944-0.768-228.928-4.288-24.512-4.8-43.968-11.968-77.056-12.416s-50.88 7.616-75.392 12.416c-17.984 3.52-123.072 63.552-228.032 14.208-90.752-42.624-89.024-114.112-72.704-186.496 17.856-79.232 67.456-255.168 89.344-331.648 29.248-120.192 86.784-231.744 163.968-230.464 28.736 0.512 53.312 13.696 65.856 35.456 11.072 19.264 12.928 45.184 15.104 75.2 3.2 44.864 7.488 98.688 42.688 134.016 35.2-35.328 39.488-89.216 42.688-134.016 2.176-30.016 4.032-55.872 15.104-75.2 12.48-21.696 37.12-34.944 65.856-35.456 77.184-1.28 134.72 110.272 163.904 230.464 21.888 76.48 71.488 252.416 89.344 331.648 16.32 72.384-2.56 136-71.744 176.576zM415.808 693.705c4.928 16.576 28.352 12.608 34.048 11.072 0 0 45.696-7.808 66.112-7.36 23.104 0.512 61.376 7.36 61.376 7.36 5.696 1.536 29.056 5.504 34.048-11.072 2.88-9.6-9.472-18.112-27.712-24.64-6.4-2.304-36.928-8.512-68.8-8.512s-65.024 6.208-71.36 8.512c-18.24 6.528-30.592 15.040-27.712 24.64zM748.224 251.209c-19.264-68.8-53.056-159.488-105.088-161.92-37.632-1.728-47.488 39.872-49.152 63.552-3.456 48.512 1.92 116.48-44.864 164.288l-11.2 9.856c-14.72 12.928-37.056 12.096-50.688-1.856l-8.768-8.96c-46.784-47.808-43.968-111.616-47.424-160.448-1.664-23.36-4.224-62.656-52.544-60.672-46.272 1.92-73.536 71.552-96.896 160-12.352 46.784-31.36 110.784-48.832 175.488 28.672 20.16 81.856 73.856 150.208 76.352 54.528 1.984 104.512-15.296 140.48-24.768 19.648-5.184 85.76-17.92 150.208-17.92 45.76 0 109.056-26.688 120.896-33.408-17.344-64-34.752-138.24-46.336-179.584z" />
<glyph unicode="&#xe91f;" glyph-name="generaldental" d="M833.792 737.545c-79.488 48.512-169.856-0.64-184.384-3.584-19.712-4.032-40.448-7.68-61.376-9.216-20.864 1.536-41.6 5.184-61.376 9.216-14.464 2.944-94.464 42.368-189.44 3.2-52.16-21.44-65.792-86.848-52.672-147.456 4.032-18.752 10.176-44.032 17.28-72 22.272 15.104 49.856 23.616 81.024 23.616 82.176 0 149.056-68.928 149.056-153.6s-57.6-143.552-139.84-143.552c-5.376 0-10.688 0.64-16 1.216 25.92-71.68 64.448-127.296 112.384-126.464 23.104 0.384 42.944 11.52 52.992 29.696 8.896 16.128 10.432 37.824 12.16 62.976 2.624 37.568 6.080 82.688 34.368 112.256 28.352-29.632 31.808-74.688 34.368-112.256 1.728-25.152 3.264-46.848 12.16-62.976 10.048-18.176 29.888-29.248 52.992-29.696 62.144-1.088 108.48 92.352 132.032 193.024 17.664 64.064 57.6 211.392 71.936 277.76 13.248 60.608-1.92 113.92-57.664 147.84zM644.48 614.089c-5.12-1.92-29.76-7.168-55.424-7.168s-52.288 5.248-57.472 7.168c-14.656 5.504-24.576 12.608-22.272 20.672 3.968 13.888 22.848 10.56 27.392 9.28 0 0 36.8-6.528 53.248-6.144 18.624 0.448 49.408 6.144 49.408 6.144 4.544 1.28 23.424 4.608 27.392-9.28 2.368-8.064-7.552-15.168-22.272-20.672zM493.44 392.649c0 60.288-47.424 107.584-105.856 109.12-60.672 1.6-108.032-56.832-106.88-104 0.384-14.4 0.576-42.496 12.8-62.4l-54.336-56c-1.152 0.128-23.040-1.088-40.832-17.6 0 0-40.32-37.056-52.416-50.432s-30.528-43.008-5.44-65.6c24.192-21.824 44.16-5.696 60.928 9.984 17.088 16 51.264 50.432 51.264 50.432 11.584 11.904 17.28 25.664 15.936 39.616l55.68 59.584c17.664-13.568 39.488-21.76 63.232-21.76 58.496-0.064 105.92 48.768 105.92 109.056zM325.312 394.057c0 36.48 28.8 66.112 64.192 66.112s64.192-29.696 64.192-66.112-28.8-66.112-64.192-66.112c-35.392 0-64.192 29.632-64.192 66.112z" />
<glyph unicode="&#xe920;" glyph-name="heartsurgery" d="M665.984 741.833c-62.208 0-117.696-21.504-153.984-67.328-36.288 45.824-91.776 67.328-153.984 67.328-109.376 0-198.016-90.432-198.016-201.984 0-224.448 294.272-403.968 352-403.968s352 179.52 352 403.968c0 111.552-88.64 201.984-198.016 201.984zM633.024 403.273c17.152-17.472 17.152-46.016 0-63.488l-34.88-35.584c-8.32-8.512-19.328-13.12-31.104-13.12s-22.784 4.672-31.104 13.12l-23.936 24.384-23.872-24.384c-8.32-8.512-19.328-13.12-31.104-13.12s-22.784 4.672-31.104 13.12l-34.944 35.584c-17.152 17.472-17.152 46.016 0 63.488l23.872 24.384-23.872 24.32c-17.152 17.472-17.152 46.016 0 63.488l34.88 35.584c8.32 8.512 19.328 13.12 31.104 13.12s22.784-4.672 31.104-13.12l23.936-24.32 23.872 24.384c8.32 8.512 19.328 13.12 31.104 13.12s22.784-4.672 31.104-13.12l34.88-35.584c17.152-17.472 17.152-46.016 0-63.488l-23.872-24.384 23.936-24.384zM617.472 499.593c8.576-8.768 8.576-22.976 0-31.744l-33.856-34.56c-1.6 3.968-3.776 7.744-6.784 11.008l-40.192 43.84c-5.696 6.208-12.992 9.728-20.672 10.88l35.456 36.16c4.288 4.352 9.92 6.592 15.552 6.592s11.264-2.176 15.552-6.592l34.944-35.584zM472.576 535.177l35.2-35.904c-7.744-0.576-15.296-3.648-21.376-9.408l-37.312-35.648c-5.568-5.312-9.024-11.968-10.432-19.072l-32.128 32.704c-8.576 8.768-8.576 22.976 0 31.744l34.88 35.584c4.288 4.352 9.92 6.592 15.552 6.592 5.696 0 11.328-2.176 15.616-6.592zM586.304 419.145l31.104-31.744c8.576-8.768 8.576-22.976 0-31.744l-34.88-35.584c-4.288-4.416-9.92-6.592-15.552-6.592s-11.264 2.176-15.552 6.592l-28.48 29.056c5.376 1.536 10.496 4.16 14.848 8.32l37.312 35.584c7.424 7.040 11.136 16.576 11.2 26.112zM487.552 359.177c4.096-4.416 8.96-7.424 14.208-9.28l-29.184-29.824c-4.288-4.416-9.92-6.592-15.552-6.592s-11.264 2.176-15.552 6.592l-34.944 35.584c-8.576 8.768-8.576 22.976 0 31.744l32.192 32.832c1.28-6.208 4.096-12.224 8.704-17.216l40.128-43.84z" />
<glyph unicode="&#xe921;" glyph-name="hospital" d="M566.656 535.241h-456.576l74.496-525.376c2.304-11.072 15.296-19.2 30.592-19.2h199.872c16.512 0 29.888 13.312 29.888 29.76v100.928c0 15.040 12.224 27.264 27.328 27.264h105.664c15.104 0 27.328-12.224 27.328-27.264v-100.928c0-16.448 13.376-29.76 29.888-29.76h191.552c15.296 0 28.288 8.192 30.592 19.2l56.64 525.376h-347.264zM627.52 347.785c0-22.144-18.048-40.128-40.256-40.128h-30.592v-30.464c0-22.144-18.048-40.128-40.256-40.128h-8.832c-22.208 0-40.256 17.984-40.256 40.128v28.992h-30.592c-22.208 0-40.256 17.984-40.256 40.128v8.832c0 22.144 18.048 40.128 40.256 40.128h30.592v30.464c0 22.144 18.048 40.128 40.256 40.128h8.832c22.208 0 40.256-17.984 40.256-40.128v-28.992h30.592c22.208 0 40.256-17.984 40.256-40.128v-8.832zM947.776 665.545l-144.192 178.24c-21.632 26.752-58.304 42.88-97.6 42.88h-388.032c-39.296 0-75.904-16.128-97.6-42.88l-144.128-178.24c-32-39.552 2.688-92.352 60.736-92.352h750.080c58.048 0 92.736 52.8 60.736 92.352z" />
<glyph unicode="&#xe922;" glyph-name="joint" d="M729.216 758.857h-160.768c0 0-20.096-59.968-74.368-83.84-71.488-31.36-116.864-37.312-148.032-53.632-58.176-30.4-60.672-119.36-8.64-140.8 48.768-20.096 70.592 6.528 133.312-20.48 69.632-29.312 47.168-60.672 105.92-89.6 37.76-18.56 88.896-18.24 115.776 20.8 34.048 49.408 17.088 154.624-8.768 201.408-18.304 33.024 45.568 166.144 45.568 166.144zM543.040 335.433c-60.928 33.792-48.896 98.944-142.208 102.72-40.64 2.496-77.44-18.816-87.616-38.848-12.672-25.088 6.272-92.096 29.184-125.824 0 0 18.304-23.616-0.96-67.52-17.408-39.744-46.656-87.104-46.656-87.104h181.248c0 0 18.752 46.080 50.496 69.888 32.832 24.576 24.128 23.232 86.336 48.256 26.688 18.816 28.608 48.512 22.848 60.48-9.536 19.968-63.936 21.952-92.672 37.952z" />
<glyph unicode="&#xe923;" glyph-name="massage" d="M651.712 671.817c-30.4 6.144-78.080 19.456-100.608 24.64-15.744 3.648-68.032 4.16-68.736 8.32s56.384 0 68.736-1.408c17.344-1.92 49.216-15.488 60.032-18.048 36.224-8.512 49.216-15.488 61.44 0 11.456 14.592 1.408 32.768-34.368 44.416-11.584 3.776-56.96 24-96.832 30.592-35.584 5.824-77.056 21.504-110.4 4.48 16.192 32 7.168 65.28-5.696 68.352-25.984 6.336-47.232-34.048-69.184-59.84-14.976-17.536-65.728-47.104-79.424-53.888-36.544-18.112-44.544-30.528-64.896-52.032-10.368-11.008-27.52-55.36-32.96-68.928-3.136-15.872-20.352-91.52-15.872-131.904 5.568-49.984 92.544-66.688 181.696-38.4 56.896 18.048 97.984 55.168 122.88 90.56 24.64-5.184 26.432-4.8 39.936-7.616 27.072-5.632 63.936-7.68 79.808-12.48 33.216-10.048 63.104-4.096 65.664 7.488 3.904 17.792-17.984 26.432-51.2 36.48-16.64 4.992-74.432 18.304-84.288 21.44-8.128 2.56-36.416 10.944-36.416 10.944s25.472-0.512 34.816-1.536c9.344-1.024 24.128-2.24 39.040-4.928 29.632-5.504 75.584-10.624 89.088-11.392 18.496-1.088 39.168-2.88 44.16 12.672s-5.888 24.832-34.24 32.128c-26.24 6.72-110.464 24.64-127.808 28.608-8.64 1.984-38.272 3.456-37.824 5.888 0.704 3.84 29.248 2.24 50.688 0.704 28.608-2.048 84.672-7.616 108.992-12.16 42.816-7.936 53.76-8.32 60.032 11.456 5.568 17.792-8 25.664-56.256 35.392zM369.6 686.409c0 0-20.16-33.792-23.68-39.488-10.688-17.28-16.768-28.224-24.96-35.136-3.264-2.752-25.408-19.968-36.8-20.608-3.392-0.192-1.28 10.24-0.576 10.304 3.648 0.192 18.688 8.064 33.408 20.8 9.216 7.936 14.144 20.352 19.52 29.056 4.736 7.744 27.648 41.6 27.648 41.6s4.352 3.776 6.528 1.024c2.432-3.136-1.088-7.552-1.088-7.552zM452.992 533.001c-0.64-1.664-2.048-4.352-6.208-4.672s-5.312 4.288-4.544 6.336c10.624 27.904 11.136 45.312 11.712 65.472 0.256 9.216-3.584 33.344-2.304 44.736 2.432 22.272-3.008 43.84-16.32 57.984-1.664 1.728-0.832 4.096 1.728 5.248 2.688 1.152 6.080 0.704 7.68-1.024 14.272-15.168 20.416-37.824 17.792-61.696-1.152-11.2 2.816-35.968 2.56-45.12-0.64-20.608-1.152-38.464-12.096-67.264zM178.176 598.473c-1.792-5.824-1.28-4.8 0.64 0 0.768 3.776 0.704 4.224-0.64 0zM845.824 279.241c1.792 5.824 1.28 4.8-0.64 0-0.768-3.776-0.704-4.224 0.64 0zM861.056 411.145c-5.568 49.984-92.544 66.688-181.696 38.4-56.896-18.048-97.984-55.168-122.88-90.56-24.576 5.184-26.304 4.8-39.808 7.616-27.072 5.632-63.936 7.68-79.808 12.48-33.216 10.048-63.168 4.096-65.728-7.488-3.904-17.792 17.984-26.432 51.2-36.48 16.576-4.992 74.368-18.304 84.224-21.44 8.128-2.56 36.416-10.944 36.416-10.944s-25.536 0.512-34.88 1.536-24.128 2.24-39.040 4.928c-29.568 5.504-75.52 10.624-89.024 11.392-18.496 1.088-39.168 2.88-44.16-12.672s5.888-24.832 34.24-32.128c26.24-6.72 110.464-24.64 127.808-28.608 8.64-1.984 38.272-3.52 37.824-5.888-0.704-3.84-29.248-2.24-50.688-0.704-28.608 2.048-84.672 7.616-108.992 12.16-42.816 7.936-53.76 8.32-60.032-11.456-5.632-17.792 8-25.664 56.192-35.392 30.4-6.144 78.080-19.456 100.608-24.64 15.744-3.648 68.032-4.16 68.736-8.32s-56.384 0-68.736 1.408c-17.344 1.92-49.216 15.488-60.032 18.048-36.224 8.512-49.216 15.488-61.44 0-11.456-14.592-1.408-32.768 34.368-44.416 11.584-3.776 56.96-23.936 96.832-30.528 35.584-5.888 77.056-21.504 110.4-4.544-16.192-32-7.168-65.28 5.696-68.352 25.92-6.272 47.168 34.112 69.184 59.904 14.912 17.472 65.728 47.040 79.36 53.824 36.608 18.112 44.544 30.528 64.896 52.032 10.368 11.008 27.52 55.36 32.96 68.928 3.264 15.872 20.48 91.52 16 131.904zM586.944 169.609c-2.688-1.152-6.080-0.704-7.68 1.024-14.272 15.168-24.576 39.040-20.096 61.44 2.176 11.008 1.024 36.352-0.192 45.376-3.2 22.784 1.152 38.464 12.032 67.264 0.64 1.664 2.048 4.352 6.208 4.672s5.312-4.288 4.544-6.272c-10.56-27.904-13.312-45.376-11.712-65.472 0.768-9.664 3.392-33.088 0.192-45.824-5.44-21.76 5.12-42.752 18.432-56.96 1.664-1.728 0.832-4.096-1.728-5.248zM740.416 276.233c-3.648-0.192-18.688-8.064-33.408-20.8-9.216-7.936-14.144-20.352-19.456-29.056-4.8-7.68-27.648-41.6-27.648-41.6s-4.352-3.776-6.528-1.024c-2.432 3.136 1.088 7.552 1.088 7.552s20.16 33.792 23.68 39.488c10.688 17.28 16.768 28.224 24.96 35.136 3.264 2.752 25.408 19.904 36.8 20.608 3.328 0.192 1.216-10.24 0.512-10.304z" />
<glyph unicode="&#xe924;" glyph-name="naturopathy" d="M479.552 502.857l-220.864 231.36c-13.952 14.528-33.408 24.128-53.888 24.512-20.48 0.32-40.256-6.72-54.72-20.736-28.736-27.84-29.568-74.944-1.792-103.68l124.736-131.456h206.528zM884.672 431.625c-9.024 10.176-22.144 7.232-35.968 7.232h-592.384c-13.76 0-26.88 2.944-35.904-7.232-8.96-10.112-12.928-19.2-10.816-32.384 26.176-160.32 169.728-280.64 342.912-280.64s316.736 119.296 342.912 279.552c2.176 13.184-1.792 23.36-10.752 33.472z" />
<glyph unicode="&#xe925;" glyph-name="optical" d="M784.128 538.825c-36.352 32.64-123.072 114.56-253.056 123.136-250.24 16.384-404.096-195.264-403.072-225.28 1.536-46.144 106.432-227.648 397.248-221.696 249.088 5.056 370.88 157.184 370.752 190.016-0.064 19.648-47.232 75.712-111.872 133.824zM176.192 436.553c34.432 45.888 67.968 91.2 184.96 142.784-40-38.848-49.6-82.368-49.6-142.656 0-60.48 25.152-115.008 65.408-153.92-116.16 39.232-185.024 101.568-200.768 153.792zM524.8 262.025c-96.064 0-174.144 78.4-174.144 174.72s72.704 159.552 168.768 159.552 179.584-63.232 179.584-159.552c0-96.384-78.144-174.72-174.208-174.72zM673.152 283.209c40 38.912 64.96 93.248 64.96 153.536 0 60.48-29.12 105.792-39.36 121.216 101.184-76.096 158.080-152.32 157.504-152.896-9.408-27.008-67.712-82.368-183.104-121.856zM639.296 505.545c0.128-1.216 0.384-2.368 0.384-3.648 0-23.104-18.688-41.856-41.728-41.856s-41.728 18.752-41.728 41.856c0 23.104 18.688 41.856 41.728 41.856 2.752 0 5.44-0.32 8.064-0.832-22.528 17.408-50.624 27.84-81.216 27.84-73.792 0-133.632-60.032-133.632-134.016s59.84-134.016 133.632-134.016 133.632 60.032 133.632 134.016c0 25.152-7.040 48.704-19.136 68.8z" />
<glyph unicode="&#xe926;" glyph-name="physiotherapy" d="M343.488 725.705c0 53.312-43.264 96.448-96.704 96.448s-96.704-43.2-96.704-96.448 43.264-96.512 96.704-96.512c53.376 0 96.704 43.2 96.704 96.512zM391.424 319.625l-137.856 51.712-31.168 74.304c-6.208 14.912 1.216 32 16.32 37.568l36.224-86.976 104.96-38.656v106.304l19.584-41.92c4.992 9.344 11.328 19.584 27.776 25.856 25.408 9.664 30.080 4.8 42.112 2.56-38.272 61.632-75.904 126.336-80.32 130.944-8.448 8.384-27.712 22.208-64 22.208h-130.368c-74.112 0-88.384-73.856-73.216-112.128l68.224-165.44c4.224-9.536 12.096-17.152 21.952-20.672l149.44-55.040c19.136-8.384 41.472 0.32 49.856 19.456 8.384 19.2-0.32 41.472-19.52 49.92zM185.344 278.217c-10.496 7.232-28.416 29.888-28.416 29.888v-51.52h76.288c0-0.064-37.184 14.208-47.872 21.632zM733.632 197.897c0-47.936 39.040-86.912 87.104-86.912s87.168 38.976 87.168 86.912c0 48.128-39.104 86.912-87.168 86.912-48.064 0.064-87.104-38.784-87.104-86.912zM697.536 198.153c-12.8 12.032-18.048 15.040-51.968 21.824-38.016 28.992-114.88 84.864-114.88 84.864s-40.896 79.168-46.336 91.52c-13.952 31.488-32.704 29.056-46.016 23.616-13.632-5.568-27.84-19.968-18.752-43.584 8.128-21.184 31.616-89.152 44.288-106.688 7.040-9.792 44.032-32.768 64.512-50.688l-371.264-0.128v-163.264h129.024c-7.168 11.584-11.2 25.28-10.176 40.128 2.432 36.8 35.584 64.064 72.448 64.064h144.256l99.776 21.824c0 0 18.048 3.392 23.36-9.408 3.968-9.6-6.912-21.44-20.16-24.192l-99.648-20.8h-149.888c-17.728 0-34.176-12.096-37.184-29.568-3.776-22.272 13.056-41.536 34.56-41.984l293.696-0.064c45.44 0.384 82.56 36.992 81.92 82.24-0.192 12.928-8.768 48.192-21.568 60.288z" />
<glyph unicode="&#xe927;" glyph-name="podiatry" d="M673.024 692.233c46.080 38.016-6.528 76.096-37.888 53.184 0 0-28.992-24.832-18.56-49.536 15.040-35.648 56.448-3.648 56.448-3.648zM664.96 634.953c12.288-31.808 49.664-4.608 49.664-4.608 41.664 32.384-3.584 67.264-31.936 47.808 0 0.064-26.24-21.056-17.728-43.2zM560.768 702.985c7.168 1.792 18.048 2.688 43.136 41.792 18.304 28.48 12.096 54.912-3.456 64-69.248 40.384-108.48-15.68-120.768-48.128-8.512-22.656-13.696-34.368-2.624-42.112 11.008-7.808 73.728-17.472 83.712-15.552zM581.888 667.465c-11.712 5.824-89.152 31.552-112.448 28.672-21.888-2.624-81.344-58.24-92.928-109.184-14.912-66.048 50.24-127.808 49.984-185.792-0.128-46.208 1.92-77.056-32.448-110.656-24.704-19.264-75.392-28.48-99.52-53.888-32-33.728-70.208-104.384 5.12-157.888 69.76-49.6 134.464-17.984 177.024 56.512 26.24 52.096 16.32 66.496 36.032 89.728 19.968 17.216 95.040 73.536 129.856 122.24 25.344 35.52 35.84 55.232 44.352 82.88 0.064 0.128 52.736 158.464-105.024 237.376zM743.872 568.457c37.312 26.752-0.768 58.432-25.984 42.432 0 0-23.552-17.536-16.896-36.928 9.472-27.904 42.88-5.504 42.88-5.504zM733.568 545.353c0 0-20.8-13.888-16.128-30.656 6.784-24.128 36.16-6.464 36.16-6.464 32.896 21.184 2.112 49.6-20.032 37.12z" />
<glyph unicode="&#xe928;" glyph-name="psychology" d="M398.912 750.985c-20.864-6.528-57.536-21.824-71.36-52.224s-12.16-62.336-12.16-62.336-48.768-22.528-65.088-49.024c-14.592-23.616-15.488-70.784-15.488-70.784s-32.576-27.328-39.744-65.28c-8.32-44.288 12.992-93.824 12.992-93.824s-24-51.008-13.248-92.608c14.4-55.68 70.528-73.472 76.416-84.288 8.384-15.424 52.736-50.048 98.88-58.56 68.48-12.608 141.888 17.472 141.888 17.472v17.728c0 0 0 44.48 0 59.072v27.648l-36.352 14.912-42.88-36.992c-3.712-3.712-11.456-5.568-16.32-5.568s-11.2 1.856-14.912 5.568c-7.488 7.424-8.192 19.456-0.704 26.88l30.080 30.272-26.944 16c-3.136 1.856-5.696 4.544-7.36 7.808l-19.2 37.952c-4.736 9.408-0.96 20.8 8.512 25.472s20.928 0.896 25.6-8.512l27.968-33.024 72.512-36.416v214.976l-32.128-13.76-22.976-68.864c-2.176-8.64-12.8-14.4-21.376-14.4-1.536 0-4.544 0.192-6.080 0.576-10.24 2.56-17.152 12.864-14.592 23.040l15.488 62.976-46.336 30.528c-8.768 5.824-11.2 17.664-5.376 26.368 5.888 8.704 17.664 11.072 26.496 5.248l58.048-30.976 48.832 24.896v193.472c0 6.336-52.608 27.52-113.088 8.576zM326.528 294.345c0 0-63.168-31.744-69.12-33.536s-16.32-4.096-22.72 9.472c-8.384 17.792 8.576 23.68 11.968 25.536 6.592 3.584 53.12 27.904 53.12 27.904l-15.488 58.752c-2.56 10.176-0.256 20.736 9.984 23.232 10.176 2.56 20.608-3.584 23.168-13.824l19.136-75.968c2.176-8.576-1.984-17.6-10.048-21.568zM392.448 490.761c4.736-9.408 0.896-20.8-8.576-25.472l-38.208-19.008c-2.688-1.344-5.632-1.984-8.576-1.984-4.16 0-8.32 1.344-11.712 3.968l-54.336 41.984c0 0-13.44 9.792-4.096 24.512 7.168 11.328 17.28 11.264 23.296 6.016 11.648-10.112 47.744-37.376 47.744-37.376l31.68 13.632c9.472 4.672 18.048 3.136 22.784-6.272zM446.144 620.745l-38.208-37.952c-3.712-3.712-8.576-5.568-13.504-5.568-4.864 0-9.792 1.856-13.504 5.568-7.488 7.424-7.488 19.456 0 26.88l26.496 26.304-42.816 57.792c0 0-2.944 11.392 3.456 19.072 5.76 6.976 16.704 10.688 25.856 3.968 7.36-8.32 54.016-71.232 54.016-71.232 5.696-7.552 4.992-18.112-1.792-24.832zM816.576 360.969c0 0 40.576 104.448-24.704 169.344-11.136 60.16-30.272 82.304-79.616 109.184-1.6 37.952-17.536 80.832-43.904 100.288-24.704 18.176-47.424 20.224-74.752 18.56-29.824-1.792-36.352-16-36.352-16v-139.776l9.728 75.648c1.6 6.336 6.336 11.392 12.544 13.44l40.576 13.952c-0.128 0.064 15.552 6.912 24.256-6.72 9.152-14.272-14.272-28.672-15.104-26.496l-27.712-13.44-6.848-65.6c-1.088-4.288 1.088-15.36-14.528-25.28-9.344-5.952-22.848-7.744-22.848-7.744v-78.656l12.736 17.856c8.768 5.824 13.568 3.456 19.392-5.248 5.888-8.704 14.144-20.544 5.376-26.304l-37.504-31.936v-36.16l49.6 22.72c7.616 6.016 11.456 5.44 18.368-1.408l34.688-37.952c7.488-7.424 5.696-19.456-1.792-26.88s-20.416-7.424-27.904 0l-40.704 25.984-32.256-14.080v-74.432c0-5.248 0-7.872 0-7.872v-68.096c0-18.24 0-77.12 0-77.12 0-2.56 46.336-21.888 65.664-21.888 20.672 0 62.976 11.072 88.448 26.88s37.056 43.52 37.056 43.52 69.888 24.96 81.856 80.704c7.936 37.248-13.76 91.008-13.76 91.008zM661.952 521.737h-38.208c-10.56 0-19.136 8.512-19.136 19.008s8.576 19.008 19.136 19.008h23.296l10.048 38.72c1.6 7.104-0.576 8.768-1.984 11.072-3.072 4.864-9.728 16.64-7.936 22.144 1.536 4.928 17.472 18.304 28.48 18.176 5.504-0.064 19.392-13.248 22.272-28.48s-17.408-85.248-17.408-85.248c-2.112-8.512-9.792-14.4-18.56-14.4zM737.728 220.169c-10.24-10.048-21.632-2.048-27.136 7.296s-20.16 56.128-20.16 56.128l-36.992-24.576c-8.832-5.824-20.672-3.456-26.496 5.248-5.888 8.704-3.52 20.48 5.312 26.304l57.344 37.952c4.864 3.264 11.008 4.096 16.64 2.24 5.568-1.856 9.984-6.144 11.968-11.648 0 0 25.344-70.4 28.032-77.952 2.624-7.552-1.28-13.952-8.512-20.992zM767.68 461.897c-7.488-2.048-48.384-12.032-48.384-12.032v-42.112c0-10.496-8.576-19.008-19.136-19.008s-19.136 8.512-19.136 19.008v56.96c0 8.704 5.952 16.32 14.464 18.432 0 0 55.808 14.592 55.68 14.72 10.176-0.448 19.52-2.496 23.232-11.072 3.904-8.832 1.728-15.424-6.72-24.896z" />
<glyph unicode="&#xe929;" glyph-name="plus" d="M864 342.857h-704c-51.2 0-96 44.8-96 96v0c0 51.2 44.8 96 96 96h704c51.2 0 96-44.8 96-96v0c0-51.2-44.8-96-96-96zM416 86.857v704c0 51.2 44.8 96 96 96v0c51.2 0 96-44.8 96-96v-704c0-51.2-44.8-96-96-96v0c-51.2 0-96 44.8-96 96z" />
<glyph unicode="&#xe92a;" glyph-name="minus" d="M864 342.857h-704c-51.2 0-96 44.8-96 96v0c0 51.2 44.8 96 96 96h704c51.2 0 96-44.8 96-96v0c0-51.2-44.8-96-96-96z" />
</font>
</defs>
</svg>
