<?xml version="1.0" encoding="utf-8"?>
<!-- Generator: Adobe Illustrator 23.0.0, SVG Export Plug-In . SVG Version: 6.00 Build 0)  -->
<svg version="1.1" id="Layer_1" xmlns="http://www.w3.org/2000/svg" xmlns:xlink="http://www.w3.org/1999/xlink" x="0px" y="0px"
	 viewBox="0 0 230 190" style="enable-background:new 0 0 230 190;" xml:space="preserve">
<style type="text/css">
	.st0{fill:#FFFFFF;}
	.st1{fill:#0DB04B;}
	.st2{fill:#224099;}
	.st3{fill:#0DB04B;stroke:#224099;stroke-width:0.9884;stroke-miterlimit:10;}
	.st4{fill:#224291;}
	.st5{fill:#1F4598;}
	.st6{fill:#11B14C;}
	.st7{fill:#1E4597;}
</style>
<g>
	<path class="st0" d="M146.3,162.7c-24.4,14.1-53.6,14.2-78,0.2l-2-1.1l-33.3,19c-1.5,0.8-3.2,0.9-4.7,0.1c-1.5-0.8-2.5-2.2-2.7-3.9
		l-2.1-17.7L9.2,148.6c-1.4-1-2.1-2.6-2-4.3s1-3.2,2.5-4l14.6-8.4l-2.5-4.4c-1.4-2.4-0.6-5.5,1.8-6.8l8-4.6l-0.7-2.9
		c-3.7-15.2-2.6-31.7,3-46.3c6.4-16.7,18.5-30.9,34-39.8c15.5-9,33.8-12.3,51.5-9.5c15.5,2.5,30.3,9.8,41.6,20.6l2.2,2.1l8-4.6
		c2.4-1.4,5.5-0.6,6.8,1.8l2.5,4.4l14.6-8.4c1.5-0.8,3.2-0.9,4.7-0.1s2.5,2.2,2.7,3.9l2.1,17.7l14.3,10.7c1.4,1,2.1,2.6,2,4.3
		c-0.1,1.7-1,3.2-2.5,4l-33.2,19.2v2.3C185.3,123.3,170.7,148.6,146.3,162.7z"/>
	<g>
		<g>
			<path class="st1" d="M30.5,177.5c-0.2,0-0.3,0-0.4-0.1c-0.3-0.2-0.5-0.4-0.5-0.8l-2.3-19.4l-15.7-11.7c-0.3-0.2-0.4-0.5-0.4-0.9
				c0-0.3,0.2-0.6,0.5-0.8l33.9-19.6c0.2-0.1,0.3-0.1,0.5-0.1c0.1,0,0.2,0,0.3,0c0.3,0.1,0.5,0.2,0.6,0.5l18.4,31.8
				c0.3,0.5,0.1,1.1-0.4,1.4l-34,19.6C30.9,177.4,30.7,177.5,30.5,177.5z"/>
			<path class="st2" d="M46.1,125.1l18.4,31.8l-33.9,19.6l-2.3-19.9l-16-12L46.1,125.1 M46.1,123.1c-0.3,0-0.7,0.1-1,0.3L11.2,143
				c-0.6,0.3-1,0.9-1,1.6c0,0.7,0.3,1.3,0.8,1.7l15.3,11.4l2.2,19c0.1,0.7,0.5,1.3,1.1,1.6c0.3,0.1,0.6,0.2,0.9,0.2
				c0.3,0,0.7-0.1,1-0.3l33.9-19.6c0.5-0.3,0.8-0.7,0.9-1.2c0.1-0.5,0.1-1.1-0.2-1.5l-18.4-31.8C47.4,123.4,46.8,123.1,46.1,123.1
				L46.1,123.1z"/>
		</g>
		<g>
			<path class="st1" d="M182.2,89.9c-0.3,0-0.7-0.2-0.9-0.5L163,57.6c-0.1-0.2-0.2-0.5-0.1-0.8s0.2-0.5,0.5-0.6l33.9-19.6
				c0.2-0.1,0.3-0.1,0.5-0.1s0.3,0,0.4,0.1c0.3,0.2,0.5,0.4,0.5,0.8l2.3,19.4l15.7,11.7c0.3,0.2,0.4,0.5,0.4,0.9s-0.2,0.6-0.5,0.8
				l-33.9,19.6C182.5,89.9,182.4,89.9,182.2,89.9z"/>
			<path class="st2" d="M197.7,37.5l2.3,19.9l16,12L182.1,89l-18.4-31.8L197.7,37.5 M197.7,35.5c-0.3,0-0.7,0.1-1,0.3l-33.9,19.6
				c-0.5,0.3-0.8,0.7-0.9,1.2c-0.1,0.5-0.1,1.1,0.2,1.5l18.4,31.8c0.4,0.6,1,1,1.7,1c0.3,0,0.7-0.1,1-0.3L217.1,71
				c0.6-0.3,1-0.9,1-1.6s-0.3-1.3-0.8-1.7L202,56.3l-2.2-19c-0.1-0.7-0.5-1.3-1.1-1.6C198.3,35.6,198,35.5,197.7,35.5L197.7,35.5z"
				/>
		</g>
		<g>
			<path class="st2" d="M45.3,159.3c-0.4,0-0.8-0.3-1-0.7c-0.1-0.4,0.1-0.9,0.5-1.1l13.1-7.6c0.2-0.1,0.3-0.1,0.5-0.1
				c0.3,0,0.7,0.2,0.9,0.5l4.2,7.2c0.2,0.3,0.2,0.7,0,1S63,159,62.6,159C62.7,159,45.3,159.3,45.3,159.3z"/>
			<path class="st2" d="M58.4,150.8l4.2,7.2l-17.3,0.4L58.4,150.8 M58.4,148.8c-0.3,0-0.7,0.1-1,0.3l-13.1,7.6
				c-0.8,0.5-1.2,1.4-0.9,2.3c0.2,0.9,1,1.5,1.9,1.5l0,0l17.3-0.4c0.7,0,1.4-0.4,1.7-1s0.3-1.4,0-2l-4.2-7.2
				C59.8,149.1,59.1,148.8,58.4,148.8L58.4,148.8z"/>
		</g>
		<g>
			<path class="st2" d="M184,88.9c-0.4,0-0.7-0.2-0.9-0.5l-4.1-7.2c-0.3-0.5-0.1-1.1,0.4-1.4l13.1-7.6c0.2-0.1,0.3-0.1,0.5-0.1
				c0.3,0,0.5,0.1,0.7,0.3c0.3,0.3,0.4,0.8,0.1,1.2l-9,14.8C184.7,88.7,184.3,88.9,184,88.9L184,88.9z"/>
			<path class="st2" d="M193,73.1l-9,14.8l-4.1-7.2L193,73.1 M193,71.1c-0.3,0-0.7,0.1-1,0.3L178.9,79c-1,0.6-1.3,1.8-0.7,2.7
				l4.1,7.2c0.4,0.6,1,1,1.7,1l0,0c0.7,0,1.3-0.4,1.7-1l9-14.8c0.5-0.8,0.4-1.8-0.3-2.4C194,71.3,193.5,71.1,193,71.1L193,71.1z"/>
		</g>
		<path class="st3" d="M44.6,150.3"/>
		<g>
			<path class="st1" d="M69.4,29.6C33.4,50.4,21,96.5,41.8,132.5c20.8,36,66.9,48.4,102.9,27.6c36-20.8,48.4-66.9,27.6-102.9
				C151.5,21.1,105.5,8.8,69.4,29.6z M129,132.7c-21,12.1-47.7,4.9-59.8-16c-12.1-21-4.9-47.7,16-59.8c21-12.1,47.7-4.9,59.8,16
				C157.1,93.9,149.9,120.7,129,132.7z"/>
			<path class="st4" d="M70.9,32.2c-34.6,20-46.4,64.2-26.5,98.8s64.2,46.4,98.8,26.5s46.4-64.2,26.5-98.8
				C149.7,24.1,105.5,12.2,70.9,32.2z M130.5,135.4c-22.4,12.9-51,5.3-64-17.1s-5.3-51,17.1-64s51-5.3,64,17.1
				S152.9,122.4,130.5,135.4z"/>
		</g>
		<g>
			<path class="st1" d="M45,158.8c-0.1,0-0.2,0-0.3,0c-0.3-0.1-0.5-0.2-0.6-0.5l-18.9-32.8c-0.3-0.5-0.1-1.1,0.4-1.4l147.7-85.3
				c0.2-0.1,0.3-0.1,0.5-0.1c0.3,0,0.7,0.2,0.9,0.5L193.6,72c0.1,0.2,0.2,0.5,0.1,0.8s-0.2,0.5-0.5,0.6L45.5,158.7
				C45.4,158.8,45.2,158.8,45,158.8z"/>
			<path class="st2" d="M173.8,39.8l18.9,32.8L45,157.8L26.1,125L173.8,39.8 M173.8,37.8c-0.3,0-0.7,0.1-1,0.3L25.1,123.4
				c-0.5,0.3-0.8,0.7-0.9,1.2c-0.1,0.5-0.1,1.1,0.2,1.5l18.9,32.8c0.3,0.5,0.7,0.8,1.2,0.9c0.2,0,0.3,0.1,0.5,0.1
				c0.3,0,0.7-0.1,1-0.3l147.7-85.3c0.5-0.3,0.8-0.7,0.9-1.2c0.1-0.5,0.1-1.1-0.2-1.5l-18.9-32.8C175.1,38.1,174.4,37.8,173.8,37.8
				L173.8,37.8z"/>
		</g>
		<g>
			<path class="st0" d="M83.5,118.1c-0.3,0.2-0.8,0.5-1.3,0.7l3.9,6.8l-3.7,2.1l-11.1-19.2c1.5-1,3.2-2,5.1-3.1
				c4.7-2.7,8.6-2,10.8,1.7S88.2,115.4,83.5,118.1z M78,108.5c-0.5,0.3-0.9,0.5-1.3,0.8l3.7,6.4c0.4-0.2,0.8-0.3,1.1-0.5
				c2.3-1.3,3.1-3.5,1.9-5.6C82.4,107.6,80.6,107,78,108.5z"/>
			<path class="st0" d="M106.8,113.6l-9.8-5l-0.3,0.2l4.6,8l-3.7,2.1L86.5,99.7c1.5-1,3.2-2,5.5-3.3c4.2-2.5,7.8-2.6,10.1,1.4
				c1.6,2.9,0.8,6.1-1.6,8.1c1,0.4,1.9,0.8,2.8,1.2l8.2,3.9L106.8,113.6z M93.3,99.6c-0.5,0.3-1.1,0.7-1.4,0.9l3.2,5.6
				c0.3-0.1,0.8-0.4,1.4-0.7c2.2-1.3,2.9-3.2,1.9-5C97.3,98.5,95.7,98.3,93.3,99.6z"/>
			<path class="st0" d="M113.9,109.5l-11.1-19.2l3.7-2.1l11.1,19.2L113.9,109.5z"/>
			<path class="st0" d="M129.8,100.7c-6.7,3.9-11.5,0.7-14.2-4.1c-3.5-6.1-2.8-12.3,3.6-16c1.4-0.8,3-1.4,4.4-1.8l1.5,3.7
				c-1.4,0.2-2.9,0.7-4.2,1.5c-3.6,2.1-3.8,5.8-1.7,9.6c2.4,4.2,5.5,5.5,9.4,3.3c1.2-0.7,2.5-1.8,3.2-2.9l2.5,2.9
				C133.2,98.3,131.6,99.7,129.8,100.7z"/>
			<path class="st0" d="M137.8,95.7l-11.1-19.2l10.5-6l1.8,3.1l-6.8,3.9l2.7,4.7l6.4-3.7l1.7,3l-6.4,3.7l3,5.2l6.8-3.9l1.8,3.2
				L137.8,95.7z"/>
		</g>
		<g>
			<path class="st0" d="M69.8,59.4C69.2,60,68.2,61,67,62.2l-9.7-9.4c0.8-0.9,1.9-2.1,3-3.3c2-2.1,4-2.4,5.5-0.9
				c1,0.9,1.3,2.3,0.7,3.6l0,0c1.2-0.8,2.8-0.7,3.9,0.4C72.1,54,72.6,56.6,69.8,59.4z M61.6,51.3c-0.4,0.4-0.7,0.8-1,1.1l2.5,2.5
				c0.2-0.2,0.5-0.4,0.8-0.7c1.2-1.3,1.3-2.4,0.4-3.2C63.6,50.2,62.7,50.1,61.6,51.3z M65.4,55.4c-0.1,0.1-0.6,0.6-0.8,0.8l2.7,2.7
				c0.2-0.2,0.7-0.6,1-1c1.2-1.2,1.2-2.4,0.3-3.2C67.8,53.7,66.6,54.1,65.4,55.4z"/>
			<path class="st0" d="M75,54.5l-7.6-11.1l6-4.2l1.2,1.8l-3.9,2.7l1.9,2.7l3.7-2.6l1.2,1.7L73.8,48l2.1,3l3.9-2.7l1.3,1.8L75,54.5z
				"/>
			<path class="st0" d="M85.3,48.5c-1.1,0.5-2.1,0.8-3,1l-0.8-2.4c0.9,0,1.9-0.2,2.9-0.7c1.1-0.5,1.9-1.4,1.3-2.5
				c-1.1-2.4-5.8,1.1-7.6-3c-1-2.2,0-4.5,3-5.8c0.7-0.3,1.6-0.6,2.3-0.8l0.7,2.2c-0.8,0.1-1.5,0.3-2.3,0.6c-1.4,0.6-1.8,1.5-1.4,2.4
				c1,2.2,5.9-1,7.7,2.9C89.3,44.6,88.1,47.2,85.3,48.5z"/>
			<path class="st0" d="M92.9,33.7l2.8,10.9l-2.5,0.6l-2.8-10.9L87,35.2L86.5,33l9.3-2.4l0.5,2.2L92.9,33.7z"/>
		</g>
		<g>
			<path class="st0" d="M101.7,155.6c-0.2,0-0.6,0-0.9-0.1l-0.4,4.7l-2.6-0.2l1.1-13.4c1.1,0,2.3,0.1,3.6,0.2c3.3,0.3,5,2,4.8,4.6
				C107.2,154,105,155.9,101.7,155.6z M102.3,148.9c-0.3,0-0.6,0-0.9-0.1l-0.4,4.5c0.3,0.1,0.5,0.1,0.8,0.1c1.6,0.1,2.8-0.7,2.9-2.1
				C104.8,149.9,104.1,149,102.3,148.9z"/>
			<path class="st0" d="M116.6,159.9l-4.2-5.1h-0.2l0.6,5.5l-2.6,0.3l-1.5-13.4c1-0.2,2.3-0.3,3.8-0.5c3-0.3,5,0.5,5.3,3.2
				c0.2,2-1.1,3.6-2.9,4.1c0.4,0.5,0.9,0.9,1.2,1.4l3.6,4.2L116.6,159.9z M112.5,148.8c-0.4,0-0.8,0.1-1,0.2l0.4,3.9
				c0.2,0,0.5,0,0.9-0.1c1.6-0.2,2.4-1.1,2.3-2.3C115,149.2,114.1,148.7,112.5,148.8z"/>
			<path class="st0" d="M128.3,157.3c-3.9,1.3-6.7-0.5-8-4.4c-1.5-4.2,0.5-7.8,3.9-8.9c3.9-1.3,6.7,0.5,8,4.4
				C133.7,152.6,131.7,156.1,128.3,157.3z M124.7,146.2c-1.9,0.7-2.9,2.7-1.9,5.4c0.9,2.7,2.6,4.1,4.9,3.3c1.9-0.7,2.9-2.7,1.9-5.4
				C128.7,146.8,127,145.4,124.7,146.2z"/>
			<path class="st0" d="M149,145.8l-4.5-4.8c-0.8-0.9-1.7-1.8-2.3-2.5l0,0c0.3,0.8,0.8,1.9,1.1,3l2.1,6.8l-2.1,1.4l-5.3-4
				c-1-0.8-2-1.6-2.7-2.4l0,0c0.6,1,1.2,2.1,1.7,3.2l2.9,5.6l-2.2,1.5l-6-12.3l2.5-1.7l5.8,4.4c0.6,0.5,1.5,1.3,2.2,1.9l0,0
				c-0.4-1-0.7-2-1-2.7l-2.1-7.1l2.5-1.7l9.4,9.9L149,145.8z"/>
			<path class="st0" d="M153.7,141.2l-9.7-9.3l1.8-1.9l9.7,9.3L153.7,141.2z"/>
			<path class="st0" d="M159.9,134.3c-0.7,1-1.4,1.7-2.1,2.3l-1.9-1.7c0.8-0.5,1.6-1.2,2.2-2c0.7-1,0.9-2.1-0.1-2.9
				c-2.1-1.5-4.5,3.8-8.1,1.2c-1.9-1.4-2.2-3.9-0.3-6.5c0.4-0.6,1.1-1.3,1.6-1.8l1.7,1.5c-0.6,0.5-1.2,1-1.7,1.7
				c-0.9,1.2-0.8,2.2,0,2.7c1.9,1.4,4.6-3.8,8.1-1.3C161.5,129,161.7,131.8,159.9,134.3z"/>
			<path class="st0" d="M164.6,126.8l-12.1-5.9l3.2-6.6l2,1l-2.1,4.3l3,1.4l2-4l1.9,0.9l-2,4l3.3,1.6l2.1-4.3l2,1L164.6,126.8z"/>
		</g>
		<g>
			<path class="st5" d="M109.6,70.1c0,0.2-0.1,0.3-0.2,0.5c-0.2,0.2-0.5,0.5-0.7,0.7c-0.3,0.2-0.5,0.5-0.6,0.8s-0.3,0.6-0.4,0.9
				c-0.1,0.1-0.1,0.2-0.3,0.3l-0.1,0.1c-0.1,0.1-0.3,0.1-0.5,0c-0.1,0-0.2-0.1-0.3-0.2c-0.1,0,0,0.1,0,0.1c0,0.1,0,0.2,0,0.3
				c0,0.1-0.1,0.2-0.3,0.3c-0.4,0.2-0.7,0.4-1.1,0.6c-0.4,0.2-0.8,0.5-1.2,0.7c-0.1,0.1-0.3,0.1-0.4,0.2c-0.2,0.1-0.4,0.2-0.5,0.3
				c-0.3,0.2-0.6,0.3-0.9,0.5c-0.2,0.1-0.4,0.2-0.6,0.3c-0.1,0-0.1,0.1-0.2,0.1c-0.2,0.1-0.4,0.2-0.5,0.3c-0.2,0.2-0.5,0.3-0.8,0.3
				c-0.2,0-0.2,0-0.2-0.2c0.1-0.2,0.2-0.4,0.3-0.6c0.1-0.1,0.2-0.2,0.3-0.3c0.3-0.2,0.6-0.4,0.9-0.5c0.1,0,0.2-0.1,0.2-0.2
				c0.1-0.1,0.1-0.1,0-0.2s-0.2-0.1-0.2-0.2c-0.1-0.1-0.2-0.1-0.3-0.2c-0.3-0.1-0.5-0.3-0.7-0.5c-0.2-0.1-0.3-0.3-0.5-0.5
				c-0.1-0.1-0.2-0.2-0.4-0.4c-0.2-0.2-0.3-0.4-0.4-0.6c-0.1-0.3-0.1-0.6-0.1-0.9c0-0.1,0.1-0.3,0.2-0.4c0.3-0.3,0.7-0.6,1.1-0.6
				c0.1,0,0.2,0,0.3-0.1c-0.1-0.1-0.1-0.2-0.2-0.3c-0.1-0.2-0.2-0.3-0.3-0.5c-0.1-0.1-0.2-0.3-0.3-0.4c-0.1-0.2-0.2-0.4-0.3-0.6
				c0-0.1-0.1-0.2-0.1-0.3c-0.1-0.3-0.2-0.6-0.3-0.9c0-0.1-0.1-0.2-0.1-0.4c-0.1-0.3-0.2-0.5-0.5-0.5c-0.1,0-0.2,0-0.3,0
				C98,67,97.9,67,97.8,67.1s-0.2,0.1-0.3,0.2l0,0c-0.4,0.2-0.9,0.4-1.3,0.7c-0.1,0.1-0.2,0.1-0.3,0.2c-0.3,0.2-0.6,0.4-0.8,0.6
				s-0.4,0.2-0.6,0.3h-0.1c-0.1,0-0.2-0.1-0.2-0.2s0-0.1,0-0.2s0-0.2-0.1-0.2s-0.2,0-0.3,0c-0.2,0-0.3-0.1-0.2-0.3
				c0.1-0.1,0.1-0.2,0.2-0.3c0.1-0.1,0.2-0.2,0.3-0.4c0.1-0.2,0.3-0.3,0.5-0.5s0.4-0.4,0.5-0.5c0.2-0.2,0.3-0.3,0.5-0.5
				c0.1-0.1,0.3-0.2,0.4-0.2c0.3-0.1,0.6-0.3,0.9-0.5c0.1,0,0.1-0.1,0.2-0.1c0.2-0.1,0.2-0.3,0.1-0.5c0-0.1-0.1-0.1-0.1-0.2
				c-0.2-0.3-0.3-0.6-0.4-1c-0.1-0.4-0.2-0.8-0.3-1.3c-0.1-0.4-0.2-0.7-0.4-1c-0.1-0.1-0.2-0.2-0.3-0.4c0,0,0,0-0.1-0.1
				c-0.2-0.3-0.5-0.4-0.9-0.3c-0.3,0.1-0.5,0.2-0.7,0.4c-0.2,0.2-0.4,0.3-0.7,0.5c-0.1,0-0.1,0.1-0.2,0.1c-0.3,0.3-0.6,0.4-1,0.4
				l0,0c-0.3,0-0.5,0.1-0.8,0.2c-0.1,0-0.1,0.1-0.2,0.1c-0.3,0.1-0.6,0-0.8-0.3c0,0,0-0.1,0-0.2c0-0.2,0.1-0.4,0.2-0.7
				c0.1-0.2,0.2-0.4,0.2-0.6c0-0.1,0.1-0.2,0.1-0.3c0-0.2,0.1-0.3,0.1-0.5c0-0.3,0.1-0.6,0.1-0.9c0-0.2,0.1-0.3,0.2-0.5
				c0.3-0.3,0.4-0.7,0.7-1.1c0.2-0.2,0.4-0.5,0.6-0.7c0.1-0.2,0.3-0.3,0.4-0.4c0,0,0.1,0,0.1-0.1c0.3-0.2,0.7-0.5,1.1-0.6
				c0.3-0.1,0.7-0.2,1-0.1c0.2,0.1,0.5,0.2,0.7,0.3c0.2,0.1,0.5,0.3,0.7,0.4c0.1,0,0.1,0.1,0.2,0.2c0.1,0.2,0.3,0.3,0.4,0.5
				c0.2,0.2,0.4,0.5,0.6,0.7c0,0.1,0.1,0.1,0.1,0.2c0.1,0.3,0.4,0.5,0.6,0.7c0.2,0.2,0.5,0.5,0.7,0.7c0.1,0.1,0.2,0.2,0.3,0.2
				c0.3,0.2,0.5,0.3,0.8,0.5c0.2,0.1,0.4,0.3,0.6,0.4c0.2,0.1,0.3,0.3,0.4,0.4c0.1,0.1,0.1,0.1,0.2,0.1c0.3,0.1,0.5,0.2,0.7,0.5
				c0.1,0.1,0.2,0.2,0.3,0.3c0.2,0.1,0.3,0.3,0.4,0.4c0.2,0.3,0.4,0.4,0.6,0.6c0.2,0.2,0.4,0.4,0.5,0.7c0.1,0.2,0.2,0.4,0.3,0.6
				c0.2,0.2,0.4,0.5,0.6,0.7c0.1,0.1,0.1,0.2,0.1,0.4v0.1c0,0.2,0,0.3,0.1,0.5c0.3,0.5,0.6,1.1,0.8,1.7c0,0.1,0,0.1,0,0.2
				s0,0.1,0,0.2s0,0.3,0.1,0.4s0.1,0.2,0.1,0.3c0,0.1,0.1,0.2,0.2,0.3c0.1,0.1,0.1,0.3,0.1,0.4c0,0,0,0,0,0.1c-0.1,0.4,0,0.7,0.3,1
				c0.1,0.1,0.1,0.2,0.1,0.3c0,0.1,0,0.3,0.2,0.3c0.1,0,0.1,0.1,0.2,0c0.4-0.2,0.8-0.4,1.2-0.7c0.1-0.1,0.2-0.1,0.3-0.2
				c0.3-0.2,0.5-0.3,0.8-0.5C109.4,70.1,109.5,70,109.6,70.1z"/>
			<path class="st6" d="M88.6,83.4c0,0.1,0,0.1,0,0.2s0,0.2,0,0.3c0,0.1-0.1,0.2-0.2,0.3c-0.2,0.1-0.5,0.2-0.7,0.2s-0.5,0-0.7-0.1
				c-0.5-0.1-0.9,0-1.4,0.2c-0.2,0.1-0.5,0.2-0.8,0.2c-0.2,0-0.3,0-0.4,0c0-0.1,0-0.1,0.1-0.1c0.1-0.1,0.2-0.1,0.4-0.2
				c0.1,0,0.2-0.1,0.2-0.1c0.4-0.2,0.9-0.5,1.3-0.7c0.2-0.1,0.3-0.2,0.5-0.3C87,83.2,87,83.1,87,83c0-0.1-0.1-0.1-0.1-0.2
				c-0.1-0.1-0.2-0.2-0.3-0.4c-0.1-0.2-0.2-0.3-0.3-0.5l-0.1-0.1c-0.1,0-0.1-0.1-0.2-0.1c-0.2-0.1-0.4-0.2-0.5-0.5
				c0,0,0-0.1-0.1-0.1c-0.1-0.2-0.3-0.3-0.4-0.5c0-0.1-0.1-0.1-0.2-0.1c-0.1,0-0.1-0.1-0.2-0.1c-0.1,0-0.2-0.1-0.3-0.2
				c-0.1-0.2-0.3-0.4-0.5-0.7c-0.2-0.3-0.4-0.6-0.6-0.9c-0.1-0.1-0.2-0.2-0.3-0.2c-0.2-0.1-0.3-0.3-0.4-0.5
				c-0.1-0.4-0.3-0.7-0.4-1.1c0-0.1-0.1-0.1-0.1-0.2c-0.2-0.2-0.3-0.5-0.4-0.8c0-0.3-0.1-0.6-0.3-0.9c-0.1-0.1-0.1-0.3-0.1-0.4
				c0-0.2-0.1-0.4-0.2-0.6c0-0.1,0-0.2,0-0.2c0-0.2,0-0.3,0.1-0.4c0-0.1,0-0.1,0-0.2C81,72.9,81,72.7,81,72.5c-0.1-0.5,0-1-0.1-1.5
				c0-0.2-0.1-0.4-0.1-0.7c-0.1-0.3-0.2-0.6-0.2-0.8c-0.1-0.3-0.2-0.5-0.3-0.8c-0.2-0.4-0.3-0.9-0.5-1.3c-0.1-0.3-0.2-0.5-0.2-0.8
				c0-0.1,0-0.3,0-0.5s0-0.5,0.1-0.7c0-0.4,0.2-0.7,0.4-0.9c0.3-0.4,0.7-0.7,1.1-0.9c0.2-0.1,0.4-0.1,0.6-0.2
				c0.4-0.1,0.7-0.2,1.1-0.2c0.1,0,0.2,0,0.3,0c0.3,0,0.5,0,0.8,0s0.5,0.1,0.8,0.2s0.5,0.3,0.8,0.3c0.3,0.1,0.7,0.1,1,0.2
				c0.2,0,0.4,0,0.6,0h0.1c0.2,0,0.4,0.1,0.4,0.4c0,0.2,0,0.4-0.2,0.6c-0.1,0.1-0.2,0.1-0.3,0.2c-0.2,0.1-0.3,0.2-0.4,0.4
				c-0.1,0.2-0.3,0.4-0.5,0.6c-0.1,0.1-0.2,0.1-0.3,0.1c-0.4,0.1-0.7,0.3-1.1,0.4c-0.2,0.1-0.4,0.1-0.5,0.2S84.1,67,84,67.1
				c-0.2,0.3-0.2,0.5-0.1,0.8c0,0.1,0.1,0.2,0.1,0.2c0.1,0.2,0.1,0.4,0.3,0.6s0.3,0.5,0.6,0.7c0.3,0.3,0.6,0.6,0.9,0.9
				c0.3,0.2,0.5,0.5,0.6,0.9c0.1,0.3,0.3,0.3,0.6,0.2c0.3-0.2,0.6-0.3,0.9-0.5c0.1,0,0.1-0.1,0.2-0.2c0.2-0.1,0.4-0.2,0.6-0.3
				c0.3-0.1,0.7-0.2,1-0.2c0.1,0,0.2-0.1,0.3-0.1c0.1-0.1,0.3-0.1,0.4-0.1c0.2,0,0.5-0.1,0.7-0.1c0.1,0,0.1,0,0.2,0
				c0.2,0,0.2,0.1,0.1,0.3c-0.1,0.1-0.1,0.2-0.2,0.3c-0.1,0.1-0.1,0.2,0.1,0.2c0.3,0.1,0.3,0.2,0.1,0.4c-0.2,0.2-0.4,0.3-0.7,0.4
				c-0.2,0-0.4,0.1-0.6,0.2c-0.3,0.1-0.5,0.3-0.8,0.4c-0.4,0.2-0.7,0.5-1.1,0.7c-0.1,0.1-0.2,0.1-0.3,0.2c-0.1,0-0.2,0.1-0.2,0.1
				c-0.3,0.2-0.4,0.4-0.2,0.7c0.1,0.2,0.3,0.4,0.4,0.5c0.3,0.3,0.5,0.6,0.8,0.9c0.1,0.1,0.2,0.2,0.3,0.3c0.1,0.1,0.1,0.2,0.2,0.3
				c0.1,0.3,0.2,0.5,0.3,0.8c0,0.1,0.1,0.1,0.1,0.2c0.1,0.1,0.1,0.3,0.2,0.4c0.1,0.2,0.2,0.2,0.3,0c0,0,0.1-0.1,0.1-0.2
				c0.2-0.3,0.5-0.5,0.8-0.6s0.6,0,0.9,0.2c0.4,0.3,0.7,0.7,0.8,1.2c0.1,0.3,0.1,0.5,0.2,0.8v0.1c0,0.4,0.1,0.8,0.1,1.2
				c0,0.1,0,0.2,0,0.3c0,0.1,0.1,0.2,0.2,0.1c0.2-0.1,0.5-0.2,0.7-0.4c0.1-0.1,0.3-0.2,0.4-0.2c0.2-0.1,0.3-0.1,0.5-0.1s0.3,0,0.5,0
				h0.1c0.1,0,0.2,0.1,0.1,0.2c-0.1,0.1-0.2,0.2-0.4,0.3c-0.1,0.1-0.3,0.1-0.4,0.2c-0.1,0.1-0.2,0.1-0.3,0.2
				c-0.2,0.1-0.5,0.2-0.7,0.3c-0.1,0-0.2,0.1-0.3,0.2c-0.3,0.3-0.7,0.4-1,0.6c-0.2,0.1-0.3,0.2-0.5,0.3c-0.2,0.2-0.4,0.3-0.7,0.4
				c-0.3,0.2-0.7,0.4-1,0.6s-0.6,0.4-0.9,0.6C89.1,83.6,88.9,83.6,88.6,83.4C88.8,83.5,88.8,83.5,88.6,83.4
				C88.7,83.4,88.7,83.4,88.6,83.4z"/>
		</g>
		<g>
			<path class="st7" d="M117.3,125.9c0.2,0.2,0.7,0.3,1.3,0.1l-0.7-1.1c-0.6,0.1-0.7-0.1-0.7-0.1
				C116.8,125.3,117.1,125.8,117.3,125.9z"/>
			<path class="st7" d="M121.4,127.4l1,1.6c0.6-0.5,0.7-1,0.4-1.3c-0.1-0.2-0.3-0.3-0.6-0.3l0,0c-0.1,0.2-0.4,0.4-0.4,0.4l-0.2-0.4
				C121.5,127.4,121.4,127.4,121.4,127.4z"/>
			<path class="st7" d="M115.4,124c0.3-0.5,1.2-1.1,1.2-1.1l-0.5-0.7l1.5-0.9l0.5,0.8c1.6-0.7,3.2-0.6,3.2-0.6l-0.5-0.9
				c0,0-1.4-0.1-3,0.5l-0.5-0.7l-1.4,0.8l0.2,0.9c0,0-0.7,0.5-1.1,1.3c-0.4,0.8-0.2,1.7-0.2,2.5C114.7,125,115.1,124.4,115.4,124z"
				/>
			<path class="st7" d="M123.1,124.3c-0.6-0.3-1-0.3-1.6-0.2c-0.6,0-1.7,0.3-1.7,0.3l-0.5-0.8c-0.1,0-0.1,0-0.2,0.1l1.2,1.9
				c0.2-0.1,0.5-0.1,0.7-0.2c0.7-0.2,1.8-0.3,2.7,0.1c0.4,0.2,0.8,0.5,1.1,1l0,0c0-0.1-0.5-0.9-0.6-1
				C124.1,125.2,123.7,124.6,123.1,124.3z"/>
			<path class="st7" d="M120.1,128.5L120.1,128.5c-0.2,0.1-0.9,0.3-1.6,0.3c-0.6,0.1-1.1,0-1.1,0l0.2,1.4c0,0,1.2,0.2,3.2-0.5
				L120.1,128.5z"/>
			<path class="st7" d="M123.2,130.5l0.5,0.8l-0.4-0.9C123.3,130.4,123.3,130.5,123.2,130.5z"/>
			<path class="st1" d="M123.6,125.5c-0.9-0.4-2-0.2-2.7-0.1c-0.2,0-0.4,0.1-0.7,0.2l-1.2-1.9c0.5-0.2,0.9-0.3,1.3-0.3
				c0.8-0.2,1.9-0.2,1.9-0.2l-1-1.7c0,0-1.6-0.1-3.2,0.6l-0.5-0.8l-1.5,0.9l0.5,0.7l0,0c0,0-0.9,0.7-1.2,1.1s-0.8,1.2-0.6,2.3
				s1.3,1.8,1.8,1.9c0.5,0.1,1.1,0.1,1.6,0.1c0.3,0,0.9-0.2,1.5-0.3l1.2,1.9c-2,0.7-3.2,0.5-3.2,0.5l1,1.5c0,0,1.6,0.1,3.1-0.6l0,0
				l0.5,0.9l1.4-0.8l-0.5-0.8c0.8-0.5,1.3-1.2,1.7-2C125.5,127.2,124.6,125.9,123.6,125.5z M117.3,125.9c-0.2-0.2-0.5-0.7,0.1-1.3
				c0.1-0.1,0.1-0.1,0.2-0.2l1,1.7C118,126.2,117.5,126.1,117.3,125.9z M122.3,129l-1-1.6c0.4-0.1,1-0.2,1.4,0.3
				C123,128,123,128.5,122.3,129z"/>
			<path class="st1" d="M129,119.2c0.1,0.3-0.1,0.8-0.5,1.2l-0.6-1.2c0.3-0.5,0.3-0.7,0.3-0.7C128.7,118.5,128.9,119,129,119.2z"/>
			<path class="st1" d="M128.2,123.5l0.9,1.6c-0.8,0.3-1.2,0.1-1.4-0.3c-0.1-0.2-0.1-0.4,0-0.6l0,0c0.2,0,0.6-0.1,0.6-0.1l-0.2-0.4
				C128.1,123.5,128.1,123.5,128.2,123.5z"/>
			<path class="st1" d="M128.2,116.5c-0.6,0-1.6,0.5-1.6,0.5l-0.4-0.8l-1.5,0.9l0.4,0.8c-1.4,1.1-2.1,2.5-2.1,2.5l-0.5-0.9
				c0,0,0.6-1.3,1.9-2.3l-0.4-0.8l1.4-0.8l0.7,0.6c0,0,0.8-0.3,1.7-0.3s1.6,0.6,2.3,1.1C129.4,116.5,128.7,116.5,128.2,116.5z"/>
			<path class="st1" d="M124.7,123.4c0.1-0.6,0.3-1,0.6-1.5s1.1-1.3,1.1-1.3l-0.5-0.9l0.1-0.1l1.1,2c-0.2,0.2-0.4,0.3-0.5,0.5
				c-0.5,0.5-1.2,1.4-1.3,2.4c-0.1,0.4,0.1,1,0.3,1.4l0,0c0-0.1-0.5-0.9-0.6-1C125,124.7,124.6,124.1,124.7,123.4z"/>
			<path class="st1" d="M129.8,123L129.8,123c0.1-0.1,0.7-0.7,1.1-1.2c0.4-0.5,0.6-0.9,0.6-0.9l1.1,0.9c0,0-0.4,1.2-2.1,2.5
				L129.8,123z"/>
			<path class="st1" d="M129.9,126.6l0.5,0.9l-0.6-0.8C129.8,126.7,129.9,126.7,129.9,126.6z"/>
			<path class="st7" d="M127.3,127c0.9,0.1,1.7,0,2.6-0.4l0.5,0.9l1.4-0.8l-0.5-0.9l0,0c1.3-1,2.1-2.4,2.1-2.4l-0.8-1.7
				c0,0-0.4,1.2-2.1,2.5l-1-2c0.4-0.4,0.9-0.9,1-1.1c0.3-0.5,0.6-1,0.8-1.5c0.1-0.5,0.1-1.8-0.8-2.5c-0.8-0.7-1.7-0.7-2.2-0.6
				c-0.6,0-1.6,0.5-1.6,0.5l0,0l-0.4-0.8l-1.5,0.9l0.4,0.8c-1.4,1.1-2.1,2.5-2.1,2.5l1,1.7c0,0,0.6-1,1.1-1.6
				c0.2-0.3,0.6-0.6,0.9-0.9l1.1,2c-0.2,0.2-0.4,0.3-0.5,0.5c-0.5,0.5-1.2,1.4-1.3,2.4C125.2,125.5,126,126.9,127.3,127z
				 M128.4,120.4l-0.9-1.7c0.1,0,0.2-0.1,0.2-0.1c0.8-0.2,1.1,0.4,1.2,0.6C129,119.4,128.9,119.9,128.4,120.4z M127.7,124.8
				c-0.2-0.5,0.2-1,0.5-1.3l0.9,1.7C128.3,125.4,127.9,125.2,127.7,124.8z"/>
		</g>
	</g>
</g>
</svg>
