<svg width="12" height="16" viewBox="0 0 12 16" fill="none" xmlns="http://www.w3.org/2000/svg">
<path d="M3.58915 14.2109C3.58915 14.3917 3.61928 14.5725 3.73982 14.7232L4.25209 15.5067C4.40276 15.7478 4.76437 15.9286 5.06571 15.9286H6.90388C7.20522 15.9286 7.56683 15.7478 7.71749 15.5067L8.22977 14.7232C8.32017 14.6027 8.38044 14.3616 8.38044 14.2109L8.41058 13.0357H3.58915V14.2109ZM5.99986 0.5C2.9262 0.530134 0.696289 3.00112 0.696289 5.80357C0.696289 7.12946 1.17843 8.33482 1.99205 9.26897C2.50432 9.84152 3.25767 11.0469 3.55901 12.0413C3.55901 12.0413 3.55901 12.0413 3.55901 12.0714H8.41058C8.41058 12.0413 8.41058 12.0413 8.41058 12.0413C8.71191 11.0469 9.46526 9.84152 9.97754 9.26897C10.7912 8.36496 11.3034 7.1596 11.3034 5.80357C11.3034 2.88058 8.92285 0.530134 5.99986 0.5ZM8.89272 8.36496C8.41058 8.87723 7.83803 9.75112 7.41616 10.625H4.55343C4.13156 9.75112 3.55901 8.87723 3.07687 8.36496C2.47419 7.64174 2.14272 6.73772 2.14272 5.80357C2.14272 3.93527 3.58915 1.97656 5.96973 1.94643C8.10924 1.94643 9.857 3.6942 9.857 5.80357C9.857 6.73772 9.4954 7.64174 8.89272 8.36496ZM5.51772 2.91071C4.16169 2.91071 3.107 3.99554 3.107 5.32143C3.107 5.59263 3.31794 5.80357 3.58915 5.80357C3.83022 5.80357 4.07129 5.59263 4.07129 5.32143C4.07129 4.53795 4.7041 3.875 5.51772 3.875C5.75879 3.875 5.99986 3.66406 5.99986 3.42299C5.99986 3.15179 5.75879 2.91071 5.51772 2.91071Z" fill="#063A6D"/>
</svg>
